#N canvas 88 28 892 571 10;
#X obj 108 205 cnv 15 98 98 empty quiggull 34 34 0 0 4 -262144 -262144
0;
#N canvas 0 22 458 308 (subpatch) 0;
#X array \$0-OverTone 515 float 3;
#A 0 -3.72698 0 0 0 3.72698 0 7.44053 0 11.1272 0 14.7734 0 18.3656
0 21.89 0 25.3329 0 28.6802 0 31.9179 0 35.032 0 38.0083 0 40.8328
0 43.4915 0 45.9708 0 48.2573 0 50.338 0 52.2008 0 53.8339 0 55.2269
0 56.37 0 57.2549 0 57.8747 0 58.2238 0 58.2984 0 58.0966 0 57.6185
0 56.8659 0 55.843 0 54.5562 0 53.0139 0 51.227 0 49.2084 0 46.9731
0 44.5382 0 41.9229 0 39.1478 0 36.2355 0 33.2097 0 30.0954 0 26.9184
0 23.7052 0 20.4827 0 17.2775 0 14.1164 0 11.0252 0 8.02891 0 5.15144
0 2.41503 0 -0.159805 0 -2.55464 0 -4.75331 0 -6.74219 0 -8.51031 0
-10.0495 0 -11.3546 0 -12.4232 0 -13.2562 0 -13.8574 0 -14.2333 0 -14.3935
0 -14.3501 0 -14.118 0 -13.7139 0 -13.1571 0 -12.4682 0 -11.6695 0
-10.7845 0 -9.83737 0 -8.85285 0 -7.85573 0 -6.87063 0 -5.92157 0 -5.03165
0 -4.22276 0 -3.51528 0 -2.92776 0 -2.47674 0 -2.17649 0 -2.03886 0
-2.07313 0 -2.28591 0 -2.68109 0 -3.25981 0 -4.02048 0 -4.95886 0 -6.06812
0 -7.33904 0 -8.7601 0 -10.3177 0 -11.9966 0 -13.7795 0 -15.6484 0
-17.5837 0 -19.5654 0 -21.5728 0 -23.5851 0 -25.5817 0 -27.5422 0 -29.447
0 -31.2772 0 -33.0152 0 -34.6445 0 -36.1502 0 -37.5189 0 -38.739 0
-39.8006 0 -40.6957 0 -41.4179 0 -41.9631 0 -42.3284 0 -42.513 0 -42.5176
0 -42.3443 0 -41.9964 0 -41.4788 0 -40.7969 0 -39.9572 0 -38.9668 0
-37.8333 0 -36.5644 0 -35.1681 0 -33.6523 0 -32.0245 0 -30.2921 0 -28.462
0 -26.5406 0 -24.5335 0 -22.446 0 -20.2823 0 -18.0464 0 -15.7413 0
-13.3698 0 -10.9338 0 -8.43504 0 -5.87503 0 -3.25499 0 -0.576174 0
2.16002 0 4.95191 0 7.7974 0 10.6937 0 13.6375 0 16.6243 0 19.6489
0 22.7047 0 25.784 0 28.8781 0 31.9765 0 35.0677 0 38.1388 0 41.1755
0 44.1624 0 47.0829 0 49.9193 0 52.6532 0 55.2653 0 57.736 0 60.045
0 62.1724 0 64.0982 0 65.8026 0 67.2669 0 68.4731 0 69.4042 0 70.045
0 70.3815 0 70.4021 0 70.0969 0 69.4584 0 68.4817 0 67.1642 0 65.5063
0 63.511 0 61.1841 0 58.5342 0 55.5729 0 52.3143 0 48.7753 0 44.9752
0 40.9358 0 36.6809 0 32.2365 0 27.6301 0 22.8908 0 18.0488 0 13.1351
0 8.18159 0 3.2201 0 -1.71739 0 -6.5993 0 -11.3947 0 -16.0736 0 -20.6073
0 -24.9686 0 -29.1318 0 -33.0737 0 -36.7727 0 -40.2099 0 -43.3688 0
-46.2356 0 -48.7989 0 -51.0504 0 -52.9843 0 -54.5977 0 -55.8902 0 -56.8643
0 -57.5248 0 -57.8791 0 -57.9367 0 -57.7093 0 -57.2105 0 -56.4555 0
-55.4611 0 -54.2454 0 -52.8276 0 -51.2274 0 -49.4656 0 -47.5628 0 -45.5402
0 -43.4188 0 -41.2191 0 -38.9615 0 -36.6655 0 -34.35 0 -32.0328 0 -29.7307
0 -27.4595 0 -25.2334 0 -23.0657 0 -20.968 0 -18.9506 0 -17.0226 0
-15.1914 0 -13.4632 0 -11.8428 0 -10.3336 0 -8.93773 0 -7.6563 0 -6.48911
0 -5.43495 0 -4.49161 0 -3.65597 0 -2.92409 0 -2.29127 0 -1.75214 0
-1.30073 0 -0.930528 0 -0.634589 0 -0.405555 0 -0.235737 0 -0.117159
0 -0.0416164 0 -0.000715814 0 0.0140805 0 0.0114159 0 2.78356e-06;
#X coords 0 100 515 -100 100 100 1;
#X restore 2 178 graph;
#X obj 13 387 outlet~;
#X obj 25 298 inlet;
#X obj 22 332 sig~;
#X obj 15 362 tabosc4~ \$0-OverTone;
#N canvas 0 22 490 340 new 0;
#X obj 118 43 inlet;
#X obj 290 44 inlet;
#X obj 207 264 outlet;
#X obj 185 197 sin;
#N canvas 0 22 458 308 countup 0;
#X obj 169 77 inlet;
#X obj 201 44 int;
#X obj 244 129 + 1;
#X obj 232 183 * 1;
#X obj 299 73 inlet;
#X obj 221 237 outlet;
#X connect 0 0 1 0;
#X connect 1 0 2 0;
#X connect 1 0 3 0;
#X connect 2 0 1 1;
#X connect 3 0 5 0;
#X connect 4 0 3 1;
#X restore 185 177 pd countup;
#X floatatom 232 136 5 0 0 0 - - -;
#X obj 155 105 tgl 15 0 empty empty empty 0 -6 0 8 -262144 -1 -1 0
1;
#X obj 155 123 metro 50;
#X obj 290 93 * 0.01;
#X connect 0 0 6 0;
#X connect 1 0 8 0;
#X connect 3 0 2 0;
#X connect 4 0 3 0;
#X connect 5 0 4 1;
#X connect 6 0 7 0;
#X connect 7 0 4 0;
#X connect 8 0 5 0;
#X restore 316 223 pd new LFO;
#X obj 315 206 tgl 15 0 empty otTWO empty 0 -6 0 8 -262144 -1 -1 0
1;
#N canvas 0 22 486 336 new 0;
#X obj 118 43 inlet;
#X obj 290 44 inlet;
#X obj 207 264 outlet;
#X obj 193 214 sin;
#N canvas 0 22 462 312 countup 0;
#X obj 169 77 inlet;
#X obj 201 44 int;
#X obj 244 129 + 1;
#X obj 232 183 * 1;
#X obj 299 73 inlet;
#X obj 221 237 outlet;
#X connect 0 0 1 0;
#X connect 1 0 2 0;
#X connect 1 0 3 0;
#X connect 2 0 1 1;
#X connect 3 0 5 0;
#X connect 4 0 3 1;
#X restore 185 177 pd countup;
#X obj 155 105 tgl 15 0 empty empty empty 0 -6 0 8 -262144 -1 -1 0
1;
#X obj 155 124 metro 50;
#X obj 290 93 * 0.01;
#X connect 0 0 5 0;
#X connect 1 0 7 0;
#X connect 3 0 2 0;
#X connect 4 0 3 0;
#X connect 5 0 6 0;
#X connect 6 0 4 0;
#X connect 7 0 4 1;
#X restore 341 264 pd new LFO;
#X obj 340 247 tgl 15 0 empty otTHREE empty 0 -6 0 8 -262144 -1 -1
0 1;
#N canvas 0 22 494 344 new 0;
#X obj 118 43 inlet;
#X obj 290 44 inlet;
#X obj 207 264 outlet;
#X obj 185 197 sin;
#N canvas 0 22 458 308 countup 0;
#X obj 169 77 inlet;
#X obj 201 44 int;
#X obj 244 129 + 1;
#X obj 232 183 * 1;
#X obj 299 73 inlet;
#X obj 221 237 outlet;
#X connect 0 0 1 0;
#X connect 1 0 2 0;
#X connect 1 0 3 0;
#X connect 2 0 1 1;
#X connect 3 0 5 0;
#X connect 4 0 3 1;
#X restore 185 177 pd countup;
#X obj 155 105 tgl 15 0 empty empty empty 0 -6 0 8 -262144 -1 -1 0
1;
#X obj 155 124 metro 50;
#X obj 289 91 * 0.01;
#X connect 0 0 5 0;
#X connect 1 0 7 0;
#X connect 3 0 2 0;
#X connect 4 0 3 0;
#X connect 5 0 6 0;
#X connect 6 0 4 0;
#X connect 7 0 4 1;
#X restore 386 303 pd new LFO;
#X obj 385 286 tgl 15 0 empty otFOUR empty 0 -6 0 8 -262144 -1 -1 0
1;
#N canvas 0 22 506 356 new 0;
#X obj 118 43 inlet;
#X obj 290 44 inlet;
#X obj 207 264 outlet;
#X obj 185 197 sin;
#N canvas 0 22 462 312 countup 0;
#X obj 169 77 inlet;
#X obj 201 44 int;
#X obj 244 129 + 1;
#X obj 232 183 * 1;
#X obj 299 73 inlet;
#X obj 221 237 outlet;
#X connect 0 0 1 0;
#X connect 1 0 2 0;
#X connect 1 0 3 0;
#X connect 2 0 1 1;
#X connect 3 0 5 0;
#X connect 4 0 3 1;
#X restore 185 177 pd countup;
#X obj 155 105 tgl 15 0 empty empty empty 0 -6 0 8 -262144 -1 -1 1
1;
#X obj 156 125 metro 50;
#X obj 290 93 * 0.01;
#X connect 0 0 5 0;
#X connect 1 0 7 0;
#X connect 3 0 2 0;
#X connect 4 0 3 0;
#X connect 5 0 6 0;
#X connect 6 0 4 0;
#X connect 7 0 4 1;
#X restore 423 348 pd new LFO;
#X obj 422 331 tgl 15 0 empty otFIVE empty 0 -6 0 8 -262144 -1 -1 1
1;
#N canvas 0 22 490 340 new 0;
#X obj 118 43 inlet;
#X obj 290 44 inlet;
#X obj 207 264 outlet;
#X obj 185 197 sin;
#N canvas 0 22 458 308 countup 0;
#X obj 169 77 inlet;
#X obj 201 44 int;
#X obj 244 129 + 1;
#X obj 232 183 * 1;
#X obj 299 73 inlet;
#X obj 221 237 outlet;
#X connect 0 0 1 0;
#X connect 1 0 2 0;
#X connect 1 0 3 0;
#X connect 2 0 1 1;
#X connect 3 0 5 0;
#X connect 4 0 3 1;
#X restore 185 177 pd countup;
#X obj 155 105 tgl 15 0 empty empty empty 0 -6 0 8 -262144 -1 -1 1
1;
#X obj 154 126 metro 50;
#X obj 290 93 * 0.01;
#X connect 0 0 5 0;
#X connect 1 0 7 0;
#X connect 3 0 2 0;
#X connect 4 0 3 0;
#X connect 5 0 6 0;
#X connect 6 0 4 0;
#X connect 7 0 4 1;
#X restore 468 387 pd new LFO;
#X obj 467 370 tgl 15 0 empty otSIX empty 0 -6 0 8 -262144 -1 -1 1
1;
#N canvas 0 22 482 332 new 0;
#X obj 118 43 inlet;
#X obj 294 48 inlet;
#X obj 207 264 outlet;
#X obj 211 41 inlet;
#X obj 185 197 sin;
#N canvas 0 22 462 312 countup 0;
#X obj 169 77 inlet;
#X obj 201 44 int;
#X obj 244 129 + 1;
#X obj 232 183 * 1;
#X obj 299 73 inlet;
#X obj 221 237 outlet;
#X connect 0 0 1 0;
#X connect 1 0 2 0;
#X connect 1 0 3 0;
#X connect 2 0 1 1;
#X connect 3 0 5 0;
#X connect 4 0 3 1;
#X restore 185 178 pd countup;
#X obj 155 124 metro 100;
#X obj 155 105 tgl 15 0 empty empty empty 0 -6 0 8 -262144 -1 -1 1
1;
#X obj 290 93 * 0.01;
#X connect 0 0 7 0;
#X connect 1 0 8 0;
#X connect 4 0 2 0;
#X connect 5 0 4 0;
#X connect 6 0 5 0;
#X connect 7 0 6 0;
#X connect 8 0 5 1;
#X restore 551 214 pd new LFO;
#X obj 550 197 tgl 15 0 empty otSEVEN empty 0 -6 0 8 -262144 -1 -1
1 1;
#N canvas 0 22 486 336 new 0;
#X obj 118 43 inlet;
#X obj 290 44 inlet;
#X obj 207 264 outlet;
#X obj 211 41 inlet;
#X obj 185 197 sin;
#N canvas 0 22 462 312 countup 0;
#X obj 169 77 inlet;
#X obj 201 44 int;
#X obj 244 129 + 1;
#X obj 232 183 * 1;
#X obj 299 73 inlet;
#X obj 221 237 outlet;
#X connect 0 0 1 0;
#X connect 1 0 2 0;
#X connect 1 0 3 0;
#X connect 2 0 1 1;
#X connect 3 0 5 0;
#X connect 4 0 3 1;
#X restore 185 177 pd countup;
#X obj 155 124 metro 100;
#X obj 155 105 tgl 15 0 empty empty empty 0 -6 0 8 -262144 -1 -1 0
1;
#X obj 290 93 * 0.01;
#X connect 0 0 7 0;
#X connect 1 0 8 0;
#X connect 4 0 2 0;
#X connect 5 0 4 0;
#X connect 6 0 5 0;
#X connect 7 0 6 0;
#X connect 8 0 5 1;
#X restore 596 253 pd new LFO;
#X obj 595 236 tgl 15 0 empty otEIGHT empty 0 -6 0 8 -262144 -1 -1
0 1;
#N canvas 0 22 486 336 new 0;
#X obj 118 43 inlet;
#X obj 290 44 inlet;
#X obj 207 264 outlet;
#X obj 211 41 inlet;
#X obj 185 197 sin;
#N canvas 0 22 462 312 countup 0;
#X obj 169 77 inlet;
#X obj 201 44 int;
#X obj 244 129 + 1;
#X obj 232 183 * 1;
#X obj 299 73 inlet;
#X obj 221 237 outlet;
#X connect 0 0 1 0;
#X connect 1 0 2 0;
#X connect 1 0 3 0;
#X connect 2 0 1 1;
#X connect 3 0 5 0;
#X connect 4 0 3 1;
#X restore 185 177 pd countup;
#X obj 155 124 metro 100;
#X obj 155 105 tgl 15 0 empty empty empty 0 -6 0 8 -262144 -1 -1 1
1;
#X obj 290 93 * 0.01;
#X connect 0 0 7 0;
#X connect 1 0 8 0;
#X connect 4 0 2 0;
#X connect 5 0 4 0;
#X connect 6 0 5 0;
#X connect 7 0 6 0;
#X connect 8 0 5 1;
#X restore 621 294 pd new LFO;
#X obj 620 277 tgl 15 0 empty otNINE empty 0 -6 0 8 -262144 -1 -1 1
1;
#N canvas 0 22 486 336 new 0;
#X obj 118 43 inlet;
#X obj 290 44 inlet;
#X obj 207 264 outlet;
#X obj 211 41 inlet;
#X obj 185 197 sin;
#N canvas 0 22 466 316 countup 0;
#X obj 169 77 inlet;
#X obj 201 44 int;
#X obj 244 129 + 1;
#X obj 232 183 * 1;
#X obj 299 73 inlet;
#X obj 221 237 outlet;
#X connect 0 0 1 0;
#X connect 1 0 2 0;
#X connect 1 0 3 0;
#X connect 2 0 1 1;
#X connect 3 0 5 0;
#X connect 4 0 3 1;
#X restore 185 177 pd countup;
#X obj 155 124 metro 100;
#X obj 155 105 tgl 15 0 empty empty empty 0 -6 0 8 -262144 -1 -1 1
1;
#X obj 290 93 * 0.01;
#X connect 0 0 7 0;
#X connect 1 0 8 0;
#X connect 4 0 2 0;
#X connect 5 0 4 0;
#X connect 6 0 5 0;
#X connect 7 0 6 0;
#X connect 8 0 5 1;
#X restore 666 333 pd new LFO;
#X obj 665 316 tgl 15 0 empty otTEN empty 0 -6 0 8 -262144 -1 -1 1
1;
#N canvas 0 22 486 336 new 0;
#X obj 118 43 inlet;
#X obj 290 44 inlet;
#X obj 207 264 outlet;
#X obj 211 41 inlet;
#X obj 185 197 sin;
#N canvas 0 22 466 316 countup 0;
#X obj 169 77 inlet;
#X obj 201 44 int;
#X obj 244 129 + 1;
#X obj 232 183 * 1;
#X obj 299 73 inlet;
#X obj 221 237 outlet;
#X connect 0 0 1 0;
#X connect 1 0 2 0;
#X connect 1 0 3 0;
#X connect 2 0 1 1;
#X connect 3 0 5 0;
#X connect 4 0 3 1;
#X restore 185 177 pd countup;
#X obj 155 105 tgl 15 0 empty empty empty 0 -6 0 8 -262144 -1 -1 1
1;
#X obj 155 124 metro 25;
#X obj 275 44 * 0.01;
#X connect 0 0 6 0;
#X connect 1 0 8 0;
#X connect 4 0 2 0;
#X connect 5 0 4 0;
#X connect 6 0 7 0;
#X connect 7 0 5 0;
#X connect 8 0 5 1;
#X restore 703 378 pd new LFO;
#X obj 702 361 tgl 15 0 empty otELEVEN empty 0 -6 0 8 -262144 -1 -1
1 1;
#N canvas 0 22 494 344 new 0;
#X obj 118 43 inlet;
#X obj 290 44 inlet;
#X obj 207 264 outlet;
#X obj 211 41 inlet;
#X obj 185 197 sin;
#N canvas 0 22 470 320 countup 0;
#X obj 169 77 inlet;
#X obj 204 135 int;
#X obj 244 129 + 1;
#X obj 232 183 * 1;
#X obj 299 73 inlet;
#X obj 221 237 outlet;
#X connect 0 0 1 0;
#X connect 1 0 2 0;
#X connect 1 0 3 0;
#X connect 2 0 1 1;
#X connect 3 0 5 0;
#X connect 4 0 3 1;
#X restore 185 177 pd countup;
#X obj 155 105 tgl 15 0 empty empty empty 0 -6 0 8 -262144 -1 -1 1
1;
#X obj 155 124 metro 25;
#X obj 266 117 * 0.01;
#X connect 0 0 6 0;
#X connect 1 0 8 0;
#X connect 4 0 2 0;
#X connect 5 0 4 0;
#X connect 6 0 7 0;
#X connect 7 0 5 0;
#X connect 8 0 5 1;
#X restore 748 417 pd new LFO;
#X obj 747 400 tgl 15 0 empty otTWELVE empty 0 -6 0 8 -262144 -1 -1
1 1;
#X obj 402 387 * 38;
#X obj 458 411 * 34;
#X obj 372 366 * 43;
#X obj 535 254 * 3;
#X obj 603 332 * 2.7;
#X obj 621 360 * 2.5;
#X obj 643 392 * 2.3;
#X obj 682 417 * 2.1;
#X obj 282 275 * 100;
#X obj 321 301 * 70;
#X obj 341 330 * 50;
#X obj 563 -7 r \$0-Harmonic0;
#X obj 573 13 r \$0-Harmonic1;
#X obj 583 33 r \$0-Harmonic2;
#X obj 593 53 r \$0-Harmonic3;
#X obj 603 73 r \$0-Harmonic4;
#X obj 613 93 r \$0-Harmonic5;
#X obj 702 -7 r \$0-Harmonic6;
#X obj 713 13 r \$0-Harmonic7;
#X obj 723 33 r \$0-Harmonic8;
#X obj 733 53 r \$0-Harmonic9;
#X obj 743 73 r \$0-Harmonic10;
#X obj 753 93 r \$0-Harmonic11;
#X obj 738 440 * 1.5;
#X obj 291 16 r \$0-OverTone0;
#X obj 301 36 r \$0-OverTone1;
#X obj 311 56 r \$0-OverTone2;
#X obj 321 76 r \$0-OverTone3;
#X obj 331 96 r \$0-OverTone4;
#X obj 341 116 r \$0-OverTone5;
#X obj 421 15 r \$0-OverTone6;
#X obj 431 36 r \$0-OverTone7;
#X obj 441 56 r \$0-OverTone8;
#X obj 451 76 r \$0-OverTone9;
#X obj 461 96 r \$0-OverTone10;
#X obj 471 116 r \$0-OverTone11;
#X obj 106 243 tgl 35 0 OTONOFF 2OTONOFF On/Off 0 -6 0 14 -262144 -1
-1 0 1;
#X obj 226 366 r OTONOFF;
#X obj 326 479 pack f f f f f f f f f f f f f \$0;
#X msg 300 503 \; \$14-OverTone sinesum 512 \$2 \$3 \$4 \$5 \$6 \$7
\$8 \$9 \$10 \$11 \$12 \$13;
#X obj 226 390 metro 50;
#N canvas 0 22 510 360 new 0;
#X obj 118 43 inlet;
#X obj 290 44 inlet;
#X obj 207 264 outlet;
#X obj 185 197 sin;
#N canvas 0 22 462 312 countup 0;
#X obj 169 77 inlet;
#X obj 205 126 int;
#X obj 244 129 + 1;
#X obj 232 183 * 1;
#X obj 299 73 inlet;
#X obj 221 237 outlet;
#X connect 0 0 1 0;
#X connect 1 0 2 0;
#X connect 1 0 3 0;
#X connect 2 0 1 1;
#X connect 3 0 5 0;
#X connect 4 0 3 1;
#X restore 185 178 pd countup;
#X floatatom 232 136 5 0 0 0 - - -;
#X obj 155 105 tgl 15 0 empty empty empty 0 -6 0 8 -262144 -1 -1 0
1;
#X obj 155 123 metro 50;
#X obj 272 85 * 0.01;
#X connect 0 0 6 0;
#X connect 1 0 8 0;
#X connect 3 0 2 0;
#X connect 4 0 3 0;
#X connect 5 0 4 1;
#X connect 6 0 7 0;
#X connect 7 0 4 0;
#X connect 8 0 5 0;
#X restore 271 184 pd new LFO;
#X obj 271 165 tgl 15 0 empty otONE empty 0 -6 0 8 -262144 -1 -1 0
1;
#X obj 3 12 cnv 15 242 70 empty empty OvertonePresence 0 0 0 22 -233017
-66577 0;
#X obj 7 29 vsl 15 44 0 100 0 0 \$0-OverTone0 2\$0-OverTone0 empty
0 -8 0 8 -262144 -1 -1 0 1;
#X obj 27 29 vsl 15 44 0 90 0 0 \$0-OverTone1 2\$0-OverTone1 empty
0 -8 0 8 -262144 -1 -1 0 1;
#X obj 47 29 vsl 15 44 0 80 0 0 \$0-OverTone2 2\$0-OverTone2 empty
0 -8 0 8 -262144 -1 -1 0 1;
#X obj 67 29 vsl 15 44 0 70 0 0 \$0-OverTone3 2\$0-OverTone3 empty
0 -8 0 8 -262144 -1 -1 0 1;
#X obj 87 29 vsl 15 44 0 60 0 0 \$0-OverTone4 2\$0-OverTone4 empty
0 -8 0 8 -262144 -1 -1 0 1;
#X obj 107 29 vsl 15 44 0 50 0 0 \$0-OverTone5 2\$0-OverTone5 empty
0 -8 0 8 -262144 -1 -1 0 1;
#X obj 127 29 vsl 15 44 0 45 0 0 \$0-OverTone6 2\$0-OverTone6 empty
0 -8 0 8 -262144 -1 -1 0 1;
#X obj 147 29 vsl 15 44 0 40 0 0 \$0-OverTone7 2\$0-OverTone7 empty
0 -8 0 8 -262144 -1 -1 0 1;
#X obj 167 29 vsl 15 44 0 35 0 0 \$0-OverTone8 2\$0-OverTone8 empty
0 -8 0 8 -262144 -1 -1 0 1;
#X obj 187 29 vsl 15 44 0 30 0 0 \$0-OverTone9 2\$0-OverTone9 empty
0 -8 0 8 -262144 -1 -1 0 1;
#X obj 207 29 vsl 15 44 0 27.5 0 0 \$0-OverTone10 \$0-OverTone10 empty
0 -8 0 8 -262144 -1 -1 0 1;
#X obj 227 29 vsl 15 44 0 25 0 0 \$0-OverTone11 2\$0-OverTone11 empty
0 -8 0 8 -262144 -1 -1 0 1;
#X obj 3 94 cnv 15 242 81 empty face OvertoneActivity 0 72 0 22 -233017
-66577 0;
#X obj 6 108 vsl 15 44 0.2 200 0 0 \$0-Harmonic0 2\$0-Harmonic0 empty
0 -8 0 8 -262144 -1 -1 0 1;
#X obj 8 88 tgl 12 0 otONE 2otONE 1 0 -6 0 8 -262144 -1 -1 0 1;
#X obj 28 88 tgl 12 0 otTWO 2otTWO 2 0 -6 0 8 -262144 -1 -1 0 1;
#X obj 48 88 tgl 12 0 otTHREE 2otTHREE 3 0 -6 0 8 -262144 -1 -1 0 1
;
#X obj 68 88 tgl 12 0 otFOUR 2otFOUR 4 0 -6 0 8 -262144 -1 -1 0 1;
#X obj 88 88 tgl 12 0 otFIVE 2otFIVE 5 0 -6 0 8 -262144 -1 -1 0 1;
#X obj 108 88 tgl 12 0 otSIX 2otSIX 6 0 -6 0 8 -262144 -1 -1 0 1;
#X obj 129 88 tgl 12 0 otSEVEN 2otSEVEN 7 0 -6 0 8 -262144 -1 -1 0
1;
#X obj 148 88 tgl 12 0 otEIGHT 2otEIGHT 8 0 -6 0 8 -262144 -1 -1 0
1;
#X obj 168 88 tgl 12 0 otNINE 2otNINE 9 0 -6 0 8 -262144 -1 -1 0 1
;
#X obj 188 88 tgl 12 0 otTEN 2otTEN 10 0 -6 0 8 -262144 -1 -1 0 1;
#X obj 208 88 tgl 12 0 otELEVEN 2otELEVEN 11 0 -6 0 8 -262144 -1 -1
0 1;
#X obj 228 88 tgl 12 0 otTWELVE 2otTWELVE 12 0 -6 0 8 -262144 -1 -1
0 1;
#X obj 26 108 vsl 15 44 0.2 10 0 0 \$0-Harmonic1 \$0-2Harmonic1 empty
0 -8 0 8 -262144 -1 -1 0 1;
#X obj 46 108 vsl 15 44 0.2 10 0 0 \$0-Harmonic2 2\$0-Harmonic2 empty
0 -8 0 8 -262144 -1 -1 0 1;
#X obj 66 108 vsl 15 44 0.2 10 0 0 \$0-Harmonic3 2\$0-Harmonic3 empty
0 -8 0 8 -262144 -1 -1 0 1;
#X obj 86 108 vsl 15 44 0.2 10 0 0 \$0-Harmonic4 2\$0-Harmonic4 empty
0 -8 0 8 -262144 -1 -1 0 1;
#X obj 106 108 vsl 15 44 0.2 10 0 0 \$0-Harmonic5 2\$0-Harmonic5 empty
0 -8 0 8 -262144 -1 -1 0 1;
#X obj 126 108 vsl 15 44 0.2 10 0 0 \$0-Harmonic6 2\$0-Harmonic6 empty
0 -8 0 8 -262144 -1 -1 0 1;
#X obj 146 108 vsl 15 44 0.2 10 0 0 \$0-Harmonic7 2\$0-Harmonic7 empty
0 -8 0 8 -262144 -1 -1 0 1;
#X obj 166 108 vsl 15 44 0.2 10 0 0 \$0-Harmonic8 2\$0-Harmonic8 empty
0 -8 0 8 -262144 -1 -1 0 1;
#X obj 186 108 vsl 15 44 0.2 10 0 0 \$0-Harmonic9 2\$0-Harmonic9 empty
0 -8 0 8 -262144 -1 -1 0 1;
#X obj 206 108 vsl 15 44 0.2 10 0 0 \$0-Harmonic10 2\$0-Harmonic10
empty 0 -8 0 8 -262144 -1 -1 0 1;
#X obj 226 108 vsl 15 44 0.2 10 0 0 \$0-Harmonic11 2\$0-Harmonic11
empty 0 -8 0 8 -262144 -1 -1 0 1;
#X obj 207 518 outlet;
#X connect 3 0 4 0;
#X connect 4 0 5 0;
#X connect 5 0 2 0;
#X connect 6 0 37 0;
#X connect 7 0 6 0;
#X connect 8 0 38 0;
#X connect 9 0 8 0;
#X connect 10 0 30 0;
#X connect 11 0 10 0;
#X connect 12 0 28 0;
#X connect 13 0 12 0;
#X connect 14 0 29 0;
#X connect 15 0 14 0;
#X connect 16 0 31 0;
#X connect 17 0 16 0;
#X connect 18 0 32 0;
#X connect 19 0 18 0;
#X connect 20 0 33 0;
#X connect 21 0 20 0;
#X connect 22 0 34 0;
#X connect 23 0 22 0;
#X connect 24 0 35 0;
#X connect 25 0 24 0;
#X connect 26 0 51 0;
#X connect 27 0 26 0;
#X connect 28 0 66 5;
#X connect 29 0 66 6;
#X connect 30 0 66 4;
#X connect 31 0 66 7;
#X connect 32 0 66 8;
#X connect 33 0 66 9;
#X connect 34 0 66 10;
#X connect 35 0 66 11;
#X connect 36 0 66 1;
#X connect 37 0 66 2;
#X connect 38 0 66 3;
#X connect 39 0 69 1;
#X connect 40 0 6 1;
#X connect 41 0 8 1;
#X connect 42 0 10 1;
#X connect 43 0 12 1;
#X connect 44 0 14 1;
#X connect 45 0 16 2;
#X connect 46 0 18 2;
#X connect 47 0 20 2;
#X connect 48 0 22 2;
#X connect 49 0 24 2;
#X connect 50 0 26 2;
#X connect 51 0 66 12;
#X connect 52 0 36 1;
#X connect 53 0 37 1;
#X connect 54 0 38 1;
#X connect 55 0 30 1;
#X connect 56 0 28 1;
#X connect 57 0 29 1;
#X connect 58 0 31 1;
#X connect 59 0 32 1;
#X connect 60 0 33 1;
#X connect 61 0 34 1;
#X connect 62 0 35 1;
#X connect 63 0 51 1;
#X connect 65 0 68 0;
#X connect 66 0 67 0;
#X connect 66 0 109 0;
#X connect 68 0 66 0;
#X connect 69 0 36 0;
#X connect 70 0 69 0;
#X coords 0 -1 1 1 250 280 2 0 0;
