#N canvas 0 0 595 466 10;
#X text 136 21 in- x y (cartesian);
#X text 144 238 out- theta & mag;
#X obj 218 126 *;
#X obj 258 122 *;
#X obj 86 26 inlet;
#X obj 241 48 inlet;
#X obj 225 178 sqrt;
#X obj 224 155 +;
#X obj 225 215 outlet;
#X obj 81 107 /;
#X obj 51 257 outlet;
#X obj 79 216 atan;
#X obj 35 171 % 6.28316;
#X obj 81 129 abs;
#X obj 171 137 > 0;
#X obj 178 164 int;
#X obj 149 195 sel 0.5;
#X connect 2 0 7 0;
#X connect 3 0 7 1;
#X connect 4 0 2 1;
#X connect 4 0 2 0;
#X connect 4 0 14 0;
#X connect 4 0 9 0;
#X connect 5 0 3 1;
#X connect 5 0 3 0;
#X connect 5 0 9 1;
#X connect 6 0 8 0;
#X connect 7 0 6 0;
#X connect 9 0 13 0;
#X connect 11 0 10 0;
#X connect 13 0 11 0;
#X connect 14 0 15 1;
