#N canvas 0 0 450 300 10;
#X obj 212 239 outlet;
#X obj 146 22 inlet;
#X obj 309 31 inlet;
#X obj 365 28 inlet;
#X obj 139 74 bang;
#X obj 285 96 + 1;
#X obj 208 117 f 0;
#X msg 293 142 0;
#X obj 293 120 sel \$1;
#X connect 1 0 4 0;
#X connect 2 0 8 1;
#X connect 3 0 5 1;
#X connect 4 0 6 0;
#X connect 5 0 8 0;
#X connect 6 0 0 0;
#X connect 6 0 5 0;
#X connect 7 0 6 1;
#X connect 8 0 7 0;
#X connect 8 1 6 1;
