#N canvas 0 22 505 579 10;
#X obj 87 320 vline~;
#X obj 295 74 hsl 66 15 40 4000 1 0 empty empty attack -2 -4 0 10 -262144
-1 -1 0 1;
#X obj 295 99 hsl 66 15 20 2000 1 0 empty empty decay -2 -4 0 10 -262144
-1 -1 0 1;
#X obj 295 124 hsl 66 15 0.01 1 1 0 empty empty sustain -2 -4 0 10
-262144 -1 -1 0 1;
#X obj 295 147 hsl 66 15 20 2000 1 0 empty empty release -2 -4 0 10
-262144 -1 -1 0 1;
#X obj 227 165 pack;
#X obj 222 141 bang;
#X msg 195 215 0.492388 222.425;
#X msg 214 189 set \$1 \$2;
#X msg 205 71 set 1 \$1;
#X msg 170 110 1 4000;
#X obj 167 149 del 50;
#X obj 138 81 t b b;
#X msg 119 116 stop;
#X obj 164 38 sel 1 0;
#X obj 164 14 inlet;
#X obj 325 483 snapshot~;
#X floatatom 325 506 5 0 0 0 - - -;
#X obj 337 461 metro 100;
#X obj 339 442 tgl 15 0 empty empty empty 17 7 0 10 -262144 -1 -1 0
1;
#X obj 173 430 *~;
#X msg 225 267 0 365.232;
#X msg 275 244 set 0 \$1;
#X obj 376 115 vradio 15 1 0 3 empty empty empty 0 -8 0 10 -262144
-1 -1 0;
#X text 394 114 linear;
#X text 395 129 squared;
#X text 394 143 root;
#X msg 260 323 1 0 0;
#X msg 281 340 0 1 0;
#X msg 319 360 0 0 1;
#X obj 259 296 sel 0 1 2;
#X obj 261 390 unpack f f f;
#X obj 165 376 *~ 1;
#X obj 205 376 *~ 0;
#X obj 225 414 *~ 0;
#X obj 196 466 sqrt~;
#X obj 434 65 tgl 15 0 empty empty empty 17 7 0 10 -262144 -1 -1 0
1;
#X text 376 70 ADSR;
#X text 378 82 generator;
#X obj 42 13 inlet~;
#X obj 87 498 *~;
#X obj 87 526 outlet~;
#X connect 0 0 32 0;
#X connect 0 0 33 0;
#X connect 0 0 34 0;
#X connect 1 0 9 0;
#X connect 1 0 11 1;
#X connect 2 0 5 1;
#X connect 2 0 6 0;
#X connect 3 0 5 0;
#X connect 4 0 22 0;
#X connect 5 0 8 0;
#X connect 6 0 5 0;
#X connect 7 0 0 0;
#X connect 8 0 7 0;
#X connect 9 0 10 0;
#X connect 10 0 0 0;
#X connect 11 0 7 0;
#X connect 12 0 11 0;
#X connect 12 1 10 0;
#X connect 13 0 11 0;
#X connect 14 0 12 0;
#X connect 14 1 21 0;
#X connect 14 1 13 0;
#X connect 15 0 14 0;
#X connect 15 0 36 0;
#X connect 16 0 17 0;
#X connect 18 0 16 0;
#X connect 19 0 18 0;
#X connect 20 0 40 0;
#X connect 21 0 0 0;
#X connect 22 0 21 0;
#X connect 23 0 30 0;
#X connect 27 0 31 0;
#X connect 28 0 31 0;
#X connect 29 0 31 0;
#X connect 30 0 27 0;
#X connect 30 1 28 0;
#X connect 30 2 29 0;
#X connect 31 0 32 1;
#X connect 31 1 33 1;
#X connect 31 2 34 1;
#X connect 32 0 40 0;
#X connect 33 0 20 1;
#X connect 33 0 20 0;
#X connect 34 0 35 0;
#X connect 35 0 40 0;
#X connect 39 0 40 1;
#X connect 40 0 41 0;
#X coords 0 -1 1 1 160 100 2 290 64;
