#N canvas 0 0 450 300 10;
#N canvas 0 0 450 300 littleguys 0;
#X obj 174 105 pol2car;
#X msg 210 76 4;
#X obj 203 52 bang;
#X obj 171 21 inlet;
#X obj 239 177 pack;
#X obj 190 230 outlet;
#X obj 175 146 + 16;
#X obj 223 143 + 16;
#X connect 0 0 6 0;
#X connect 0 1 7 0;
#X connect 1 0 0 1;
#X connect 2 0 1 0;
#X connect 3 0 0 0;
#X connect 3 0 2 0;
#X connect 4 0 5 0;
#X connect 6 0 4 0;
#X connect 7 0 4 1;
#X restore 133 33 pd littleguys;
#N canvas 0 0 450 300 littleguys 0;
#X obj 174 105 pol2car;
#X obj 203 52 bang;
#X obj 171 21 inlet;
#X obj 239 177 pack;
#X obj 190 230 outlet;
#X obj 175 146 + 16;
#X obj 223 143 + 16;
#X msg 210 76 8;
#X connect 0 0 5 0;
#X connect 0 1 6 0;
#X connect 1 0 7 0;
#X connect 2 0 0 0;
#X connect 2 0 1 0;
#X connect 3 0 4 0;
#X connect 5 0 3 0;
#X connect 6 0 3 1;
#X connect 7 0 0 1;
#X restore 148 56 pd littleguys;
#N canvas 0 0 450 300 littleguys 0;
#X obj 174 105 pol2car;
#X obj 203 52 bang;
#X obj 171 21 inlet;
#X obj 239 177 pack;
#X obj 190 230 outlet;
#X obj 175 146 + 16;
#X obj 223 143 + 16;
#X msg 210 76 12;
#X connect 0 0 5 0;
#X connect 0 1 6 0;
#X connect 1 0 7 0;
#X connect 2 0 0 0;
#X connect 2 0 1 0;
#X connect 3 0 4 0;
#X connect 5 0 3 0;
#X connect 6 0 3 1;
#X connect 7 0 0 1;
#X restore 166 79 pd littleguys;
#N canvas 0 0 450 300 littleguys 0;
#X obj 174 105 pol2car;
#X obj 203 52 bang;
#X obj 171 21 inlet;
#X obj 239 177 pack;
#X obj 190 230 outlet;
#X obj 175 146 + 16;
#X obj 223 143 + 16;
#X msg 210 76 16;
#X connect 0 0 5 0;
#X connect 0 1 6 0;
#X connect 1 0 7 0;
#X connect 2 0 0 0;
#X connect 2 0 1 0;
#X connect 3 0 4 0;
#X connect 5 0 3 0;
#X connect 6 0 3 1;
#X connect 7 0 0 1;
#X restore 183 106 pd littleguys;
#X obj 0 0 bng 36 250 50 0 empty empty empty 17 7 0 10 -262144 -1 -1
;
#X obj 16 19 cnv 4 4 4 empty \$0-fif1 empty 20 12 0 14 -33289 -33289
0;
#X obj 16 23 cnv 4 4 4 empty \$0-fif2 empty 20 12 0 14 -33289 -33289
0;
#X obj 16 27 cnv 4 4 4 empty \$0-fif3 empty 20 12 0 14 -33289 -33289
0;
#X obj 16 31 cnv 4 4 4 empty \$0-fif4 empty 20 12 0 14 -33289 -33289
0;
#X obj 170 7 * 0.15916;
#X msg 12 194 0 0;
#X msg 66 200 12 12;
#X obj 65 184 del 250;
#X obj 229 151 s \$0-fif1;
#X obj 239 175 s \$0-fif2;
#X obj 239 201 s \$0-fif3;
#X obj 249 225 s \$0-fif4;
#X msg 70 74 pos \$1 \$2;
#X msg 89 96 pos \$1 \$2;
#X msg 117 124 pos \$1 \$2;
#X msg 137 152 pos \$1 \$2;
#X msg 10 220 color \$1 \$2;
#X msg 22 244 color \$1 \$2;
#X obj 191 -37 inlet;
#X connect 0 0 17 0;
#X connect 1 0 18 0;
#X connect 2 0 19 0;
#X connect 3 0 20 0;
#X connect 4 0 10 0;
#X connect 4 0 12 0;
#X connect 9 0 0 0;
#X connect 9 0 1 0;
#X connect 9 0 2 0;
#X connect 9 0 3 0;
#X connect 10 0 21 0;
#X connect 10 0 22 0;
#X connect 11 0 21 0;
#X connect 11 0 22 0;
#X connect 12 0 11 0;
#X connect 17 0 13 0;
#X connect 18 0 14 0;
#X connect 19 0 15 0;
#X connect 20 0 16 0;
#X connect 21 0 13 0;
#X connect 21 0 14 0;
#X connect 21 0 15 0;
#X connect 21 0 16 0;
#X connect 22 0 13 0;
#X connect 22 0 14 0;
#X connect 22 0 15 0;
#X connect 22 0 16 0;
#X connect 23 0 9 0;
#X coords 0 -1 1 1 36 36 2 0 0;
