#N canvas 1 22 1007 734 10;
#X obj 352 404 realtime;
#X obj 186 326 inlet~;
#X obj 372 345 inlet;
#X obj 372 372 sel 1 0;
#X text 364 317 1 trigger loop;
#X text 377 328 0 close loop;
#X obj 216 533 outlet~;
#X msg 307 532 start;
#X obj 188 371 *~ 0;
#X obj 347 435 t b b b f;
#X obj 266 445 *~ 0;
#X msg 332 382 1;
#X msg 315 423 0;
#X obj 216 500 delread~ \$0-qual 16000;
#X obj 175 401 delwrite~ \$0-qual 32000;
#N canvas 0 0 450 300 (subpatch) 0;
#X array \$0-Sample 100 float 3;
#A 0 0 0 0 0 0 0 0 0 0 0 0 0 0 0 0 0 0 0 0 0 0 0 0 0 0 0 0 0 0 0 0
0 0 0 0 0 0 0 0 0 0 0 0 0 0 0 0 0 0 0 0 0 0 0 0 0 0 0 0 0 0 0 0 0 0
0 0 0 0 0 0 0 0 0 0 0 0 0 0 0 0 0 0 0 0 0 0 0 0 0 0 0 0 0 0 0 0 0 0
0;
#X coords 0 1 99 -1 168 100 1;
#X restore 144 92 graph;
#X obj 147 192 hsl 163 15 0 127 0 0 \$0-Time \$0-2Time empty -2 -8
0 10 -262144 -1 -1 0 1;
#X connect 0 0 9 0;
#X connect 1 0 8 0;
#X connect 2 0 3 0;
#X connect 2 0 8 1;
#X connect 3 0 0 0;
#X connect 3 0 12 0;
#X connect 3 1 0 1;
#X connect 3 1 11 0;
#X connect 8 0 14 0;
#X connect 9 1 7 0;
#X connect 9 3 13 0;
#X connect 10 0 14 0;
#X connect 11 0 10 1;
#X connect 12 0 10 1;
#X connect 13 0 6 0;
#X connect 13 0 10 0;
