#N canvas 0 0 701 621 10;
#X obj 401 296 outlet~;
#N canvas 169 142 706 577 SaveAll 0;
#X obj 413 -3 bng 8 250 50 0 empty empty empty 0 -6 0 8 -262144 -1
-1;
#X obj 413 -31 r SaveItAll;
#X msg 158 489 rewind;
#X msg 239 484 bang;
#X msg 311 366 write /Volumes/MEGAMAN/untitled;
#N canvas 771 36 472 512 openall 0;
#X obj 246 453 outlet;
#X obj 206 352 s MasterSaveOne;
#X obj 236 376 s MasterSaveTwo;
#X obj 266 400 s MasterSaveThree;
#X obj 296 422 s MasterSaveFour;
#X obj 148 234 textfile;
#X msg 230 119 rewind;
#X msg 240 144 clear;
#X msg 252 170 read \$1;
#X obj 292 100 openpanel;
#X obj 293 79 bng 15 250 50 0 empty empty empty 0 -6 0 8 -262144 -1
-1;
#X obj 293 46 inlet;
#X obj 157 166 bng 15 250 50 0 empty empty empty 0 -6 0 8 -262144 -1
-1;
#N canvas 0 22 518 368 countto4 0;
#X floatatom 250 207 5 0 0 0 - - -;
#X obj 248 178 int;
#X obj 320 177 + 1;
#X msg 120 108 0;
#X obj 209 132 bng 15 250 50 0 empty empty empty 0 -6 0 8 -262144 -1
-1;
#X obj 238 256 outlet;
#X obj 229 68 inlet;
#X obj 121 53 pipe 15;
#X text 224 51 recieve any input;
#X text 150 276 counts from 0 to (whatever sel has);
#X obj 118 79 sel 3;
#X connect 0 0 5 0;
#X connect 0 0 7 0;
#X connect 1 0 2 0;
#X connect 1 0 0 0;
#X connect 2 0 1 1;
#X connect 3 0 1 1;
#X connect 4 0 1 0;
#X connect 6 0 4 0;
#X connect 7 0 10 0;
#X connect 10 0 3 0;
#X restore 257 241 pd countto4;
#X obj 230 206 bng 15 250 50 0 empty empty empty 0 -6 0 8 -262144 -1
-1;
#X obj 206 280 pack;
#X obj 205 308 route 0 1 2 3;
#X obj 97 333 print;
#X connect 5 0 15 1;
#X connect 5 1 15 1;
#X connect 6 0 5 0;
#X connect 6 0 14 0;
#X connect 8 0 5 0;
#X connect 8 0 12 0;
#X connect 9 0 8 0;
#X connect 10 0 9 0;
#X connect 11 0 10 0;
#X connect 12 0 6 0;
#X connect 13 0 15 0;
#X connect 14 0 5 0;
#X connect 15 0 16 0;
#X connect 15 0 17 0;
#X connect 16 0 1 0;
#X connect 16 1 2 0;
#X connect 16 2 3 0;
#X connect 16 3 4 0;
#X restore 78 330 pd openall;
#X obj 450 128 r OpenWutev;
#X obj 316 488 print save data;
#X text 384 457 this jumble of code at least;
#X text 399 471 can save a MT file;
#N canvas 0 22 466 316 SavePreparer 0;
#X obj 180 86 savepanel;
#X obj 181 66 bng 8 250 50 0 empty empty empty 0 -6 0 8 -262144 -1
-1;
#X msg 234 128 add2 \$1;
#X msg 127 129 set write;
#X obj 145 256 outlet;
#X obj 226 191 bng 15 250 50 0 empty empty empty 17 7 0 10 -262144
-1 -1;
#X obj 181 18 inlet;
#X connect 0 0 2 0;
#X connect 1 0 0 0;
#X connect 1 0 3 0;
#X connect 2 0 4 0;
#X connect 2 0 5 0;
#X connect 3 0 4 0;
#X connect 5 0 4 0;
#X connect 6 0 1 0;
#X restore 340 317 pd SavePreparer;
#N canvas 0 22 345 260 ClearBanger 0;
#X msg 148 80 clear;
#X obj 90 57 loadbang;
#X obj 151 62 del 5;
#X msg 150 43 bang;
#X obj 118 18 inlet;
#X obj 135 147 outlet;
#X connect 0 0 5 0;
#X connect 1 0 0 0;
#X connect 2 0 0 0;
#X connect 3 0 2 0;
#X connect 4 0 3 0;
#X restore 379 406 pd ClearBanger;
#N canvas 0 22 425 462 PanSave 0;
#X msg 103 109;
#X msg 103 159;
#X msg 103 205;
#X msg 32 -7 set;
#X msg 101 46;
#X obj 31 -27 loadbang;
#N canvas 0 22 482 332 panset 0;
#X obj 141 57 r pansetFIRST;
#X obj 111 14 r SaveItAll;
#X msg 111 38 bang;
#X obj 111 78 float;
#X obj 107 201 outlet;
#X msg 228 105 add \$1;
#X msg 70 104 set add pansetFIRST;
#X connect 0 0 3 1;
#X connect 1 0 2 0;
#X connect 2 0 3 0;
#X connect 3 0 6 0;
#X connect 3 0 5 0;
#X connect 5 0 4 0;
#X connect 6 0 4 0;
#X restore 101 17 pd panset;
#N canvas 0 22 478 328 LFOPANFREQ 0;
#X obj 141 57 r LFOPanFreqFIRST;
#X obj 111 14 r SaveItAll;
#X msg 111 38 bang;
#X obj 111 78 float;
#X obj 107 201 outlet;
#X msg 228 105 add \$1;
#X msg 63 128 set add LFOPanFreqFIRST;
#X connect 0 0 3 1;
#X connect 1 0 2 0;
#X connect 2 0 3 0;
#X connect 3 0 6 0;
#X connect 3 0 5 0;
#X connect 5 0 4 0;
#X connect 6 0 4 0;
#X restore 103 76 pd LFOPANFREQ;
#N canvas 0 22 462 312 LFOPanRange 0;
#X obj 141 57 r LFOPanRangeFIRST;
#X obj 111 14 r SaveItAll;
#X msg 111 38 bang;
#X obj 111 78 float;
#X obj 107 201 outlet;
#X msg 258 105 add \$1;
#X msg 70 105 set add LFOPanRangeFIRST;
#X connect 0 0 3 1;
#X connect 1 0 2 0;
#X connect 2 0 3 0;
#X connect 3 0 6 0;
#X connect 3 0 5 0;
#X connect 5 0 4 0;
#X connect 6 0 4 0;
#X restore 103 134 pd LFOPanRange;
#N canvas 0 22 462 312 lfoIOpan 0;
#X obj 141 57 r FIRSTPanLFOIO;
#X obj 111 14 r SaveItAll;
#X msg 111 38 bang;
#X obj 111 78 float;
#X obj 107 201 outlet;
#X msg 228 105 add \$1;
#X msg 70 105 set add FIRSTPanLFOIO;
#X connect 0 0 3 1;
#X connect 1 0 2 0;
#X connect 2 0 3 0;
#X connect 3 0 5 0;
#X connect 3 0 6 0;
#X connect 5 0 4 0;
#X connect 6 0 4 0;
#X restore 103 180 pd lfoIOpan;
#X obj 46 246 outlet;
#X obj 224 -11 inlet;
#X text 149 265 this works great \, now I have;
#X text 132 284 to expand this out;
#X connect 0 0 10 0;
#X connect 1 0 10 0;
#X connect 2 0 10 0;
#X connect 3 0 4 0;
#X connect 3 0 0 0;
#X connect 3 0 1 0;
#X connect 3 0 2 0;
#X connect 4 0 10 0;
#X connect 5 0 3 0;
#X connect 6 0 4 0;
#X connect 7 0 0 0;
#X connect 8 0 1 0;
#X connect 9 0 2 0;
#X connect 11 0 4 0;
#X connect 11 0 0 0;
#X connect 11 0 1 0;
#X connect 11 0 2 0;
#X restore 181 137 pd PanSave;
#X obj 328 444 qlist;
#N canvas 0 22 531 417 openone 0;
#X obj 267 26 inlet;
#X obj 264 78 openpanel;
#X msg 264 51 bang;
#X msg 229 116 read \$1;
#X obj 219 159 textfile;
#X msg 87 127 bang;
#X msg 94 83 rewind;
#X obj 225 343 send;
#X obj 219 222 unpack s f;
#X obj 274 308 pipe 5;
#X text 55 61 bang these to recall;
#X text 110 310 still bugs here;
#N canvas 0 22 454 304 callperl 0;
#X restore 231 281 pd callperl;
#X connect 0 0 2 0;
#X connect 1 0 3 0;
#X connect 2 0 1 0;
#X connect 3 0 4 0;
#X connect 4 0 8 0;
#X connect 5 0 4 0;
#X connect 6 0 4 0;
#X connect 8 1 9 0;
#X connect 9 0 7 0;
#X restore 454 182 pd openone;
#X connect 0 0 10 0;
#X connect 0 0 12 0;
#X connect 1 0 0 0;
#X connect 2 0 13 0;
#X connect 3 0 13 0;
#X connect 4 0 11 0;
#X connect 4 0 13 0;
#X connect 6 0 14 0;
#X connect 10 0 4 0;
#X connect 11 0 13 0;
#X connect 12 0 13 0;
#X connect 13 0 7 0;
#X restore 804 108 pd SaveAll;
#X obj 764 84 bng 40 250 50 0 SaveItAll empty Save_All 0 -6 0 12 -262144
-1 -1;
#X obj 851 83 bng 25 250 50 0 OpenWutev empty Open 0 -6 0 12 -262144
-1 -1;
#X obj 15 38 cnv 15 100 60 empty empty empty 20 12 0 14 -233017 -66577
0;
#X obj 4 33 vsl 20 90 0 1000 0 0 \$0-NoisePhase \$0-2NoisePhase Phase
0 100 0 10 -262144 -1 -1 0 1;
#X obj 30 22 vsl 20 90 0 1000 0 0 \$0-NoiseRealSpectral \$0-2NoiseRealSpectral
Spectral 0 100 0 10 -262144 -1 -1 0 1;
#X obj 56 8 vsl 20 90 0 1000 0 0 \$0-NoiseImaginarySpectral \$0-2NoiseImaginarySpectral
Imaginary 0 100 0 10 -262144 -1 -1 0 1;
#X text 79 23 Noise;
#X text 2 0 Shaping;
#N canvas 436 120 502 425 noise 0;
#X obj 198 12 noise~;
#X obj 198 139 rfft~;
#X obj 186 278 rifft~;
#X obj 187 304 outlet~;
#X obj 27 198 r \$0-NoiseRealSpectral;
#X obj 218 72 r \$0-NoisePhase;
#X obj 285 189 r \$0-NoiseImaginarySpectral;
#X obj 218 46 delwrite~ \$0-pifpof 1000;
#X obj 218 93 delread~ \$0-pifpof 1000;
#X obj 19 172 delwrite~ \$0-ppof 1000;
#X obj 23 223 delread~ \$0-ppof 1000;
#X obj 251 162 delwrite~ \$0-ppof 1000;
#X obj 255 213 delread~ \$0-ppof 1000;
#X connect 0 0 7 0;
#X connect 0 0 1 0;
#X connect 1 0 9 0;
#X connect 1 0 2 0;
#X connect 1 1 11 0;
#X connect 1 1 2 1;
#X connect 2 0 3 0;
#X connect 4 0 10 0;
#X connect 5 0 8 0;
#X connect 6 0 12 0;
#X connect 8 0 1 0;
#X connect 10 0 2 0;
#X connect 12 0 2 1;
#X restore 391 198 pd noise;
#X connect 10 0 0 0;
#X coords 0 -1 1 1 120 138 2 0 0;
