#N canvas 0 0 450 300 10;
#X obj 69 44 inlet;
#X obj 78 203 outlet;
#X obj 257 43 inlet;
#X obj 268 200 outlet;
#X obj 76 105 cos;
#X text 65 19 theta side;
#X text 246 17 r (magnitude);
#X obj 230 109 sin;
#X obj 82 144 *;
#X obj 234 140 *;
#X text 89 218 x;
#X text 281 216 y;
#X connect 0 0 4 0;
#X connect 0 0 7 0;
#X connect 2 0 8 1;
#X connect 2 0 9 1;
#X connect 4 0 8 0;
#X connect 7 0 9 0;
#X connect 8 0 1 0;
#X connect 9 0 3 0;
