#N canvas 146 29 695 588 10;
#X obj 19 56 playlist mp3 300 200;
#X obj 147 303 scrolllist 100 400 200 {Helvetica 10 bold} black green
white;
#X obj 360 239 l2s;
#X msg 378 266 add \$1;
#X obj 382 190 shell;
#X msg 377 137 ls;
#X obj 246 525 print bet;
#X obj 458 518 print cut;
#X obj 147 526 s2l;
#X obj 143 555 s alf;
#X obj 427 110 r alf;
#X msg 416 162 cd Volumes;
#X msg 437 135 set cd \$1;
#X msg 524 143 cd //;
#X obj 124 268 print;
#X msg 74 20 location /;
#X connect 0 1 14 0;
#X connect 1 0 8 0;
#X connect 2 0 3 0;
#X connect 3 0 1 0;
#X connect 4 0 2 0;
#X connect 5 0 4 0;
#X connect 8 0 9 0;
#X connect 10 0 12 0;
#X connect 11 0 4 0;
#X connect 12 0 11 0;
#X connect 13 0 4 0;
#X connect 15 0 0 0;
