#N canvas 83 22 708 315 10;
#X obj 26 20 cnv 15 144 82 empty holdit empty 53 101 0 14 -7749 -66577
0;
#X obj 29 21 vsl 20 96 0 44000 0 0 \$0-SampHold \$0-2SampHold SampleHold
0 -8 0 9 -262144 -1 -1 6000 1;
#X obj 142 35 vsl 20 84 1e-05 0.5 1 0 \$0-SampHoldGain \$0-2SampHoldGain
Gain 0 -8 0 9 -262144 -1 -1 2400 1;
#X obj 8 16 tgl 15 0 \$0-FXToggle \$0-2FXToggle i/o -2 -4 0 12 -262144
-1 -1 1 1;
#N canvas 694 225 533 614 process 0;
#X obj 101 62 rfft~;
#X obj 48 102 samphold~;
#X obj 115 134 samphold~;
#X obj 18 261 rifft~;
#X obj 174 86 phasor~ 44090;
#X floatatom 150 192 5 0 0 0 - - -;
#X obj 62 486 outlet~;
#X obj 300 296 switch~ 4096 1 1;
#X obj 322 173 sel 0 1 2 3 4;
#X text 294 314 here is the window sizer;
#X obj 52 19 inlet~;
#X obj 150 170 r AuralSkew;
#X msg 323 197 set 8192 1 1;
#X msg 337 216 set 4096 1 1;
#X msg 355 236 set 2048 1 1;
#X msg 373 255 set 1024 1 1;
#X msg 389 275 set 512 1 1;
#X obj 112 351 *~;
#X msg 312 101 set \$1 \$2 \$3;
#N canvas 0 22 458 308 2power 0;
#X obj 219 69 inlet;
#X obj 181 199 outlet;
#X obj 217 101 int;
#X obj 205 137 bang;
#X msg 168 99 2;
#X obj 190 164 pow 2;
#X connect 0 0 2 0;
#X connect 2 0 5 1;
#X connect 2 0 3 0;
#X connect 3 0 4 0;
#X connect 4 0 5 0;
#X connect 5 0 1 0;
#X restore 316 39 pd 2power;
#X obj 324 79 pack 128 1 1;
#N canvas 0 22 454 304 2power 0;
#X obj 219 69 inlet;
#X obj 181 199 outlet;
#X obj 217 101 int;
#X obj 205 137 bang;
#X msg 168 99 2;
#X obj 190 164 pow 2;
#X connect 0 0 2 0;
#X connect 2 0 5 1;
#X connect 2 0 3 0;
#X connect 3 0 4 0;
#X connect 4 0 5 0;
#X connect 5 0 1 0;
#X restore 386 49 pd 2power;
#N canvas 0 22 454 304 2power 0;
#X obj 219 69 inlet;
#X obj 181 199 outlet;
#X obj 217 101 int;
#X obj 205 137 bang;
#X msg 168 99 2;
#X obj 190 164 pow 2;
#X connect 0 0 2 0;
#X connect 2 0 5 1;
#X connect 2 0 3 0;
#X connect 3 0 4 0;
#X connect 4 0 5 0;
#X connect 5 0 1 0;
#X restore 456 59 pd 2power;
#X obj 144 303 r \$0-SampHoldGain;
#X obj 173 55 r \$0-SampHold;
#X obj 301 134 r \$0-FXToggle;
#X obj 321 153 r \$0-FFTWindow;
#X text 154 400 some of this was made by sunji.roaoul@gmail.com;
#X obj 316 22 r \$0-Window;
#X obj 386 32 r \$0-OverLap;
#X obj 456 42 r \$0-UpSample;
#X floatatom 266 67 5 0 0 0 - - -;
#X connect 0 0 1 0;
#X connect 0 1 2 0;
#X connect 1 0 3 0;
#X connect 2 0 3 1;
#X connect 3 0 17 0;
#X connect 4 0 2 1;
#X connect 4 0 1 1;
#X connect 8 0 12 0;
#X connect 8 1 13 0;
#X connect 8 2 14 0;
#X connect 8 3 15 0;
#X connect 8 4 16 0;
#X connect 10 0 0 0;
#X connect 11 0 5 0;
#X connect 12 0 7 0;
#X connect 13 0 7 0;
#X connect 14 0 7 0;
#X connect 15 0 7 0;
#X connect 16 0 7 0;
#X connect 17 0 6 0;
#X connect 18 0 7 0;
#X connect 19 0 20 0;
#X connect 19 0 31 0;
#X connect 20 0 18 0;
#X connect 21 0 20 1;
#X connect 22 0 20 2;
#X connect 23 0 17 1;
#X connect 24 0 4 0;
#X connect 25 0 7 0;
#X connect 26 0 8 0;
#X connect 28 0 19 0;
#X connect 29 0 21 0;
#X connect 30 0 22 0;
#X restore 37 213 pd process;
#X text 119 219 perhaps make the sin/tan;
#X text 278 244 multiple outlets;
#X text 136 234 decision a function call rather than;
#X obj 53 29 vsl 21 88 1 16 0 0 \$0-Window \$0-2Window Window -2 -6
0 8 -262144 -1 -1 2500 1;
#X obj 78 39 vsl 21 78 0 6 0 0 \$0-Overlap \$0-2Overlap OverLap -2
-6 0 8 -262144 -1 -1 0 1;
#X obj 103 49 vsl 21 68 0 4 0 0 \$0-Upsample \$0-2Upsample UpSample
-2 -6 0 8 -262144 -1 -1 0 1;
#X obj 37 234 outlet~;
#X obj 37 192 inlet~;
#X text 453 88 comment;
#X text 320 74 this was made by sunji.roaoul@gmail.com;
#X obj 398 178 inlet;
#X obj 407 213 s \$0-2SampHold;
#X obj 436 153 inlet;
#X obj 477 132 inlet;
#X obj 519 113 inlet;
#X obj 554 92 inlet;
#X obj 445 188 s \$0-2Window;
#X obj 486 167 s \$0-2Overlap;
#X obj 528 148 s \$0-2Upsample;
#X obj 563 127 s \$0-2Gain;
#X connect 4 0 11 0;
#X connect 12 0 4 0;
#X connect 15 0 16 0;
#X connect 17 0 21 0;
#X connect 18 0 22 0;
#X connect 19 0 23 0;
#X connect 20 0 24 0;
#X coords 0 -1 1 1 166 122 2 5 5;
