#N canvas 15 22 1001 715 10;
#X obj -8 -2 playlist all 200 200;
#X obj 312 42 waveshape;
#X obj 613 17 activeosc;
#X obj 529 491 panmodule;
#X obj 710 355 specmash;
#X obj 60 259 loopmasterstat;
#X obj 256 481 loopstat;
#X obj 240 321 3tapdelay;
#X obj 407 205 envelope;
#X obj 495 364 envelope;
#X obj 251 112 knob;
#X obj 251 148 knob;
#X obj 251 184 knob;
#X obj 251 220 knob;
#X floatatom 249 75 5 0 0 0 - - -;
#X floatatom 208 94 5 0 0 0 - - -;
#X floatatom 208 121 5 0 0 0 - - -;
#X floatatom 205 154 5 0 0 0 - - -;
#X obj 492 653 dac~;
#X connect 1 0 8 0;
#X connect 1 0 7 0;
#X connect 2 0 4 0;
#X connect 2 0 9 0;
#X connect 4 0 8 0;
#X connect 7 0 8 0;
#X connect 9 0 6 0;
#X connect 14 0 10 0;
#X connect 15 0 11 0;
#X connect 16 0 12 0;
#X connect 17 0 13 0;
