#N canvas 91 52 932 613 10;
#X obj 260 457 osc~;
#X obj 260 518 dac~;
#N canvas 70 52 516 537 kick 0;
#X obj 169 245 metro 1.45;
#X obj 228 219 / 44.1;
#X msg 228 189 64;
#X obj 169 292 f 0;
#X obj 196 292 + 1;
#X obj 176 395 *;
#X obj 228 163 loadbang;
#X obj 177 477 outlet;
#X obj 199 21 inlet;
#X obj 168 146 *;
#X msg 169 74 1;
#X obj 144 208 t f f;
#X obj 120 420 sel 1;
#X obj 168 98 makenote 1 250;
#X obj 198 46 t b f f;
#X obj 349 249 line 0 1;
#X obj 340 280 mtof;
#X msg 345 191 40 \, 10 \$1;
#X obj 225 292 % 10;
#X connect 0 0 3 0;
#X connect 1 0 0 1;
#X connect 2 0 1 0;
#X connect 3 0 4 0;
#X connect 3 0 5 0;
#X connect 4 0 18 0;
#X connect 5 0 7 0;
#X connect 6 0 2 0;
#X connect 8 0 14 0;
#X connect 9 0 11 0;
#X connect 10 0 13 0;
#X connect 11 0 12 0;
#X connect 11 1 0 0;
#X connect 12 1 7 0;
#X connect 13 0 9 0;
#X connect 13 1 9 1;
#X connect 14 0 10 0;
#X connect 14 1 13 2;
#X connect 14 2 17 0;
#X connect 15 0 16 0;
#X connect 16 0 5 1;
#X connect 17 0 15 0;
#X connect 18 0 3 1;
#X restore 99 303 pd kick;
#X obj 99 250 r \$0-kick;
#N canvas 323 22 874 432 sequence 0;
#X obj 114 100 metro 125;
#X obj 113 67 inlet;
#N canvas 0 22 547 401 kick 0;
#X obj 171 318 s \$0-kick;
#X obj 82 29 inlet;
#X obj 72 251 outlet;
#X obj 172 116 % 4;
#X obj 171 145 sel 0;
#X obj 233 127 sel 30 31;
#X obj 282 176 sel 9 17;
#X obj 171 295 /;
#X obj 171 269 swap;
#X obj 193 241 r \$0-4beats;
#X msg 170 220 12;
#X connect 1 0 2 0;
#X connect 1 0 3 0;
#X connect 1 0 5 0;
#X connect 3 0 4 0;
#X connect 4 0 10 0;
#X connect 5 0 10 0;
#X connect 5 1 10 0;
#X connect 5 2 6 0;
#X connect 6 0 10 0;
#X connect 6 1 10 0;
#X connect 7 0 0 0;
#X connect 8 0 7 0;
#X connect 8 1 7 1;
#X connect 9 0 8 1;
#X connect 10 0 8 0;
#X restore 115 181 pd kick;
#N canvas 666 330 611 480 jetsons 0;
#X obj 110 112 sel 0 1 2 3 4 5 6 7 8 9 10 11 12 13 14 15;
#X obj 88 65 inlet;
#X obj 246 435 s \$0-jetsons;
#X obj 97 88 % 16;
#X obj 224 190 random 100;
#X obj 303 184 random 100;
#X obj 69 351 outlet;
#X obj 225 219 moses 60;
#X obj 304 213 moses 60;
#X obj 281 322 r \$0-4beats;
#X obj 255 356 swap;
#X obj 255 383 /;
#X msg 226 250 8;
#X msg 134 183 16;
#X msg 174 182 16;
#X msg 313 255 24;
#X connect 0 2 13 0;
#X connect 0 3 13 0;
#X connect 0 5 14 0;
#X connect 0 7 14 0;
#X connect 0 10 4 0;
#X connect 0 13 5 0;
#X connect 1 0 3 0;
#X connect 1 0 6 0;
#X connect 3 0 0 0;
#X connect 4 0 7 0;
#X connect 5 0 8 0;
#X connect 7 0 12 0;
#X connect 8 0 15 0;
#X connect 9 0 10 1;
#X connect 10 0 11 0;
#X connect 10 1 11 1;
#X connect 11 0 2 0;
#X connect 12 0 10 0;
#X connect 13 0 10 0;
#X connect 14 0 10 0;
#X connect 15 0 10 0;
#X restore 116 231 pd jetsons;
#X obj 139 138 + 1;
#X obj 168 139 % 32;
#N canvas 624 59 650 474 noise 0;
#X obj 69 40 inlet;
#X obj 158 94 % 16;
#X obj 158 125 sel 0 1 2 3 4 5 6 7 8 9 10 11 12 13 14 15;
#X obj 231 425 s \$0-noise;
#X obj 118 219 random 100;
#X obj 118 241 moses 70;
#X obj 193 214 random 100;
#X obj 192 242 moses 70;
#X obj 87 374 outlet;
#X obj 278 333 r \$0-4beats;
#X obj 237 363 swap;
#X obj 237 390 /;
#X msg 193 295 16;
#X msg 316 251 8;
#X connect 0 0 1 0;
#X connect 0 0 8 0;
#X connect 1 0 2 0;
#X connect 2 1 4 0;
#X connect 2 2 6 0;
#X connect 2 6 12 0;
#X connect 2 10 13 0;
#X connect 2 14 13 0;
#X connect 4 0 5 0;
#X connect 5 0 12 0;
#X connect 6 0 7 0;
#X connect 7 0 12 0;
#X connect 9 0 10 1;
#X connect 10 0 11 0;
#X connect 10 1 11 1;
#X connect 11 0 3 0;
#X connect 12 0 10 0;
#X connect 13 0 10 0;
#X restore 116 276 pd noise;
#N canvas 76 315 750 401 square 0;
#X obj 143 33 inlet;
#X obj 117 180 random 4;
#X obj 119 254 * 500;
#X obj 120 295 s \$0-square;
#X obj 120 216 + 1;
#X obj 145 106 sel 0 24;
#X obj 223 181 random 4;
#X obj 222 208 + 1;
#X obj 225 255 * 250;
#X obj 317 140 r \$0-4beats;
#X obj 291 201 / 8;
#X obj 335 202 / 16;
#X connect 0 0 5 0;
#X connect 1 0 4 0;
#X connect 2 0 3 0;
#X connect 4 0 2 0;
#X connect 5 0 1 0;
#X connect 5 1 6 0;
#X connect 6 0 7 0;
#X connect 7 0 8 0;
#X connect 8 0 3 0;
#X connect 9 0 10 0;
#X connect 9 0 11 0;
#X connect 10 0 2 1;
#X connect 11 0 8 1;
#X restore 116 309 pd square;
#X obj 213 54 r \$0-4beats;
#X obj 113 138 f 0;
#X obj 221 85 / 4;
#X connect 0 0 9 0;
#X connect 1 0 0 0;
#X connect 2 0 3 0;
#X connect 3 0 6 0;
#X connect 4 0 5 0;
#X connect 5 0 9 1;
#X connect 6 0 7 0;
#X connect 8 0 10 0;
#X connect 9 0 4 0;
#X connect 9 0 2 0;
#X connect 10 0 0 1;
#X restore 234 185 pd sequence;
#X obj 234 150 tgl 15 0 empty empty empty 17 7 0 10 -262144 -1 -1 1
1;
#N canvas 70 52 516 537 jetsons 0;
#X obj 169 245 metro 1.45;
#X obj 228 219 / 44.1;
#X msg 228 189 64;
#X obj 169 292 f 0;
#X obj 196 292 + 1;
#X obj 176 395 *;
#X obj 228 163 loadbang;
#X obj 177 477 outlet;
#X obj 199 21 inlet;
#X obj 168 146 *;
#X msg 169 74 1;
#X obj 144 208 t f f;
#X obj 120 420 sel 1;
#X obj 168 98 makenote 1 250;
#X obj 198 46 t b f f;
#X obj 349 249 line 0 1;
#X obj 340 280 mtof;
#X obj 348 207 pack f f;
#X obj 344 117 t b f;
#X obj 347 182 + 50;
#X obj 225 292 % 16;
#X obj 345 145 random 30;
#X connect 0 0 3 0;
#X connect 1 0 0 1;
#X connect 2 0 1 0;
#X connect 3 0 4 0;
#X connect 3 0 5 0;
#X connect 4 0 20 0;
#X connect 5 0 7 0;
#X connect 6 0 2 0;
#X connect 8 0 14 0;
#X connect 9 0 11 0;
#X connect 10 0 13 0;
#X connect 11 0 12 0;
#X connect 11 1 0 0;
#X connect 12 1 7 0;
#X connect 13 0 9 0;
#X connect 13 1 9 1;
#X connect 14 0 10 0;
#X connect 14 1 13 2;
#X connect 14 2 18 0;
#X connect 15 0 16 0;
#X connect 16 0 5 1;
#X connect 17 0 15 0;
#X connect 18 0 21 0;
#X connect 18 1 17 1;
#X connect 19 0 17 0;
#X connect 20 0 3 1;
#X connect 21 0 19 0;
#X restore 209 302 pd jetsons;
#X obj 209 247 r \$0-jetsons;
#X obj 302 248 r \$0-noise;
#N canvas 96 22 796 624 noise 0;
#X obj 152 305 metro 10;
#X obj 317 167 mtof;
#X msg 318 230 1000 \$1;
#X obj 317 257 /;
#X obj 152 334 random 1000;
#X obj 152 360 / 2000;
#X obj 152 384 - 0.5;
#X obj 152 468 + 0.5;
#X obj 152 503 outlet;
#X obj 133 203 makenote 1 250;
#X obj 152 237 *;
#X obj 154 35 inlet;
#X msg 148 152 1;
#X obj 317 118 random 30;
#X obj 154 83 t b f f b;
#X obj 274 457 line 0 1;
#X obj 275 430 pack f f;
#X obj 276 322 t b f;
#X obj 273 407 / 100;
#X obj 274 357 random 50;
#X obj 274 383 + 50;
#X obj 152 436 * 1;
#X obj 317 144 + 65;
#X connect 0 0 4 0;
#X connect 1 0 2 0;
#X connect 2 0 3 0;
#X connect 3 0 0 1;
#X connect 4 0 5 0;
#X connect 5 0 6 0;
#X connect 6 0 21 0;
#X connect 7 0 8 0;
#X connect 9 0 10 0;
#X connect 9 1 10 1;
#X connect 10 0 0 0;
#X connect 11 0 14 0;
#X connect 12 0 9 0;
#X connect 13 0 22 0;
#X connect 14 0 12 0;
#X connect 14 1 9 2;
#X connect 14 2 17 0;
#X connect 14 3 13 0;
#X connect 15 0 21 1;
#X connect 16 0 15 0;
#X connect 17 0 19 0;
#X connect 17 1 16 1;
#X connect 18 0 16 0;
#X connect 19 0 20 0;
#X connect 20 0 18 0;
#X connect 21 0 7 0;
#X connect 22 0 1 0;
#X restore 302 302 pd noise;
#N canvas 0 22 932 546 square 0;
#X obj 276 248 f 0;
#X obj 304 248 + 1;
#X obj 337 248 % 2;
#X obj 276 277 sel 0 1;
#X msg 275 305 0.5;
#X msg 306 305 0;
#X obj 276 214 metro 10;
#X obj 438 156 mtof;
#X msg 438 231 1000 \$1;
#X obj 438 256 /;
#X obj 261 418 +;
#X floatatom 347 322 5 0 0 0 - - -;
#X obj 347 346 / 400;
#X obj 324 408 -;
#X msg 328 374 0.25 \$1;
#X obj 266 476 outlet;
#X obj 277 134 makenote 1 250;
#X obj 274 169 *;
#X msg 278 102 1;
#X obj 287 59 t b f f;
#X obj 438 108 random 50;
#X obj 438 131 + 25;
#X obj 438 206 line 0 1;
#X obj 438 181 pack f f;
#X obj 438 82 t b f;
#X obj 287 28 inlet;
#X connect 0 0 1 0;
#X connect 0 0 3 0;
#X connect 1 0 2 0;
#X connect 2 0 0 1;
#X connect 3 0 4 0;
#X connect 3 1 5 0;
#X connect 4 0 10 0;
#X connect 5 0 10 0;
#X connect 6 0 0 0;
#X connect 7 0 23 0;
#X connect 8 0 9 0;
#X connect 9 0 6 1;
#X connect 10 0 15 0;
#X connect 11 0 12 0;
#X connect 12 0 14 0;
#X connect 13 0 10 1;
#X connect 14 0 13 0;
#X connect 16 0 17 0;
#X connect 16 1 17 1;
#X connect 17 0 6 0;
#X connect 18 0 16 0;
#X connect 19 0 18 0;
#X connect 19 1 16 2;
#X connect 19 2 24 0;
#X connect 20 0 21 0;
#X connect 21 0 7 0;
#X connect 22 0 8 0;
#X connect 23 0 22 0;
#X connect 24 0 20 0;
#X connect 24 1 23 1;
#X connect 25 0 19 0;
#X restore 378 301 pd square;
#X obj 378 246 r \$0-square;
#X obj 117 277 bng 15 250 50 0 empty empty empty 17 7 0 10 -262144
-1 -1;
#X obj 226 275 bng 15 250 50 0 empty empty empty 17 7 0 10 -262144
-1 -1;
#X obj 317 279 bng 15 250 50 0 empty empty empty 17 7 0 10 -262144
-1 -1;
#X obj 393 275 bng 15 250 50 0 empty empty empty 17 7 0 10 -262144
-1 -1;
#N canvas 0 22 450 300 tempo 0;
#X obj 115 74 inlet;
#X msg 117 113 60000 \$1;
#X obj 121 146 /;
#X obj 121 176 * 4;
#X text 150 179 4 beats in ms;
#X obj 120 205 s \$0-4beats;
#X connect 0 0 1 0;
#X connect 1 0 2 0;
#X connect 2 0 3 0;
#X connect 3 0 5 0;
#X restore 235 104 pd tempo;
#X obj 235 55 nbx 5 14 -1e+37 1e+37 0 1 empty empty empty 0 -8 0 10
-262144 -1 -1 45 256;
#X text 293 51 bpm;
#X text 255 147 GO!;
#X text 386 488 .mmb;
#X obj 524 361 line;
#X msg 465 355 0;
#X obj 517 311 * 0.5;
#X obj 499 288 t b f f;
#X obj 517 131 counter;
#X obj 547 87 metro 250;
#X obj 543 68 tgl 15 0 empty empty empty 17 7 0 10 -262144 -1 -1 1
1;
#X obj 624 299 metro 73;
#X obj 652 354 int;
#X obj 648 383 mtof;
#X obj 507 265 mtof;
#X obj 704 349 line;
#X obj 604 299 tgl 15 0 empty empty empty 17 7 0 10 -262144 -1 -1 1
1;
#X msg 637 217 125;
#X msg 656 242 200;
#X obj 573 156 % 24;
#X obj 481 193 sel 0 1 2 3 5;
#X obj 711 219 sel 0 1 2 3 4 5 6 7;
#X obj 573 179 sel 0 11;
#X msg 595 234 1;
#X msg 688 253 50;
#X msg 728 255 52;
#X msg 746 279 57;
#X msg 782 280 48;
#X msg 764 255 62;
#X msg 470 239 38;
#X msg 533 238 45;
#X obj 685 181 random 12;
#X msg 700 326 \$1 500;
#X obj 692 145 s \$0-beat;
#X obj 595 65 r \$0-beat;
#X floatatom 688 42 5 0 0 0 - - -;
#X floatatom 772 139 5 0 0 0 - - -;
#X obj 672 84 expr 30000/$f1;
#X obj 522 336 pack f 120;
#X obj 456 331 del 250;
#X obj 482 171 % 8;
#X text 224 36 select your tempo heer;
#X obj 392 119 del 1000;
#X msg 610 265 0;
#X obj 396 145 t b b;
#X obj 395 97 bang;
#X msg 502 238 36;
#X obj 257 82 * 2;
#X obj 465 426 osc~;
#X obj 250 484 *~ 0.5;
#X obj 303 502 *~ 0.5;
#X connect 0 0 66 0;
#X connect 2 0 0 0;
#X connect 3 0 2 0;
#X connect 3 0 12 0;
#X connect 5 0 4 0;
#X connect 5 0 27 0;
#X connect 6 0 0 0;
#X connect 7 0 13 0;
#X connect 7 0 6 0;
#X connect 8 0 9 0;
#X connect 8 0 14 0;
#X connect 9 0 0 1;
#X connect 10 0 0 1;
#X connect 11 0 10 0;
#X connect 11 0 15 0;
#X connect 17 0 52 0;
#X connect 17 0 64 0;
#X connect 21 0 65 0;
#X connect 22 0 21 0;
#X connect 23 0 55 0;
#X connect 24 0 56 0;
#X connect 24 1 23 0;
#X connect 24 2 21 0;
#X connect 25 0 36 0;
#X connect 25 0 57 0;
#X connect 26 0 25 0;
#X connect 26 0 48 0;
#X connect 26 0 62 0;
#X connect 27 0 26 0;
#X connect 28 0 29 0;
#X connect 29 0 30 0;
#X connect 30 0 65 0;
#X connect 31 0 24 0;
#X connect 32 0 29 1;
#X connect 33 0 28 0;
#X connect 34 0 28 1;
#X connect 35 0 28 1;
#X connect 36 0 39 0;
#X connect 37 0 46 0;
#X connect 37 1 63 0;
#X connect 37 2 47 0;
#X connect 37 3 46 0;
#X connect 37 4 47 0;
#X connect 38 0 41 0;
#X connect 38 1 42 0;
#X connect 38 2 43 0;
#X connect 38 3 45 0;
#X connect 38 4 44 0;
#X connect 38 5 34 0;
#X connect 38 6 35 0;
#X connect 38 7 60 0;
#X connect 39 0 40 0;
#X connect 39 1 40 0;
#X connect 40 0 33 0;
#X connect 41 0 49 0;
#X connect 42 0 49 0;
#X connect 43 0 49 0;
#X connect 44 0 49 0;
#X connect 45 0 49 0;
#X connect 46 0 31 0;
#X connect 47 0 31 0;
#X connect 48 0 38 0;
#X connect 49 0 32 0;
#X connect 51 0 26 1;
#X connect 52 0 54 0;
#X connect 54 0 50 0;
#X connect 54 0 53 0;
#X connect 55 0 21 0;
#X connect 56 0 22 0;
#X connect 57 0 37 0;
#X connect 59 0 61 0;
#X connect 60 0 33 0;
#X connect 61 0 46 0;
#X connect 61 1 60 0;
#X connect 62 0 59 0;
#X connect 63 0 31 0;
#X connect 64 0 16 0;
#X connect 65 0 67 0;
#X connect 66 0 1 0;
#X connect 67 0 1 1;
