#N canvas 168 373 450 323 10;
#X text 135 11 gemwin colorfield chooser;
#X obj 42 110 gemwin;
#X msg 10 75 create;
#X obj 89 61 tgl 15 0 empty empty empty 17 7 0 10 -262144 -1 -1 1 1
;
#X obj 154 142 gemhead;
#N canvas 428 322 450 300 colortoucher 1;
#X obj 238 224 outlet;
#X obj 294 224 outlet;
#X obj 345 224 outlet;
#X obj 64 5 cnv 15 170 180 empty empty empty 20 12 0 14 -228992 -66577
0;
#X obj 76 23 cnv 15 100 40 empty empty empty 20 12 0 14 -24198 -66577
0;
#X obj 89 34 gemmouse;
#X floatatom 89 159 9 0 0 1 X-position - -, f 9;
#X floatatom 100 137 8 0 0 1 Y-position - -, f 8;
#X floatatom 111 115 2 0 0 1 left-Button - -, f 2;
#X floatatom 122 94 2 0 0 1 middle-Button - -, f 2;
#X floatatom 134 70 2 0 0 1 right-Button - -, f 2;
#X obj 75 187 car2pol;
#X floatatom 54 222 5 0 0 0 - - -, f 5;
#X obj 245 104 synesthes;
#X obj 143 226 ftom;
#X obj 250 181 unpack f f f;
#X obj 333 189 print;
#X connect 5 0 6 0;
#X connect 5 1 7 0;
#X connect 5 2 8 0;
#X connect 5 3 9 0;
#X connect 5 4 10 0;
#X connect 6 0 11 0;
#X connect 7 0 11 1;
#X connect 11 0 12 0;
#X connect 11 1 14 0;
#X connect 13 1 15 0;
#X connect 13 1 16 0;
#X connect 15 0 0 0;
#X connect 15 1 1 0;
#X connect 15 2 2 0;
#X restore 250 127 pd colortoucher;
#X obj 166 170 colorRGB;
#X msg 114 231 text;
#X obj 148 269 teapot;
#X connect 2 0 1 0;
#X connect 3 0 1 0;
#X connect 4 0 6 0;
#X connect 5 0 6 1;
#X connect 5 1 6 2;
#X connect 5 2 6 3;
#X connect 6 0 8 0;
