#N canvas 789 177 387 439 10;
#X obj 90 28 inlet;
#X obj 90 89 unpack f f f;
#N canvas 34 168 450 300 sincospack 0;
#X obj 109 35 inlet;
#X obj 119 188 outlet;
#X obj 113 107 sin;
#X obj 140 107 cos;
#X obj 113 70 t f f;
#X obj 119 152 pack;
#X connect 0 0 4 0;
#X connect 2 0 5 0;
#X connect 3 0 5 1;
#X connect 4 0 2 0;
#X connect 4 1 3 0;
#X connect 5 0 1 0;
#X restore 84 143 pd sincospack;
#N canvas 78 6 450 300 sincospack 0;
#X obj 109 35 inlet;
#X obj 119 188 outlet;
#X obj 113 107 sin;
#X obj 140 107 cos;
#X obj 113 70 t f f;
#X obj 119 152 pack;
#X connect 0 0 4 0;
#X connect 2 0 5 0;
#X connect 3 0 5 1;
#X connect 4 0 2 0;
#X connect 4 1 3 0;
#X connect 5 0 1 0;
#X restore 124 166 pd sincospack;
#N canvas 0 0 450 300 sincospack 0;
#X obj 109 35 inlet;
#X obj 119 188 outlet;
#X obj 113 107 sin;
#X obj 140 107 cos;
#X obj 113 70 t f f;
#X obj 119 152 pack;
#X connect 0 0 4 0;
#X connect 2 0 5 0;
#X connect 3 0 5 1;
#X connect 4 0 2 0;
#X connect 4 1 3 0;
#X connect 5 0 1 0;
#X restore 161 191 pd sincospack;
#X obj 79 259 quatmult;
#X obj 116 355 outlet;
#X text 72 13 list Euler X \, Y \, Z \,;
#X text 109 373 quaternion W<x \, y \, z>;
#X msg 84 193 \$2 \$1 0 0;
#X msg 124 221 \$2 0 \$1 0;
#X msg 161 251 \$2 0 0 \$1;
#X obj 116 302 quatmult;
#X obj 74 119 * 0.5;
#X obj 114 119 * 0.5;
#X obj 154 119 * 0.5;
#X connect 0 0 1 0;
#X connect 1 0 13 0;
#X connect 1 1 14 0;
#X connect 1 2 15 0;
#X connect 2 0 9 0;
#X connect 3 0 10 0;
#X connect 4 0 11 0;
#X connect 5 0 12 0;
#X connect 9 0 5 0;
#X connect 10 0 5 1;
#X connect 11 0 12 1;
#X connect 12 0 6 0;
#X connect 13 0 2 0;
#X connect 14 0 3 0;
#X connect 15 0 4 0;
