#N canvas 734 246 450 301 10;
#N canvas 557 383 609 417 faster.than.time 1;
#X obj 338 111 switch~ 4096 1 4;
#X obj 132 67 osc~ 1;
#X obj 125 90 *~;
#X obj 124 111 expr~ ($v1+2)*880;
#X obj 32 257 tabwrite~ squave;
#X obj 338 85 bng 15 250 50 0 empty empty empty 17 7 0 10 -262144 -1
-1;
#X obj 32 227 bng 15 250 50 0 empty empty empty 17 7 0 10 -262144 -1
-1;
#X obj 113 137 osc~ 1760;
#X obj 177 235 outlet~;
#X obj 29 64 table squave;
#X obj 321 110 tgl 15 0 empty empty empty 17 7 0 10 -262144 -1 -1 0
1;
#X obj 364 16 dsp~;
#X floatatom 361 39 3 0 0 0 - - -;
#X floatatom 384 40 3 0 0 0 - - -;
#X obj 235 31 samplerate~;
#X floatatom 370 233 5 0 0 0 - - -;
#X obj 486 241 arraysize;
#X obj 410 327 popup 124 25 #ffffff popup option;
#X msg 198 365 \; squave resize \$1;
#X obj 263 88 bang~;
#X obj 272 138 counter;
#X obj 254 118 bng 15 250 50 0 empty empty empty 17 7 0 10 -262144
-1 -1;
#X floatatom 287 199 5 0 0 0 - - -;
#X obj 157 173 osc~ 0.25;
#X obj 140 205 *~;
#X obj 259 174 expr $f1*1024;
#X connect 1 0 2 1;
#X connect 1 0 2 0;
#X connect 2 0 3 0;
#X connect 3 0 7 0;
#X connect 5 0 0 0;
#X connect 5 0 4 0;
#X connect 6 0 4 0;
#X connect 7 0 24 0;
#X connect 10 0 0 0;
#X connect 11 0 12 0;
#X connect 11 1 13 0;
#X connect 15 0 17 0;
#X connect 19 0 20 0;
#X connect 19 0 21 0;
#X connect 20 0 22 0;
#X connect 20 0 25 0;
#X connect 23 0 24 1;
#X connect 24 0 4 0;
#X connect 25 0 18 0;
#X restore 299 112 pd faster.than.time;
#X obj 72 106 soundfiler;
#X msg 72 80 write -wave realfast.wav squave;
#X obj 297 181 dac~;
#X obj 257 149 osc~ 221.5;
#X connect 0 0 3 0;
#X connect 0 0 3 1;
#X connect 2 0 1 0;
