#N canvas 189 30 974 652 10;
#X obj 676 126 ead~ 0 0;
#X obj 661 363 *~;
#X obj 676 -92 bng 15 250 50 0 empty empty empty 0 -6 0 8 -262144 -1
-1;
#X obj 661 419 vol~;
#X obj 159 -158 openpanel;
#X obj 159 -89 soundfiler;
#X floatatom 159 -66 9 0 0 0 - - -;
#X obj 506 141 *~;
#X obj 507 11 expr 44100 / $f1;
#X obj 254 382 snapshot~;
#X obj 254 347 metro 50;
#X obj 254 405 /;
#X obj 507 92 phasor~;
#X floatatom 328 104 5 0 0 0 - - -;
#X msg 328 124 \$1;
#X obj 662 447 outlet~;
#X obj 676 -119 inlet;
#X obj 731 -41 tgl 15 0 empty empty empty 17 7 0 10 -262144 -1 -1 0
1;
#X obj 159 -181 r \$0-open;
#X text 598 -119 SEQUENCE ->;
#X obj 159 -135 pack s \$0;
#X msg 159 -112 read -resize \$1 \$2-soundfile;
#X obj 731 -19 s \$0-snap;
#X obj 698 104 r \$0-attack;
#X obj 797 109 r \$0-decay;
#X obj 682 389 r \$0-gain;
#X obj 177 -29 s \$0-samplesize;
#X obj 328 83 r \$0-bangplayback;
#X obj 507 -70 r \$0-samplesize;
#X obj 390 -104 r \$0-phasor;
#X obj 254 427 s \$0-slider;
#X obj 254 327 r \$0-snap;
#X obj 328 146 s \$0-playback;
#X obj 731 -66 inlet;
#X text 771 -67 Toggle;
#X obj 506 302 tabread4~ \$0-soundfile;
#X msg 546 67 0;
#X obj 505 274 +~ 0;
#X obj 526 201 r \$0-start;
#X obj 20 0 cnv 35 250 170 empty empty SAMPLER 50 12 1 20 -262144 -258113
0;
#X obj 27 10 bng 20 250 50 0 empty empty empty 17 7 0 10 -262144 -1
-1;
#X obj 159 133 hsl 80 15 0 100 0 1 empty empty GAIN 5 7 1 10 -262144
-1 -1 7200 1;
#X obj 159 113 hsl 80 15 100 9000 0 1 empty empty DECAY 5 7 1 10 -262144
-1 -1 500 1;
#X obj 159 93 hsl 80 15 0 500 0 1 empty empty ATTACK 5 7 1 10 -262144
-1 -1 0 1;
#X obj 29 150 hsl 95 10 0 1 0 0 empty empty empty -2 -8 0 10 -262144
-1 -1 455 1;
#X obj 29 36 hsl 128 10 0.1 11 0 0 empty empty empty -2 -8 0 10 -262144
-1 -1 261 1;
#X obj 164 36 bng 10 250 50 0 empty empty empty 17 7 0 10 -262144 -1
-1;
#N canvas 0 0 450 300 (subpatch) 0;
#X array \$0-soundfile 89048 float 0;
#X coords 0 1 89047 -1 100 50 1;
#X restore 26 90 graph;
#X obj 406 30 s \$0-open;
#X obj -63 133 r \$0-slider;
#X obj -54 46 s \$0-phasor;
#X obj 156 265 s \$0-decay;
#X obj 290 46 s \$0-bangplayback;
#X obj 156 291 s \$0-gain;
#X obj 156 239 s \$0-attack;
#X obj -74 19 r \$0-playback;
#X floatatom 86 49 9 0 0 0 - - -;
#X floatatom 26 49 9 0 0 0 - - -;
#X obj 159 73 hsl 80 15 0 1 0 0 empty empty START 5 7 1 10 -262144
-1 -1 0 1;
#X obj 109 332 s \$0-start;
#X obj 746 257 t b f;
#X obj 517 436 dac~;
#X obj 523 -131 tgl 15 0 empty empty empty 17 7 0 10 -262144 -1 -1
0 1;
#X obj 523 -109 metro 600;
#X obj 526 224 * \$0;
#X obj 526 248 * 1;
#X obj 521 119 r \$0-samplesize;
#X obj 327 388 r \$0-samplesize;
#X connect 0 0 1 1;
#X connect 1 0 3 0;
#X connect 2 0 0 0;
#X connect 2 0 36 0;
#X connect 3 0 15 0;
#X connect 3 0 61 0;
#X connect 3 0 61 1;
#X connect 4 0 20 0;
#X connect 5 0 6 0;
#X connect 6 0 26 0;
#X connect 6 0 56 0;
#X connect 7 0 37 0;
#X connect 8 0 12 0;
#X connect 8 0 13 0;
#X connect 9 0 11 0;
#X connect 10 0 9 0;
#X connect 11 0 30 0;
#X connect 12 0 7 0;
#X connect 13 0 14 0;
#X connect 14 0 32 0;
#X connect 16 0 2 0;
#X connect 17 0 22 0;
#X connect 18 0 4 0;
#X connect 20 0 21 0;
#X connect 21 0 5 0;
#X connect 23 0 0 1;
#X connect 24 0 0 2;
#X connect 25 0 3 1;
#X connect 27 0 13 0;
#X connect 28 0 8 0;
#X connect 29 0 12 0;
#X connect 31 0 10 0;
#X connect 33 0 17 0;
#X connect 35 0 1 0;
#X connect 36 0 12 1;
#X connect 37 0 35 0;
#X connect 37 0 9 0;
#X connect 38 0 64 0;
#X connect 40 0 48 0;
#X connect 41 0 53 0;
#X connect 42 0 51 0;
#X connect 43 0 54 0;
#X connect 45 0 50 0;
#X connect 45 0 57 0;
#X connect 46 0 52 0;
#X connect 49 0 44 0;
#X connect 55 0 45 0;
#X connect 58 0 59 0;
#X connect 62 0 63 0;
#X connect 62 0 17 0;
#X connect 63 0 2 0;
#X connect 64 0 65 0;
#X connect 65 0 37 1;
#X connect 66 0 7 1;
#X connect 66 0 64 1;
#X connect 67 0 11 1;
#X coords 0 -1 1 1 250 170 2 20 0;
