#N canvas 129 729 450 323 10;
#X text 135 11 gemwin colorfield chooser;
#N canvas 650 551 450 323 colortoucher 1;
#X obj 64 5 cnv 15 170 180 empty empty empty 20 12 0 14 -228992 -66577
0;
#X obj 76 23 cnv 15 100 40 empty empty empty 20 12 0 14 -24198 -66577
0;
#X obj 89 34 gemmouse;
#X floatatom 89 159 9 0 0 1 X-position - -, f 9;
#X floatatom 100 137 8 0 0 1 Y-position - -, f 8;
#X floatatom 111 115 2 0 0 1 left-Button - -, f 2;
#X floatatom 122 94 2 0 0 1 middle-Button - -, f 2;
#X floatatom 134 70 2 0 0 1 right-Button - -, f 2;
#X obj 75 187 car2pol;
#X obj 245 104 synesthes;
#X obj 143 226 ftom;
#X obj 250 181 unpack f f f;
#X obj 333 189 print;
#X obj 238 224 s RED;
#X obj 294 224 s GREEN;
#X obj 345 224 s BLUE;
#X connect 2 0 3 0;
#X connect 2 1 4 0;
#X connect 2 2 5 0;
#X connect 2 3 6 0;
#X connect 2 4 7 0;
#X connect 3 0 8 0;
#X connect 4 0 8 1;
#X connect 8 1 10 0;
#X connect 9 1 11 0;
#X connect 9 1 12 0;
#X connect 10 0 9 0;
#X connect 11 0 13 0;
#X connect 11 1 14 0;
#X connect 11 2 15 0;
#X restore 252 60 pd colortoucher;
#N canvas 0 0 450 300 touchreceiver 0;
#X obj 88 101 r RED;
#X obj 140 97 r GREEN;
#X obj 214 100 r BLUE;
#X obj 86 190 outlet;
#X obj 248 185 outlet;
#X obj 167 182 outlet;
#X connect 0 0 3 0;
#X connect 1 0 5 0;
#X connect 2 0 4 0;
#X restore 249 100 pd touchreceiver;
