#N canvas 161 92 803 604 10;
#X obj 191 226 fiddle~;
#X obj 225 98 adc~ 1 2 3 4;
#X obj 250 261 + 0.4999;
#X obj 250 284 int;
#X obj 241 226 fiddle~;
#X obj 291 226 fiddle~;
#X obj 341 226 fiddle~;
#X obj 280 346 noteout 1;
#X obj 250 309 makenote 70 500;
#X msg 137 256 67;
#X obj 128 171 metro 250;
#X obj 91 140 tgl 15 0 empty empty empty 17 7 0 10 -262144 -1 -1 0
1;
#X connect 0 0 2 0;
#X connect 0 2 8 1;
#X connect 1 0 0 0;
#X connect 1 1 4 0;
#X connect 1 2 5 0;
#X connect 1 3 6 0;
#X connect 2 0 3 0;
#X connect 3 0 8 0;
#X connect 4 0 2 0;
#X connect 4 2 8 1;
#X connect 5 0 2 0;
#X connect 5 2 8 1;
#X connect 6 0 2 0;
#X connect 6 2 8 1;
#X connect 8 0 7 0;
#X connect 8 1 7 1;
#X connect 9 0 8 0;
#X connect 10 0 9 0;
#X connect 11 0 10 0;
