#N canvas 0 22 1276 756 10;
#N canvas 0 22 450 300 (subpatch) 0;
#X array array1 67 float 1;
#A 0 -0.127108 0 0.127108 0.247048 0.353233 0.440186 0.503981 0.542545
0.555799 0.545642 0.51575 0.471238 0.418192 0.363127 0.312401 0.271656
0.245322 0.23622 0.245321 0.271655 0.312399 0.363126 0.418191 0.471236
0.515749 0.545641 0.555799 0.542545 0.503983 0.440188 0.353235 0.247051
0.127112 3.46847e-06 -0.127105 -0.247045 -0.35323 -0.440184 -0.50398
-0.542544 -0.555799 -0.545642 -0.515751 -0.471239 -0.418194 -0.363128
-0.312402 -0.271657 -0.245322 -0.23622 -0.245321 -0.271654 -0.312398
-0.363124 -0.418189 -0.471235 -0.515747 -0.54564 -0.555799 -0.542546
-0.503984 -0.44019 -0.353238 -0.247055 -0.127115 -6.93694e-06 0.127102
;
#X coords 0 1 66 -1 200 140 1;
#X restore 651 572 graph;
#X obj 570 83 t b f;
#X obj 521 83 t b f;
#X obj 470 85 t b f;
#X obj 424 84 t b f;
#X obj 376 83 t b f;
#X obj 331 83 t b f;
#X obj 282 87 t b f;
#X obj 617 79 t b f;
#X obj 667 74 t b f;
#X obj 716 72 t b f;
#X obj 601 401 cnv 15 339 319 empty empty DISTOWAVER 80 17 0 30 -4160
-257985 0;
#X obj 629 437 vsl 25 128 0 1 0 1 \$0n1 \$0reset empty 0 -9 0 10 -99865
-262144 -4160 6400 1;
#X obj 654 437 vsl 25 128 0 1 0 1 \$0n2 \$0reset empty 0 -9 0 10 -1
-262144 -1 0 1;
#X obj 679 436 vsl 25 128 0 1 0 1 \$0n3 \$0reset empty 0 -9 0 10 -99865
-262144 -1 3400 1;
#X obj 779 437 vsl 25 128 0 1 0 0 \$0n7 \$0reset empty 0 -9 0 10 -99865
-262144 -1 0 1;
#X obj 704 436 vsl 25 128 0 1 0 1 \$0n4 \$0reset empty 0 -9 0 10 -1
-262144 -1 0 1;
#X obj 730 436 vsl 25 128 0 1 0 0 \$0n5 \$0reset empty 0 -9 0 10 -99865
-262144 -1 0 1;
#X obj 754 436 vsl 25 128 0 1 0 1 \$0n6 \$0reset empty 0 -9 0 10 -1
-262144 -1 0 1;
#X obj 805 436 vsl 25 128 0 1 0 1 \$0n8 \$0reset empty 0 -9 0 10 -1
-262144 -1 0 1;
#X obj 831 437 vsl 25 128 0 1 0 1 \$0n9 \$0reset empty 0 -9 0 10 -99865
-262144 -1 0 1;
#X obj 854 437 vsl 25 128 0 1 0 1 \$0n10 \$0reset empty 0 -9 0 10 -1
-262144 -1 0 1;
#X msg 881 110 normalize 1;
#X obj 283 19 r \$0n1;
#X obj 333 19 r \$0n2;
#X obj 378 20 r \$0n3;
#X obj 422 18 r \$0n4;
#X obj 471 19 r \$0n5;
#X obj 521 17 r \$0n6;
#X obj 569 15 r \$0n7;
#X obj 615 9 r \$0n8;
#X obj 666 4 r \$0n9;
#X obj 716 -3 r \$0n10;
#X obj 283 109 s \$0b;
#X obj 717 100 s \$0b;
#X obj 668 100 s \$0b;
#X obj 617 102 s \$0b;
#X obj 570 106 s \$0b;
#X obj 521 107 s \$0b;
#X obj 470 108 s \$0b;
#X obj 423 107 s \$0b;
#X obj 376 104 s \$0b;
#X obj 331 106 s \$0b;
#X obj 873 629 bng 40 250 50 1 \$0set empty RESET 0 15 0 14 -258113
-1 -1;
#X obj 872 669 bng 40 250 50 0 \$0bng empty NORM 0 17 0 15 -4034 -1
-1;
#X obj 881 62 r \$0bng;
#X obj 881 87 bng 15 250 50 0 empty empty empty 17 7 0 10 -262144 -1
-1;
#X obj 982 70 r \$0set;
#X obj 982 123 s \$0reset;
#X obj 283 64 line;
#X obj 294 196 r \$0b;
#X msg 283 41 \$1 250;
#X obj 331 62 line;
#X msg 331 41 \$1 250;
#X obj 377 63 line;
#X msg 377 42 \$1 250;
#X obj 423 62 line;
#X msg 422 41 \$1 250;
#X obj 471 63 line;
#X msg 470 41 \$1 250;
#X obj 522 62 line;
#X msg 521 40 \$1 250;
#X obj 617 57 line;
#X msg 615 33 \$1 250;
#X obj 570 61 line;
#X msg 569 39 \$1 250;
#X obj 667 51 line;
#X msg 666 28 \$1 250;
#X obj 716 47 line;
#X msg 716 20 \$1 250;
#X obj 345 231 pack f f f f f f f f f f f;
#X obj 768 72 t b f;
#X obj 769 100 s \$0b;
#X obj 768 47 line;
#X msg 768 20 \$1 250;
#X obj 768 -3 r \$0n14;
#X obj 877 437 vsl 25 128 0 1 0 1 \$0n14 \$0reset empty 0 -9 0 10 -99865
-262144 -1 0 1;
#X msg 339 271 sinesum 64 \$1 \$2 \$3 \$4 \$5 \$6 \$7 \$8 \$9 \$10
\$11;
#X msg 812 130 \; pd dsp 1;
#X obj 813 106 loadbang;
#X msg 982 98 0;
#N canvas 0 22 684 368 printer 0;
#X obj 88 132 r \$0n1;
#X obj 135 131 r \$0n2;
#X obj 179 130 r \$0n3;
#X obj 226 130 r \$0n4;
#X obj 271 128 r \$0n5;
#X obj 316 126 r \$0n6;
#X obj 361 125 r \$0n7;
#X obj 406 124 r \$0n8;
#X obj 451 123 r \$0n9;
#X obj 498 121 r \$0n10;
#X obj 553 119 r \$0n14;
#X obj 84 162 f;
#X obj 122 163 f;
#X obj 212 164 f;
#X obj 257 164 f;
#X obj 303 162 f;
#X obj 346 159 f;
#X obj 392 156 f;
#X obj 439 153 f;
#X obj 485 153 f;
#X obj 540 150 f;
#X obj 166 165 f;
#X obj 161 25 r print;
#X obj 155 70 t b b b b b b b b b b b;
#X obj 187 268 pack f f f f f f f f f f f;
#X obj 188 311 print sinesum;
#X connect 0 0 11 1;
#X connect 1 0 12 1;
#X connect 2 0 21 1;
#X connect 3 0 13 1;
#X connect 4 0 14 1;
#X connect 5 0 15 1;
#X connect 6 0 16 1;
#X connect 7 0 17 1;
#X connect 8 0 18 1;
#X connect 9 0 19 1;
#X connect 10 0 20 1;
#X connect 11 0 24 0;
#X connect 12 0 24 1;
#X connect 13 0 24 3;
#X connect 14 0 24 4;
#X connect 15 0 24 5;
#X connect 16 0 24 6;
#X connect 17 0 24 7;
#X connect 18 0 24 8;
#X connect 19 0 24 9;
#X connect 20 0 24 10;
#X connect 21 0 24 2;
#X connect 22 0 23 0;
#X connect 23 0 11 0;
#X connect 23 1 12 0;
#X connect 23 2 21 0;
#X connect 23 3 13 0;
#X connect 23 4 14 0;
#X connect 23 5 15 0;
#X connect 23 6 16 0;
#X connect 23 7 17 0;
#X connect 23 8 18 0;
#X connect 23 9 19 0;
#X connect 23 10 20 0;
#X connect 24 0 25 0;
#X restore 815 178 pd printer;
#X obj 872 592 bng 40 250 50 0 print empty PRINT 0 17 0 14 -257985
-1 -1;
#N canvas 0 22 1276 756 polysynth 0;
#X obj 388 405 *~;
#X obj 750 389 adsr 1 100 100 40 1000;
#X obj 501 365 adsr 1 100 100 40 1000;
#X obj 742 458 *~;
#X obj 484 29 mtof;
#X obj 642 24 mtof;
#N canvas 0 22 547 527 transfer 0;
#X obj 214 116 *~ 128;
#X obj 214 150 +~ 129;
#X obj 211 77 inlet~;
#X obj 221 423 hip~ 1;
#X obj 220 467 outlet~;
#X obj 217 384 tabread4~ array2;
#X msg 283 143 set array2;
#X msg 285 202 set array3;
#X msg 288 267 set array4;
#X msg 288 328 set array5;
#X obj 282 115 r trn1;
#X obj 284 175 r trn2;
#X obj 288 238 r trn3;
#X obj 287 304 r trn4;
#X connect 0 0 1 0;
#X connect 1 0 5 0;
#X connect 2 0 0 0;
#X connect 3 0 4 0;
#X connect 5 0 3 0;
#X connect 6 0 5 0;
#X connect 7 0 5 0;
#X connect 8 0 5 0;
#X connect 9 0 5 0;
#X connect 10 0 6 0;
#X connect 11 0 7 0;
#X connect 12 0 8 0;
#X connect 13 0 9 0;
#X restore 389 316 pd transfer;
#N canvas 0 22 550 415 midi 0;
#X obj 93 -13 pack f f f;
#X obj 94 24 route 1;
#X obj 93 62 unpack f f f;
#X obj 202 57 unpack f f f;
#X floatatom 95 102 5 0 0 0 - - -;
#X floatatom 135 101 5 0 0 0 - - -;
#X floatatom 177 101 5 0 0 0 - - -;
#X floatatom 218 99 5 0 0 0 - - -;
#X floatatom 260 100 5 0 0 0 - - -;
#X floatatom 305 109 5 0 0 0 - - -;
#X obj 103 -54 poly 2 1;
#X obj 109 -106 notein;
#X floatatom 181 -56 5 0 0 0 - - -;
#X obj 13 126 outlet note1;
#X obj 10 169 outlet vel1;
#X obj 213 132 outlet note2;
#X obj 355 78 outlet vel2;
#X obj 308 168 s v2;
#X obj 307 138 * 0.00787;
#X obj 131 169 s v1;
#X obj 132 140 * 0.00787;
#X connect 0 0 1 0;
#X connect 1 0 2 0;
#X connect 1 1 3 0;
#X connect 2 0 4 0;
#X connect 2 0 13 0;
#X connect 2 1 5 0;
#X connect 2 1 14 0;
#X connect 2 2 6 0;
#X connect 3 0 7 0;
#X connect 3 1 15 0;
#X connect 3 2 9 0;
#X connect 3 2 16 0;
#X connect 5 0 20 0;
#X connect 9 0 18 0;
#X connect 10 0 0 0;
#X connect 10 1 0 1;
#X connect 10 2 0 2;
#X connect 11 0 10 0;
#X connect 11 1 10 1;
#X connect 11 2 12 0;
#X connect 18 0 17 0;
#X connect 20 0 19 0;
#X restore 569 -5 pd midi;
#X obj 204 369 *~;
#X obj 158 281 adsr 1 100 100 40 1000;
#X obj 962 394 *~;
#X obj 1002 339 adsr 1 100 100 40 1000;
#X obj 525 332 r v1;
#X obj 179 237 r v1;
#X obj 762 344 r v2;
#X obj 1010 290 r v2;
#N canvas 0 22 455 366 crossfade 0;
#X obj 98 47 inlet~ sig1;
#X obj 209 48 inlet~ sig2;
#X obj 94 274 outlet~;
#X obj 95 212 *~;
#X obj 211 206 *~;
#X obj 265 135 sig~ 1;
#X obj 264 166 -~;
#X obj 123 140 init 1;
#X msg 307 77 \$1 30;
#X obj 308 100 line~;
#X obj 306 52 inlet control;
#X connect 0 0 3 0;
#X connect 1 0 4 0;
#X connect 3 0 2 0;
#X connect 4 0 2 0;
#X connect 5 0 6 0;
#X connect 6 0 4 1;
#X connect 7 0 3 1;
#X connect 8 0 9 0;
#X connect 9 0 6 1;
#X connect 9 0 3 1;
#X connect 10 0 8 0;
#X restore 197 559 pd crossfade;
#X obj 193 594 throw~ sound;
#X obj 303 512 r fade;
#N canvas 0 22 455 366 crossfade 0;
#X obj 98 47 inlet~ sig1;
#X obj 209 48 inlet~ sig2;
#X obj 94 274 outlet~;
#X obj 95 212 *~;
#X obj 211 206 *~;
#X obj 265 135 sig~ 1;
#X obj 264 166 -~;
#X obj 307 97 line~;
#X msg 308 76 \$1 30;
#X obj 115 154 init 1;
#X obj 306 52 inlet control;
#X connect 0 0 3 0;
#X connect 1 0 4 0;
#X connect 3 0 2 0;
#X connect 4 0 2 0;
#X connect 5 0 6 0;
#X connect 6 0 4 1;
#X connect 7 0 6 1;
#X connect 7 0 3 1;
#X connect 8 0 7 0;
#X connect 9 0 3 1;
#X connect 10 0 8 0;
#X restore 806 588 pd crossfade;
#X obj 875 545 r fade;
#X obj 806 619 throw~ sound;
#N canvas 0 22 426 214 adsr_normal 0;
#X obj 63 52 r attack;
#X obj 137 53 r decay;
#X obj 208 52 r sustain;
#X obj 291 53 r release;
#X obj 64 94 * 3000;
#X obj 137 93 * 3000;
#X obj 210 91 * 100;
#X obj 290 90 * 3000;
#X obj 65 143 s nattack;
#X obj 136 145 s ndecay;
#X obj 205 143 s nsustain;
#X obj 290 143 s nrelease;
#X connect 0 0 4 0;
#X connect 1 0 5 0;
#X connect 2 0 6 0;
#X connect 3 0 7 0;
#X connect 4 0 8 0;
#X connect 5 0 9 0;
#X connect 6 0 10 0;
#X connect 7 0 11 0;
#X restore 1001 130 pd adsr_normal;
#X obj 209 181 r nattack;
#X obj 236 205 r ndecay;
#X obj 261 227 r nsustain;
#X obj 287 253 r nrelease;
#X obj 552 265 r nattack;
#X obj 579 289 r ndecay;
#X obj 604 311 r nsustain;
#X obj 630 337 r nrelease;
#X obj 806 314 r nattack;
#X obj 848 333 r nsustain;
#X obj 885 354 r nrelease;
#X obj 822 356 r ndecay;
#X obj 1053 239 r nattack;
#X obj 1080 263 r ndecay;
#X obj 1105 285 r nsustain;
#X obj 1131 311 r nrelease;
#X obj 496 391 lop~ 5;
#X obj 153 307 lop~ 5;
#X obj 997 365 lop~ 5;
#X obj 775 433 lop~ 5;
#X obj 682 42 sig~;
#X obj 771 118 +~;
#X obj 819 76 osc~ 8;
#X obj 819 105 *~;
#X obj 404 41 sig~;
#X obj 267 127 +~;
#X obj 198 57 osc~ 8;
#X obj 180 85 *~;
#X obj 888 63 r vibedepth;
#X obj 122 30 r vibedepth;
#X obj 121 56 * 15;
#X obj 887 89 * 15;
#X obj 201 -7 r viberate;
#X obj 201 25 * 20;
#X obj 820 10 r viberate;
#X obj 820 42 * 20;
#X floatatom 597 64 5 0 0 0 - - -;
#X obj 331 85 *~;
#X obj 726 76 *~;
#N canvas 0 22 389 368 bender 0;
#X obj 164 71 bendin;
#X floatatom 165 96 5 0 0 0 - - -;
#X floatatom 163 176 5 0 0 0 - - -;
#X obj 164 121 * 1.46493e-05;
#X obj 163 147 + 0.88;
#X obj 162 206 s bend;
#X connect 0 0 1 0;
#X connect 1 0 3 0;
#X connect 2 0 5 0;
#X connect 3 0 4 0;
#X connect 4 0 2 0;
#X restore 1000 99 pd bender;
#X obj 741 40 r bend;
#X obj 332 50 r bend;
#X obj 387 139 tabosc4~ array1;
#X obj 737 156 tabosc4~ array1;
#N canvas 0 22 547 527 transfer 0;
#X obj 214 116 *~ 128;
#X obj 214 150 +~ 129;
#X obj 211 77 inlet~;
#X obj 221 423 hip~ 1;
#X obj 220 467 outlet~;
#X obj 217 384 tabread4~ array2;
#X msg 283 143 set array2;
#X msg 285 202 set array3;
#X msg 288 267 set array4;
#X msg 288 328 set array5;
#X obj 282 115 r trn1;
#X obj 284 175 r trn2;
#X obj 288 238 r trn3;
#X obj 287 304 r trn4;
#X connect 0 0 1 0;
#X connect 1 0 5 0;
#X connect 2 0 0 0;
#X connect 3 0 4 0;
#X connect 5 0 3 0;
#X connect 6 0 5 0;
#X connect 7 0 5 0;
#X connect 8 0 5 0;
#X connect 9 0 5 0;
#X connect 10 0 6 0;
#X connect 11 0 7 0;
#X connect 12 0 8 0;
#X connect 13 0 9 0;
#X restore 739 259 pd transfer;
#N canvas 0 22 1217 718 unison 0;
#X obj 398 455 *~;
#X obj 760 439 adsr 1 100 100 40 1000;
#X obj 511 415 adsr 1 100 100 40 1000;
#X obj 752 508 *~;
#X obj 417 63 mtof;
#X obj 726 88 mtof;
#N canvas 0 22 547 527 transfer 0;
#X obj 214 116 *~ 128;
#X obj 214 150 +~ 129;
#X obj 211 77 inlet~;
#X obj 221 423 hip~ 1;
#X obj 220 467 outlet~;
#X obj 282 115 r trn 1;
#X obj 284 175 r trn 2;
#X obj 288 238 r trn 3;
#X obj 217 384 tabread4~ array2;
#X msg 283 143 set array2;
#X msg 285 202 set array3;
#X msg 288 267 set array4;
#X obj 287 304 r trn 4;
#X msg 288 328 set array5;
#X connect 0 0 1 0;
#X connect 1 0 8 0;
#X connect 2 0 0 0;
#X connect 3 0 4 0;
#X connect 5 0 9 0;
#X connect 6 0 10 0;
#X connect 7 0 11 0;
#X connect 8 0 3 0;
#X connect 9 0 8 0;
#X connect 10 0 8 0;
#X connect 11 0 8 0;
#X connect 12 0 13 0;
#X connect 13 0 8 0;
#X restore 399 366 pd transfer;
#N canvas 0 22 550 415 midi 0;
#X obj 93 -13 pack f f f;
#X obj 94 24 route 1;
#X obj 93 62 unpack f f f;
#X obj 202 57 unpack f f f;
#X floatatom 95 102 5 0 0 0 - - -;
#X floatatom 135 101 5 0 0 0 - - -;
#X floatatom 177 101 5 0 0 0 - - -;
#X floatatom 218 99 5 0 0 0 - - -;
#X floatatom 260 100 5 0 0 0 - - -;
#X floatatom 305 109 5 0 0 0 - - -;
#X obj 103 -54 poly 2 1;
#X obj 109 -106 notein;
#X floatatom 181 -56 5 0 0 0 - - -;
#X obj 13 126 outlet note1;
#X obj 10 169 outlet vel1;
#X obj 213 132 outlet note2;
#X obj 355 78 outlet vel2;
#X obj 308 168 s v2;
#X obj 307 138 * 0.00787;
#X obj 131 169 s v1;
#X obj 132 140 * 0.00787;
#X connect 0 0 1 0;
#X connect 1 0 2 0;
#X connect 1 1 3 0;
#X connect 2 0 4 0;
#X connect 2 0 13 0;
#X connect 2 1 5 0;
#X connect 2 1 14 0;
#X connect 2 2 6 0;
#X connect 3 0 7 0;
#X connect 3 1 15 0;
#X connect 3 2 9 0;
#X connect 3 2 16 0;
#X connect 5 0 20 0;
#X connect 9 0 18 0;
#X connect 10 0 0 0;
#X connect 10 1 0 1;
#X connect 10 2 0 2;
#X connect 11 0 10 0;
#X connect 11 1 10 1;
#X connect 11 2 12 0;
#X connect 18 0 17 0;
#X connect 20 0 19 0;
#X restore 579 45 pd midi;
#X obj 214 419 *~;
#X obj 168 331 adsr 1 100 100 40 1000;
#X obj 972 444 *~;
#X obj 1012 389 adsr 1 100 100 40 1000;
#X obj 535 382 r v1;
#X obj 189 287 r v1;
#X obj 772 394 r v2;
#X obj 1020 340 r v2;
#N canvas 0 22 455 366 crossfade 0;
#X obj 98 47 inlet~ sig1;
#X obj 209 48 inlet~ sig2;
#X obj 94 274 outlet~;
#X obj 95 212 *~;
#X obj 211 206 *~;
#X obj 265 135 sig~ 1;
#X obj 264 166 -~;
#X obj 123 140 init 1;
#X msg 307 77 \$1 30;
#X obj 308 100 line~;
#X obj 306 52 inlet control;
#X connect 0 0 3 0;
#X connect 1 0 4 0;
#X connect 3 0 2 0;
#X connect 4 0 2 0;
#X connect 5 0 6 0;
#X connect 6 0 4 1;
#X connect 7 0 3 1;
#X connect 8 0 9 0;
#X connect 9 0 6 1;
#X connect 9 0 3 1;
#X connect 10 0 8 0;
#X restore 207 609 pd crossfade;
#X obj 313 562 r fade;
#N canvas 0 22 455 366 crossfade 0;
#X obj 98 47 inlet~ sig1;
#X obj 209 48 inlet~ sig2;
#X obj 94 274 outlet~;
#X obj 95 212 *~;
#X obj 211 206 *~;
#X obj 265 135 sig~ 1;
#X obj 264 166 -~;
#X obj 307 97 line~;
#X msg 308 76 \$1 30;
#X obj 115 154 init 1;
#X obj 306 52 inlet control;
#X connect 0 0 3 0;
#X connect 1 0 4 0;
#X connect 3 0 2 0;
#X connect 4 0 2 0;
#X connect 5 0 6 0;
#X connect 6 0 4 1;
#X connect 7 0 6 1;
#X connect 7 0 3 1;
#X connect 8 0 7 0;
#X connect 9 0 3 1;
#X connect 10 0 8 0;
#X restore 816 638 pd crossfade;
#X obj 885 595 r fade;
#N canvas 0 22 426 214 adsr_normal 0;
#X obj 63 52 r attack;
#X obj 137 53 r decay;
#X obj 208 52 r sustain;
#X obj 291 53 r release;
#X obj 64 94 * 3000;
#X obj 137 93 * 3000;
#X obj 210 91 * 100;
#X obj 290 90 * 3000;
#X obj 65 143 s nattack;
#X obj 136 145 s ndecay;
#X obj 205 143 s nsustain;
#X obj 290 143 s nrelease;
#X connect 0 0 4 0;
#X connect 1 0 5 0;
#X connect 2 0 6 0;
#X connect 3 0 7 0;
#X connect 4 0 8 0;
#X connect 5 0 9 0;
#X connect 6 0 10 0;
#X connect 7 0 11 0;
#X restore 1011 180 pd adsr_normal;
#X obj 219 231 r nattack;
#X obj 246 255 r ndecay;
#X obj 271 277 r nsustain;
#X obj 297 303 r nrelease;
#X obj 562 315 r nattack;
#X obj 589 339 r ndecay;
#X obj 614 361 r nsustain;
#X obj 640 387 r nrelease;
#X obj 816 364 r nattack;
#X obj 858 383 r nsustain;
#X obj 895 404 r nrelease;
#X obj 832 406 r ndecay;
#X obj 1063 289 r nattack;
#X obj 1090 313 r ndecay;
#X obj 1115 335 r nsustain;
#X obj 1141 361 r nrelease;
#X obj 506 441 lop~ 5;
#X obj 163 357 lop~ 5;
#X obj 1007 415 lop~ 5;
#X obj 785 483 lop~ 5;
#X obj 726 111 sig~;
#X obj 781 168 +~;
#X obj 829 126 osc~ 8;
#X obj 829 155 *~;
#X obj 329 87 sig~;
#X obj 192 173 +~;
#X obj 123 103 osc~ 8;
#X obj 105 131 *~;
#X obj 898 113 r vibedepth;
#X obj 47 76 r vibedepth;
#X obj 46 102 * 15;
#X obj 897 139 * 15;
#X obj 126 39 r viberate;
#X obj 126 71 * 20;
#X obj 830 60 r viberate;
#X obj 830 92 * 20;
#X floatatom 607 114 5 0 0 0 - - -;
#X obj 256 131 *~;
#X obj 742 136 *~;
#N canvas 0 22 389 368 bender 0;
#X obj 164 71 bendin;
#X floatatom 165 96 5 0 0 0 - - -;
#X floatatom 163 176 5 0 0 0 - - -;
#X obj 164 121 * 1.46493e-05;
#X obj 163 147 + 0.88;
#X obj 162 206 s bend;
#X connect 0 0 1 0;
#X connect 1 0 3 0;
#X connect 2 0 5 0;
#X connect 3 0 4 0;
#X connect 4 0 2 0;
#X restore 1010 149 pd bender;
#X obj 757 100 r bend;
#X obj 257 96 r bend;
#X obj 394 181 tabosc4~ array1;
#X obj 747 206 tabosc4~ array1;
#N canvas 0 22 547 527 transfer 0;
#X obj 214 116 *~ 128;
#X obj 214 150 +~ 129;
#X obj 211 77 inlet~;
#X obj 221 423 hip~ 1;
#X obj 220 467 outlet~;
#X obj 282 115 r trn 1;
#X obj 284 175 r trn 2;
#X obj 288 238 r trn 3;
#X obj 217 384 tabread4~ array2;
#X msg 283 143 set array2;
#X msg 285 202 set array3;
#X msg 288 267 set array4;
#X obj 287 304 r trn 4;
#X msg 288 328 set array5;
#X connect 0 0 1 0;
#X connect 1 0 8 0;
#X connect 2 0 0 0;
#X connect 3 0 4 0;
#X connect 5 0 9 0;
#X connect 6 0 10 0;
#X connect 7 0 11 0;
#X connect 8 0 3 0;
#X connect 9 0 8 0;
#X connect 10 0 8 0;
#X connect 11 0 8 0;
#X connect 12 0 13 0;
#X connect 13 0 8 0;
#X restore 749 309 pd transfer;
#X obj 532 655 outlet~;
#X msg 383 132 223;
#X obj 473 69 +;
#X obj 489 5 r dt1;
#X obj 692 8 r dt1;
#X obj 685 82 +;
#X obj 52 493 switch~;
#X obj 55 452 tgl 15 0 empty empty empty 17 7 0 10 -262144 -1 -1 1
1;
#X obj 56 323 r voice;
#X floatatom 55 354 5 0 0 0 - - -;
#X obj 56 386 > 0;
#X floatatom 55 418 5 0 0 0 - - -;
#X obj 483 37 - 0.5;
#X obj 687 42 - 0.5;
#X obj 206 100 init 1;
#X obj 777 119 init 1;
#X connect 0 0 16 1;
#X connect 1 0 40 0;
#X connect 2 0 37 0;
#X connect 3 0 18 1;
#X connect 4 0 45 0;
#X connect 5 0 41 0;
#X connect 6 0 0 0;
#X connect 7 0 2 0;
#X connect 7 0 9 0;
#X connect 7 1 68 0;
#X connect 7 2 57 0;
#X connect 7 2 71 0;
#X connect 7 3 1 0;
#X connect 7 3 11 0;
#X connect 8 0 16 0;
#X connect 9 0 38 0;
#X connect 10 0 18 0;
#X connect 11 0 39 0;
#X connect 12 0 2 1;
#X connect 13 0 9 1;
#X connect 14 0 1 1;
#X connect 15 0 11 1;
#X connect 16 0 66 0;
#X connect 17 0 16 2;
#X connect 18 0 66 0;
#X connect 19 0 18 2;
#X connect 21 0 9 2;
#X connect 22 0 9 3;
#X connect 23 0 9 4;
#X connect 24 0 9 5;
#X connect 25 0 2 2;
#X connect 26 0 2 3;
#X connect 27 0 2 4;
#X connect 28 0 2 5;
#X connect 29 0 1 2;
#X connect 30 0 1 4;
#X connect 31 0 1 5;
#X connect 32 0 1 3;
#X connect 33 0 11 2;
#X connect 34 0 11 3;
#X connect 35 0 11 4;
#X connect 36 0 11 5;
#X connect 37 0 0 1;
#X connect 38 0 8 1;
#X connect 39 0 10 1;
#X connect 40 0 3 1;
#X connect 41 0 59 0;
#X connect 42 0 64 0;
#X connect 43 0 44 0;
#X connect 44 0 42 1;
#X connect 45 0 58 1;
#X connect 46 0 63 0;
#X connect 47 0 48 1;
#X connect 48 0 46 1;
#X connect 49 0 52 0;
#X connect 50 0 51 0;
#X connect 51 0 48 0;
#X connect 52 0 44 1;
#X connect 53 0 54 0;
#X connect 54 0 47 0;
#X connect 55 0 56 0;
#X connect 56 0 43 0;
#X connect 58 0 46 0;
#X connect 59 0 42 0;
#X connect 61 0 59 1;
#X connect 62 0 58 0;
#X connect 63 0 6 0;
#X connect 63 0 8 0;
#X connect 64 0 10 0;
#X connect 64 0 65 0;
#X connect 65 0 3 0;
#X connect 67 0 63 0;
#X connect 68 0 4 0;
#X connect 69 0 78 0;
#X connect 70 0 79 0;
#X connect 71 0 5 0;
#X connect 73 0 72 0;
#X connect 74 0 75 0;
#X connect 75 0 76 0;
#X connect 76 0 77 0;
#X connect 77 0 73 0;
#X connect 78 0 68 1;
#X connect 79 0 71 1;
#X connect 80 0 58 0;
#X connect 81 0 59 1;
#X restore 395 523 pd unison;
#X obj 398 562 throw~ sound;
#N canvas 0 22 1217 718 unison 0;
#X obj 398 455 *~;
#X obj 760 439 adsr 1 100 100 40 1000;
#X obj 511 415 adsr 1 100 100 40 1000;
#X obj 752 508 *~;
#X obj 417 63 mtof;
#X obj 692 118 mtof;
#N canvas 0 22 547 527 transfer 0;
#X obj 214 116 *~ 128;
#X obj 214 150 +~ 129;
#X obj 211 77 inlet~;
#X obj 221 423 hip~ 1;
#X obj 220 467 outlet~;
#X obj 282 115 r trn 1;
#X obj 284 175 r trn 2;
#X obj 288 238 r trn 3;
#X obj 217 384 tabread4~ array2;
#X msg 283 143 set array2;
#X msg 285 202 set array3;
#X msg 288 267 set array4;
#X obj 287 304 r trn 4;
#X msg 288 328 set array5;
#X connect 0 0 1 0;
#X connect 1 0 8 0;
#X connect 2 0 0 0;
#X connect 3 0 4 0;
#X connect 5 0 9 0;
#X connect 6 0 10 0;
#X connect 7 0 11 0;
#X connect 8 0 3 0;
#X connect 9 0 8 0;
#X connect 10 0 8 0;
#X connect 11 0 8 0;
#X connect 12 0 13 0;
#X connect 13 0 8 0;
#X restore 399 366 pd transfer;
#N canvas 0 22 550 415 midi 0;
#X obj 93 -13 pack f f f;
#X obj 94 24 route 1;
#X obj 93 62 unpack f f f;
#X obj 202 57 unpack f f f;
#X floatatom 95 102 5 0 0 0 - - -;
#X floatatom 135 101 5 0 0 0 - - -;
#X floatatom 177 101 5 0 0 0 - - -;
#X floatatom 218 99 5 0 0 0 - - -;
#X floatatom 260 100 5 0 0 0 - - -;
#X floatatom 305 109 5 0 0 0 - - -;
#X obj 103 -54 poly 2 1;
#X obj 109 -106 notein;
#X floatatom 181 -56 5 0 0 0 - - -;
#X obj 13 126 outlet note1;
#X obj 10 169 outlet vel1;
#X obj 213 132 outlet note2;
#X obj 355 78 outlet vel2;
#X obj 308 168 s v2;
#X obj 307 138 * 0.00787;
#X obj 131 169 s v1;
#X obj 132 140 * 0.00787;
#X connect 0 0 1 0;
#X connect 1 0 2 0;
#X connect 1 1 3 0;
#X connect 2 0 4 0;
#X connect 2 0 13 0;
#X connect 2 1 5 0;
#X connect 2 1 14 0;
#X connect 2 2 6 0;
#X connect 3 0 7 0;
#X connect 3 1 15 0;
#X connect 3 2 9 0;
#X connect 3 2 16 0;
#X connect 5 0 20 0;
#X connect 9 0 18 0;
#X connect 10 0 0 0;
#X connect 10 1 0 1;
#X connect 10 2 0 2;
#X connect 11 0 10 0;
#X connect 11 1 10 1;
#X connect 11 2 12 0;
#X connect 18 0 17 0;
#X connect 20 0 19 0;
#X restore 579 45 pd midi;
#X obj 214 419 *~;
#X obj 168 331 adsr 1 100 100 40 1000;
#X obj 972 444 *~;
#X obj 1012 389 adsr 1 100 100 40 1000;
#X obj 535 382 r v1;
#X obj 189 287 r v1;
#X obj 772 394 r v2;
#X obj 1020 340 r v2;
#N canvas 0 22 455 366 crossfade 0;
#X obj 98 47 inlet~ sig1;
#X obj 209 48 inlet~ sig2;
#X obj 94 274 outlet~;
#X obj 95 212 *~;
#X obj 211 206 *~;
#X obj 265 135 sig~ 1;
#X obj 264 166 -~;
#X obj 123 140 init 1;
#X msg 307 77 \$1 30;
#X obj 308 100 line~;
#X obj 306 52 inlet control;
#X connect 0 0 3 0;
#X connect 1 0 4 0;
#X connect 3 0 2 0;
#X connect 4 0 2 0;
#X connect 5 0 6 0;
#X connect 6 0 4 1;
#X connect 7 0 3 1;
#X connect 8 0 9 0;
#X connect 9 0 6 1;
#X connect 9 0 3 1;
#X connect 10 0 8 0;
#X restore 207 609 pd crossfade;
#X obj 313 562 r fade;
#N canvas 0 22 455 366 crossfade 0;
#X obj 98 47 inlet~ sig1;
#X obj 209 48 inlet~ sig2;
#X obj 94 274 outlet~;
#X obj 95 212 *~;
#X obj 211 206 *~;
#X obj 265 135 sig~ 1;
#X obj 264 166 -~;
#X obj 307 97 line~;
#X msg 308 76 \$1 30;
#X obj 115 154 init 1;
#X obj 306 52 inlet control;
#X connect 0 0 3 0;
#X connect 1 0 4 0;
#X connect 3 0 2 0;
#X connect 4 0 2 0;
#X connect 5 0 6 0;
#X connect 6 0 4 1;
#X connect 7 0 6 1;
#X connect 7 0 3 1;
#X connect 8 0 7 0;
#X connect 9 0 3 1;
#X connect 10 0 8 0;
#X restore 816 638 pd crossfade;
#X obj 885 595 r fade;
#N canvas 0 22 426 214 adsr_normal 0;
#X obj 63 52 r attack;
#X obj 137 53 r decay;
#X obj 208 52 r sustain;
#X obj 291 53 r release;
#X obj 64 94 * 3000;
#X obj 137 93 * 3000;
#X obj 210 91 * 100;
#X obj 290 90 * 3000;
#X obj 65 143 s nattack;
#X obj 136 145 s ndecay;
#X obj 205 143 s nsustain;
#X obj 290 143 s nrelease;
#X connect 0 0 4 0;
#X connect 1 0 5 0;
#X connect 2 0 6 0;
#X connect 3 0 7 0;
#X connect 4 0 8 0;
#X connect 5 0 9 0;
#X connect 6 0 10 0;
#X connect 7 0 11 0;
#X restore 1011 180 pd adsr_normal;
#X obj 219 231 r nattack;
#X obj 246 255 r ndecay;
#X obj 271 277 r nsustain;
#X obj 297 303 r nrelease;
#X obj 562 315 r nattack;
#X obj 589 339 r ndecay;
#X obj 614 361 r nsustain;
#X obj 640 387 r nrelease;
#X obj 816 364 r nattack;
#X obj 858 383 r nsustain;
#X obj 895 404 r nrelease;
#X obj 832 406 r ndecay;
#X obj 1063 289 r nattack;
#X obj 1090 313 r ndecay;
#X obj 1115 335 r nsustain;
#X obj 1141 361 r nrelease;
#X obj 506 441 lop~ 5;
#X obj 163 357 lop~ 5;
#X obj 1007 415 lop~ 5;
#X obj 785 483 lop~ 5;
#X obj 692 141 sig~;
#X obj 781 168 +~;
#X obj 829 126 osc~ 8;
#X obj 829 155 *~;
#X obj 329 87 sig~;
#X obj 192 173 +~;
#X obj 123 103 osc~ 8;
#X obj 105 131 *~;
#X obj 898 113 r vibedepth;
#X obj 47 76 r vibedepth;
#X obj 46 102 * 15;
#X obj 897 139 * 15;
#X obj 126 39 r viberate;
#X obj 126 71 * 20;
#X obj 830 60 r viberate;
#X obj 830 92 * 20;
#X floatatom 607 114 5 0 0 0 - - -;
#X obj 256 131 *~;
#X obj 771 131 *~;
#N canvas 0 22 389 368 bender 0;
#X obj 164 71 bendin;
#X floatatom 165 96 5 0 0 0 - - -;
#X floatatom 163 176 5 0 0 0 - - -;
#X obj 164 121 * 1.46493e-05;
#X obj 163 147 + 0.88;
#X obj 162 206 s bend;
#X connect 0 0 1 0;
#X connect 1 0 3 0;
#X connect 2 0 5 0;
#X connect 3 0 4 0;
#X connect 4 0 2 0;
#X restore 1010 149 pd bender;
#X obj 786 95 r bend;
#X obj 257 96 r bend;
#X obj 394 181 tabosc4~ array1;
#X obj 747 206 tabosc4~ array1;
#N canvas 0 22 547 527 transfer 0;
#X obj 214 116 *~ 128;
#X obj 214 150 +~ 129;
#X obj 211 77 inlet~;
#X obj 221 423 hip~ 1;
#X obj 220 467 outlet~;
#X obj 282 115 r trn 1;
#X obj 284 175 r trn 2;
#X obj 288 238 r trn 3;
#X obj 217 384 tabread4~ array2;
#X msg 283 143 set array2;
#X msg 285 202 set array3;
#X msg 288 267 set array4;
#X obj 287 304 r trn 4;
#X msg 288 328 set array5;
#X connect 0 0 1 0;
#X connect 1 0 8 0;
#X connect 2 0 0 0;
#X connect 3 0 4 0;
#X connect 5 0 9 0;
#X connect 6 0 10 0;
#X connect 7 0 11 0;
#X connect 8 0 3 0;
#X connect 9 0 8 0;
#X connect 10 0 8 0;
#X connect 11 0 8 0;
#X connect 12 0 13 0;
#X connect 13 0 8 0;
#X restore 749 309 pd transfer;
#X obj 532 655 outlet~;
#X msg 383 132 223;
#X obj 473 69 +;
#X obj 685 82 +;
#X obj 490 13 r dt2;
#X obj 692 8 r dt2;
#X obj 61 397 r voice;
#X obj 62 449 > 1;
#X floatatom 61 421 5 0 0 0 - - -;
#X floatatom 62 485 5 0 0 0 - - -;
#X obj 61 521 tgl 15 0 empty empty empty 17 7 0 10 -262144 -1 -1 1
1;
#X obj 60 561 switch~;
#X obj 479 42 - 0.5;
#X obj 690 44 - 0.5;
#X obj 197 100 init 1;
#X obj 728 102 init 1;
#X connect 0 0 16 1;
#X connect 1 0 40 0;
#X connect 2 0 37 0;
#X connect 3 0 18 1;
#X connect 4 0 45 0;
#X connect 5 0 41 0;
#X connect 6 0 0 0;
#X connect 7 0 2 0;
#X connect 7 0 9 0;
#X connect 7 1 68 0;
#X connect 7 2 57 0;
#X connect 7 2 69 0;
#X connect 7 3 1 0;
#X connect 7 3 11 0;
#X connect 8 0 16 0;
#X connect 9 0 38 0;
#X connect 10 0 18 0;
#X connect 11 0 39 0;
#X connect 12 0 2 1;
#X connect 13 0 9 1;
#X connect 14 0 1 1;
#X connect 15 0 11 1;
#X connect 16 0 66 0;
#X connect 17 0 16 2;
#X connect 18 0 66 0;
#X connect 19 0 18 2;
#X connect 21 0 9 2;
#X connect 22 0 9 3;
#X connect 23 0 9 4;
#X connect 24 0 9 5;
#X connect 25 0 2 2;
#X connect 26 0 2 3;
#X connect 27 0 2 4;
#X connect 28 0 2 5;
#X connect 29 0 1 2;
#X connect 30 0 1 4;
#X connect 31 0 1 5;
#X connect 32 0 1 3;
#X connect 33 0 11 2;
#X connect 34 0 11 3;
#X connect 35 0 11 4;
#X connect 36 0 11 5;
#X connect 37 0 0 1;
#X connect 38 0 8 1;
#X connect 39 0 10 1;
#X connect 40 0 3 1;
#X connect 41 0 59 0;
#X connect 42 0 64 0;
#X connect 43 0 44 0;
#X connect 44 0 42 1;
#X connect 45 0 58 1;
#X connect 46 0 63 0;
#X connect 47 0 48 1;
#X connect 48 0 46 1;
#X connect 49 0 52 0;
#X connect 50 0 51 0;
#X connect 51 0 48 0;
#X connect 52 0 44 1;
#X connect 53 0 54 0;
#X connect 54 0 47 0;
#X connect 55 0 56 0;
#X connect 56 0 43 0;
#X connect 58 0 46 0;
#X connect 59 0 42 0;
#X connect 61 0 59 1;
#X connect 62 0 58 0;
#X connect 63 0 6 0;
#X connect 63 0 8 0;
#X connect 64 0 10 0;
#X connect 64 0 65 0;
#X connect 65 0 3 0;
#X connect 67 0 63 0;
#X connect 68 0 4 0;
#X connect 69 0 5 0;
#X connect 70 0 78 0;
#X connect 71 0 79 0;
#X connect 72 0 74 0;
#X connect 73 0 75 0;
#X connect 74 0 73 0;
#X connect 75 0 76 0;
#X connect 76 0 77 0;
#X connect 78 0 68 1;
#X connect 79 0 69 1;
#X connect 80 0 58 0;
#X connect 81 0 59 1;
#X restore 483 523 pd unison;
#X obj 486 562 throw~ sound;
#N canvas 0 22 1217 718 unison 0;
#X obj 398 455 *~;
#X obj 760 439 adsr 1 100 100 40 1000;
#X obj 511 415 adsr 1 100 100 40 1000;
#X obj 752 508 *~;
#X obj 417 63 mtof;
#X obj 684 106 mtof;
#N canvas 0 22 547 527 transfer 0;
#X obj 214 116 *~ 128;
#X obj 214 150 +~ 129;
#X obj 211 77 inlet~;
#X obj 221 423 hip~ 1;
#X obj 220 467 outlet~;
#X obj 282 115 r trn 1;
#X obj 284 175 r trn 2;
#X obj 288 238 r trn 3;
#X obj 217 384 tabread4~ array2;
#X msg 283 143 set array2;
#X msg 285 202 set array3;
#X msg 288 267 set array4;
#X obj 287 304 r trn 4;
#X msg 288 328 set array5;
#X connect 0 0 1 0;
#X connect 1 0 8 0;
#X connect 2 0 0 0;
#X connect 3 0 4 0;
#X connect 5 0 9 0;
#X connect 6 0 10 0;
#X connect 7 0 11 0;
#X connect 8 0 3 0;
#X connect 9 0 8 0;
#X connect 10 0 8 0;
#X connect 11 0 8 0;
#X connect 12 0 13 0;
#X connect 13 0 8 0;
#X restore 399 366 pd transfer;
#N canvas 0 22 550 415 midi 0;
#X obj 93 -13 pack f f f;
#X obj 94 24 route 1;
#X obj 93 62 unpack f f f;
#X obj 202 57 unpack f f f;
#X floatatom 95 102 5 0 0 0 - - -;
#X floatatom 135 101 5 0 0 0 - - -;
#X floatatom 177 101 5 0 0 0 - - -;
#X floatatom 218 99 5 0 0 0 - - -;
#X floatatom 260 100 5 0 0 0 - - -;
#X floatatom 305 109 5 0 0 0 - - -;
#X obj 103 -54 poly 2 1;
#X obj 109 -106 notein;
#X floatatom 181 -56 5 0 0 0 - - -;
#X obj 13 126 outlet note1;
#X obj 10 169 outlet vel1;
#X obj 213 132 outlet note2;
#X obj 355 78 outlet vel2;
#X obj 308 168 s v2;
#X obj 307 138 * 0.00787;
#X obj 131 169 s v1;
#X obj 132 140 * 0.00787;
#X connect 0 0 1 0;
#X connect 1 0 2 0;
#X connect 1 1 3 0;
#X connect 2 0 4 0;
#X connect 2 0 13 0;
#X connect 2 1 5 0;
#X connect 2 1 14 0;
#X connect 2 2 6 0;
#X connect 3 0 7 0;
#X connect 3 1 15 0;
#X connect 3 2 9 0;
#X connect 3 2 16 0;
#X connect 5 0 20 0;
#X connect 9 0 18 0;
#X connect 10 0 0 0;
#X connect 10 1 0 1;
#X connect 10 2 0 2;
#X connect 11 0 10 0;
#X connect 11 1 10 1;
#X connect 11 2 12 0;
#X connect 18 0 17 0;
#X connect 20 0 19 0;
#X restore 579 45 pd midi;
#X obj 214 419 *~;
#X obj 168 331 adsr 1 100 100 40 1000;
#X obj 972 444 *~;
#X obj 1012 389 adsr 1 100 100 40 1000;
#X obj 535 382 r v1;
#X obj 189 287 r v1;
#X obj 772 394 r v2;
#X obj 1020 340 r v2;
#N canvas 0 22 455 366 crossfade 0;
#X obj 98 47 inlet~ sig1;
#X obj 209 48 inlet~ sig2;
#X obj 94 274 outlet~;
#X obj 95 212 *~;
#X obj 211 206 *~;
#X obj 265 135 sig~ 1;
#X obj 264 166 -~;
#X obj 123 140 init 1;
#X msg 307 77 \$1 30;
#X obj 308 100 line~;
#X obj 306 52 inlet control;
#X connect 0 0 3 0;
#X connect 1 0 4 0;
#X connect 3 0 2 0;
#X connect 4 0 2 0;
#X connect 5 0 6 0;
#X connect 6 0 4 1;
#X connect 7 0 3 1;
#X connect 8 0 9 0;
#X connect 9 0 6 1;
#X connect 9 0 3 1;
#X connect 10 0 8 0;
#X restore 207 609 pd crossfade;
#X obj 313 562 r fade;
#N canvas 0 22 455 366 crossfade 0;
#X obj 98 47 inlet~ sig1;
#X obj 209 48 inlet~ sig2;
#X obj 94 274 outlet~;
#X obj 95 212 *~;
#X obj 211 206 *~;
#X obj 265 135 sig~ 1;
#X obj 264 166 -~;
#X obj 307 97 line~;
#X msg 308 76 \$1 30;
#X obj 115 154 init 1;
#X obj 306 52 inlet control;
#X connect 0 0 3 0;
#X connect 1 0 4 0;
#X connect 3 0 2 0;
#X connect 4 0 2 0;
#X connect 5 0 6 0;
#X connect 6 0 4 1;
#X connect 7 0 6 1;
#X connect 7 0 3 1;
#X connect 8 0 7 0;
#X connect 9 0 3 1;
#X connect 10 0 8 0;
#X restore 816 638 pd crossfade;
#X obj 885 595 r fade;
#N canvas 0 22 426 214 adsr_normal 0;
#X obj 63 52 r attack;
#X obj 137 53 r decay;
#X obj 208 52 r sustain;
#X obj 291 53 r release;
#X obj 64 94 * 3000;
#X obj 137 93 * 3000;
#X obj 210 91 * 100;
#X obj 290 90 * 3000;
#X obj 65 143 s nattack;
#X obj 136 145 s ndecay;
#X obj 205 143 s nsustain;
#X obj 290 143 s nrelease;
#X connect 0 0 4 0;
#X connect 1 0 5 0;
#X connect 2 0 6 0;
#X connect 3 0 7 0;
#X connect 4 0 8 0;
#X connect 5 0 9 0;
#X connect 6 0 10 0;
#X connect 7 0 11 0;
#X restore 1011 180 pd adsr_normal;
#X obj 219 231 r nattack;
#X obj 246 255 r ndecay;
#X obj 271 277 r nsustain;
#X obj 297 303 r nrelease;
#X obj 562 315 r nattack;
#X obj 589 339 r ndecay;
#X obj 614 361 r nsustain;
#X obj 640 387 r nrelease;
#X obj 816 364 r nattack;
#X obj 858 383 r nsustain;
#X obj 895 404 r nrelease;
#X obj 832 406 r ndecay;
#X obj 1063 289 r nattack;
#X obj 1090 313 r ndecay;
#X obj 1115 335 r nsustain;
#X obj 1141 361 r nrelease;
#X obj 506 441 lop~ 5;
#X obj 163 357 lop~ 5;
#X obj 1007 415 lop~ 5;
#X obj 785 483 lop~ 5;
#X obj 684 129 sig~;
#X obj 781 168 +~;
#X obj 829 126 osc~ 8;
#X obj 829 155 *~;
#X obj 329 87 sig~;
#X obj 192 173 +~;
#X obj 123 103 osc~ 8;
#X obj 105 131 *~;
#X obj 898 113 r vibedepth;
#X obj 47 76 r vibedepth;
#X obj 46 102 * 15;
#X obj 897 139 * 15;
#X obj 126 39 r viberate;
#X obj 126 71 * 20;
#X obj 830 60 r viberate;
#X obj 830 92 * 20;
#X floatatom 607 114 5 0 0 0 - - -;
#X obj 256 131 *~;
#X obj 700 154 *~;
#N canvas 0 22 389 368 bender 0;
#X obj 164 71 bendin;
#X floatatom 165 96 5 0 0 0 - - -;
#X floatatom 163 176 5 0 0 0 - - -;
#X obj 164 121 * 1.46493e-05;
#X obj 163 147 + 0.88;
#X obj 162 206 s bend;
#X connect 0 0 1 0;
#X connect 1 0 3 0;
#X connect 2 0 5 0;
#X connect 3 0 4 0;
#X connect 4 0 2 0;
#X restore 1010 149 pd bender;
#X obj 715 118 r bend;
#X obj 257 96 r bend;
#X obj 394 181 tabosc4~ array1;
#X obj 747 206 tabosc4~ array1;
#N canvas 0 22 547 527 transfer 0;
#X obj 214 116 *~ 128;
#X obj 214 150 +~ 129;
#X obj 211 77 inlet~;
#X obj 221 423 hip~ 1;
#X obj 220 467 outlet~;
#X obj 282 115 r trn 1;
#X obj 284 175 r trn 2;
#X obj 288 238 r trn 3;
#X obj 217 384 tabread4~ array2;
#X msg 283 143 set array2;
#X msg 285 202 set array3;
#X msg 288 267 set array4;
#X obj 287 304 r trn 4;
#X msg 288 328 set array5;
#X connect 0 0 1 0;
#X connect 1 0 8 0;
#X connect 2 0 0 0;
#X connect 3 0 4 0;
#X connect 5 0 9 0;
#X connect 6 0 10 0;
#X connect 7 0 11 0;
#X connect 8 0 3 0;
#X connect 9 0 8 0;
#X connect 10 0 8 0;
#X connect 11 0 8 0;
#X connect 12 0 13 0;
#X connect 13 0 8 0;
#X restore 749 309 pd transfer;
#X obj 532 655 outlet~;
#X msg 383 132 223;
#X obj 473 69 +;
#X obj 685 82 +;
#X obj 490 13 r dt3;
#X obj 692 8 r dt3;
#X obj 82 420 r voice;
#X obj 89 467 > 2;
#X obj 90 506 tgl 15 0 empty empty empty 17 7 0 10 -262144 -1 -1 1
1;
#X obj 90 544 switch~;
#X obj 481 42 - 0.5;
#X obj 688 44 - 0.5;
#X obj 196 99 init 1;
#X obj 760 118 init 1;
#X connect 0 0 16 1;
#X connect 1 0 40 0;
#X connect 2 0 37 0;
#X connect 3 0 18 1;
#X connect 4 0 45 0;
#X connect 5 0 41 0;
#X connect 6 0 0 0;
#X connect 7 0 2 0;
#X connect 7 0 9 0;
#X connect 7 1 68 0;
#X connect 7 2 57 0;
#X connect 7 2 69 0;
#X connect 7 3 1 0;
#X connect 7 3 11 0;
#X connect 8 0 16 0;
#X connect 9 0 38 0;
#X connect 10 0 18 0;
#X connect 11 0 39 0;
#X connect 12 0 2 1;
#X connect 13 0 9 1;
#X connect 14 0 1 1;
#X connect 15 0 11 1;
#X connect 16 0 66 0;
#X connect 17 0 16 2;
#X connect 18 0 66 0;
#X connect 19 0 18 2;
#X connect 21 0 9 2;
#X connect 22 0 9 3;
#X connect 23 0 9 4;
#X connect 24 0 9 5;
#X connect 25 0 2 2;
#X connect 26 0 2 3;
#X connect 27 0 2 4;
#X connect 28 0 2 5;
#X connect 29 0 1 2;
#X connect 30 0 1 4;
#X connect 31 0 1 5;
#X connect 32 0 1 3;
#X connect 33 0 11 2;
#X connect 34 0 11 3;
#X connect 35 0 11 4;
#X connect 36 0 11 5;
#X connect 37 0 0 1;
#X connect 38 0 8 1;
#X connect 39 0 10 1;
#X connect 40 0 3 1;
#X connect 41 0 59 0;
#X connect 42 0 64 0;
#X connect 43 0 44 0;
#X connect 44 0 42 1;
#X connect 45 0 58 1;
#X connect 46 0 63 0;
#X connect 47 0 48 1;
#X connect 48 0 46 1;
#X connect 49 0 52 0;
#X connect 50 0 51 0;
#X connect 51 0 48 0;
#X connect 52 0 44 1;
#X connect 53 0 54 0;
#X connect 54 0 47 0;
#X connect 55 0 56 0;
#X connect 56 0 43 0;
#X connect 58 0 46 0;
#X connect 59 0 42 0;
#X connect 61 0 59 1;
#X connect 62 0 58 0;
#X connect 63 0 6 0;
#X connect 63 0 8 0;
#X connect 64 0 10 0;
#X connect 64 0 65 0;
#X connect 65 0 3 0;
#X connect 67 0 63 0;
#X connect 68 0 4 0;
#X connect 69 0 5 0;
#X connect 70 0 76 0;
#X connect 71 0 77 0;
#X connect 72 0 73 0;
#X connect 73 0 74 0;
#X connect 74 0 75 0;
#X connect 76 0 68 1;
#X connect 77 0 69 1;
#X connect 78 0 58 0;
#X connect 79 0 59 1;
#X restore 566 521 pd unison;
#X obj 569 560 throw~ sound;
#N canvas 0 22 1217 718 unison 0;
#X obj 398 455 *~;
#X obj 760 439 adsr 1 100 100 40 1000;
#X obj 511 415 adsr 1 100 100 40 1000;
#X obj 752 508 *~;
#X obj 417 63 mtof;
#X obj 686 105 mtof;
#N canvas 0 22 547 527 transfer 0;
#X obj 214 116 *~ 128;
#X obj 214 150 +~ 129;
#X obj 211 77 inlet~;
#X obj 221 423 hip~ 1;
#X obj 220 467 outlet~;
#X obj 282 115 r trn 1;
#X obj 284 175 r trn 2;
#X obj 288 238 r trn 3;
#X obj 217 384 tabread4~ array2;
#X msg 283 143 set array2;
#X msg 285 202 set array3;
#X msg 288 267 set array4;
#X obj 287 304 r trn 4;
#X msg 288 328 set array5;
#X connect 0 0 1 0;
#X connect 1 0 8 0;
#X connect 2 0 0 0;
#X connect 3 0 4 0;
#X connect 5 0 9 0;
#X connect 6 0 10 0;
#X connect 7 0 11 0;
#X connect 8 0 3 0;
#X connect 9 0 8 0;
#X connect 10 0 8 0;
#X connect 11 0 8 0;
#X connect 12 0 13 0;
#X connect 13 0 8 0;
#X restore 399 366 pd transfer;
#N canvas 0 22 550 415 midi 0;
#X obj 93 -13 pack f f f;
#X obj 94 24 route 1;
#X obj 93 62 unpack f f f;
#X obj 202 57 unpack f f f;
#X floatatom 95 102 5 0 0 0 - - -;
#X floatatom 135 101 5 0 0 0 - - -;
#X floatatom 177 101 5 0 0 0 - - -;
#X floatatom 218 99 5 0 0 0 - - -;
#X floatatom 260 100 5 0 0 0 - - -;
#X floatatom 305 109 5 0 0 0 - - -;
#X obj 103 -54 poly 2 1;
#X obj 109 -106 notein;
#X floatatom 181 -56 5 0 0 0 - - -;
#X obj 13 126 outlet note1;
#X obj 10 169 outlet vel1;
#X obj 213 132 outlet note2;
#X obj 355 78 outlet vel2;
#X obj 308 168 s v2;
#X obj 307 138 * 0.00787;
#X obj 131 169 s v1;
#X obj 132 140 * 0.00787;
#X connect 0 0 1 0;
#X connect 1 0 2 0;
#X connect 1 1 3 0;
#X connect 2 0 4 0;
#X connect 2 0 13 0;
#X connect 2 1 5 0;
#X connect 2 1 14 0;
#X connect 2 2 6 0;
#X connect 3 0 7 0;
#X connect 3 1 15 0;
#X connect 3 2 9 0;
#X connect 3 2 16 0;
#X connect 5 0 20 0;
#X connect 9 0 18 0;
#X connect 10 0 0 0;
#X connect 10 1 0 1;
#X connect 10 2 0 2;
#X connect 11 0 10 0;
#X connect 11 1 10 1;
#X connect 11 2 12 0;
#X connect 18 0 17 0;
#X connect 20 0 19 0;
#X restore 579 45 pd midi;
#X obj 214 419 *~;
#X obj 168 331 adsr 1 100 100 40 1000;
#X obj 972 444 *~;
#X obj 1012 389 adsr 1 100 100 40 1000;
#X obj 535 382 r v1;
#X obj 189 287 r v1;
#X obj 772 394 r v2;
#X obj 1020 340 r v2;
#N canvas 0 22 455 366 crossfade 0;
#X obj 98 47 inlet~ sig1;
#X obj 209 48 inlet~ sig2;
#X obj 94 274 outlet~;
#X obj 95 212 *~;
#X obj 211 206 *~;
#X obj 265 135 sig~ 1;
#X obj 264 166 -~;
#X obj 123 140 init 1;
#X msg 307 77 \$1 30;
#X obj 308 100 line~;
#X obj 306 52 inlet control;
#X connect 0 0 3 0;
#X connect 1 0 4 0;
#X connect 3 0 2 0;
#X connect 4 0 2 0;
#X connect 5 0 6 0;
#X connect 6 0 4 1;
#X connect 7 0 3 1;
#X connect 8 0 9 0;
#X connect 9 0 6 1;
#X connect 9 0 3 1;
#X connect 10 0 8 0;
#X restore 207 609 pd crossfade;
#X obj 313 562 r fade;
#N canvas 0 22 455 366 crossfade 0;
#X obj 98 47 inlet~ sig1;
#X obj 209 48 inlet~ sig2;
#X obj 94 274 outlet~;
#X obj 95 212 *~;
#X obj 211 206 *~;
#X obj 265 135 sig~ 1;
#X obj 264 166 -~;
#X obj 307 97 line~;
#X msg 308 76 \$1 30;
#X obj 115 154 init 1;
#X obj 306 52 inlet control;
#X connect 0 0 3 0;
#X connect 1 0 4 0;
#X connect 3 0 2 0;
#X connect 4 0 2 0;
#X connect 5 0 6 0;
#X connect 6 0 4 1;
#X connect 7 0 6 1;
#X connect 7 0 3 1;
#X connect 8 0 7 0;
#X connect 9 0 3 1;
#X connect 10 0 8 0;
#X restore 816 638 pd crossfade;
#X obj 885 595 r fade;
#N canvas 0 22 426 214 adsr_normal 0;
#X obj 63 52 r attack;
#X obj 137 53 r decay;
#X obj 208 52 r sustain;
#X obj 291 53 r release;
#X obj 64 94 * 3000;
#X obj 137 93 * 3000;
#X obj 210 91 * 100;
#X obj 290 90 * 3000;
#X obj 65 143 s nattack;
#X obj 136 145 s ndecay;
#X obj 205 143 s nsustain;
#X obj 290 143 s nrelease;
#X connect 0 0 4 0;
#X connect 1 0 5 0;
#X connect 2 0 6 0;
#X connect 3 0 7 0;
#X connect 4 0 8 0;
#X connect 5 0 9 0;
#X connect 6 0 10 0;
#X connect 7 0 11 0;
#X restore 1011 180 pd adsr_normal;
#X obj 219 231 r nattack;
#X obj 246 255 r ndecay;
#X obj 271 277 r nsustain;
#X obj 297 303 r nrelease;
#X obj 562 315 r nattack;
#X obj 589 339 r ndecay;
#X obj 614 361 r nsustain;
#X obj 640 387 r nrelease;
#X obj 816 364 r nattack;
#X obj 858 383 r nsustain;
#X obj 895 404 r nrelease;
#X obj 832 406 r ndecay;
#X obj 1063 289 r nattack;
#X obj 1090 313 r ndecay;
#X obj 1115 335 r nsustain;
#X obj 1141 361 r nrelease;
#X obj 506 441 lop~ 5;
#X obj 163 357 lop~ 5;
#X obj 1007 415 lop~ 5;
#X obj 785 483 lop~ 5;
#X obj 686 128 sig~;
#X obj 781 168 +~;
#X obj 829 126 osc~ 8;
#X obj 829 155 *~;
#X obj 329 87 sig~;
#X obj 192 173 +~;
#X obj 123 103 osc~ 8;
#X obj 105 131 *~;
#X obj 898 113 r vibedepth;
#X obj 47 76 r vibedepth;
#X obj 46 102 * 15;
#X obj 897 139 * 15;
#X obj 126 39 r viberate;
#X obj 126 71 * 20;
#X obj 830 60 r viberate;
#X obj 830 92 * 20;
#X floatatom 607 114 5 0 0 0 - - -;
#X obj 256 131 *~;
#X obj 702 153 *~;
#N canvas 0 22 389 368 bender 0;
#X obj 164 71 bendin;
#X floatatom 165 96 5 0 0 0 - - -;
#X floatatom 163 176 5 0 0 0 - - -;
#X obj 164 121 * 1.46493e-05;
#X obj 163 147 + 0.88;
#X obj 162 206 s bend;
#X connect 0 0 1 0;
#X connect 1 0 3 0;
#X connect 2 0 5 0;
#X connect 3 0 4 0;
#X connect 4 0 2 0;
#X restore 1010 149 pd bender;
#X obj 718 94 r bend;
#X obj 257 96 r bend;
#X obj 394 181 tabosc4~ array1;
#X obj 747 206 tabosc4~ array1;
#N canvas 0 22 547 527 transfer 0;
#X obj 214 116 *~ 128;
#X obj 214 150 +~ 129;
#X obj 211 77 inlet~;
#X obj 221 423 hip~ 1;
#X obj 220 467 outlet~;
#X obj 282 115 r trn 1;
#X obj 284 175 r trn 2;
#X obj 288 238 r trn 3;
#X obj 217 384 tabread4~ array2;
#X msg 283 143 set array2;
#X msg 285 202 set array3;
#X msg 288 267 set array4;
#X obj 287 304 r trn 4;
#X msg 288 328 set array5;
#X connect 0 0 1 0;
#X connect 1 0 8 0;
#X connect 2 0 0 0;
#X connect 3 0 4 0;
#X connect 5 0 9 0;
#X connect 6 0 10 0;
#X connect 7 0 11 0;
#X connect 8 0 3 0;
#X connect 9 0 8 0;
#X connect 10 0 8 0;
#X connect 11 0 8 0;
#X connect 12 0 13 0;
#X connect 13 0 8 0;
#X restore 749 309 pd transfer;
#X obj 532 655 outlet~;
#X msg 383 132 223;
#X obj 473 69 +;
#X obj 685 82 +;
#X obj 82 420 r voice;
#X obj 90 506 tgl 15 0 empty empty empty 17 7 0 10 -262144 -1 -1 1
1;
#X obj 90 544 switch~;
#X obj 490 13 r dt4;
#X obj 692 8 r dt4;
#X obj 89 467 > 3;
#X obj 483 40 - 0.5;
#X obj 685 41 - 0.5;
#X obj 188 97 init 1;
#X obj 730 129 init 1;
#X connect 0 0 16 1;
#X connect 1 0 40 0;
#X connect 2 0 37 0;
#X connect 3 0 18 1;
#X connect 4 0 45 0;
#X connect 5 0 41 0;
#X connect 6 0 0 0;
#X connect 7 0 2 0;
#X connect 7 0 9 0;
#X connect 7 1 68 0;
#X connect 7 2 57 0;
#X connect 7 2 69 0;
#X connect 7 3 1 0;
#X connect 7 3 11 0;
#X connect 8 0 16 0;
#X connect 9 0 38 0;
#X connect 10 0 18 0;
#X connect 11 0 39 0;
#X connect 12 0 2 1;
#X connect 13 0 9 1;
#X connect 14 0 1 1;
#X connect 15 0 11 1;
#X connect 16 0 66 0;
#X connect 17 0 16 2;
#X connect 18 0 66 0;
#X connect 19 0 18 2;
#X connect 21 0 9 2;
#X connect 22 0 9 3;
#X connect 23 0 9 4;
#X connect 24 0 9 5;
#X connect 25 0 2 2;
#X connect 26 0 2 3;
#X connect 27 0 2 4;
#X connect 28 0 2 5;
#X connect 29 0 1 2;
#X connect 30 0 1 4;
#X connect 31 0 1 5;
#X connect 32 0 1 3;
#X connect 33 0 11 2;
#X connect 34 0 11 3;
#X connect 35 0 11 4;
#X connect 36 0 11 5;
#X connect 37 0 0 1;
#X connect 38 0 8 1;
#X connect 39 0 10 1;
#X connect 40 0 3 1;
#X connect 41 0 59 0;
#X connect 42 0 64 0;
#X connect 43 0 44 0;
#X connect 44 0 42 1;
#X connect 45 0 58 1;
#X connect 46 0 63 0;
#X connect 47 0 48 1;
#X connect 48 0 46 1;
#X connect 49 0 52 0;
#X connect 50 0 51 0;
#X connect 51 0 48 0;
#X connect 52 0 44 1;
#X connect 53 0 54 0;
#X connect 54 0 47 0;
#X connect 55 0 56 0;
#X connect 56 0 43 0;
#X connect 58 0 46 0;
#X connect 59 0 42 0;
#X connect 61 0 59 1;
#X connect 62 0 58 0;
#X connect 63 0 6 0;
#X connect 63 0 8 0;
#X connect 64 0 10 0;
#X connect 64 0 65 0;
#X connect 65 0 3 0;
#X connect 67 0 63 0;
#X connect 68 0 4 0;
#X connect 69 0 5 0;
#X connect 70 0 75 0;
#X connect 71 0 72 0;
#X connect 73 0 76 0;
#X connect 74 0 77 0;
#X connect 75 0 71 0;
#X connect 76 0 68 1;
#X connect 77 0 69 1;
#X connect 78 0 58 0;
#X connect 79 0 59 1;
#X restore 651 519 pd unison;
#X obj 654 558 throw~ sound;
#X obj 282 54 init 1;
#X obj 762 64 init 1;
#X connect 0 0 16 1;
#X connect 1 0 42 0;
#X connect 2 0 39 0;
#X connect 3 0 19 1;
#X connect 4 0 47 0;
#X connect 5 0 43 0;
#X connect 6 0 0 0;
#X connect 7 0 2 0;
#X connect 7 0 9 0;
#X connect 7 1 4 0;
#X connect 7 2 59 0;
#X connect 7 2 5 0;
#X connect 7 3 1 0;
#X connect 7 3 11 0;
#X connect 8 0 16 0;
#X connect 9 0 40 0;
#X connect 10 0 19 0;
#X connect 11 0 41 0;
#X connect 12 0 2 1;
#X connect 13 0 9 1;
#X connect 14 0 1 1;
#X connect 15 0 11 1;
#X connect 16 0 17 0;
#X connect 18 0 16 2;
#X connect 19 0 21 0;
#X connect 20 0 19 2;
#X connect 23 0 9 2;
#X connect 24 0 9 3;
#X connect 25 0 9 4;
#X connect 26 0 9 5;
#X connect 27 0 2 2;
#X connect 28 0 2 3;
#X connect 29 0 2 4;
#X connect 30 0 2 5;
#X connect 31 0 1 2;
#X connect 32 0 1 4;
#X connect 33 0 1 5;
#X connect 34 0 1 3;
#X connect 35 0 11 2;
#X connect 36 0 11 3;
#X connect 37 0 11 4;
#X connect 38 0 11 5;
#X connect 39 0 0 1;
#X connect 40 0 8 1;
#X connect 41 0 10 1;
#X connect 42 0 3 1;
#X connect 43 0 61 0;
#X connect 44 0 66 0;
#X connect 45 0 46 0;
#X connect 46 0 44 1;
#X connect 47 0 60 1;
#X connect 48 0 65 0;
#X connect 49 0 50 1;
#X connect 50 0 48 1;
#X connect 51 0 54 0;
#X connect 52 0 53 0;
#X connect 53 0 50 0;
#X connect 54 0 46 1;
#X connect 55 0 56 0;
#X connect 56 0 49 0;
#X connect 57 0 58 0;
#X connect 58 0 45 0;
#X connect 60 0 48 0;
#X connect 61 0 44 0;
#X connect 63 0 61 1;
#X connect 64 0 60 0;
#X connect 65 0 6 0;
#X connect 65 0 8 0;
#X connect 66 0 10 0;
#X connect 66 0 67 0;
#X connect 67 0 3 0;
#X connect 68 0 69 0;
#X connect 70 0 71 0;
#X connect 72 0 73 0;
#X connect 74 0 75 0;
#X connect 76 0 60 0;
#X connect 77 0 61 1;
#X restore 816 209 pd polysynth;
#X obj 118 190 catch~ sound;
#N canvas 0 22 1276 752 cheby 0;
#N canvas 0 22 450 300 (subpatch) 0;
#X array array2 258 float 3;
#A 0 1.29428 1 0.731356 0.487085 0.265966 0.0668144 -0.111528 -0.270176
-0.410202 -0.532652 -0.638542 -0.728844 -0.804502 -0.866436 -0.915518
-0.952603 -0.978506 -0.994019 -0.999902 -0.996889 -0.985682 -0.966955
-0.941362 -0.909525 -0.87204 -0.829481 -0.782396 -0.731311 -0.676722
-0.619108 -0.558926 -0.496607 -0.432564 -0.367188 -0.300848 -0.233896
-0.166664 -0.0994625 -0.0325871 0.0336857 0.0990982 0.163408 0.22639
0.287834 0.347547 0.405349 0.461077 0.51458 0.565722 0.61438 0.660444
0.703817 0.744413 0.782158 0.816989 0.848855 0.877715 0.903536 0.926298
0.945987 0.962602 0.976146 0.986633 0.994084 0.998528 1 0.998543 0.994206
0.987043 0.977117 0.964492 0.94924 0.931437 0.911165 0.888508 0.863555
0.836398 0.807134 0.775862 0.742682 0.707699 0.671021 0.632754 0.59301
0.5519 0.509538 0.466037 0.421512 0.376078 0.329851 0.282947 0.235482
0.18757 0.139328 0.0908676 0.0423039 -0.00625139 -0.0546875 -0.102895
-0.150766 -0.198194 -0.245075 -0.291307 -0.33679 -0.381427 -0.425123
-0.467786 -0.509325 -0.549655 -0.588691 -0.626354 -0.662567 -0.697254
-0.730347 -0.761777 -0.791483 -0.819403 -0.845483 -0.869671 -0.891918
-0.91218 -0.930418 -0.946595 -0.960681 -0.972646 -0.982468 -0.990127
-0.995608 -0.998902 -1 -0.998902 -0.995608 -0.990127 -0.982468 -0.972646
-0.960681 -0.946595 -0.930418 -0.91218 -0.891918 -0.869671 -0.845483
-0.819403 -0.791483 -0.761777 -0.730347 -0.697254 -0.662567 -0.626354
-0.588691 -0.549655 -0.509325 -0.467786 -0.425123 -0.381427 -0.33679
-0.291307 -0.245075 -0.198194 -0.150766 -0.102895 -0.0546875 -0.00625139
0.0423039 0.0908676 0.139328 0.18757 0.235482 0.282947 0.329851 0.376078
0.421512 0.466037 0.509538 0.5519 0.59301 0.632754 0.671021 0.707699
0.742682 0.775862 0.807134 0.836398 0.863555 0.888508 0.911165 0.931437
0.94924 0.964492 0.977117 0.987043 0.994206 0.998543 1 0.998528 0.994084
0.986633 0.976146 0.962602 0.945987 0.926298 0.903536 0.877715 0.848855
0.816989 0.782158 0.744413 0.703817 0.660444 0.61438 0.565722 0.51458
0.461077 0.405349 0.347547 0.287834 0.22639 0.163408 0.0990982 0.0336857
-0.0325871 -0.0994625 -0.166664 -0.233896 -0.300848 -0.367188 -0.432564
-0.496607 -0.558926 -0.619108 -0.676722 -0.731311 -0.782396 -0.829481
-0.87204 -0.909525 -0.941362 -0.966955 -0.985682 -0.996889 -0.999902
-0.994019 -0.978506 -0.952603 -0.915518 -0.866436 -0.804502 -0.728844
-0.638542 -0.532652 -0.410202 -0.270176 -0.111528 0.0668144 0.265966
0.487085 0.731356 1;
#X coords 0 1 258 -1 200 140 1;
#X restore 202 -72 graph;
#X obj 56 -186 loadbang;
#X obj 60 -97 until;
#X msg 60 -131 258;
#X msg 126 -118 0;
#X obj 59 -46 f;
#X obj 109 -47 + 1;
#X obj 60 -161 t b b;
#X obj 59 37 expr ($f1 - 129)/ 128;
#X obj 59 75 expr 32*$f1*$f1*$f1*$f1*$f1*$f1 - 48*$f1*$f1*$f1*$f1 +
18*$f1*$f1 - 1;
#X obj 57 -5 t f f;
#X obj 9 -213 bng 15 250 50 0 empty empty empty 17 7 0 10 -262144 -1
-1;
#N canvas 0 22 450 300 (subpatch) 0;
#X array array3 258 float 3;
#A 0 -1.20148 -1 -0.810724 -0.63326 -0.467216 -0.31221 -0.167866 -0.0338144
0.0903053 0.204849 0.310166 0.406597 0.494477 0.574137 0.645895 0.71007
0.766969 0.816895 0.860145 0.897008 0.927771 0.952708 0.972093 0.98619
0.995261 0.999557 0.999329 0.994816 0.986257 0.97388 0.957912 0.938572
0.916074 0.890625 0.86243 0.831684 0.798582 0.76331 0.726049 0.686977
0.646266 0.60408 0.560583 0.515931 0.470276 0.423765 0.37654 0.328738
0.280493 0.231934 0.183183 0.13436 0.0855808 0.0369554 -0.01141 -0.0594134
-0.106956 -0.153946 -0.200292 -0.245909 -0.290715 -0.334633 -0.377589
-0.419512 -0.460337 -0.5 -0.538443 -0.57561 -0.611449 -0.645912 -0.678953
-0.710532 -0.740609 -0.76915 -0.796122 -0.821497 -0.845248 -0.867354
-0.887794 -0.906551 -0.923612 -0.938965 -0.952601 -0.964516 -0.974704
-0.983167 -0.989906 -0.994925 -0.99823 -0.999832 -0.999741 -0.997972
-0.994539 -0.98946 -0.982757 -0.97445 -0.964564 -0.953125 -0.94016
-0.925699 -0.909772 -0.892414 -0.873658 -0.85354 -0.832098 -0.809372
-0.785401 -0.760228 -0.733895 -0.706446 -0.677928 -0.648387 -0.61787
-0.586426 -0.554105 -0.520957 -0.487033 -0.452386 -0.417069 -0.381135
-0.344638 -0.307632 -0.270174 -0.232319 -0.194122 -0.15564 -0.11693
-0.0780487 -0.039053 0 0.039053 0.0780487 0.11693 0.15564 0.194122
0.232319 0.270174 0.307632 0.344638 0.381135 0.417069 0.452386 0.487033
0.520957 0.554105 0.586426 0.61787 0.648387 0.677928 0.706446 0.733895
0.760228 0.785401 0.809372 0.832098 0.85354 0.873658 0.892414 0.909772
0.925699 0.94016 0.953125 0.964564 0.97445 0.982757 0.98946 0.994539
0.997972 0.999741 0.999832 0.99823 0.994925 0.989906 0.983167 0.974704
0.964516 0.952601 0.938965 0.923612 0.906551 0.887794 0.867354 0.845248
0.821497 0.796122 0.76915 0.740609 0.710532 0.678953 0.645912 0.611449
0.57561 0.538443 0.5 0.460337 0.419512 0.377589 0.334633 0.290715 0.245909
0.200292 0.153946 0.106956 0.0594134 0.01141 -0.0369554 -0.0855808
-0.13436 -0.183183 -0.231934 -0.280493 -0.328738 -0.37654 -0.423765
-0.470276 -0.515931 -0.560583 -0.60408 -0.646266 -0.686977 -0.726049
-0.76331 -0.798582 -0.831684 -0.86243 -0.890625 -0.916074 -0.938572
-0.957912 -0.97388 -0.986257 -0.994816 -0.999329 -0.999557 -0.995261
-0.98619 -0.972093 -0.952708 -0.927771 -0.897008 -0.860145 -0.816895
-0.766969 -0.71007 -0.645895 -0.574137 -0.494477 -0.406597 -0.310166
-0.204849 -0.0903053 0.0338144 0.167866 0.31221 0.467216 0.63326 0.810724
1;
#X coords 0 1 258 -1 200 140 1;
#X restore 204 -254 graph;
#X obj 413 49 expr 16*$f1*$f1*$f1*$f1*$f1 - 20*$f1*$f1*$f1 + 5*$f1
;
#X obj 413 -237 loadbang;
#X obj 417 -148 until;
#X msg 417 -182 258;
#X msg 472 -188 0;
#X obj 416 -97 f;
#X obj 466 -98 + 1;
#X obj 417 -212 t b b;
#X obj 416 -14 expr ($f1 - 129)/ 128;
#X obj 414 -56 t f f;
#X obj 417 -260 bng 15 250 50 0 empty empty empty 17 7 0 10 -262144
-1 -1;
#N canvas 0 22 450 300 (subpatch) 0;
#X array array4 258 float 3;
#A 0 -1.40731 -1 -0.64056 -0.325695 -0.0522499 0.182758 0.382206 0.548836
0.685226 0.793873 0.877121 0.93721 0.976257 0.996281 0.999172 0.986755
0.960709 0.922638 0.87406 0.816393 0.750969 0.679031 0.601746 0.520208
0.435432 0.348351 0.259842 0.170708 0.0816917 -0.00652313 -0.0933228
-0.178143 -0.260469 -0.339844 -0.415859 -0.48815 -0.556397 -0.620333
-0.679714 -0.734348 -0.784075 -0.828767 -0.868332 -0.902708 -0.931862
-0.955785 -0.974498 -0.988042 -0.996485 -0.999908 -0.998419 -0.992137
-0.981203 -0.965768 -0.945999 -0.922075 -0.894187 -0.862532 -0.827319
-0.788765 -0.74709 -0.702521 -0.655293 -0.605637 -0.553793 -0.5 -0.444498
-0.387527 -0.329327 -0.270135 -0.210187 -0.149717 -0.0889523 -0.0281198
0.0325603 0.0928721 0.152606 0.211557 0.269529 0.326331 0.38178 0.435699
0.487923 0.53829 0.586649 0.63286 0.676787 0.718308 0.757306 0.793675
0.82732 0.858154 0.8861 0.911089 0.933064 0.951976 0.967788 0.980469
0.99 0.99637 0.999579 0.999634 0.996553 0.990361 0.981093 0.968793
0.953512 0.935308 0.91425 0.890412 0.863877 0.834733 0.803078 0.769012
0.732646 0.694093 0.653474 0.610914 0.566544 0.520497 0.472913 0.423935
0.373708 0.322382 0.27011 0.217044 0.163342 0.109161 0.0546608 0 -0.0546608
-0.109161 -0.163342 -0.217044 -0.27011 -0.322382 -0.373708 -0.423935
-0.472913 -0.520497 -0.566544 -0.610914 -0.653474 -0.694093 -0.732646
-0.769012 -0.803078 -0.834733 -0.863877 -0.890412 -0.91425 -0.935308
-0.953512 -0.968793 -0.981093 -0.990361 -0.996553 -0.999634 -0.999579
-0.99637 -0.99 -0.980469 -0.967788 -0.951976 -0.933064 -0.911089 -0.8861
-0.858154 -0.82732 -0.793675 -0.757306 -0.718308 -0.676787 -0.63286
-0.586649 -0.53829 -0.487923 -0.435699 -0.38178 -0.326331 -0.269529
-0.211557 -0.152606 -0.0928721 -0.0325603 0.0281198 0.0889523 0.149717
0.210187 0.270135 0.329327 0.387527 0.444498 0.5 0.553793 0.605637
0.655293 0.702521 0.74709 0.788765 0.827319 0.862532 0.894187 0.922075
0.945999 0.965768 0.981203 0.992137 0.998419 0.999908 0.996485 0.988042
0.974498 0.955785 0.931862 0.902708 0.868332 0.828767 0.784075 0.734348
0.679714 0.620333 0.556397 0.48815 0.415859 0.339844 0.260469 0.178143
0.0933228 0.00652313 -0.0816917 -0.170708 -0.259842 -0.348351 -0.435432
-0.520208 -0.601746 -0.679031 -0.750969 -0.816393 -0.87406 -0.922638
-0.960709 -0.986755 -0.999172 -0.996281 -0.976257 -0.93721 -0.877121
-0.793873 -0.685226 -0.548836 -0.382206 -0.182758 0.0522499 0.325695
0.64056 1;
#X coords 0 1 257 -1 200 140 1;
#X restore 200 128 graph;
#X obj 552 303 expr 64*$f1*$f1*$f1*$f1*$f1*$f1*$f1 - 112*$f1*$f1*$f1*$f1*$f1
+ 56*$f1*$f1*$f1 - 7*$f1;
#X obj 546 88 loadbang;
#X obj 550 177 until;
#X msg 550 143 258;
#X msg 605 137 0;
#X obj 547 206 f;
#X obj 597 205 + 1;
#X obj 550 113 t b b;
#X obj 548 274 expr ($f1 - 129)/ 128;
#X obj 546 232 t f f;
#X obj 525 148 bng 15 250 50 0 empty empty empty 17 7 0 10 -262144
-1 -1;
#N canvas 0 22 450 300 (subpatch) 0;
#X array array5 258 float 3;
#A 0 0 1.54233 1 0.539749 0.154121 -0.163918 -0.420914 -0.623039 -0.776031
-0.885307 -0.955856 -0.992348 -0.999138 -0.980209 -0.939316 -0.879883
-0.805046 -0.717735 -0.620598 -0.516052 -0.406288 -0.293308 -0.178905
-0.064682 0.0479279 0.157669 0.263412 0.36422 0.459244 0.547798 0.629303
0.703289 0.769386 0.827339 0.876953 0.918137 0.950863 0.975185 0.99119
0.999058 0.998989 0.991255 0.976147 0.953999 0.925177 0.890083 0.849119
0.802726 0.751351 0.695455 0.635506 0.571979 0.50535 0.436096 0.364692
0.291603 0.217295 0.142217 0.0668125 -0.00848961 -0.0832758 -0.157145
-0.229716 -0.300623 -0.369521 -0.436081 -0.5 -0.56099 -0.618789 -0.673153
-0.723865 -0.770725 -0.813559 -0.852214 -0.88656 -0.91649 -0.941916
-0.962775 -0.979025 -0.990643 -0.997628 -1 -0.997795 -0.991072 -0.979906
-0.964388 -0.944629 -0.920753 -0.892901 -0.861227 -0.825898 -0.787096
-0.745011 -0.699847 -0.651815 -0.601137 -0.548041 -0.492764 -0.435547
-0.376636 -0.316283 -0.25474 -0.192265 -0.129114 -0.0655439 -0.00181222
0.0618258 0.125117 0.187813 0.249667 0.310438 0.369891 0.427798 0.483937
0.538094 0.590063 0.63965 0.686666 0.730937 0.772296 0.81059 0.845677
0.877426 0.905721 0.930457 0.951544 0.968902 0.98247 0.992197 0.998047
1 0.998047 0.992197 0.98247 0.968902 0.951544 0.930457 0.905721 0.877426
0.845677 0.81059 0.772296 0.730937 0.686666 0.63965 0.590063 0.538094
0.483937 0.427798 0.369891 0.310438 0.249667 0.187813 0.125117 0.0618258
-0.00181222 -0.0655439 -0.129114 -0.192265 -0.25474 -0.316283 -0.376636
-0.435547 -0.492764 -0.548041 -0.601137 -0.651815 -0.699847 -0.745011
-0.787096 -0.825898 -0.861227 -0.892901 -0.920753 -0.944629 -0.964388
-0.979906 -0.991072 -0.997795 -1 -0.997628 -0.990643 -0.979025 -0.962775
-0.941916 -0.91649 -0.88656 -0.852214 -0.813559 -0.770725 -0.723865
-0.673153 -0.618789 -0.56099 -0.5 -0.436081 -0.369521 -0.300623 -0.229716
-0.157145 -0.0832758 -0.00848961 0.0668125 0.142217 0.217295 0.291603
0.364692 0.436096 0.50535 0.571979 0.635506 0.695455 0.751351 0.802726
0.849119 0.890083 0.925177 0.953999 0.976147 0.991255 0.998989 0.999058
0.99119 0.975185 0.950863 0.918137 0.876953 0.827339 0.769386 0.703289
0.629303 0.547798 0.459244 0.36422 0.263412 0.157669 0.0479279 -0.064682
-0.178905 -0.293308 -0.406288 -0.516052 -0.620598 -0.717735 -0.805046
-0.879883 -0.939316 -0.980209 -0.999138 -0.992348 -0.955856 -0.885307
-0.776031 -0.623039 -0.420914 -0.163918 0.154121 1;
#X coords 0 1 257 -1 200 140 1;
#X restore 544 -249 graph;
#X obj 786 140 expr 128*$f1*$f1*$f1*$f1*$f1*$f1*$f1*$f1 - 256*$f1*$f1*$f1*$f1*$f1*$f1
+ 160*$f1*$f1*$f1*$f1 - 32*$f1*$f1 + 1;
#X obj 782 -82 loadbang;
#X obj 786 7 until;
#X msg 786 -27 258;
#X msg 841 -33 0;
#X obj 783 36 f;
#X obj 833 35 + 1;
#X obj 786 -57 t b b;
#X obj 784 104 expr ($f1 - 129)/ 128;
#X obj 782 62 t f f;
#X obj 761 -22 bng 15 250 50 0 empty empty empty 17 7 0 10 -262144
-1 -1;
#X obj 41 268 tabwrite array2;
#X obj 414 181 tabwrite array3;
#X obj 549 341 tabwrite array4;
#X obj 790 234 tabwrite array5;
#X connect 1 0 7 0;
#X connect 2 0 5 0;
#X connect 3 0 2 0;
#X connect 4 0 5 1;
#X connect 5 0 6 0;
#X connect 5 0 10 0;
#X connect 6 0 5 1;
#X connect 7 0 3 0;
#X connect 7 1 4 0;
#X connect 8 0 9 0;
#X connect 9 0 48 0;
#X connect 10 0 8 0;
#X connect 10 1 48 1;
#X connect 11 0 7 0;
#X connect 13 0 49 0;
#X connect 14 0 20 0;
#X connect 15 0 18 0;
#X connect 16 0 15 0;
#X connect 17 0 18 1;
#X connect 18 0 19 0;
#X connect 18 0 22 0;
#X connect 19 0 18 1;
#X connect 20 0 16 0;
#X connect 20 1 17 0;
#X connect 21 0 13 0;
#X connect 22 0 21 0;
#X connect 22 1 49 1;
#X connect 23 0 20 0;
#X connect 25 0 50 0;
#X connect 26 0 32 0;
#X connect 27 0 30 0;
#X connect 28 0 27 0;
#X connect 29 0 30 1;
#X connect 30 0 31 0;
#X connect 30 0 34 0;
#X connect 31 0 30 1;
#X connect 32 0 28 0;
#X connect 32 1 29 0;
#X connect 33 0 25 0;
#X connect 34 0 33 0;
#X connect 34 1 50 1;
#X connect 35 0 32 0;
#X connect 37 0 51 0;
#X connect 38 0 44 0;
#X connect 39 0 42 0;
#X connect 40 0 39 0;
#X connect 41 0 42 1;
#X connect 42 0 43 0;
#X connect 42 0 46 0;
#X connect 43 0 42 1;
#X connect 43 0 51 1;
#X connect 44 0 40 0;
#X connect 44 1 41 0;
#X connect 45 0 37 0;
#X connect 46 0 45 0;
#X connect 47 0 44 0;
#X restore 819 238 pd cheby;
#X obj 939 400 cnv 15 160 320 empty empty empty 20 12 0 14 -4160 -66577
0;
#X obj 936 400 hsl 160 40 1 0 0 1 fade empty DISTORTION -2 15 0 25
-4034 -1 -1 3000 1;
#X obj 936 441 hsl 160 40 0 1 0 1 attack empty ATTACK -2 15 0 25 -4034
-1 -1 0 1;
#X obj 936 482 hsl 160 40 0 1 0 1 decay empty DECAY -2 15 0 25 -4034
-1 -1 6500 1;
#X obj 937 523 hsl 160 40 0 1 0 1 sustain empty SUSTAIN -2 15 0 25
-4034 -1 -1 5800 1;
#X obj 937 562 hsl 160 40 0 1 0 1 release empty RELEASE -2 15 0 25
-4034 -1 -1 4600 1;
#X obj 937 602 hsl 160 40 0 1 0 1 viberate empty VIBRATE -2 15 0 25
-4034 -1 -1 5500 1;
#N canvas 0 22 769 582 midicc 0;
#X obj 157 36 ctlin;
#X obj 151 104 pack f f;
#X floatatom 101 75 5 0 0 0 - - -;
#X floatatom 221 73 5 0 0 0 - - -;
#X text 413 53 Axiom 25;
#X floatatom 153 165 5 0 0 0 - - -;
#X text 415 72 - mod wheel 1;
#X obj 152 133 route 1;
#X obj 150 416 s vibedepth;
#X obj 152 203 / 127;
#X obj 73 137 r vibeoff;
#X obj 152 353 spigot;
#X obj 196 323 tgl 15 0 empty empty empty 17 7 0 10 -262144 -1 -1 1
1;
#X msg 72 219 0;
#X obj 80 168 sel 0 1;
#X obj 108 219 t b b;
#X obj 153 296 f;
#X connect 0 0 2 0;
#X connect 0 0 1 1;
#X connect 0 1 3 0;
#X connect 0 1 1 0;
#X connect 1 0 7 0;
#X connect 5 0 9 0;
#X connect 7 0 5 0;
#X connect 9 0 16 0;
#X connect 10 0 14 0;
#X connect 11 0 8 0;
#X connect 12 0 11 1;
#X connect 13 0 8 0;
#X connect 14 0 13 0;
#X connect 14 0 12 0;
#X connect 14 1 15 0;
#X connect 15 0 16 0;
#X connect 15 1 12 0;
#X connect 16 0 11 0;
#X restore 820 264 pd midicc;
#X obj 933 643 tgl 40 1 vibeoff empty V/ON 0 15 0 16 -257985 -262144
-1 1 1;
#X obj 977 649 hradio 30 1 1 4 radio empty TRANSFER 0 14 0 20 -257985
-262144 -1 3;
#X obj 335 458 r radio;
#X obj 336 497 route 0 1 2 3;
#X obj 330 522 bng 15 250 50 0 empty empty empty 17 7 0 10 -262144
-1 -1;
#X obj 353 522 bng 15 250 50 0 empty empty empty 17 7 0 10 -262144
-1 -1;
#X obj 376 523 bng 15 250 50 0 empty empty empty 17 7 0 10 -262144
-1 -1;
#X obj 397 523 bng 15 250 50 0 empty empty empty 17 7 0 10 -262144
-1 -1;
#X obj 313 550 s trn1;
#X obj 361 550 s trn2;
#X obj 410 550 s trn3;
#X obj 461 549 s trn4;
#X obj 881 143 s array1;
#X obj 340 305 s array1;
#X obj 1099 400 cnv 15 160 320 empty empty empty 20 12 0 14 -4160 -66577
0;
#X obj 1101 403 hradio 30 1 1 5 voice empty UNISON 0 14 0 25 -4034
-262144 -1 4;
#X obj 1107 432 hsl 140 30 0 1 0 1 dt1 fix DETUNE_1 -2 15 0 25 -4034
-1 -1 8050 1;
#X obj 1108 463 hsl 140 30 0 1 0 1 dt2 fix DETUNE_2 -2 15 0 25 -4034
-1 -1 6150 1;
#X obj 1108 493 hsl 140 30 0 1 0 1 dt3 fix DETUNE_3 -2 15 0 25 -4034
-1 -1 5750 1;
#X obj 1108 523 hsl 140 30 0 1 0 1 dt4 fix DETUNE_4 -2 15 0 25 -4034
-1 -1 7550 1;
#X obj 1109 555 tgl 40 1 retune empty RETUNE 44 17 0 25 -257985 -1
-1 0 1;
#X obj 1033 235 r retune;
#X msg 1034 263 0.5;
#X obj 1033 293 s fix;
#X obj 939 685 hsl 160 30 0 1 0 1 volume empty VOLUME 10 15 0 25 -4034
-1 -1 13700 1;
#X obj 115 305 dac~;
#X obj 121 249 *~;
#X obj 118 272 *~ 0.25;
#X obj 627 350 init 0.5;
#X obj 691 349 init 0.3;
#X obj 755 350 init 0.1;
#X obj 201 162 r volume;
#X msg 200 186 \$1 30;
#X obj 202 212 line~;
#X connect 1 0 37 0;
#X connect 1 1 70 6;
#X connect 2 0 38 0;
#X connect 2 1 70 5;
#X connect 3 0 39 0;
#X connect 3 1 70 4;
#X connect 4 0 40 0;
#X connect 4 1 70 3;
#X connect 5 0 41 0;
#X connect 5 1 70 2;
#X connect 6 0 42 0;
#X connect 6 1 70 1;
#X connect 7 0 33 0;
#X connect 7 1 70 0;
#X connect 8 0 36 0;
#X connect 8 1 70 7;
#X connect 9 0 35 0;
#X connect 9 1 70 8;
#X connect 10 0 34 0;
#X connect 10 1 70 9;
#X connect 22 0 106 0;
#X connect 23 0 51 0;
#X connect 24 0 53 0;
#X connect 25 0 55 0;
#X connect 26 0 57 0;
#X connect 27 0 59 0;
#X connect 28 0 61 0;
#X connect 29 0 65 0;
#X connect 30 0 63 0;
#X connect 31 0 67 0;
#X connect 32 0 69 0;
#X connect 45 0 46 0;
#X connect 46 0 22 0;
#X connect 47 0 80 0;
#X connect 49 0 7 0;
#X connect 50 0 70 0;
#X connect 51 0 49 0;
#X connect 52 0 6 0;
#X connect 53 0 52 0;
#X connect 54 0 5 0;
#X connect 55 0 54 0;
#X connect 56 0 4 0;
#X connect 57 0 56 0;
#X connect 58 0 3 0;
#X connect 59 0 58 0;
#X connect 60 0 2 0;
#X connect 61 0 60 0;
#X connect 62 0 8 0;
#X connect 63 0 62 0;
#X connect 64 0 1 0;
#X connect 65 0 64 0;
#X connect 66 0 9 0;
#X connect 67 0 66 0;
#X connect 68 0 10 0;
#X connect 69 0 68 0;
#X connect 70 0 77 0;
#X connect 71 0 72 0;
#X connect 71 1 70 10;
#X connect 73 0 71 0;
#X connect 74 0 73 0;
#X connect 75 0 74 0;
#X connect 77 0 107 0;
#X connect 79 0 78 0;
#X connect 80 0 48 0;
#X connect 84 0 120 0;
#X connect 96 0 97 0;
#X connect 97 0 98 0;
#X connect 97 1 99 0;
#X connect 97 2 100 0;
#X connect 97 3 101 0;
#X connect 98 0 102 0;
#X connect 99 0 103 0;
#X connect 100 0 104 0;
#X connect 101 0 105 0;
#X connect 115 0 116 0;
#X connect 116 0 117 0;
#X connect 120 0 121 0;
#X connect 121 0 119 0;
#X connect 121 0 119 1;
#X connect 122 0 12 0;
#X connect 123 0 14 0;
#X connect 124 0 17 0;
#X connect 125 0 126 0;
#X connect 126 0 127 0;
#X connect 127 0 120 1;
#X coords 0 -1 1 1 660 320 1 600 400;
