#N canvas 91 22 534 470 10;
#X obj 0 0 cnv 15 500 400 empty background empty 20 12 64 14 -233017
-66577 0;
#X obj 0 0 cnv 15 20 80 outp1 inp1 empty 20 12 192 14 -1 -66577 0;
#X obj 480 320 cnv 15 20 80 outp2 inp2 empty 20 12 192 14 -1 -66577
0;
#X obj 240 190 cnv 15 20 20 outball inball empty 20 12 192 14 -24967
-66577 0;
#N canvas 28 29 1030 719 pong 0;
#X obj 342 22 loadbang;
#X obj 98 583 s inp2;
#X obj 246 414 s inp1;
#X obj 126 69 key;
#X obj 126 98 sel 113 97;
#X text 127 50 Q up- A down;
#X obj 155 218 +;
#X msg 128 128 1;
#X msg 166 126 1;
#X obj 256 92 sel 113 97;
#X msg 258 122 0;
#X msg 296 119 0;
#X obj 254 64 keyup;
#X obj 209 248 f;
#X obj 209 298 moses 0;
#X msg 246 367 pos 0 \$1;
#X obj 600 532 line;
#X obj 651 532 line;
#X obj 600 556 pack 0 0;
#X obj 683 475 random 380;
#X obj 701 424 realtime;
#X obj 701 378 loadbang;
#X obj 701 401 t b b;
#X msg 701 448 seed \$1;
#X obj 600 418 t b b;
#X obj 600 370 key;
#X obj 600 393 sel 10;
#X obj 600 602 s inball;
#X msg 600 579 pos \$1 \$2;
#X msg 600 474 480 \, 0 1000;
#X msg 652 504 380 \, \$1 1000;
#X msg 209 324 0;
#X msg 302 341 320;
#X obj 126 156 metro 10;
#X obj 195 154 metro 10;
#X obj 662 602 s ballpos;
#X obj 353 136 r ballpos;
#X obj 352 177 unpack 0 0;
#X obj 365 296 f;
#X obj 383 326 -;
#X obj 396 455 send out;
#X obj 407 21 r out;
#X obj 222 219 r reset;
#X msg 126 186 -10;
#X msg 163 186 10;
#X obj 685 60 moses -50;
#X obj 694 86 moses -30;
#X obj 707 111 moses -10;
#X obj 719 203 random 100;
#X obj 702 231 +;
#X msg 626 115 0;
#X msg 692 142 180;
#X msg 726 152 280;
#X msg 660 119 80;
#X obj 689 180 t f b;
#X obj 684 252 t f b;
#X msg 638 333 \$1 1000;
#X obj 350 197 change;
#X obj 65 291 r ballpos;
#X obj 66 314 unpack 0 0;
#X msg 98 559 pos 480 \$1;
#X obj 98 534 line;
#X obj 65 437 moses 0;
#X obj 246 319 moses 319;
#X obj 353 224 sel 0 480;
#X obj 419 295 f;
#X obj 188 561 s pos2;
#X obj 308 431 s angle;
#X obj 689 23 r angle;
#X msg 710 346 \$1 1000;
#X obj 711 300 f;
#X msg 529 271 0;
#X obj 504 300 s toooo;
#X obj 734 272 r toooo;
#X msg 496 272 480;
#X obj 355 248 t b b;
#X obj 424 246 t b b;
#X obj 366 353 moses -80;
#X obj 365 379 moses 20;
#X msg 175 518 480;
#X obj 176 498 r out;
#X msg 343 44 \; background pos 0 0 \; inp1 pos 0 0 \; inp2 pos 480
320 \; inball pos 240 190 \; reset 0 \; pd dsp 1;
#N canvas 0 22 753 476 sound 0;
#X obj 323 256 line~;
#X obj 288 287 *~;
#X obj 306 427 dac~;
#X obj 324 191 r toooo;
#X msg 324 215 1 \, 0 200;
#X obj 168 147 osc~ 440;
#X obj 145 189 *~;
#X obj 60 146 phasor~ 1000;
#X obj 373 16 r out;
#X msg 386 90 1;
#X obj 376 38 t b b;
#X obj 400 141 metro 20;
#X obj 423 78 delay 400;
#X msg 425 104 0;
#X obj 491 374 *~;
#X obj 378 337 line~;
#X obj 393 392 *~;
#X msg 378 296 1 \, 0 500;
#X obj 461 331 phasor~ 1299;
#X obj 555 330 osc~ 100;
#X obj 377 273 r start;
#X connect 0 0 1 1;
#X connect 1 0 2 0;
#X connect 1 0 2 1;
#X connect 3 0 4 0;
#X connect 4 0 0 0;
#X connect 5 0 6 1;
#X connect 6 0 1 0;
#X connect 7 0 6 0;
#X connect 8 0 10 0;
#X connect 9 0 11 0;
#X connect 10 0 9 0;
#X connect 10 1 12 0;
#X connect 11 0 4 0;
#X connect 12 0 13 0;
#X connect 13 0 11 0;
#X connect 14 0 16 0;
#X connect 15 0 16 1;
#X connect 16 0 2 1;
#X connect 16 0 2 0;
#X connect 17 0 15 0;
#X connect 18 0 14 0;
#X connect 19 0 14 1;
#X connect 20 0 17 0;
#X restore 429 498 pd sound;
#X obj 535 471 s start;
#X msg 99 509 \$1 70;
#X obj 96 483 + 5;
#X obj 101 457 moses 315;
#X obj 459 18 r resetall;
#X obj 396 432 f;
#X obj 315 547 r out;
#X obj 383 407 t b;
#X obj 478 142 r start;
#X obj 356 156 spigot;
#X msg 471 164 0;
#X obj 502 170 delay 100;
#X msg 500 193 1;
#X obj 313 610 f;
#X obj 341 610 + 1;
#X obj 380 612 f;
#X obj 408 612 + 1;
#X obj 397 549 r resetall;
#X obj 311 645 s score1;
#X obj 384 644 s score2;
#X msg 401 578 0;
#X obj 437 580 loadbang;
#X obj 315 580 sel 0 480;
#X connect 0 0 81 0;
#X connect 3 0 4 0;
#X connect 4 0 7 0;
#X connect 4 1 8 0;
#X connect 6 0 13 0;
#X connect 7 0 33 0;
#X connect 8 0 34 0;
#X connect 9 0 10 0;
#X connect 9 1 11 0;
#X connect 10 0 33 0;
#X connect 11 0 34 0;
#X connect 12 0 9 0;
#X connect 13 0 6 1;
#X connect 13 0 14 0;
#X connect 13 0 38 1;
#X connect 14 0 31 0;
#X connect 14 1 63 0;
#X connect 15 0 2 0;
#X connect 16 0 18 0;
#X connect 17 0 18 1;
#X connect 18 0 28 0;
#X connect 18 0 35 0;
#X connect 19 0 30 0;
#X connect 20 0 23 0;
#X connect 21 0 22 0;
#X connect 22 0 20 0;
#X connect 22 1 20 1;
#X connect 23 0 19 0;
#X connect 24 0 29 0;
#X connect 24 1 19 0;
#X connect 24 1 83 0;
#X connect 25 0 26 0;
#X connect 26 0 24 0;
#X connect 28 0 27 0;
#X connect 29 0 16 0;
#X connect 30 0 17 0;
#X connect 31 0 15 0;
#X connect 31 0 6 1;
#X connect 32 0 15 0;
#X connect 32 0 6 1;
#X connect 33 0 43 0;
#X connect 34 0 44 0;
#X connect 36 0 92 0;
#X connect 37 0 57 0;
#X connect 37 1 39 1;
#X connect 38 0 39 0;
#X connect 39 0 77 0;
#X connect 41 0 81 0;
#X connect 42 0 6 1;
#X connect 42 0 13 0;
#X connect 43 0 6 0;
#X connect 44 0 6 0;
#X connect 45 0 50 0;
#X connect 45 1 46 0;
#X connect 46 0 53 0;
#X connect 46 1 47 0;
#X connect 47 0 51 0;
#X connect 47 1 52 0;
#X connect 48 0 49 1;
#X connect 49 0 55 0;
#X connect 50 0 54 0;
#X connect 51 0 54 0;
#X connect 52 0 54 0;
#X connect 53 0 54 0;
#X connect 54 0 49 0;
#X connect 54 1 48 0;
#X connect 55 0 56 0;
#X connect 55 1 70 0;
#X connect 56 0 17 0;
#X connect 57 0 64 0;
#X connect 58 0 59 0;
#X connect 59 1 62 0;
#X connect 60 0 1 0;
#X connect 61 0 60 0;
#X connect 61 0 66 0;
#X connect 61 0 65 1;
#X connect 62 1 86 0;
#X connect 63 0 15 0;
#X connect 63 1 32 0;
#X connect 64 0 75 0;
#X connect 64 1 76 0;
#X connect 65 0 39 0;
#X connect 68 0 45 0;
#X connect 69 0 16 0;
#X connect 70 0 69 0;
#X connect 71 0 72 0;
#X connect 71 0 88 1;
#X connect 73 0 70 1;
#X connect 74 0 72 0;
#X connect 74 0 88 1;
#X connect 75 0 38 0;
#X connect 75 1 74 0;
#X connect 76 0 65 0;
#X connect 76 1 71 0;
#X connect 77 0 90 0;
#X connect 77 1 78 0;
#X connect 78 0 67 0;
#X connect 78 1 90 0;
#X connect 79 0 61 0;
#X connect 80 0 79 0;
#X connect 84 0 61 0;
#X connect 85 0 84 0;
#X connect 86 0 85 0;
#X connect 87 0 81 0;
#X connect 88 0 40 0;
#X connect 89 0 105 0;
#X connect 90 0 88 0;
#X connect 91 0 93 0;
#X connect 91 0 94 0;
#X connect 92 0 37 0;
#X connect 93 0 92 1;
#X connect 94 0 95 0;
#X connect 95 0 92 1;
#X connect 96 0 97 0;
#X connect 96 0 101 0;
#X connect 97 0 96 1;
#X connect 98 0 99 0;
#X connect 98 0 102 0;
#X connect 99 0 98 1;
#X connect 100 0 103 0;
#X connect 103 0 96 0;
#X connect 103 0 98 0;
#X connect 104 0 103 0;
#X connect 105 0 96 0;
#X connect 105 1 98 0;
#X restore 446 405 pd pong;
#X obj 8 414 bng 30 250 50 0 resetall empty reset 0 -6 128 8 -262144
-1 -1;
#X obj 1 3 nbx 3 30 -1e+37 1e+37 0 0 empty score1 empty 0 -6 64 10
-262144 -1 -1 3 256;
#X obj 451 2 nbx 3 30 -1e+37 1e+37 0 0 empty score2 empty 0 -6 64 10
-262144 -1 -1 7 256;
#X text 114 407 press enter to start \, Q = up \, A = down;
