#N canvas 754 267 222 459 10;
#X obj 114 64 vsl 15 128 0 1 0 0 empty empty empty 0 -9 0 10 -262144
-1 -1 1901 1;
#X obj 130 224 snapshot~;
#X obj 159 121 tgl 15 0 empty empty empty 17 7 0 10 -262144 -1 -1 1
1;
#N canvas 783 327 222 268 ping 0;
#X obj 20 117 alpha 1;
#X obj 19 60 gemhead;
#X obj 35 96 color;
#X obj 127 31 inlet;
#X obj 15 158 pix_texture;
#X obj 15 138 pix_image;
#X msg 12 33 open ripple.jpg;
#X obj 13 13 loadbang;
#X obj 67 187 rotateXYZ;
#X obj 118 120 * -360;
#N canvas 569 94 450 300 normalize 0;
#X obj 119 20 inlet;
#X obj 112 251 outlet;
#X obj 127 73 - 1;
#X obj 127 92 abs;
#X obj 132 117 *;
#X connect 0 0 2 0;
#X connect 2 0 3 0;
#X connect 3 0 4 1;
#X connect 3 0 4 0;
#X connect 4 0 1 0;
#X restore 71 58 pd normalize;
#X msg 67 79 0.2 0.9 0.8 \$1;
#X obj 78 211 circle;
#X obj 107 140 expr 7*($f1+.01);
#X connect 0 0 5 0;
#X connect 1 0 2 0;
#X connect 2 0 0 0;
#X connect 3 0 9 0;
#X connect 3 0 10 0;
#X connect 3 0 13 0;
#X connect 4 0 8 0;
#X connect 5 0 4 0;
#X connect 6 0 5 0;
#X connect 7 0 6 0;
#X connect 8 0 12 0;
#X connect 9 0 8 3;
#X connect 10 0 11 0;
#X connect 11 0 2 1;
#X connect 13 0 12 1;
#X restore 27 263 pd ping;
#X floatatom 226 128 5 0 0 0 - - -;
#N canvas 231 296 204 272 ping 0;
#X obj -676 152 alpha 1;
#X obj -677 105 gemhead;
#X obj -661 131 color;
#X obj -550 25 inlet;
#X obj -656 198 pix_texture;
#X obj -656 178 pix_image;
#X msg -683 31 open ripple.jpg;
#X obj -682 11 loadbang;
#X obj -561 213 * 360;
#X obj -652 224 rotateXYZ;
#N canvas 569 94 450 300 normalize 0;
#X obj 119 20 inlet;
#X obj 112 251 outlet;
#X obj 127 73 - 1;
#X obj 127 92 abs;
#X obj 132 117 *;
#X connect 0 0 2 0;
#X connect 2 0 3 0;
#X connect 3 0 4 1;
#X connect 3 0 4 0;
#X connect 4 0 1 0;
#X restore -606 67 pd normalize;
#X obj -660 246 circle;
#X msg -621 110 0.2 0.9 0.8 \$1;
#X obj -603 142 expr 13*($f1+.01);
#X connect 0 0 5 0;
#X connect 1 0 2 0;
#X connect 2 0 0 0;
#X connect 3 0 8 0;
#X connect 3 0 10 0;
#X connect 3 0 13 0;
#X connect 4 0 9 0;
#X connect 5 0 4 0;
#X connect 6 0 5 0;
#X connect 7 0 6 0;
#X connect 8 0 9 3;
#X connect 9 0 11 0;
#X connect 10 0 12 0;
#X connect 12 0 2 1;
#X connect 13 0 11 1;
#X restore 101 343 pd ping;
#N canvas 718 377 295 298 ping 0;
#X obj 26 141 alpha 1;
#X obj 25 94 gemhead;
#X obj 41 120 color;
#X obj 152 14 inlet;
#X obj 48 189 pix_texture;
#X obj 48 169 pix_image;
#X msg 20 48 open ripple.jpg;
#X obj 21 28 loadbang;
#X obj 154 165 * 360;
#X obj 69 215 rotateXYZ;
#N canvas 569 94 450 300 normalize 0;
#X obj 119 20 inlet;
#X obj 112 251 outlet;
#X obj 127 73 - 1;
#X obj 127 92 abs;
#X obj 132 117 *;
#X connect 0 0 2 0;
#X connect 2 0 3 0;
#X connect 3 0 4 1;
#X connect 3 0 4 0;
#X connect 4 0 1 0;
#X restore 122 55 pd normalize;
#X obj 101 245 circle;
#X obj 99 131 expr 9*($f1+.01);
#X msg 80 99 0.2 0.9 0.8 \$1;
#X connect 0 0 5 0;
#X connect 1 0 2 0;
#X connect 2 0 0 0;
#X connect 3 0 8 0;
#X connect 3 0 10 0;
#X connect 3 0 12 0;
#X connect 4 0 9 0;
#X connect 5 0 4 0;
#X connect 6 0 5 0;
#X connect 7 0 6 0;
#X connect 8 0 9 3;
#X connect 9 0 11 0;
#X connect 10 0 13 0;
#X connect 12 0 11 1;
#X connect 13 0 2 1;
#X restore 52 305 pd ping;
#X obj 159 169 metro 43;
#X obj -3 146 gemhead;
#X obj -49 124 light;
#X obj -48 82 gemhead;
#N canvas 542 422 481 342 mastergemwin 0;
#X obj 233 295 gemwin;
#X obj 103 124 tgl 15 0 empty empty empty 0 -6 0 10 -262144 -1 -1 1
1;
#X msg 187 265 create;
#X obj 247 234 bang;
#X msg 276 272 color \$1 \$2 \$3;
#X obj 107 214 bang;
#X floatatom 165 190 5 0 0 0 - - -;
#X floatatom 126 183 5 0 0 0 - - -;
#X obj 142 218 pack f f;
#X msg 200 211 border \$1;
#X obj 205 190 tgl 15 0 empty empty empty 0 -6 0 10 -262144 -1 -1 0
1;
#X obj 260 156 tgl 15 0 empty empty empty 0 -6 0 10 -262144 -1 -1 0
1;
#X msg 247 176 fullscreen \$1;
#X obj 146 285 bng 15 250 50 0 empty empty empty 0 -6 0 10 -262144
-1 -1;
#X msg 167 164 lighting \$1;
#X obj 167 125 tgl 15 0 empty empty empty 0 -6 0 8 -262144 -1 -1 1
1;
#X obj 355 144 loadbang;
#X obj 366 167 t b b;
#X msg 373 220 1;
#X text 102 110 render;
#X text 147 112 light;
#X obj 233 72 inlet;
#X obj 196 323 outlet;
#X msg 134 243 dimen 640 480;
#X obj 292 90 inlet bkgrndclr;
#X connect 0 0 22 0;
#X connect 1 0 0 0;
#X connect 2 0 0 0;
#X connect 4 0 0 0;
#X connect 5 0 8 0;
#X connect 6 0 5 0;
#X connect 6 0 8 1;
#X connect 7 0 8 0;
#X connect 8 0 23 0;
#X connect 9 0 0 0;
#X connect 10 0 9 0;
#X connect 11 0 12 0;
#X connect 12 0 0 0;
#X connect 13 0 0 0;
#X connect 14 0 0 0;
#X connect 15 0 14 0;
#X connect 16 0 17 0;
#X connect 17 0 2 0;
#X connect 17 0 18 0;
#X connect 17 1 23 0;
#X connect 18 0 1 0;
#X connect 18 0 15 0;
#X connect 21 0 0 0;
#X connect 23 0 0 0;
#X connect 24 0 4 0;
#X coords 0 -1 1 1 85 45 1 100 100;
#X restore -55 12 pd mastergemwin;
#X msg 52 36 \; pd dsp 1 \;;
#X obj 52 14 loadbang;
#X obj 156 80 loadbang;
#X msg 159 100 1;
#X text -75 232 here's what i'm talking about:;
#X obj 125 252 pipe 3500;
#X obj 135 280 pipe 3500;
#X obj 138 147 phasor~ 0.06;
#X obj -49 102 translateXYZ 1 1 1;
#X obj 107 107 + 1;
#X obj -5 193 sphere 0.081 34;
#X obj -22 146 tgl 15 0 empty empty empty 17 7 0 10 -262144 -1 -1 0
1;
#X connect 1 0 0 0;
#X connect 1 0 3 0;
#X connect 1 0 17 0;
#X connect 1 0 21 0;
#X connect 2 0 7 0;
#X connect 4 0 7 1;
#X connect 7 0 1 0;
#X connect 8 0 22 0;
#X connect 10 0 20 0;
#X connect 13 0 12 0;
#X connect 14 0 15 0;
#X connect 15 0 2 0;
#X connect 17 0 6 0;
#X connect 17 0 18 0;
#X connect 18 0 5 0;
#X connect 19 0 1 0;
#X connect 20 0 9 0;
#X connect 21 0 20 3;
#X connect 23 0 8 0;
