#N canvas 695 222 295 387 10;
#X obj 125 121 vsl 15 30 0 1 0 0 empty empty empty 0 -9 0 10 -262144
-1 -1 2124 1;
#X obj 92 154 snapshot~;
#X obj 121 51 tgl 15 0 empty empty empty 17 7 0 10 -262144 -1 -1 1
1;
#N canvas 771 489 222 268 ping 0;
#X obj 20 117 alpha 1;
#X obj 17 75 gemhead;
#X obj 35 96 color;
#X obj 107 140 expr 5*($f1+.05);
#X obj 159 -7 inlet;
#X obj 15 158 pix_texture;
#X obj 15 138 pix_image;
#X obj 13 -27 loadbang;
#X obj 67 187 rotateXYZ;
#X obj 118 120 * -360;
#N canvas 569 94 450 300 normalize 0;
#X obj 119 20 inlet;
#X obj 112 251 outlet;
#X obj 127 73 - 1;
#X obj 127 92 abs;
#X obj 132 117 *;
#X connect 0 0 2 0;
#X connect 2 0 3 0;
#X connect 3 0 4 1;
#X connect 3 0 4 0;
#X connect 4 0 1 0;
#X restore 71 18 pd normalize;
#X msg 67 79 0.2 0.9 0.8 \$1;
#X obj 78 211 sphere 1 256;
#X msg 12 -7 open wave.png;
#N canvas 692 475 187 224 switchimage 0;
#X obj 21 12 inlet;
#X obj 9 180 outlet;
#X obj 15 61 random 2;
#X obj 13 82 sel 0 1;
#X msg -9 112 open rippleseemless.png;
#X msg 49 139 open wave.png;
#X obj 97 62 bng 15 250 50 0 empty empty empty 17 7 0 10 -262144 -1
-1;
#X obj 82 9 abs;
#X obj 71 26 < 0.01;
#X obj 70 46 sel 1;
#X connect 0 0 7 0;
#X connect 2 0 3 0;
#X connect 3 0 4 0;
#X connect 3 1 5 0;
#X connect 4 0 1 0;
#X connect 5 0 1 0;
#X connect 7 0 8 0;
#X connect 8 0 9 0;
#X connect 9 0 2 0;
#X restore 46 51 pd switchimage;
#X connect 0 0 6 0;
#X connect 1 0 2 0;
#X connect 2 0 0 0;
#X connect 3 0 12 1;
#X connect 4 0 3 0;
#X connect 4 0 9 0;
#X connect 4 0 10 0;
#X connect 5 0 8 0;
#X connect 6 0 5 0;
#X connect 7 0 13 0;
#X connect 8 0 12 0;
#X connect 9 0 8 3;
#X connect 10 0 11 0;
#X connect 10 0 14 0;
#X connect 11 0 2 1;
#X connect 13 0 6 0;
#X connect 14 0 6 0;
#X restore 60 241 pd ping;
#N canvas 713 327 204 272 ping 0;
#X obj -676 152 alpha 1;
#X obj -677 105 gemhead;
#X obj -661 131 color;
#X obj -603 142 expr 5*($f1+.05);
#X obj -550 15 inlet;
#X obj -656 198 pix_texture;
#X obj -656 178 pix_image;
#X obj -682 11 loadbang;
#X obj -561 213 * 360;
#X obj -652 224 rotateXYZ;
#N canvas 569 94 450 300 normalize 0;
#X obj 119 20 inlet;
#X obj 112 251 outlet;
#X obj 127 73 - 1;
#X obj 127 92 abs;
#X obj 132 117 *;
#X connect 0 0 2 0;
#X connect 2 0 3 0;
#X connect 3 0 4 1;
#X connect 3 0 4 0;
#X connect 4 0 1 0;
#X restore -606 57 pd normalize;
#X msg -621 110 0.9 0.2 0.6 \$1;
#X obj -660 246 sphere 1 256;
#X msg -683 39 open rippleseemless.png;
#N canvas 778 150 187 224 switchimage 0;
#X obj 12 -17 inlet;
#X obj 10 190 outlet;
#X obj 16 71 random 2;
#X obj 14 92 sel 0 1;
#X msg -8 122 open rippleseemless.png;
#X msg 50 149 open wave.png;
#X obj 36 11 abs;
#X obj 80 68 bng 15 250 50 0 empty empty empty 17 7 0 10 -262144 -1
-1;
#X obj 25 28 < 0.01;
#X obj 24 48 sel 1;
#X connect 0 0 6 0;
#X connect 2 0 3 0;
#X connect 3 0 4 0;
#X connect 3 1 5 0;
#X connect 4 0 1 0;
#X connect 5 0 1 0;
#X connect 6 0 8 0;
#X connect 8 0 9 0;
#X connect 9 0 2 0;
#X connect 9 0 7 0;
#X restore -688 82 pd switchimage;
#X connect 0 0 6 0;
#X connect 1 0 2 0;
#X connect 2 0 0 0;
#X connect 3 0 12 1;
#X connect 4 0 3 0;
#X connect 4 0 8 0;
#X connect 4 0 10 0;
#X connect 5 0 9 0;
#X connect 6 0 5 0;
#X connect 7 0 13 0;
#X connect 8 0 9 3;
#X connect 9 0 12 0;
#X connect 10 0 11 0;
#X connect 10 0 14 0;
#X connect 11 0 2 1;
#X connect 13 0 6 0;
#X connect 14 0 6 0;
#X restore 92 302 pd ping;
#N canvas 706 371 295 298 ping 0;
#X obj 26 141 alpha 1;
#X obj 25 94 gemhead;
#X obj 41 120 color;
#X obj 99 131 expr 5*($f1+.05);
#X obj 152 14 inlet;
#X obj 48 189 pix_texture;
#X obj 48 169 pix_image;
#X obj 4 7 loadbang;
#X obj 154 165 * 360;
#X obj 69 215 rotateXYZ;
#N canvas 569 94 450 300 normalize 0;
#X obj 119 20 inlet;
#X obj 112 251 outlet;
#X obj 127 73 - 1;
#X obj 127 92 abs;
#X obj 132 117 *;
#X connect 0 0 2 0;
#X connect 2 0 3 0;
#X connect 3 0 4 1;
#X connect 3 0 4 0;
#X connect 4 0 1 0;
#X restore 107 76 pd normalize;
#X msg 80 99 0.6 0.9 0.2 \$1;
#X obj 101 245 sphere 1 256;
#X msg 3 27 open wave.png;
#N canvas 694 448 187 224 switchimage 0;
#X obj 21 12 inlet;
#X obj 9 180 outlet;
#X obj 15 61 random 2;
#X obj 13 82 sel 0 1;
#X msg -9 112 open rippleseemless.png;
#X msg 49 139 open wave.png;
#X obj 84 24 abs;
#X obj 73 41 < 0.01;
#X obj 72 61 sel 1;
#X connect 0 0 6 0;
#X connect 2 0 3 0;
#X connect 3 0 4 0;
#X connect 3 1 5 0;
#X connect 4 0 1 0;
#X connect 5 0 1 0;
#X connect 6 0 7 0;
#X connect 7 0 8 0;
#X connect 8 0 2 0;
#X restore 30 52 pd switchimage;
#X connect 0 0 6 0;
#X connect 1 0 2 0;
#X connect 2 0 0 0;
#X connect 3 0 12 1;
#X connect 4 0 3 0;
#X connect 4 0 8 0;
#X connect 4 0 10 0;
#X connect 5 0 9 0;
#X connect 6 0 5 0;
#X connect 7 0 13 0;
#X connect 8 0 9 3;
#X connect 9 0 12 0;
#X connect 10 0 11 0;
#X connect 10 0 14 0;
#X connect 11 0 2 1;
#X connect 13 0 6 0;
#X connect 14 0 6 0;
#X restore 71 272 pd ping;
#X obj 121 99 metro 43;
#X obj 10 276 gemhead;
#X obj 3 232 light;
#X obj 4 190 gemhead;
#N canvas 542 422 481 342 mastergemwin 0;
#X obj 233 295 gemwin;
#X obj 103 124 tgl 15 0 empty empty empty 0 -6 0 10 -262144 -1 -1 1
1;
#X msg 187 265 create;
#X obj 247 234 bang;
#X msg 276 272 color \$1 \$2 \$3;
#X obj 107 214 bang;
#X floatatom 165 190 5 0 0 0 - - -;
#X floatatom 126 183 5 0 0 0 - - -;
#X obj 142 218 pack f f;
#X msg 200 211 border \$1;
#X obj 205 190 tgl 15 0 empty empty empty 0 -6 0 10 -262144 -1 -1 0
1;
#X obj 260 156 tgl 15 0 empty empty empty 0 -6 0 10 -262144 -1 -1 0
1;
#X msg 247 176 fullscreen \$1;
#X obj 146 285 bng 15 250 50 0 empty empty empty 0 -6 0 10 -262144
-1 -1;
#X msg 167 164 lighting \$1;
#X obj 167 125 tgl 15 0 empty empty empty 0 -6 0 8 -262144 -1 -1 1
1;
#X obj 355 144 loadbang;
#X obj 366 167 t b b;
#X msg 373 220 1;
#X text 102 110 render;
#X text 147 112 light;
#X obj 233 72 inlet;
#X obj 196 323 outlet;
#X msg 134 243 dimen 640 480;
#X obj 292 90 inlet bkgrndclr;
#X connect 0 0 22 0;
#X connect 1 0 0 0;
#X connect 2 0 0 0;
#X connect 4 0 0 0;
#X connect 5 0 8 0;
#X connect 6 0 5 0;
#X connect 6 0 8 1;
#X connect 7 0 8 0;
#X connect 8 0 23 0;
#X connect 9 0 0 0;
#X connect 10 0 9 0;
#X connect 11 0 12 0;
#X connect 12 0 0 0;
#X connect 13 0 0 0;
#X connect 14 0 0 0;
#X connect 15 0 14 0;
#X connect 16 0 17 0;
#X connect 17 0 2 0;
#X connect 17 0 18 0;
#X connect 17 1 23 0;
#X connect 18 0 1 0;
#X connect 18 0 15 0;
#X connect 21 0 0 0;
#X connect 23 0 0 0;
#X connect 24 0 4 0;
#X coords 0 -1 1 1 85 45 1 100 100;
#X restore 14 19 pd mastergemwin;
#X msg 5 118 \; pd dsp 1 \;;
#X obj 5 96 loadbang;
#X obj 118 10 loadbang;
#X msg 121 30 1;
#X text 39 329 here's what i'm talking about:;
#X obj 78 119 log~;
#X obj 6 301 sphere 0.1 34;
#X obj 96 77 phasor~ 0.06;
#X obj 3 210 translateXYZ 1 1 1;
#X obj 104 180 + 1;
#X obj 186 174 vsl 15 30 0 1 0 0 empty empty empty 0 -9 0 10 -262144
-1 -1 0 1;
#X obj 153 207 snapshot~;
#X obj 182 152 metro 43;
#X obj 129 178 log~;
#X obj 195 276 vsl 15 30 0 1 0 0 empty empty empty 0 -9 0 10 -262144
-1 -1 126 1;
#X obj 162 309 snapshot~;
#X obj 191 254 metro 43;
#X obj 170 277 log~;
#X obj 157 130 phasor~ 0.07;
#X obj 166 232 phasor~ 0.04;
#X obj 12 256 tgl 15 0 empty empty empty 17 7 0 10 -262144 -1 -1 0
1;
#X connect 1 0 0 0;
#X connect 1 0 3 0;
#X connect 1 0 20 0;
#X connect 2 0 6 0;
#X connect 2 0 23 0;
#X connect 2 0 27 0;
#X connect 6 0 1 0;
#X connect 7 0 17 0;
#X connect 9 0 19 0;
#X connect 12 0 11 0;
#X connect 13 0 14 0;
#X connect 14 0 2 0;
#X connect 16 0 1 0;
#X connect 18 0 16 0;
#X connect 18 0 1 0;
#X connect 19 0 8 0;
#X connect 20 0 19 3;
#X connect 22 0 21 0;
#X connect 22 0 5 0;
#X connect 23 0 22 0;
#X connect 24 0 22 0;
#X connect 26 0 25 0;
#X connect 26 0 4 0;
#X connect 27 0 26 0;
#X connect 28 0 26 0;
#X connect 29 0 24 0;
#X connect 29 0 22 0;
#X connect 30 0 28 0;
#X connect 30 0 26 0;
#X connect 31 0 7 0;
