#N canvas 15 93 814 511 10;
#X obj 212 5 inlet;
#X obj 224 261 outlet;
#X obj 340 262 outlet;
#X obj 162 101 cnv 15 20 58 empty empty Tonic -8 28 0 9 -257998 -66577
0;
#X obj 164 140 cnv 15 20 20 empty empty (midi) -9 12 0 8 -257998 -66577
0;
#X floatatom 163 134 3 20 90 0 - #0-2Tonic #0-Tonic;
#X obj 212 27 sel major minor blue whole octaton;
#X msg 214 48 0;
#X msg 234 68 1;
#X msg 254 49 2;
#X msg 274 68 3;
#X msg 305 46 4;
#X obj 230 100 s \$0-2ScaleType;
#X obj 504 79 s \$0-2Tonic;
#X obj 176 158 cnv 1 8 1 empty empty empty 20 12 0 14 -1 -66577 0;
#X obj 206 134 r \$0-ScaleType;
#X obj 265 212 r \$0-Tonic;
#N canvas 0 22 458 308 (subpatch) 0;
#X array major 11 float 1;
#A 0 0 2 4 5 7 9 11 12 14 16 17;
#X coords 0 16 10 0 20 14 1;
#X restore 460 109 graph;
#N canvas 0 22 462 312 (subpatch) 0;
#X array minor 11 float 1;
#A 0 0 2 3 5 7 8 10 12 14 15 17;
#X coords 0 16 10 0 20 14 1;
#X restore 459 140 graph;
#N canvas 0 22 458 308 (subpatch) 0;
#X array blue 11 float 1;
#A 0 0 2 5 6 7 9 10 12 17 18 19;
#X coords 0 16 10 0 20 14 1;
#X restore 460 169 graph;
#N canvas 0 22 462 312 (subpatch) 0;
#X array whole 11 float 1;
#A 0 0 2 4 6 8 10 12 14 16 18 20;
#X coords 0 16 10 0 20 14 1;
#X restore 459 200 graph;
#N canvas 0 22 462 312 (subpatch) 0;
#X array octaton 11 float 1;
#A 0 0 2 3 5 6 8 9 11 12 14 16;
#X coords 0 16 10 0 20 14 1;
#X restore 459 230 graph;
#X obj 224 191 tabread major;
#N canvas 424 211 454 304 tableselector 0;
#X obj 107 25 inlet;
#X obj 73 254 outlet;
#X obj 79 91 sel 0 1 2 3 4;
#X msg 73 137 set major;
#X msg 113 217 set octaton;
#X msg 103 197 set whole;
#X msg 93 177 set blue;
#X msg 83 157 set minor;
#X connect 0 0 2 0;
#X connect 2 0 3 0;
#X connect 2 1 7 0;
#X connect 2 2 6 0;
#X connect 2 3 5 0;
#X connect 2 4 4 0;
#X connect 3 0 1 0;
#X connect 4 0 1 0;
#X connect 5 0 1 0;
#X connect 6 0 1 0;
#X connect 7 0 1 0;
#X restore 206 160 pd tableselector;
#X obj 242 233 + 69;
#X obj 340 114 countto 15;
#X floatatom 164 233 5 0 0 0 - - -;
#X floatatom 167 180 5 0 0 0 - - -;
#X floatatom 328 154 5 0 0 0 - - -;
#X msg 388 64 0;
#X msg 361 64 1;
#X obj 358 89 metro 50;
#X obj 384 138 sel 14;
#X obj 381 198 bang;
#X obj 289 237 del 50;
#X obj 35 29 scalecollector;
#X text 2 9 this is an object to attch to;
#X text 9 46 to load standard scales;
#N canvas 84 131 489 501 save 1;
#X obj 247 342 tabread \$0-saveparam;
#X obj 309 244 unpack f f;
#X msg 282 160 \$1 0;
#X msg 312 170 \$1 1;
#X obj 209 356 int;
#X obj 183 334 bang;
#X obj 224 379 pack;
#X obj 201 74 openpanel;
#X obj 247 297 until;
#X obj 24 18 inlet;
#X obj 201 48 inlet;
#X obj 64 199 tabread \$0-saveparam;
#X obj 62 151 until;
#X obj 76 301 textfile;
#X obj 291 266 tabwrite \$0-saveparam;
#X msg 66 225 add \$1;
#X obj 20 110 savepanel;
#X msg 15 216 write \$1;
#X msg 19 294 clear;
#X obj 19 270 pipe 30;
#X obj 24 86 t b b;
#X obj 18 243 bang;
#X obj 216 188 textfile;
#X msg 206 133 read \$1;
#X msg 223 159 rewind;
#X obj 206 285 pack;
#X obj 143 170 until;
#X obj 134 117 bang;
#X msg 62 131 2;
#X obj 62 171 countto 2;
#X obj 161 240 countto 2;
#X msg 135 145 2;
#X msg 247 277 2;
#X obj 248 317 countto 2;
#X obj 298 376 table \$0-saveparam 2;
#X obj 323 124 r \$0-Tonic;
#X obj 291 100 r \$0-ScaleType;
#X obj 222 405 route 0 1;
#X obj 258 433 s \$0-2Tonic;
#X obj 215 453 s \$0-2ScaleType;
#X obj 222 99 r \$0-load;
#X connect 0 0 6 1;
#X connect 0 0 5 0;
#X connect 1 0 14 0;
#X connect 1 1 14 1;
#X connect 2 0 1 0;
#X connect 3 0 1 0;
#X connect 4 0 6 0;
#X connect 5 0 4 0;
#X connect 6 0 37 0;
#X connect 7 0 23 0;
#X connect 8 0 33 0;
#X connect 9 0 20 0;
#X connect 10 0 7 0;
#X connect 11 0 15 0;
#X connect 12 0 29 0;
#X connect 15 0 13 0;
#X connect 16 0 17 0;
#X connect 17 0 13 0;
#X connect 17 0 21 0;
#X connect 18 0 13 0;
#X connect 19 0 18 0;
#X connect 20 0 16 0;
#X connect 20 1 28 0;
#X connect 21 0 19 0;
#X connect 22 0 25 1;
#X connect 22 0 30 0;
#X connect 23 0 22 0;
#X connect 23 0 24 0;
#X connect 24 0 22 0;
#X connect 24 0 27 0;
#X connect 25 0 37 0;
#X connect 26 0 22 0;
#X connect 27 0 31 0;
#X connect 28 0 12 0;
#X connect 29 0 11 0;
#X connect 30 0 25 0;
#X connect 31 0 26 0;
#X connect 32 0 8 0;
#X connect 33 0 0 0;
#X connect 33 0 4 1;
#X connect 35 0 3 0;
#X connect 36 0 2 0;
#X connect 37 0 39 0;
#X connect 37 1 38 0;
#X connect 40 0 23 0;
#X restore 473 276 pd save;
#X obj 153 101 bng 15 250 50 0 empty empty save 0 8 0 6 -262144 -258113
-258113;
#X obj 168 101 bng 15 250 50 0 empty empty open 0 8 0 6 -262144 -4160
-4160;
#X obj 101 101 cnv 15 50 58 empty empty empty 20 12 0 14 -262144 -66577
0;
#X obj 101 100 vradio 12 1 0 5 \$0-ScaleType \$0-2ScaleType empty 0
-8 0 10 -262144 -1 -1 0;
#X text 114 99 major;
#X text 114 111 minor;
#X text 114 123 blue;
#X text 114 135 whole;
#X text 114 146 octaton;
#X obj 447 31 route load;
#X obj 447 53 s \$0-load;
#X connect 0 0 6 0;
#X connect 0 0 30 0;
#X connect 6 0 7 0;
#X connect 6 1 8 0;
#X connect 6 2 9 0;
#X connect 6 3 10 0;
#X connect 6 4 11 0;
#X connect 6 5 48 0;
#X connect 7 0 12 0;
#X connect 8 0 12 0;
#X connect 9 0 12 0;
#X connect 10 0 12 0;
#X connect 11 0 12 0;
#X connect 15 0 23 0;
#X connect 15 0 33 0;
#X connect 16 0 24 1;
#X connect 16 0 34 0;
#X connect 22 0 24 0;
#X connect 23 0 22 0;
#X connect 24 0 1 0;
#X connect 24 0 26 0;
#X connect 25 0 2 0;
#X connect 25 0 22 0;
#X connect 25 0 28 0;
#X connect 25 0 32 0;
#X connect 27 0 22 0;
#X connect 29 0 31 0;
#X connect 30 0 31 0;
#X connect 31 0 25 0;
#X connect 32 0 29 0;
#X connect 33 0 30 0;
#X connect 34 0 30 0;
#X connect 39 0 38 0;
#X connect 40 0 38 1;
#X connect 48 0 49 0;
#X connect 48 1 13 0;
#X coords 0 -1 1 1 85 60 1 100 100;
