#N canvas 2 83 450 494 12;
#X obj 132 36 adc~;
#X obj 154 106 fiddle~;
#X obj 91 105 bonk~;
#X obj 134 60 +~;
#X msg 89 130 \$1;
#X obj 89 155 * 6;
#X obj 87 202 spigot 1;
#X msg 190 207 1;
#X obj 232 162 t b b;
#X msg 237 196 0;
#X obj 95 229 int;
#X obj 95 254 moses 126;
#X msg 153 286 127;
#X obj 70 390 noteout;
#X obj 86 307 t b f;
#X msg 59 354 40;
#X floatatom 30 289 5 0 0 0 - - -;
#X msg 30 315 set \$1;
#X obj 190 182 del 200;
#X connect 0 0 3 0;
#X connect 0 1 3 1;
#X connect 2 0 4 0;
#X connect 3 0 2 0;
#X connect 3 0 1 0;
#X connect 4 0 5 0;
#X connect 5 0 6 0;
#X connect 6 0 8 0;
#X connect 6 0 10 0;
#X connect 7 0 6 1;
#X connect 8 0 18 0;
#X connect 8 1 9 0;
#X connect 9 0 6 1;
#X connect 10 0 11 0;
#X connect 11 0 14 0;
#X connect 11 1 12 0;
#X connect 12 0 14 0;
#X connect 14 0 15 0;
#X connect 14 1 13 1;
#X connect 15 0 13 0;
#X connect 16 0 17 0;
#X connect 17 0 15 0;
#X connect 18 0 7 0;
