#N canvas 93 70 438 295 10;
#X obj 6 7 cnv 15 140 62 empty holdit empty 53 101 0 14 -7749 -66577
0;
#X obj 9 20 vsl 12 56 0 44000 0 0 \$0-SampHold \$0-2SampHold SampleHold
0 -6 0 9 -262144 -1 -1 0 1;
#X obj 117 31 vsl 24 44 1e-05 1 1 0 \$0-Gain \$0-2Gain Gain 0 -8 0
9 -262144 -1 -1 0 1;
#N canvas 217 203 727 569 process 0;
#X obj 101 62 rfft~;
#X obj 48 102 samphold~;
#X obj 115 134 samphold~;
#X obj 18 261 rifft~;
#X obj 174 86 phasor~ 44090;
#X floatatom 150 192 5 0 0 0 - - -;
#X obj 111 415 outlet~;
#X obj 300 296 switch~ 4096 1 1;
#X obj 322 173 sel 0 1 2 3 4;
#X text 294 314 here is the window sizer;
#X obj 52 19 inlet~;
#X obj 150 170 r AuralSkew;
#X msg 323 197 set 8192 1 1;
#X msg 337 216 set 4096 1 1;
#X msg 355 236 set 2048 1 1;
#X msg 373 255 set 1024 1 1;
#X msg 389 275 set 512 1 1;
#X obj 112 351 *~;
#X msg 312 101 set \$1 \$2 \$3;
#N canvas 0 22 454 304 2power 0;
#X obj 219 69 inlet;
#X obj 181 199 outlet;
#X obj 217 101 int;
#X obj 205 137 bang;
#X msg 168 99 2;
#X obj 190 164 pow 2;
#X connect 0 0 2 0;
#X connect 2 0 5 1;
#X connect 2 0 3 0;
#X connect 3 0 4 0;
#X connect 4 0 5 0;
#X connect 5 0 1 0;
#X restore 316 39 pd 2power;
#X obj 324 79 pack 128 1 1;
#N canvas 0 22 454 304 2power 0;
#X obj 219 69 inlet;
#X obj 181 199 outlet;
#X obj 217 101 int;
#X obj 205 137 bang;
#X msg 168 99 2;
#X obj 190 164 pow 2;
#X connect 0 0 2 0;
#X connect 2 0 5 1;
#X connect 2 0 3 0;
#X connect 3 0 4 0;
#X connect 4 0 5 0;
#X connect 5 0 1 0;
#X restore 386 49 pd 2power;
#N canvas 0 22 454 304 2power 0;
#X obj 219 69 inlet;
#X obj 181 199 outlet;
#X obj 217 101 int;
#X obj 205 137 bang;
#X msg 168 99 2;
#X obj 190 164 pow 2;
#X connect 0 0 2 0;
#X connect 2 0 5 1;
#X connect 2 0 3 0;
#X connect 3 0 4 0;
#X connect 4 0 5 0;
#X connect 5 0 1 0;
#X restore 456 59 pd 2power;
#X obj 173 55 r \$0-SampHold;
#X obj 301 134 r \$0-FXToggle;
#X obj 321 153 r \$0-FFTWindow;
#X text 154 400 some of this was made by sunji.roaoul@gmail.com;
#X obj 316 22 r \$0-Window;
#X obj 456 42 r \$0-Upsample;
#X obj 143 303 r \$0-Gain;
#X msg 502 130 1;
#X obj 529 108 loadbang;
#X obj 386 26 r \$0-Overlap;
#X connect 0 0 1 0;
#X connect 0 1 2 0;
#X connect 1 0 3 0;
#X connect 2 0 3 1;
#X connect 3 0 17 0;
#X connect 4 0 2 1;
#X connect 4 0 1 1;
#X connect 8 0 12 0;
#X connect 8 1 13 0;
#X connect 8 2 14 0;
#X connect 8 3 15 0;
#X connect 8 4 16 0;
#X connect 10 0 0 0;
#X connect 11 0 5 0;
#X connect 12 0 7 0;
#X connect 13 0 7 0;
#X connect 14 0 7 0;
#X connect 15 0 7 0;
#X connect 16 0 7 0;
#X connect 17 0 6 0;
#X connect 18 0 7 0;
#X connect 19 0 20 0;
#X connect 20 0 18 0;
#X connect 21 0 20 1;
#X connect 22 0 20 2;
#X connect 23 0 4 0;
#X connect 24 0 7 0;
#X connect 25 0 8 0;
#X connect 27 0 19 0;
#X connect 28 0 22 0;
#X connect 29 0 17 1;
#X connect 30 0 7 0;
#X connect 31 0 30 0;
#X connect 32 0 21 0;
#X restore 7 163 pd process;
#X obj 26 28 vsl 12 48 4 16 0 0 \$0-Window \$0-2Window Window -2 -5
0 8 -262144 -1 -1 0 1;
#X obj 44 38 vsl 12 38 0 6 0 0 \$0-Overlap \$0-2Overlap OverLap -2
-6 0 8 -262144 -1 -1 0 1;
#X obj 62 48 vsl 12 28 0 4 0 0 \$0-Upsample \$0-2Upsample UpSample
-2 -6 0 8 -262144 -1 -1 0 1;
#X obj 7 184 outlet~;
#X obj 7 142 inlet~;
#X text 159 1 this was made by sunji.roaoul@gmail.com;
#X obj 129 94 inlet;
#X obj 188 214 s \$0-2SampHold;
#X obj 226 194 s \$0-2Window;
#X obj 267 174 s \$0-2Overlap;
#X obj 309 155 s \$0-2Upsample;
#X obj 344 134 s \$0-2Gain;
#N canvas 125 164 465 512 save 0;
#X obj 224 265 tabread \$0-saveparam;
#X obj 238 153 unpack f f;
#X msg 211 69 \$1 0;
#X msg 241 79 \$1 1;
#X msg 281 89 \$1 2;
#X obj 186 279 int;
#X obj 160 257 bang;
#X obj 201 302 pack;
#X obj 118 47 openpanel;
#X obj 224 220 until;
#X obj 21 21 inlet;
#X obj 118 21 inlet;
#X obj 61 352 tabread \$0-saveparam;
#X obj 59 304 until;
#X obj 73 454 textfile;
#X obj 220 175 tabwrite \$0-saveparam;
#X msg 63 378 add \$1;
#X obj 17 263 savepanel;
#X msg 12 369 write \$1;
#X msg 16 447 clear;
#X obj 16 423 pipe 30;
#X obj 21 239 t b b;
#X obj 15 396 bang;
#X obj 133 161 textfile;
#X msg 123 106 read \$1;
#X msg 140 132 rewind;
#X obj 123 258 pack;
#X obj 60 143 until;
#X obj 51 90 bang;
#X msg 52 118 5;
#X msg 59 284 5;
#X obj 60 321 countto 5;
#X obj 78 213 countto 5;
#X obj 225 240 countto 5;
#X msg 224 200 5;
#X obj 275 299 table \$0-saveparam 5;
#X msg 331 109 \$1 3;
#X msg 381 139 \$1 4;
#X obj 368 108 r \$0-Gain;
#X obj 318 78 r \$0-Upsample;
#X obj 268 58 r \$0-Overlap;
#X obj 252 33 r \$0-Window;
#X obj 220 9 r \$0-SampHold;
#X obj 199 328 route 0 1 2 3 4;
#X obj 278 375 s \$0-2Gain;
#X obj 265 396 s \$0-2Upsample;
#X obj 248 415 s \$0-2Overlap;
#X obj 235 436 s \$0-2Window;
#X obj 192 456 s \$0-2SampHold;
#X obj 139 76 r \$0-load;
#X connect 0 0 7 1;
#X connect 0 0 6 0;
#X connect 1 0 15 0;
#X connect 1 1 15 1;
#X connect 2 0 1 0;
#X connect 3 0 1 0;
#X connect 4 0 1 0;
#X connect 5 0 7 0;
#X connect 6 0 5 0;
#X connect 7 0 43 0;
#X connect 8 0 24 0;
#X connect 9 0 33 0;
#X connect 10 0 21 0;
#X connect 11 0 8 0;
#X connect 12 0 16 0;
#X connect 13 0 31 0;
#X connect 16 0 14 0;
#X connect 17 0 18 0;
#X connect 18 0 14 0;
#X connect 18 0 22 0;
#X connect 19 0 14 0;
#X connect 20 0 19 0;
#X connect 21 0 17 0;
#X connect 21 1 30 0;
#X connect 22 0 20 0;
#X connect 23 0 26 1;
#X connect 23 0 32 0;
#X connect 24 0 23 0;
#X connect 24 0 25 0;
#X connect 25 0 23 0;
#X connect 25 0 28 0;
#X connect 26 0 43 0;
#X connect 27 0 23 0;
#X connect 28 0 29 0;
#X connect 29 0 27 0;
#X connect 30 0 13 0;
#X connect 31 0 12 0;
#X connect 32 0 26 0;
#X connect 33 0 0 0;
#X connect 33 0 5 1;
#X connect 34 0 9 0;
#X connect 36 0 1 0;
#X connect 37 0 1 0;
#X connect 38 0 37 0;
#X connect 39 0 36 0;
#X connect 40 0 4 0;
#X connect 41 0 3 0;
#X connect 42 0 2 0;
#X connect 43 0 48 0;
#X connect 43 1 47 0;
#X connect 43 2 46 0;
#X connect 43 3 45 0;
#X connect 43 4 44 0;
#X connect 49 0 24 0;
#X restore 73 97 pd save;
#X obj 84 11 bng 15 250 50 0 empty empty save 0 8 0 6 -262144 -258113
-258113;
#X obj 99 11 bng 15 250 50 0 empty empty open 0 8 0 6 -262144 -4160
-4160;
#X text 79 45 m;
#X text 84 49 a;
#X text 89 52 s;
#X text 91 60 h;
#X text 91 66 e;
#X text 97 67 r;
#X obj 129 114 route SampleHold Window OverLap UpSample Gain;
#X text 69 259 to contact other worlds;
#X text 37 234 this object reduces the sample fidelity;
#X text 50 247 from within the spectral domain;
#X obj 354 193 route load;
#X obj 354 215 s \$0-load;
#X connect 3 0 7 0;
#X connect 8 0 3 0;
#X connect 10 0 25 0;
#X connect 17 0 16 0;
#X connect 18 0 16 1;
#X connect 25 0 11 0;
#X connect 25 1 12 0;
#X connect 25 2 13 0;
#X connect 25 3 14 0;
#X connect 25 4 15 0;
#X connect 25 5 29 0;
#X connect 29 0 30 0;
#X coords 0 -1 1 1 142 77 1 5 5;
