#N canvas 573 442 603 480 10;
#X obj 248 269 r \$0-Toggle;
#X obj 135 399 s \$0-2Toggle;
#X floatatom 104 264 5 0 0 0 - - -;
#X floatatom 67 264 5 0 0 0 - - -;
#X obj 66 299 bang;
#X obj 77 328 pack;
#X obj 156 196 r \$0-Pos;
#X obj 88 223 + 100;
#X msg 137 377 pos \$1 101;
#X obj 182 228 bang;
#X msg 189 292 0;
#X msg 137 304 1;
#X obj 326 409 s \$0-2Line;
#X floatatom 327 264 5 0 0 0 - - -;
#X msg 519 349 size \$1;
#X floatatom 535 283 5 0 0 0 - - -;
#X msg 301 363 vis_size \$1 2;
#X obj 191 249 del 500;
#X obj 452 416 outlet;
#X msg 58 422 size \$1;
#X floatatom 37 353 5 0 0 0 - - -;
#X obj 338 65 inlet;
#X obj 343 116 s \$0-2Pos;
#X obj 101 102 cnv 10 94 12 empty empty empty 20 12 0 14 -262144 -66577
0;
#X obj 103 100 hsl 96 14 2 92 0 0 \$0-Pos \$0-2Pos empty -2 -6 0 10
-262144 -1 -1 0 1;
#X obj 102 101 tgl 15 0 \$0-Toggle \$0-2Toggle empty 0 -6 0 10 -262144
-1 -1 0 1;
#X obj 100 105 cnv 2 1 2 \$0-Line \$0-2Line empty 20 12 0 14 -57395
-262144 0;
#X obj 262 320 + -1;
#X connect 2 0 5 1;
#X connect 2 0 4 0;
#X connect 3 0 5 0;
#X connect 4 0 5 0;
#X connect 5 0 8 0;
#X connect 6 0 9 0;
#X connect 6 0 11 0;
#X connect 6 0 18 0;
#X connect 6 0 7 0;
#X connect 6 0 27 0;
#X connect 7 0 3 0;
#X connect 8 0 1 0;
#X connect 9 0 17 0;
#X connect 10 0 1 0;
#X connect 11 0 1 0;
#X connect 14 0 12 0;
#X connect 15 0 14 0;
#X connect 16 0 12 0;
#X connect 17 0 10 0;
#X connect 19 0 1 0;
#X connect 20 0 19 0;
#X connect 21 0 22 0;
#X connect 27 0 16 0;
#X coords 0 -1 1 1 100 14 1 100 100;
