#N canvas 1 309 365 376 10;
#X obj 39 152 translateXYZ;
#X obj 124 35 t b b;
#N canvas 21 320 195 257 transscreen 1;
#X obj 32 10 inlet;
#X obj 11 222 outlet;
#X obj 78 227 outlet;
#X obj 127 12 inlet;
#X obj 10 194 line;
#X obj 7 123 t f b;
#X obj 35 72 sqrt;
#X floatatom 75 75 5 0 0 0 - - -;
#X obj 128 224 outlet;
#X obj 107 143 - 5;
#X obj 108 121 random 10;
#X obj 126 195 sel 10;
#X msg 7 169 10 \$1;
#X obj 25 44 random 1.99e+06;
#X obj 38 99 + 29000;
#X msg 34 146 set -16;
#X connect 0 0 13 0;
#X connect 3 0 10 0;
#X connect 4 0 1 0;
#X connect 4 0 11 0;
#X connect 5 0 12 0;
#X connect 5 1 15 0;
#X connect 6 0 7 0;
#X connect 6 0 14 0;
#X connect 9 0 2 0;
#X connect 10 0 9 0;
#X connect 11 0 8 0;
#X connect 12 0 4 0;
#X connect 13 0 6 0;
#X connect 14 0 5 0;
#X connect 15 0 4 0;
#X restore 123 125 pd transscreen;
#N canvas 76 136 167 193 breatheswell 0;
#X obj 24 12 inlet;
#X obj 43 164 outlet;
#X obj 75 7 inlet;
#X obj 65 142 line;
#X msg 77 95 set \$1;
#X obj 86 40 random 45;
#X obj 88 61 - 22;
#X obj 19 37 random 45;
#X obj 17 60 - 23;
#X msg 50 118 \$1 19000;
#X connect 0 0 7 0;
#X connect 2 0 5 0;
#X connect 3 0 1 0;
#X connect 4 0 3 0;
#X connect 5 0 6 0;
#X connect 6 0 4 0;
#X connect 7 0 8 0;
#X connect 8 0 9 0;
#X connect 9 0 3 0;
#X restore 71 93 pd breatheswell;
#X obj 45 273 rectangle 10 45;
#N canvas 372 185 450 300 image 0;
#X obj 139 176 pix_texture;
#X obj 137 153 pix_image;
#X obj 213 111 loadbang;
#X obj 144 210 outlet;
#X obj 78 70 inlet;
#X obj 99 122 alpha 1;
#X msg 213 136 open wave.png;
#X connect 0 0 3 0;
#X connect 1 0 0 0;
#X connect 2 0 6 0;
#X connect 4 0 5 0;
#X connect 5 0 1 0;
#X connect 6 0 1 0;
#X restore 39 171 pd image;
#N canvas 529 185 450 300 fadingpower 0;
#X obj 190 130 line;
#X msg 239 133 set \$1;
#X obj 176 62 inlet;
#X obj 239 51 inlet;
#X obj 192 210 outlet;
#X obj 248 81 random 10;
#X obj 247 104 expr $f1*.01+.57;
#X obj 284 211 outlet;
#X obj 281 176 sel 0;
#X msg 182 97 0.2 19000;
#X connect 0 0 4 0;
#X connect 1 0 0 0;
#X connect 2 0 9 0;
#X connect 3 0 5 0;
#X connect 5 0 6 0;
#X connect 6 0 1 0;
#X connect 8 0 7 0;
#X connect 9 0 0 0;
#X restore 137 165 pd fadingpower;
#X obj 77 -46 inlet;
#X obj 117 310 outlet;
#X obj 168 201 random 6;
#X obj 3 301 outlet;
#X obj 2 -34 inlet;
#X obj 224 200 random 10;
#X obj -2 215 colorRGB 0.4 0.4 0.4 0.5;
#X obj 245 244 + 10;
#X obj 158 -46 loadbang;
#X obj 158 -27 t b b;
#X obj 159 10 del 1;
#X obj 167 227 + 6;
#X obj 229 97 random 100;
#X obj 239 126 / -100;
#X obj 202 24 random 100;
#X obj 203 44 / -100;
#X obj 271 25 random 100;
#X obj 272 45 / -100;
#X obj 194 -8 random 9000;
#X obj 48 124 rotateXYZ;
#X connect 0 0 5 0;
#X connect 1 0 2 0;
#X connect 1 0 3 0;
#X connect 1 0 6 0;
#X connect 1 1 2 1;
#X connect 1 1 3 1;
#X connect 1 1 6 1;
#X connect 1 1 9 0;
#X connect 1 1 12 0;
#X connect 1 1 19 0;
#X connect 1 1 21 0;
#X connect 1 1 23 0;
#X connect 2 0 0 1;
#X connect 2 1 0 2;
#X connect 2 2 8 0;
#X connect 3 0 26 1;
#X connect 5 0 13 0;
#X connect 6 0 13 4;
#X connect 6 1 8 0;
#X connect 7 0 1 0;
#X connect 9 0 18 0;
#X connect 11 0 10 0;
#X connect 11 0 26 0;
#X connect 12 0 14 0;
#X connect 13 0 4 0;
#X connect 14 0 4 2;
#X connect 15 0 16 0;
#X connect 16 0 17 0;
#X connect 16 1 25 0;
#X connect 17 0 1 0;
#X connect 18 0 4 1;
#X connect 19 0 20 0;
#X connect 20 0 0 3;
#X connect 21 0 22 0;
#X connect 22 0 26 2;
#X connect 23 0 24 0;
#X connect 24 0 26 3;
#X connect 25 0 17 1;
#X connect 26 0 0 0;
