#N canvas 1 342 372 237 10;
#X obj 368 52 bng 15 250 50 0 empty empty empty 17 7 0 10 -262144 -1
-1;
#X obj 353 78 s loadbang;
#X obj 11 61 gemhead;
#X obj 74 83 pipe 10;
#X obj 73 58 r loadbang;
#X obj 114 302 gemhead;
#X obj 177 324 pipe 10;
#X obj 176 299 r loadbang;
#X obj 99 0 gemwinder;
#X obj 18 114 gemhead;
#X obj 81 136 pipe 10;
#X obj 80 111 r loadbang;
#X obj 75 166 gemhead;
#X obj 138 188 pipe 10;
#X obj 137 163 r loadbang;
#X obj 167 76 gemhead;
#X obj 230 98 pipe 10;
#X obj 229 73 r loadbang;
#X obj 171 99 waverone;
#X obj 211 130 gemhead;
#X obj 274 152 pipe 10;
#X obj 273 127 r loadbang;
#X obj 205 188 gemhead;
#X obj 268 210 pipe 10;
#X obj 267 185 r loadbang;
#X obj 331 149 gemhead;
#X obj 394 171 pipe 10;
#X obj 393 146 r loadbang;
#X obj 337 194 gemhead;
#X obj 400 216 pipe 10;
#X obj 399 191 r loadbang;
#X obj 337 100 gemhead;
#X obj 400 122 pipe 10;
#X obj 399 97 r loadbang;
#X obj 15 84 waverone;
#X obj 118 325 waverone;
#X obj 22 137 waverone;
#X obj 79 189 waverone;
#X obj 215 153 waverone;
#X obj 209 211 waverone;
#X obj 335 172 waverone;
#X obj 341 217 waverone;
#X obj 341 123 waverone;
#X obj 207 27 gemhead;
#X obj 270 49 pipe 10;
#X obj 269 24 r loadbang;
#X obj 211 50 waverone;
#X obj 345 13 gemhead;
#X obj 408 35 pipe 10;
#X obj 407 10 r loadbang;
#X obj 349 36 waverone;
#X connect 0 0 1 0;
#X connect 2 0 34 0;
#X connect 3 0 34 1;
#X connect 4 0 3 0;
#X connect 5 0 35 0;
#X connect 6 0 35 1;
#X connect 7 0 6 0;
#X connect 9 0 36 0;
#X connect 10 0 36 1;
#X connect 11 0 10 0;
#X connect 12 0 37 0;
#X connect 13 0 37 1;
#X connect 14 0 13 0;
#X connect 15 0 18 0;
#X connect 16 0 18 1;
#X connect 17 0 16 0;
#X connect 18 1 16 0;
#X connect 19 0 38 0;
#X connect 20 0 38 1;
#X connect 21 0 20 0;
#X connect 22 0 39 0;
#X connect 23 0 39 1;
#X connect 24 0 23 0;
#X connect 25 0 40 0;
#X connect 26 0 40 1;
#X connect 27 0 26 0;
#X connect 28 0 41 0;
#X connect 29 0 41 1;
#X connect 30 0 29 0;
#X connect 31 0 42 0;
#X connect 32 0 42 1;
#X connect 33 0 32 0;
#X connect 34 1 3 0;
#X connect 35 1 6 0;
#X connect 36 1 10 0;
#X connect 37 1 13 0;
#X connect 38 1 20 0;
#X connect 39 1 23 0;
#X connect 40 1 26 0;
#X connect 41 1 29 0;
#X connect 42 1 32 0;
#X connect 43 0 46 0;
#X connect 44 0 46 1;
#X connect 45 0 44 0;
#X connect 46 1 44 0;
#X connect 47 0 50 0;
#X connect 48 0 50 1;
#X connect 49 0 48 0;
#X connect 50 1 48 0;
