#N canvas 28 96 581 438 10;
#X obj 192 79 rotateXYZ;
#X obj 106 29 translateXYZ;
#X obj 68 -27 gemhead;
#X obj 183 -45 t b b;
#X obj 183 -91 bng 15 250 50 0 empty empty empty 17 7 0 10 -262144
-1 -1;
#X obj 129 166 pix_texture;
#X obj 127 143 pix_image;
#X msg 307 127 open /home/dafe/Desktop/crazymachine/wave.png;
#X obj 127 121 alpha 1;
#N canvas 503 153 450 300 transscreen 1;
#X obj 82 10 inlet;
#X obj 61 222 outlet;
#X obj 166 232 outlet;
#X obj 177 12 inlet;
#X obj 153 185 line;
#X obj 138 115 t f b;
#X obj 85 72 sqrt;
#X floatatom 125 75 5 0 0 0 - - -;
#X obj 76 45 random 120000;
#X obj 88 99 + 12000;
#X obj 186 169 random 15;
#X obj 185 191 - 7.5;
#X msg 138 161 16 \$1;
#X msg 165 138 set -16;
#X connect 0 0 8 0;
#X connect 3 0 10 0;
#X connect 4 0 1 0;
#X connect 5 0 12 0;
#X connect 5 1 13 0;
#X connect 6 0 7 0;
#X connect 6 0 9 0;
#X connect 8 0 6 0;
#X connect 9 0 5 0;
#X connect 10 0 11 0;
#X connect 11 0 2 0;
#X connect 12 0 4 0;
#X connect 13 0 4 0;
#X restore 115 -1 pd transscreen;
#N canvas 419 77 450 300 breatheswell 1;
#X obj 82 10 inlet;
#X obj 61 222 outlet;
#X obj 177 12 inlet;
#X obj 153 185 line;
#X msg 165 138 set \$1;
#X msg 138 161 \$1 190000;
#X obj 182 99 - 16;
#X obj 182 63 random 32;
#X obj 76 45 random 32;
#X obj 76 82 - 16;
#X connect 0 0 8 0;
#X connect 2 0 7 0;
#X connect 3 0 1 0;
#X connect 4 0 3 0;
#X connect 5 0 3 0;
#X connect 6 0 4 0;
#X connect 7 0 6 0;
#X connect 8 0 9 0;
#X connect 9 0 5 0;
#X restore 189 31 pd breatheswell;
#X obj 375 -12 random 100;
#X obj 388 38 - 50;
#X obj 231 238 pix_delay 400;
#X obj 133 187 rectangle 10 45;
#X obj 308 102 loadbang;
#X connect 0 0 8 0;
#X connect 1 0 0 0;
#X connect 2 0 1 0;
#X connect 3 0 9 0;
#X connect 3 0 10 0;
#X connect 3 1 9 1;
#X connect 3 1 10 1;
#X connect 3 1 11 0;
#X connect 4 0 3 0;
#X connect 5 0 14 0;
#X connect 6 0 5 0;
#X connect 7 0 6 0;
#X connect 8 0 6 0;
#X connect 9 0 1 1;
#X connect 9 1 1 2;
#X connect 10 0 0 1;
#X connect 11 0 12 0;
#X connect 12 0 14 2;
#X connect 15 0 7 0;
