#N canvas 423 123 398 386 10;
#X obj 114 73 rotateXYZ;
#X obj 106 29 translateXYZ;
#X obj 68 -27 gemhead;
#X obj 183 -45 t b b;
#N canvas 501 152 450 300 transscreen 0;
#X obj 82 10 inlet;
#X obj 61 222 outlet;
#X obj 166 232 outlet;
#X obj 177 12 inlet;
#X obj 153 185 line;
#X obj 138 115 t f b;
#X obj 85 72 sqrt;
#X floatatom 125 75 5 0 0 0 - - -;
#X obj 76 45 random 120000;
#X obj 88 99 + 12000;
#X obj 186 169 random 15;
#X obj 185 191 - 7.5;
#X msg 138 161 16 \$1;
#X msg 165 138 set -16;
#X connect 0 0 8 0;
#X connect 3 0 10 0;
#X connect 4 0 1 0;
#X connect 5 0 12 0;
#X connect 5 1 13 0;
#X connect 6 0 7 0;
#X connect 6 0 9 0;
#X connect 8 0 6 0;
#X connect 9 0 5 0;
#X connect 10 0 11 0;
#X connect 11 0 2 0;
#X connect 12 0 4 0;
#X connect 13 0 4 0;
#X restore 115 -1 pd transscreen;
#N canvas 419 77 450 300 breatheswell 0;
#X obj 82 10 inlet;
#X obj 61 222 outlet;
#X obj 177 12 inlet;
#X obj 153 185 line;
#X msg 165 138 set \$1;
#X msg 138 161 \$1 190000;
#X obj 182 99 - 16;
#X obj 182 63 random 32;
#X obj 76 45 random 32;
#X obj 76 82 - 16;
#X connect 0 0 8 0;
#X connect 2 0 7 0;
#X connect 3 0 1 0;
#X connect 4 0 3 0;
#X connect 5 0 3 0;
#X connect 6 0 4 0;
#X connect 7 0 6 0;
#X connect 8 0 9 0;
#X connect 9 0 5 0;
#X restore 189 31 pd breatheswell;
#X obj 314 29 random 100;
#X obj 314 53 - 50;
#X obj 125 243 rectangle 10 45;
#X obj 131 174 colorRGB;
#N canvas 396 197 450 300 image 0;
#X obj 139 176 pix_texture;
#X obj 137 153 pix_image;
#X obj 213 111 loadbang;
#X obj 144 210 outlet;
#X obj 78 70 inlet;
#X obj 99 122 alpha 1;
#X msg 212 136 open wave.png;
#X connect 0 0 3 0;
#X connect 1 0 0 0;
#X connect 2 0 6 0;
#X connect 4 0 5 0;
#X connect 5 0 1 0;
#X connect 6 0 1 0;
#X restore 119 141 pd image;
#N canvas 571 206 450 300 fadingpower 0;
#X obj 190 130 line;
#X msg 182 97 0 12000;
#X obj 246 81 random 70;
#X msg 239 133 set \$1;
#X obj 176 62 inlet;
#X obj 239 51 inlet;
#X obj 195 173 outlet;
#X obj 247 104 expr $f1*.01+.30;
#X connect 0 0 6 0;
#X connect 1 0 0 0;
#X connect 2 0 7 0;
#X connect 3 0 0 0;
#X connect 4 0 1 0;
#X connect 5 0 2 0;
#X connect 7 0 3 0;
#X restore 162 99 pd fadingpower;
#X obj 198 163 random 3;
#X floatatom 178 135 5 0 0 0 - - -;
#X obj 198 187 + 6;
#X obj 157 -76 inlet;
#X connect 0 0 10 0;
#X connect 1 0 0 0;
#X connect 2 0 1 0;
#X connect 3 0 4 0;
#X connect 3 0 5 0;
#X connect 3 0 11 0;
#X connect 3 1 4 1;
#X connect 3 1 5 1;
#X connect 3 1 6 0;
#X connect 3 1 11 1;
#X connect 3 1 12 0;
#X connect 4 0 1 1;
#X connect 4 1 1 2;
#X connect 5 0 0 1;
#X connect 6 0 7 0;
#X connect 7 0 8 2;
#X connect 9 0 8 0;
#X connect 10 0 9 0;
#X connect 11 0 9 4;
#X connect 11 0 13 0;
#X connect 12 0 14 0;
#X connect 14 0 8 1;
#X connect 15 0 3 0;
