#N canvas 213 54 1132 511 10;
#X obj 5 -276 bignanosynthcontrol 0;
#X obj 72 -276 bignanosynthcontrol 1;
#X obj 139 -276 bignanosynthcontrol 2;
#X obj 206 -276 bignanosynthcontrol 3;
#X obj 273 -276 bignanosynthcontrol 4;
#X obj 340 -276 bignanosynthcontrol 5;
#X obj 407 -276 bignanosynthcontrol 6;
#X obj 474 -276 bignanosynthcontrol 7;
#X obj 541 -276 bignanosynthcontrol 8;
#X obj 608 -276 bignanosynthcontrol 9;
#X obj 675 -276 bignanosynthcontrol 10;
#X obj 742 -276 bignanosynthcontrol 11;
#X obj 809 -276 bignanosynthcontrol 12;
#X obj 876 -276 bignanosynthcontrol 13;
#X obj 943 -276 bignanosynthcontrol 14;
#X obj 1010 -276 bignanosynthcontrol 15;
#N canvas 464 371 711 432 namechart 0;
#N canvas 356 269 533 535 list 0;
#X obj 101 103 scrolllist 100 96 94 {Helvetica 10 bold} black green
red;
#X obj 86 54 list2symbol;
#X msg 109 78 add \$1;
#X obj 101 101 cnv 1 96 1 empty empty empty 20 12 0 14 -1 -66577 0
;
#X msg 176 55 clear;
#X obj 86 3 inlet;
#X obj -37 431 outlet;
#X obj 145 22 route clear;
#X obj 169 292 r channelchoice;
#X obj 125 226 list prepend python namerecog.py ";
#X obj 125 247 list append ";
#X msg 125 268 \$1 \$2 \$3 \$4 \$5 \$6 \$7 \$8;
#X obj 126 290 shell;
#X obj 125 314 pack f f;
#X msg 125 337 \$2 \$1 0;
#X obj 124 361 s patchctl;
#X connect 0 0 6 0;
#X connect 0 0 9 0;
#X connect 1 0 2 0;
#X connect 2 0 0 0;
#X connect 4 0 0 0;
#X connect 5 0 7 0;
#X connect 7 0 4 0;
#X connect 7 1 1 0;
#X connect 8 0 13 1;
#X connect 9 0 10 0;
#X connect 10 0 11 0;
#X connect 11 0 12 0;
#X connect 12 0 13 0;
#X connect 13 0 14 0;
#X connect 14 0 15 0;
#X coords 0 -1 1 1 98 98 2 100 100;
#X restore 101 101 pd list;
#X obj 286 53 route 0 1 2 3 4;
#X obj 187 27 countto 5;
#X obj 187 49 list append;
#X obj 185 6 bang;
#X msg 327 1 clear;
#N canvas 0 0 450 300 list 0;
#X obj 101 103 scrolllist 100 96 94 {Helvetica 10 bold} black green
red;
#X obj 86 54 list2symbol;
#X msg 109 78 add \$1;
#X obj 101 101 cnv 1 96 1 empty empty empty 20 12 0 14 -1 -66577 0
;
#X msg 176 55 clear;
#X obj 86 3 inlet;
#X obj 99 204 outlet;
#X obj 145 22 route clear;
#X obj 179 302 r channelchoice;
#X obj 135 236 list prepend python namerecog.py ";
#X obj 135 257 list append ";
#X msg 135 278 \$1 \$2 \$3 \$4 \$5 \$6 \$7 \$8;
#X obj 136 300 shell;
#X obj 135 324 pack f f;
#X obj 134 371 s patchctl;
#X msg 135 346 \$2 \$1 1;
#X connect 0 0 6 0;
#X connect 0 0 9 0;
#X connect 1 0 2 0;
#X connect 2 0 0 0;
#X connect 4 0 0 0;
#X connect 5 0 7 0;
#X connect 7 0 4 0;
#X connect 7 1 1 0;
#X connect 8 0 13 1;
#X connect 9 0 10 0;
#X connect 10 0 11 0;
#X connect 11 0 12 0;
#X connect 12 0 13 0;
#X connect 13 0 15 0;
#X connect 15 0 14 0;
#X coords 0 -1 1 1 98 98 2 100 100;
#X restore 199 101 pd list;
#N canvas 0 0 450 300 list 0;
#X obj 101 103 scrolllist 100 96 94 {Helvetica 10 bold} black green
red;
#X obj 86 54 list2symbol;
#X msg 109 78 add \$1;
#X msg 176 55 clear;
#X obj 86 3 inlet;
#X obj 99 204 outlet;
#X obj 145 22 route clear;
#X obj 101 101 cnv 1 96 1 empty empty empty 20 12 0 14 -1 -66577 0
;
#X obj 189 312 r channelchoice;
#X obj 145 246 list prepend python namerecog.py ";
#X obj 145 267 list append ";
#X msg 145 288 \$1 \$2 \$3 \$4 \$5 \$6 \$7 \$8;
#X obj 146 310 shell;
#X obj 145 334 pack f f;
#X obj 144 381 s patchctl;
#X msg 145 357 \$2 \$1 2;
#X connect 0 0 5 0;
#X connect 0 0 9 0;
#X connect 1 0 2 0;
#X connect 2 0 0 0;
#X connect 3 0 0 0;
#X connect 4 0 6 0;
#X connect 6 0 3 0;
#X connect 6 1 1 0;
#X connect 8 0 13 1;
#X connect 9 0 10 0;
#X connect 10 0 11 0;
#X connect 11 0 12 0;
#X connect 12 0 13 0;
#X connect 13 0 15 0;
#X connect 15 0 14 0;
#X coords 0 -1 1 1 98 98 2 100 100;
#X restore 297 101 pd list;
#N canvas 0 0 450 300 list 0;
#X obj 101 103 scrolllist 100 96 94 {Helvetica 10 bold} black green
red;
#X obj 86 54 list2symbol;
#X msg 109 78 add \$1;
#X obj 101 101 cnv 1 96 1 empty empty empty 20 12 0 14 -1 -66577 0
;
#X msg 176 55 clear;
#X obj 86 3 inlet;
#X obj 99 204 outlet;
#X obj 145 22 route clear;
#X obj 199 322 r channelchoice;
#X obj 155 256 list prepend python namerecog.py ";
#X obj 155 277 list append ";
#X msg 155 298 \$1 \$2 \$3 \$4 \$5 \$6 \$7 \$8;
#X obj 156 320 shell;
#X obj 155 344 pack f f;
#X obj 154 391 s patchctl;
#X msg 155 367 \$2 \$1 3;
#X connect 0 0 6 0;
#X connect 0 0 9 0;
#X connect 1 0 2 0;
#X connect 2 0 0 0;
#X connect 4 0 0 0;
#X connect 5 0 7 0;
#X connect 7 0 4 0;
#X connect 7 1 1 0;
#X connect 8 0 13 1;
#X connect 9 0 10 0;
#X connect 10 0 11 0;
#X connect 11 0 12 0;
#X connect 12 0 13 0;
#X connect 13 0 15 0;
#X connect 15 0 14 0;
#X coords 0 -1 1 1 98 98 2 100 100;
#X restore 395 101 pd list;
#N canvas 0 0 450 300 list 0;
#X obj 101 103 scrolllist 100 96 94 {Helvetica 10 bold} black green
red;
#X obj 86 54 list2symbol;
#X msg 109 78 add \$1;
#X obj 101 101 cnv 1 96 1 empty empty empty 20 12 0 14 -1 -66577 0
;
#X msg 176 55 clear;
#X obj 86 3 inlet;
#X obj 99 204 outlet;
#X obj 145 22 route clear;
#X obj 209 302 r channelchoice;
#X obj 165 236 list prepend python namerecog.py ";
#X obj 165 257 list append ";
#X msg 165 278 \$1 \$2 \$3 \$4 \$5 \$6 \$7 \$8;
#X obj 166 300 shell;
#X obj 165 324 pack f f;
#X obj 164 371 s patchctl;
#X msg 165 347 \$2 \$1 4;
#X connect 0 0 6 0;
#X connect 0 0 9 0;
#X connect 1 0 2 0;
#X connect 2 0 0 0;
#X connect 4 0 0 0;
#X connect 5 0 7 0;
#X connect 7 0 4 0;
#X connect 7 1 1 0;
#X connect 8 0 13 1;
#X connect 9 0 10 0;
#X connect 10 0 11 0;
#X connect 11 0 12 0;
#X connect 12 0 13 0;
#X connect 13 0 15 0;
#X connect 15 0 14 0;
#X coords 0 -1 1 1 98 98 2 100 100;
#X restore 493 101 pd list;
#X obj 310 221 bang;
#X obj 356 -41 bang;
#X msg 275 -16 stop;
#X obj 298 -68 bng 15 250 50 0 empty empty empty 17 7 0 10 -262144
-1 -1;
#X obj 321 -64 countto 6;
#X obj 277 -38 sel 5;
#X obj 197 -36 t b a;
#N canvas 345 80 1067 599 5bankread 0;
#X obj 220 -201 textfile;
#X msg 349 -300 rewind;
#X obj 485 -349 loadbang;
#X msg 252 -225 read bank.a.txt;
#X obj 400 -201 textfile;
#X msg 432 -225 read bank.b.txt;
#X obj 570 -201 textfile;
#X obj 710 -201 textfile;
#X obj 859 -200 textfile;
#X msg 892 -225 read bank.e.txt;
#X msg 742 -225 read bank.d.txt;
#X msg 602 -225 read bank.c.txt;
#X obj 485 -326 t b b;
#N canvas 342 540 383 279 throwaway 0;
#X obj 157 -4 inlet;
#X obj 134 215 outlet;
#X obj 43 32 r namebank;
#X obj 48 102 unpack;
#X obj 197 156 * 8;
#X obj 196 179 until;
#X obj 193 217 outlet;
#X obj 248 234 outlet;
#X obj 76 217 outlet;
#X obj 25 218 outlet;
#X obj 161 56 s clearscreen;
#X obj 170 130 t b b f b;
#X obj 111 106 t f b;
#X obj 173 106 pipe 120;
#N canvas 0 0 450 300 init_ignore 0;
#X obj 134 92 sel 0;
#X obj 130 72 route 15;
#X obj 135 114 countto 2;
#X obj 156 140 sel 1;
#X msg 160 162 1;
#X obj 93 159 spigot 0;
#X obj 120 19 inlet;
#X obj 128 227 outlet;
#X connect 0 0 2 0;
#X connect 1 0 0 0;
#X connect 2 0 3 0;
#X connect 3 0 4 0;
#X connect 4 0 5 1;
#X connect 5 0 7 0;
#X connect 6 0 5 0;
#X connect 6 0 1 0;
#X restore 42 71 pd init_ignore;
#X connect 2 0 14 0;
#X connect 3 0 9 0;
#X connect 3 1 12 0;
#X connect 4 0 5 0;
#X connect 5 0 6 0;
#X connect 11 0 8 0;
#X connect 11 1 1 0;
#X connect 11 2 4 0;
#X connect 11 3 7 0;
#X connect 12 0 13 0;
#X connect 12 1 10 0;
#X connect 13 0 11 0;
#X connect 14 0 3 0;
#X restore 623 -457 pd throwaway;
#X obj 720 -128 spigot;
#X msg 749 -149 1;
#X msg 775 -149 0;
#N canvas 0 0 450 300 distribute_bangs_across_banks 0;
#X obj 25 245 outlet;
#X obj 95 245 outlet;
#X obj 155 245 outlet;
#X obj 215 245 outlet;
#X obj 285 245 outlet;
#X obj 78 16 inlet;
#X obj 143 155 sel 0 1 2 3 4;
#X obj 147 130 % 5;
#X obj 105 97 sel 40;
#X obj 111 70 countto 41;
#X obj 209 70 bang;
#X obj 83 41 bang;
#X obj 198 96 del 20;
#X connect 5 0 11 0;
#X connect 6 0 0 0;
#X connect 6 1 1 0;
#X connect 6 2 2 0;
#X connect 6 3 3 0;
#X connect 6 4 4 0;
#X connect 7 0 6 0;
#X connect 8 1 7 0;
#X connect 8 1 10 0;
#X connect 9 0 8 0;
#X connect 10 0 12 0;
#X connect 11 0 9 0;
#X connect 12 0 9 0;
#X restore 422 -272 pd distribute_bangs_across_banks;
#X obj 699 -54 outlet;
#X obj 451 -410 s channelchoice;
#X connect 0 0 14 0;
#X connect 1 0 0 0;
#X connect 1 0 4 0;
#X connect 1 0 6 0;
#X connect 1 0 7 0;
#X connect 1 0 8 0;
#X connect 2 0 12 0;
#X connect 3 0 0 0;
#X connect 4 0 14 0;
#X connect 5 0 4 0;
#X connect 6 0 14 0;
#X connect 7 0 14 0;
#X connect 8 0 14 0;
#X connect 9 0 8 0;
#X connect 10 0 7 0;
#X connect 11 0 6 0;
#X connect 12 0 1 0;
#X connect 12 1 9 0;
#X connect 12 1 10 0;
#X connect 12 1 11 0;
#X connect 12 1 5 0;
#X connect 12 1 3 0;
#X connect 13 0 19 0;
#X connect 13 1 17 0;
#X connect 13 2 15 0;
#X connect 13 3 0 0;
#X connect 13 3 4 0;
#X connect 13 3 6 0;
#X connect 13 3 7 0;
#X connect 13 3 8 0;
#X connect 13 4 1 0;
#X connect 13 4 16 0;
#X connect 14 0 18 0;
#X connect 15 0 14 1;
#X connect 16 0 14 1;
#X connect 17 0 0 0;
#X connect 17 1 4 0;
#X connect 17 2 6 0;
#X connect 17 3 7 0;
#X connect 17 4 8 0;
#X restore 165 -79 pd 5bankread;
#X obj 108 52 s namebank;
#X msg 95 -2 0 3;
#X obj 698 181 image megaman.gif;
#X obj 456 243 pack;
#X floatatom 441 219 5 0 0 0 - - -;
#X floatatom 481 216 5 0 0 0 - - -;
#X obj 306 243 s clearscreen;
#X obj 315 -116 r clearscreen;
#X obj 321 -88 bang;
#X obj 353 -23 delay 20;
#X msg 456 266 \$1 \$2;
#X obj 100 441 ctlout;
#X obj 153 438 pgmout;
#X floatatom 105 380 5 0 0 0 - - -;
#X obj 92 362 hradio 15 1 0 5 empty empty empty 0 -8 0 10 -262144 -1
-1 1;
#X obj 163 408 + 1;
#X obj 115 405 + 1;
#X obj 139 210 r patchctl;
#X obj 157 289 unpack f f f;
#X msg 168 251 \$3 \$2 \$1;
#X obj 185 314 % 128;
#X connect 0 0 10 0;
#X connect 1 0 0 0;
#X connect 1 1 6 0;
#X connect 1 2 7 0;
#X connect 1 3 8 0;
#X connect 1 4 9 0;
#X connect 2 0 3 0;
#X connect 3 0 1 0;
#X connect 4 0 2 0;
#X connect 5 0 3 1;
#X connect 5 0 4 0;
#X connect 6 0 10 0;
#X connect 7 0 10 0;
#X connect 8 0 10 0;
#X connect 9 0 10 0;
#X connect 10 0 24 0;
#X connect 11 0 27 0;
#X connect 12 0 27 0;
#X connect 13 0 14 0;
#X connect 14 0 11 0;
#X connect 14 0 15 0;
#X connect 15 0 12 0;
#X connect 16 0 4 0;
#X connect 16 1 3 1;
#X connect 17 0 16 0;
#X connect 19 0 18 0;
#X connect 21 0 28 0;
#X connect 22 0 21 0;
#X connect 23 0 21 1;
#X connect 25 0 26 0;
#X connect 26 0 14 0;
#X connect 27 0 5 0;
#X connect 27 0 14 0;
#X connect 28 0 20 0;
#X connect 31 0 34 0;
#X connect 32 0 29 0;
#X connect 33 0 30 1;
#X connect 33 0 29 2;
#X connect 34 0 30 0;
#X connect 35 0 37 0;
#X connect 36 0 32 0;
#X connect 36 1 38 0;
#X connect 36 2 33 0;
#X connect 37 0 36 0;
#X connect 38 0 31 0;
#X coords 0 -1 1 1 492 100 2 100 100;
#X restore 584 13 pd namechart;
