#N canvas 524 272 750 596 10;
#X obj 298 91 ctlout;
#X obj 98 153 makenote;
#X obj 69 12 tgl 15 0 empty empty empty 17 7 0 10 -262144 -1 -1 0 1
;
#X obj 88 42 countto 4;
#X obj 92 66 sel 0 1 2 3;
#X msg 83 92 45;
#X msg 126 93 48;
#X msg 165 91 52;
#X msg 199 91 55;
#X obj 351 88 pgmout;
#X floatatom 303 30 5 0 0 0 - - -;
#X obj 104 180 noteout 1;
#X obj 305 370 makenote;
#X obj 272 181 tgl 15 0 empty empty empty 17 7 0 10 -262144 -1 -1 0
1;
#X obj 291 211 countto 4;
#X obj 276 240 sel 0 1 2 3;
#X msg 321 281 52;
#X obj 312 397 noteout 2;
#X msg 267 266 57;
#X msg 294 272 55;
#X msg 345 288 60;
#X msg 298 347 \$1 67 700;
#X obj 182 162 random 4;
#X obj 372 209 random 50;
#X obj 299 320 pack f f;
#X obj 99 14 metro 1000;
#X obj -9 309 makenote;
#X obj -25 136 tgl 15 0 empty empty empty 17 7 0 10 -262144 -1 -1 0
1;
#X obj -6 166 countto 4;
#X obj -2 190 sel 0 1 2 3;
#X obj -3 344 noteout 1;
#X msg -12 217 72;
#X msg 32 216 69;
#X msg 71 215 64;
#X msg 104 216 67;
#X obj 4 138 metro 1200;
#X obj 290 12 hradio 15 1 0 5 empty empty empty 0 -8 0 10 -262144 -1
-1 0;
#X obj 362 27 hradio 15 1 0 3 empty empty empty 0 -8 0 10 -262144 -1
-1 0;
#X obj 361 58 + 1;
#X obj 313 55 + 1;
#X obj 376 271 + 30;
#X obj 387 296 oldcontroller;
#X obj 163 340 scaleloader;
#X obj 124 404 scalecollector;
#X obj 90 361 route key;
#N canvas 0 0 450 300 selbuton 0;
#X obj 141 12 inlet;
#X obj 150 254 outlet;
#X obj 125 69 sel btn_0 btn_1 btn_2 btn_3;
#X obj 268 89 sel btn_4 btn_5 btn_6 btn_7;
#X obj 245 237 int;
#X obj 165 41 unpack s f;
#X obj 235 154 sel 1;
#X obj 238 182 del 5;
#X msg 116 107 1;
#X msg 125 131 2;
#X msg 135 154 3;
#X msg 153 179 4;
#X msg 268 127 5;
#X msg 276 150 6;
#X msg 287 174 7;
#X msg 303 199 8;
#X connect 0 0 5 0;
#X connect 2 0 8 0;
#X connect 2 1 9 0;
#X connect 2 2 10 0;
#X connect 2 3 11 0;
#X connect 2 4 3 0;
#X connect 3 0 12 0;
#X connect 3 1 13 0;
#X connect 3 2 14 0;
#X connect 3 3 15 0;
#X connect 4 0 1 0;
#X connect 5 0 2 0;
#X connect 5 1 6 0;
#X connect 6 0 7 0;
#X connect 7 0 4 0;
#X connect 8 0 4 1;
#X connect 9 0 4 1;
#X connect 10 0 4 1;
#X connect 11 0 4 1;
#X connect 12 0 4 1;
#X connect 13 0 4 1;
#X connect 14 0 4 1;
#X connect 15 0 4 1;
#X restore 90 382 pd selbuton;
#X obj 103 465 makenote;
#X obj 110 500 noteout 3;
#X obj -2 385 route abs;
#X obj 21 408 route abs_y;
#X msg 102 431 \$1 5000 100;
#X msg -10 275 \$1 70 1100;
#X msg 90 129 \$1 100 900;
#X floatatom -9 480 5 0 0 0 - - -;
#X obj 3 434 int;
#X obj 489 297 scrolllist 100 80 166 {Helvetica 10 bold} black green
red;
#X msg 458 237 add \$1;
#X msg 488 261 bgcolor black;
#X msg 589 238 fgcolor green;
#X msg 620 267 secolor red;
#X msg 650 398 clear;
#X obj 511 138 textfile;
#X msg 548 44 read nanobank.txt;
#X msg 529 66 rewind;
#X obj 470 184 list2symbol;
#X msg 451 198 symbol cadavbloom;
#X obj 489 464 grid patchsel 80 0 8 50 0 5 1 1 1 8 5 539 504;
#X floatatom 481 533 5 0 0 0 - - -;
#X floatatom 557 527 5 0 0 0 - - -;
#X msg 636 447 color 0 0 0;
#X msg 596 315 clear;
#N canvas 0 0 553 437 selbank 0;
#X obj 178 40 inlet;
#X obj 95 350 outlet;
#X obj 237 63 sel Piano Chromatic Organ;
#X obj 232 87 sel Guitar Bass Strings;
#X obj 223 107 sel Ensemble Brass Reed;
#X obj 221 128 sel Pipe SynthLead SynthPad;
#X obj 250 186 sel synthFX Ethnic Drum/Perc Effects;
#X msg 90 130 0;
#X msg 121 130 1;
#X msg 150 130 2;
#X msg 85 161 3;
#X msg 115 161 4;
#X msg 146 161 5;
#X msg 86 190 6;
#X msg 117 189 7;
#X msg 146 190 8;
#X msg 91 213 9;
#X msg 122 213 10;
#X msg 152 213 11;
#X msg 88 243 12;
#X msg 119 243 13;
#X msg 148 243 14;
#X msg 170 258 15;
#X connect 0 0 2 0;
#X connect 2 0 7 0;
#X connect 2 1 8 0;
#X connect 2 2 9 0;
#X connect 2 3 3 0;
#X connect 3 0 10 0;
#X connect 3 1 11 0;
#X connect 3 2 12 0;
#X connect 3 3 4 0;
#X connect 4 0 13 0;
#X connect 4 1 14 0;
#X connect 4 2 15 0;
#X connect 4 3 5 0;
#X connect 5 0 16 0;
#X connect 5 1 17 0;
#X connect 5 2 18 0;
#X connect 5 3 6 0;
#X connect 6 0 19 0;
#X connect 6 1 20 0;
#X connect 6 2 21 0;
#X connect 6 3 22 0;
#X connect 7 0 1 0;
#X connect 8 0 1 0;
#X connect 9 0 1 0;
#X connect 10 0 1 0;
#X connect 11 0 1 0;
#X connect 12 0 1 0;
#X connect 13 0 1 0;
#X connect 14 0 1 0;
#X connect 15 0 1 0;
#X connect 16 0 1 0;
#X connect 17 0 1 0;
#X connect 18 0 1 0;
#X connect 19 0 1 0;
#X connect 20 0 1 0;
#X connect 21 0 1 0;
#X connect 22 0 1 0;
#X restore 362 480 pd selbank;
#X floatatom 657 166 5 0 0 0 - - -;
#X msg 607 195 seek \$1;
#X msg 407 391 values 5 1;
#X obj 200 538 hradio 15 1 0 15 empty empty empty 0 -8 0 10 -262144
-1 -1 0;
#X msg 584 11 clear;
#N canvas 0 0 450 300 bangtildun 0;
#X obj 112 52 inlet;
#X obj 261 24 inlet;
#X obj 86 254 outlet;
#X obj 251 249 outlet;
#X msg 204 86 stop;
#X obj 227 177 int 0;
#X obj 268 178 + 1;
#X obj 251 211 int;
#X obj 193 179 bang;
#X msg 252 149 0;
#X obj 37 131 delay 5;
#X obj 228 60 bang;
#X obj 134 128 delay 50;
#X obj 84 228 spigot;
#X msg 148 192 0;
#X obj 84 176 t b b;
#X msg 112 200 1;
#X connect 0 0 12 0;
#X connect 0 0 15 0;
#X connect 1 0 11 0;
#X connect 4 0 8 0;
#X connect 4 0 9 0;
#X connect 4 0 10 0;
#X connect 4 0 12 0;
#X connect 4 0 14 0;
#X connect 5 0 6 0;
#X connect 6 0 5 1;
#X connect 6 0 7 1;
#X connect 7 0 3 0;
#X connect 8 0 7 0;
#X connect 9 0 5 1;
#X connect 10 0 12 0;
#X connect 11 0 4 0;
#X connect 12 0 5 0;
#X connect 12 0 10 0;
#X connect 12 0 15 0;
#X connect 13 0 2 0;
#X connect 14 0 13 1;
#X connect 15 0 13 0;
#X connect 15 1 16 0;
#X connect 16 0 13 1;
#X restore 505 94 pd bangtildun;
#N canvas 0 0 450 300 scrollything 0;
#X obj 138 37 inlet;
#X obj 125 220 outlet;
#X obj 222 95 t b f;
#X msg 148 187 seek \$1;
#X floatatom 285 250 5 0 0 0 - - -;
#X floatatom 224 249 5 0 0 0 - - -;
#X obj 143 148 countto 2;
#X obj 300 132 - 1;
#X obj 138 120 metro 50;
#X msg 141 92 0;
#X obj 278 175 sel 1;
#X connect 0 0 2 0;
#X connect 2 0 8 0;
#X connect 2 1 7 0;
#X connect 2 1 6 1;
#X connect 3 0 1 0;
#X connect 6 0 3 0;
#X connect 7 0 10 1;
#X connect 7 0 4 0;
#X connect 8 0 6 0;
#X connect 9 0 8 0;
#X connect 10 0 9 0;
#X restore 585 131 pd scrollything;
#X obj 472 10 t b b b b;
#X obj 427 2 bng 15 250 50 0 empty empty empty 17 7 0 10 -262144 -1
-1;
#X obj 227 49;
#X obj 442 111 bng 15 250 50 0 empty empty empty 17 7 0 10 -262144
-1 -1;
#X msg 407 43 3;
#X obj 302 183 metro 1000;
#X floatatom 393 162 5 0 0 0 - - -;
#X obj 30 431 * 64;
#X obj 9 508 bendout 3;
#X obj 24 462 - 8128;
#X connect 1 0 11 0;
#X connect 1 1 11 1;
#X connect 2 0 25 0;
#X connect 3 0 4 0;
#X connect 4 0 5 0;
#X connect 4 1 6 0;
#X connect 4 2 7 0;
#X connect 4 3 8 0;
#X connect 5 0 52 0;
#X connect 6 0 52 0;
#X connect 7 0 52 0;
#X connect 8 0 52 0;
#X connect 10 0 39 0;
#X connect 12 0 17 0;
#X connect 12 1 17 1;
#X connect 13 0 84 0;
#X connect 14 0 15 0;
#X connect 15 0 18 0;
#X connect 15 1 19 0;
#X connect 15 2 16 0;
#X connect 15 3 20 0;
#X connect 16 0 24 0;
#X connect 18 0 24 0;
#X connect 19 0 24 0;
#X connect 20 0 24 0;
#X connect 21 0 12 0;
#X connect 22 0 15 0;
#X connect 23 0 40 0;
#X connect 24 0 21 0;
#X connect 25 0 3 0;
#X connect 25 0 22 0;
#X connect 26 0 30 0;
#X connect 26 1 30 1;
#X connect 27 0 35 0;
#X connect 28 0 29 0;
#X connect 29 0 31 0;
#X connect 29 1 32 0;
#X connect 29 2 33 0;
#X connect 29 3 34 0;
#X connect 31 0 51 0;
#X connect 32 0 51 0;
#X connect 33 0 51 0;
#X connect 34 0 51 0;
#X connect 35 0 28 0;
#X connect 36 0 0 0;
#X connect 37 0 38 0;
#X connect 38 0 9 1;
#X connect 38 0 0 2;
#X connect 39 0 9 0;
#X connect 40 0 24 1;
#X connect 41 0 44 0;
#X connect 41 0 48 0;
#X connect 42 0 43 1;
#X connect 42 1 43 2;
#X connect 43 0 50 0;
#X connect 44 0 45 0;
#X connect 45 0 43 0;
#X connect 46 0 47 0;
#X connect 46 1 47 1;
#X connect 48 0 49 0;
#X connect 49 0 86 0;
#X connect 50 0 46 0;
#X connect 51 0 26 0;
#X connect 52 0 1 0;
#X connect 53 0 87 0;
#X connect 54 0 88 0;
#X connect 55 0 71 0;
#X connect 56 0 55 0;
#X connect 57 0 55 0;
#X connect 58 0 55 0;
#X connect 59 0 55 0;
#X connect 60 0 55 0;
#X connect 61 0 64 0;
#X connect 61 1 77 1;
#X connect 62 0 61 0;
#X connect 63 0 61 0;
#X connect 64 0 56 0;
#X connect 66 0 67 0;
#X connect 66 1 68 0;
#X connect 69 0 66 0;
#X connect 70 0 55 0;
#X connect 71 0 75 0;
#X connect 72 0 73 0;
#X connect 73 0 55 0;
#X connect 74 0 66 0;
#X connect 76 0 55 0;
#X connect 77 0 61 0;
#X connect 77 0 82 0;
#X connect 77 1 78 0;
#X connect 78 0 55 0;
#X connect 79 0 77 0;
#X connect 79 1 63 0;
#X connect 79 2 62 0;
#X connect 79 3 76 0;
#X connect 80 0 79 0;
#X connect 83 0 9 1;
#X connect 83 0 0 2;
#X connect 84 0 14 0;
#X connect 84 0 23 0;
#X connect 85 0 84 1;
#X connect 86 0 54 0;
#X connect 88 0 53 0;
