#N canvas 243 94 1017 506 10;
#X obj 102 101 bignanosynthcontrol 0;
#N canvas 255 275 963 431 namechart 0;
#N canvas 356 265 533 535 list 0;
#X obj 101 101 scrolllist 90 86 86 {Helvetica 10 bold} black green
red;
#X obj 86 54 list2symbol;
#X msg 109 78 add \$1;
#X msg 176 55 clear;
#X obj 86 3 inlet;
#X obj -37 431 outlet;
#X obj 145 22 route clear;
#X obj 169 292 r channelchoice;
#X obj 125 226 list prepend python namerecog.py ";
#X obj 125 247 list append ";
#X msg 125 268 \$1 \$2 \$3 \$4 \$5 \$6 \$7 \$8;
#X obj 126 290 shell;
#X obj 125 314 pack f f;
#X msg 125 337 \$2 \$1 0;
#X obj 124 361 s patchctl;
#X connect 0 0 5 0;
#X connect 0 0 8 0;
#X connect 1 0 2 0;
#X connect 2 0 0 0;
#X connect 3 0 0 0;
#X connect 4 0 6 0;
#X connect 6 0 3 0;
#X connect 6 1 1 0;
#X connect 7 0 12 1;
#X connect 8 0 9 0;
#X connect 9 0 10 0;
#X connect 10 0 11 0;
#X connect 11 0 12 0;
#X connect 12 0 13 0;
#X connect 13 0 14 0;
#X coords 0 -1 1 1 88 88 2 100 100;
#X restore 101 101 pd list;
#X obj 286 53 route 0 1 2 3 4;
#X obj 187 27 countto 5;
#X obj 187 49 list append;
#X obj 185 6 bang;
#X msg 327 1 clear;
#N canvas 0 0 450 300 list 0;
#X obj 101 101 scrolllist 90 86 86 {Helvetica 10 bold} black green
red;
#X obj 86 54 list2symbol;
#X msg 109 78 add \$1;
#X msg 176 55 clear;
#X obj 86 3 inlet;
#X obj 99 204 outlet;
#X obj 145 22 route clear;
#X obj 179 302 r channelchoice;
#X obj 135 236 list prepend python namerecog.py ";
#X obj 135 257 list append ";
#X msg 135 278 \$1 \$2 \$3 \$4 \$5 \$6 \$7 \$8;
#X obj 136 300 shell;
#X obj 135 324 pack f f;
#X obj 134 371 s patchctl;
#X msg 135 346 \$2 \$1 1;
#X connect 0 0 5 0;
#X connect 0 0 8 0;
#X connect 1 0 2 0;
#X connect 2 0 0 0;
#X connect 3 0 0 0;
#X connect 4 0 6 0;
#X connect 6 0 3 0;
#X connect 6 1 1 0;
#X connect 7 0 12 1;
#X connect 8 0 9 0;
#X connect 9 0 10 0;
#X connect 10 0 11 0;
#X connect 11 0 12 0;
#X connect 12 0 14 0;
#X connect 14 0 13 0;
#X coords 0 -1 1 1 88 88 2 100 100;
#X restore 190 101 pd list;
#N canvas 0 0 450 300 list 0;
#X obj 101 101 scrolllist 90 86 86 {Helvetica 10 bold} black green
red;
#X obj 86 54 list2symbol;
#X msg 109 78 add \$1;
#X msg 176 55 clear;
#X obj 86 3 inlet;
#X obj 99 204 outlet;
#X obj 145 22 route clear;
#X obj 189 312 r channelchoice;
#X obj 145 246 list prepend python namerecog.py ";
#X obj 145 267 list append ";
#X msg 145 288 \$1 \$2 \$3 \$4 \$5 \$6 \$7 \$8;
#X obj 146 310 shell;
#X obj 145 334 pack f f;
#X obj 144 381 s patchctl;
#X msg 145 357 \$2 \$1 2;
#X connect 0 0 5 0;
#X connect 0 0 8 0;
#X connect 1 0 2 0;
#X connect 2 0 0 0;
#X connect 3 0 0 0;
#X connect 4 0 6 0;
#X connect 6 0 3 0;
#X connect 6 1 1 0;
#X connect 7 0 12 1;
#X connect 8 0 9 0;
#X connect 9 0 10 0;
#X connect 10 0 11 0;
#X connect 11 0 12 0;
#X connect 12 0 14 0;
#X connect 14 0 13 0;
#X coords 0 -1 1 1 88 88 2 100 100;
#X restore 279 101 pd list;
#N canvas 0 0 450 300 list 0;
#X obj 101 101 scrolllist 90 86 86 {Helvetica 10 bold} black green
red;
#X obj 86 54 list2symbol;
#X msg 109 78 add \$1;
#X msg 176 55 clear;
#X obj 86 3 inlet;
#X obj 99 204 outlet;
#X obj 145 22 route clear;
#X obj 199 322 r channelchoice;
#X obj 155 256 list prepend python namerecog.py ";
#X obj 155 277 list append ";
#X msg 155 298 \$1 \$2 \$3 \$4 \$5 \$6 \$7 \$8;
#X obj 156 320 shell;
#X obj 155 344 pack f f;
#X obj 154 391 s patchctl;
#X msg 155 367 \$2 \$1 3;
#X connect 0 0 5 0;
#X connect 0 0 8 0;
#X connect 1 0 2 0;
#X connect 2 0 0 0;
#X connect 3 0 0 0;
#X connect 4 0 6 0;
#X connect 6 0 3 0;
#X connect 6 1 1 0;
#X connect 7 0 12 1;
#X connect 8 0 9 0;
#X connect 9 0 10 0;
#X connect 10 0 11 0;
#X connect 11 0 12 0;
#X connect 12 0 14 0;
#X connect 14 0 13 0;
#X coords 0 -1 1 1 88 88 2 100 100;
#X restore 368 101 pd list;
#N canvas 0 0 450 300 list 0;
#X obj 101 101 scrolllist 90 86 86 {Helvetica 10 bold} black green
red;
#X obj 86 54 list2symbol;
#X msg 109 78 add \$1;
#X msg 176 55 clear;
#X obj 86 3 inlet;
#X obj 99 204 outlet;
#X obj 145 22 route clear;
#X obj 209 302 r channelchoice;
#X obj 165 236 list prepend python namerecog.py ";
#X obj 165 257 list append ";
#X msg 165 278 \$1 \$2 \$3 \$4 \$5 \$6 \$7 \$8;
#X obj 166 300 shell;
#X obj 165 324 pack f f;
#X obj 164 371 s patchctl;
#X msg 165 347 \$2 \$1 4;
#X connect 0 0 5 0;
#X connect 0 0 8 0;
#X connect 1 0 2 0;
#X connect 2 0 0 0;
#X connect 3 0 0 0;
#X connect 4 0 6 0;
#X connect 6 0 3 0;
#X connect 6 1 1 0;
#X connect 7 0 12 1;
#X connect 8 0 9 0;
#X connect 9 0 10 0;
#X connect 10 0 11 0;
#X connect 11 0 12 0;
#X connect 12 0 14 0;
#X connect 14 0 13 0;
#X coords 0 -1 1 1 88 88 2 100 100;
#X restore 457 101 pd list;
#X obj 356 -41 bang;
#X msg 275 -16 stop;
#X obj 298 -68 bng 15 250 50 0 empty empty empty 17 7 0 10 -262144
-1 -1;
#X obj 321 -64 countto 6;
#X obj 277 -38 sel 5;
#X obj 197 -36 t b a;
#N canvas 0 80 1067 599 5bankread 0;
#X obj 220 -201 textfile;
#X msg 349 -300 rewind;
#X obj 485 -349 loadbang;
#X msg 252 -225 read bank.a.txt;
#X obj 400 -201 textfile;
#X msg 432 -225 read bank.b.txt;
#X obj 570 -201 textfile;
#X obj 710 -201 textfile;
#X obj 859 -200 textfile;
#X msg 892 -225 read bank.e.txt;
#X msg 742 -225 read bank.d.txt;
#X msg 602 -225 read bank.c.txt;
#X obj 485 -326 t b b;
#N canvas 342 489 383 279 throwaway 0;
#X obj 157 -4 inlet;
#X obj 134 215 outlet;
#X obj 43 32 r namebank;
#X obj 48 102 unpack;
#X obj 197 156 * 8;
#X obj 196 179 until;
#X obj 193 217 outlet;
#X obj 248 234 outlet;
#X obj 76 217 outlet;
#X obj 25 218 outlet;
#X obj 161 56 s clearscreen;
#X obj 170 130 t b b f b;
#X obj 111 106 t f b;
#X obj 173 106 pipe 120;
#N canvas 0 0 450 300 init_ignore 0;
#X obj 134 92 sel 0;
#X obj 130 72 route 15;
#X obj 135 114 countto 2;
#X obj 156 140 sel 1;
#X msg 160 162 1;
#X obj 93 159 spigot 0;
#X obj 120 19 inlet;
#X obj 128 227 outlet;
#X obj 233 -2 loadbang;
#X obj 235 28 del 3000;
#X connect 0 0 2 0;
#X connect 1 0 0 0;
#X connect 2 0 3 0;
#X connect 3 0 4 0;
#X connect 4 0 5 1;
#X connect 5 0 7 0;
#X connect 6 0 5 0;
#X connect 6 0 1 0;
#X connect 8 0 9 0;
#X connect 9 0 4 0;
#X restore 42 71 pd init_ignore;
#X connect 2 0 14 0;
#X connect 3 0 9 0;
#X connect 3 1 12 0;
#X connect 4 0 5 0;
#X connect 5 0 6 0;
#X connect 11 0 8 0;
#X connect 11 1 1 0;
#X connect 11 2 4 0;
#X connect 11 3 7 0;
#X connect 12 0 13 0;
#X connect 12 1 10 0;
#X connect 13 0 11 0;
#X connect 14 0 3 0;
#X restore 623 -457 pd throwaway;
#X obj 720 -128 spigot;
#X msg 749 -149 1;
#X msg 775 -149 0;
#N canvas 0 0 450 300 distribute_bangs_across_banks 0;
#X obj 25 245 outlet;
#X obj 95 245 outlet;
#X obj 155 245 outlet;
#X obj 215 245 outlet;
#X obj 285 245 outlet;
#X obj 78 16 inlet;
#X obj 143 155 sel 0 1 2 3 4;
#X obj 147 130 % 5;
#X obj 105 97 sel 40;
#X obj 111 70 countto 41;
#X obj 209 70 bang;
#X obj 83 41 bang;
#X obj 198 96 del 20;
#X connect 5 0 11 0;
#X connect 6 0 0 0;
#X connect 6 1 1 0;
#X connect 6 2 2 0;
#X connect 6 3 3 0;
#X connect 6 4 4 0;
#X connect 7 0 6 0;
#X connect 8 1 7 0;
#X connect 8 1 10 0;
#X connect 9 0 8 0;
#X connect 10 0 12 0;
#X connect 11 0 9 0;
#X connect 12 0 9 0;
#X restore 422 -272 pd distribute_bangs_across_banks;
#X obj 699 -54 outlet;
#X obj 451 -410 s channelchoice;
#X obj 793 -392 loadbang;
#X obj 794 -364 del 3000;
#X connect 0 0 14 0;
#X connect 1 0 0 0;
#X connect 1 0 4 0;
#X connect 1 0 6 0;
#X connect 1 0 7 0;
#X connect 1 0 8 0;
#X connect 2 0 12 0;
#X connect 3 0 0 0;
#X connect 4 0 14 0;
#X connect 5 0 4 0;
#X connect 6 0 14 0;
#X connect 7 0 14 0;
#X connect 8 0 14 0;
#X connect 9 0 8 0;
#X connect 10 0 7 0;
#X connect 11 0 6 0;
#X connect 12 0 1 0;
#X connect 12 1 9 0;
#X connect 12 1 10 0;
#X connect 12 1 11 0;
#X connect 12 1 5 0;
#X connect 12 1 3 0;
#X connect 13 0 19 0;
#X connect 13 1 17 0;
#X connect 13 2 15 0;
#X connect 13 3 0 0;
#X connect 13 3 4 0;
#X connect 13 3 6 0;
#X connect 13 3 7 0;
#X connect 13 3 8 0;
#X connect 13 4 1 0;
#X connect 13 4 16 0;
#X connect 14 0 18 0;
#X connect 15 0 14 1;
#X connect 16 0 14 1;
#X connect 17 0 0 0;
#X connect 17 1 4 0;
#X connect 17 2 6 0;
#X connect 17 3 7 0;
#X connect 17 4 8 0;
#X connect 20 0 21 0;
#X connect 21 0 15 0;
#X restore 165 -79 pd 5bankread;
#X obj 108 52 s namebank;
#X msg 95 -2 0 3;
#X obj 698 181 image megaman.gif;
#X obj 456 243 pack;
#X floatatom 441 219 5 0 0 0 - - -;
#X floatatom 481 216 5 0 0 0 - - -;
#X obj 315 -116 r clearscreen;
#X obj 321 -88 bang;
#X obj 353 -23 delay 20;
#X msg 456 266 \$1 \$2;
#X obj 100 441 ctlout;
#X obj 153 438 pgmout;
#X floatatom 105 380 5 0 0 0 - - -;
#X obj 92 362 hradio 15 1 0 5 empty empty empty 0 -8 0 10 -262144 -1
-1 0;
#X obj 163 408 + 1;
#X obj 115 405 + 1;
#X obj 139 210 r patchctl;
#X obj 157 289 unpack f f f;
#X msg 168 251 \$3 \$2 \$1;
#X obj 185 314 % 128;
#X obj 274 260 outlet;
#X connect 0 0 37 0;
#X connect 1 0 0 0;
#X connect 1 1 6 0;
#X connect 1 2 7 0;
#X connect 1 3 8 0;
#X connect 1 4 9 0;
#X connect 2 0 3 0;
#X connect 3 0 1 0;
#X connect 4 0 2 0;
#X connect 5 0 3 1;
#X connect 5 0 4 0;
#X connect 6 0 37 0;
#X connect 7 0 37 0;
#X connect 8 0 37 0;
#X connect 9 0 37 0;
#X connect 10 0 25 0;
#X connect 11 0 25 0;
#X connect 12 0 13 0;
#X connect 13 0 10 0;
#X connect 13 0 14 0;
#X connect 14 0 11 0;
#X connect 15 0 4 0;
#X connect 15 1 3 1;
#X connect 16 0 15 0;
#X connect 18 0 17 0;
#X connect 20 0 26 0;
#X connect 21 0 20 0;
#X connect 22 0 20 1;
#X connect 23 0 24 0;
#X connect 24 0 13 0;
#X connect 25 0 5 0;
#X connect 25 0 13 0;
#X connect 26 0 19 0;
#X connect 29 0 32 0;
#X connect 30 0 27 0;
#X connect 31 0 28 1;
#X connect 31 0 27 2;
#X connect 32 0 28 0;
#X connect 33 0 35 0;
#X connect 34 0 30 0;
#X connect 34 1 36 0;
#X connect 34 2 31 0;
#X connect 35 0 34 0;
#X connect 36 0 29 0;
#X coords 0 -1 1 1 446 90 2 100 100;
#X restore 167 183 pd namechart;
#X obj 709 241 r chansel;
#X obj 733 416 makefilename tog%d;
#X msg 732 441 \; \$1 0 \;;
#X obj 733 316 t b f;
#X obj 735 374 sel 0;
#X obj 668 311 countto 16;
#X obj 620 325 sel 0;
#X obj 645 347 bang;
#X obj 709 292 sel 0;
#X obj 701 344 + 1;
#X obj 644 369 del 10;
#X obj 355 368 r chansel;
#X obj 354 394 sel 0;
#X obj 359 437 send;
#X obj 381 416 makefilename \$0-2progname%d;
#X obj 170 102 cnv 15 443 80 empty empty empty 20 12 0 14 -1 -66577
0;
#X obj 280 143 cnv 15 110 18 empty \$0-selecshun empty 20 12 0 14 -4034
-66577 0;
#X obj 173 103 tgl 15 0 chansel tog1 1 6 7 0 10 -1 -4034 -4034 0 1
;
#X obj 173 124 tgl 15 0 chansel tog2 2 6 7 0 10 -1 -4034 -4034 0 2
;
#X obj 173 145 tgl 15 0 chansel tog3 3 6 7 0 10 -1 -4034 -4034 0 3
;
#X obj 173 167 tgl 15 0 chansel tog4 4 6 7 0 10 -1 -4034 -4034 0 4
;
#X obj 283 103 tgl 15 0 chansel tog5 5 6 7 0 10 -1 -4034 -4034 0 5
;
#X obj 283 124 tgl 15 0 chansel tog6 6 6 7 0 10 -1 -4034 -4034 0 6
;
#X obj 283 145 tgl 15 0 chansel tog7 7 6 7 0 10 -1 -4034 -4034 7 7
;
#X obj 283 167 tgl 15 0 chansel tog8 8 6 7 0 10 -1 -4034 -4034 0 8
;
#X obj 392 103 tgl 15 0 chansel tog9 9 6 7 0 10 -1 -4034 -4034 0 9
;
#X obj 392 124 tgl 15 0 chansel tog10 10 4 7 0 10 -1 -4034 -4034 0
10;
#X obj 392 145 tgl 15 0 chansel tog11 11 4 7 0 10 -1 -4034 -4034 0
11;
#X obj 392 167 tgl 15 0 chansel tog12 12 4 7 0 10 -1 -4034 -4034 0
12;
#X obj 502 103 tgl 15 0 chansel tog13 13 4 7 0 10 -1 -4034 -4034 0
13;
#X obj 502 124 tgl 15 0 chansel tog14 14 4 7 0 10 -1 -4034 -4034 0
14;
#X obj 502 145 tgl 15 0 chansel tog15 15 4 7 0 10 -1 -4034 -4034 0
15;
#X obj 502 167 tgl 15 0 chansel tog16 16 4 7 0 10 -1 -4034 -4034 0
16;
#X symbolatom 190 103 14 0 0 0 - #0-2progname1 #0-progname1;
#X symbolatom 190 124 14 0 0 0 - #0-2progname2 #0-progname2;
#X symbolatom 190 144 14 0 0 0 - #0-2progname3 #0-progname3;
#X symbolatom 190 165 14 0 0 0 - #0-2progname4 #0-progname4;
#X symbolatom 300 103 14 0 0 0 - #0-2progname5 #0-progname5;
#X symbolatom 300 124 14 0 0 0 - #0-2progname6 #0-progname6;
#X symbolatom 300 144 14 0 0 0 - #0-2progname7 #0-progname7;
#X symbolatom 300 165 14 0 0 0 - #0-2progname8 #0-progname8;
#X symbolatom 409 103 14 0 0 0 - #0-2progname9 #0-progname9;
#X symbolatom 409 124 14 0 0 0 - #0-2progname10 #0-progname10;
#X symbolatom 409 144 14 0 0 0 - #0-2progname11 #0-progname11;
#X symbolatom 409 165 14 0 0 0 - #0-2progname12 #0-progname12;
#X symbolatom 519 103 14 0 0 0 - #0-2progname13 #0-progname13;
#X symbolatom 519 124 14 0 0 0 - #0-2progname14 #0-progname14;
#X symbolatom 519 144 14 0 0 0 - #0-2progname15 #0-progname15;
#X symbolatom 519 165 14 0 0 0 - #0-2progname16 #0-progname16;
#X obj 814 321 s \$0-selecshun;
#X msg 795 298 pos \$1 \$2;
#X floatatom 789 244 5 0 0 0 - - -;
#X floatatom 834 245 5 0 0 0 - - -;
#X obj 789 276 pack f f;
#X obj 759 261 bang;
#X obj 780 110 r chansel;
#X obj 860 171 % 4;
#X obj 765 173 * 0.25;
#X obj 748 195 int;
#X obj 804 131 sel 0;
#X obj 807 151 - 1;
#X obj 755 215 expr $f1*110+ 170;
#X obj 808 190 expr $f1*21+101;
#X connect 1 0 15 0;
#X connect 2 0 10 0;
#X connect 3 0 4 0;
#X connect 5 0 7 0;
#X connect 5 1 6 1;
#X connect 6 1 3 0;
#X connect 7 0 8 0;
#X connect 7 0 11 0;
#X connect 8 1 9 0;
#X connect 9 0 12 0;
#X connect 10 1 5 0;
#X connect 11 0 6 0;
#X connect 12 0 7 0;
#X connect 13 0 14 0;
#X connect 14 1 16 0;
#X connect 16 0 15 1;
#X connect 52 0 51 0;
#X connect 53 0 55 0;
#X connect 54 0 55 1;
#X connect 54 0 56 0;
#X connect 55 0 52 0;
#X connect 56 0 55 0;
#X connect 57 0 61 0;
#X connect 58 0 64 0;
#X connect 59 0 60 0;
#X connect 60 0 63 0;
#X connect 61 1 62 0;
#X connect 62 0 59 0;
#X connect 62 0 58 0;
#X connect 63 0 53 0;
#X connect 64 0 54 0;
#X coords 0 -1 1 1 515 174 2 100 100;
