#N canvas 73 140 595 551 10;
#X obj 99 13 gemwinder;
#X obj 210 164 gemhead;
#X obj 238 329 color;
#X obj 271 290 hsl 64 15 0 1 0 0 empty empty empty -2 -8 0 10 -262144
-1 -1 4520 1;
#X obj 208 284 alpha 1;
#X obj 210 261 rotate 90 0 0.1 1;
#X obj 330 223 hsl 64 15 0 1 0 0 empty empty empty -2 -8 0 10 -262144
-1 -1 6300 1;
#X msg 330 240 0 \$1 1;
#X floatatom 268 209 5 0 0 0 - - -;
#X obj 234 357 rectangle 2 0.03;
#X floatatom 144 172 5 0 0 0 - - -;
#X floatatom 340 339 5 0 0 0 - - -;
#X obj 116 221 translateXYZ;
#X obj 295 146 metro 67;
#X obj 314 125 tgl 15 0 empty empty empty 17 7 0 10 -262144 -1 -1 1
1;
#X obj 109 274 translateXYZ;
#X obj 296 170 countto 360;
#X floatatom 111 244 5 0 0 0 - - -;
#X obj 428 284 / 60;
#X obj 415 314 sin;
#X obj 428 339 expr ($f1+1)*.5;
#X obj 114 418 color;
#X obj 147 379 hsl 64 15 0 1 0 0 empty empty empty -2 -8 0 10 -262144
-1 -1 3000 1;
#X obj 110 446 rectangle 2 0.03;
#X floatatom 216 428 5 0 0 0 - - -;
#X msg 272 308 1 0 1 \$1;
#X msg 148 397 1 0 1 \$1;
#X connect 1 0 5 0;
#X connect 1 0 12 0;
#X connect 1 0 15 0;
#X connect 2 0 9 0;
#X connect 3 0 25 0;
#X connect 4 0 2 0;
#X connect 4 0 21 0;
#X connect 5 0 4 0;
#X connect 6 0 7 0;
#X connect 7 0 5 2;
#X connect 8 0 5 1;
#X connect 10 0 12 3;
#X connect 11 0 9 2;
#X connect 12 0 5 0;
#X connect 13 0 16 0;
#X connect 14 0 13 0;
#X connect 15 0 5 0;
#X connect 16 0 8 0;
#X connect 16 0 18 0;
#X connect 17 0 15 1;
#X connect 18 0 19 0;
#X connect 19 0 20 0;
#X connect 20 0 3 0;
#X connect 21 0 23 0;
#X connect 22 0 26 0;
#X connect 24 0 23 2;
#X connect 25 0 2 1;
#X connect 26 0 21 1;
