#N canvas 5 47 450 300 10;
#X obj 178 66 inlet;
#X obj 178 101 t f f b;
#X obj 210 153 float;
#X obj 182 194 -;
#X obj 182 242 outlet;
#X connect 0 0 1 0;
#X connect 1 0 2 1;
#X connect 1 1 3 0;
#X connect 1 2 2 0;
#X connect 2 0 3 1;
#X connect 3 0 4 0;
