#N canvas 5 47 450 300 10;
#X obj 142 33 inlet;
#X obj 240 36 inlet;
#X obj 231 66 bang;
#X obj 175 149 float;
#X obj 142 178 +;
#X obj 131 102 t f b f;
#X obj 140 231 outlet;
#X msg 224 89 0;
#X connect 0 0 5 0;
#X connect 1 0 2 0;
#X connect 2 0 7 0;
#X connect 3 0 4 0;
#X connect 4 0 3 1;
#X connect 4 0 6 0;
#X connect 5 1 3 0;
#X connect 5 2 4 1;
#X connect 7 0 3 1;
