#N canvas 212 132 739 459 10;
#X obj 115 57 readsf~;
#X obj 70 202 dac~;
#X msg 9 25 1;
#X msg 43 44 0;
#X obj 220 102 fiddle~ 1024;
#X obj 370 212 textfile;
#X msg 311 180 clear;
#N canvas 420 192 450 300 oscbank 0;
#X obj 163 186 osc~;
#X obj 161 161 mtof;
#X obj 172 246 outlet~;
#X floatatom 163 120 5 0 0 0 - - -;
#X obj 203 186 osc~;
#X obj 201 161 mtof;
#X floatatom 203 120 5 0 0 0 - - -;
#X obj 240 185 osc~;
#X obj 238 160 mtof;
#X floatatom 240 119 5 0 0 0 - - -;
#X obj 280 185 osc~;
#X obj 278 160 mtof;
#X floatatom 280 119 5 0 0 0 - - -;
#X connect 0 0 2 0;
#X connect 1 0 0 0;
#X connect 3 0 1 0;
#X connect 5 0 4 0;
#X connect 6 0 5 0;
#X connect 8 0 7 0;
#X connect 9 0 8 0;
#X connect 11 0 10 0;
#X connect 12 0 11 0;
#X restore 16 125 pd oscbank;
#X obj 33 174 *~;
#X obj 7 72 hsl 60 15 0.001 1 1 0 empty empty empty -2 -6 0 10 -262144
-1 -1 4700 1;
#X msg 380 154 add \$1;
#X obj 466 259 shell;
#X obj 466 220 del 50;
#X obj 496 339 numericresonator;
#X msg 596 304 perl massresonance.pl;
#X obj 433 299 print std;
#X obj 503 309 print err;
#X msg 466 239 perl intitialtonedecoherence.pl;
#X msg 397 174 write tones.txt;
#X obj 466 201 bang;
#X obj 243 50 adc~;
#X obj 220 155 delta;
#X obj 232 181 integrate;
#X obj 192 231 pack f f f;
#X obj 207 305 textfile;
#X msg 172 280 clear;
#X msg 258 274 write melodicshapes.txt;
#X msg 192 255 add \$1 * \$2 * \$3;
#X obj 92 321 osc~;
#X obj 160 174 integrate;
#X obj 131 226 + 0;
#X obj 94 284 mtof;
#X floatatom 159 211 5 0 0 0 - - -;
#X floatatom 349 105 5 0 0 0 - - -;
#X obj 334 79 dbtorms;
#X obj 503 107 vline~;
#X msg 473 69 \$1 50;
#X obj 483 42 * 1;
#X floatatom 511 27 5 0 0 0 - - -;
#X msg 115 18 open unnamed1.wav;
#X floatatom 273 217 5 0 0 0 - - -;
#X connect 0 0 4 0;
#X connect 2 0 0 0;
#X connect 3 0 0 0;
#X connect 4 0 10 0;
#X connect 4 0 21 0;
#X connect 4 0 22 0;
#X connect 4 0 23 0;
#X connect 4 0 40 0;
#X connect 4 2 34 0;
#X connect 6 0 5 0;
#X connect 8 0 1 1;
#X connect 10 0 5 0;
#X connect 11 0 15 0;
#X connect 11 1 16 0;
#X connect 12 0 17 0;
#X connect 14 0 11 0;
#X connect 17 0 11 0;
#X connect 18 0 5 0;
#X connect 18 0 19 0;
#X connect 19 0 12 0;
#X connect 20 0 1 0;
#X connect 20 0 4 0;
#X connect 20 1 1 1;
#X connect 21 0 23 1;
#X connect 21 0 29 0;
#X connect 22 0 23 2;
#X connect 23 0 27 0;
#X connect 25 0 24 0;
#X connect 26 0 24 0;
#X connect 27 0 24 0;
#X connect 28 0 8 0;
#X connect 29 0 30 0;
#X connect 30 0 31 0;
#X connect 31 0 28 0;
#X connect 32 0 30 1;
#X connect 33 0 37 0;
#X connect 34 0 33 0;
#X connect 35 0 8 1;
#X connect 36 0 35 0;
#X connect 37 0 36 0;
#X connect 38 0 37 1;
#X connect 39 0 0 0;
