#N canvas 307 289 447 300 10;
#X obj 157 37 inlet;
#X text 153 4 recieves midi number;
#X obj 157 248 outlet;
#X text 150 266 numbers of midi notes in harmony;
#N canvas 0 0 450 300 graph1 0;
#X array midiharmonics 13 float 3;
#A 0 -12 -10 -8 -7 -5 -3 -1 2 4 5 7 9 11;
#X coords 0 12 13 -12 120 10 1;
#X restore 185 121 graph;
#X text 185 130 this here is a table;
#X text 190 140 what describes the;
#X text 195 150 relations of tonic;
#X text 184 161 to all it's midi harmony;
#X text 206 18 (tonic);
#X obj 102 230 +;
#X obj 9 192 tabread midiharmonics;
#X obj 47 170 sel 12;
#X obj 63 140 countto 13;
#X obj 114 58 pipe 1;
#X obj 69 113 until;
#X msg 65 81 13;
#X connect 0 0 14 0;
#X connect 0 0 2 0;
#X connect 10 0 2 0;
#X connect 11 0 10 0;
#X connect 13 0 11 0;
#X connect 13 0 12 0;
#X connect 14 0 10 1;
#X connect 14 0 16 0;
#X connect 15 0 13 0;
#X connect 16 0 15 0;
