#N canvas 346 289 450 300 10;
#X obj 187 145 textfile;
#X msg 176 86 rewind;
#X obj 240 235 textfile;
#X msg 302 210 write resonances.txt;
#X msg 204 68 bang;
#X obj 345 110 bang;
#X obj 88 40 t b b b;
#X obj 94 194 realtime;
#X floatatom 107 20 5 0 0 0 - - -;
#X obj 84 19 bng 15 250 50 0 empty empty empty 0 -6 0 10 -262144 -1
-1;
#X obj 120 162 bang;
#X obj 248 162 midinoteresonance;
#X obj 86 0 inlet;
#X msg 37 113 read coherentcord.txt;
#X msg 245 186 add \$1;
#X msg 192 205 clear;
#X obj 173 176 pipe 100;
#X connect 0 0 11 0;
#X connect 0 1 3 0;
#X connect 1 0 0 0;
#X connect 3 0 2 0;
#X connect 3 0 10 0;
#X connect 4 0 0 0;
#X connect 5 0 0 0;
#X connect 6 0 4 0;
#X connect 6 1 1 0;
#X connect 6 2 13 0;
#X connect 6 2 7 0;
#X connect 7 0 8 0;
#X connect 9 0 6 0;
#X connect 10 0 7 1;
#X connect 10 0 16 0;
#X connect 11 0 14 0;
#X connect 12 0 9 0;
#X connect 13 0 0 0;
#X connect 14 0 2 0;
#X connect 14 0 5 0;
#X connect 15 0 2 0;
#X connect 16 0 15 0;
#X coords 0 -1 1 1 60 30 1 80 8;
