#N canvas 196 143 739 527 10;
#X obj 115 57 readsf~;
#X obj 70 202 dac~;
#X msg 9 25 1;
#X msg 43 44 0;
#X obj 443 138 pack;
#X msg 266 124 add \$1 \$2;
#X obj 331 251 tabread distinctpitches;
#X obj 412 310 table distinctpitches 64;
#X obj 413 332 table pitchweights 64;
#N canvas 0 0 325 277 countto 0;
#X obj 120 237 outlet;
#X obj 54 20 inlet;
#X obj 147 29 inlet;
#X obj 233 26 inlet;
#X obj 47 72 bang;
#X obj 153 94 + 1;
#X obj 116 115 f 0;
#X msg 161 140 0;
#X obj 161 118 sel \$1;
#X text 61 5 ++;
#X text 132 14 argument;
#X text 190 11 alter increment value;
#X connect 1 0 4 0;
#X connect 2 0 8 1;
#X connect 3 0 5 1;
#X connect 4 0 6 0;
#X connect 5 0 8 0;
#X connect 6 0 0 0;
#X connect 6 0 5 0;
#X connect 7 0 6 1;
#X connect 8 0 7 0;
#X connect 8 1 6 1;
#X restore 346 193 pd countto 64;
#X msg 383 172 64;
#X obj 383 151 loadbang;
#X obj 220 102 fiddle~ 1024;
#X obj 262 282 -;
#X obj 262 323 > 0.83;
#X obj 262 303 abs;
#X obj 262 347 sel 0 1;
#X obj 328 220 sel 63;
#X obj 233 380 f;
#X obj 211 486 tabwrite distinctpitces;
#X obj 199 407 tabread pitchweights;
#X obj 204 430 *;
#X obj 264 378 i;
#X obj 210 458 +;
#X text 149 343 this stuff shall;
#X text 156 354 be done in perl;
#X obj 180 212 textfile;
#X msg 207 174 write notesorter/tones.txt;
#X msg 121 180 clear;
#N canvas 420 192 450 300 oscbank 0;
#X obj 163 186 osc~;
#X obj 161 161 mtof;
#X obj 172 246 outlet~;
#X floatatom 163 120 5 0 0 0 - - -;
#X obj 203 186 osc~;
#X obj 201 161 mtof;
#X floatatom 203 120 5 0 0 0 - - -;
#X obj 240 185 osc~;
#X obj 238 160 mtof;
#X floatatom 240 119 5 0 0 0 - - -;
#X obj 280 185 osc~;
#X obj 278 160 mtof;
#X floatatom 280 119 5 0 0 0 - - -;
#X connect 0 0 2 0;
#X connect 1 0 0 0;
#X connect 3 0 1 0;
#X connect 4 0 2 0;
#X connect 5 0 4 0;
#X connect 6 0 5 0;
#X connect 7 0 2 0;
#X connect 8 0 7 0;
#X connect 9 0 8 0;
#X connect 10 0 2 0;
#X connect 11 0 10 0;
#X connect 12 0 11 0;
#X restore 16 125 pd oscbank;
#X obj 33 174 *~;
#X obj 58 149 hsl 60 15 0.001 1 1 0 empty empty empty -2 -6 0 10 -262144
-1 -1 0 1;
#X obj 169 129 print melod;
#X msg 115 18 open rattomago.wav;
#X msg 190 154 add \$1;
#X connect 0 0 1 0;
#X connect 0 0 12 0;
#X connect 2 0 0 0;
#X connect 3 0 0 0;
#X connect 6 0 13 0;
#X connect 6 0 23 1;
#X connect 9 0 17 0;
#X connect 10 0 9 1;
#X connect 11 0 10 0;
#X connect 12 0 32 0;
#X connect 12 0 34 0;
#X connect 12 2 5 0;
#X connect 13 0 18 1;
#X connect 13 0 15 0;
#X connect 14 0 16 0;
#X connect 15 0 14 0;
#X connect 16 0 18 0;
#X connect 16 0 22 0;
#X connect 16 1 9 0;
#X connect 17 1 6 0;
#X connect 17 1 22 1;
#X connect 18 0 21 1;
#X connect 20 0 21 0;
#X connect 21 0 23 0;
#X connect 22 0 19 1;
#X connect 22 0 20 0;
#X connect 23 0 19 0;
#X connect 27 0 26 0;
#X connect 28 0 26 0;
#X connect 29 0 30 0;
#X connect 30 0 1 1;
#X connect 31 0 30 1;
#X connect 33 0 0 0;
#X connect 34 0 26 0;
