#N canvas 64 171 620 363 10;
#X obj 116 223 delread~ \$0-crac;
#X obj 71 277 inlet~;
#X obj 287 313 outlet~;
#X obj 241 89 inlet;
#X obj 116 145 unpack;
#X text 234 69 pack (DelTime)(FB Coef);
#X obj 130 250 *~ 0;
#X obj 145 279 throw~ \$0-FBCoef;
#X obj 15 253 catch~ \$0-FBCoef;
#X obj 286 223 delread~ \$0-crac;
#X obj 286 145 unpack;
#X obj 300 250 *~ 0;
#X obj 315 279 throw~ \$0-FBCoef;
#X obj 466 223 delread~ \$0-crac;
#X obj 466 145 unpack;
#X obj 480 250 *~ 0;
#X obj 495 279 throw~ \$0-FBCoef;
#X obj 6 6 cnv 15 176 94 empty empty 3TapDelayBox 50 8 0 15 -44926
-33289 0;
#X obj 72 304 delwrite~ \$0-crac 10000;
#X obj 12 27 hsl 160 12 10 10000 1 0 \$0-deltime1 \$0-2deltime1 empty
-2 -8 0 10 -262144 -1 -1 0 1;
#X obj 12 42 hsl 160 12 10 10000 1 0 \$0-delwrit2 \$0-deltime2 empty
-2 -8 0 10 -262144 -1 -1 0 1;
#X obj 12 57 hsl 160 12 10 10000 1 0 \$0-delwrit3 \$0-deltime3 empty
-2 -8 0 10 -262144 -1 -1 0 1;
#X obj 156 24 cnv 1 1 45 empty empty 5 0 -2 0 9 -1 -66577 0;
#X obj 173 24 cnv 1 1 45 empty empty 10 -3 -2 0 9 -33289 -66577 0;
#X obj 119 25 cnv 1 1 45 empty empty 1 0 -2 0 9 -1 -66577 0;
#X obj 9 74 vsl 52 20 0.0099 0.99 1 0 \$0-FB1 \$0-2FB1 empty 0 -9 0
10 -262144 -1 -1 0 1;
#X obj 66 74 vsl 52 20 0.0099 0.99 1 0 \$0-FB2 \$0-2FB2 empty 0 -9
0 10 -262144 -1 -1 0 1;
#X obj 122 74 vsl 52 20 0.0099 0.99 1 0 \$0-FB3 \$0-2FB3 empty 0 -9
0 10 -262144 -1 -1 0 1;
#X obj 86 25 cnv 1 1 45 empty empty 1/4 0 -2 0 9 -1 -66577 0;
#X text 184 31 made by sunji.roaoul@gmail.com;
#X text 13 113 the vsliders manage feedback;
#N canvas 106 124 889 552 save 0;
#X obj 477 312 tabread \$0-saveparam;
#X obj 559 214 unpack f f;
#X msg 532 130 \$1 0;
#X msg 562 140 \$1 1;
#X msg 602 150 \$1 2;
#X obj 439 326 int;
#X obj 413 304 bang;
#X obj 454 349 pack;
#X obj 291 44 openpanel;
#X obj 477 267 until;
#X obj 24 18 inlet;
#X obj 291 18 inlet;
#X obj 64 199 tabread \$0-saveparam;
#X obj 62 151 until;
#X obj 76 301 textfile;
#X obj 541 236 tabwrite \$0-saveparam;
#X msg 66 225 add \$1;
#X obj 20 110 savepanel;
#X msg 15 216 write \$1;
#X msg 19 294 clear;
#X obj 19 270 pipe 30;
#X obj 24 86 t b b;
#X obj 18 243 bang;
#X obj 306 158 textfile;
#X msg 296 103 read \$1;
#X msg 313 129 rewind;
#X obj 296 255 pack;
#X obj 233 140 until;
#X obj 224 87 bang;
#X msg 652 170 \$1 3;
#X msg 702 200 \$1 4;
#X obj 528 346 table \$0-saveparam 6;
#X msg 752 220 \$1 5;
#X obj 453 375 route 0 1 2 3 4 5;
#X msg 62 131 6;
#X obj 62 176 countto 6;
#X msg 225 115 6;
#X obj 251 210 countto 6;
#X msg 477 247 6;
#X obj 478 286 countto 6;
#X obj 542 70 r \$0-deltime1;
#X obj 573 94 r \$0-FB1;
#X obj 589 119 r \$0-deltime2;
#X obj 689 169 r \$0-deltime3;
#X obj 639 139 r \$0-FB2;
#X obj 518 443 s \$0-2FB2;
#X obj 543 402 s \$0-2FB3;
#X obj 739 189 r \$0-FB3;
#X obj 488 483 s \$0-2FB1;
#X obj 531 422 s \$0-2deltime3;
#X obj 501 462 s \$0-2deltime2;
#X obj 445 503 s \$0-2deltime1;
#X obj 303 73 r \$0-load;
#X connect 0 0 7 1;
#X connect 0 0 6 0;
#X connect 1 0 15 0;
#X connect 1 1 15 1;
#X connect 2 0 1 0;
#X connect 3 0 1 0;
#X connect 4 0 1 0;
#X connect 5 0 7 0;
#X connect 6 0 5 0;
#X connect 7 0 33 0;
#X connect 8 0 24 0;
#X connect 9 0 39 0;
#X connect 10 0 21 0;
#X connect 11 0 8 0;
#X connect 12 0 16 0;
#X connect 13 0 35 0;
#X connect 16 0 14 0;
#X connect 17 0 18 0;
#X connect 18 0 14 0;
#X connect 18 0 22 0;
#X connect 19 0 14 0;
#X connect 20 0 19 0;
#X connect 21 0 17 0;
#X connect 21 1 34 0;
#X connect 22 0 20 0;
#X connect 23 0 26 1;
#X connect 23 0 37 0;
#X connect 24 0 23 0;
#X connect 24 0 25 0;
#X connect 25 0 23 0;
#X connect 25 0 28 0;
#X connect 26 0 33 0;
#X connect 27 0 23 0;
#X connect 28 0 36 0;
#X connect 29 0 1 0;
#X connect 30 0 1 0;
#X connect 32 0 1 0;
#X connect 33 0 51 0;
#X connect 33 1 48 0;
#X connect 33 2 50 0;
#X connect 33 3 45 0;
#X connect 33 4 49 0;
#X connect 33 5 46 0;
#X connect 34 0 13 0;
#X connect 35 0 12 0;
#X connect 36 0 27 0;
#X connect 37 0 26 0;
#X connect 38 0 9 0;
#X connect 39 0 0 0;
#X connect 39 0 5 1;
#X connect 40 0 2 0;
#X connect 41 0 3 0;
#X connect 42 0 4 0;
#X connect 43 0 30 0;
#X connect 44 0 29 0;
#X connect 47 0 32 0;
#X connect 52 0 24 0;
#X restore 16 140 pd save;
#X obj 10 10 bng 15 250 50 0 empty empty save 0 8 0 6 -262144 -258113
-258113;
#X obj 28 10 bng 15 250 50 0 empty empty open 0 8 0 6 -262144 -4160
-4160;
#X obj 156 174 s \$0-2FB1;
#X obj 342 171 s \$0-2FB2;
#X obj 532 171 s \$0-2FB3;
#X obj 532 191 r \$0-FB3;
#X obj 342 191 r \$0-FB2;
#X obj 155 194 r \$0-FB1;
#X obj 54 173 s \$0-2deltime1;
#X obj 240 171 s \$0-2deltime2;
#X obj 410 171 s \$0-2deltime3;
#X obj 434 197 r \$0-deltime3;
#X obj 246 192 r \$0-deltime2;
#X obj 54 197 r \$0-deltime1;
#X obj 241 111 route line1 line2 line3;
#X obj 405 91 route load;
#X obj 405 113 s \$0-load;
#X connect 0 0 2 0;
#X connect 0 0 6 0;
#X connect 1 0 18 0;
#X connect 3 0 46 0;
#X connect 4 0 40 0;
#X connect 4 1 34 0;
#X connect 6 0 7 0;
#X connect 8 0 18 0;
#X connect 9 0 11 0;
#X connect 10 0 41 0;
#X connect 10 1 35 0;
#X connect 11 0 12 0;
#X connect 11 0 2 0;
#X connect 13 0 15 0;
#X connect 14 0 42 0;
#X connect 14 1 36 0;
#X connect 15 0 16 0;
#X connect 15 0 2 0;
#X connect 32 0 31 0;
#X connect 33 0 31 1;
#X connect 37 0 15 1;
#X connect 38 0 11 1;
#X connect 39 0 6 1;
#X connect 43 0 13 0;
#X connect 44 0 9 0;
#X connect 45 0 0 0;
#X connect 46 0 4 0;
#X connect 46 1 10 0;
#X connect 46 2 14 0;
#X connect 46 3 47 0;
#X connect 47 0 48 0;
#X coords 0 -1 1 1 178 97 1 5 5;
