#N canvas 351 174 483 459 10;
#X obj 101 64 ctlin;
#X obj 91 117 pack f f;
#X obj 100 96 swap;
#X obj 265 119 route 91 93 5 10;
#X obj 102 201 knob;
#X floatatom 319 209 5 0 0 0 - - -;
#X obj 92 141 * 2.834;
#X obj 92 161 + 90;
#X obj 92 181 % 360;
#X obj 142 201 knob;
#X obj 142 141 * 2.834;
#X obj 142 161 + 90;
#X obj 142 181 % 360;
#X obj 182 201 knob;
#X obj 192 141 * 2.834;
#X obj 192 161 + 90;
#X obj 192 181 % 360;
#X obj 222 201 knob;
#X obj 242 141 * 2.834;
#X obj 242 161 + 90;
#X obj 242 181 % 360;
#X obj 327 184 / 360;
#X msg 315 152 127;
#X obj 242 243 - 90;
#X obj 243 263 * 0.352;
#X obj 243 284 outlet;
#X obj 192 243 - 90;
#X obj 193 263 * 0.352;
#X obj 193 284 outlet;
#X obj 142 243 - 90;
#X obj 143 263 * 0.352;
#X obj 143 284 outlet;
#X obj 92 243 - 90;
#X obj 93 263 * 0.352;
#X obj 93 284 outlet;
#X obj 146 117 route 91 93 5 10;
#X connect 0 0 2 0;
#X connect 0 1 2 1;
#X connect 1 0 35 0;
#X connect 2 0 1 0;
#X connect 2 1 1 1;
#X connect 4 0 32 0;
#X connect 6 0 7 0;
#X connect 7 0 8 0;
#X connect 8 0 4 0;
#X connect 9 0 29 0;
#X connect 10 0 11 0;
#X connect 11 0 12 0;
#X connect 12 0 9 0;
#X connect 13 0 26 0;
#X connect 14 0 15 0;
#X connect 15 0 16 0;
#X connect 16 0 13 0;
#X connect 17 0 23 0;
#X connect 18 0 19 0;
#X connect 19 0 20 0;
#X connect 20 0 17 0;
#X connect 21 0 5 0;
#X connect 22 0 21 0;
#X connect 23 0 24 0;
#X connect 24 0 25 0;
#X connect 26 0 27 0;
#X connect 27 0 28 0;
#X connect 29 0 30 0;
#X connect 30 0 31 0;
#X connect 32 0 33 0;
#X connect 33 0 34 0;
#X connect 35 0 6 0;
#X connect 35 1 10 0;
#X connect 35 2 14 0;
#X connect 35 3 18 0;
#X coords 0 -1 1 1 160 40 1 100 200;
