#N canvas 232 87 298 123 10;
#X obj 14 433 r \$0-Minutes;
#X obj 14 460 * 60;
#X obj 49 487 +;
#X obj 94 435 r \$0-Seconds;
#X obj 45 460 bang;
#X obj 96 479 * 0.001;
#X obj 96 456 r \$0-MiliSec;
#X obj 86 545 +;
#X obj 71 507 bang;
#X obj 86 568 value \$0-Time;
#X obj 319 485 r \$0-BPM;
#X obj 208 483 value \$0-Time;
#X obj 208 460 r \$0-BeatCalc;
#X obj 208 541 s \$0-2Beats;
#X obj 208 509 expr $f1 * $f2 / 60;
#X obj 420 455 r \$0-BPMCalc;
#X obj 420 479 value \$0-Time;
#X obj 531 478 r \$0-Beats;
#X obj 420 524 s \$0-2BPM;
#X obj 420 500 expr $f1 / $f2 * 60;
#X obj 493 153 r \$0-BPM;
#X obj 547 174 r \$0-Beats;
#X obj 466 175 float;
#X obj 466 131 r \$0-TimeCalc;
#X obj 426 279 int;
#X obj 426 419 s \$0-2Minutes;
#X obj 466 250 % 60;
#X obj 466 278 int;
#X obj 466 397 s \$0-2Seconds;
#X obj 510 375 s \$0-2MiliSec;
#X obj 466 199 expr $f2 / $f1;
#X obj 466 231 * 60;
#X obj 510 270 int;
#X obj 510 312 abs;
#X obj 510 354 int;
#X obj 510 332 + 0.49;
#X floatatom 472 308 5 0 0 0 - - -;
#X floatatom 471 351 5 0 0 0 - - -;
#X obj 510 248 t f f;
#X obj 510 291 expr ($f2 - $f1) * 1000;
#X obj 99 63 cnv 15 80 40 empty empty empty 20 12 0 14 -4034 -66577
0;
#X floatatom 117 63 10 0 1000 3 .BPM. #0-2BPM #0-BPM;
#X obj 101 77 bng 15 250 50 0 \$0-BPMCalc empty Calculate -2 22 0 10
-204786 -258113 -1;
#X obj 190 61 cnv 15 80 40 empty empty empty 20 12 0 14 -4034 -66577
0;
#X floatatom 191 62 10 0 0 3 Beats #0-2Beats #0-Beats;
#X obj 255 77 bng 15 250 50 0 \$0-BeatCalc empty CalculateBeats -67
21 0 10 -204786 -258113 -1;
#X obj 95 17 cnv 15 180 40 empty empty empty 20 12 0 14 -4034 -66577
0;
#X floatatom 100 19 3 0 1000 1 min #0-2Minutes #0-Minutes;
#X floatatom 141 19 2 0 60 1 sec #0-2Seconds #0-Seconds;
#X floatatom 176 19 3 0 999 1 ms #0-2MiliSec #0-MiliSec;
#X obj 103 37 bng 15 250 50 0 \$0-TimeCalc empty Calculate 17 10 0
10 -204786 -258113 -1;
#X connect 0 0 1 0;
#X connect 1 0 2 0;
#X connect 2 0 7 0;
#X connect 3 0 2 1;
#X connect 3 0 4 0;
#X connect 4 0 2 0;
#X connect 5 0 7 1;
#X connect 5 0 8 0;
#X connect 6 0 5 0;
#X connect 7 0 9 0;
#X connect 8 0 7 0;
#X connect 10 0 14 1;
#X connect 11 0 14 0;
#X connect 12 0 11 0;
#X connect 14 0 13 0;
#X connect 15 0 16 0;
#X connect 16 0 19 0;
#X connect 17 0 19 1;
#X connect 19 0 18 0;
#X connect 20 0 22 1;
#X connect 21 0 30 1;
#X connect 22 0 30 0;
#X connect 23 0 22 0;
#X connect 24 0 25 0;
#X connect 26 0 27 0;
#X connect 27 0 28 0;
#X connect 30 0 24 0;
#X connect 30 0 31 0;
#X connect 31 0 26 0;
#X connect 31 0 38 0;
#X connect 32 0 39 0;
#X connect 33 0 35 0;
#X connect 34 0 29 0;
#X connect 35 0 34 0;
#X connect 35 0 37 0;
#X connect 38 0 32 0;
#X connect 38 1 39 1;
#X connect 39 0 33 0;
#X connect 39 0 36 0;
#X coords 0 -1 1 1 186 92 1 92 14;
