#N canvas 506 165 458 308 10;
#X obj 171 279 outlet;
#X obj 121 213 snapshot~;
#X obj 109 157 inlet~;
#X obj 217 40 inlet;
#X obj 217 64 route Addition Width SampleFrequency;
#X obj 245 184 r \$0-Add;
#X obj 255 204 r \$0-Multiply;
#X obj 235 104 s \$0-2SampleFreq;
#X obj 255 124 s \$0-2Add;
#X obj 265 144 s \$0-2Multiply;
#X obj 1 1 cnv 46 118 46 empty empty empty 20 12 0 14 -232576 -66577
0;
#X obj 4 1 hsl 90 15 -60 60 0 0 \$0-Add \$0-2Add Addition -2 8 0 12
-262144 -1 -1 8600 1;
#X obj 4 15 hsl 90 15 1.1 110 1 1 \$0-Multiply \$0-2Multiply Width
0 8 0 12 -262144 -1 -1 8900 1;
#N canvas 135 208 889 478 save 0;
#X obj 257 262 tabread \$0-saveparam;
#X obj 259 132 unpack f f;
#X msg 245 88 \$1 0;
#X msg 275 98 \$1 1;
#X msg 315 108 \$1 2;
#X obj 257 237 countto 3;
#X obj 219 276 int;
#X obj 193 254 bang;
#X obj 234 299 pack;
#X obj 232 325 route 0 1 2;
#X obj 151 44 openpanel;
#X msg 257 197 3;
#X obj 257 217 until;
#X obj 24 18 inlet;
#X obj 151 18 inlet;
#X obj 64 339 tabread \$0-saveparam;
#X obj 62 311 countto 3;
#X msg 62 271 3;
#X obj 62 291 until;
#X obj 76 441 textfile;
#X obj 241 155 tabwrite \$0-saveparam;
#X obj 308 296 table \$0-saveparam 3;
#X msg 66 365 add \$1;
#X obj 20 250 savepanel;
#X msg 15 356 write \$1;
#X msg 19 434 clear;
#X obj 19 410 pipe 30;
#X obj 24 226 t b b;
#X obj 18 383 bang;
#X obj 166 158 textfile;
#X msg 156 103 read \$1;
#X msg 173 129 rewind;
#X obj 156 255 pack;
#X obj 111 210 countto 3;
#X obj 93 140 until;
#X msg 85 115 3;
#X obj 84 87 bang;
#X obj 281 35 r \$0-SampleFreq;
#X obj 301 55 r \$0-Add;
#X obj 311 75 r \$0-Multiply;
#X obj 231 356 s \$0-2SampleFreq;
#X obj 251 376 s \$0-2Add;
#X obj 261 396 s \$0-2Multiply;
#X obj 183 75 r \$0-load;
#X connect 0 0 8 1;
#X connect 0 0 7 0;
#X connect 1 0 20 0;
#X connect 1 1 20 1;
#X connect 2 0 1 0;
#X connect 3 0 1 0;
#X connect 4 0 1 0;
#X connect 5 0 0 0;
#X connect 5 0 6 1;
#X connect 6 0 8 0;
#X connect 7 0 6 0;
#X connect 8 0 9 0;
#X connect 9 0 40 0;
#X connect 9 1 41 0;
#X connect 9 2 42 0;
#X connect 10 0 30 0;
#X connect 11 0 12 0;
#X connect 12 0 5 0;
#X connect 13 0 27 0;
#X connect 14 0 10 0;
#X connect 15 0 22 0;
#X connect 16 0 15 0;
#X connect 17 0 18 0;
#X connect 18 0 16 0;
#X connect 22 0 19 0;
#X connect 23 0 24 0;
#X connect 24 0 19 0;
#X connect 24 0 28 0;
#X connect 25 0 19 0;
#X connect 26 0 25 0;
#X connect 27 0 23 0;
#X connect 27 1 17 0;
#X connect 28 0 26 0;
#X connect 29 0 32 1;
#X connect 29 0 33 0;
#X connect 30 0 29 0;
#X connect 30 0 31 0;
#X connect 31 0 29 0;
#X connect 31 0 36 0;
#X connect 32 0 9 0;
#X connect 33 0 32 0;
#X connect 34 0 29 0;
#X connect 35 0 34 0;
#X connect 36 0 35 0;
#X connect 37 0 2 0;
#X connect 38 0 3 0;
#X connect 39 0 4 0;
#X connect 43 0 30 0;
#X restore 54 104 pd save;
#X obj 98 24 bng 10 250 50 0 empty empty save 0 8 0 6 -258113 -258113
-258113;
#X obj 108 34 bng 10 250 50 0 empty empty open 0 8 0 6 -4160 -4160
-4160;
#X obj 151 19 bang~;
#X msg 133 86 1;
#X obj 148 240 +;
#X obj 158 260 * 1;
#X obj 99 131 countto 64;
#X obj 66 175 sel 63;
#X obj 369 162 s \$0-load;
#X obj 369 134 route load;
#X floatatom 8 32 5 0 0 0 - - -;
#X floatatom 47 32 5 0 0 0 - - -;
#X connect 1 0 18 0;
#X connect 2 0 1 0;
#X connect 3 0 4 0;
#X connect 4 0 8 0;
#X connect 4 1 9 0;
#X connect 4 2 7 0;
#X connect 4 3 23 0;
#X connect 5 0 18 1;
#X connect 5 0 24 0;
#X connect 6 0 19 1;
#X connect 6 0 25 0;
#X connect 14 0 13 0;
#X connect 15 0 13 1;
#X connect 16 0 17 0;
#X connect 17 0 20 0;
#X connect 18 0 19 0;
#X connect 19 0 0 0;
#X connect 20 0 21 0;
#X connect 21 0 1 0;
#X connect 23 0 22 0;
#X coords 0 0 1 1 120 48 1 0 0;
