#N canvas 0 0 933 658 10;
#X obj 374 280 toilet;
#X obj 356 127 toilet;
#X obj 522 192 toilet;
#X obj 205 360 toilet;
#X obj 365 400 toilet;
#X obj 205 210 toilet;
#X obj 525 334 toilet;
#X obj 75 80 toilet;
#X obj 25 430 toilet;
#X obj 287 518 toilet;
#X obj 615 464 toilet;
#X obj 682 91 toilet;
#X obj 436 6 toilet;
#X obj 374 256 r~ \$0-return;
#X obj 761 217 s~ \$0-return;
#X obj 716 593 s~ \$0-return;
#X obj 288 636 s~ \$0-return;
#X obj 24 556 s~ \$0-return;
#X obj 74 205 s~ \$0-return;
#X obj 584 5 s~ \$0-return;
#X connect 0 0 6 0;
#X connect 0 0 4 0;
#X connect 0 0 3 0;
#X connect 0 0 5 0;
#X connect 0 0 1 0;
#X connect 0 0 2 0;
#X connect 1 0 12 0;
#X connect 2 0 11 0;
#X connect 3 0 8 0;
#X connect 4 0 9 0;
#X connect 5 0 7 0;
#X connect 6 0 10 0;
#X connect 7 0 18 0;
#X connect 8 0 17 0;
#X connect 9 0 16 0;
#X connect 10 0 15 0;
#X connect 11 0 14 0;
#X connect 12 0 19 0;
#X connect 13 0 0 0;
