#N canvas 177 244 459 426 10;
#X obj 126 239 osc~ 220;
#X obj 50 143 osc~ 4;
#X obj 141 172 sig~;
#X obj 114 207 *~;
#X obj 75 188 +~ 1;
#X floatatom 104 129 5 0 0 0 - - -;
#X floatatom 149 145 5 0 0 0 - - -;
#X floatatom 101 113 5 0 0 0 - - -;
#X obj 236 65 inlet~;
#X obj 286 65 inlet~;
#X obj 127 285 outlet~;
#X text 134 113 rate;
#X text 142 127 low;
#X text 112 144 high;
#X obj 226 102 desig;
#X obj 291 110 desig;
#X connect 0 0 10 0;
#X connect 1 0 4 0;
#X connect 2 0 3 1;
#X connect 3 0 0 0;
#X connect 4 0 3 0;
#X connect 5 0 4 1;
#X connect 6 0 2 0;
#X connect 7 0 1 0;
#X connect 8 0 14 0;
#X connect 9 0 15 0;
#X connect 14 0 1 0;
#X connect 15 0 2 0;
#X coords 0 -1 1 1 85 60 1 100 100;
