#N canvas 366 87 645 531 10;
#X obj -9 467 s~ throw;
#X obj 213 27 r~ throw;
#X obj 416 156 s~ play;
#X obj 192 102 r~ play;
#X obj 283 501 dac~;
#X obj 191 372 catch~ yalsound;
#N canvas 0 0 473 423 Pd 0;
#X obj 113 119 *~;
#X obj 113 138 throw~ yalsound;
#X obj 84 74 inlet~;
#X obj 140 98 osc~ 440;
#X obj 217 58 inlet;
#X connect 0 0 1 0;
#X connect 2 0 0 0;
#X connect 3 0 0 1;
#X connect 4 0 3 1;
#X restore 215 296 pd 440;
#N canvas 0 0 473 423 Pd 0;
#X obj 113 119 *~;
#X obj 113 138 throw~ yalsound;
#X obj 84 74 inlet~;
#X obj 140 98 osc~ 440;
#X obj 166 50 inlet;
#X connect 0 0 1 0;
#X connect 2 0 0 0;
#X connect 3 0 0 1;
#X connect 4 0 3 0;
#X restore 295 376 pd 440;
#X floatatom 326 351 5 0 0 0 - - -;
#N canvas 0 0 473 423 Pd 0;
#X obj 113 119 *~;
#X obj 113 138 throw~ yalsound;
#X obj 84 74 inlet~;
#X obj 140 98 osc~ 440;
#X obj 166 50 inlet;
#X connect 0 0 1 0;
#X connect 2 0 0 0;
#X connect 3 0 0 1;
#X connect 4 0 3 0;
#X restore 405 386 pd 440;
#X floatatom 436 361 5 0 0 0 - - -;
#N canvas 0 0 473 423 Pd 0;
#X obj 113 119 *~;
#X obj 113 138 throw~ yalsound;
#X obj 84 74 inlet~;
#X obj 140 98 osc~ 440;
#X obj 166 50 inlet;
#X connect 0 0 1 0;
#X connect 2 0 0 0;
#X connect 3 0 0 1;
#X connect 4 0 3 0;
#X restore 425 506 pd 440;
#X floatatom 456 481 5 0 0 0 - - -;
#N canvas 0 0 473 423 Pd 0;
#X obj 113 119 *~;
#X obj 113 138 throw~ yalsound;
#X obj 84 74 inlet~;
#X obj 140 98 osc~ 440;
#X obj 166 50 inlet;
#X connect 0 0 1 0;
#X connect 2 0 0 0;
#X connect 3 0 0 1;
#X connect 4 0 3 0;
#X restore 324 120 pd 440;
#X floatatom 355 95 5 0 0 0 - - -;
#N canvas 0 0 473 423 Pd 0;
#X obj 113 120 *~;
#X obj 113 138 throw~ yalsound;
#X obj 65 43 inlet~;
#X obj 140 98 osc~ 440;
#X obj 166 50 inlet;
#X obj 83 89 +~ 0.5;
#X connect 0 0 1 0;
#X connect 2 0 5 0;
#X connect 3 0 0 1;
#X connect 4 0 3 0;
#X connect 5 0 0 0;
#X restore 162 84 pd 440;
#X floatatom 193 59 5 0 0 0 - - -;
#N canvas 0 0 473 423 Pd 0;
#X obj 113 119 *~;
#X obj 113 138 throw~ yalsound;
#X obj 84 74 inlet~;
#X obj 140 98 osc~ 440;
#X obj 166 50 inlet;
#X obj 84 99 +~ 0.5;
#X connect 0 0 1 0;
#X connect 2 0 5 0;
#X connect 3 0 0 1;
#X connect 4 0 3 0;
#X connect 5 0 0 0;
#X restore 122 498 pd 440;
#X floatatom 153 473 5 0 0 0 - - -;
#X obj 280 453 *~ 0.06;
#X msg 280 13 symbol savestates/desig/test;
#X msg 296 34 symbol savestates/LFO/test;
#N canvas 0 0 450 300 loaderama 0;
#X obj 133 135 outlet;
#X obj 323 135 outlet;
#X obj 119 62 r desig;
#X obj 289 62 r LFO;
#X connect 2 0 0 0;
#X connect 3 0 1 0;
#X restore 371 175 pd loaderama;
#X obj 262 70 s desig;
#X obj 312 70 s LFO;
#N canvas 0 0 450 300 loaderama 0;
#X obj 133 135 outlet;
#X obj 323 135 outlet;
#X obj 119 62 r desig;
#X obj 289 62 r LFO;
#X connect 2 0 0 0;
#X connect 3 0 1 0;
#X restore 218 143 pd loaderama;
#N canvas 0 0 450 300 loaderama 0;
#X obj 133 135 outlet;
#X obj 323 135 outlet;
#X obj 119 62 r desig;
#X obj 289 62 r LFO;
#X connect 2 0 0 0;
#X connect 3 0 1 0;
#X restore 63 157 pd loaderama;
#N canvas 0 0 450 300 loaderama 0;
#X obj 133 135 outlet;
#X obj 323 135 outlet;
#X obj 119 62 r desig;
#X obj 289 62 r LFO;
#X connect 2 0 0 0;
#X connect 3 0 1 0;
#X restore 68 0 pd loaderama;
#N canvas 0 0 450 300 loaderama 0;
#X obj 133 135 outlet;
#X obj 323 135 outlet;
#X obj 119 62 r desig;
#X obj 289 62 r LFO;
#X connect 2 0 0 0;
#X connect 3 0 1 0;
#X restore 100 321 pd loaderama;
#N canvas 0 0 450 300 loaderama 0;
#X obj 133 135 outlet;
#X obj 323 135 outlet;
#X obj 119 62 r desig;
#X obj 289 62 r LFO;
#X connect 2 0 0 0;
#X connect 3 0 1 0;
#X restore 530 13 pd loaderama;
#N canvas 0 0 450 300 loaderama 0;
#X obj 133 135 outlet;
#X obj 323 135 outlet;
#X obj 119 62 r desig;
#X obj 289 62 r LFO;
#X connect 2 0 0 0;
#X connect 3 0 1 0;
#X restore 530 169 pd loaderama;
#N canvas 0 0 450 300 loaderama 0;
#X obj 133 135 outlet;
#X obj 323 135 outlet;
#X obj 119 62 r desig;
#X obj 289 62 r LFO;
#X connect 2 0 0 0;
#X connect 3 0 1 0;
#X restore 556 335 pd loaderama;
#X obj 37 346 toilet;
#X obj 7 184 toilet;
#X obj 312 198 toilet;
#X obj 7 26 toilet;
#X obj 157 166 toilet;
#X obj 467 36 toilet;
#X obj 467 194 toilet;
#X obj 497 356 toilet;
#X obj 509 330 sig~;
#X floatatom 487 312 5 0 0 0 - - -;
#X connect 1 0 35 0;
#X connect 3 0 36 0;
#X connect 5 0 19 0;
#X connect 8 0 7 1;
#X connect 10 0 9 1;
#X connect 12 0 11 1;
#X connect 14 0 13 1;
#X connect 16 0 15 1;
#X connect 18 0 17 1;
#X connect 19 0 4 0;
#X connect 19 0 4 1;
#X connect 20 0 23 0;
#X connect 21 0 24 0;
#X connect 22 0 34 1;
#X connect 22 1 34 2;
#X connect 25 0 36 1;
#X connect 25 1 36 2;
#X connect 26 0 33 1;
#X connect 26 1 33 2;
#X connect 27 0 35 1;
#X connect 27 1 35 2;
#X connect 28 0 32 1;
#X connect 28 1 32 2;
#X connect 29 0 37 1;
#X connect 29 1 37 2;
#X connect 30 0 38 1;
#X connect 30 1 38 2;
#X connect 31 0 39 1;
#X connect 31 1 39 2;
#X connect 32 0 0 0;
#X connect 32 0 17 0;
#X connect 33 0 32 0;
#X connect 33 0 36 0;
#X connect 33 0 38 0;
#X connect 34 0 7 0;
#X connect 34 0 32 0;
#X connect 34 0 37 0;
#X connect 35 0 15 0;
#X connect 35 0 33 0;
#X connect 35 0 36 0;
#X connect 36 0 6 0;
#X connect 36 0 34 0;
#X connect 37 0 2 0;
#X connect 37 0 13 0;
#X connect 37 0 38 0;
#X connect 38 0 9 0;
#X connect 39 0 11 0;
#X connect 39 0 32 0;
#X connect 40 0 39 0;
#X connect 41 0 40 0;
