#N canvas 0 0 973 645 10;
#X obj 11 12 delread~ \$0-snapz 0;
#X obj 12 50 snapshot~;
#X obj 17 31 bang~;
#X msg 12 79 xfcf \$1;
#X obj 131 12 delread~ \$0-snapz 1;
#X obj 132 50 snapshot~;
#X obj 137 31 bang~;
#X msg 132 79 xfcf \$1;
#X obj 11 102 delread~ \$0-snapz 2;
#X obj 12 140 snapshot~;
#X obj 17 121 bang~;
#X msg 12 169 xfcf \$1;
#X obj 131 102 delread~ \$0-snapz 3;
#X obj 132 140 snapshot~;
#X obj 137 121 bang~;
#X msg 132 169 xfcf \$1;
#X obj 241 12 delread~ \$0-snapz 4;
#X obj 242 50 snapshot~;
#X obj 247 31 bang~;
#X msg 242 79 xfcf \$1;
#X obj 361 12 delread~ \$0-snapz 5;
#X obj 362 50 snapshot~;
#X obj 367 31 bang~;
#X msg 362 79 xfcf \$1;
#X obj 241 102 delread~ \$0-snapz 6;
#X obj 242 140 snapshot~;
#X obj 247 121 bang~;
#X msg 242 169 xfcf \$1;
#X obj 361 102 delread~ \$0-snapz 7;
#X obj 362 140 snapshot~;
#X obj 367 121 bang~;
#X msg 362 169 xfcf \$1;
#X obj 471 12 delread~ \$0-snapz 8;
#X obj 472 50 snapshot~;
#X obj 477 31 bang~;
#X msg 472 79 xfcf \$1;
#X obj 591 12 delread~ \$0-snapz 9;
#X obj 592 50 snapshot~;
#X obj 597 31 bang~;
#X msg 592 79 xfcf \$1;
#X obj 471 102 delread~ \$0-snapz 10;
#X obj 472 140 snapshot~;
#X obj 477 121 bang~;
#X msg 472 169 xfcf \$1;
#X obj 591 102 delread~ \$0-snapz 11;
#X obj 592 140 snapshot~;
#X obj 597 121 bang~;
#X msg 592 169 xfcf \$1;
#X obj 701 12 delread~ \$0-snapz 12;
#X obj 702 50 snapshot~;
#X obj 707 31 bang~;
#X msg 702 79 xfcf \$1;
#X obj 821 12 delread~ \$0-snapz 13;
#X obj 822 50 snapshot~;
#X obj 827 31 bang~;
#X msg 822 79 xfcf \$1;
#X obj 701 102 delread~ \$0-snapz 14;
#X obj 702 140 snapshot~;
#X obj 707 121 bang~;
#X msg 702 169 xfcf \$1;
#X obj 821 102 delread~ \$0-snapz 15;
#X obj 822 140 snapshot~;
#X obj 827 121 bang~;
#X msg 822 169 xfcf \$1;
#X obj 11 192 delread~ \$0-snapz 16;
#X obj 12 230 snapshot~;
#X obj 17 211 bang~;
#X msg 12 259 xfcf \$1;
#X obj 131 192 delread~ \$0-snapz 17;
#X obj 132 230 snapshot~;
#X obj 137 211 bang~;
#X msg 132 259 xfcf \$1;
#X obj 11 282 delread~ \$0-snapz 18;
#X obj 12 320 snapshot~;
#X obj 17 301 bang~;
#X msg 12 349 xfcf \$1;
#X obj 131 282 delread~ \$0-snapz 19;
#X obj 132 320 snapshot~;
#X obj 137 301 bang~;
#X msg 132 349 xfcf \$1;
#X obj 241 192 delread~ \$0-snapz 20;
#X obj 242 230 snapshot~;
#X obj 247 211 bang~;
#X msg 242 259 xfcf \$1;
#X obj 361 192 delread~ \$0-snapz 21;
#X obj 362 230 snapshot~;
#X obj 367 211 bang~;
#X msg 362 259 xfcf \$1;
#X obj 241 282 delread~ \$0-snapz 22;
#X obj 242 320 snapshot~;
#X obj 247 301 bang~;
#X msg 242 349 xfcf \$1;
#X obj 361 282 delread~ \$0-snapz 23;
#X obj 362 320 snapshot~;
#X obj 367 301 bang~;
#X msg 362 349 xfcf \$1;
#X obj 471 192 delread~ \$0-snapz 24;
#X obj 472 230 snapshot~;
#X obj 477 211 bang~;
#X msg 472 259 xfcf \$1;
#X obj 591 192 delread~ \$0-snapz 25;
#X obj 592 230 snapshot~;
#X obj 597 211 bang~;
#X msg 592 259 xfcf \$1;
#X obj 471 282 delread~ \$0-snapz 26;
#X obj 472 320 snapshot~;
#X obj 477 301 bang~;
#X msg 472 349 xfcf \$1;
#X obj 591 282 delread~ \$0-snapz 27;
#X obj 592 320 snapshot~;
#X obj 597 301 bang~;
#X msg 592 349 xfcf \$1;
#X obj 701 192 delread~ \$0-snapz 28;
#X obj 702 230 snapshot~;
#X obj 707 211 bang~;
#X msg 702 259 xfcf \$1;
#X obj 821 192 delread~ \$0-snapz 29;
#X obj 822 230 snapshot~;
#X obj 827 211 bang~;
#X msg 822 259 xfcf \$1;
#X obj 701 282 delread~ \$0-snapz 30;
#X obj 702 320 snapshot~;
#X obj 707 301 bang~;
#X msg 702 349 xfcf \$1;
#X obj 821 282 delread~ \$0-snapz 31;
#X obj 822 320 snapshot~;
#X obj 827 301 bang~;
#X msg 822 349 xfcf \$1;
#X obj 11 372 delread~ \$0-snapz 32;
#X obj 12 410 snapshot~;
#X obj 17 391 bang~;
#X msg 12 439 xfcf \$1;
#X obj 131 372 delread~ \$0-snapz 33;
#X obj 132 410 snapshot~;
#X obj 137 391 bang~;
#X msg 132 439 xfcf \$1;
#X obj 11 462 delread~ \$0-snapz 34;
#X obj 12 500 snapshot~;
#X obj 17 481 bang~;
#X msg 12 529 xfcf \$1;
#X obj 131 462 delread~ \$0-snapz 35;
#X obj 132 500 snapshot~;
#X obj 137 481 bang~;
#X msg 132 529 xfcf \$1;
#X obj 241 372 delread~ \$0-snapz 36;
#X obj 242 410 snapshot~;
#X obj 247 391 bang~;
#X msg 242 439 xfcf \$1;
#X obj 361 372 delread~ \$0-snapz 37;
#X obj 362 410 snapshot~;
#X obj 367 391 bang~;
#X msg 362 439 xfcf \$1;
#X obj 241 462 delread~ \$0-snapz 38;
#X obj 242 500 snapshot~;
#X obj 247 481 bang~;
#X msg 242 529 xfcf \$1;
#X obj 361 462 delread~ \$0-snapz 39;
#X obj 362 500 snapshot~;
#X obj 367 481 bang~;
#X msg 362 529 xfcf \$1;
#X obj 471 372 delread~ \$0-snapz 40;
#X obj 472 410 snapshot~;
#X obj 477 391 bang~;
#X msg 472 439 xfcf \$1;
#X obj 591 372 delread~ \$0-snapz 41;
#X obj 592 410 snapshot~;
#X obj 597 391 bang~;
#X msg 592 439 xfcf \$1;
#X obj 471 462 delread~ \$0-snapz 42;
#X obj 472 500 snapshot~;
#X obj 477 481 bang~;
#X msg 472 529 xfcf \$1;
#X obj 591 462 delread~ \$0-snapz 43;
#X obj 592 500 snapshot~;
#X obj 597 481 bang~;
#X msg 592 529 xfcf \$1;
#X obj 701 372 delread~ \$0-snapz 44;
#X obj 702 410 snapshot~;
#X obj 707 391 bang~;
#X msg 702 439 xfcf \$1;
#X obj 821 372 delread~ \$0-snapz 45;
#X obj 822 410 snapshot~;
#X obj 827 391 bang~;
#X msg 822 439 xfcf \$1;
#X obj 701 462 delread~ \$0-snapz 46;
#X obj 702 500 snapshot~;
#X obj 707 481 bang~;
#X msg 702 529 xfcf \$1;
#X obj 821 462 delread~ \$0-snapz 47;
#X obj 822 500 snapshot~;
#X obj 827 481 bang~;
#X msg 822 529 xfcf \$1;
#X obj 11 552 delread~ \$0-snapz 48;
#X obj 12 590 snapshot~;
#X obj 17 571 bang~;
#X msg 12 619 xfcf \$1;
#X obj 131 552 delread~ \$0-snapz 49;
#X obj 132 590 snapshot~;
#X obj 137 571 bang~;
#X msg 132 619 xfcf \$1;
#X obj 11 642 delread~ \$0-snapz 50;
#X obj 12 680 snapshot~;
#X obj 17 661 bang~;
#X msg 12 709 xfcf \$1;
#X obj 131 642 delread~ \$0-snapz 51;
#X obj 132 680 snapshot~;
#X obj 137 661 bang~;
#X msg 132 709 xfcf \$1;
#X obj 241 552 delread~ \$0-snapz 52;
#X obj 242 590 snapshot~;
#X obj 247 571 bang~;
#X msg 242 619 xfcf \$1;
#X obj 361 552 delread~ \$0-snapz 53;
#X obj 362 590 snapshot~;
#X obj 367 571 bang~;
#X msg 362 619 xfcf \$1;
#X obj 241 642 delread~ \$0-snapz 54;
#X obj 242 680 snapshot~;
#X obj 247 661 bang~;
#X msg 242 709 xfcf \$1;
#X obj 361 642 delread~ \$0-snapz 55;
#X obj 362 680 snapshot~;
#X obj 367 661 bang~;
#X msg 362 709 xfcf \$1;
#X obj 471 552 delread~ \$0-snapz 56;
#X obj 472 590 snapshot~;
#X obj 477 571 bang~;
#X msg 472 619 xfcf \$1;
#X obj 591 552 delread~ \$0-snapz 57;
#X obj 592 590 snapshot~;
#X obj 597 571 bang~;
#X msg 592 619 xfcf \$1;
#X obj 471 642 delread~ \$0-snapz 58;
#X obj 472 680 snapshot~;
#X obj 477 661 bang~;
#X msg 472 709 xfcf \$1;
#X obj 591 642 delread~ \$0-snapz 59;
#X obj 592 680 snapshot~;
#X obj 597 661 bang~;
#X msg 592 709 xfcf \$1;
#X obj 701 552 delread~ \$0-snapz 60;
#X obj 702 590 snapshot~;
#X obj 707 571 bang~;
#X msg 702 619 xfcf \$1;
#X obj 821 552 delread~ \$0-snapz 61;
#X obj 822 590 snapshot~;
#X obj 827 571 bang~;
#X msg 822 619 xfcf \$1;
#X obj 701 642 delread~ \$0-snapz 62;
#X obj 702 680 snapshot~;
#X obj 707 661 bang~;
#X msg 702 709 xfcf \$1;
#X obj 821 642 delread~ \$0-snapz 63;
#X obj 822 680 snapshot~;
#X obj 827 661 bang~;
#X msg 822 709 xfcf \$1;
#X connect 0 0 1 0;
#X connect 1 0 3 0;
#X connect 2 0 1 0;
#X connect 4 0 5 0;
#X connect 5 0 7 0;
#X connect 6 0 5 0;
#X connect 8 0 9 0;
#X connect 9 0 11 0;
#X connect 10 0 9 0;
#X connect 12 0 13 0;
#X connect 13 0 15 0;
#X connect 14 0 13 0;
#X connect 16 0 17 0;
#X connect 17 0 19 0;
#X connect 18 0 17 0;
#X connect 20 0 21 0;
#X connect 21 0 23 0;
#X connect 22 0 21 0;
#X connect 24 0 25 0;
#X connect 25 0 27 0;
#X connect 26 0 25 0;
#X connect 28 0 29 0;
#X connect 29 0 31 0;
#X connect 30 0 29 0;
#X connect 32 0 33 0;
#X connect 33 0 35 0;
#X connect 34 0 33 0;
#X connect 36 0 37 0;
#X connect 37 0 39 0;
#X connect 38 0 37 0;
#X connect 40 0 41 0;
#X connect 41 0 43 0;
#X connect 42 0 41 0;
#X connect 44 0 45 0;
#X connect 45 0 47 0;
#X connect 46 0 45 0;
#X connect 48 0 49 0;
#X connect 49 0 51 0;
#X connect 50 0 49 0;
#X connect 52 0 53 0;
#X connect 53 0 55 0;
#X connect 54 0 53 0;
#X connect 56 0 57 0;
#X connect 57 0 59 0;
#X connect 58 0 57 0;
#X connect 60 0 61 0;
#X connect 61 0 63 0;
#X connect 62 0 61 0;
#X connect 64 0 65 0;
#X connect 65 0 67 0;
#X connect 66 0 65 0;
#X connect 68 0 69 0;
#X connect 69 0 71 0;
#X connect 70 0 69 0;
#X connect 72 0 73 0;
#X connect 73 0 75 0;
#X connect 74 0 73 0;
#X connect 76 0 77 0;
#X connect 77 0 79 0;
#X connect 78 0 77 0;
#X connect 80 0 81 0;
#X connect 81 0 83 0;
#X connect 82 0 81 0;
#X connect 84 0 85 0;
#X connect 85 0 87 0;
#X connect 86 0 85 0;
#X connect 88 0 89 0;
#X connect 89 0 91 0;
#X connect 90 0 89 0;
#X connect 92 0 93 0;
#X connect 93 0 95 0;
#X connect 94 0 93 0;
#X connect 96 0 97 0;
#X connect 97 0 99 0;
#X connect 98 0 97 0;
#X connect 100 0 101 0;
#X connect 101 0 103 0;
#X connect 102 0 101 0;
#X connect 104 0 105 0;
#X connect 105 0 107 0;
#X connect 106 0 105 0;
#X connect 108 0 109 0;
#X connect 109 0 111 0;
#X connect 110 0 109 0;
#X connect 112 0 113 0;
#X connect 113 0 115 0;
#X connect 114 0 113 0;
#X connect 116 0 117 0;
#X connect 117 0 119 0;
#X connect 118 0 117 0;
#X connect 120 0 121 0;
#X connect 121 0 123 0;
#X connect 122 0 121 0;
#X connect 124 0 125 0;
#X connect 125 0 127 0;
#X connect 126 0 125 0;
#X connect 128 0 129 0;
#X connect 129 0 131 0;
#X connect 130 0 129 0;
#X connect 132 0 133 0;
#X connect 133 0 135 0;
#X connect 134 0 133 0;
#X connect 136 0 137 0;
#X connect 137 0 139 0;
#X connect 138 0 137 0;
#X connect 140 0 141 0;
#X connect 141 0 143 0;
#X connect 142 0 141 0;
#X connect 144 0 145 0;
#X connect 145 0 147 0;
#X connect 146 0 145 0;
#X connect 148 0 149 0;
#X connect 149 0 151 0;
#X connect 150 0 149 0;
#X connect 152 0 153 0;
#X connect 153 0 155 0;
#X connect 154 0 153 0;
#X connect 156 0 157 0;
#X connect 157 0 159 0;
#X connect 158 0 157 0;
#X connect 160 0 161 0;
#X connect 161 0 163 0;
#X connect 162 0 161 0;
#X connect 164 0 165 0;
#X connect 165 0 167 0;
#X connect 166 0 165 0;
#X connect 168 0 169 0;
#X connect 169 0 171 0;
#X connect 170 0 169 0;
#X connect 172 0 173 0;
#X connect 173 0 175 0;
#X connect 174 0 173 0;
#X connect 176 0 177 0;
#X connect 177 0 179 0;
#X connect 178 0 177 0;
#X connect 180 0 181 0;
#X connect 181 0 183 0;
#X connect 182 0 181 0;
#X connect 184 0 185 0;
#X connect 185 0 187 0;
#X connect 186 0 185 0;
#X connect 188 0 189 0;
#X connect 189 0 191 0;
#X connect 190 0 189 0;
#X connect 192 0 193 0;
#X connect 193 0 195 0;
#X connect 194 0 193 0;
#X connect 196 0 197 0;
#X connect 197 0 199 0;
#X connect 198 0 197 0;
#X connect 200 0 201 0;
#X connect 201 0 203 0;
#X connect 202 0 201 0;
#X connect 204 0 205 0;
#X connect 205 0 207 0;
#X connect 206 0 205 0;
#X connect 208 0 209 0;
#X connect 209 0 211 0;
#X connect 210 0 209 0;
#X connect 212 0 213 0;
#X connect 213 0 215 0;
#X connect 214 0 213 0;
#X connect 216 0 217 0;
#X connect 217 0 219 0;
#X connect 218 0 217 0;
#X connect 220 0 221 0;
#X connect 221 0 223 0;
#X connect 222 0 221 0;
#X connect 224 0 225 0;
#X connect 225 0 227 0;
#X connect 226 0 225 0;
#X connect 228 0 229 0;
#X connect 229 0 231 0;
#X connect 230 0 229 0;
#X connect 232 0 233 0;
#X connect 233 0 235 0;
#X connect 234 0 233 0;
#X connect 236 0 237 0;
#X connect 237 0 239 0;
#X connect 238 0 237 0;
#X connect 240 0 241 0;
#X connect 241 0 243 0;
#X connect 242 0 241 0;
#X connect 244 0 245 0;
#X connect 245 0 247 0;
#X connect 246 0 245 0;
#X connect 248 0 249 0;
#X connect 249 0 251 0;
#X connect 250 0 249 0;
#X connect 252 0 253 0;
#X connect 253 0 255 0;
#X connect 254 0 253 0;
