#N canvas 299 122 712 479 10;
#X obj 505 134 switch~ 512;
#X obj 340 156 until;
#X msg 340 129 512;
#X obj 340 192 countto 512;
#X obj 340 215 tabread heyhey;
#X obj 372 446 textfile;
#X obj 340 99 bang~;
#X obj 410 257 sel 511;
#X msg 519 419 clear;
#X msg 339 258 add2 \$1;
#X msg 403 281 add;
#X obj 476 292 shell;
#X obj 430 309 bang;
#X obj 130 56 inlet~;
#X obj 522 312 symbol;
#X msg 475 272 date +times%s:%N.txt;
#X obj 189 28 waveshape;
#X obj 237 178 tabwrite~;
#X obj 47 83 phasor~ 400;
#X obj 512 63 tgl 15 0 empty empty empty 0 -6 0 10 -262144 -1 -1 0
1;
#X obj 80 151 tabsend~ heyhey;
#X obj 459 195 table heyhey 512;
#X obj 202 367 print;
#X obj 193 337 bng 15 250 50 0 empty empty empty 0 -6 0 10 -262144
-1 -1;
#X msg 490 333 write \$1;
#X connect 1 0 3 0;
#X connect 2 0 1 0;
#X connect 3 0 4 0;
#X connect 3 0 7 0;
#X connect 4 0 9 0;
#X connect 6 0 2 0;
#X connect 7 0 10 0;
#X connect 8 0 5 0;
#X connect 9 0 5 0;
#X connect 10 0 5 0;
#X connect 10 0 12 0;
#X connect 11 0 14 0;
#X connect 12 0 15 0;
#X connect 13 0 20 0;
#X connect 14 0 24 0;
#X connect 15 0 11 0;
#X connect 16 0 20 0;
#X connect 19 0 0 0;
#X connect 23 0 22 0;
#X connect 24 0 5 0;
