#N canvas 0 0 1035 910 10;
#X obj 67 604 dac~;
#N canvas 0 0 450 300 pulse 0;
#X obj 109 70 osc~ 640;
#X obj 109 127 *~;
#X obj 93 179 /~;
#X obj 110 99 *~;
#X obj 92 225 *~;
#X obj 188 141 pow -1;
#X obj 92 201 -~ 1;
#X obj 109 153 +~ 1;
#X obj 62 154 sig~ 1;
#X obj 188 121 sqrt;
#X obj 109 42 inlet f;
#X obj 188 41 inlet w;
#X obj 91 251 outlet~;
#X obj 249 14 loadbang;
#X msg 249 40 24;
#X connect 0 0 3 0;
#X connect 1 0 7 0;
#X connect 2 0 6 0;
#X connect 3 0 1 0;
#X connect 3 0 1 1;
#X connect 4 0 12 0;
#X connect 5 0 4 1;
#X connect 6 0 4 0;
#X connect 7 0 2 1;
#X connect 8 0 2 0;
#X connect 9 0 5 0;
#X connect 10 0 0 0;
#X connect 11 0 9 0;
#X connect 11 0 3 1;
#X connect 13 0 14 0;
#X connect 14 0 9 0;
#X connect 14 0 3 1;
#X restore 67 480 pd pulse;
#N canvas 0 0 450 300 voiceres 0;
#X obj 118 226 vcf~ 1 1;
#X obj 53 226 vcf~ 1 1;
#X obj 185 227 vcf~ 1 1;
#X obj 145 182 +;
#X obj 176 181 +;
#X obj 145 151 t b f;
#X obj 187 150 t b f;
#X obj 123 124 +;
#X obj 124 96 t b f;
#X msg 233 183 50;
#X obj 119 267 outlet~;
#X obj 53 51 inlet~;
#X obj 152 44 inlet;
#X obj 201 43 inlet;
#X obj 254 43 inlet;
#X obj 233 160 loadbang;
#X obj 109 44 inlet;
#X connect 0 0 10 0;
#X connect 1 0 10 0;
#X connect 2 0 10 0;
#X connect 3 0 0 1;
#X connect 4 0 2 1;
#X connect 5 0 3 0;
#X connect 5 1 3 1;
#X connect 6 0 4 0;
#X connect 6 1 4 1;
#X connect 7 0 1 1;
#X connect 7 0 3 0;
#X connect 7 0 4 0;
#X connect 8 0 7 0;
#X connect 8 1 7 1;
#X connect 9 0 1 2;
#X connect 9 0 0 2;
#X connect 9 0 2 2;
#X connect 11 0 1 0;
#X connect 11 0 0 0;
#X connect 11 0 2 0;
#X connect 12 0 8 0;
#X connect 13 0 5 0;
#X connect 14 0 6 0;
#X connect 15 0 9 0;
#X connect 16 0 7 0;
#X restore 68 529 pd voiceres;
#N canvas 615 469 450 300 sel~ 0;
#X obj 173 89 == 1;
#X obj 84 204 *~;
#X obj 114 203 *~;
#X obj 209 88 == 0;
#X obj 69 47 inlet~;
#X obj 120 46 inlet~;
#X obj 93 233 outlet~;
#X obj 185 20 inlet;
#X obj 173 135 line~;
#X msg 173 112 \$1 30;
#X obj 218 135 line~;
#X msg 218 112 \$1 30;
#X obj 265 136 line~;
#X msg 265 113 \$1 30;
#X obj 186 46 t f f f;
#X obj 256 89 == 2;
#X obj 149 202 *~;
#X obj 124 112 sig~ 0;
#X connect 0 0 9 0;
#X connect 1 0 6 0;
#X connect 2 0 6 0;
#X connect 3 0 11 0;
#X connect 4 0 1 0;
#X connect 5 0 2 0;
#X connect 7 0 14 0;
#X connect 8 0 1 1;
#X connect 9 0 8 0;
#X connect 10 0 2 1;
#X connect 11 0 10 0;
#X connect 12 0 16 1;
#X connect 13 0 12 0;
#X connect 14 0 0 0;
#X connect 14 1 3 0;
#X connect 14 2 15 0;
#X connect 15 0 13 0;
#X connect 16 0 6 0;
#X connect 17 0 16 0;
#X restore 67 505 pd sel~;
#X obj 64 313 unpack f f f f f;
#X obj 64 289 pack f f f f f;
#X obj 33 229 random 100;
#X obj 88 384 line;
#X obj 153 384 line;
#X obj 219 384 line;
#X obj 285 384 line;
#X obj 33 250 + 10;
#X obj 110 229 random 300;
#X obj 84 190 metro 50;
#X obj 89 437 * 32;
#X obj 88 360 pack f f;
#X obj 153 360 pack f f;
#X obj 219 360 pack f f;
#X obj 285 360 pack f f;
#X obj 270 317 r \$0-period;
#X obj 53 160 s \$0-period;
#N canvas 0 0 450 300 random 0;
#X obj 98 14 inlet;
#X obj 93 247 outlet;
#X msg 126 168 0;
#X msg 153 197 1;
#X msg 189 220 2;
#X text 159 168 noise;
#X text 187 197 pitched;
#X text 221 222 silence;
#X obj 98 39 random 100;
#X obj 98 64 moses 10;
#X obj 149 87 moses 60;
#X connect 0 0 8 0;
#X connect 2 0 1 0;
#X connect 3 0 1 0;
#X connect 4 0 1 0;
#X connect 8 0 9 0;
#X connect 9 0 2 0;
#X connect 9 1 10 0;
#X connect 10 0 3 0;
#X connect 10 1 4 0;
#X restore -53 230 pd random 3;
#X obj 267 250 + 800;
#X obj 189 250 + 500;
#X obj 110 250 + 300;
#N canvas 0 0 450 300 noise 0;
#X obj 114 73 noise~;
#X obj 115 97 lop~ 120;
#X obj 116 200 outlet~;
#X obj 166 42 inlet;
#X obj 116 123 *~ 24;
#X obj 117 145 clip~ -0.2 0.2;
#X obj 116 171 *~ 0.06;
#X connect 0 0 1 0;
#X connect 1 0 4 0;
#X connect 3 0 1 1;
#X connect 4 0 5 0;
#X connect 5 0 6 0;
#X connect 6 0 2 0;
#X restore 89 458 pd noise;
#X obj 267 228 random 800;
#X obj 189 229 random 500;
#X msg 53 139 75;
#X obj 53 118 loadbang;
#X msg 84 139 1;
#X obj 68 552 hip~ 5;
#X obj 68 577 *~ 3;
#X obj 472 602 dac~;
#N canvas 0 0 450 300 pulse 0;
#X obj 109 70 osc~ 640;
#X obj 109 127 *~;
#X obj 93 179 /~;
#X obj 110 99 *~;
#X obj 92 225 *~;
#X obj 188 141 pow -1;
#X obj 92 201 -~ 1;
#X obj 109 153 +~ 1;
#X obj 62 154 sig~ 1;
#X obj 188 121 sqrt;
#X obj 109 42 inlet f;
#X obj 188 41 inlet w;
#X obj 91 251 outlet~;
#X obj 249 14 loadbang;
#X msg 249 40 24;
#X connect 0 0 3 0;
#X connect 1 0 7 0;
#X connect 2 0 6 0;
#X connect 3 0 1 0;
#X connect 3 0 1 1;
#X connect 4 0 12 0;
#X connect 5 0 4 1;
#X connect 6 0 4 0;
#X connect 7 0 2 1;
#X connect 8 0 2 0;
#X connect 9 0 5 0;
#X connect 10 0 0 0;
#X connect 11 0 9 0;
#X connect 11 0 3 1;
#X connect 13 0 14 0;
#X connect 14 0 9 0;
#X connect 14 0 3 1;
#X restore 472 478 pd pulse;
#N canvas 0 0 450 300 voiceres 0;
#X obj 118 226 vcf~ 1 1;
#X obj 53 226 vcf~ 1 1;
#X obj 185 227 vcf~ 1 1;
#X obj 145 182 +;
#X obj 176 181 +;
#X obj 145 151 t b f;
#X obj 187 150 t b f;
#X obj 123 124 +;
#X obj 124 96 t b f;
#X msg 233 183 50;
#X obj 119 267 outlet~;
#X obj 53 51 inlet~;
#X obj 152 44 inlet;
#X obj 201 43 inlet;
#X obj 254 43 inlet;
#X obj 233 160 loadbang;
#X obj 109 44 inlet;
#X connect 0 0 10 0;
#X connect 1 0 10 0;
#X connect 2 0 10 0;
#X connect 3 0 0 1;
#X connect 4 0 2 1;
#X connect 5 0 3 0;
#X connect 5 1 3 1;
#X connect 6 0 4 0;
#X connect 6 1 4 1;
#X connect 7 0 1 1;
#X connect 7 0 3 0;
#X connect 7 0 4 0;
#X connect 8 0 7 0;
#X connect 8 1 7 1;
#X connect 9 0 1 2;
#X connect 9 0 0 2;
#X connect 9 0 2 2;
#X connect 11 0 1 0;
#X connect 11 0 0 0;
#X connect 11 0 2 0;
#X connect 12 0 8 0;
#X connect 13 0 5 0;
#X connect 14 0 6 0;
#X connect 15 0 9 0;
#X connect 16 0 7 0;
#X restore 473 527 pd voiceres;
#N canvas 615 469 450 300 sel~ 0;
#X obj 173 89 == 1;
#X obj 84 204 *~;
#X obj 114 203 *~;
#X obj 209 88 == 0;
#X obj 69 47 inlet~;
#X obj 120 46 inlet~;
#X obj 93 233 outlet~;
#X obj 185 20 inlet;
#X obj 173 135 line~;
#X msg 173 112 \$1 30;
#X obj 218 135 line~;
#X msg 218 112 \$1 30;
#X obj 265 136 line~;
#X msg 265 113 \$1 30;
#X obj 186 46 t f f f;
#X obj 256 89 == 2;
#X obj 149 202 *~;
#X obj 124 112 sig~ 0;
#X connect 0 0 9 0;
#X connect 1 0 6 0;
#X connect 2 0 6 0;
#X connect 3 0 11 0;
#X connect 4 0 1 0;
#X connect 5 0 2 0;
#X connect 7 0 14 0;
#X connect 8 0 1 1;
#X connect 9 0 8 0;
#X connect 10 0 2 1;
#X connect 11 0 10 0;
#X connect 12 0 16 1;
#X connect 13 0 12 0;
#X connect 14 0 0 0;
#X connect 14 1 3 0;
#X connect 14 2 15 0;
#X connect 15 0 13 0;
#X connect 16 0 6 0;
#X connect 17 0 16 0;
#X restore 472 503 pd sel~;
#X obj 469 311 unpack f f f f f;
#X obj 469 287 pack f f f f f;
#X obj 438 227 random 100;
#X obj 493 382 line;
#X obj 558 382 line;
#X obj 624 382 line;
#X obj 690 382 line;
#X obj 515 227 random 300;
#X obj 489 188 metro 50;
#X obj 494 435 * 32;
#X obj 493 358 pack f f;
#X obj 558 358 pack f f;
#X obj 624 358 pack f f;
#X obj 690 358 pack f f;
#X obj 675 315 r \$0-period;
#X obj 458 158 s \$0-period;
#N canvas 0 0 450 300 random 0;
#X obj 98 14 inlet;
#X obj 93 247 outlet;
#X msg 126 168 0;
#X msg 153 197 1;
#X msg 189 220 2;
#X text 159 168 noise;
#X text 187 197 pitched;
#X text 221 222 silence;
#X obj 98 39 random 100;
#X obj 98 64 moses 10;
#X obj 149 87 moses 60;
#X connect 0 0 8 0;
#X connect 2 0 1 0;
#X connect 3 0 1 0;
#X connect 4 0 1 0;
#X connect 8 0 9 0;
#X connect 9 0 2 0;
#X connect 9 1 10 0;
#X connect 10 0 3 0;
#X connect 10 1 4 0;
#X restore 352 228 pd random 3;
#N canvas 0 0 450 300 noise 0;
#X obj 114 73 noise~;
#X obj 115 97 lop~ 120;
#X obj 116 200 outlet~;
#X obj 166 42 inlet;
#X obj 116 123 *~ 24;
#X obj 117 145 clip~ -0.2 0.2;
#X obj 116 171 *~ 0.06;
#X connect 0 0 1 0;
#X connect 1 0 4 0;
#X connect 3 0 1 1;
#X connect 4 0 5 0;
#X connect 5 0 6 0;
#X connect 6 0 2 0;
#X restore 494 456 pd noise;
#X obj 672 226 random 800;
#X obj 594 227 random 500;
#X msg 458 137 75;
#X obj 458 116 loadbang;
#X msg 489 137 1;
#X obj 473 550 hip~ 5;
#X obj 473 575 *~ 3;
#X obj 671 248 + 900;
#X obj 594 248 + 700;
#X obj 515 248 + 500;
#X obj 438 248 + 50;
#X connect 1 0 3 0;
#X connect 2 0 31 0;
#X connect 3 0 2 0;
#X connect 4 0 3 2;
#X connect 4 1 15 0;
#X connect 4 2 16 0;
#X connect 4 3 17 0;
#X connect 4 4 18 0;
#X connect 5 0 4 0;
#X connect 6 0 11 0;
#X connect 7 0 1 0;
#X connect 7 0 2 1;
#X connect 7 0 14 0;
#X connect 8 0 2 2;
#X connect 9 0 2 3;
#X connect 10 0 2 4;
#X connect 11 0 5 1;
#X connect 12 0 24 0;
#X connect 13 0 6 0;
#X connect 13 0 12 0;
#X connect 13 0 21 0;
#X connect 13 0 26 0;
#X connect 13 0 27 0;
#X connect 14 0 25 0;
#X connect 15 0 7 0;
#X connect 16 0 8 0;
#X connect 17 0 9 0;
#X connect 18 0 10 0;
#X connect 19 0 18 1;
#X connect 19 0 17 1;
#X connect 19 0 16 1;
#X connect 19 0 15 1;
#X connect 21 0 5 0;
#X connect 22 0 5 4;
#X connect 23 0 5 3;
#X connect 24 0 5 2;
#X connect 25 0 3 1;
#X connect 26 0 22 0;
#X connect 27 0 23 0;
#X connect 28 0 20 0;
#X connect 28 0 13 1;
#X connect 29 0 28 0;
#X connect 29 0 30 0;
#X connect 30 0 13 0;
#X connect 31 0 32 0;
#X connect 32 0 0 0;
#X connect 32 0 0 1;
#X connect 34 0 36 0;
#X connect 35 0 60 0;
#X connect 36 0 35 0;
#X connect 37 0 36 2;
#X connect 37 1 47 0;
#X connect 37 2 48 0;
#X connect 37 3 49 0;
#X connect 37 4 50 0;
#X connect 38 0 37 0;
#X connect 39 0 65 0;
#X connect 40 0 34 0;
#X connect 40 0 35 1;
#X connect 40 0 46 0;
#X connect 41 0 35 2;
#X connect 42 0 35 3;
#X connect 43 0 35 4;
#X connect 44 0 64 0;
#X connect 45 0 39 0;
#X connect 45 0 44 0;
#X connect 45 0 53 0;
#X connect 45 0 55 0;
#X connect 45 0 56 0;
#X connect 46 0 54 0;
#X connect 47 0 40 0;
#X connect 48 0 41 0;
#X connect 49 0 42 0;
#X connect 50 0 43 0;
#X connect 51 0 50 1;
#X connect 51 0 49 1;
#X connect 51 0 48 1;
#X connect 51 0 47 1;
#X connect 53 0 38 0;
#X connect 54 0 36 1;
#X connect 55 0 62 0;
#X connect 56 0 63 0;
#X connect 57 0 52 0;
#X connect 57 0 45 1;
#X connect 58 0 57 0;
#X connect 58 0 59 0;
#X connect 59 0 45 0;
#X connect 60 0 61 0;
#X connect 61 0 33 0;
#X connect 61 0 33 1;
#X connect 62 0 38 4;
#X connect 63 0 38 3;
#X connect 64 0 38 2;
#X connect 65 0 38 1;
