#N canvas 561 160 450 493 10;
#X obj 101 101 cnv 1 100 25 \$0-SHAKE \$0-2SHAKE empty 20 12 0 14 -1
-262144 0;
#X obj 103 103 cnv 1 12 20 \$0-FIRST \$0-2FIRST empty 20 12 0 14 -24198
-262144 0;
#X obj 120 103 cnv 1 12 20 \$0-SECOND \$0-2SECOND empty 20 12 0 14
-258699 -262144 0;
#X obj 137 103 cnv 1 12 20 \$0-THIRD \$0-2THIRD empty 20 12 0 14 -241291
-262144 0;
#X obj 153 103 cnv 1 12 20 \$0-FOURTH \$0-2FOURTH empty 20 12 0 14
-62784 -262144 0;
#X obj 169 103 cnv 1 12 20 \$0-FIFTH \$0-2FIFTH empty 20 12 0 14 -260818
-262144 0;
#X obj 185 104 cnv 8 13 8 \$0-PICKUP \$0-2PICKUP empty 20 12 0 14 -1
-262144 0;
#X obj 185 115 cnv 8 13 8 \$0-PICKDOWN \$0-2PICKDOWN empty 20 12 0
14 -1 -262144 0;
#X obj 16 150 route key rel abs syn;
#X obj 16 22 hid;
#X msg 113 5 1;
#X obj 202 8 loadbang;
#X obj 202 32 t b b;
#X msg 295 24 refresh;
#X msg 316 59 print;
#X msg 42 -3 open 6;
#X obj 16 217 route btn_0 btn_1 btn_2 btn_3 btn_6 btn_7;
#N canvas 0 0 450 300 pick 0;
#X obj 211 263 s \$0-2PICKDOWN;
#X msg 191 214 color 43;
#X msg 230 237 color -1;
#X msg 91 214 color 43;
#X msg 130 237 color -1;
#X obj 111 263 s \$0-2PICKUP;
#X obj 116 50 route abs_y;
#X obj 114 75 sel 255 128 0;
#X obj 110 13 inlet;
#X connect 1 0 0 0;
#X connect 2 0 0 0;
#X connect 3 0 5 0;
#X connect 4 0 5 0;
#X connect 6 0 7 0;
#X connect 7 0 3 0;
#X connect 7 1 4 0;
#X connect 7 1 2 0;
#X connect 7 2 1 0;
#X connect 8 0 6 0;
#X restore 47 170 pd pick;
#N canvas 290 263 450 300 first 0;
#X obj 110 13 inlet;
#X obj 114 75 sel 0 1;
#X obj 111 263 s \$0-2FIRST;
#X msg 91 214 color 16;
#X msg 130 237 color 1;
#X msg 188 174 color \$1;
#X floatatom 197 129 5 0 0 0 - - -;
#X connect 0 0 1 0;
#X connect 1 0 3 0;
#X connect 1 1 4 0;
#X connect 3 0 2 0;
#X connect 4 0 2 0;
#X connect 5 0 2 0;
#X connect 6 0 5 0;
#X restore 218 246 pd first;
#N canvas 290 263 450 300 third 0;
#X obj 110 13 inlet;
#X obj 114 75 sel 0 1;
#X msg 130 237 color 1;
#X msg 188 174 color \$1;
#X floatatom 197 129 5 0 0 0 - - -;
#X obj 111 263 s \$0-2THIRD;
#X msg 91 214 color 15;
#X connect 0 0 1 0;
#X connect 1 0 6 0;
#X connect 1 1 2 0;
#X connect 2 0 5 0;
#X connect 3 0 5 0;
#X connect 4 0 3 0;
#X connect 6 0 5 0;
#X restore 16 266 pd third;
#N canvas 62 231 450 300 second 0;
#X obj 110 13 inlet;
#X obj 114 75 sel 0 1;
#X msg 130 237 color 1;
#X msg 188 174 color \$1;
#X floatatom 197 129 5 0 0 0 - - -;
#X obj 111 263 s \$0-2SECOND;
#X msg 91 214 color 13;
#X connect 0 0 1 0;
#X connect 1 0 6 0;
#X connect 1 1 2 0;
#X connect 2 0 5 0;
#X connect 3 0 5 0;
#X connect 4 0 3 0;
#X connect 6 0 5 0;
#X restore 56 286 pd second;
#N canvas 62 231 450 300 fifth 0;
#X obj 110 13 inlet;
#X obj 114 75 sel 0 1;
#X msg 130 237 color 1;
#X obj 111 263 s \$0-2FIFTH;
#X msg 91 214 color 14;
#X connect 0 0 1 0;
#X connect 1 0 4 0;
#X connect 1 1 2 0;
#X connect 2 0 3 0;
#X connect 4 0 3 0;
#X restore 137 326 pd fifth;
#N canvas 62 231 450 300 fourth 0;
#X obj 110 13 inlet;
#X obj 114 75 sel 0 1;
#X msg 130 237 color 1;
#X msg 188 174 color \$1;
#X floatatom 197 129 5 0 0 0 - - -;
#X obj 111 263 s \$0-2FOURTH;
#X msg 91 214 color 18;
#X connect 0 0 1 0;
#X connect 1 0 6 0;
#X connect 1 1 2 0;
#X connect 2 0 5 0;
#X connect 3 0 5 0;
#X connect 4 0 3 0;
#X connect 6 0 5 0;
#X restore 97 306 pd fourth;
#N canvas 290 263 261 273 shake 0;
#X obj 110 13 inlet;
#X obj 114 75 sel 0 1;
#X obj 111 263 s \$0-2SHAKE;
#X msg 130 237 color -1;
#X msg 91 214 color 17;
#X connect 0 0 1 0;
#X connect 1 0 4 0;
#X connect 1 1 3 0;
#X connect 3 0 2 0;
#X connect 4 0 2 0;
#X restore 178 266 pd shake;
#X obj 63 52 outlet;
#X obj 16 114 spigot;
#X obj 191 116 tgl 10 0 empty empty empty 0 -6 0 10 -262144 -1 -1 0
1;
#X connect 8 0 16 0;
#X connect 8 2 17 0;
#X connect 9 0 24 0;
#X connect 9 0 25 0;
#X connect 10 0 9 0;
#X connect 11 0 12 0;
#X connect 12 0 10 0;
#X connect 12 1 15 0;
#X connect 13 0 9 0;
#X connect 14 0 9 0;
#X connect 15 0 9 0;
#X connect 16 0 19 0;
#X connect 16 1 20 0;
#X connect 16 2 22 0;
#X connect 16 3 21 0;
#X connect 16 4 23 0;
#X connect 16 5 18 0;
#X connect 25 0 8 0;
#X connect 26 0 25 1;
#X coords 0 -1 1 1 102 27 1 100 100;
