#N canvas 0 0 595 443 10;
#X obj 56 300 ftom;
#X obj 56 235 metro 450;
#X obj 56 325 makenote 60 500;
#N canvas 0 0 505 360 rangekeeper 0;
#X obj 142 156 sel 0 1;
#X obj 262 166 sel 0 1;
#X obj 253 118 < 80;
#X obj 195 225 del 25;
#X obj 151 301 outlet;
#X obj 130 252 bang;
#X obj 146 28 inlet;
#X obj 248 49 inlet;
#X obj 248 78 unpack;
#X text 253 28 low/hi;
#X obj 133 108 > 5000;
#X connect 0 1 3 0;
#X connect 0 1 5 0;
#X connect 1 1 3 0;
#X connect 1 1 5 0;
#X connect 2 0 1 0;
#X connect 3 0 5 0;
#X connect 5 0 4 0;
#X connect 6 0 2 0;
#X connect 6 0 10 0;
#X connect 7 0 8 0;
#X connect 8 0 10 1;
#X connect 8 1 2 1;
#X connect 10 0 0 0;
#X restore 150 229 pd rangekeeper;
#N canvas 0 0 450 300 crescendo 0;
#X obj 95 37 inlet;
#X obj 155 37 inlet;
#X text 215 14 variables:;
#X text 232 59 ramp length;
#X text 210 33 piano velocity;
#X text 218 47 forte velocity;
#X obj 183 203 line;
#X obj 284 104 unpack f f f;
#X obj 169 169 pack;
#X obj 155 79 route piano forte ramp;
#X obj 95 104 t b b;
#X obj 183 238 outlet;
#X obj 220 173 f;
#X connect 0 0 10 0;
#X connect 1 0 9 0;
#X connect 6 0 11 0;
#X connect 7 0 12 1;
#X connect 7 1 8 0;
#X connect 7 2 8 1;
#X connect 8 0 6 0;
#X connect 9 0 12 1;
#X connect 9 1 8 0;
#X connect 9 2 8 1;
#X connect 9 3 7 0;
#X connect 10 0 8 0;
#X connect 10 1 12 0;
#X connect 12 0 6 0;
#X restore 145 292 pd crescendo;
#X msg 392 52 500 1000 12000;
#X obj 95 384 pack;
#X obj 80 359 int;
#X msg 325 88 45 100 10000;
#X obj 11 14 inlet;
#N canvas 0 0 450 300 action 0;
#X obj 95 37 inlet;
#X obj 155 37 inlet;
#X text 215 14 variables:;
#X text 232 59 ramp length;
#X text 210 33 piano velocity;
#X text 218 47 forte velocity;
#X obj 183 203 line;
#X obj 284 104 unpack f f f;
#X obj 169 169 pack;
#X obj 155 79 route piano forte ramp;
#X obj 95 104 t b b;
#X obj 183 238 outlet;
#X obj 220 173 f;
#X connect 0 0 10 0;
#X connect 1 0 9 0;
#X connect 6 0 11 0;
#X connect 7 0 12 1;
#X connect 7 1 8 0;
#X connect 7 2 8 1;
#X connect 8 0 6 0;
#X connect 9 0 12 1;
#X connect 9 1 8 0;
#X connect 9 2 8 1;
#X connect 9 3 7 0;
#X connect 10 0 8 0;
#X connect 10 1 12 0;
#X connect 12 0 6 0;
#X restore 127 188 pd action;
#X text 356 153 rangekeeper;
#X msg 434 152 lo hi;
#X msg 427 132 begin end dur;
#X text 366 131 action;
#X text 361 178 crescendo;
#X msg 428 177 lo hi dur;
#X msg 426 203 frequency;
#X text 362 201 tonic;
#X obj 145 252 int 523;
#X obj 55 178 tgl 15 0 empty empty empty 0 -6 0 10 -262144 -1 -1 0
1;
#X obj 317 20 loadbang;
#X obj 11 37 route action rangekeeper tonic crescendo;
#N canvas 0 0 348 359 harmonystring 0;
#X obj 116 20 inlet;
#X obj 143 303 outlet;
#X obj 169 96 random 7;
#X obj 186 31 inlet;
#N canvas 199 538 502 313 rangelogic 0;
#X obj 73 45 inlet;
#X obj 101 254 outlet;
#X text 222 97 a check \;;
#X text 232 113 octave lower than original pitch?;
#X text 370 143 -1;
#X text 435 113 +1;
#X obj 250 45 inlet;
#X text 263 143 octave higher?;
#X text 287 166 within range?;
#X text 386 166 0;
#X obj 73 115 moses;
#X obj 100 159 moses;
#X obj 100 90 * 0.5;
#X obj 127 132 * 2;
#X msg 100 203 0;
#X msg 128 190 -1;
#X msg 73 179 1;
#X connect 0 0 10 0;
#X connect 6 0 12 0;
#X connect 6 0 13 0;
#X connect 10 0 16 0;
#X connect 10 1 11 0;
#X connect 11 0 14 0;
#X connect 11 1 15 0;
#X connect 12 0 10 1;
#X connect 13 0 11 1;
#X connect 14 0 1 0;
#X connect 15 0 1 0;
#X connect 16 0 1 0;
#X restore 232 105 pd rangelogic;
#X obj 116 250 * 1;
#X obj 116 143 int;
#X obj 143 97 + 0;
#X obj 116 65 t b b;
#X obj 47 287 s \$0-feedback;
#X obj 232 84 r \$0-feedback;
#X obj 26 74 r \$0-feedback;
#N canvas 0 0 983 625 harmonik 0;
#X obj 59 100 sel 0 1 2 3 4 5 6;
#X obj 56 73 +;
#X msg 239 92 -1;
#X obj 162 149 sel 0 1;
#X obj 159 125 < 0;
#X obj 162 70 int 0;
#X msg 92 165 1;
#X msg 120 175 1.2;
#X msg 74 147 0.8;
#X msg 44 148 0.75;
#X msg 15 129 0.66667;
#X msg 140 196 1.25;
#X msg 153 219 1.33333;
#X obj 46 16 inlet;
#X obj 175 20 inlet;
#X obj 15 229 outlet;
#X text 280 101 passes back bad random results;
#X text 58 238 sounds out harmonic relations;
#X msg 250 117 1;
#X connect 0 0 10 0;
#X connect 0 1 9 0;
#X connect 0 2 8 0;
#X connect 0 3 6 0;
#X connect 0 4 7 0;
#X connect 0 5 11 0;
#X connect 0 6 12 0;
#X connect 0 7 4 0;
#X connect 1 0 0 0;
#X connect 2 0 5 0;
#X connect 3 0 2 0;
#X connect 3 1 18 0;
#X connect 4 0 3 0;
#X connect 5 0 1 1;
#X connect 6 0 15 0;
#X connect 7 0 15 0;
#X connect 8 0 15 0;
#X connect 9 0 15 0;
#X connect 10 0 15 0;
#X connect 11 0 15 0;
#X connect 12 0 15 0;
#X connect 13 0 1 0;
#X connect 14 0 5 0;
#X connect 18 0 5 0;
#X restore 169 127 pd harmonik;
#X connect 0 0 8 0;
#X connect 2 0 12 0;
#X connect 3 0 7 0;
#X connect 4 0 12 1;
#X connect 5 0 1 0;
#X connect 5 0 9 0;
#X connect 6 0 5 0;
#X connect 7 0 1 0;
#X connect 7 0 6 0;
#X connect 8 0 6 0;
#X connect 8 1 2 0;
#X connect 10 0 4 0;
#X connect 11 0 6 1;
#X connect 12 0 5 1;
#X restore 39 272 pd harmonystring;
#X obj 95 412 outlet;
#X obj 266 14 inlet;
#X obj 175 123 bang;
#X connect 0 0 2 0;
#X connect 1 0 23 0;
#X connect 2 0 7 0;
#X connect 2 1 6 1;
#X connect 3 0 19 0;
#X connect 4 0 2 1;
#X connect 5 0 10 1;
#X connect 6 0 24 0;
#X connect 7 0 6 0;
#X connect 8 0 4 1;
#X connect 9 0 22 0;
#X connect 10 0 1 1;
#X connect 19 0 4 0;
#X connect 19 0 23 1;
#X connect 20 0 1 0;
#X connect 21 0 5 0;
#X connect 21 0 8 0;
#X connect 22 0 10 1;
#X connect 22 1 3 1;
#X connect 22 2 19 1;
#X connect 22 3 4 1;
#X connect 22 4 20 0;
#X connect 23 0 0 0;
#X connect 25 0 26 0;
#X connect 26 0 10 0;
