#N canvas 339 192 646 467 10;
#X obj 320 25 r \$0-LowerLimit;
#X obj 343 44 r \$0-UpperLimit;
#X obj 184 129 bang;
#X obj 240 303 s \$0-ClipRoom;
#X obj 100 66 vsl 24 32 -1 0 0 0 \$0-LowerLimit \$0-2LowerLimit empty
0 -9 0 10 -262144 -1 -1 0 1;
#X obj 100 29 vsl 24 32 0 1 0 1 \$0-UpperLimit \$0-2UpperLimit empty
0 -9 0 10 -262144 -1 -1 1800 1;
#X obj 140 159 r \$0-LowerLimit;
#X obj 239 133 r \$0-UpperLimit;
#X obj 258 167 * 32;
#X obj 173 199 * -32;
#X obj 219 245 * 1;
#X obj 281 193 * -1;
#X obj 211 221 +;
#X obj 100 45 cnv 1 24 18 empty \$0-ClipRoom empty 20 12 0 14 -73473
-66577 0;
#X msg 299 248 pos 100 \$1;
#X obj 250 2 inlet~;
#X obj 293 95 outlet~;
#X obj 275 55 clip~;
#X msg 230 279 vis_size 24 \$1;
#X obj 296 223 + 64;
#N canvas 110 108 770 568 save 1;
#X obj 477 312 tabread \$0-saveparam;
#X obj 559 214 unpack f f;
#X msg 532 130 \$1 0;
#X msg 562 140 \$1 1;
#X obj 439 326 int;
#X obj 413 304 bang;
#X obj 454 349 pack;
#X obj 291 44 openpanel;
#X obj 477 267 until;
#X obj 24 18 inlet;
#X obj 291 18 inlet;
#X obj 64 199 tabread \$0-saveparam;
#X obj 62 151 until;
#X obj 76 301 textfile;
#X obj 541 236 tabwrite \$0-saveparam;
#X msg 66 225 add \$1;
#X obj 20 110 savepanel;
#X msg 15 216 write \$1;
#X msg 19 294 clear;
#X obj 19 270 pipe 30;
#X obj 24 86 t b b;
#X obj 18 243 bang;
#X obj 306 158 textfile;
#X msg 296 103 read \$1;
#X msg 313 129 rewind;
#X obj 296 255 pack;
#X obj 233 140 until;
#X obj 224 87 bang;
#X obj 528 349 table \$0-saveparam 2;
#X obj 573 94 r \$0-LowerLimit;
#X obj 541 70 r \$0-UpperLimit;
#X obj 63 168 countto 2;
#X msg 62 131 2;
#X msg 225 115 2;
#X obj 251 210 countto 2;
#X msg 477 247 2;
#X obj 478 287 countto 2;
#X obj 452 375 route 0 1;
#X obj 488 403 s \$0-2LowerLimit;
#X obj 445 423 s \$0-2UpperLimit;
#X obj 338 74 r \$0-load;
#X connect 0 0 6 1;
#X connect 0 0 5 0;
#X connect 1 0 14 0;
#X connect 1 1 14 1;
#X connect 2 0 1 0;
#X connect 3 0 1 0;
#X connect 4 0 6 0;
#X connect 5 0 4 0;
#X connect 6 0 37 0;
#X connect 7 0 23 0;
#X connect 8 0 36 0;
#X connect 9 0 20 0;
#X connect 10 0 7 0;
#X connect 11 0 15 0;
#X connect 12 0 31 0;
#X connect 15 0 13 0;
#X connect 16 0 17 0;
#X connect 17 0 13 0;
#X connect 17 0 21 0;
#X connect 18 0 13 0;
#X connect 19 0 18 0;
#X connect 20 0 16 0;
#X connect 20 1 32 0;
#X connect 21 0 19 0;
#X connect 22 0 25 1;
#X connect 22 0 34 0;
#X connect 23 0 22 0;
#X connect 23 0 24 0;
#X connect 24 0 22 0;
#X connect 24 0 27 0;
#X connect 25 0 37 0;
#X connect 26 0 22 0;
#X connect 27 0 33 0;
#X connect 29 0 3 0;
#X connect 30 0 2 0;
#X connect 31 0 11 0;
#X connect 32 0 12 0;
#X connect 33 0 26 0;
#X connect 34 0 25 0;
#X connect 35 0 8 0;
#X connect 36 0 0 0;
#X connect 36 0 4 1;
#X connect 37 0 39 0;
#X connect 37 1 38 0;
#X connect 40 0 23 0;
#X restore 397 300 pd save;
#X obj 100 101 bng 13 250 50 0 empty empty save 0 8 0 6 -262144 -258113
-258113;
#X obj 111 101 bng 13 250 50 0 empty empty open 0 8 0 6 -262144 -4160
-4160;
#X obj 434 113 route load;
#X obj 434 135 s \$0-load;
#X obj 457 34 inlet;
#X obj 435 165 route UpperLimit LowerLimit;
#X obj 434 245 s \$0-2UpperLimit;
#X obj 484 275 s \$0-2LowerLimit;
#X obj 533 206 unpack;
#X connect 0 0 17 1;
#X connect 1 0 17 2;
#X connect 2 0 12 0;
#X connect 6 0 9 0;
#X connect 7 0 8 0;
#X connect 7 0 2 0;
#X connect 8 0 11 0;
#X connect 8 0 12 1;
#X connect 9 0 12 0;
#X connect 10 0 18 0;
#X connect 11 0 19 0;
#X connect 12 0 10 0;
#X connect 14 0 3 0;
#X connect 15 0 17 0;
#X connect 17 0 16 0;
#X connect 18 0 3 0;
#X connect 19 0 14 0;
#X connect 21 0 20 0;
#X connect 22 0 20 1;
#X connect 23 0 24 0;
#X connect 23 1 26 0;
#X connect 25 0 23 0;
#X connect 26 0 27 0;
#X connect 26 1 28 0;
#X connect 26 2 29 0;
#X connect 29 0 27 0;
#X connect 29 1 28 0;
#X coords 0 -1 1 1 26 89 1 99 26;
