#N canvas 95 141 767 396 10;
#X obj 334 187 + 1;
#X obj 334 211 % 4;
#X obj 100 57 hradio 10 1 0 49 \$0-Sequence \$0-2Sequence empty 0 -8
0 10 -262144 -1 -1 0;
#X obj 339 301 s \$0-2Sequence;
#X msg 333 246 set \$1;
#X msg 424 195 number \$1;
#X obj 422 223 r \$0-Sequence;
#X obj 307 272 bang;
#X obj 100 45 tgl 10 0 \$0-Event0 \$0-2Event0 empty 17 7 0 10 -262144
-1 -1 0 1;
#X obj 110 45 tgl 10 0 \$0-Event1 \$0-2Event1 empty 17 7 0 10 -262144
-1 -1 0 36;
#X obj 120 45 tgl 10 0 \$0-Event2 \$0-2Event2 empty 17 7 0 10 -262144
-1 -1 0 30.7599;
#X obj 115 288 s \$0-CoverUp;
#X obj 125 163 * 10;
#X obj 283 122 int;
#X obj 99 218 abs;
#X obj 422 266 outlet;
#X obj 103 70 hsl 485 8 1 49 0 0 \$0-Size \$0-2Size empty -2 -8 0 10
-262144 -1 -1 0 1;
#X obj 130 45 tgl 10 0 \$0-Event3 \$0-2Event3 empty 17 7 0 10 -262144
-1 -1 0 1;
#X obj 140 45 tgl 10 0 \$0-Event4 \$0-2Event4 empty 17 7 0 10 -262144
-1 -1 0 15.0395;
#X obj 150 45 tgl 10 0 \$0-Event5 \$0-2Event5 empty 17 7 0 10 -262144
-1 -1 0 36;
#X obj 160 45 tgl 10 0 \$0-Event6 \$0-2Event6 empty 17 7 0 10 -262144
-1 -1 0 36;
#X obj 170 45 tgl 10 0 \$0-Event7 \$0-2Event7 empty 17 7 0 10 -262144
-1 -1 0 30.7599;
#X obj 180 45 tgl 10 0 \$0-Event8 \$0-2Event8 empty 17 7 0 10 -262144
-1 -1 0 1;
#X obj 190 45 tgl 10 0 \$0-Event9 \$0-2Event9 empty 17 7 0 10 -262144
-1 -1 0 15.0395;
#X obj 200 45 tgl 10 0 \$0-Event10 \$0-2Event10 empty 17 7 0 10 -262144
-1 -1 0 36;
#X obj 210 45 tgl 10 0 \$0-Event11 \$0-2Event11 empty 17 7 0 10 -262144
-1 -1 0 36;
#X obj 220 45 tgl 10 0 \$0-Event12 \$0-2Event12 empty 17 7 0 10 -262144
-1 -1 0 30.7599;
#X obj 230 45 tgl 10 0 \$0-Event13 \$0-2Event13 empty 17 7 0 10 -262144
-1 -1 0 1;
#X obj 240 45 tgl 10 0 \$0-Event14 \$0-2Event14 empty 17 7 0 10 -262144
-1 -1 0 15.0395;
#X obj 250 45 tgl 10 0 \$0-Event15 \$0-2Event15 empty 17 7 0 10 -262144
-1 -1 0 36;
#X obj 260 45 tgl 10 0 \$0-Event16 \$0-2Event16 empty 17 7 0 10 -262144
-1 -1 0 36;
#X obj 270 45 tgl 10 0 \$0-Event17 \$0-2Event17 empty 17 7 0 10 -262144
-1 -1 0 30.7599;
#X obj 280 45 tgl 10 0 \$0-Event18 \$0-2Event18 empty 17 7 0 10 -262144
-1 -1 0 1;
#X obj 290 45 tgl 10 0 \$0-Event19 \$0-2Event19 empty 17 7 0 10 -262144
-1 -1 0 15.0395;
#X obj 300 45 tgl 10 0 \$0-Event20 \$0-2Event20 empty 17 7 0 10 -262144
-1 -1 0 36;
#X obj 310 45 tgl 10 0 \$0-Event21 \$0-2Event21 empty 17 7 0 10 -262144
-1 -1 0 36;
#X obj 320 45 tgl 10 0 \$0-Event22 \$0-2Event22 empty 17 7 0 10 -262144
-1 -1 0 30.7599;
#X obj 330 45 tgl 10 0 \$0-Event23 \$0-2Event23 empty 17 7 0 10 -262144
-1 -1 0 1;
#X obj 350 45 tgl 10 0 \$0-Event25 \$0-2Event25 empty 17 7 0 10 -262144
-1 -1 0 36;
#X obj 360 45 tgl 10 0 \$0-Event26 \$0-2Event26 empty 17 7 0 10 -262144
-1 -1 0 36;
#X obj 370 45 tgl 10 0 \$0-Event27 \$0-2Event27 empty 17 7 0 10 -262144
-1 -1 0 30.7599;
#X obj 380 45 tgl 10 0 \$0-Event28 \$0-2Event28 empty 17 7 0 10 -262144
-1 -1 0 1;
#X obj 390 45 tgl 10 0 \$0-Event29 \$0-2Event29 empty 17 7 0 10 -262144
-1 -1 0 15.0395;
#X obj 400 45 tgl 10 0 \$0-Event30 \$0-2Event30 empty 17 7 0 10 -262144
-1 -1 0 36;
#X obj 410 45 tgl 10 0 \$0-Event31 \$0-2Event31 empty 17 7 0 10 -262144
-1 -1 0 36;
#X obj 420 45 tgl 10 0 \$0-Event32 \$0-2Even32 empty 17 7 0 10 -262144
-1 -1 0 1;
#X obj 430 45 tgl 10 0 \$0-Event33 \$0-2Event33 empty 17 7 0 10 -262144
-1 -1 0 1;
#X obj 440 45 tgl 10 0 \$0-Event34 \$0-2Event34 empty 17 7 0 10 -262144
-1 -1 0 15.0395;
#X obj 460 45 tgl 10 0 \$0-Event36 \$0-2Event36 empty 17 7 0 10 -262144
-1 -1 0 36;
#X obj 428 132 inlet;
#X msg 250 193 label ]$1;
#X msg 252 159 set label ]$1;
#X obj 199 173 bang;
#X obj 473 296 outlet;
#X obj 561 177 s \$0-2Size;
#X obj 428 160 bang;
#X obj 258 261 int 0;
#X msg 195 222 pos \$1 46;
#X obj 173 202 + 101;
#X msg 110 252 vis_size \$1 21;
#X text 412 117 increment;
#N canvas 0 23 962 632 tableupdate 0;
#X obj 26 22 r \$0-Event0;
#X obj 36 42 r \$0-Event1;
#X obj 46 62 r \$0-Event2;
#X obj 56 82 r \$0-Event3;
#X obj 66 102 r \$0-Event4;
#X obj 76 122 r \$0-Event5;
#X obj 86 142 r \$0-Event6;
#X obj 96 162 r \$0-Event7;
#X obj 106 182 r \$0-Event8;
#X obj 116 202 r \$0-Event9;
#X obj 126 222 r \$0-Event10;
#X obj 136 242 r \$0-Event11;
#X obj 146 262 r \$0-Event12;
#X obj 156 282 r \$0-Event13;
#X obj 166 302 r \$0-Event14;
#X obj 176 322 r \$0-Event15;
#X obj -375 39 r \$0-Event16;
#X obj -365 59 r \$0-Event17;
#X obj -355 79 r \$0-Event18;
#X obj -345 99 r \$0-Event19;
#X obj -335 119 r \$0-Event20;
#X obj -325 139 r \$0-Event21;
#X obj -315 159 r \$0-Event22;
#X obj -305 179 r \$0-Event23;
#X obj -295 199 r \$0-Event24;
#X obj -285 219 r \$0-Event25;
#X obj -275 239 r \$0-Event26;
#X obj -265 259 r \$0-Event27;
#X obj -255 279 r \$0-Event28;
#X obj -245 299 r \$0-Event29;
#X obj -235 319 r \$0-Event30;
#X obj -225 339 r \$0-Event31;
#X obj -215 359 r \$0-Event32;
#X obj -205 379 r \$0-Event33;
#X obj -195 399 r \$0-Event34;
#X obj -185 419 r \$0-Event35;
#X obj -138 86 tabwrite \$0-read;
#X obj -126 39 t f b;
#X msg -99 62 0;
#X obj -128 156 tabwrite \$0-read;
#X obj -116 109 t f b;
#X obj -118 226 tabwrite \$0-read;
#X obj -106 179 t f b;
#X obj -118 306 tabwrite \$0-read;
#X obj -106 259 t f b;
#X obj -118 376 tabwrite \$0-read;
#X obj -106 329 t f b;
#X obj -108 446 tabwrite \$0-read;
#X obj -96 399 t f b;
#X obj -108 516 tabwrite \$0-read;
#X obj -96 469 t f b;
#X msg -89 132 1;
#X msg -79 202 2;
#X msg -79 282 3;
#X msg -79 352 4;
#X msg -69 422 5;
#X msg -69 492 6;
#X obj -18 205 tabwrite \$0-read;
#X obj -6 158 t f b;
#X obj -8 275 tabwrite \$0-read;
#X obj 4 228 t f b;
#X obj 2 345 tabwrite \$0-read;
#X obj 14 298 t f b;
#X obj 2 425 tabwrite \$0-read;
#X obj 14 378 t f b;
#X obj 2 495 tabwrite \$0-read;
#X obj 14 448 t f b;
#X obj 12 565 tabwrite \$0-read;
#X obj 24 518 t f b;
#X obj 12 635 tabwrite \$0-read;
#X obj 24 588 t f b;
#X msg 21 181 7;
#X msg 31 251 8;
#X msg 41 321 9;
#X msg 41 401 10;
#X msg 41 471 11;
#X msg 51 541 12;
#X msg 51 611 13;
#X obj 123 565 tabwrite \$0-read;
#X obj 135 518 t f b;
#X obj 123 635 tabwrite \$0-read;
#X obj 135 588 t f b;
#X msg 162 541 14;
#X msg 162 611 15;
#X obj -641 85 tabwrite \$0-read;
#X obj -629 38 t f b;
#X obj -631 155 tabwrite \$0-read;
#X obj -619 108 t f b;
#X obj -621 225 tabwrite \$0-read;
#X obj -609 178 t f b;
#X obj -621 305 tabwrite \$0-read;
#X obj -609 258 t f b;
#X obj -621 375 tabwrite \$0-read;
#X obj -609 328 t f b;
#X obj -611 445 tabwrite \$0-read;
#X obj -599 398 t f b;
#X obj -611 515 tabwrite \$0-read;
#X obj -599 468 t f b;
#X obj -521 204 tabwrite \$0-read;
#X obj -509 157 t f b;
#X obj -511 274 tabwrite \$0-read;
#X obj -499 227 t f b;
#X obj -501 344 tabwrite \$0-read;
#X obj -489 297 t f b;
#X obj -501 424 tabwrite \$0-read;
#X obj -489 377 t f b;
#X obj -501 494 tabwrite \$0-read;
#X obj -489 447 t f b;
#X obj -491 564 tabwrite \$0-read;
#X obj -479 517 t f b;
#X obj -491 634 tabwrite \$0-read;
#X obj -479 587 t f b;
#X obj -380 564 tabwrite \$0-read;
#X obj -368 517 t f b;
#X obj -380 634 tabwrite \$0-read;
#X obj -368 587 t f b;
#X msg -602 61 16;
#X msg -592 131 17;
#X msg -582 201 18;
#X msg -582 281 19;
#X msg -582 351 20;
#X msg -572 421 21;
#X msg -572 491 22;
#X msg -482 180 23;
#X msg -472 250 24;
#X msg -462 320 25;
#X msg -462 400 26;
#X msg -462 470 27;
#X msg -452 540 28;
#X msg -452 610 29;
#X msg -341 540 30;
#X msg -341 610 31;
#X obj -271 574 tabwrite \$0-read;
#X obj -259 527 t f b;
#X obj -271 644 tabwrite \$0-read;
#X obj -259 597 t f b;
#X obj -160 574 tabwrite \$0-read;
#X obj -148 527 t f b;
#X obj -160 644 tabwrite \$0-read;
#X obj -148 597 t f b;
#X msg -232 550 32;
#X msg -232 620 33;
#X msg -121 550 34;
#X msg -121 620 35;
#X obj 262 66 tabwrite \$0-read;
#X obj 274 19 t f b;
#X obj 272 136 tabwrite \$0-read;
#X obj 284 89 t f b;
#X obj 282 206 tabwrite \$0-read;
#X obj 294 159 t f b;
#X obj 282 286 tabwrite \$0-read;
#X obj 294 239 t f b;
#X obj 282 356 tabwrite \$0-read;
#X obj 294 309 t f b;
#X obj 292 426 tabwrite \$0-read;
#X obj 304 379 t f b;
#X obj 292 496 tabwrite \$0-read;
#X obj 304 449 t f b;
#X obj 382 185 tabwrite \$0-read;
#X obj 394 138 t f b;
#X obj 392 255 tabwrite \$0-read;
#X obj 404 208 t f b;
#X obj 402 325 tabwrite \$0-read;
#X obj 414 278 t f b;
#X obj 402 405 tabwrite \$0-read;
#X obj 414 358 t f b;
#X obj 402 475 tabwrite \$0-read;
#X obj 414 428 t f b;
#X obj 412 545 tabwrite \$0-read;
#X obj 424 498 t f b;
#X obj 412 615 tabwrite \$0-read;
#X obj 424 568 t f b;
#X obj 426 2 r \$0-Event36;
#X obj 436 22 r \$0-Event37;
#X obj 446 42 r \$0-Event38;
#X obj 456 62 r \$0-Event39;
#X obj 466 82 r \$0-Event40;
#X obj 476 102 r \$0-Event41;
#X obj 486 122 r \$0-Event42;
#X obj 496 142 r \$0-Event43;
#X obj 506 162 r \$0-Event44;
#X obj 516 182 r \$0-Event45;
#X obj 526 202 r \$0-Event46;
#X obj 536 222 r \$0-Event47;
#X obj 546 242 r \$0-Event48;
#X obj 556 262 r \$0-Event49;
#X msg 451 591 49;
#X msg 451 521 48;
#X msg 441 451 47;
#X msg 441 381 46;
#X msg 441 301 45;
#X msg 431 231 44;
#X msg 421 161 43;
#X msg 331 472 42;
#X msg 331 402 41;
#X msg 321 332 40;
#X msg 321 262 39;
#X msg 321 182 38;
#X msg 311 112 37;
#X msg 301 42 36;
#X connect 0 0 37 0;
#X connect 1 0 40 0;
#X connect 2 0 42 0;
#X connect 3 0 44 0;
#X connect 4 0 46 0;
#X connect 5 0 48 0;
#X connect 6 0 50 0;
#X connect 7 0 58 0;
#X connect 8 0 60 0;
#X connect 9 0 62 0;
#X connect 10 0 64 0;
#X connect 11 0 66 0;
#X connect 12 0 68 0;
#X connect 13 0 70 0;
#X connect 14 0 79 0;
#X connect 15 0 81 0;
#X connect 16 0 85 0;
#X connect 17 0 87 0;
#X connect 18 0 89 0;
#X connect 19 0 91 0;
#X connect 20 0 93 0;
#X connect 21 0 95 0;
#X connect 22 0 97 0;
#X connect 23 0 99 0;
#X connect 24 0 101 0;
#X connect 25 0 103 0;
#X connect 26 0 105 0;
#X connect 27 0 107 0;
#X connect 28 0 109 0;
#X connect 29 0 111 0;
#X connect 30 0 113 0;
#X connect 31 0 115 0;
#X connect 32 0 133 0;
#X connect 33 0 135 0;
#X connect 34 0 137 0;
#X connect 35 0 139 0;
#X connect 37 0 36 0;
#X connect 37 1 38 0;
#X connect 38 0 36 1;
#X connect 40 0 39 0;
#X connect 40 1 51 0;
#X connect 42 0 41 0;
#X connect 42 1 52 0;
#X connect 44 0 43 0;
#X connect 44 1 53 0;
#X connect 46 0 45 0;
#X connect 46 1 54 0;
#X connect 48 0 47 0;
#X connect 48 1 55 0;
#X connect 50 0 49 0;
#X connect 50 1 56 0;
#X connect 51 0 39 1;
#X connect 52 0 41 1;
#X connect 53 0 43 1;
#X connect 54 0 45 1;
#X connect 55 0 47 1;
#X connect 56 0 49 1;
#X connect 58 0 57 0;
#X connect 58 1 71 0;
#X connect 60 0 59 0;
#X connect 60 1 72 0;
#X connect 62 0 61 0;
#X connect 62 1 73 0;
#X connect 64 0 63 0;
#X connect 64 1 74 0;
#X connect 66 0 65 0;
#X connect 66 1 75 0;
#X connect 68 0 67 0;
#X connect 68 1 76 0;
#X connect 70 0 69 0;
#X connect 70 1 77 0;
#X connect 71 0 57 1;
#X connect 72 0 59 1;
#X connect 73 0 61 1;
#X connect 74 0 63 1;
#X connect 75 0 65 1;
#X connect 76 0 67 1;
#X connect 77 0 69 1;
#X connect 79 0 78 0;
#X connect 79 1 82 0;
#X connect 81 0 80 0;
#X connect 81 1 83 0;
#X connect 82 0 78 1;
#X connect 83 0 80 1;
#X connect 85 0 84 0;
#X connect 85 1 116 0;
#X connect 87 0 86 0;
#X connect 87 1 117 0;
#X connect 89 0 88 0;
#X connect 89 1 118 0;
#X connect 91 0 90 0;
#X connect 91 1 119 0;
#X connect 93 0 92 0;
#X connect 93 1 120 0;
#X connect 95 0 94 0;
#X connect 95 1 121 0;
#X connect 97 0 96 0;
#X connect 97 1 122 0;
#X connect 99 0 98 0;
#X connect 99 1 123 0;
#X connect 101 0 100 0;
#X connect 101 1 124 0;
#X connect 103 0 102 0;
#X connect 103 1 125 0;
#X connect 105 0 104 0;
#X connect 105 1 126 0;
#X connect 107 0 106 0;
#X connect 107 1 127 0;
#X connect 109 0 108 0;
#X connect 109 1 128 0;
#X connect 111 0 110 0;
#X connect 111 1 129 0;
#X connect 113 0 112 0;
#X connect 113 1 130 0;
#X connect 115 0 114 0;
#X connect 115 1 131 0;
#X connect 116 0 84 1;
#X connect 117 0 86 1;
#X connect 118 0 88 1;
#X connect 119 0 90 1;
#X connect 120 0 92 1;
#X connect 121 0 94 1;
#X connect 122 0 96 1;
#X connect 123 0 98 1;
#X connect 124 0 100 1;
#X connect 125 0 102 1;
#X connect 126 0 104 1;
#X connect 127 0 106 1;
#X connect 128 0 108 1;
#X connect 129 0 110 1;
#X connect 130 0 112 1;
#X connect 131 0 114 1;
#X connect 133 0 132 0;
#X connect 133 1 140 0;
#X connect 135 0 134 0;
#X connect 135 1 141 0;
#X connect 137 0 136 0;
#X connect 137 1 142 0;
#X connect 139 0 138 0;
#X connect 139 1 143 0;
#X connect 140 0 132 1;
#X connect 141 0 134 1;
#X connect 142 0 136 1;
#X connect 143 0 138 1;
#X connect 145 0 144 0;
#X connect 145 1 199 0;
#X connect 147 0 146 0;
#X connect 147 1 198 0;
#X connect 149 0 148 0;
#X connect 149 1 197 0;
#X connect 151 0 150 0;
#X connect 151 1 196 0;
#X connect 153 0 152 0;
#X connect 153 1 195 0;
#X connect 155 0 154 0;
#X connect 155 1 194 0;
#X connect 157 0 156 0;
#X connect 157 1 193 0;
#X connect 159 0 158 0;
#X connect 159 1 192 0;
#X connect 161 0 160 0;
#X connect 161 1 191 0;
#X connect 163 0 162 0;
#X connect 163 1 190 0;
#X connect 165 0 164 0;
#X connect 165 1 189 0;
#X connect 167 0 166 0;
#X connect 167 1 188 0;
#X connect 169 0 168 0;
#X connect 169 1 187 0;
#X connect 171 0 170 0;
#X connect 171 1 186 0;
#X connect 172 0 145 0;
#X connect 173 0 147 0;
#X connect 174 0 149 0;
#X connect 175 0 151 0;
#X connect 176 0 153 0;
#X connect 177 0 155 0;
#X connect 178 0 157 0;
#X connect 179 0 159 0;
#X connect 180 0 161 0;
#X connect 181 0 163 0;
#X connect 182 0 165 0;
#X connect 183 0 167 0;
#X connect 184 0 169 0;
#X connect 185 0 171 0;
#X connect 186 0 170 1;
#X connect 187 0 168 1;
#X connect 188 0 166 1;
#X connect 189 0 164 1;
#X connect 190 0 162 1;
#X connect 191 0 160 1;
#X connect 192 0 158 1;
#X connect 193 0 156 1;
#X connect 194 0 154 1;
#X connect 195 0 152 1;
#X connect 196 0 150 1;
#X connect 197 0 148 1;
#X connect 198 0 146 1;
#X connect 199 0 144 1;
#X restore 511 202 pd tableupdate;
#X obj 473 255 tabread \$0-read;
#N canvas 148 86 772 590 save 0;
#X obj 477 312 tabread \$0-saveparam;
#X obj 559 214 unpack f f;
#X msg 532 130 \$1 0;
#X obj 439 326 int;
#X obj 413 304 bang;
#X obj 454 349 pack;
#X obj 291 44 openpanel;
#X obj 477 267 until;
#X obj 24 18 inlet;
#X obj 291 18 inlet;
#X obj 64 199 tabread \$0-saveparam;
#X obj 62 111 until;
#X obj 76 301 textfile;
#X obj 541 236 tabwrite \$0-saveparam;
#X msg 103 261 add \$1;
#X obj 20 70 savepanel;
#X msg 5 216 write \$1;
#X msg 19 294 clear;
#X obj 19 270 pipe 30;
#X obj 24 46 t b b;
#X obj 18 243 bang;
#X obj 306 158 textfile;
#X msg 296 103 read \$1;
#X msg 313 129 rewind;
#X obj 296 255 pack;
#X obj 233 140 until;
#X obj 224 87 bang;
#X obj 118 226 tabread \$0-read;
#X obj 532 96 r \$0-Size;
#X obj 452 506 s \$0-2Size;
#X obj 452 375 route 0;
#N canvas 0 0 694 505 all 0;
#X obj 26 17 inlet;
#X obj 22 90 s \$0-2Event1;
#X obj 32 109 s \$0-2Event2;
#X obj 42 128 s \$0-2Event3;
#X obj 52 147 s \$0-2Event4;
#X obj 102 90 s \$0-2Event5;
#X obj 112 109 s \$0-2Event6;
#X obj 122 128 s \$0-2Event7;
#X obj 132 147 s \$0-2Event8;
#X obj 22 55 route 1 2 3 4 5 6 7 8;
#X obj 212 55 route 9 10 11 12 13 14 15 16;
#X obj 212 90 s \$0-2Event9;
#X obj 222 109 s \$0-2Event10;
#X obj 232 128 s \$0-2Event11;
#X obj 242 147 s \$0-2Event12;
#X obj 292 90 s \$0-2Event13;
#X obj 302 109 s \$0-2Event14;
#X obj 312 128 s \$0-2Event15;
#X obj 322 147 s \$0-2Event16;
#X obj 22 175 route 17 18 19 20 21 22 23 24;
#X obj 212 175 route 25 26 27 28 29 30 31 32;
#X obj 22 210 s \$0-2Event17;
#X obj 32 229 s \$0-2Event18;
#X obj 42 248 s \$0-2Event19;
#X obj 52 267 s \$0-2Event20;
#X obj 102 210 s \$0-2Event21;
#X obj 112 229 s \$0-2Event22;
#X obj 122 248 s \$0-2Event23;
#X obj 132 267 s \$0-2Event24;
#X obj 212 210 s \$0-2Event25;
#X obj 222 229 s \$0-2Event26;
#X obj 232 248 s \$0-2Event27;
#X obj 242 267 s \$0-2Event28;
#X obj 292 210 s \$0-2Event29;
#X obj 302 229 s \$0-2Event30;
#X obj 312 248 s \$0-2Event31;
#X obj 322 267 s \$0-2Event32;
#X obj 402 195 route 33 34 35 36;
#X obj 444 306 s \$0-2Event36;
#X obj 432 287 s \$0-2Event35;
#X obj 422 268 s \$0-2Event34;
#X obj 412 249 s \$0-2Event33;
#X connect 0 0 9 0;
#X connect 9 0 1 0;
#X connect 9 1 2 0;
#X connect 9 2 3 0;
#X connect 9 3 4 0;
#X connect 9 4 5 0;
#X connect 9 5 6 0;
#X connect 9 6 7 0;
#X connect 9 7 8 0;
#X connect 9 8 10 0;
#X connect 10 0 11 0;
#X connect 10 1 12 0;
#X connect 10 2 13 0;
#X connect 10 3 14 0;
#X connect 10 4 15 0;
#X connect 10 5 16 0;
#X connect 10 6 17 0;
#X connect 10 7 18 0;
#X connect 10 8 19 0;
#X connect 19 0 21 0;
#X connect 19 1 22 0;
#X connect 19 2 23 0;
#X connect 19 3 24 0;
#X connect 19 4 25 0;
#X connect 19 5 26 0;
#X connect 19 6 27 0;
#X connect 19 7 28 0;
#X connect 19 8 20 0;
#X connect 20 0 29 0;
#X connect 20 1 30 0;
#X connect 20 2 31 0;
#X connect 20 3 32 0;
#X connect 20 4 33 0;
#X connect 20 5 34 0;
#X connect 20 6 35 0;
#X connect 20 7 36 0;
#X connect 20 8 37 0;
#X connect 37 0 41 0;
#X connect 37 1 40 0;
#X connect 37 2 39 0;
#X connect 37 3 38 0;
#X restore 486 461 pd all the xmarks;
#X obj 528 346 table \$0-saveparam 1;
#X obj 64 152 moses 1;
#X obj 491 396 unpack;
#X obj 485 418 + -1;
#X obj 486 442 pack;
#X obj 320 76 r \$0-load;
#X obj 478 287 countto 50;
#X msg 477 247 50;
#X obj 251 210 countto 50;
#X msg 225 115 50;
#X obj 63 128 countto 50;
#X msg 62 91 50;
#X connect 0 0 5 1;
#X connect 0 0 4 0;
#X connect 1 0 13 0;
#X connect 1 1 13 1;
#X connect 2 0 1 0;
#X connect 3 0 5 0;
#X connect 4 0 3 0;
#X connect 5 0 30 0;
#X connect 6 0 22 0;
#X connect 7 0 38 0;
#X connect 8 0 19 0;
#X connect 9 0 6 0;
#X connect 10 0 14 0;
#X connect 11 0 42 0;
#X connect 14 0 12 0;
#X connect 15 0 16 0;
#X connect 16 0 12 0;
#X connect 16 0 20 0;
#X connect 17 0 12 0;
#X connect 18 0 17 0;
#X connect 19 0 15 0;
#X connect 19 1 43 0;
#X connect 20 0 18 0;
#X connect 21 0 24 1;
#X connect 21 0 40 0;
#X connect 22 0 21 0;
#X connect 22 0 23 0;
#X connect 23 0 21 0;
#X connect 23 0 26 0;
#X connect 24 0 30 0;
#X connect 25 0 21 0;
#X connect 26 0 41 0;
#X connect 27 0 14 0;
#X connect 28 0 2 0;
#X connect 30 0 29 0;
#X connect 30 1 34 0;
#X connect 33 0 10 0;
#X connect 33 1 27 0;
#X connect 34 0 35 0;
#X connect 34 1 36 1;
#X connect 35 0 36 0;
#X connect 36 0 31 0;
#X connect 37 0 22 0;
#X connect 38 0 0 0;
#X connect 38 0 3 1;
#X connect 39 0 7 0;
#X connect 40 0 24 0;
#X connect 41 0 25 0;
#X connect 42 0 33 0;
#X connect 43 0 11 0;
#X restore 609 111 pd save;
#X obj 624 46 bng 15 250 50 0 empty empty save 0 8 0 6 -262144 -258113
-258113;
#X obj 624 62 bng 15 250 50 0 empty empty open 0 8 0 6 -262144 -4160
-4160;
#X obj 473 276 sel 1;
#X obj 527 145 route value size load;
#X obj 527 120 inlet;
#X obj 609 202 s \$0-load;
#X obj 470 45 tgl 10 0 \$0-Event37 \$0-2Event37 empty 17 7 0 10 -262144
-1 -1 0 36;
#X obj 480 45 tgl 10 0 \$0-Event38 \$0-2Event38 empty 17 7 0 10 -262144
-1 -1 0 36;
#X obj 490 45 tgl 10 0 \$0-Event39 \$0-2Event39 empty 17 7 0 10 -262144
-1 -1 0 36;
#X obj 500 45 tgl 10 0 \$0-Event40 \$0-2Event40 empty 17 7 0 10 -262144
-1 -1 0 36;
#X obj 510 45 tgl 10 0 \$0-Event41 \$0-2Event41 empty 17 7 0 10 -262144
-1 -1 0 36;
#X obj 520 45 tgl 10 0 \$0-Event42 \$0-2Event42 empty 17 7 0 10 -262144
-1 -1 0 36;
#X obj 530 45 tgl 10 0 \$0-Event43 \$0-2Event43 empty 17 7 0 10 -262144
-1 -1 0 36;
#X obj 540 45 tgl 10 0 \$0-Event44 \$0-2Event44 empty 17 7 0 10 -262144
-1 -1 0 36;
#X obj 550 45 tgl 10 0 \$0-Event45 \$0-2Event45 empty 17 7 0 10 -262144
-1 -1 0 36;
#X obj 560 45 tgl 10 0 \$0-Event46 \$0-2Event46 empty 17 7 0 10 -262144
-1 -1 0 36;
#X obj 570 45 tgl 10 0 \$0-Event47 \$0-2Event47 empty 17 7 0 10 -262144
-1 -1 0 36;
#X obj 580 45 tgl 10 0 \$0-Event48 \$0-2Event48 empty 17 7 0 10 -262144
-1 -1 0 36;
#X obj 450 45 tgl 10 0 \$0-Event35 \$0-2Event35 empty 17 7 0 10 -262144
-1 -1 0 36;
#X obj 340 45 tgl 10 0 \$0-Event24 \$0-2Event24 empty 17 7 0 10 -262144
-1 -1 0 15.0395;
#X obj 591 46 cnv 1 15 21 empty \$0-CoverUp ]$1 0 12 0 20 -262144 -66577
0;
#X obj 91 194 - 505;
#X obj 517 230 table \$0-read 50;
#X connect 0 0 1 0;
#X connect 1 0 4 0;
#X connect 1 0 56 1;
#X connect 4 0 3 0;
#X connect 4 0 7 0;
#X connect 5 0 3 0;
#X connect 6 0 15 0;
#X connect 6 0 62 0;
#X connect 7 0 3 0;
#X connect 12 0 58 0;
#X connect 12 0 85 0;
#X connect 13 0 5 0;
#X connect 13 0 12 0;
#X connect 13 0 1 1;
#X connect 13 0 51 0;
#X connect 13 0 52 0;
#X connect 14 0 59 0;
#X connect 16 0 13 0;
#X connect 49 0 55 0;
#X connect 50 0 11 0;
#X connect 51 0 50 0;
#X connect 52 0 50 0;
#X connect 55 0 56 0;
#X connect 56 0 0 0;
#X connect 57 0 11 0;
#X connect 58 0 57 0;
#X connect 59 0 11 0;
#X connect 62 0 66 0;
#X connect 64 0 63 0;
#X connect 65 0 63 1;
#X connect 66 0 53 0;
#X connect 67 0 56 1;
#X connect 67 1 54 0;
#X connect 67 2 69 0;
#X connect 68 0 67 0;
#X connect 85 0 14 0;
#X coords 0 -1 1 1 540 34 1 100 45;
