#N canvas -17 22 987 653 10;
#X obj 352 404 realtime;
#X obj 186 326 inlet~;
#X obj 372 372 sel 1 0;
#X text 344 213 1 trigger loop;
#X text 357 224 0 close loop;
#X obj 216 533 outlet~;
#X obj 188 371 *~ 0;
#X obj 266 445 *~ 0;
#X msg 332 382 1;
#X msg 315 423 0;
#X obj 175 401 delwrite~ \$0-loop1 32000;
#X obj 497 264 loadbang;
#X obj 139 551 tabplay~;
#X obj 103 113 hsl 86 8 0 164 0 0 \$0-EndTime \$0-2EndTime empty -2
-8 0 10 -258048 -1 -1 8500 1;
#X obj 566 242 s \$0-RecRoom;
#X obj 565 72 r \$0-StartTime;
#X obj 512 114 r \$0-EndTime;
#X obj 537 160 -;
#X obj 510 68 bang;
#X msg 556 218 vis_size \$1 6;
#X obj 545 184 + 2;
#X obj 216 500 delread~ \$0-loop1 16000;
#X obj 100 100 cnv 12 86 12 empty empty LoopStat 4 8 0 14 -1 -262144
0;
#X obj 176 100 tgl 15 0 \$0-Trigger \$0-2Trigger empty 17 7 0 10 -262144
-1 -1 0 1;
#X obj 357 444 t b b b f f f;
#X obj 699 336 s \$0-2EndTime;
#X obj 750 374 s \$0-2StartTime;
#X obj 619 168 + 100;
#X msg 625 187 pos \$1 160;
#X msg 706 295 173;
#X msg 755 304 0;
#X obj 468 605 s \$0-2EndTime;
#X msg 469 584 set \$1;
#X obj 494 429 float;
#X obj 480 475 / 1;
#X obj 492 501 phasor~ 1;
#X obj 583 496 metro 50;
#X obj 589 538 snapshot~;
#X obj 552 564 * 164;
#X floatatom 618 586 5 0 0 0 - - -;
#X floatatom 456 530 10 0 0 0 - - -;
#X msg 474 450 1000;
#X msg 568 468 1;
#X obj 361 349 r \$0-Trigger;
#X obj 348 298 inlet;
#X obj 348 317 s \$0-2Trigger;
#X obj 699 433 setsize \$0-LoopMesa;
#N canvas 0 0 450 300 (subpatch) 0;
#X array \$0-LoopMesa 100 float 3;
#A 0 0 0 0 0 0 0 0 0 0 0 0 0 0 0 0 0 0 0 0 0 0 0 0 0 0 0 0 0 0 0 0
0 0 0 0 0 0 0 0 0 0 0 0 0 0 0 0 0 0 0 0 0 0 0 0 0 0 0 0 0 0 0 0 0 0
0 0 0 0 0 0 0 0 0 0 0 0 0 0 0 0 0 0 0 0 0 0 0 0 0 0 0 0 0 0 0 0 0 0
0;
#X coords 0 1 99 -1 20 14 1;
#X restore 751 572 graph;
#X connect 0 0 24 0;
#X connect 1 0 6 0;
#X connect 2 0 0 0;
#X connect 2 0 9 0;
#X connect 2 1 0 1;
#X connect 2 1 8 0;
#X connect 6 0 10 0;
#X connect 7 0 10 0;
#X connect 8 0 7 1;
#X connect 9 0 7 1;
#X connect 11 0 29 0;
#X connect 11 0 30 0;
#X connect 15 0 17 1;
#X connect 15 0 18 0;
#X connect 15 0 27 0;
#X connect 16 0 17 0;
#X connect 17 0 20 0;
#X connect 18 0 17 0;
#X connect 19 0 14 0;
#X connect 20 0 19 0;
#X connect 21 0 5 0;
#X connect 21 0 7 0;
#X connect 24 0 42 0;
#X connect 24 3 21 0;
#X connect 24 5 33 0;
#X connect 27 0 28 0;
#X connect 28 0 14 0;
#X connect 29 0 25 0;
#X connect 30 0 26 0;
#X connect 32 0 31 0;
#X connect 33 0 34 1;
#X connect 33 0 41 0;
#X connect 34 0 35 0;
#X connect 34 0 40 0;
#X connect 35 0 37 0;
#X connect 36 0 37 0;
#X connect 37 0 38 0;
#X connect 37 0 39 0;
#X connect 38 0 32 0;
#X connect 41 0 34 0;
#X connect 42 0 36 0;
#X connect 42 0 35 1;
#X connect 43 0 2 0;
#X connect 43 0 6 1;
#X connect 44 0 45 0;
#X coords 0 -1 1 1 91 22 2 100 100;
