#N canvas 180 103 987 653 10;
#X obj 386 231 realtime;
#X obj 217 67 inlet~;
#X obj 402 191 sel 1 0;
#X text 361 32 1 trigger loop;
#X text 374 43 0 close loop;
#X obj 200 588 outlet~;
#X obj 218 191 *~ 0;
#X obj 296 265 *~ 0;
#X msg 347 266 1;
#X msg 345 243 0;
#X obj 170 242 delwrite~ \$0-loop1 32000;
#X obj 732 310 loadbang;
#X obj 103 113 hsl 86 8 0 164 0 0 \$0-EndTime \$0-2EndTime empty -2
-8 0 10 -258048 -1 -1 6454 1;
#X obj 606 242 s \$0-RecRoom;
#X obj 605 72 r \$0-StartTime;
#X obj 552 114 r \$0-EndTime;
#X obj 577 160 -;
#X obj 550 68 bang;
#X msg 596 218 vis_size \$1 6;
#X obj 585 184 + 2;
#X obj 199 296 delread~ \$0-loop1 16000;
#X obj 100 100 cnv 12 86 12 empty empty LoopStat 4 8 0 14 -1 -262144
0;
#X obj 176 100 tgl 15 0 \$0-Trigger \$0-2Trigger empty 17 7 0 10 -262144
-1 -1 0 1;
#X obj 706 396 s \$0-2EndTime;
#X obj 755 372 s \$0-2StartTime;
#X obj 659 168 + 100;
#X msg 665 187 pos \$1 160;
#X msg 706 335 173;
#X msg 755 344 0;
#X obj 376 589 s \$0-2EndTime;
#X msg 376 568 set \$1;
#X obj 419 419 float;
#X obj 334 465 / 1;
#X obj 334 488 phasor~ 1;
#X obj 376 526 snapshot~;
#X obj 376 548 * 164;
#X msg 334 436 1000;
#X msg 385 456 1;
#X obj 391 169 r \$0-Trigger;
#X obj 378 68 inlet;
#X obj 378 137 s \$0-2Trigger;
#X msg 408 109 1;
#X msg 396 90 0;
#X msg 458 367 \; \$2-LoopMesa resize \$1;
#X obj 458 345 pack f \$0;
#X obj 765 475 table \$0-LoopMesa;
#X obj 386 264 t b b b f f f b;
#X obj 415 315 delay;
#X obj 308 390 tabwrite~ \$0-LoopMesa;
#X msg 415 337 stop;
#X obj 207 463 tabplay~ \$0-LoopMesa;
#X obj 219 391 bang;
#X obj 399 486 metro 75;
#X floatatom 300 606 5 0 0 0 - - -;
#X obj 22 502 spigot 0;
#X msg 106 474 1;
#X msg 68 470 0;
#X msg 111 332 0;
#X obj 22 523 tabplay~ \$0-LoopMesa;
#X obj 227 433 bng 15 250 50 0 empty empty empty 0 -6 0 10 -262144
-1 -1;
#X connect 0 0 46 0;
#X connect 0 0 47 1;
#X connect 1 0 6 0;
#X connect 2 0 0 0;
#X connect 2 0 9 0;
#X connect 2 1 0 1;
#X connect 2 1 8 0;
#X connect 6 0 10 0;
#X connect 7 0 10 0;
#X connect 8 0 7 1;
#X connect 9 0 7 1;
#X connect 11 0 27 0;
#X connect 11 0 28 0;
#X connect 14 0 16 1;
#X connect 14 0 17 0;
#X connect 14 0 25 0;
#X connect 15 0 16 0;
#X connect 16 0 19 0;
#X connect 17 0 16 0;
#X connect 18 0 13 0;
#X connect 19 0 18 0;
#X connect 20 0 5 0;
#X connect 20 0 7 0;
#X connect 20 0 48 0;
#X connect 25 0 26 0;
#X connect 26 0 13 0;
#X connect 27 0 23 0;
#X connect 28 0 24 0;
#X connect 30 0 29 0;
#X connect 30 0 53 0;
#X connect 31 0 32 1;
#X connect 31 0 36 0;
#X connect 32 0 33 0;
#X connect 33 0 34 0;
#X connect 34 0 35 0;
#X connect 35 0 30 0;
#X connect 36 0 32 0;
#X connect 37 0 33 1;
#X connect 37 0 52 0;
#X connect 38 0 2 0;
#X connect 38 0 6 1;
#X connect 39 0 40 0;
#X connect 41 0 40 0;
#X connect 41 0 56 0;
#X connect 42 0 40 0;
#X connect 44 0 43 0;
#X connect 46 0 37 0;
#X connect 46 0 55 0;
#X connect 46 2 47 0;
#X connect 46 2 48 0;
#X connect 46 3 20 0;
#X connect 46 5 31 0;
#X connect 46 5 44 0;
#X connect 47 0 49 0;
#X connect 49 0 48 0;
#X connect 49 0 51 0;
#X connect 50 0 5 0;
#X connect 50 1 54 0;
#X connect 51 0 50 0;
#X connect 51 0 57 0;
#X connect 52 0 34 0;
#X connect 54 0 58 0;
#X connect 55 0 54 1;
#X connect 56 0 54 1;
#X connect 57 0 20 0;
#X connect 58 1 50 0;
#X connect 59 0 50 0;
#X coords 0 -1 1 1 91 22 1 100 100;
