#N canvas 180 335 714 307 10;
#X obj 118 98 outlet~;
#X obj 2 4 cnv 15 94 60 empty empty Noise 4 6 0 14 -159808 -262144
0;
#X obj 7 25 vsl 15 40 0 10 0 0 \$0-NoisePhase \$0-2NoisePhase Phase
0 50 0 10 -262144 -1 -1 0 1;
#X obj 26 18 vsl 15 40 0 1000 0 0 \$0-NoiseRealSpectral \$0-2NoiseRealSpectral
Spectral 0 50 0 10 -262144 -1 -1 0 1;
#X obj 46 4 vsl 15 40 0 1000 0 0 \$0-NoiseImaginarySpectral \$0-2NoiseImaginarySpectral
Imaginary 0 50 0 10 -262144 -1 -1 0 1;
#N canvas 441 141 522 445 noise 0;
#X obj 198 12 noise~;
#X obj 198 139 rfft~;
#X obj 186 278 rifft~;
#X obj 187 304 outlet~;
#X obj 27 198 r \$0-NoiseRealSpectral;
#X obj 218 72 r \$0-NoisePhase;
#X obj 285 189 r \$0-NoiseImaginarySpectral;
#X obj 251 162 delwrite~ \$0-ppof 1000;
#X obj 255 213 delread~ \$0-ppof 1000;
#X obj 19 172 delwrite~ \$0-ppif 1000;
#X obj 23 223 delread~ \$0-ppif 1000;
#X obj 218 46 delwrite~ \$0-pifpof 10;
#X obj 218 93 delread~ \$0-pifpof 10;
#X connect 0 0 1 0;
#X connect 0 0 11 0;
#X connect 1 0 9 0;
#X connect 1 1 7 0;
#X connect 2 0 3 0;
#X connect 4 0 10 0;
#X connect 5 0 12 0;
#X connect 6 0 8 0;
#X connect 8 0 2 1;
#X connect 10 0 2 0;
#X connect 12 0 1 0;
#X restore 118 78 pd noise;
#N canvas 110 202 885 474 save 0;
#X obj 477 312 tabread \$0-saveparam;
#X obj 445 443 s \$0-2NoiseRealSpectral;
#X obj 488 423 s \$0-2NoisePhase;
#X obj 501 402 s \$0-2NoiseImaginarySpectral;
#X obj 541 70 r \$0-NoiseRealSpectral;
#X obj 573 94 r \$0-NoisePhase;
#X obj 589 119 r \$0-NoiseImaginarySpectral;
#X obj 546 174 unpack f f;
#X msg 532 130 \$1 0;
#X msg 562 140 \$1 1;
#X msg 602 150 \$1 2;
#X obj 477 287 countto 3;
#X obj 439 326 int;
#X obj 413 304 bang;
#X obj 454 349 pack;
#X obj 452 375 route 0 1 2;
#X obj 291 44 openpanel;
#X msg 477 247 3;
#X obj 477 267 until;
#X obj 24 18 inlet;
#X obj 291 18 inlet;
#X obj 64 199 tabread \$0-saveparam;
#X obj 62 171 countto 3;
#X msg 62 131 3;
#X obj 62 151 until;
#X obj 76 301 textfile;
#X obj 528 197 tabwrite \$0-saveparam;
#X obj 528 346 table \$0-saveparam 3;
#X msg 66 225 add \$1;
#X obj 20 110 savepanel;
#X msg 15 216 write \$1;
#X msg 19 294 clear;
#X obj 19 270 pipe 30;
#X obj 24 86 t b b;
#X obj 18 243 bang;
#X obj 306 158 textfile;
#X msg 296 103 read \$1;
#X msg 313 129 rewind;
#X obj 296 255 pack;
#X obj 251 210 countto 3;
#X obj 233 140 until;
#X msg 225 115 3;
#X obj 224 87 bang;
#X obj 325 68 r \$0-load;
#X connect 0 0 14 1;
#X connect 0 0 13 0;
#X connect 4 0 8 0;
#X connect 5 0 9 0;
#X connect 6 0 10 0;
#X connect 7 0 26 0;
#X connect 7 1 26 1;
#X connect 8 0 7 0;
#X connect 9 0 7 0;
#X connect 10 0 7 0;
#X connect 11 0 0 0;
#X connect 11 0 12 1;
#X connect 12 0 14 0;
#X connect 13 0 12 0;
#X connect 14 0 15 0;
#X connect 15 0 1 0;
#X connect 15 1 2 0;
#X connect 15 2 3 0;
#X connect 16 0 36 0;
#X connect 17 0 18 0;
#X connect 18 0 11 0;
#X connect 19 0 33 0;
#X connect 20 0 16 0;
#X connect 21 0 28 0;
#X connect 22 0 21 0;
#X connect 23 0 24 0;
#X connect 24 0 22 0;
#X connect 28 0 25 0;
#X connect 29 0 30 0;
#X connect 30 0 25 0;
#X connect 30 0 34 0;
#X connect 31 0 25 0;
#X connect 32 0 31 0;
#X connect 33 0 29 0;
#X connect 33 1 23 0;
#X connect 34 0 32 0;
#X connect 35 0 38 1;
#X connect 35 0 39 0;
#X connect 36 0 35 0;
#X connect 36 0 37 0;
#X connect 37 0 35 0;
#X connect 37 0 42 0;
#X connect 38 0 15 0;
#X connect 39 0 38 0;
#X connect 40 0 35 0;
#X connect 41 0 40 0;
#X connect 42 0 41 0;
#X connect 43 0 36 0;
#X restore 60 139 pd save;
#X obj 67 12 bng 15 250 50 0 empty empty save 0 8 0 6 -262144 -258113
-258113;
#X obj 82 27 bng 15 250 50 0 empty empty open 0 8 0 6 -262144 -4160
-4160;
#X obj 240 66 route load;
#X obj 240 88 s \$0-load;
#X obj 240 32 inlet;
#X connect 5 0 0 0;
#X connect 7 0 6 0;
#X connect 8 0 6 1;
#X connect 9 0 10 0;
#X connect 11 0 9 0;
#X coords 0 -1 1 1 100 80 1 0 0;
