#N canvas 191 29 613 623 10;
#N canvas 153 34 478 330 CTl2Mid 0;
#X obj 107 5 inlet;
#X obj 102 129 sel 1 0;
#X obj 132 109 sel 1 0;
#X obj 192 129 sel 1 0;
#X obj 232 109 sel 1 0;
#X obj 282 129 sel 1 0;
#X obj 302 99 sel 1 0;
#X obj 215 284 outlet;
#X obj 40 106 print;
#X obj 107 37 route key;
#X msg 124 233 1 1;
#X msg 155 180 1 0;
#X msg 154 253 2 1;
#X msg 185 200 2 0;
#X msg 194 233 3 1;
#X msg 225 180 3 0;
#X msg 266 200 4 0;
#X msg 234 253 4 1;
#X msg 274 223 5 1;
#X msg 305 170 5 0;
#X msg 344 190 6 0;
#X msg 314 243 6 1;
#X obj 98 68 route btn_0 btn_1 btn_2 btn_3 btn_5 btn_7 btn_4 btn_6
;
#X obj 372 101 sel 1 0;
#X msg 371 228 7 1;
#X msg 380 182 7 0;
#X obj 412 121 sel 1 0;
#X msg 411 248 8 1;
#X msg 420 202 8 0;
#X connect 0 0 9 0;
#X connect 1 0 10 0;
#X connect 1 1 11 0;
#X connect 2 0 12 0;
#X connect 2 1 13 0;
#X connect 3 0 14 0;
#X connect 3 1 15 0;
#X connect 4 0 17 0;
#X connect 4 1 16 0;
#X connect 5 0 18 0;
#X connect 5 1 19 0;
#X connect 6 0 21 0;
#X connect 6 1 20 0;
#X connect 9 0 22 0;
#X connect 10 0 7 0;
#X connect 11 0 7 0;
#X connect 12 0 7 0;
#X connect 13 0 7 0;
#X connect 14 0 7 0;
#X connect 15 0 7 0;
#X connect 16 0 7 0;
#X connect 17 0 7 0;
#X connect 18 0 7 0;
#X connect 19 0 7 0;
#X connect 20 0 7 0;
#X connect 21 0 7 0;
#X connect 22 0 1 0;
#X connect 22 1 2 0;
#X connect 22 2 3 0;
#X connect 22 3 4 0;
#X connect 22 4 5 0;
#X connect 22 5 6 0;
#X connect 22 6 23 0;
#X connect 22 7 26 0;
#X connect 23 0 24 0;
#X connect 23 1 25 0;
#X connect 24 0 7 0;
#X connect 25 0 7 0;
#X connect 26 0 27 0;
#X connect 26 1 28 0;
#X connect 27 0 7 0;
#X connect 28 0 7 0;
#X restore 432 98 pd CTl2Mid;
#X obj 429 300 mtof;
#X obj 333 243 tgl 15 0 empty empty empty 17 7 0 10 -262144 -1 -1 0
1;
#X obj 65 415 *~ 1.6;
#X obj 417 121 unpack;
#X obj 181 144 oldcontroller;
#N canvas 278 238 498 348 bender 0;
#X obj 16 31 route key rel abs syn;
#X obj 191 0 route abs_hat0x abs_hat0y;
#X obj 14 60 route abs_y abs_x abs_z abs_rz;
#X obj 16 9 inlet;
#X obj 17 197 outlet;
#X obj 14 98 int;
#X obj 14 129 + -127;
#X floatatom 102 233 5 0 0 0 - - -;
#X obj 261 47 inlet;
#X obj 117 170 * 1;
#X obj 22 155 * -0.007874;
#X text 270 61 pitchbend;
#X text 276 70 (midi);
#X connect 0 2 1 0;
#X connect 0 2 2 0;
#X connect 2 0 5 0;
#X connect 3 0 0 0;
#X connect 5 0 6 0;
#X connect 6 0 10 0;
#X connect 8 0 9 1;
#X connect 9 0 4 0;
#X connect 9 0 7 0;
#X connect 10 0 9 0;
#X restore 594 114 pd bender;
#X floatatom 290 162 5 0 0 0 - - -;
#X obj 62 30 scalecollector;
#X obj 471 196 pack;
#X obj 517 130 bang;
#X obj 358 258 lim;
#X obj 214 269 envelope;
#X obj 97 269 envelope;
#X obj 97 205 waveshape;
#N canvas 10 86 651 531 keyshift 0;
#X obj 100 63 route abs;
#X obj 100 84 route abs_hat0x abs_hat0y;
#X obj 100 34 inlet;
#X obj 100 121 sel -1 1;
#X obj 125 175 bng 15 250 50 0 empty empty empty 17 7 0 10 -262144
-1 -1;
#X obj 155 175 bng 15 250 50 0 empty empty empty 17 7 0 10 -262144
-1 -1;
#X obj 140 190 bng 15 250 50 0 empty empty empty 17 7 0 10 -262144
-1 -1;
#X obj 140 160 bng 15 250 50 0 empty empty empty 17 7 0 10 -262144
-1 -1;
#X obj 303 380 outlet;
#X obj 425 34 inlet;
#X obj 185 119 sel 1 -1;
#X floatatom 459 281 5 0 0 0 - - -;
#X obj 327 266 f;
#X obj 208 180 f;
#X obj 175 255 f;
#X obj 104 248 f;
#X obj 118 338 f;
#X obj 228 145 + 0.5;
#X obj 109 365 + -0.5;
#X obj 96 275 + -3.5;
#X obj 166 282 + 3.5;
#X connect 0 0 1 0;
#X connect 1 0 3 0;
#X connect 1 1 10 0;
#X connect 2 0 0 0;
#X connect 3 0 4 0;
#X connect 3 1 5 0;
#X connect 4 0 15 0;
#X connect 5 0 14 0;
#X connect 6 0 16 0;
#X connect 7 0 13 0;
#X connect 9 0 12 0;
#X connect 10 0 6 0;
#X connect 10 1 7 0;
#X connect 12 0 8 0;
#X connect 12 0 14 1;
#X connect 12 0 15 1;
#X connect 12 0 16 1;
#X connect 12 0 11 0;
#X connect 12 0 17 0;
#X connect 13 0 12 0;
#X connect 14 0 20 0;
#X connect 15 0 19 0;
#X connect 16 0 18 0;
#X connect 17 0 13 1;
#X connect 18 0 12 0;
#X connect 19 0 12 0;
#X connect 20 0 12 0;
#X restore 278 57 pd keyshift;
#X floatatom 345 23 5 0 0 0 - - -;
#X msg 39 173 1;
#N canvas 235 323 567 368 delta 0;
#X obj 100 28 inlet~;
#X obj 150 132 dbtorms;
#X obj 117 131 -;
#X obj 97 99 float;
#X obj 151 193 *;
#X obj 180 158 + 1;
#X obj 117 275 outlet;
#X obj 111 250 pack 0 0;
#X obj 112 226 spigot;
#X text -36 134 this is the side;
#X text -47 148 where the derivation;
#X text -5 162 magic happens;
#X text 212 152 envelope and converts it;
#X text 219 163 into a (0-1) signal.;
#X text 208 141 this side takes the attack;
#X obj 44 210 bang;
#X obj 100 58 fiddle~ 1024;
#X obj 257 76 delta;
#X connect 0 0 16 0;
#X connect 1 0 5 0;
#X connect 1 0 4 0;
#X connect 2 0 8 0;
#X connect 3 0 2 1;
#X connect 4 0 7 1;
#X connect 4 0 8 1;
#X connect 5 0 4 1;
#X connect 7 0 6 0;
#X connect 7 0 15 0;
#X connect 8 0 7 0;
#X connect 15 0 3 0;
#X connect 16 0 3 0;
#X restore 238 23 pd delta;
#X obj 96 347 piano;
#X obj 97 144 scaleloader;
#X floatatom 69 81 5 0 0 0 - - -;
#X obj 564 157 + 40;
#X obj 173 488 *~ 0.54;
#X obj 215 204 waveshape;
#X obj 75 463 specmash;
#X obj 75 385 specmash;
#X obj 331 295 s-h;
#X obj 218 388 3tap;
#N canvas 278 238 498 348 bender 0;
#X obj 16 31 route key rel abs syn;
#X obj 247 121 route abs_hat0x abs_hat0y;
#X obj 14 60 route abs_y abs_x abs_z abs_rz;
#X obj 16 9 inlet;
#X obj 17 197 outlet;
#X obj 14 98 int;
#X obj 14 129 + -127;
#X floatatom 102 233 5 0 0 0 - - -;
#X obj 261 47 inlet;
#X obj 117 170 * 1;
#X obj 22 155 * -0.007874;
#X text 270 61 pitchbend;
#X text 276 70 (midi);
#X connect 0 2 1 0;
#X connect 0 2 2 0;
#X connect 2 3 5 0;
#X connect 3 0 0 0;
#X connect 5 0 6 0;
#X connect 6 0 10 0;
#X connect 8 0 9 1;
#X connect 9 0 4 0;
#X connect 9 0 7 0;
#X connect 10 0 9 0;
#X restore 633 209 pd bender;
#X obj 534 232 bang;
#X obj 491 348 mtof;
#X obj 581 259 + 40;
#X obj 458 340 + 12;
#X floatatom 290 176 5 0 0 0 - - -;
#X msg 546 491 Gain \$1;
#X msg 629 492 Gain \$1;
#X obj 546 309 route key rel abs syn;
#X obj 544 338 route abs_y abs_x abs_z abs_rz;
#X floatatom 675 379 5 0 0 0 - - -;
#X obj 534 428 moses 0;
#X obj 476 368 expr ($f1-128)/512;
#X obj 444 460 expr $f1*$f1*$f1*$f1;
#X obj 564 457 expr $f1*$f1*$f1*$f1;
#X obj 416 493 synesthes;
#X obj 295 489 loopstat;
#N canvas 0 0 450 300 loopstatprep 0;
#X obj 50 53 route btn_8 btn_9;
#X obj 50 12 route key;
#X obj 50 -11 inlet;
#X obj 35 213 outlet;
#X obj 95 213 outlet;
#X obj 36 122 change;
#X obj 106 122 change;
#X connect 0 0 5 0;
#X connect 0 1 6 0;
#X connect 1 0 0 0;
#X connect 2 0 1 0;
#X connect 5 0 3 0;
#X connect 6 0 4 0;
#X restore 634 545 pd loopstatprep;
#X obj 296 515 loopstat;
#X obj 160 570 +~;
#X obj 217 592 outlet~;
#X obj 108 598 dac~;
#X obj 50 254 pack;
#X obj 410 241 bang;
#X obj 656 269 sel 0;
#X msg 509 21 load symbol savestates/specmash/highmash;
#X msg 520 48 load symbol savestates/specmash/longmash;
#X floatatom 305 83 5 0 0 0 - - -;
#X obj 423 344 sel 0;
#X obj 365 600 print;
#X obj 48 222 change;
#X text 322 148 bend 1;
#X text 335 175 bend 2;
#X connect 0 0 4 0;
#X connect 1 0 14 0;
#X connect 2 0 12 1;
#X connect 2 0 13 1;
#X connect 2 0 51 1;
#X connect 2 0 52 0;
#X connect 2 0 53 0;
#X connect 2 0 57 0;
#X connect 3 0 23 0;
#X connect 3 0 26 0;
#X connect 4 0 8 0;
#X connect 4 1 2 0;
#X connect 4 1 9 1;
#X connect 5 0 0 0;
#X connect 5 0 6 0;
#X connect 5 0 15 0;
#X connect 5 0 29 0;
#X connect 5 0 37 0;
#X connect 5 0 46 0;
#X connect 6 0 10 0;
#X connect 6 0 22 1;
#X connect 7 0 6 1;
#X connect 8 0 9 0;
#X connect 8 0 22 0;
#X connect 8 0 59 0;
#X connect 10 0 22 0;
#X connect 11 0 3 0;
#X connect 11 0 48 0;
#X connect 12 0 23 0;
#X connect 12 0 25 0;
#X connect 12 0 28 0;
#X connect 12 0 48 0;
#X connect 13 0 11 0;
#X connect 13 0 48 0;
#X connect 14 0 13 0;
#X connect 15 0 20 0;
#X connect 15 0 56 0;
#X connect 16 0 15 1;
#X connect 16 0 22 1;
#X connect 17 0 8 0;
#X connect 20 0 8 1;
#X connect 20 1 8 2;
#X connect 22 0 32 0;
#X connect 24 0 12 0;
#X connect 25 0 48 0;
#X connect 26 0 48 0;
#X connect 27 0 28 0;
#X connect 27 0 48 0;
#X connect 28 0 26 0;
#X connect 28 0 48 0;
#X connect 29 0 30 0;
#X connect 29 0 32 1;
#X connect 30 0 32 0;
#X connect 31 0 24 0;
#X connect 32 0 33 0;
#X connect 32 0 1 0;
#X connect 32 0 44 0;
#X connect 33 0 31 0;
#X connect 34 0 29 1;
#X connect 35 0 26 1;
#X connect 36 0 25 1;
#X connect 37 2 38 0;
#X connect 38 1 41 0;
#X connect 38 2 39 0;
#X connect 40 0 42 0;
#X connect 40 1 43 0;
#X connect 41 0 40 0;
#X connect 42 0 36 0;
#X connect 43 0 35 0;
#X connect 45 0 49 0;
#X connect 45 0 50 1;
#X connect 46 0 45 1;
#X connect 46 1 47 1;
#X connect 47 0 49 0;
#X connect 47 0 50 1;
#X connect 48 0 45 0;
#X connect 48 0 47 0;
#X connect 48 0 49 0;
#X connect 48 0 50 0;
#X connect 51 0 19 0;
#X connect 54 0 26 1;
#X connect 55 0 26 1;
#X connect 57 0 19 1;
#X connect 59 0 51 0;
