#N canvas 360 30 705 703 10;
#X obj 216 105 Axiom25ctl;
#X obj 230 148 Axiom25ctl2;
#X obj 131 201 piano;
#X obj 81 146 notein;
#X obj 76 179 pack f f;
#X obj 435 164 sea_waves;
#X obj 302 247 waveshape;
#X obj 193 403 mtof;
#N canvas 411 176 506 481 mixerama 0;
#X obj 192 142 tabsend~ mixednoise;
#X obj 141 86 *~;
#X obj 168 77 * 0.00787402;
#X obj 271 96 *~;
#X obj 298 87 * 0.00787402;
#X obj 17 184 tabosc4~ mixednoise;
#X obj 356 227 switch~ 512 1 1;
#X obj 362 125 table mixednoise 515;
#X obj 90 17 inlet~;
#X obj 140 18 inlet~;
#X obj 190 27 inlet;
#X obj 240 28 inlet;
#X obj 290 29 inlet;
#X obj 22 155 sig~;
#X obj 25 257 outlet~;
#X obj 356 207 tgl 15 0 empty empty empty 0 -6 0 10 -262144 -1 -1 1
1;
#X floatatom 202 103 5 0 0 0 - - -;
#X floatatom 319 116 5 0 0 0 - - -;
#X obj 165 185 bang~;
#X obj 185 266 tabread mixednoise;
#X obj 180 313 tabwrite mixednoise;
#X msg 166 203 3;
#X obj 166 224 until;
#X obj 164 242 countto 3;
#X obj 146 279 + 512;
#X connect 1 0 0 0;
#X connect 2 0 16 0;
#X connect 2 0 1 1;
#X connect 3 0 0 0;
#X connect 4 0 17 0;
#X connect 4 0 3 1;
#X connect 5 0 14 0;
#X connect 8 0 1 0;
#X connect 9 0 3 0;
#X connect 10 0 13 0;
#X connect 11 0 2 0;
#X connect 12 0 4 0;
#X connect 13 0 5 0;
#X connect 15 0 6 0;
#X connect 18 0 21 0;
#X connect 19 0 20 0;
#X connect 21 0 22 0;
#X connect 22 0 23 0;
#X connect 23 0 24 0;
#X connect 23 0 19 0;
#X connect 24 0 20 1;
#X restore 422 375 pd mixerama;
#X obj 314 489 envelope;
#X msg 347 434 0;
#X obj 357 414 sel 0;
#X msg 381 437 1;
#X obj 429 660 dac~;
#X msg 422 100 86.13;
#X obj 531 421 delwrite~ thong 200;
#X obj 462 442 delwrite~ thing 200;
#X obj 569 478 delread~ thong 200;
#X obj 462 461 delread~ thing 200;
#X obj 184 380 line;
#X msg 182 359 \$1 \$2;
#X obj 167 335 pack;
#X obj 200 305 * 6;
#X obj 463 480 *~ 0.1;
#X obj 569 497 *~ 0.1;
#X obj 313 464 *~;
#X obj 313 368 * 0.01;
#X obj 417 40 loadbang;
#N canvas 0 22 494 344 pollflush 0;
#X obj 133 200 bag;
#X msg 152 175 flush;
#X obj 205 200 bag;
#X msg 202 175 flush;
#X msg 164 217 \$1 4;
#X msg 163 197 \$1 4;
#X obj 57 35 inlet;
#X obj 158 260 outlet;
#X obj 174 99 int 0;
#X obj 227 102 + 1;
#X obj 205 122 % 2;
#X obj 171 149 sel 0 1;
#X obj 191 51 inlet;
#X obj 191 73 bang;
#X text 34 15 midi pairs;
#X text 197 32 bang to poll;
#X text 251 138 bag with holding function;
#X obj 19 106 unpack;
#X obj 42 135 sel 0;
#X obj 76 156 list;
#X msg 306 62 clear;
#X obj 317 3 inlet;
#X obj 332 30 bang;
#X connect 0 0 4 0;
#X connect 0 0 7 0;
#X connect 1 0 0 0;
#X connect 2 0 5 0;
#X connect 2 0 7 0;
#X connect 3 0 2 0;
#X connect 4 0 2 0;
#X connect 5 0 0 0;
#X connect 6 0 0 0;
#X connect 6 0 2 0;
#X connect 6 0 19 1;
#X connect 6 0 17 0;
#X connect 8 0 9 0;
#X connect 9 0 10 0;
#X connect 10 0 8 1;
#X connect 10 0 11 0;
#X connect 11 0 1 0;
#X connect 11 1 3 0;
#X connect 12 0 13 0;
#X connect 13 0 8 0;
#X connect 17 1 18 0;
#X connect 18 0 19 0;
#X connect 19 0 0 0;
#X connect 19 0 2 0;
#X connect 20 0 2 0;
#X connect 20 0 0 0;
#X connect 21 0 22 0;
#X connect 22 0 20 0;
#X restore 32 351 pd pollflush;
#X obj 24 455 print;
#X obj 80 259 sel 0;
#X obj 73 323 del 5;
#X obj 84 413 spigot;
#X obj 321 571 PanModule;
#X obj 137 543 ctlin;
#X obj 134 621 print;
#X obj 134 596 pack f f f;
#X connect 0 3 8 3;
#X connect 1 0 22 0;
#X connect 1 3 8 4;
#X connect 3 0 4 0;
#X connect 3 0 21 0;
#X connect 3 1 4 1;
#X connect 3 1 30 0;
#X connect 3 1 11 0;
#X connect 4 0 2 0;
#X connect 4 0 28 0;
#X connect 5 0 8 1;
#X connect 5 0 16 0;
#X connect 5 1 8 1;
#X connect 5 1 15 0;
#X connect 6 0 8 0;
#X connect 7 0 8 2;
#X connect 8 0 25 0;
#X connect 9 0 33 0;
#X connect 10 0 9 1;
#X connect 11 0 10 0;
#X connect 11 1 12 0;
#X connect 12 0 9 1;
#X connect 14 0 6 0;
#X connect 17 0 24 0;
#X connect 18 0 23 0;
#X connect 19 0 7 0;
#X connect 20 0 19 0;
#X connect 21 0 20 0;
#X connect 22 0 21 1;
#X connect 23 0 13 0;
#X connect 24 0 13 1;
#X connect 25 0 9 0;
#X connect 26 0 25 1;
#X connect 27 0 14 0;
#X connect 28 0 29 0;
#X connect 28 0 21 0;
#X connect 30 0 31 0;
#X connect 30 1 26 0;
#X connect 31 0 28 1;
#X connect 33 0 13 0;
#X connect 33 1 13 1;
#X connect 34 0 36 0;
#X connect 34 1 36 1;
#X connect 34 2 36 2;
#X connect 36 0 35 0;
