#N canvas 246 256 636 306 10;
#N canvas 449 126 486 336 panpot 0;
#X obj 105 47 inlet~;
#X obj 283 19 inlet;
#X obj 90 168 *~;
#X obj 304 166 *~;
#X obj 284 54 / 127;
#X obj 187 134 - 1;
#X obj 186 157 * -1;
#X obj 133 250 outlet~;
#X obj 276 254 outlet~;
#X obj 182 26 loadbang;
#X msg 182 47 0.5;
#X msg 358 118 63;
#X obj 362 147 s \$0-panrecFIRST;
#X obj 336 64 r \$0-panset;
#X obj 249 86 s \$0-2panset;
#X connect 0 0 3 0;
#X connect 0 0 2 0;
#X connect 1 0 4 0;
#X connect 2 0 8 0;
#X connect 3 0 7 0;
#X connect 4 0 14 0;
#X connect 5 0 6 0;
#X connect 6 0 2 1;
#X connect 9 0 10 0;
#X connect 10 0 2 1;
#X connect 10 0 3 1;
#X connect 11 0 12 0;
#X connect 13 0 5 0;
#X connect 13 0 3 1;
#X restore 312 105 pd panpot;
#X obj 304 68 inlet~;
#X obj 296 143 outlet~;
#X obj 366 143 outlet~;
#X obj 379 66 inlet;
#X text 357 32 midi pan \, 63 is center;
#X text 396 47 (0-127);
#X obj 1 2 cnv 60 100 60 empty empty empty 20 12 0 14 -262144 -66577
0;
#X obj 6 2 cnv 15 80 60 empty empty PAN 6 46 0 34 -2428 -1 0;
#X obj 6 2 hsl 90 34 0 1 0 0 \$0-panset \$0-2panset empty -2 -6 0 8
-262144 -1 -1 0 1;
#X connect 0 0 2 0;
#X connect 0 1 3 0;
#X connect 1 0 0 0;
#X connect 4 0 0 1;
#X coords 0 0 1 1 102 64 1 0 0;
