#N canvas 446 369 584 372 10;
#X obj 17 20 inlet~;
#X obj 264 73 expr 1 - \\$f1;
#X obj 252 165 *~;
#X obj 50 166 *~;
#X obj 62 120 line~;
#X obj 62 99 pack 0 50;
#X obj 264 122 line~;
#X obj 264 101 pack 0 50;
#X obj 273 21 inlet;
#X obj 50 192 throw~ sumbus_L;
#X obj 253 194 throw~ sumbus_R;
#X obj 209 245 outlet~;
#X obj 66 239 outlet~;
#X connect 0 0 2 0;
#X connect 0 0 3 0;
#X connect 1 0 7 0;
#X connect 2 0 10 0;
#X connect 2 0 11 0;
#X connect 3 0 9 0;
#X connect 3 0 12 0;
#X connect 4 0 3 1;
#X connect 5 0 4 0;
#X connect 6 0 2 1;
#X connect 7 0 6 0;
#X connect 8 0 5 0;
#X connect 8 0 1 0;
