#N canvas 525 74 757 877 10;
#X obj 95 229 % 5;
#X obj 121 242 % 7;
#X obj 49 197 % 2;
#X obj 73 216 % 3;
#X obj 147 255 % 11;
#X obj 179 245 % 13;
#X obj 211 252 % 17;
#X obj 244 261 % 19;
#X obj 277 266 % 23;
#X obj 138 19 unpack 1 2 3 4 5 6 7 8 9;
#X obj 159 44 sel 0;
#X obj 169 64 sel 0;
#X obj 179 84 sel 0;
#X obj 209 44 sel 0;
#X obj 219 64 sel 0;
#X obj 229 84 sel 0;
#X obj 259 44 sel 0;
#X obj 269 64 sel 0;
#X obj 140 122 t a;
#X msg 210 113 \$1;
#X floatatom 78 263 5 0 0 0 - - -;
#X floatatom 52 248 5 0 0 0 - - -;
#X floatatom 25 230 5 0 0 0 - - -;
#X floatatom 138 293 5 0 0 0 - - -;
#X floatatom 112 278 5 0 0 0 - - -;
#X floatatom 178 293 5 0 0 0 - - -;
#X floatatom 238 323 5 0 0 0 - - -;
#X floatatom 212 308 5 0 0 0 - - -;
#X floatatom 268 343 5 0 0 0 - - -;
#X obj 496 293 int;
#X obj 502 318 -;
#X obj 500 342 abs;
#X obj 490 270 t f f;
#X floatatom 490 227 5 0 0 0 - - -;
#X floatatom 500 366 10 0 0 0 - - -;
#X obj 490 246 / 12;
#X floatatom 439 91 5 0 0 0 - - -;
#X msg 500 387 set \$1;
#X msg 500 408 0.75;
#X floatatom 248 333 5 0 0 0 - - -;
#X obj 79 360 +;
#N canvas 0 0 260 359 aminorize 0;
#X obj 12 43 sel 0 1 2 3 4 5 6 7;
#X msg 12 71 0.75;
#X msg 25 96 0.583333;
#X msg 40 117 0.416667;
#X msg 58 137 0.333333;
#X msg 73 160 0.166667;
#X msg 96 182 0.0833335;
#X msg 116 202 0.916667;
#X msg 138 224 0.75;
#X obj 112 253 f;
#X obj 26 13 inlet;
#X obj 110 295 outlet;
#X connect 0 0 1 0;
#X connect 0 1 2 0;
#X connect 0 2 3 0;
#X connect 0 3 4 0;
#X connect 0 4 5 0;
#X connect 0 5 6 0;
#X connect 0 6 7 0;
#X connect 0 7 8 0;
#X connect 1 0 9 0;
#X connect 2 0 9 0;
#X connect 3 0 9 0;
#X connect 4 0 9 0;
#X connect 5 0 9 0;
#X connect 6 0 9 0;
#X connect 7 0 9 0;
#X connect 8 0 9 0;
#X connect 9 0 11 0;
#X connect 10 0 0 0;
#X restore 94 338 pd aminorize;
#X obj 79 388 * 12;
#X obj 80 410 mtof;
#X obj 109 578 waveshape;
#X obj 109 649 envelope;
#X obj 81 484 line;
#X msg 81 463 \$1 100;
#X obj 119 756 *~;
#X obj 271 697 * 0.043782;
#X obj 271 747 line;
#X msg 271 724 \$1 100;
#X obj 83 436 *;
#X obj 90 525 sqrt;
#X obj 71 303 + 2;
#X obj 28 299 - 1;
#X obj 135 -5 netreceive \$1;
#X obj 122 803 outlet~;
#X msg 350 584 decay 10;
#X obj 316 476 loadbang;
#X msg 271 574 attack 45;
#X msg 431 594 sustain 0.6;
#X msg 512 604 release 120;
#X msg 527 556 Shape 1;
#X msg 161 531 shape \$1;
#X obj 156 494 int;
#X obj 30 407 sel 0;
#X obj 145 454 del 120;
#X connect 0 0 20 0;
#X connect 1 0 24 0;
#X connect 2 0 22 0;
#X connect 3 0 21 0;
#X connect 4 0 23 0;
#X connect 5 0 25 0;
#X connect 6 0 27 0;
#X connect 7 0 26 0;
#X connect 8 0 28 0;
#X connect 9 1 10 0;
#X connect 9 2 11 0;
#X connect 9 3 12 0;
#X connect 9 4 13 0;
#X connect 9 5 14 0;
#X connect 9 6 15 0;
#X connect 9 7 16 0;
#X connect 9 8 17 0;
#X connect 10 1 19 0;
#X connect 11 1 19 0;
#X connect 12 1 19 0;
#X connect 13 1 19 0;
#X connect 14 1 19 0;
#X connect 15 1 19 0;
#X connect 16 1 19 0;
#X connect 17 1 19 0;
#X connect 18 0 2 0;
#X connect 18 0 3 0;
#X connect 18 0 0 0;
#X connect 18 0 1 0;
#X connect 18 0 4 0;
#X connect 18 0 5 0;
#X connect 18 0 6 0;
#X connect 18 0 7 0;
#X connect 18 0 8 0;
#X connect 19 0 18 0;
#X connect 20 0 54 0;
#X connect 20 0 65 1;
#X connect 21 0 55 0;
#X connect 24 0 41 0;
#X connect 28 0 49 0;
#X connect 29 0 30 0;
#X connect 30 0 31 0;
#X connect 31 0 34 0;
#X connect 32 0 29 0;
#X connect 32 1 30 1;
#X connect 33 0 35 0;
#X connect 34 0 37 0;
#X connect 35 0 32 0;
#X connect 37 0 38 0;
#X connect 40 0 42 0;
#X connect 41 0 40 1;
#X connect 42 0 43 0;
#X connect 43 0 52 1;
#X connect 43 0 52 0;
#X connect 44 0 45 0;
#X connect 45 0 48 0;
#X connect 46 0 53 0;
#X connect 47 0 46 0;
#X connect 48 0 57 0;
#X connect 49 0 51 0;
#X connect 50 0 48 1;
#X connect 51 0 50 0;
#X connect 52 0 47 0;
#X connect 53 0 44 0;
#X connect 54 0 40 0;
#X connect 55 0 45 1;
#X connect 55 0 66 0;
#X connect 56 0 9 0;
#X connect 58 0 45 1;
#X connect 59 0 60 0;
#X connect 59 0 58 0;
#X connect 59 0 61 0;
#X connect 59 0 62 0;
#X connect 59 0 63 0;
#X connect 60 0 45 1;
#X connect 61 0 45 1;
#X connect 62 0 45 1;
#X connect 63 0 45 1;
#X connect 64 0 44 0;
#X connect 65 0 64 0;
#X connect 66 0 67 0;
#X connect 67 0 65 0;
