#N canvas 592 115 479 712 10;
#X obj 98 43 inlet;
#X obj 274 44 inlet;
#X obj 98 72 unpack f f f f;
#X obj 281 84 unpack f f f f;
#X obj 200 495 pack f f f f;
#X obj 200 517 outlet;
#X text 184 535 quat1 * quat2;
#X text 91 24 quat1 (W \, <x \, y \, z>);
#X text 256 27 quat2 (W \, <x \, y \, z>);
#N canvas 650 313 482 454 zmultiplication 0;
#X obj 25 37 inlet;
#X obj 65 37 inlet;
#X obj 105 37 inlet;
#X obj 145 37 inlet;
#X obj 185 37 inlet;
#X obj 225 37 inlet;
#X obj 265 37 inlet;
#X obj 305 37 inlet;
#X text 41 15 w1;
#X text 71 15 x1;
#X text 113 16 y1;
#X text 160 16 z1;
#X text 197 14 w2;
#X text 231 15 x2;
#X text 269 14 y2;
#X text 314 19 z2;
#X obj 84 145 *;
#X obj 116 173 *;
#X obj 151 200 *;
#X obj 186 230 *;
#X obj 90 201 +;
#X obj 101 247 +;
#X obj 130 368 outlet;
#X obj 170 270 * -1;
#X obj 129 304 +;
#X connect 0 0 16 0;
#X connect 1 0 18 0;
#X connect 2 0 19 0;
#X connect 3 0 17 0;
#X connect 4 0 17 1;
#X connect 5 0 19 1;
#X connect 6 0 18 1;
#X connect 7 0 16 1;
#X connect 16 0 20 0;
#X connect 17 0 20 1;
#X connect 18 0 21 1;
#X connect 19 0 23 0;
#X connect 20 0 21 0;
#X connect 21 0 24 0;
#X connect 23 0 24 1;
#X connect 24 0 22 0;
#X restore 269 457 pd zmultiplication;
#N canvas 0 0 482 454 ymultiplication 0;
#X obj 25 37 inlet;
#X obj 65 37 inlet;
#X obj 105 37 inlet;
#X obj 145 37 inlet;
#X obj 185 37 inlet;
#X obj 225 37 inlet;
#X obj 265 37 inlet;
#X obj 305 37 inlet;
#X text 41 15 w1;
#X text 71 15 x1;
#X text 113 16 y1;
#X text 160 16 z1;
#X text 197 14 w2;
#X text 231 15 x2;
#X text 269 14 y2;
#X text 314 19 z2;
#X obj 84 145 *;
#X obj 116 173 *;
#X obj 151 200 *;
#X obj 186 230 *;
#X obj 90 201 +;
#X obj 101 247 +;
#X obj 130 368 outlet;
#X obj 170 275 * -1;
#X obj 129 305 +;
#X connect 0 0 16 0;
#X connect 1 0 19 0;
#X connect 2 0 17 0;
#X connect 3 0 18 0;
#X connect 4 0 17 1;
#X connect 5 0 18 1;
#X connect 6 0 16 1;
#X connect 7 0 19 1;
#X connect 16 0 20 0;
#X connect 17 0 20 1;
#X connect 18 0 21 1;
#X connect 19 0 23 0;
#X connect 20 0 21 0;
#X connect 21 0 24 0;
#X connect 23 0 24 1;
#X connect 24 0 22 0;
#X restore 189 372 pd ymultiplication;
#N canvas 745 358 482 454 xmultiplication 0;
#X obj 25 37 inlet;
#X obj 65 37 inlet;
#X obj 105 37 inlet;
#X obj 145 37 inlet;
#X obj 185 37 inlet;
#X obj 225 37 inlet;
#X obj 265 37 inlet;
#X obj 305 37 inlet;
#X text 41 15 w1;
#X text 71 15 x1;
#X text 113 16 y1;
#X text 160 16 z1;
#X text 197 14 w2;
#X text 231 15 x2;
#X text 269 14 y2;
#X text 314 19 z2;
#X obj 84 145 *;
#X obj 116 173 *;
#X obj 151 200 *;
#X obj 186 230 *;
#X obj 90 201 +;
#X obj 101 247 +;
#X obj 130 368 outlet;
#X obj 161 264 * -1;
#X obj 129 303 +;
#X connect 0 0 16 0;
#X connect 1 0 17 0;
#X connect 2 0 18 0;
#X connect 3 0 19 0;
#X connect 4 0 17 1;
#X connect 5 0 16 1;
#X connect 6 0 19 1;
#X connect 7 0 18 1;
#X connect 16 0 20 0;
#X connect 17 0 20 1;
#X connect 18 0 21 1;
#X connect 19 0 23 0;
#X connect 20 0 21 0;
#X connect 21 0 24 0;
#X connect 23 0 24 1;
#X connect 24 0 22 0;
#X restore 124 299 pd xmultiplication;
#N canvas 241 75 482 454 wmultiplication 0;
#X obj 25 37 inlet;
#X obj 65 37 inlet;
#X obj 105 37 inlet;
#X obj 145 37 inlet;
#X obj 185 37 inlet;
#X obj 225 37 inlet;
#X obj 265 37 inlet;
#X obj 305 37 inlet;
#X text 41 15 w1;
#X text 71 15 x1;
#X text 113 16 y1;
#X text 160 16 z1;
#X text 197 14 w2;
#X text 231 15 x2;
#X text 269 14 y2;
#X text 314 19 z2;
#X obj 84 145 *;
#X obj 116 173 *;
#X obj 151 200 *;
#X obj 186 230 *;
#X obj 130 368 outlet;
#X obj 86 195 * -1;
#X obj 116 235 * -1;
#X obj 146 275 * -1;
#X obj 58 221 +;
#X obj 71 267 +;
#X obj 99 325 +;
#X connect 0 0 16 0;
#X connect 1 0 17 0;
#X connect 2 0 18 0;
#X connect 3 0 19 0;
#X connect 4 0 16 1;
#X connect 5 0 17 1;
#X connect 6 0 18 1;
#X connect 7 0 19 1;
#X connect 16 0 24 0;
#X connect 17 0 21 0;
#X connect 18 0 22 0;
#X connect 19 0 23 0;
#X connect 21 0 24 1;
#X connect 22 0 25 1;
#X connect 23 0 26 1;
#X connect 24 0 25 0;
#X connect 25 0 26 0;
#X connect 26 0 20 0;
#X restore 50 220 pd wmultiplication;
#X obj 35 107 t f f f f;
#X connect 0 0 2 0;
#X connect 1 0 3 0;
#X connect 2 0 13 0;
#X connect 2 1 12 1;
#X connect 2 1 11 1;
#X connect 2 1 10 1;
#X connect 2 1 9 1;
#X connect 2 2 12 2;
#X connect 2 2 11 2;
#X connect 2 2 10 2;
#X connect 2 2 9 2;
#X connect 2 3 12 3;
#X connect 2 3 11 3;
#X connect 2 3 10 3;
#X connect 2 3 9 3;
#X connect 3 0 12 4;
#X connect 3 0 11 4;
#X connect 3 0 10 4;
#X connect 3 0 9 4;
#X connect 3 1 12 5;
#X connect 3 1 11 5;
#X connect 3 1 10 5;
#X connect 3 1 9 5;
#X connect 3 2 12 6;
#X connect 3 2 11 6;
#X connect 3 2 10 6;
#X connect 3 2 9 6;
#X connect 3 3 12 7;
#X connect 3 3 11 7;
#X connect 3 3 10 7;
#X connect 3 3 9 7;
#X connect 4 0 5 0;
#X connect 9 0 4 3;
#X connect 10 0 4 2;
#X connect 11 0 4 1;
#X connect 12 0 4 0;
#X connect 13 0 12 0;
#X connect 13 1 11 0;
#X connect 13 2 10 0;
#X connect 13 3 9 0;
