#N canvas 91 97 806 556 10;
#X obj 169 107 inlet~;
#X obj 219 125 inlet~;
#X obj 269 105 inlet~;
#X obj 319 125 inlet~;
#X obj 369 105 inlet~;
#X obj 419 125 inlet~;
#X obj 469 105 inlet~;
#X obj 519 125 inlet~;
#X obj 119 511 outlet~;
#X obj 169 488 outlet~;
#X obj 219 511 outlet~;
#X obj 269 488 outlet~;
#X obj 319 511 outlet~;
#X obj 369 488 outlet~;
#X obj 419 511 outlet~;
#X obj 469 488 outlet~;
#N canvas 5 27 991 720 Vcolor 0;
#X obj 59 3 r \$0-0;
#X obj 85 38 expr ($f1 + 2) * 14;
#X msg 89 109 pos 27 \$1;
#X msg 154 83 vis_size 6 \$1;
#X msg 35 89 color \$1;
#X obj 29 61 + 13;
#X obj 405 40 expr ($f1 + 2) * 14;
#X msg 474 85 vis_size 6 \$1;
#X msg 355 91 color \$1;
#X obj 349 63 + 13;
#X obj 379 5 r \$0-1;
#X msg 409 111 pos 41 \$1;
#X obj 133 155 s \$0-2V0;
#X obj 453 157 s \$0-2V1;
#X obj 715 40 expr ($f1 + 2) * 14;
#X msg 784 85 vis_size 6 \$1;
#X msg 665 91 color \$1;
#X obj 659 63 + 13;
#X obj 687 6 r \$0-2;
#X msg 719 111 pos 55 \$1;
#X obj 763 157 s \$0-2V2;
#X obj 85 198 expr ($f1 + 2) * 14;
#X msg 154 243 vis_size 6 \$1;
#X msg 35 249 color \$1;
#X obj 29 221 + 13;
#X obj 405 200 expr ($f1 + 2) * 14;
#X msg 474 245 vis_size 6 \$1;
#X msg 355 251 color \$1;
#X obj 349 223 + 13;
#X obj 715 200 expr ($f1 + 2) * 14;
#X msg 784 245 vis_size 6 \$1;
#X msg 665 251 color \$1;
#X obj 659 223 + 13;
#X obj 59 163 r \$0-3;
#X obj 379 165 r \$0-4;
#X obj 687 166 r \$0-5;
#X obj 133 315 s \$0-2V3;
#X obj 453 317 s \$0-2V4;
#X obj 763 317 s \$0-2V5;
#X msg 89 269 pos 69 \$1;
#X msg 409 271 pos 83 \$1;
#X msg 719 271 pos 97 \$1;
#X obj 85 358 expr ($f1 + 2) * 14;
#X msg 154 403 vis_size 6 \$1;
#X msg 35 409 color \$1;
#X obj 29 381 + 13;
#X obj 405 360 expr ($f1 + 2) * 14;
#X msg 474 405 vis_size 6 \$1;
#X msg 355 411 color \$1;
#X obj 349 383 + 13;
#X obj 715 360 expr ($f1 + 2) * 14;
#X msg 784 405 vis_size 6 \$1;
#X msg 665 411 color \$1;
#X obj 659 383 + 13;
#X obj 59 323 r \$0-6;
#X obj 379 325 r \$0-7;
#X obj 687 326 r \$0-8;
#X obj 133 475 s \$0-2V6;
#X obj 453 477 s \$0-2V7;
#X obj 763 477 s \$0-2V8;
#X msg 409 431 pos 125 \$1;
#X msg 719 431 pos 139 \$1;
#X msg 89 429 pos 111 \$1;
#X obj 85 518 expr ($f1 + 2) * 14;
#X msg 154 563 vis_size 6 \$1;
#X msg 35 569 color \$1;
#X obj 29 541 + 13;
#X obj 405 520 expr ($f1 + 2) * 14;
#X msg 474 565 vis_size 6 \$1;
#X msg 355 571 color \$1;
#X obj 349 543 + 13;
#X obj 715 520 expr ($f1 + 2) * 14;
#X msg 784 565 vis_size 6 \$1;
#X msg 665 571 color \$1;
#X obj 659 543 + 13;
#X obj 59 483 r \$0-9;
#X obj 379 485 r \$0-10;
#X obj 687 486 r \$0-11;
#X obj 763 637 s \$0-2V11;
#X obj 453 637 s \$0-2V10;
#X obj 133 635 s \$0-2V9;
#X msg 89 589 pos 153 \$1;
#X msg 409 591 pos 167 \$1;
#X msg 719 591 pos 181 \$1;
#X obj 474 64 expr (-$f1 + 11) * 14 - 48;
#X obj 154 62 expr (-$f1 + 11) * 14 - 48;
#X obj 154 222 expr (-$f1 + 11) * 14 - 48;
#X obj 154 382 expr (-$f1 + 11) * 14 - 48;
#X obj 154 542 expr (-$f1 + 11) * 14 - 48;
#X obj 474 544 expr (-$f1 + 11) * 14 - 48;
#X obj 474 384 expr (-$f1 + 11) * 14 - 48;
#X obj 473 224 expr (-$f1 + 11) * 14 - 48;
#X obj 784 64 expr (-$f1 + 11) * 14 - 48;
#X obj 784 224 expr (-$f1 + 11) * 14 - 48;
#X obj 784 384 expr (-$f1 + 11) * 14 - 48;
#X obj 784 544 expr (-$f1 + 11) * 14 - 48;
#X connect 0 0 1 0;
#X connect 0 0 5 0;
#X connect 0 0 85 0;
#X connect 1 0 2 0;
#X connect 2 0 12 0;
#X connect 3 0 12 0;
#X connect 4 0 12 0;
#X connect 5 0 4 0;
#X connect 6 0 11 0;
#X connect 7 0 13 0;
#X connect 8 0 13 0;
#X connect 9 0 8 0;
#X connect 10 0 6 0;
#X connect 10 0 9 0;
#X connect 10 0 84 0;
#X connect 11 0 13 0;
#X connect 14 0 19 0;
#X connect 15 0 20 0;
#X connect 16 0 20 0;
#X connect 17 0 16 0;
#X connect 18 0 14 0;
#X connect 18 0 17 0;
#X connect 18 0 92 0;
#X connect 19 0 20 0;
#X connect 21 0 39 0;
#X connect 22 0 36 0;
#X connect 23 0 36 0;
#X connect 24 0 23 0;
#X connect 25 0 40 0;
#X connect 26 0 37 0;
#X connect 27 0 37 0;
#X connect 28 0 27 0;
#X connect 29 0 41 0;
#X connect 30 0 38 0;
#X connect 31 0 38 0;
#X connect 32 0 31 0;
#X connect 33 0 21 0;
#X connect 33 0 24 0;
#X connect 33 0 86 0;
#X connect 34 0 25 0;
#X connect 34 0 28 0;
#X connect 34 0 91 0;
#X connect 35 0 29 0;
#X connect 35 0 32 0;
#X connect 35 0 93 0;
#X connect 39 0 36 0;
#X connect 40 0 37 0;
#X connect 41 0 38 0;
#X connect 42 0 62 0;
#X connect 43 0 57 0;
#X connect 44 0 57 0;
#X connect 45 0 44 0;
#X connect 46 0 60 0;
#X connect 47 0 58 0;
#X connect 48 0 58 0;
#X connect 49 0 48 0;
#X connect 50 0 61 0;
#X connect 51 0 59 0;
#X connect 52 0 59 0;
#X connect 53 0 52 0;
#X connect 54 0 42 0;
#X connect 54 0 45 0;
#X connect 54 0 87 0;
#X connect 55 0 46 0;
#X connect 55 0 49 0;
#X connect 55 0 90 0;
#X connect 56 0 50 0;
#X connect 56 0 53 0;
#X connect 56 0 94 0;
#X connect 60 0 58 0;
#X connect 61 0 59 0;
#X connect 62 0 57 0;
#X connect 63 0 81 0;
#X connect 64 0 80 0;
#X connect 65 0 80 0;
#X connect 66 0 65 0;
#X connect 67 0 82 0;
#X connect 68 0 79 0;
#X connect 69 0 79 0;
#X connect 70 0 69 0;
#X connect 71 0 83 0;
#X connect 72 0 78 0;
#X connect 73 0 78 0;
#X connect 74 0 73 0;
#X connect 75 0 63 0;
#X connect 75 0 66 0;
#X connect 75 0 88 0;
#X connect 76 0 67 0;
#X connect 76 0 70 0;
#X connect 76 0 89 0;
#X connect 77 0 71 0;
#X connect 77 0 74 0;
#X connect 77 0 95 0;
#X connect 81 0 80 0;
#X connect 82 0 79 0;
#X connect 83 0 78 0;
#X connect 84 0 7 0;
#X connect 85 0 3 0;
#X connect 86 0 22 0;
#X connect 87 0 43 0;
#X connect 88 0 64 0;
#X connect 89 0 68 0;
#X connect 90 0 47 0;
#X connect 91 0 26 0;
#X connect 92 0 15 0;
#X connect 93 0 30 0;
#X connect 94 0 51 0;
#X connect 95 0 72 0;
#X restore 173 60 pd Vcolor;
#N canvas 91 22 934 703 Hcolor 0;
#X msg 296 106 color \$1;
#X obj 290 78 + 13;
#X obj 395 172 s \$0-2H1;
#X obj 320 20 r \$0-1;
#X msg 546 106 color \$1;
#X obj 540 78 + 13;
#X obj 570 20 r \$0-2;
#X obj 645 172 s \$0-2H2;
#X msg 296 266 color \$1;
#X obj 290 238 + 13;
#X msg 546 266 color \$1;
#X obj 540 238 + 13;
#X msg 36 266 color \$1;
#X obj 30 238 + 13;
#X obj 60 180 r \$0-3;
#X obj 135 332 s \$0-2H3;
#X obj 320 180 r \$0-4;
#X obj 395 332 s \$0-2H4;
#X obj 570 180 r \$0-5;
#X obj 645 332 s \$0-2H5;
#X msg 296 416 color \$1;
#X obj 290 388 + 13;
#X msg 350 436 pos 24 \$1;
#X msg 546 416 color \$1;
#X obj 540 388 + 13;
#X msg 600 436 pos 24 \$1;
#X msg 36 416 color \$1;
#X obj 30 388 + 13;
#X msg 296 556 color \$1;
#X obj 290 528 + 13;
#X msg 350 576 pos 24 \$1;
#X msg 546 556 color \$1;
#X obj 540 528 + 13;
#X msg 600 576 pos 24 \$1;
#X msg 36 556 color \$1;
#X obj 30 528 + 13;
#X msg 90 576 pos 24 \$1;
#X obj 60 330 r \$0-6;
#X obj 135 482 s \$0-2H6;
#X obj 320 330 r \$0-7;
#X obj 395 482 s \$0-2H7;
#X obj 570 330 r \$0-8;
#X obj 645 482 s \$0-2H8;
#X obj 60 470 r \$0-9;
#X obj 135 622 s \$0-2H9;
#X obj 321 470 r \$0-10;
#X obj 395 622 s \$0-2H10;
#X obj 570 470 r \$0-11;
#X obj 645 622 s \$0-2H11;
#X obj 125 61 expr $f1 * 14 + 10;
#X floatatom 123 39 5 0 0 0 - - -;
#X floatatom 127 83 5 0 0 0 - - -;
#X obj 87 15 expr $f1 * 14 - 2;
#X floatatom 74 44 5 0 0 0 - - -;
#X msg 90 286 pos 24 \$1;
#X msg 600 126 pos 24 \$1;
#X msg 350 286 pos 24 \$1;
#X msg 600 286 pos 24 \$1;
#X msg 90 436 pos 24 \$1;
#X msg 415 100 vis_size 12 4;
#X msg 666 100 vis_size 26 4;
#X msg 665 260 vis_size 68 4;
#X msg 155 259 vis_size 40 4;
#X msg 415 259 vis_size 54 4;
#X msg 155 410 vis_size 82 4;
#X msg 415 410 vis_size 96 4;
#X msg 668 411 vis_size 110 4;
#X msg 665 550 vis_size 152 4;
#X msg 415 550 vis_size 138 4;
#X msg 147 550 vis_size 124 4;
#X msg 350 126 pos 24 \$1;
#X obj 372 74 expr ($f1 + 1) * 14 + 4;
#X obj 622 74 expr ($f1 + 1) * 14 + 4;
#X obj 622 234 expr ($f1 + 1) * 14 + 4;
#X obj 373 234 expr ($f1 + 1) * 14 + 4;
#X obj 112 234 expr ($f1 + 1) * 14 + 4;
#X obj 112 384 expr ($f1 + 1) * 14 + 4;
#X obj 372 384 expr ($f1 + 1) * 14 + 4;
#X obj 622 384 expr ($f1 + 1) * 14 + 4;
#X obj 622 524 expr ($f1 + 1) * 14 + 4;
#X obj 372 524 expr ($f1 + 1) * 14 + 4;
#X obj 112 524 expr ($f1 + 1) * 14 + 4;
#X connect 0 0 2 0;
#X connect 1 0 0 0;
#X connect 3 0 1 0;
#X connect 3 0 71 0;
#X connect 4 0 7 0;
#X connect 5 0 4 0;
#X connect 6 0 5 0;
#X connect 6 0 72 0;
#X connect 8 0 17 0;
#X connect 9 0 8 0;
#X connect 10 0 19 0;
#X connect 11 0 10 0;
#X connect 12 0 15 0;
#X connect 13 0 12 0;
#X connect 14 0 13 0;
#X connect 14 0 75 0;
#X connect 16 0 9 0;
#X connect 16 0 74 0;
#X connect 18 0 11 0;
#X connect 18 0 73 0;
#X connect 20 0 40 0;
#X connect 21 0 20 0;
#X connect 22 0 40 0;
#X connect 23 0 42 0;
#X connect 24 0 23 0;
#X connect 25 0 42 0;
#X connect 26 0 38 0;
#X connect 27 0 26 0;
#X connect 28 0 46 0;
#X connect 29 0 28 0;
#X connect 30 0 46 0;
#X connect 31 0 48 0;
#X connect 32 0 31 0;
#X connect 33 0 48 0;
#X connect 34 0 44 0;
#X connect 35 0 34 0;
#X connect 36 0 44 0;
#X connect 37 0 27 0;
#X connect 37 0 76 0;
#X connect 39 0 21 0;
#X connect 39 0 77 0;
#X connect 41 0 24 0;
#X connect 41 0 78 0;
#X connect 43 0 35 0;
#X connect 43 0 81 0;
#X connect 45 0 29 0;
#X connect 45 0 80 0;
#X connect 47 0 32 0;
#X connect 47 0 79 0;
#X connect 49 0 51 0;
#X connect 50 0 49 0;
#X connect 50 0 52 0;
#X connect 52 0 53 0;
#X connect 54 0 15 0;
#X connect 55 0 7 0;
#X connect 56 0 17 0;
#X connect 57 0 19 0;
#X connect 58 0 38 0;
#X connect 59 0 2 0;
#X connect 60 0 7 0;
#X connect 61 0 19 0;
#X connect 62 0 15 0;
#X connect 63 0 17 0;
#X connect 64 0 38 0;
#X connect 65 0 40 0;
#X connect 66 0 42 0;
#X connect 67 0 48 0;
#X connect 68 0 46 0;
#X connect 69 0 44 0;
#X connect 70 0 2 0;
#X connect 71 0 70 0;
#X connect 72 0 55 0;
#X connect 73 0 57 0;
#X connect 74 0 56 0;
#X connect 75 0 54 0;
#X connect 76 0 58 0;
#X connect 77 0 22 0;
#X connect 78 0 25 0;
#X connect 79 0 33 0;
#X connect 80 0 30 0;
#X connect 81 0 36 0;
#X restore 233 60 pd Hcolor;
#N canvas 302 27 584 654 column00000000 0;
#X msg 71 70 1 0 0 0 0 0 0 0 0 0 0 0;
#X msg 81 89 0 1 0 0 0 0 0 0 0 0 0 0;
#X msg 91 110 0 0 1 0 0 0 0 0 0 0 0 0;
#X msg 101 129 0 0 0 1 0 0 0 0 0 0 0 0;
#X msg 111 150 0 0 0 0 1 0 0 0 0 0 0 0;
#X msg 121 169 0 0 0 0 0 1 0 0 0 0 0 0;
#X msg 131 190 0 0 0 0 0 0 1 0 0 0 0 0;
#X msg 141 209 0 0 0 0 0 0 0 1 0 0 0 0;
#X obj 71 8 r \$0-0;
#N canvas 144 324 292 280 spigot~ 0;
#X obj 97 33 inlet~;
#X obj 98 225 outlet~;
#X obj 112 69 loadbang;
#X msg 112 88 0;
#X obj 137 110 inlet;
#X obj 97 136 *~;
#X connect 0 0 5 0;
#X connect 2 0 3 0;
#X connect 3 0 5 1;
#X connect 4 0 5 1;
#X connect 5 0 1 0;
#X restore 3 328 pd spigot~;
#N canvas 0 22 280 268 spigot~ 0;
#X obj 97 33 inlet~;
#X obj 97 157 outlet~;
#X obj 97 136 *~;
#X obj 112 69 loadbang;
#X msg 112 88 0;
#X obj 137 110 inlet;
#X connect 0 0 2 0;
#X connect 2 0 1 0;
#X connect 3 0 4 0;
#X connect 4 0 2 1;
#X connect 5 0 2 1;
#X restore 32 348 pd spigot~;
#N canvas 0 22 280 268 spigot~ 0;
#X obj 97 33 inlet~;
#X obj 97 157 outlet~;
#X obj 97 136 *~;
#X obj 112 69 loadbang;
#X msg 112 88 0;
#X obj 137 110 inlet;
#X connect 0 0 2 0;
#X connect 2 0 1 0;
#X connect 3 0 4 0;
#X connect 4 0 2 1;
#X connect 5 0 2 1;
#X restore 52 368 pd spigot~;
#N canvas 0 22 280 268 spigot~ 0;
#X obj 97 33 inlet~;
#X obj 97 157 outlet~;
#X obj 97 136 *~;
#X obj 112 69 loadbang;
#X msg 112 88 0;
#X obj 137 110 inlet;
#X connect 0 0 2 0;
#X connect 2 0 1 0;
#X connect 3 0 4 0;
#X connect 4 0 2 1;
#X connect 5 0 2 1;
#X restore 72 388 pd spigot~;
#N canvas 0 22 280 268 spigot~ 0;
#X obj 97 33 inlet~;
#X obj 97 157 outlet~;
#X obj 97 136 *~;
#X obj 112 69 loadbang;
#X msg 112 88 0;
#X obj 137 110 inlet;
#X connect 0 0 2 0;
#X connect 2 0 1 0;
#X connect 3 0 4 0;
#X connect 4 0 2 1;
#X connect 5 0 2 1;
#X restore 92 408 pd spigot~;
#N canvas 0 22 280 268 spigot~ 0;
#X obj 97 33 inlet~;
#X obj 97 157 outlet~;
#X obj 97 136 *~;
#X obj 112 69 loadbang;
#X msg 112 88 0;
#X obj 137 110 inlet;
#X connect 0 0 2 0;
#X connect 2 0 1 0;
#X connect 3 0 4 0;
#X connect 4 0 2 1;
#X connect 5 0 2 1;
#X restore 112 428 pd spigot~;
#N canvas 0 22 280 268 spigot~ 0;
#X obj 97 33 inlet~;
#X obj 97 157 outlet~;
#X obj 97 136 *~;
#X obj 112 69 loadbang;
#X msg 112 88 0;
#X obj 137 110 inlet;
#X connect 0 0 2 0;
#X connect 2 0 1 0;
#X connect 3 0 4 0;
#X connect 4 0 2 1;
#X connect 5 0 2 1;
#X restore 132 448 pd spigot~;
#N canvas 0 22 280 268 spigot~ 0;
#X obj 97 33 inlet~;
#X obj 97 157 outlet~;
#X obj 97 136 *~;
#X obj 112 69 loadbang;
#X msg 112 88 0;
#X obj 137 110 inlet;
#X connect 0 0 2 0;
#X connect 2 0 1 0;
#X connect 3 0 4 0;
#X connect 4 0 2 1;
#X connect 5 0 2 1;
#X restore 152 468 pd spigot~;
#X obj 5 8 inlet~;
#X obj 16 494 outlet~;
#X obj 72 312 unpack f f f f f f f f;
#X obj 71 32 sel 0 1 2 3 4 5 6 7;
#X obj 34 514 outlet~;
#X obj 56 534 outlet~;
#X obj 74 554 outlet~;
#X obj 96 574 outlet~;
#X obj 114 594 outlet~;
#X obj 136 614 outlet~;
#X obj 154 634 outlet~;
#X connect 0 0 19 0;
#X connect 1 0 19 0;
#X connect 2 0 19 0;
#X connect 3 0 19 0;
#X connect 4 0 19 0;
#X connect 5 0 19 0;
#X connect 6 0 19 0;
#X connect 7 0 19 0;
#X connect 8 0 20 0;
#X connect 9 0 18 0;
#X connect 10 0 21 0;
#X connect 11 0 22 0;
#X connect 12 0 23 0;
#X connect 13 0 24 0;
#X connect 14 0 25 0;
#X connect 15 0 26 0;
#X connect 16 0 27 0;
#X connect 17 0 9 0;
#X connect 17 0 10 0;
#X connect 17 0 11 0;
#X connect 17 0 12 0;
#X connect 17 0 13 0;
#X connect 17 0 14 0;
#X connect 17 0 15 0;
#X connect 17 0 16 0;
#X connect 19 0 9 1;
#X connect 19 1 10 1;
#X connect 19 2 11 1;
#X connect 19 3 12 1;
#X connect 19 4 13 1;
#X connect 19 5 14 1;
#X connect 19 6 15 1;
#X connect 19 7 16 1;
#X connect 20 0 0 0;
#X connect 20 1 1 0;
#X connect 20 2 2 0;
#X connect 20 3 3 0;
#X connect 20 4 4 0;
#X connect 20 5 5 0;
#X connect 20 6 6 0;
#X connect 20 7 7 0;
#X restore 15 267 pd column00000000;
#N canvas 10 27 515 657 column11111111 0;
#X msg 91 70 1 0 0 0 0 0 0 0 0 0 0 0;
#X msg 101 89 0 1 0 0 0 0 0 0 0 0 0 0;
#X msg 111 110 0 0 1 0 0 0 0 0 0 0 0 0;
#X msg 121 129 0 0 0 1 0 0 0 0 0 0 0 0;
#X msg 131 150 0 0 0 0 1 0 0 0 0 0 0 0;
#X msg 141 169 0 0 0 0 0 1 0 0 0 0 0 0;
#X msg 151 190 0 0 0 0 0 0 1 0 0 0 0 0;
#X msg 161 209 0 0 0 0 0 0 0 1 0 0 0 0;
#N canvas 0 22 280 268 spigot~ 0;
#X obj 97 33 inlet~;
#X obj 97 157 outlet~;
#X obj 97 136 *~;
#X obj 112 69 loadbang;
#X msg 112 88 0;
#X obj 137 110 inlet;
#X connect 0 0 2 0;
#X connect 2 0 1 0;
#X connect 3 0 4 0;
#X connect 4 0 2 1;
#X connect 5 0 2 1;
#X restore 23 328 pd spigot~;
#N canvas 0 22 280 268 spigot~ 0;
#X obj 97 33 inlet~;
#X obj 97 157 outlet~;
#X obj 97 136 *~;
#X obj 112 69 loadbang;
#X msg 112 88 0;
#X obj 137 110 inlet;
#X connect 0 0 2 0;
#X connect 2 0 1 0;
#X connect 3 0 4 0;
#X connect 4 0 2 1;
#X connect 5 0 2 1;
#X restore 33 348 pd spigot~;
#N canvas 0 22 280 268 spigot~ 0;
#X obj 97 33 inlet~;
#X obj 97 157 outlet~;
#X obj 97 136 *~;
#X obj 112 69 loadbang;
#X msg 112 88 0;
#X obj 137 110 inlet;
#X connect 0 0 2 0;
#X connect 2 0 1 0;
#X connect 3 0 4 0;
#X connect 4 0 2 1;
#X connect 5 0 2 1;
#X restore 43 368 pd spigot~;
#N canvas 0 22 280 268 spigot~ 0;
#X obj 97 33 inlet~;
#X obj 97 157 outlet~;
#X obj 97 136 *~;
#X obj 112 69 loadbang;
#X msg 112 88 0;
#X obj 137 110 inlet;
#X connect 0 0 2 0;
#X connect 2 0 1 0;
#X connect 3 0 4 0;
#X connect 4 0 2 1;
#X connect 5 0 2 1;
#X restore 53 388 pd spigot~;
#N canvas 0 22 280 268 spigot~ 0;
#X obj 97 33 inlet~;
#X obj 97 157 outlet~;
#X obj 97 136 *~;
#X obj 112 69 loadbang;
#X msg 112 88 0;
#X obj 137 110 inlet;
#X connect 0 0 2 0;
#X connect 2 0 1 0;
#X connect 3 0 4 0;
#X connect 4 0 2 1;
#X connect 5 0 2 1;
#X restore 63 408 pd spigot~;
#N canvas 0 22 280 268 spigot~ 0;
#X obj 97 33 inlet~;
#X obj 97 157 outlet~;
#X obj 97 136 *~;
#X obj 112 69 loadbang;
#X msg 112 88 0;
#X obj 137 110 inlet;
#X connect 0 0 2 0;
#X connect 2 0 1 0;
#X connect 3 0 4 0;
#X connect 4 0 2 1;
#X connect 5 0 2 1;
#X restore 73 428 pd spigot~;
#N canvas 0 22 280 268 spigot~ 0;
#X obj 97 33 inlet~;
#X obj 97 157 outlet~;
#X obj 97 136 *~;
#X obj 112 69 loadbang;
#X msg 112 88 0;
#X obj 137 110 inlet;
#X connect 0 0 2 0;
#X connect 2 0 1 0;
#X connect 3 0 4 0;
#X connect 4 0 2 1;
#X connect 5 0 2 1;
#X restore 83 448 pd spigot~;
#N canvas 0 22 280 268 spigot~ 0;
#X obj 97 33 inlet~;
#X obj 97 157 outlet~;
#X obj 97 136 *~;
#X obj 112 69 loadbang;
#X msg 112 88 0;
#X obj 137 110 inlet;
#X connect 0 0 2 0;
#X connect 2 0 1 0;
#X connect 3 0 4 0;
#X connect 4 0 2 1;
#X connect 5 0 2 1;
#X restore 93 468 pd spigot~;
#X obj 25 8 inlet~;
#X obj 26 484 outlet~;
#X obj 91 8 r \$0-1;
#X obj 91 33 sel 0 1 2 3 4 5 6 7;
#X obj 117 285 unpack f f f f f f f f;
#X obj 51 506 outlet~;
#X obj 73 526 outlet~;
#X obj 91 546 outlet~;
#X obj 113 566 outlet~;
#X obj 131 586 outlet~;
#X obj 153 606 outlet~;
#X obj 171 626 outlet~;
#X connect 0 0 20 0;
#X connect 1 0 20 0;
#X connect 2 0 20 0;
#X connect 3 0 20 0;
#X connect 4 0 20 0;
#X connect 5 0 20 0;
#X connect 6 0 20 0;
#X connect 7 0 20 0;
#X connect 8 0 17 0;
#X connect 9 0 21 0;
#X connect 10 0 22 0;
#X connect 11 0 23 0;
#X connect 12 0 24 0;
#X connect 13 0 25 0;
#X connect 14 0 26 0;
#X connect 15 0 27 0;
#X connect 16 0 8 0;
#X connect 16 0 9 0;
#X connect 16 0 10 0;
#X connect 16 0 11 0;
#X connect 16 0 12 0;
#X connect 16 0 13 0;
#X connect 16 0 14 0;
#X connect 16 0 15 0;
#X connect 18 0 19 0;
#X connect 19 0 0 0;
#X connect 19 1 1 0;
#X connect 19 2 2 0;
#X connect 19 3 3 0;
#X connect 19 4 4 0;
#X connect 19 5 5 0;
#X connect 19 6 6 0;
#X connect 19 7 7 0;
#X connect 20 0 8 1;
#X connect 20 1 9 1;
#X connect 20 2 10 1;
#X connect 20 3 11 1;
#X connect 20 4 12 1;
#X connect 20 5 13 1;
#X connect 20 6 14 1;
#X connect 20 7 15 1;
#X restore 101 236 pd column11111111;
#N canvas 0 22 466 316 column2222222222222 0;
#X msg 71 70 1 0 0 0 0 0 0 0 0 0 0 0;
#X msg 81 89 0 1 0 0 0 0 0 0 0 0 0 0;
#X msg 91 110 0 0 1 0 0 0 0 0 0 0 0 0;
#X msg 101 129 0 0 0 1 0 0 0 0 0 0 0 0;
#X msg 111 150 0 0 0 0 1 0 0 0 0 0 0 0;
#X msg 121 169 0 0 0 0 0 1 0 0 0 0 0 0;
#X msg 131 190 0 0 0 0 0 0 1 0 0 0 0 0;
#X msg 141 209 0 0 0 0 0 0 0 1 0 0 0 0;
#N canvas 0 22 280 268 spigot~ 0;
#X obj 97 33 inlet~;
#X obj 97 157 outlet~;
#X obj 97 136 *~;
#X obj 112 69 loadbang;
#X msg 112 88 0;
#X obj 137 110 inlet;
#X connect 0 0 2 0;
#X connect 2 0 1 0;
#X connect 3 0 4 0;
#X connect 4 0 2 1;
#X connect 5 0 2 1;
#X restore 3 328 pd spigot~;
#N canvas 0 22 280 268 spigot~ 0;
#X obj 97 33 inlet~;
#X obj 97 157 outlet~;
#X obj 97 136 *~;
#X obj 112 69 loadbang;
#X msg 112 88 0;
#X obj 137 110 inlet;
#X connect 0 0 2 0;
#X connect 2 0 1 0;
#X connect 3 0 4 0;
#X connect 4 0 2 1;
#X connect 5 0 2 1;
#X restore 13 348 pd spigot~;
#N canvas 0 22 280 268 spigot~ 0;
#X obj 97 33 inlet~;
#X obj 97 157 outlet~;
#X obj 97 136 *~;
#X obj 112 69 loadbang;
#X msg 112 88 0;
#X obj 137 110 inlet;
#X connect 0 0 2 0;
#X connect 2 0 1 0;
#X connect 3 0 4 0;
#X connect 4 0 2 1;
#X connect 5 0 2 1;
#X restore 23 368 pd spigot~;
#N canvas 0 22 280 268 spigot~ 0;
#X obj 97 33 inlet~;
#X obj 97 157 outlet~;
#X obj 97 136 *~;
#X obj 112 69 loadbang;
#X msg 112 88 0;
#X obj 137 110 inlet;
#X connect 0 0 2 0;
#X connect 2 0 1 0;
#X connect 3 0 4 0;
#X connect 4 0 2 1;
#X connect 5 0 2 1;
#X restore 33 388 pd spigot~;
#N canvas 0 22 280 268 spigot~ 0;
#X obj 97 33 inlet~;
#X obj 97 157 outlet~;
#X obj 97 136 *~;
#X obj 112 69 loadbang;
#X msg 112 88 0;
#X obj 137 110 inlet;
#X connect 0 0 2 0;
#X connect 2 0 1 0;
#X connect 3 0 4 0;
#X connect 4 0 2 1;
#X connect 5 0 2 1;
#X restore 43 408 pd spigot~;
#N canvas 0 22 280 268 spigot~ 0;
#X obj 97 33 inlet~;
#X obj 97 157 outlet~;
#X obj 97 136 *~;
#X obj 112 69 loadbang;
#X msg 112 88 0;
#X obj 137 110 inlet;
#X connect 0 0 2 0;
#X connect 2 0 1 0;
#X connect 3 0 4 0;
#X connect 4 0 2 1;
#X connect 5 0 2 1;
#X restore 53 428 pd spigot~;
#N canvas 0 22 280 268 spigot~ 0;
#X obj 97 33 inlet~;
#X obj 97 157 outlet~;
#X obj 97 136 *~;
#X obj 112 69 loadbang;
#X msg 112 88 0;
#X obj 137 110 inlet;
#X connect 0 0 2 0;
#X connect 2 0 1 0;
#X connect 3 0 4 0;
#X connect 4 0 2 1;
#X connect 5 0 2 1;
#X restore 63 448 pd spigot~;
#N canvas 0 22 280 268 spigot~ 0;
#X obj 97 33 inlet~;
#X obj 97 157 outlet~;
#X obj 97 136 *~;
#X obj 112 69 loadbang;
#X msg 112 88 0;
#X obj 137 110 inlet;
#X connect 0 0 2 0;
#X connect 2 0 1 0;
#X connect 3 0 4 0;
#X connect 4 0 2 1;
#X connect 5 0 2 1;
#X restore 73 468 pd spigot~;
#X obj 5 8 inlet~;
#X obj 6 494 outlet~;
#X obj 72 8 r \$0-2;
#X obj 71 32 sel 0 1 2 3 4 5 6 7;
#X obj 72 312 unpack f f f f f f f f;
#X obj 34 514 outlet~;
#X obj 56 534 outlet~;
#X obj 74 554 outlet~;
#X obj 96 574 outlet~;
#X obj 114 594 outlet~;
#X obj 136 614 outlet~;
#X obj 154 634 outlet~;
#X connect 0 0 20 0;
#X connect 1 0 20 0;
#X connect 2 0 20 0;
#X connect 3 0 20 0;
#X connect 4 0 20 0;
#X connect 5 0 20 0;
#X connect 6 0 20 0;
#X connect 7 0 20 0;
#X connect 8 0 17 0;
#X connect 9 0 21 0;
#X connect 10 0 22 0;
#X connect 11 0 23 0;
#X connect 12 0 24 0;
#X connect 13 0 25 0;
#X connect 14 0 26 0;
#X connect 15 0 27 0;
#X connect 16 0 8 0;
#X connect 16 0 9 0;
#X connect 16 0 10 0;
#X connect 16 0 11 0;
#X connect 16 0 12 0;
#X connect 16 0 13 0;
#X connect 16 0 14 0;
#X connect 16 0 15 0;
#X connect 18 0 19 0;
#X connect 19 0 0 0;
#X connect 19 1 1 0;
#X connect 19 2 2 0;
#X connect 19 3 3 0;
#X connect 19 4 4 0;
#X connect 19 5 5 0;
#X connect 19 6 6 0;
#X connect 19 7 7 0;
#X connect 20 0 8 1;
#X connect 20 1 9 1;
#X connect 20 2 10 1;
#X connect 20 3 11 1;
#X connect 20 4 12 1;
#X connect 20 5 13 1;
#X connect 20 6 14 1;
#X connect 20 7 15 1;
#X restore 230 245 pd column2222222222222;
#N canvas 0 22 470 320 column3333333 0;
#X msg 71 70 1 0 0 0 0 0 0 0 0 0 0 0;
#X msg 81 89 0 1 0 0 0 0 0 0 0 0 0 0;
#X msg 91 110 0 0 1 0 0 0 0 0 0 0 0 0;
#X msg 101 129 0 0 0 1 0 0 0 0 0 0 0 0;
#X msg 111 150 0 0 0 0 1 0 0 0 0 0 0 0;
#X msg 121 169 0 0 0 0 0 1 0 0 0 0 0 0;
#X msg 131 190 0 0 0 0 0 0 1 0 0 0 0 0;
#X msg 141 209 0 0 0 0 0 0 0 1 0 0 0 0;
#N canvas 0 22 280 268 spigot~ 0;
#X obj 97 33 inlet~;
#X obj 97 157 outlet~;
#X obj 97 136 *~;
#X obj 112 69 loadbang;
#X msg 112 88 0;
#X obj 137 110 inlet;
#X connect 0 0 2 0;
#X connect 2 0 1 0;
#X connect 3 0 4 0;
#X connect 4 0 2 1;
#X connect 5 0 2 1;
#X restore 3 328 pd spigot~;
#N canvas 0 22 280 268 spigot~ 0;
#X obj 97 33 inlet~;
#X obj 97 157 outlet~;
#X obj 97 136 *~;
#X obj 112 69 loadbang;
#X msg 112 88 0;
#X obj 137 110 inlet;
#X connect 0 0 2 0;
#X connect 2 0 1 0;
#X connect 3 0 4 0;
#X connect 4 0 2 1;
#X connect 5 0 2 1;
#X restore 13 348 pd spigot~;
#N canvas 0 22 280 268 spigot~ 0;
#X obj 97 33 inlet~;
#X obj 97 157 outlet~;
#X obj 97 136 *~;
#X obj 112 69 loadbang;
#X msg 112 88 0;
#X obj 137 110 inlet;
#X connect 0 0 2 0;
#X connect 2 0 1 0;
#X connect 3 0 4 0;
#X connect 4 0 2 1;
#X connect 5 0 2 1;
#X restore 23 368 pd spigot~;
#N canvas 0 22 280 268 spigot~ 0;
#X obj 97 33 inlet~;
#X obj 97 157 outlet~;
#X obj 97 136 *~;
#X obj 112 69 loadbang;
#X msg 112 88 0;
#X obj 137 110 inlet;
#X connect 0 0 2 0;
#X connect 2 0 1 0;
#X connect 3 0 4 0;
#X connect 4 0 2 1;
#X connect 5 0 2 1;
#X restore 33 390 pd spigot~;
#N canvas 0 22 280 268 spigot~ 0;
#X obj 97 33 inlet~;
#X obj 97 157 outlet~;
#X obj 97 136 *~;
#X obj 112 69 loadbang;
#X msg 112 88 0;
#X obj 137 110 inlet;
#X connect 0 0 2 0;
#X connect 2 0 1 0;
#X connect 3 0 4 0;
#X connect 4 0 2 1;
#X connect 5 0 2 1;
#X restore 43 408 pd spigot~;
#N canvas 0 22 280 268 spigot~ 0;
#X obj 97 33 inlet~;
#X obj 97 157 outlet~;
#X obj 97 136 *~;
#X obj 112 69 loadbang;
#X msg 112 88 0;
#X obj 137 110 inlet;
#X connect 0 0 2 0;
#X connect 2 0 1 0;
#X connect 3 0 4 0;
#X connect 4 0 2 1;
#X connect 5 0 2 1;
#X restore 53 428 pd spigot~;
#N canvas 0 22 280 268 spigot~ 0;
#X obj 97 33 inlet~;
#X obj 97 157 outlet~;
#X obj 97 136 *~;
#X obj 112 69 loadbang;
#X msg 112 88 0;
#X obj 137 110 inlet;
#X connect 0 0 2 0;
#X connect 2 0 1 0;
#X connect 3 0 4 0;
#X connect 4 0 2 1;
#X connect 5 0 2 1;
#X restore 63 448 pd spigot~;
#N canvas 0 22 280 268 spigot~ 0;
#X obj 97 33 inlet~;
#X obj 97 157 outlet~;
#X obj 97 136 *~;
#X obj 112 69 loadbang;
#X msg 112 88 0;
#X obj 137 110 inlet;
#X connect 0 0 2 0;
#X connect 2 0 1 0;
#X connect 3 0 4 0;
#X connect 4 0 2 1;
#X connect 5 0 2 1;
#X restore 73 468 pd spigot~;
#X obj 5 8 inlet~;
#X obj 6 494 outlet~;
#X obj 71 8 r \$0-3;
#X obj 71 32 sel 0 1 2 3 4 5 6 7;
#X obj 72 312 unpack f f f f f f f f;
#X obj 34 514 outlet~;
#X obj 56 534 outlet~;
#X obj 74 554 outlet~;
#X obj 96 574 outlet~;
#X obj 114 594 outlet~;
#X obj 136 614 outlet~;
#X obj 154 634 outlet~;
#X connect 0 0 20 0;
#X connect 1 0 20 0;
#X connect 2 0 20 0;
#X connect 3 0 20 0;
#X connect 4 0 20 0;
#X connect 5 0 20 0;
#X connect 6 0 20 0;
#X connect 7 0 20 0;
#X connect 8 0 17 0;
#X connect 9 0 21 0;
#X connect 10 0 22 0;
#X connect 11 0 23 0;
#X connect 12 0 24 0;
#X connect 13 0 25 0;
#X connect 14 0 26 0;
#X connect 15 0 27 0;
#X connect 16 0 8 0;
#X connect 16 0 9 0;
#X connect 16 0 10 0;
#X connect 16 0 11 0;
#X connect 16 0 12 0;
#X connect 16 0 13 0;
#X connect 16 0 14 0;
#X connect 16 0 15 0;
#X connect 18 0 19 0;
#X connect 19 0 0 0;
#X connect 19 1 1 0;
#X connect 19 2 2 0;
#X connect 19 3 3 0;
#X connect 19 4 4 0;
#X connect 19 5 5 0;
#X connect 19 6 6 0;
#X connect 19 7 7 0;
#X connect 20 0 8 1;
#X connect 20 1 9 1;
#X connect 20 2 10 1;
#X connect 20 3 11 1;
#X connect 20 4 12 1;
#X connect 20 5 13 1;
#X connect 20 6 14 1;
#X connect 20 7 15 1;
#X restore 167 270 pd column3333333;
#N canvas 0 22 470 320 column4444444444 0;
#X msg 71 70 1 0 0 0 0 0 0 0 0 0 0 0;
#X msg 81 89 0 1 0 0 0 0 0 0 0 0 0 0;
#X msg 91 110 0 0 1 0 0 0 0 0 0 0 0 0;
#X msg 101 129 0 0 0 1 0 0 0 0 0 0 0 0;
#X msg 111 150 0 0 0 0 1 0 0 0 0 0 0 0;
#X msg 121 169 0 0 0 0 0 1 0 0 0 0 0 0;
#X msg 131 190 0 0 0 0 0 0 1 0 0 0 0 0;
#X msg 141 209 0 0 0 0 0 0 0 1 0 0 0 0;
#N canvas 0 22 280 268 spigot~ 0;
#X obj 97 33 inlet~;
#X obj 97 157 outlet~;
#X obj 97 136 *~;
#X obj 112 69 loadbang;
#X msg 112 88 0;
#X obj 137 110 inlet;
#X connect 0 0 2 0;
#X connect 2 0 1 0;
#X connect 3 0 4 0;
#X connect 4 0 2 1;
#X connect 5 0 2 1;
#X restore 3 328 pd spigot~;
#N canvas 0 22 280 268 spigot~ 0;
#X obj 97 33 inlet~;
#X obj 97 157 outlet~;
#X obj 97 136 *~;
#X obj 112 69 loadbang;
#X msg 112 88 0;
#X obj 137 110 inlet;
#X connect 0 0 2 0;
#X connect 2 0 1 0;
#X connect 3 0 4 0;
#X connect 4 0 2 1;
#X connect 5 0 2 1;
#X restore 13 348 pd spigot~;
#N canvas 0 22 280 268 spigot~ 0;
#X obj 97 33 inlet~;
#X obj 97 157 outlet~;
#X obj 97 136 *~;
#X obj 112 69 loadbang;
#X msg 112 88 0;
#X obj 137 110 inlet;
#X connect 0 0 2 0;
#X connect 2 0 1 0;
#X connect 3 0 4 0;
#X connect 4 0 2 1;
#X connect 5 0 2 1;
#X restore 23 368 pd spigot~;
#N canvas 0 22 280 268 spigot~ 0;
#X obj 97 33 inlet~;
#X obj 97 157 outlet~;
#X obj 97 136 *~;
#X obj 112 69 loadbang;
#X msg 112 88 0;
#X obj 137 110 inlet;
#X connect 0 0 2 0;
#X connect 2 0 1 0;
#X connect 3 0 4 0;
#X connect 4 0 2 1;
#X connect 5 0 2 1;
#X restore 33 388 pd spigot~;
#N canvas 0 22 280 268 spigot~ 0;
#X obj 97 33 inlet~;
#X obj 97 157 outlet~;
#X obj 97 136 *~;
#X obj 112 69 loadbang;
#X msg 112 88 0;
#X obj 137 110 inlet;
#X connect 0 0 2 0;
#X connect 2 0 1 0;
#X connect 3 0 4 0;
#X connect 4 0 2 1;
#X connect 5 0 2 1;
#X restore 43 408 pd spigot~;
#N canvas 0 22 280 268 spigot~ 0;
#X obj 97 33 inlet~;
#X obj 97 157 outlet~;
#X obj 97 136 *~;
#X obj 112 69 loadbang;
#X msg 112 88 0;
#X obj 137 110 inlet;
#X connect 0 0 2 0;
#X connect 2 0 1 0;
#X connect 3 0 4 0;
#X connect 4 0 2 1;
#X connect 5 0 2 1;
#X restore 53 428 pd spigot~;
#N canvas 0 22 280 268 spigot~ 0;
#X obj 97 33 inlet~;
#X obj 97 157 outlet~;
#X obj 97 136 *~;
#X obj 112 69 loadbang;
#X msg 112 88 0;
#X obj 137 110 inlet;
#X connect 0 0 2 0;
#X connect 2 0 1 0;
#X connect 3 0 4 0;
#X connect 4 0 2 1;
#X connect 5 0 2 1;
#X restore 63 448 pd spigot~;
#X obj 5 8 inlet~;
#X obj 6 564 outlet~;
#X obj 71 7 r \$0-4;
#X obj 71 32 sel 0 1 2 3 4 5 6 7;
#X obj 72 312 unpack f f f f f f f f;
#N canvas 0 22 280 268 spigot~ 0;
#X obj 97 33 inlet~;
#X obj 97 157 outlet~;
#X obj 97 136 *~;
#X obj 112 69 loadbang;
#X msg 112 88 0;
#X obj 137 110 inlet;
#X connect 0 0 2 0;
#X connect 2 0 1 0;
#X connect 3 0 4 0;
#X connect 4 0 2 1;
#X connect 5 0 2 1;
#X restore 73 468 pd spigot~;
#X obj 34 514 outlet~;
#X obj 56 534 outlet~;
#X obj 74 554 outlet~;
#X obj 96 574 outlet~;
#X obj 114 594 outlet~;
#X obj 136 614 outlet~;
#X obj 154 634 outlet~;
#X connect 0 0 19 0;
#X connect 1 0 19 0;
#X connect 2 0 19 0;
#X connect 3 0 19 0;
#X connect 4 0 19 0;
#X connect 5 0 19 0;
#X connect 6 0 19 0;
#X connect 7 0 19 0;
#X connect 8 0 16 0;
#X connect 9 0 21 0;
#X connect 10 0 22 0;
#X connect 11 0 23 0;
#X connect 13 0 24 0;
#X connect 14 0 26 0;
#X connect 15 0 8 0;
#X connect 15 0 9 0;
#X connect 15 0 10 0;
#X connect 15 0 11 0;
#X connect 15 0 12 0;
#X connect 15 0 13 0;
#X connect 15 0 14 0;
#X connect 15 0 20 0;
#X connect 17 0 18 0;
#X connect 18 0 0 0;
#X connect 18 1 1 0;
#X connect 18 2 2 0;
#X connect 18 3 3 0;
#X connect 18 4 4 0;
#X connect 18 5 5 0;
#X connect 18 6 6 0;
#X connect 18 7 7 0;
#X connect 19 0 8 1;
#X connect 19 1 9 1;
#X connect 19 2 10 1;
#X connect 19 3 11 1;
#X connect 19 4 12 1;
#X connect 19 5 13 1;
#X connect 19 6 14 1;
#X connect 19 7 20 1;
#X connect 20 0 27 0;
#X restore 328 270 pd column4444444444;
#N canvas 0 22 474 324 column555555555 0;
#X msg 71 70 1 0 0 0 0 0 0 0 0 0 0 0;
#X msg 81 89 0 1 0 0 0 0 0 0 0 0 0 0;
#X msg 91 110 0 0 1 0 0 0 0 0 0 0 0 0;
#X msg 101 129 0 0 0 1 0 0 0 0 0 0 0 0;
#X msg 111 150 0 0 0 0 1 0 0 0 0 0 0 0;
#X msg 121 169 0 0 0 0 0 1 0 0 0 0 0 0;
#X msg 131 190 0 0 0 0 0 0 1 0 0 0 0 0;
#X msg 141 209 0 0 0 0 0 0 0 1 0 0 0 0;
#N canvas 0 22 280 268 spigot~ 0;
#X obj 97 33 inlet~;
#X obj 97 157 outlet~;
#X obj 97 136 *~;
#X obj 112 69 loadbang;
#X msg 112 88 0;
#X obj 137 110 inlet;
#X connect 0 0 2 0;
#X connect 2 0 1 0;
#X connect 3 0 4 0;
#X connect 4 0 2 1;
#X connect 5 0 2 1;
#X restore 3 328 pd spigot~;
#N canvas 0 22 280 268 spigot~ 0;
#X obj 97 33 inlet~;
#X obj 97 157 outlet~;
#X obj 97 136 *~;
#X obj 112 69 loadbang;
#X msg 112 88 0;
#X obj 137 110 inlet;
#X connect 0 0 2 0;
#X connect 2 0 1 0;
#X connect 3 0 4 0;
#X connect 4 0 2 1;
#X connect 5 0 2 1;
#X restore 13 348 pd spigot~;
#N canvas 0 22 280 268 spigot~ 0;
#X obj 97 33 inlet~;
#X obj 97 157 outlet~;
#X obj 97 136 *~;
#X obj 112 69 loadbang;
#X msg 112 88 0;
#X obj 137 110 inlet;
#X connect 0 0 2 0;
#X connect 2 0 1 0;
#X connect 3 0 4 0;
#X connect 4 0 2 1;
#X connect 5 0 2 1;
#X restore 23 368 pd spigot~;
#N canvas 0 22 280 268 spigot~ 0;
#X obj 97 33 inlet~;
#X obj 97 157 outlet~;
#X obj 97 136 *~;
#X obj 112 69 loadbang;
#X msg 112 88 0;
#X obj 137 110 inlet;
#X connect 0 0 2 0;
#X connect 2 0 1 0;
#X connect 3 0 4 0;
#X connect 4 0 2 1;
#X connect 5 0 2 1;
#X restore 33 388 pd spigot~;
#N canvas 0 22 280 268 spigot~ 0;
#X obj 97 33 inlet~;
#X obj 97 157 outlet~;
#X obj 97 136 *~;
#X obj 112 69 loadbang;
#X msg 112 88 0;
#X obj 137 110 inlet;
#X connect 0 0 2 0;
#X connect 2 0 1 0;
#X connect 3 0 4 0;
#X connect 4 0 2 1;
#X connect 5 0 2 1;
#X restore 43 408 pd spigot~;
#N canvas 0 22 280 268 spigot~ 0;
#X obj 97 33 inlet~;
#X obj 97 157 outlet~;
#X obj 97 136 *~;
#X obj 112 69 loadbang;
#X msg 112 88 0;
#X obj 137 110 inlet;
#X connect 0 0 2 0;
#X connect 2 0 1 0;
#X connect 3 0 4 0;
#X connect 4 0 2 1;
#X connect 5 0 2 1;
#X restore 53 428 pd spigot~;
#N canvas 0 22 280 268 spigot~ 0;
#X obj 97 33 inlet~;
#X obj 97 157 outlet~;
#X obj 97 136 *~;
#X obj 112 69 loadbang;
#X msg 112 88 0;
#X obj 137 110 inlet;
#X connect 0 0 2 0;
#X connect 2 0 1 0;
#X connect 3 0 4 0;
#X connect 4 0 2 1;
#X connect 5 0 2 1;
#X restore 63 448 pd spigot~;
#N canvas 0 22 280 268 spigot~ 0;
#X obj 97 33 inlet~;
#X obj 97 157 outlet~;
#X obj 97 136 *~;
#X obj 112 69 loadbang;
#X msg 112 88 0;
#X obj 137 110 inlet;
#X connect 0 0 2 0;
#X connect 2 0 1 0;
#X connect 3 0 4 0;
#X connect 4 0 2 1;
#X connect 5 0 2 1;
#X restore 73 468 pd spigot~;
#X obj 5 8 inlet~;
#X obj 6 564 outlet~;
#X obj 71 8 r \$0-5;
#X obj 71 32 sel 0 1 2 3 4 5 6 7;
#X obj 72 312 unpack f f f f f f f f;
#X obj 34 514 outlet~;
#X obj 56 534 outlet~;
#X obj 74 554 outlet~;
#X obj 96 574 outlet~;
#X obj 114 594 outlet~;
#X obj 136 614 outlet~;
#X obj 154 634 outlet~;
#X connect 0 0 20 0;
#X connect 1 0 20 0;
#X connect 2 0 20 0;
#X connect 3 0 20 0;
#X connect 4 0 20 0;
#X connect 5 0 20 0;
#X connect 6 0 20 0;
#X connect 7 0 20 0;
#X connect 8 0 17 0;
#X connect 9 0 21 0;
#X connect 10 0 22 0;
#X connect 11 0 23 0;
#X connect 12 0 24 0;
#X connect 13 0 25 0;
#X connect 14 0 26 0;
#X connect 15 0 27 0;
#X connect 16 0 8 0;
#X connect 16 0 9 0;
#X connect 16 0 10 0;
#X connect 16 0 11 0;
#X connect 16 0 12 0;
#X connect 16 0 13 0;
#X connect 16 0 14 0;
#X connect 16 0 15 0;
#X connect 18 0 19 0;
#X connect 19 0 0 0;
#X connect 19 1 1 0;
#X connect 19 2 2 0;
#X connect 19 3 3 0;
#X connect 19 4 4 0;
#X connect 19 5 5 0;
#X connect 19 6 6 0;
#X connect 19 7 7 0;
#X connect 20 0 8 1;
#X connect 20 1 9 1;
#X connect 20 2 10 1;
#X connect 20 3 11 1;
#X connect 20 4 12 1;
#X connect 20 5 13 1;
#X connect 20 6 14 1;
#X connect 20 7 15 1;
#X restore 165 313 pd column555555555;
#N canvas 0 22 474 324 column6666666666 0;
#X msg 71 70 1 0 0 0 0 0 0 0 0 0 0 0;
#X msg 81 89 0 1 0 0 0 0 0 0 0 0 0 0;
#X msg 91 110 0 0 1 0 0 0 0 0 0 0 0 0;
#X msg 101 129 0 0 0 1 0 0 0 0 0 0 0 0;
#X msg 111 150 0 0 0 0 1 0 0 0 0 0 0 0;
#X msg 121 169 0 0 0 0 0 1 0 0 0 0 0 0;
#X msg 131 190 0 0 0 0 0 0 1 0 0 0 0 0;
#X msg 141 209 0 0 0 0 0 0 0 1 0 0 0 0;
#N canvas 0 22 280 268 spigot~ 0;
#X obj 97 33 inlet~;
#X obj 97 157 outlet~;
#X obj 97 136 *~;
#X obj 112 69 loadbang;
#X msg 112 88 0;
#X obj 137 110 inlet;
#X connect 0 0 2 0;
#X connect 2 0 1 0;
#X connect 3 0 4 0;
#X connect 4 0 2 1;
#X connect 5 0 2 1;
#X restore 3 328 pd spigot~;
#N canvas 0 22 280 268 spigot~ 0;
#X obj 97 33 inlet~;
#X obj 97 157 outlet~;
#X obj 97 136 *~;
#X obj 112 69 loadbang;
#X msg 112 88 0;
#X obj 137 110 inlet;
#X connect 0 0 2 0;
#X connect 2 0 1 0;
#X connect 3 0 4 0;
#X connect 4 0 2 1;
#X connect 5 0 2 1;
#X restore 23 348 pd spigot~;
#N canvas 0 22 280 268 spigot~ 0;
#X obj 97 33 inlet~;
#X obj 97 157 outlet~;
#X obj 97 136 *~;
#X obj 112 69 loadbang;
#X msg 112 88 0;
#X obj 137 110 inlet;
#X connect 0 0 2 0;
#X connect 2 0 1 0;
#X connect 3 0 4 0;
#X connect 4 0 2 1;
#X connect 5 0 2 1;
#X restore 33 368 pd spigot~;
#N canvas 0 22 280 268 spigot~ 0;
#X obj 97 33 inlet~;
#X obj 97 157 outlet~;
#X obj 97 136 *~;
#X obj 112 69 loadbang;
#X msg 112 88 0;
#X obj 137 110 inlet;
#X connect 0 0 2 0;
#X connect 2 0 1 0;
#X connect 3 0 4 0;
#X connect 4 0 2 1;
#X connect 5 0 2 1;
#X restore 43 388 pd spigot~;
#N canvas 0 22 280 268 spigot~ 0;
#X obj 97 33 inlet~;
#X obj 97 157 outlet~;
#X obj 97 136 *~;
#X obj 112 69 loadbang;
#X msg 112 88 0;
#X obj 137 110 inlet;
#X connect 0 0 2 0;
#X connect 2 0 1 0;
#X connect 3 0 4 0;
#X connect 4 0 2 1;
#X connect 5 0 2 1;
#X restore 53 408 pd spigot~;
#N canvas 0 22 280 268 spigot~ 0;
#X obj 97 33 inlet~;
#X obj 97 157 outlet~;
#X obj 97 136 *~;
#X obj 112 69 loadbang;
#X msg 112 88 0;
#X obj 137 110 inlet;
#X connect 0 0 2 0;
#X connect 2 0 1 0;
#X connect 3 0 4 0;
#X connect 4 0 2 1;
#X connect 5 0 2 1;
#X restore 63 428 pd spigot~;
#N canvas 0 22 280 268 spigot~ 0;
#X obj 97 33 inlet~;
#X obj 97 157 outlet~;
#X obj 97 136 *~;
#X obj 112 69 loadbang;
#X msg 112 88 0;
#X obj 137 110 inlet;
#X connect 0 0 2 0;
#X connect 2 0 1 0;
#X connect 3 0 4 0;
#X connect 4 0 2 1;
#X connect 5 0 2 1;
#X restore 73 448 pd spigot~;
#N canvas 0 22 280 268 spigot~ 0;
#X obj 97 33 inlet~;
#X obj 97 157 outlet~;
#X obj 97 136 *~;
#X obj 112 69 loadbang;
#X msg 112 88 0;
#X obj 137 110 inlet;
#X connect 0 0 2 0;
#X connect 2 0 1 0;
#X connect 3 0 4 0;
#X connect 4 0 2 1;
#X connect 5 0 2 1;
#X restore 83 468 pd spigot~;
#X obj 5 8 inlet~;
#X obj 6 564 outlet~;
#X obj 71 8 r \$0-6;
#X obj 71 32 sel 0 1 2 3 4 5 6 7;
#X obj 72 312 unpack f f f f f f f f;
#X obj 34 514 outlet~;
#X obj 56 534 outlet~;
#X obj 74 554 outlet~;
#X obj 96 574 outlet~;
#X obj 114 594 outlet~;
#X obj 136 614 outlet~;
#X obj 154 634 outlet~;
#X connect 0 0 20 0;
#X connect 1 0 20 0;
#X connect 2 0 20 0;
#X connect 3 0 20 0;
#X connect 4 0 20 0;
#X connect 5 0 20 0;
#X connect 6 0 20 0;
#X connect 7 0 20 0;
#X connect 8 0 17 0;
#X connect 9 0 21 0;
#X connect 10 0 22 0;
#X connect 11 0 23 0;
#X connect 12 0 24 0;
#X connect 13 0 25 0;
#X connect 14 0 26 0;
#X connect 15 0 27 0;
#X connect 16 0 8 0;
#X connect 16 0 9 0;
#X connect 16 0 10 0;
#X connect 16 0 11 0;
#X connect 16 0 12 0;
#X connect 16 0 13 0;
#X connect 16 0 14 0;
#X connect 16 0 15 0;
#X connect 18 0 19 0;
#X connect 19 0 0 0;
#X connect 19 1 1 0;
#X connect 19 2 2 0;
#X connect 19 3 3 0;
#X connect 19 4 4 0;
#X connect 19 5 5 0;
#X connect 19 6 6 0;
#X connect 19 7 7 0;
#X connect 20 0 8 1;
#X connect 20 1 9 1;
#X connect 20 2 10 1;
#X connect 20 3 11 1;
#X connect 20 4 12 1;
#X connect 20 5 13 1;
#X connect 20 6 14 1;
#X connect 20 7 15 1;
#X restore 8 315 pd column6666666666;
#N canvas 10 64 478 328 column77777777 0;
#X msg 71 70 1 0 0 0 0 0 0 0 0 0 0 0;
#X msg 81 89 0 1 0 0 0 0 0 0 0 0 0 0;
#X msg 91 110 0 0 1 0 0 0 0 0 0 0 0 0;
#X msg 101 129 0 0 0 1 0 0 0 0 0 0 0 0;
#X msg 111 150 0 0 0 0 1 0 0 0 0 0 0 0;
#X msg 121 169 0 0 0 0 0 1 0 0 0 0 0 0;
#X msg 131 190 0 0 0 0 0 0 1 0 0 0 0 0;
#X msg 141 209 0 0 0 0 0 0 0 1 0 0 0 0;
#N canvas 0 22 280 268 spigot~ 0;
#X obj 97 33 inlet~;
#X obj 97 157 outlet~;
#X obj 97 136 *~;
#X obj 112 69 loadbang;
#X msg 112 88 0;
#X obj 137 110 inlet;
#X connect 0 0 2 0;
#X connect 2 0 1 0;
#X connect 3 0 4 0;
#X connect 4 0 2 1;
#X connect 5 0 2 1;
#X restore 3 328 pd spigot~;
#N canvas 0 22 280 268 spigot~ 0;
#X obj 97 33 inlet~;
#X obj 97 157 outlet~;
#X obj 97 136 *~;
#X obj 112 69 loadbang;
#X msg 112 88 0;
#X obj 137 110 inlet;
#X connect 0 0 2 0;
#X connect 2 0 1 0;
#X connect 3 0 4 0;
#X connect 4 0 2 1;
#X connect 5 0 2 1;
#X restore 13 348 pd spigot~;
#N canvas 0 22 280 268 spigot~ 0;
#X obj 97 33 inlet~;
#X obj 97 157 outlet~;
#X obj 97 136 *~;
#X obj 112 69 loadbang;
#X msg 112 88 0;
#X obj 137 110 inlet;
#X connect 0 0 2 0;
#X connect 2 0 1 0;
#X connect 3 0 4 0;
#X connect 4 0 2 1;
#X connect 5 0 2 1;
#X restore 23 368 pd spigot~;
#N canvas 0 22 280 268 spigot~ 0;
#X obj 97 33 inlet~;
#X obj 97 157 outlet~;
#X obj 97 136 *~;
#X obj 112 69 loadbang;
#X msg 112 88 0;
#X obj 137 110 inlet;
#X connect 0 0 2 0;
#X connect 2 0 1 0;
#X connect 3 0 4 0;
#X connect 4 0 2 1;
#X connect 5 0 2 1;
#X restore 33 388 pd spigot~;
#N canvas 0 22 280 268 spigot~ 0;
#X obj 97 33 inlet~;
#X obj 97 157 outlet~;
#X obj 97 136 *~;
#X obj 112 69 loadbang;
#X msg 112 88 0;
#X obj 137 110 inlet;
#X connect 0 0 2 0;
#X connect 2 0 1 0;
#X connect 3 0 4 0;
#X connect 4 0 2 1;
#X connect 5 0 2 1;
#X restore 43 408 pd spigot~;
#N canvas 0 22 280 268 spigot~ 0;
#X obj 97 33 inlet~;
#X obj 97 157 outlet~;
#X obj 97 136 *~;
#X obj 112 69 loadbang;
#X msg 112 88 0;
#X obj 137 110 inlet;
#X connect 0 0 2 0;
#X connect 2 0 1 0;
#X connect 3 0 4 0;
#X connect 4 0 2 1;
#X connect 5 0 2 1;
#X restore 53 428 pd spigot~;
#N canvas 0 22 280 268 spigot~ 0;
#X obj 97 33 inlet~;
#X obj 97 157 outlet~;
#X obj 97 136 *~;
#X obj 112 69 loadbang;
#X msg 112 88 0;
#X obj 137 110 inlet;
#X connect 0 0 2 0;
#X connect 2 0 1 0;
#X connect 3 0 4 0;
#X connect 4 0 2 1;
#X connect 5 0 2 1;
#X restore 63 448 pd spigot~;
#N canvas 0 22 280 268 spigot~ 0;
#X obj 97 33 inlet~;
#X obj 97 157 outlet~;
#X obj 97 136 *~;
#X obj 112 69 loadbang;
#X msg 112 88 0;
#X obj 137 110 inlet;
#X connect 0 0 2 0;
#X connect 2 0 1 0;
#X connect 3 0 4 0;
#X connect 4 0 2 1;
#X connect 5 0 2 1;
#X restore 75 471 pd spigot~;
#X obj 5 8 inlet~;
#X obj 6 484 outlet~;
#X obj 71 8 r \$0-7;
#X obj 71 32 sel 0 1 2 3 4 5 6 7;
#X obj 72 312 unpack f f f f f f f f;
#X obj 34 514 outlet~;
#X obj 56 534 outlet~;
#X obj 74 554 outlet~;
#X obj 96 574 outlet~;
#X obj 114 594 outlet~;
#X obj 136 614 outlet~;
#X obj 154 634 outlet~;
#X floatatom 171 358 5 0 0 0 - - -;
#X connect 0 0 20 0;
#X connect 1 0 20 0;
#X connect 2 0 20 0;
#X connect 3 0 20 0;
#X connect 4 0 20 0;
#X connect 5 0 20 0;
#X connect 6 0 20 0;
#X connect 7 0 20 0;
#X connect 8 0 17 0;
#X connect 9 0 21 0;
#X connect 10 0 22 0;
#X connect 11 0 23 0;
#X connect 12 0 24 0;
#X connect 13 0 25 0;
#X connect 14 0 26 0;
#X connect 15 0 27 0;
#X connect 16 0 8 0;
#X connect 16 0 9 0;
#X connect 16 0 10 0;
#X connect 16 0 11 0;
#X connect 16 0 12 0;
#X connect 16 0 13 0;
#X connect 16 0 14 0;
#X connect 16 0 15 0;
#X connect 18 0 19 0;
#X connect 19 0 0 0;
#X connect 19 1 1 0;
#X connect 19 2 2 0;
#X connect 19 3 3 0;
#X connect 19 4 4 0;
#X connect 19 5 5 0;
#X connect 19 6 6 0;
#X connect 19 7 7 0;
#X connect 20 0 8 1;
#X connect 20 0 28 0;
#X connect 20 1 9 1;
#X connect 20 2 10 1;
#X connect 20 3 11 1;
#X connect 20 4 12 1;
#X connect 20 5 13 1;
#X connect 20 6 14 1;
#X connect 20 7 15 1;
#X restore 420 182 pd column77777777;
#X obj 537 163 route load;
#X obj 537 185 s \$0-load;
#X obj 620 124 inlet;
#X obj 5 3 cnv 2 140 134 empty foof empty 20 12 0 14 -258699 -262144
0;
#X obj 24 13 vradio 14 1 1 8 \$0-0 \$0-20 empty 0 -6 0 8 -262144 -1
-1 7;
#X obj 38 13 vradio 14 1 1 8 \$0-1 \$0-21 empty 0 -6 0 8 -262144 -1
-1 6;
#X obj 52 13 vradio 14 1 0 8 \$0-2 \$0-22 empty 0 -6 0 8 -262144 -1
-1 5;
#X obj 66 13 vradio 14 1 1 8 \$0-3 \$0-23 empty 0 -6 0 8 -262144 -1
-1 4;
#X obj 80 13 vradio 14 1 1 8 \$0-4 \$0-24 empty 0 -6 0 8 -262144 -1
-1 3;
#X obj 94 13 vradio 14 1 1 8 \$0-5 \$0-25 empty 0 -6 0 8 -262144 -1
-1 2;
#X obj 108 13 vradio 14 1 1 8 \$0-6 \$0-26 empty 0 -6 0 8 -262144 -1
-1 1;
#X obj 122 13 vradio 14 1 1 8 \$0-7 \$0-27 empty 0 -6 0 8 -262144 -1
-1 0;
#X text 27 1 1;
#X text 39 1 2;
#X text 53 1 3;
#X text 67 1 4;
#X text 81 1 5;
#X text 95 1 6;
#X text 109 1 7;
#X text 14 12 1;
#X text 14 26 2;
#X text 14 40 3;
#X text 14 54 4;
#X text 14 67 5;
#X text 14 81 6;
#X text 14 95 7;
#X text 14 109 8;
#X obj 41 112 cnv 6 6 22 $-V1 \$0-2V1 empty 20 12 0 14 -250685 -262144
0;
#X obj 55 98 cnv 6 6 36 \$0-V2 \$0-2V2 empty 20 12 0 14 -62784 -262144
0;
#X obj 69 84 cnv 6 6 50 $-V3 \$0-2V3 empty 20 12 0 14 -44926 -262144
0;
#X obj 83 70 cnv 6 6 64 \$0-V4 \$0-2V4 empty 20 12 0 14 -24198 -262144
0;
#X obj 97 56 cnv 6 6 78 $-V5 \$0-2V5 empty 20 12 0 14 -241291 -262144
0;
#X obj 111 42 cnv 6 6 92 \$0-V6 \$0-2V6 empty 20 12 0 14 -260818 -262144
0;
#X obj 125 28 cnv 6 6 106 $-V7 \$0-2V7 empty 20 12 0 14 -258699 -262144
0;
#X obj 27 126 cnv 6 6 8 \$0-V0 \$0-2V0 empty 20 12 0 14 -195568 -262144
0;
#X obj 24 74 cnv 4 40 4 \$0-H3 \$0-2H3 empty 20 12 0 14 -44926 -262144
0;
#X obj 24 88 cnv 4 26 4 \$0-H2 \$0-2H2 empty 20 12 0 14 -62784 -262144
0;
#X obj 24 60 cnv 4 54 4 \$0-H4 \$0-2H4 empty 20 12 0 14 -24198 -262144
0;
#X obj 24 102 cnv 4 12 4 \$0-H1 \$0-2H1 empty 20 12 0 14 -250685 -262144
0;
#X obj 24 32 cnv 4 82 4 \$0-H6 \$0-2H6 empty 20 12 0 14 -260818 -262144
0;
#X obj 24 18 cnv 4 96 4 \$0-H7 \$0-2H7 empty 20 12 0 14 -258699 -262144
0;
#X obj 24 46 cnv 4 68 4 \$0-H5 \$0-2H5 empty 20 12 0 14 -241291 -262144
0;
#X text 123 1 8;
#N canvas 462 160 465 512 save 0;
#X obj 224 265 tabread \$0-saveparam;
#X obj 238 153 unpack f f;
#X msg 211 69 \$1 0;
#X msg 241 79 \$1 1;
#X msg 281 89 \$1 2;
#X obj 186 279 int;
#X obj 160 257 bang;
#X obj 201 302 pack;
#X obj 118 47 openpanel;
#X obj 224 220 until;
#X obj 21 21 inlet;
#X obj 118 21 inlet;
#X obj 61 352 tabread \$0-saveparam;
#X obj 59 304 until;
#X obj 73 454 textfile;
#X obj 220 175 tabwrite \$0-saveparam;
#X msg 63 378 add \$1;
#X obj 17 263 savepanel;
#X msg 12 369 write \$1;
#X msg 16 447 clear;
#X obj 16 423 pipe 30;
#X obj 21 239 t b b;
#X obj 15 396 bang;
#X obj 133 161 textfile;
#X msg 123 106 read \$1;
#X msg 140 132 rewind;
#X obj 123 258 pack;
#X obj 60 143 until;
#X obj 51 90 bang;
#X msg 331 109 \$1 3;
#X msg 381 139 \$1 4;
#X obj 139 76 r \$0-load;
#X obj 220 9 r \$0-0;
#X obj 252 33 r \$0-1;
#X obj 268 58 r \$0-2;
#X obj 319 78 r \$0-3;
#X obj 368 108 r \$0-4;
#X msg 325 37 \$1 5;
#X msg 375 57 \$1 6;
#X msg 425 87 \$1 7;
#X obj 412 56 r \$0-7;
#X obj 363 26 r \$0-6;
#X obj 312 6 r \$0-5;
#X obj 199 328 route 0 1 2 3 4 5 6 7;
#X obj 192 486 s \$0-20;
#X obj 205 466 s \$0-21;
#X obj 218 445 s \$0-22;
#X obj 235 426 s \$0-23;
#X obj 248 405 s \$0-24;
#X obj 288 445 s \$0-25;
#X obj 305 426 s \$0-26;
#X obj 318 405 s \$0-27;
#X obj 275 299 table \$0-saveparam 8;
#X msg 224 200 8;
#X obj 225 240 countto 8;
#X msg 52 118 8;
#X obj 78 213 countto 8;
#X obj 60 321 countto 8;
#X msg 59 284 8;
#X connect 0 0 7 1;
#X connect 0 0 6 0;
#X connect 1 0 15 0;
#X connect 1 1 15 1;
#X connect 2 0 1 0;
#X connect 3 0 1 0;
#X connect 4 0 1 0;
#X connect 5 0 7 0;
#X connect 6 0 5 0;
#X connect 7 0 43 0;
#X connect 8 0 24 0;
#X connect 9 0 54 0;
#X connect 10 0 21 0;
#X connect 11 0 8 0;
#X connect 12 0 16 0;
#X connect 13 0 57 0;
#X connect 16 0 14 0;
#X connect 17 0 18 0;
#X connect 18 0 14 0;
#X connect 18 0 22 0;
#X connect 19 0 14 0;
#X connect 20 0 19 0;
#X connect 21 0 17 0;
#X connect 21 1 58 0;
#X connect 22 0 20 0;
#X connect 23 0 26 1;
#X connect 23 0 56 0;
#X connect 24 0 23 0;
#X connect 24 0 25 0;
#X connect 25 0 23 0;
#X connect 25 0 28 0;
#X connect 26 0 43 0;
#X connect 27 0 23 0;
#X connect 28 0 55 0;
#X connect 29 0 1 0;
#X connect 30 0 1 0;
#X connect 31 0 24 0;
#X connect 32 0 2 0;
#X connect 33 0 3 0;
#X connect 34 0 4 0;
#X connect 35 0 29 0;
#X connect 36 0 30 0;
#X connect 37 0 1 0;
#X connect 38 0 1 0;
#X connect 39 0 1 0;
#X connect 40 0 39 0;
#X connect 41 0 38 0;
#X connect 42 0 37 0;
#X connect 43 0 44 0;
#X connect 43 1 45 0;
#X connect 43 2 46 0;
#X connect 43 3 47 0;
#X connect 43 4 48 0;
#X connect 43 5 49 0;
#X connect 43 6 50 0;
#X connect 43 7 51 0;
#X connect 53 0 9 0;
#X connect 54 0 0 0;
#X connect 54 0 5 1;
#X connect 55 0 27 0;
#X connect 56 0 26 0;
#X connect 57 0 12 0;
#X connect 58 0 13 0;
#X restore -4 207 pd save;
#X obj 6 126 bng 9 250 50 0 empty empty save 0 8 0 6 -258113 -258113
-258113;
#X obj 16 126 bng 9 250 50 0 empty empty open 0 8 0 6 -4160 -4160 -4160
;
#X obj 594 220 route 1 2 3 4 5 6 7 8;
#X obj 597 336 s \$0-20;
#X obj 607 316 s \$0-21;
#X obj 617 296 s \$0-22;
#X obj 627 276 s \$0-23;
#X obj 677 316 s \$0-24;
#X obj 688 295 s \$0-25;
#X obj 697 276 s \$0-26;
#X obj 707 256 s \$0-27;
#X connect 0 0 18 0;
#X connect 1 0 19 0;
#X connect 2 0 20 0;
#X connect 3 0 21 0;
#X connect 4 0 22 0;
#X connect 5 0 23 0;
#X connect 6 0 24 0;
#X connect 7 0 25 0;
#X connect 18 0 8 0;
#X connect 18 1 9 0;
#X connect 18 2 10 0;
#X connect 18 3 11 0;
#X connect 18 4 12 0;
#X connect 18 5 13 0;
#X connect 18 6 14 0;
#X connect 18 7 15 0;
#X connect 19 0 8 0;
#X connect 19 1 9 0;
#X connect 19 2 10 0;
#X connect 19 3 11 0;
#X connect 19 4 12 0;
#X connect 19 5 13 0;
#X connect 19 6 14 0;
#X connect 19 7 15 0;
#X connect 20 0 8 0;
#X connect 20 1 9 0;
#X connect 20 2 10 0;
#X connect 20 3 11 0;
#X connect 20 4 12 0;
#X connect 20 5 13 0;
#X connect 20 6 14 0;
#X connect 20 7 15 0;
#X connect 21 0 8 0;
#X connect 21 1 9 0;
#X connect 21 2 10 0;
#X connect 21 3 11 0;
#X connect 21 4 12 0;
#X connect 21 5 13 0;
#X connect 21 6 14 0;
#X connect 21 7 15 0;
#X connect 22 0 8 0;
#X connect 22 1 9 0;
#X connect 22 2 10 0;
#X connect 22 3 11 0;
#X connect 22 4 12 0;
#X connect 22 5 13 0;
#X connect 22 6 14 0;
#X connect 22 7 15 0;
#X connect 23 0 8 0;
#X connect 23 1 9 0;
#X connect 23 2 10 0;
#X connect 23 3 11 0;
#X connect 23 4 12 0;
#X connect 23 5 13 0;
#X connect 23 6 14 0;
#X connect 23 7 15 0;
#X connect 24 0 8 0;
#X connect 24 1 9 0;
#X connect 24 2 10 0;
#X connect 24 3 11 0;
#X connect 24 4 12 0;
#X connect 24 5 13 0;
#X connect 24 6 14 0;
#X connect 24 7 15 0;
#X connect 25 0 8 0;
#X connect 25 1 9 0;
#X connect 25 2 10 0;
#X connect 25 3 11 0;
#X connect 25 4 12 0;
#X connect 25 5 13 0;
#X connect 25 6 14 0;
#X connect 25 7 15 0;
#X connect 26 0 27 0;
#X connect 26 1 72 0;
#X connect 28 0 26 0;
#X connect 70 0 69 0;
#X connect 71 0 69 1;
#X connect 72 0 73 0;
#X connect 72 1 74 0;
#X connect 72 2 75 0;
#X connect 72 3 76 0;
#X connect 72 4 77 0;
#X connect 72 5 78 0;
#X connect 72 6 79 0;
#X connect 72 7 80 0;
#X coords 0 0 1 1 140 136 1 5 2;
