#N canvas 4 22 959 717 10;
#X obj 15 93 noise~;
#X obj 844 447 loadbang;
#X obj 390 174 cnoise1~;
#X text 468 241 (wind);
#N canvas 69 22 458 358 fft 0;
#X obj 19 62 inlet~;
#X obj 85 214 inlet;
#X obj 19 92 rfft~;
#X obj 19 125 *~;
#X obj 50 125 *~;
#X obj 19 155 sqrt~;
#X obj 332 109 block~ 4096 1;
#X obj 19 181 biquad~ 0 0 0 0 1;
#X text 83 93 Fourier series;
#X text 88 146 magnitude;
#X text 86 131 calculate;
#X text 21 3 This subpatch computes the spectrum of the incoming signal
with a (rectangular windowed) FFT. FFTs aren't properly introduced
until much later.;
#X text 83 62 signal to analyze;
#X text 182 166 delay two samples;
#X text 181 182 for better graphing;
#X text 135 216 "bang" into this inlet to graph it;
#X obj 85 248 tabwrite~ wavespectrum;
#X connect 0 0 2 0;
#X connect 1 0 16 0;
#X connect 2 0 3 0;
#X connect 2 0 3 1;
#X connect 2 1 4 0;
#X connect 2 1 4 1;
#X connect 3 0 5 0;
#X connect 4 0 5 0;
#X connect 5 0 7 0;
#X connect 7 0 16 0;
#X restore 268 599 pd fft;
#X obj 438 515 metro 100;
#X obj 389 371 *~;
#X obj 257 370 *~;
#X obj 15 362 *~;
#X obj 481 61 cnv 15 154 145 empty empty SeaMixer 14 8 0 14 -233017
-66577 0;
#N canvas 507 22 510 684 wave1 0;
#X obj 112 346 *~;
#X obj 132 269 bng 15 250 50 0 empty empty empty 0 -6 0 8 -262144 -1
-1;
#X obj 176 447 sig~;
#X floatatom 262 465 5 0 0 0 - - -;
#X obj 114 498 vcf~ 1;
#X obj 112 587 *~ 0.71;
#X msg 246 390 400;
#X obj 143 143 t b b;
#X msg 194 269 2600;
#X text 180 481 long;
#X msg 158 269 1200;
#X obj 202 177 random 1000;
#X obj 113 11 inlet~;
#X obj 206 72 inlet;
#X obj 111 628 outlet~;
#X obj 328 219 loadbang;
#X obj 132 306 az_vad~;
#X obj 27 104 spigot;
#X obj 113 547 *~;
#X obj 158 526 tgl 15 0 empty empty empty 0 -6 0 8 -262144 -1 -1 0
1;
#X obj 24 341 del 3800;
#X obj 202 202 + 3800;
#X obj 143 226 del 3800;
#X obj 176 418 line;
#X obj 24 268 t b b b;
#X msg 24 386 400;
#X msg 176 390 800 1200;
#X connect 0 0 4 0;
#X connect 1 0 16 0;
#X connect 1 0 17 0;
#X connect 2 0 4 1;
#X connect 4 0 18 0;
#X connect 5 0 14 0;
#X connect 6 0 23 1;
#X connect 7 0 22 0;
#X connect 7 1 11 0;
#X connect 8 0 16 2;
#X connect 10 0 16 1;
#X connect 11 0 21 0;
#X connect 12 0 0 0;
#X connect 13 0 7 0;
#X connect 13 0 17 1;
#X connect 15 0 10 0;
#X connect 15 0 8 0;
#X connect 15 0 6 0;
#X connect 16 0 0 1;
#X connect 17 0 7 0;
#X connect 18 0 5 0;
#X connect 19 0 18 1;
#X connect 20 0 19 0;
#X connect 20 0 25 0;
#X connect 21 0 22 1;
#X connect 22 0 1 0;
#X connect 22 0 24 0;
#X connect 23 0 3 0;
#X connect 23 0 2 0;
#X connect 24 0 20 0;
#X connect 24 1 19 0;
#X connect 24 2 26 0;
#X connect 25 0 23 0;
#X connect 26 0 23 0;
#X restore 15 240 pd wave1;
#N canvas 0 22 472 679 wave3 0;
#X obj 170 325 *~;
#X obj 251 420 sig~;
#X obj 169 463 vcf~ 1;
#X obj 189 230 bng 15 250 50 0 empty empty empty 0 -6 0 8 -262144 -1
-1;
#X msg 306 390 220;
#X obj 215 105 t b b;
#X obj 274 128 random 2000;
#X msg 214 229 800;
#X msg 250 229 3500;
#X obj 189 272 az_vad~;
#X obj 168 586 hip~ 350;
#X obj 169 558 *~ 5.6;
#X obj 171 9 inlet~;
#X obj 272 44 inlet;
#X obj 167 624 outlet~;
#X obj 375 182 loadbang;
#X obj 62 86 spigot;
#X obj 169 511 *~;
#X obj 210 497 tgl 15 0 empty empty empty 0 -6 0 8 -262144 -1 -1 0
1;
#X obj 43 265 del 4300;
#X obj 215 177 del 4300;
#X obj 274 153 + 4300;
#X obj 252 386 line;
#X obj 43 228 t b b b;
#X msg 43 315 220;
#X msg 252 358 400 1600;
#X floatatom 330 472 5 0 0 0 - - -;
#X connect 0 0 2 0;
#X connect 1 0 2 1;
#X connect 2 0 17 0;
#X connect 3 0 9 0;
#X connect 3 0 16 0;
#X connect 4 0 1 0;
#X connect 5 0 20 0;
#X connect 5 1 6 0;
#X connect 6 0 21 0;
#X connect 7 0 9 1;
#X connect 8 0 9 2;
#X connect 9 0 0 1;
#X connect 10 0 14 0;
#X connect 11 0 10 0;
#X connect 12 0 0 0;
#X connect 13 0 5 0;
#X connect 13 0 16 1;
#X connect 15 0 7 0;
#X connect 15 0 8 0;
#X connect 15 0 4 0;
#X connect 16 0 5 0;
#X connect 17 0 11 0;
#X connect 18 0 17 1;
#X connect 19 0 18 0;
#X connect 19 0 24 0;
#X connect 20 0 3 0;
#X connect 20 0 23 0;
#X connect 21 0 20 1;
#X connect 22 0 1 0;
#X connect 22 0 26 0;
#X connect 23 0 19 0;
#X connect 23 1 18 0;
#X connect 23 2 25 0;
#X connect 24 0 22 0;
#X connect 25 0 22 0;
#X restore 258 242 pd wave3;
#N canvas 0 22 503 683 wave2 0;
#X obj 148 308 *~;
#X obj 178 414 sig~;
#X obj 149 468 vcf~ 1;
#X obj 166 220 bng 15 250 50 0 empty empty empty 0 -6 0 8 -262144 -1
-1;
#X msg 266 366 295;
#X obj 221 81 t b b;
#X obj 221 158 del 3600;
#X obj 280 134 + 3600;
#X text 284 219 short burst;
#X text 224 254 replacement for ead;
#X obj 147 586 hip~ 500;
#X msg 228 218 2100;
#X obj 148 557 *~ 3.1;
#X msg 192 218 450;
#X obj 280 109 random 4000;
#X obj 149 8 inlet~;
#X obj 279 23 inlet;
#X obj 147 623 outlet~;
#X obj 415 159 loadbang;
#X obj 167 254 az_vad~;
#X obj 48 60 spigot;
#X obj 148 516 *~;
#X obj 193 495 tgl 15 0 empty empty empty 0 -6 0 8 -262144 -1 -1 0
1;
#X obj 48 307 del 2550;
#X obj 48 270 t b b b;
#X floatatom 260 444 5 0 0 0 - - -;
#X obj 178 383 line;
#X msg 48 344 295;
#X msg 178 355 1100 400;
#X connect 0 0 2 0;
#X connect 1 0 2 1;
#X connect 2 0 21 0;
#X connect 3 0 19 0;
#X connect 3 0 20 0;
#X connect 4 0 1 0;
#X connect 5 0 6 0;
#X connect 5 1 14 0;
#X connect 6 0 3 0;
#X connect 6 0 24 0;
#X connect 7 0 6 1;
#X connect 10 0 17 0;
#X connect 11 0 19 2;
#X connect 12 0 10 0;
#X connect 13 0 19 1;
#X connect 14 0 7 0;
#X connect 15 0 0 0;
#X connect 16 0 5 0;
#X connect 16 0 20 1;
#X connect 18 0 13 0;
#X connect 18 0 11 0;
#X connect 18 0 4 0;
#X connect 19 0 0 1;
#X connect 20 0 5 0;
#X connect 21 0 12 0;
#X connect 22 0 21 1;
#X connect 23 0 22 0;
#X connect 23 0 27 0;
#X connect 24 0 23 0;
#X connect 24 1 22 0;
#X connect 24 2 28 0;
#X connect 26 0 1 0;
#X connect 26 0 25 0;
#X connect 27 0 26 0;
#X connect 28 0 26 0;
#X restore 139 240 pd wave2;
#X obj 138 367 *~;
#X text 400 264 constant background noise;
#X obj 408 314 r bkgnl;
#X obj 276 313 r w3l;
#X obj 157 312 r w2l;
#X obj 34 314 r w1l;
#X obj 344 7 tgl 15 0 empty \$0-onoff empty 0 -6 0 8 -262144 -1 -1
0 1;
#X obj 487 76 hsl 100 11 0 1 0 0 w1l w1lr wave1 -2 6 0 12 -62784 -241291
-258699 4455 1;
#X obj 487 89 hsl 100 11 0 1 0 0 w2l w2lr wave2 -2 6 0 12 -62784 -241291
-258699 990 1;
#X obj 487 102 hsl 100 11 0 1 0 0 w3l w3lr wave3 -2 6 0 12 -62784 -241291
-258699 1980 1;
#X obj 594 76 hsl 32 11 0 1 0 0 w1p w1pr pan1 -2 6 0 12 -62784 -241291
-258699 1240 1;
#X obj 594 89 hsl 32 11 0 1 0 0 w2p w2pr pan2 -2 6 0 12 -62784 -241291
-258699 1860 1;
#X obj 594 102 hsl 32 11 0 1 0 0 w3p w3pr pan3 -2 6 0 12 -62784 -241291
-258699 1922 1;
#X obj 484 138 cnv 15 144 64 empty empty Spectrum 20 40 0 14 -74880
-66577 0;
#N canvas 0 22 450 300 (subpatch) 0;
#X array wavespectrum 128 float 0;
#X coords 0 150 127 -20 144 60 1;
#X restore 484 140 graph;
#X obj 487 115 hsl 100 11 0 1 0 0 bkgnl bkgnlr bkg -2 6 0 12 -62784
-241291 -258699 1980 1;
#X obj 15 424 panner1;
#X obj 307 399 r w3p;
#X obj 188 398 r w2p;
#X obj 66 397 r w1p;
#X obj 137 425 panner1;
#X obj 256 427 panner1;
#X obj 268 523 catch~ sumbus_R;
#X obj 140 524 catch~ sumbus_L;
#X obj 388 428 panner1;
#X obj 439 394 r bkgp;
#X obj 594 115 hsl 32 11 0 1 0 0 bkgp bkgpr pan4 -2 6 0 12 -62784 -241291
-258699 1550 1;
#X obj 390 289 lop~ 600;
#X obj 269 562 hip~ 20;
#X obj 141 564 hip~ 20;
#X msg 844 492 \; w1lr 0.3 \; w2lr 0.1 \; w3lr 0.2 \; bkgnlr 0.2 \;
w1pr 0.4 \; w2pr 0.6 \; w3pr 0.8 \; bkgpr 0.5 \; cn_alpha 1 \; cn_lvl
80 \;;
#X text 363 6 <- on/off;
#X text 14 27 Beach ambient generator. AZ 2007;
#X text 15 7 Sea waves.;
#X obj 231 49 loadbang;
#X obj 89 625 outlet~;
#X obj 179 625 outlet~;
#X obj 629 236 inlet;
#X obj 580 299 route wave1 wave2 wave3 bkg;
#X obj 574 405 route pan1 pan2 pan3 pan4;
#X obj 618 129 tgl 15 0 \$0-graph \$0-2graph empty 17 7 0 10 -262144
-1 -1 0 1;
#X obj 439 491 r \$0-graph;
#X obj 619 63 tgl 15 0 \$0-onoff \$0-2onoff empty 17 7 0 10 -262144
-1 -1 0 1;
#X msg 229 68 1;
#X obj 229 92 s \$0-2onoff;
#X obj 580 322 s w1lr;
#X obj 626 342 s w2lr;
#X obj 672 362 s w3lr;
#X obj 718 382 s bkgnlr;
#X obj 574 432 s w1pr;
#X obj 620 452 s w2pr;
#X obj 666 472 s w3pr;
#X obj 712 492 s bkgpr;
#X connect 0 0 10 0;
#X connect 0 0 12 0;
#X connect 0 0 2 0;
#X connect 1 0 43 0;
#X connect 2 0 40 0;
#X connect 2 0 11 0;
#X connect 5 0 4 1;
#X connect 6 0 37 0;
#X connect 7 0 34 0;
#X connect 8 0 29 0;
#X connect 10 0 8 0;
#X connect 11 0 7 0;
#X connect 12 0 13 0;
#X connect 13 0 33 0;
#X connect 15 0 6 1;
#X connect 16 0 7 1;
#X connect 17 0 13 1;
#X connect 18 0 8 1;
#X connect 19 0 10 1;
#X connect 19 0 12 1;
#X connect 19 0 11 1;
#X connect 19 0 2 1;
#X connect 30 0 34 1;
#X connect 31 0 33 1;
#X connect 32 0 29 1;
#X connect 35 0 41 0;
#X connect 36 0 42 0;
#X connect 38 0 37 1;
#X connect 40 0 6 0;
#X connect 41 0 4 0;
#X connect 41 0 49 0;
#X connect 42 0 4 0;
#X connect 42 0 48 0;
#X connect 47 0 56 0;
#X connect 50 0 51 0;
#X connect 51 0 58 0;
#X connect 51 1 59 0;
#X connect 51 2 60 0;
#X connect 51 3 61 0;
#X connect 51 4 52 0;
#X connect 52 0 62 0;
#X connect 52 2 63 0;
#X connect 52 3 64 0;
#X connect 52 4 65 0;
#X connect 54 0 5 0;
#X connect 56 0 57 0;
#X coords 0 -1 1 1 156 148 2 480 60;
