#N canvas 231 462 292 185 10;
#X obj 60 21 gemmouse 8 8;
#X obj 41 65 - 4;
#X obj 66 48 * -1;
#X obj 66 69 + 4;
#X obj 54 95 pack f f;
#X obj 54 117 s mousepos;
#X obj 99 57 pack f f f;
#X obj 113 77 s mouseaction;
#X obj 189 30 bang;
#X obj 18 90 bang;
#N canvas 0 0 300 325 movemnt 0;
#X obj 84 66 r mousepos;
#X obj 29 17 r mouseaction;
#X obj 69 117 f;
#X obj 102 116 f;
#X obj 84 88 unpack;
#X obj 29 40 unpack f f f;
#X obj 29 87 bang;
#X obj 29 66 sel 1;
#X obj 30 233 spigot;
#X obj 112 188 pack;
#X obj 148 189 bang;
#X obj 34 283 s move;
#X obj 100 153 -;
#X obj 140 153 -;
#X connect 0 0 4 0;
#X connect 1 0 5 0;
#X connect 2 0 12 1;
#X connect 3 0 13 1;
#X connect 4 0 2 1;
#X connect 4 0 12 0;
#X connect 4 1 3 1;
#X connect 4 1 13 0;
#X connect 5 0 7 0;
#X connect 5 0 8 1;
#X connect 6 0 2 0;
#X connect 6 0 3 0;
#X connect 7 0 6 0;
#X connect 8 0 11 0;
#X connect 9 0 8 0;
#X connect 10 0 9 0;
#X connect 12 0 9 0;
#X connect 13 0 9 1;
#X connect 13 0 10 0;
#X restore 145 116 pd movemnt;
#X connect 0 0 1 0;
#X connect 0 1 2 0;
#X connect 0 2 6 0;
#X connect 0 3 6 1;
#X connect 0 3 8 0;
#X connect 0 4 6 2;
#X connect 0 4 8 0;
#X connect 1 0 4 0;
#X connect 2 0 3 0;
#X connect 3 0 4 1;
#X connect 3 0 9 0;
#X connect 4 0 5 0;
#X connect 6 0 7 0;
#X connect 8 0 6 0;
#X connect 9 0 4 0;
