#N canvas 139 153 485 716 10;
#X obj 34 443 f;
#X obj 66 443 f;
#X obj 66 488 s \$0-transY;
#X floatatom 168 440 5 0 0 0 - - -;
#X floatatom 193 461 5 0 0 0 - - -;
#X obj 240 283 spigot;
#N canvas 0 0 223 273 xfigure 0;
#X obj 59 157 moses;
#X obj 124 14 r \$0-scaleX;
#X obj 109 119 +;
#X obj 140 94 bang;
#X obj 104 86 bang;
#X obj 91 64 * -1;
#X obj 32 135 moses;
#X obj 76 107 +;
#X msg 59 181 1;
#X msg 32 208 0;
#X msg 86 208 0;
#X obj 59 244 outlet;
#X obj 32 110 inlet;
#X obj 48 13 r \$0-transX;
#X connect 0 0 8 0;
#X connect 0 1 10 0;
#X connect 1 0 2 1;
#X connect 1 0 3 0;
#X connect 1 0 5 0;
#X connect 2 0 0 1;
#X connect 3 0 2 0;
#X connect 4 0 7 0;
#X connect 5 0 4 0;
#X connect 5 0 7 1;
#X connect 6 0 9 0;
#X connect 6 1 0 0;
#X connect 7 0 6 1;
#X connect 8 0 11 0;
#X connect 9 0 11 0;
#X connect 10 0 11 0;
#X connect 12 0 6 0;
#X connect 13 0 2 0;
#X connect 13 0 7 0;
#X restore 294 208 pd xfigure;
#X obj 294 163 r mousepos;
#X obj 294 184 unpack f f;
#X obj 203 212 r mouseaction;
#N canvas 0 0 223 273 yfigure 0;
#X obj 59 157 moses;
#X obj 109 119 +;
#X obj 137 70 bang;
#X obj 20 86 bang;
#X obj 91 64 * -1;
#X obj 32 135 moses;
#X obj 76 107 +;
#X msg 59 181 1;
#X msg 32 208 0;
#X msg 86 208 0;
#X obj 59 244 outlet;
#X obj 32 110 inlet;
#X obj 124 14 r \$0-scaleY;
#X obj 121 157 pack f f;
#X obj 146 233 outlet;
#X obj 165 128 bang;
#X obj 47 13 r \$0-transY;
#X connect 0 0 7 0;
#X connect 0 1 9 0;
#X connect 1 0 0 1;
#X connect 1 0 13 1;
#X connect 1 0 15 0;
#X connect 2 0 1 0;
#X connect 3 0 6 0;
#X connect 4 0 3 0;
#X connect 4 0 6 1;
#X connect 5 0 8 0;
#X connect 5 1 0 0;
#X connect 6 0 5 1;
#X connect 6 0 13 0;
#X connect 7 0 10 0;
#X connect 8 0 10 0;
#X connect 9 0 10 0;
#X connect 11 0 5 0;
#X connect 12 0 1 1;
#X connect 12 0 2 0;
#X connect 12 0 4 0;
#X connect 13 0 14 0;
#X connect 15 0 13 0;
#X connect 16 0 1 0;
#X connect 16 0 6 0;
#X restore 344 240 pd yfigure;
#X obj 273 261 &;
#X obj 302 231 bang;
#X obj 121 236 r move;
#X obj 130 278 spigot;
#X obj 109 370 +;
#X obj 82 360 +;
#X obj 130 314 unpack;
#X obj 209 329 unpack f f f;
#X obj 209 356 sel 0;
#X obj 179 392 f;
#X obj 217 396 f;
#X floatatom 311 304 5 0 0 0 - - -;
#X floatatom 265 306 5 0 0 0 - - -;
#X floatatom 28 317 5 0 0 0 - - -;
#X floatatom 65 322 5 0 0 0 - - -;
#X obj 401 260 unpack;
#X floatatom 395 289 5 0 0 0 - - -;
#X floatatom 445 291 5 0 0 0 - - -;
#X obj 41 468 s \$0-transX;
#X obj 18 162 inlet Xtrans;
#X obj 43 182 inlet Ytrans;
#X obj 168 162 inlet Xscale;
#X obj 193 182 inlet Yscale;
#X obj 98 532 outlet Xtrans;
#X obj 123 552 outlet Ytrans;
#X obj 210 497 s \$0-scaleX;
#X obj 235 517 s \$0-scaleY;
#X obj 208 542 outlet Xscale;
#X obj 233 562 outlet Yscale;
#X connect 0 0 29 0;
#X connect 0 0 34 0;
#X connect 1 0 2 0;
#X connect 1 0 35 0;
#X connect 3 0 36 0;
#X connect 3 0 38 0;
#X connect 4 0 37 0;
#X connect 4 0 39 0;
#X connect 5 0 18 0;
#X connect 6 0 11 0;
#X connect 6 0 22 0;
#X connect 7 0 8 0;
#X connect 8 0 6 0;
#X connect 8 1 10 0;
#X connect 9 0 5 0;
#X connect 10 0 11 1;
#X connect 10 0 12 0;
#X connect 10 1 26 0;
#X connect 11 0 5 1;
#X connect 11 0 14 1;
#X connect 11 0 23 0;
#X connect 12 0 11 0;
#X connect 13 0 14 0;
#X connect 14 0 17 0;
#X connect 15 0 1 0;
#X connect 15 0 21 1;
#X connect 16 0 0 0;
#X connect 16 0 20 1;
#X connect 17 0 16 0;
#X connect 17 1 15 0;
#X connect 18 0 19 0;
#X connect 19 0 20 0;
#X connect 19 0 21 0;
#X connect 20 0 16 1;
#X connect 21 0 15 1;
#X connect 24 0 0 0;
#X connect 25 0 1 0;
#X connect 26 0 27 0;
#X connect 26 1 28 0;
#X connect 30 0 24 0;
#X connect 31 0 25 0;
#X connect 32 0 3 0;
#X connect 33 0 4 0;
