#N canvas 100 165 518 368 10;
#N canvas 420 420 502 352 littleguys 0;
#X obj 174 105 pol2car;
#X obj 203 52 bang;
#X obj 171 21 inlet;
#X obj 239 177 pack;
#X obj 190 230 outlet;
#X obj 294 94 r \$0-ctlpos;
#X obj 278 33 r \$0-ctlsiz;
#X obj 175 146 + 7.45;
#X obj 223 143 + 7.45;
#X obj 207 80 f 1.08;
#X connect 0 0 7 0;
#X connect 0 1 8 0;
#X connect 1 0 9 0;
#X connect 2 0 0 0;
#X connect 2 0 1 0;
#X connect 3 0 4 0;
#X connect 5 0 7 1;
#X connect 5 0 8 1;
#X connect 6 0 9 1;
#X connect 7 0 3 0;
#X connect 8 0 3 1;
#X connect 9 0 0 1;
#X restore 148 83 pd littleguys;
#N canvas 0 22 494 344 littleguys 0;
#X obj 174 105 pol2car;
#X obj 203 52 bang;
#X obj 171 21 inlet;
#X obj 239 177 pack;
#X obj 190 230 outlet;
#X obj 297 110 r \$0-ctlpos;
#X obj 278 33 r \$0-ctlsiz;
#X obj 256 64 * 2;
#X obj 175 146 + 7.45;
#X obj 223 143 + 7.45;
#X obj 207 80 f 2.16;
#X connect 0 0 8 0;
#X connect 0 1 9 0;
#X connect 1 0 10 0;
#X connect 2 0 0 0;
#X connect 2 0 1 0;
#X connect 3 0 4 0;
#X connect 5 0 8 1;
#X connect 5 0 9 1;
#X connect 6 0 7 0;
#X connect 7 0 10 1;
#X connect 8 0 3 0;
#X connect 9 0 3 1;
#X connect 10 0 0 1;
#X restore 163 106 pd littleguys;
#N canvas 493 369 498 348 littleguys 0;
#X obj 174 105 pol2car;
#X obj 203 52 bang;
#X obj 171 21 inlet;
#X obj 239 177 pack;
#X obj 190 230 outlet;
#X obj 294 94 r \$0-ctlpos;
#X obj 278 33 r \$0-ctlsiz;
#X obj 264 64 * 3;
#X obj 176 146 + 7.45;
#X obj 223 143 + 7.45;
#X obj 207 80 f 3.24;
#X connect 0 0 8 0;
#X connect 0 1 9 0;
#X connect 1 0 10 0;
#X connect 2 0 0 0;
#X connect 2 0 1 0;
#X connect 3 0 4 0;
#X connect 5 0 8 1;
#X connect 5 0 9 1;
#X connect 6 0 7 0;
#X connect 7 0 10 1;
#X connect 8 0 3 0;
#X connect 9 0 3 1;
#X connect 10 0 0 1;
#X restore 181 129 pd littleguys;
#N canvas 403 287 478 328 littleguys 0;
#X obj 174 105 pol2car;
#X obj 203 52 bang;
#X obj 171 21 inlet;
#X obj 239 177 pack;
#X obj 190 230 outlet;
#X obj 315 107 r \$0-ctlpos;
#X obj 278 33 r \$0-ctlsiz;
#X obj 270 84 * 4;
#X obj 175 146 + 7.45;
#X obj 223 143 + 7.45;
#X obj 207 80 f 4.4;
#X connect 0 0 8 0;
#X connect 0 1 9 0;
#X connect 1 0 10 0;
#X connect 2 0 0 0;
#X connect 2 0 1 0;
#X connect 3 0 4 0;
#X connect 5 0 8 1;
#X connect 5 0 9 1;
#X connect 6 0 7 0;
#X connect 7 0 10 1;
#X connect 8 0 3 0;
#X connect 9 0 3 1;
#X connect 10 0 0 1;
#X restore 198 156 pd littleguys;
#X msg 12 194 0 0;
#X msg 66 200 12 12;
#X obj 65 184 del 250;
#X obj 244 201 s \$0-fif1;
#X obj 254 225 s \$0-fif2;
#X obj 254 251 s \$0-fif3;
#X obj 264 275 s \$0-fif4;
#X msg 85 124 pos \$1 \$2;
#X msg 104 146 pos \$1 \$2;
#X msg 132 174 pos \$1 \$2;
#X msg 152 202 pos \$1 \$2;
#X msg 10 220 color \$1 \$2;
#X msg 22 244 color \$1 \$2;
#X obj 209 -26 inlet;
#X floatatom -30 0 10 0 360 0 - - -;
#X obj -32 88 value \$0-card;
#X obj 0 0 bng 15 250 50 0 empty empty empty 17 7 0 10 -262144 -1 -1
;
#X obj 7 6 cnv 2 2 2 empty \$0-fif1 empty 20 12 0 14 -33289 -33289
0;
#X obj 6 5 cnv 2 2 2 empty \$0-fif2 empty 20 12 0 14 -33289 -33289
0;
#X obj 6 4 cnv 2 2 2 empty \$0-fif3 empty 20 12 0 14 -33289 -33289
0;
#X obj 6 3 cnv 2 2 2 empty \$0-fif4 empty 20 12 0 14 -33289 -33289
0;
#X obj -42 170 outlet;
#X obj 300 57 s \$0-ctlpos;
#X floatatom 298 37 5 0 0 0 - - -;
#X obj 310 -9 s \$0-ctlsiz;
#X floatatom 308 -29 5 0 0 0 - - -;
#X floatatom 105 76 5 0 0 0 - - -;
#X obj 185 57 * 0.0174603;
#X obj 148 22 % 360;
#X obj -19 44 % 360;
#X obj 140 -22 del 5;
#X obj 165 1 f 0;
#X connect 0 0 11 0;
#X connect 1 0 12 0;
#X connect 2 0 13 0;
#X connect 3 0 14 0;
#X connect 4 0 15 0;
#X connect 4 0 16 0;
#X connect 5 0 15 0;
#X connect 5 0 16 0;
#X connect 6 0 5 0;
#X connect 11 0 7 0;
#X connect 12 0 8 0;
#X connect 13 0 9 0;
#X connect 14 0 10 0;
#X connect 15 0 7 0;
#X connect 15 0 8 0;
#X connect 15 0 9 0;
#X connect 15 0 10 0;
#X connect 16 0 7 0;
#X connect 16 0 8 0;
#X connect 16 0 9 0;
#X connect 16 0 10 0;
#X connect 17 0 34 0;
#X connect 17 0 35 0;
#X connect 18 0 19 0;
#X connect 18 0 31 0;
#X connect 18 0 33 0;
#X connect 20 0 6 0;
#X connect 20 0 4 0;
#X connect 27 0 26 0;
#X connect 29 0 28 0;
#X connect 31 0 0 0;
#X connect 31 0 1 0;
#X connect 31 0 2 0;
#X connect 31 0 3 0;
#X connect 31 0 30 0;
#X connect 32 0 19 0;
#X connect 32 0 25 0;
#X connect 32 0 31 0;
#X connect 33 0 25 0;
#X connect 34 0 35 0;
#X connect 35 0 32 0;
#X coords 0 -1 1 1 15 15 2 0 0;
