#N canvas 309 219 712 300 10;
#X obj 65 241 makenote;
#X obj 182 225 noteout;
#X msg 185 193 \$1 100 1;
#N canvas 153 34 478 330 CTl2Mid 0;
#X obj 107 5 inlet;
#X obj 102 129 sel 1 0;
#X obj 132 109 sel 1 0;
#X obj 192 129 sel 1 0;
#X obj 232 109 sel 1 0;
#X obj 282 129 sel 1 0;
#X obj 302 99 sel 1 0;
#X obj 215 284 outlet;
#X obj 40 106 print;
#X obj 107 37 route key;
#X msg 124 233 1 1;
#X msg 155 180 1 0;
#X msg 154 253 2 1;
#X msg 185 200 2 0;
#X msg 194 233 3 1;
#X msg 225 180 3 0;
#X msg 266 200 4 0;
#X msg 234 253 4 1;
#X msg 274 223 5 1;
#X msg 305 170 5 0;
#X msg 344 190 6 0;
#X msg 314 243 6 1;
#X obj 98 68 route btn_0 btn_1 btn_2 btn_3 btn_5 btn_7 btn_4 btn_6
;
#X obj 372 101 sel 1 0;
#X msg 371 228 7 1;
#X msg 380 182 7 0;
#X obj 412 121 sel 1 0;
#X msg 411 248 8 1;
#X msg 420 202 8 0;
#X connect 0 0 9 0;
#X connect 1 0 10 0;
#X connect 1 1 11 0;
#X connect 2 0 12 0;
#X connect 2 1 13 0;
#X connect 3 0 14 0;
#X connect 3 1 15 0;
#X connect 4 0 17 0;
#X connect 4 1 16 0;
#X connect 5 0 18 0;
#X connect 5 1 19 0;
#X connect 6 0 21 0;
#X connect 6 1 20 0;
#X connect 9 0 22 0;
#X connect 10 0 7 0;
#X connect 11 0 7 0;
#X connect 12 0 7 0;
#X connect 13 0 7 0;
#X connect 14 0 7 0;
#X connect 15 0 7 0;
#X connect 16 0 7 0;
#X connect 17 0 7 0;
#X connect 18 0 7 0;
#X connect 19 0 7 0;
#X connect 20 0 7 0;
#X connect 21 0 7 0;
#X connect 22 0 1 0;
#X connect 22 1 2 0;
#X connect 22 2 3 0;
#X connect 22 3 4 0;
#X connect 22 4 5 0;
#X connect 22 5 6 0;
#X connect 22 6 23 0;
#X connect 22 7 26 0;
#X connect 23 0 24 0;
#X connect 23 1 25 0;
#X connect 24 0 7 0;
#X connect 25 0 7 0;
#X connect 26 0 27 0;
#X connect 26 1 28 0;
#X connect 27 0 7 0;
#X connect 28 0 7 0;
#X restore 168 81 pd CTl2Mid;
#X obj 136 115 unpack;
#X obj 213 4 oldcontroller;
#X obj 208 165 scalecollector;
#X obj 352 75 scaleloader;
#X obj 150 150 spigot;
#X connect 2 0 1 0;
#X connect 3 0 4 0;
#X connect 4 0 8 0;
#X connect 4 1 8 1;
#X connect 5 0 3 0;
#X connect 6 0 2 0;
#X connect 7 0 6 1;
#X connect 7 1 6 2;
#X connect 8 0 6 0;
