#N canvas 144 43 844 598 10;
#N canvas 277 86 502 488 synth 0;
#X obj 102 165 envelope;
#X obj 102 102 waveshape;
#X obj 112 -2 inlet;
#X obj 242 27 inlet;
#X obj 139 353 outlet~;
#X obj 170 285 *~;
#X obj 247 126 sel 0;
#X msg 241 174 1;
#X msg 258 164 0;
#X obj 296 180 * 0.00787402;
#X obj 110 43 unpack;
#X obj 121 19 route list;
#X obj 169 60 pipe 5;
#X connect 0 0 5 0;
#X connect 1 0 0 0;
#X connect 2 0 11 0;
#X connect 3 0 0 1;
#X connect 5 0 4 0;
#X connect 6 0 8 0;
#X connect 6 1 7 0;
#X connect 6 1 9 0;
#X connect 7 0 0 1;
#X connect 8 0 0 1;
#X connect 9 0 5 1;
#X connect 10 0 1 0;
#X connect 10 1 12 0;
#X connect 11 0 10 0;
#X connect 11 1 1 0;
#X connect 12 0 6 0;
#X coords 0 -1 1 1 121 145 1 100 100;
#X restore 43 239 pd synth one;
#N canvas 5 47 456 380 synth 0;
#X obj 102 165 envelope;
#X obj 102 102 waveshape;
#X obj 129 8 inlet;
#X obj 211 39 inlet;
#X obj 131 297 outlet~;
#X obj 169 255 *~;
#X obj 246 96 sel 0;
#X msg 240 144 1;
#X msg 257 134 0;
#X obj 295 150 * 0.00787402;
#X obj 114 51 unpack;
#X obj 132 28 route list;
#X obj 171 71 pipe 5;
#X connect 0 0 5 0;
#X connect 1 0 0 0;
#X connect 2 0 11 0;
#X connect 3 0 0 1;
#X connect 5 0 4 0;
#X connect 6 0 8 0;
#X connect 6 1 7 0;
#X connect 6 1 9 0;
#X connect 7 0 0 1;
#X connect 8 0 0 1;
#X connect 9 0 5 1;
#X connect 10 0 1 0;
#X connect 10 1 12 0;
#X connect 11 0 10 0;
#X connect 11 1 1 0;
#X connect 12 0 6 0;
#X coords 0 -1 1 1 121 145 1 100 100;
#X restore 179 236 pd synth one;
#N canvas 10 68 450 300 synth 0;
#X obj 102 165 envelope;
#X obj 102 102 waveshape;
#X obj 90 8 inlet;
#X obj 216 50 inlet;
#X obj 159 294 outlet~;
#X obj 161 265 *~;
#X obj 238 106 sel 0;
#X msg 232 154 1;
#X msg 249 144 0;
#X obj 287 160 * 0.00787402;
#X obj 110 53 unpack;
#X obj 118 31 route list;
#X obj 169 71 pipe 5;
#X connect 0 0 5 0;
#X connect 1 0 0 0;
#X connect 2 0 11 0;
#X connect 3 0 0 1;
#X connect 5 0 4 0;
#X connect 6 0 8 0;
#X connect 6 1 7 0;
#X connect 6 1 9 0;
#X connect 7 0 0 1;
#X connect 8 0 0 1;
#X connect 9 0 5 1;
#X connect 10 0 1 0;
#X connect 10 1 12 0;
#X connect 11 0 10 0;
#X connect 11 1 1 0;
#X connect 12 0 6 0;
#X coords 0 -1 1 1 121 145 1 100 100;
#X restore 302 236 pd synth one;
#N canvas 15 89 450 300 synth 0;
#X obj 102 165 envelope;
#X obj 102 102 waveshape;
#X obj 107 4 inlet;
#X obj 211 39 inlet;
#X obj 138 289 outlet~;
#X obj 153 255 *~;
#X obj 230 96 sel 0;
#X msg 224 144 1;
#X msg 241 134 0;
#X obj 279 150 * 0.00787402;
#X obj 110 43 unpack;
#X obj 115 23 route list;
#X obj 169 61 pipe 5;
#X connect 0 0 5 0;
#X connect 1 0 0 0;
#X connect 2 0 11 0;
#X connect 3 0 0 1;
#X connect 5 0 4 0;
#X connect 6 0 8 0;
#X connect 6 1 7 0;
#X connect 6 1 9 0;
#X connect 7 0 0 1;
#X connect 8 0 0 1;
#X connect 9 0 5 1;
#X connect 10 0 1 0;
#X connect 10 1 12 0;
#X connect 11 0 10 0;
#X connect 11 1 1 0;
#X connect 12 0 6 0;
#X coords 0 -1 1 1 121 145 1 100 100;
#X restore 425 236 pd synth one;
#N canvas 5 47 450 300 synth 0;
#X obj 102 165 envelope;
#X obj 102 102 waveshape;
#X obj 111 -3 inlet;
#X obj 211 19 inlet;
#X obj 160 276 outlet~;
#X obj 170 256 *~;
#X obj 247 97 sel 0;
#X msg 241 145 1;
#X msg 258 135 0;
#X obj 296 151 * 0.00787402;
#X obj 110 43 unpack;
#X obj 117 21 route list;
#X obj 145 67 pipe 5;
#X connect 0 0 5 0;
#X connect 1 0 0 0;
#X connect 2 0 11 0;
#X connect 3 0 0 1;
#X connect 5 0 4 0;
#X connect 6 0 8 0;
#X connect 6 1 7 0;
#X connect 6 1 9 0;
#X connect 7 0 0 1;
#X connect 8 0 0 1;
#X connect 9 0 5 1;
#X connect 10 0 1 0;
#X connect 10 1 12 0;
#X connect 11 0 10 0;
#X connect 11 1 1 0;
#X connect 12 0 6 0;
#X coords 0 -1 1 1 121 145 1 100 100;
#X restore 548 236 pd synth one;
#N canvas 5 47 450 300 synth 0;
#X obj 102 165 envelope;
#X obj 102 102 waveshape;
#X obj 211 39 inlet;
#X obj 147 281 outlet~;
#X obj 159 256 *~;
#X obj 236 97 sel 0;
#X msg 230 145 1;
#X msg 247 135 0;
#X obj 285 151 * 0.00787402;
#X obj 101 9 inlet;
#X obj 110 53 unpack;
#X obj 115 32 route list;
#X obj 169 74 pipe 5;
#X connect 0 0 4 0;
#X connect 1 0 0 0;
#X connect 2 0 0 1;
#X connect 4 0 3 0;
#X connect 5 0 7 0;
#X connect 5 1 6 0;
#X connect 5 1 8 0;
#X connect 6 0 0 1;
#X connect 7 0 0 1;
#X connect 8 0 4 1;
#X connect 9 0 11 0;
#X connect 10 0 1 0;
#X connect 10 1 12 0;
#X connect 11 0 10 0;
#X connect 11 1 1 0;
#X connect 12 0 5 0;
#X coords 0 -1 1 1 121 145 1 100 100;
#X restore 671 236 pd synth one;
#X obj 543 165 t a a a a a a;
#X obj 79 -46 notein;
#X obj 55 126 poly 6;
#X obj 58 148 pack f f f;
#X obj 39 98 mtof;
#X obj 151 182 route 1 2 3 4 5 6;
#X obj 256 418 +~ 0;
#X obj 237 449 dac~;
#X obj 136 52 countto 6;
#X msg 135 13 6;
#X obj 136 32 until;
#X floatatom 202 68 5 0 0 0 - - -;
#X msg 136 127 \$1 shape \$2;
#X obj 144 105 pack;
#X obj 100 118 bang;
#X obj 145 80 + 1;
#N canvas 19 38 816 562 masterenvelope 0;
#X obj 344 72 hsl 56 10 40 4000 1 0 empty empty attack -2 -4 0 10 -262144
-1 -1 600 1;
#X obj 344 91 hsl 56 10 20 2000 1 0 empty empty decay -2 -4 0 10 -262144
-1 -1 800 1;
#X obj 344 111 hsl 56 10 0.01 1 1 0 empty empty sustain -2 -4 0 10
-262144 -1 -1 5100 1;
#X obj 344 130 hsl 56 10 20 2000 1 0 empty empty release -2 -4 0 10
-262144 -1 -1 3200 1;
#X obj 227 165 pack;
#X obj 222 141 bang;
#X msg 195 215 0.715394 39.0786;
#X msg 214 189 set \$1 \$2;
#X msg 205 71 set 1 \$1;
#X msg 170 110 1 66.1061;
#X obj 167 149 del 50;
#X obj 138 81 t b b;
#X msg 119 116 stop;
#X obj 164 38 sel 1 0;
#X obj 164 -6 inlet;
#X obj 325 483 snapshot~;
#X floatatom 325 506 5 0 0 0 - - -;
#X obj 337 461 metro 100;
#X obj 339 442 tgl 15 0 empty empty empty 17 7 0 10 -262144 -1 -1 0
1;
#X msg 225 267 0 291.519;
#X msg 275 244 set 0 \$1;
#X obj 292 104 vradio 11 1 0 3 \$0-BigO \$0-2BigO empty 0 -8 0 10 -262144
-1 -1 1;
#X msg 260 323 1 0 0;
#X msg 281 340 0 1 0;
#X msg 319 360 0 0 1;
#X obj 259 296 sel 0 1 2;
#X obj 261 390 unpack f f f;
#X obj 314 79 tgl 12 0 empty empty empty 17 7 0 10 -262144 -1 -1 0
1;
#X text 289 68 ADSR;
#X text 305 127 v;
#X text 307 126 /;
#X text 313 116 _;
#X text 308 126 /;
#X text 313 127 t;
#X text 307 114 t;
#X text 311 102 t;
#X obj 294 106 cnv 1 1 1 empty empty 2 20 12 1 6 -233017 -66577 0;
#X text 292 77 jen;
#X text 296 86 rater;
#N canvas 106 124 889 552 save 0;
#X obj 477 312 tabread \$0-saveparam;
#X obj 559 214 unpack f f;
#X msg 532 130 \$1 0;
#X msg 562 140 \$1 1;
#X msg 602 150 \$1 2;
#X obj 439 326 int;
#X obj 413 304 bang;
#X obj 454 349 pack;
#X obj 291 44 openpanel;
#X obj 477 267 until;
#X obj 24 18 inlet;
#X obj 291 18 inlet;
#X obj 64 199 tabread \$0-saveparam;
#X obj 62 151 until;
#X obj 76 301 textfile;
#X obj 541 236 tabwrite \$0-saveparam;
#X msg 66 225 add \$1;
#X obj 20 110 savepanel;
#X msg 15 216 write \$1;
#X msg 19 294 clear;
#X obj 19 270 pipe 30;
#X obj 24 86 t b b;
#X obj 18 243 bang;
#X obj 306 158 textfile;
#X msg 296 103 read \$1;
#X msg 313 129 rewind;
#X obj 296 255 pack;
#X obj 233 140 until;
#X obj 224 87 bang;
#X msg 225 115 5;
#X msg 62 131 5;
#X obj 63 168 countto 5;
#X obj 251 210 countto 5;
#X obj 478 287 countto 5;
#X msg 477 247 5;
#X obj 528 346 table \$0-saveparam 5;
#X msg 652 170 \$1 3;
#X msg 702 200 \$1 4;
#X obj 452 375 route 0 1 2 3 4;
#X obj 541 70 r \$0-Attack;
#X obj 573 94 r \$0-Decay;
#X obj 589 119 r \$0-Sustain;
#X obj 639 139 r \$0-Release;
#X obj 689 169 r \$0-Shape;
#X obj 445 503 s \$0-2Attack;
#X obj 488 483 s \$0-2Decay;
#X obj 501 462 s \$0-2Sustain;
#X obj 518 443 s \$0-2Release;
#X obj 530 422 s \$0-2Shape;
#X obj 317 74 r \$0-load;
#X connect 0 0 7 1;
#X connect 0 0 6 0;
#X connect 1 0 15 0;
#X connect 1 1 15 1;
#X connect 2 0 1 0;
#X connect 3 0 1 0;
#X connect 4 0 1 0;
#X connect 5 0 7 0;
#X connect 6 0 5 0;
#X connect 7 0 38 0;
#X connect 8 0 24 0;
#X connect 9 0 33 0;
#X connect 10 0 21 0;
#X connect 11 0 8 0;
#X connect 12 0 16 0;
#X connect 13 0 31 0;
#X connect 16 0 14 0;
#X connect 17 0 18 0;
#X connect 18 0 14 0;
#X connect 18 0 22 0;
#X connect 19 0 14 0;
#X connect 20 0 19 0;
#X connect 21 0 17 0;
#X connect 21 1 30 0;
#X connect 22 0 20 0;
#X connect 23 0 26 1;
#X connect 23 0 32 0;
#X connect 24 0 23 0;
#X connect 24 0 25 0;
#X connect 25 0 23 0;
#X connect 25 0 28 0;
#X connect 26 0 38 0;
#X connect 27 0 23 0;
#X connect 28 0 29 0;
#X connect 29 0 27 0;
#X connect 30 0 13 0;
#X connect 31 0 12 0;
#X connect 32 0 26 0;
#X connect 33 0 0 0;
#X connect 33 0 5 1;
#X connect 34 0 9 0;
#X connect 36 0 1 0;
#X connect 37 0 1 0;
#X connect 38 0 44 0;
#X connect 38 1 45 0;
#X connect 38 2 46 0;
#X connect 38 3 47 0;
#X connect 38 4 48 0;
#X connect 39 0 2 0;
#X connect 40 0 3 0;
#X connect 41 0 4 0;
#X connect 42 0 36 0;
#X connect 43 0 37 0;
#X connect 49 0 24 0;
#X restore 565 387 pd save;
#X obj 325 106 bng 12 250 50 0 empty empty save 0 8 0 6 -262144 -258113
-258113;
#X obj 325 121 bng 12 250 50 0 empty empty open 0 8 0 6 -262144 -4160
-4160;
#X obj 437 113 r \$0-2Attack;
#X obj 480 93 r \$0-2Decay;
#X obj 493 72 r \$0-2Sustain;
#X obj 510 53 r \$0-2Release;
#X obj 521 32 r \$0-2Shape;
#X obj 348 316 s \$0-Attack;
#X obj 380 340 s \$0-Decay;
#X obj 396 365 s \$0-Sustain;
#X obj 446 385 s \$0-Release;
#X obj 475 416 s \$0-Shape;
#X obj 596 162 route load;
#X obj 596 184 s \$0-load;
#X obj 515 199 s \$0-2BigO;
#X obj 272 -10 route attack decay sustain release;
#X obj 532 137 route Shape;
#X msg 634 236 attack \$1;
#X msg 600 256 decay \$1;
#X floatatom 634 222 5 0 0 0 - - -;
#X floatatom 600 242 5 0 0 0 - - -;
#X floatatom 529 282 5 0 0 0 - - -;
#X floatatom 564 262 5 0 1 0 - - -;
#X msg 564 276 sustain \$1;
#X msg 529 296 release \$1;
#X msg 725 242 0;
#X msg 721 271 Shape \$1;
#X floatatom 779 236 5 0 2 0 - - -;
#X obj 685 380 outlet;
#X connect 0 0 8 0;
#X connect 0 0 10 1;
#X connect 0 0 47 0;
#X connect 0 0 59 0;
#X connect 1 0 4 1;
#X connect 1 0 5 0;
#X connect 1 0 48 0;
#X connect 1 0 60 0;
#X connect 2 0 4 0;
#X connect 2 0 49 0;
#X connect 2 0 62 0;
#X connect 3 0 20 0;
#X connect 3 0 50 0;
#X connect 3 0 61 0;
#X connect 4 0 7 0;
#X connect 5 0 4 0;
#X connect 7 0 6 0;
#X connect 8 0 9 0;
#X connect 10 0 6 0;
#X connect 11 0 10 0;
#X connect 11 1 9 0;
#X connect 12 0 10 0;
#X connect 13 0 11 0;
#X connect 13 1 19 0;
#X connect 13 1 12 0;
#X connect 14 0 56 0;
#X connect 15 0 16 0;
#X connect 17 0 15 0;
#X connect 18 0 17 0;
#X connect 20 0 19 0;
#X connect 21 0 25 0;
#X connect 21 0 51 0;
#X connect 21 0 67 0;
#X connect 22 0 26 0;
#X connect 23 0 26 0;
#X connect 24 0 26 0;
#X connect 25 0 22 0;
#X connect 25 1 23 0;
#X connect 25 2 24 0;
#X connect 27 0 13 0;
#X connect 40 0 39 0;
#X connect 41 0 39 1;
#X connect 42 0 0 0;
#X connect 43 0 1 0;
#X connect 44 0 2 0;
#X connect 45 0 3 0;
#X connect 46 0 21 0;
#X connect 52 0 53 0;
#X connect 52 1 55 0;
#X connect 55 0 0 0;
#X connect 55 1 1 0;
#X connect 55 2 2 0;
#X connect 55 3 3 0;
#X connect 55 4 27 0;
#X connect 55 4 13 0;
#X connect 56 0 54 0;
#X connect 56 1 52 0;
#X connect 57 0 68 0;
#X connect 58 0 68 0;
#X connect 59 0 57 0;
#X connect 60 0 58 0;
#X connect 61 0 64 0;
#X connect 62 0 63 0;
#X connect 63 0 68 0;
#X connect 64 0 68 0;
#X connect 66 0 68 0;
#X connect 67 0 66 0;
#X coords 0 -1 1 1 117 78 1 290 64;
#X restore 542 82 pd masterenvelope;
#X text 213 8 sin;
#X text 213 19 squ;
#X text 213 31 tri;
#X text 213 42 saw;
#X text 213 52 pul;
#X obj 202 11 vradio 11 1 0 5 \$0-wavpreset \$0-2wavpreset empty 0
-6 0 8 -262144 -1 -1 0;
#X obj 734 97 ctlin;
#X obj 733 134 pack f f f;
#X obj 740 164 print ctl;
#X obj 34 46 noteout;
#X obj 43 18 pack f f f;
#X obj 73 -17 moses 50;
#X obj 240 86 Axiom25ctl;
#X obj 249 130 Axiom25ctl2;
#X obj 416 432 osc~ 440;
#X connect 0 0 12 0;
#X connect 1 0 12 0;
#X connect 2 0 12 0;
#X connect 3 0 12 0;
#X connect 4 0 12 0;
#X connect 5 0 12 0;
#X connect 6 0 0 1;
#X connect 6 1 1 1;
#X connect 6 2 2 1;
#X connect 6 3 3 1;
#X connect 6 4 4 1;
#X connect 6 5 5 1;
#X connect 7 0 34 0;
#X connect 7 1 8 1;
#X connect 7 1 33 1;
#X connect 7 2 33 2;
#X connect 8 0 9 0;
#X connect 8 1 9 1;
#X connect 8 2 9 2;
#X connect 9 0 11 0;
#X connect 10 0 8 0;
#X connect 11 0 0 0;
#X connect 11 1 1 0;
#X connect 11 2 2 0;
#X connect 11 3 3 0;
#X connect 11 4 4 0;
#X connect 11 5 5 0;
#X connect 12 0 13 0;
#X connect 12 0 13 1;
#X connect 14 0 21 0;
#X connect 15 0 16 0;
#X connect 16 0 14 0;
#X connect 17 0 19 1;
#X connect 17 0 20 0;
#X connect 18 0 11 0;
#X connect 19 0 18 0;
#X connect 20 0 15 0;
#X connect 21 0 19 0;
#X connect 22 0 6 0;
#X connect 28 0 17 0;
#X connect 29 0 30 0;
#X connect 29 1 30 1;
#X connect 29 2 30 2;
#X connect 30 0 31 0;
#X connect 33 0 32 0;
#X connect 34 0 33 0;
#X connect 34 1 10 0;
