#N canvas 276 55 698 619 10;
#X obj 179 592 dac~;
#N canvas 153 34 478 330 CTl2Mid 0;
#X obj 107 5 inlet;
#X obj 102 129 sel 1 0;
#X obj 132 109 sel 1 0;
#X obj 192 129 sel 1 0;
#X obj 232 109 sel 1 0;
#X obj 282 129 sel 1 0;
#X obj 302 99 sel 1 0;
#X obj 215 284 outlet;
#X obj 40 106 print;
#X obj 107 37 route key;
#X msg 124 233 1 1;
#X msg 155 180 1 0;
#X msg 154 253 2 1;
#X msg 185 200 2 0;
#X msg 194 233 3 1;
#X msg 225 180 3 0;
#X msg 266 200 4 0;
#X msg 234 253 4 1;
#X msg 274 223 5 1;
#X msg 305 170 5 0;
#X msg 344 190 6 0;
#X msg 314 243 6 1;
#X obj 98 68 route btn_0 btn_1 btn_2 btn_3 btn_5 btn_7 btn_4 btn_6
;
#X obj 372 101 sel 1 0;
#X msg 371 228 7 1;
#X msg 380 182 7 0;
#X obj 412 121 sel 1 0;
#X msg 411 248 8 1;
#X msg 420 202 8 0;
#X connect 0 0 9 0;
#X connect 1 0 10 0;
#X connect 1 1 11 0;
#X connect 2 0 12 0;
#X connect 2 1 13 0;
#X connect 3 0 14 0;
#X connect 3 1 15 0;
#X connect 4 0 17 0;
#X connect 4 1 16 0;
#X connect 5 0 18 0;
#X connect 5 1 19 0;
#X connect 6 0 21 0;
#X connect 6 1 20 0;
#X connect 9 0 22 0;
#X connect 10 0 7 0;
#X connect 11 0 7 0;
#X connect 12 0 7 0;
#X connect 13 0 7 0;
#X connect 14 0 7 0;
#X connect 15 0 7 0;
#X connect 16 0 7 0;
#X connect 17 0 7 0;
#X connect 18 0 7 0;
#X connect 19 0 7 0;
#X connect 20 0 7 0;
#X connect 21 0 7 0;
#X connect 22 0 1 0;
#X connect 22 1 2 0;
#X connect 22 2 3 0;
#X connect 22 3 4 0;
#X connect 22 4 5 0;
#X connect 22 5 6 0;
#X connect 22 6 23 0;
#X connect 22 7 26 0;
#X connect 23 0 24 0;
#X connect 23 1 25 0;
#X connect 24 0 7 0;
#X connect 25 0 7 0;
#X connect 26 0 27 0;
#X connect 26 1 28 0;
#X connect 27 0 7 0;
#X connect 28 0 7 0;
#X restore 512 98 pd CTl2Mid;
#X obj 502 226 mtof;
#X obj 399 325 tgl 15 0 empty empty empty 17 7 0 10 -262144 -1 -1 0
1;
#X obj 460 456 *~ 1.6;
#X obj 497 121 unpack;
#X obj 589 9 oldcontroller;
#N canvas 278 238 498 348 bender 0;
#X obj 16 31 route key rel abs syn;
#X obj 191 0 route abs_hat0x abs_hat0y;
#X obj 14 60 route abs_y abs_x abs_z abs_rz;
#X obj 16 9 inlet;
#X obj 17 197 outlet;
#X obj 14 98 int;
#X obj 14 129 + -127;
#X floatatom 102 233 5 0 0 0 - - -;
#X obj 261 47 inlet;
#X obj 117 170 * 1;
#X obj 22 155 * -0.007874;
#X text 270 61 pitchbend;
#X text 276 70 (midi);
#X connect 0 2 1 0;
#X connect 0 2 2 0;
#X connect 2 0 5 0;
#X connect 3 0 0 0;
#X connect 5 0 6 0;
#X connect 6 0 10 0;
#X connect 8 0 9 1;
#X connect 9 0 4 0;
#X connect 9 0 7 0;
#X connect 10 0 9 0;
#X restore 605 128 pd bender;
#X floatatom 626 100 5 0 0 0 - - -;
#X obj 667 183 scalecollector;
#X obj 501 196 pack;
#X obj 550 166 bang;
#X obj 412 367 lim;
#X obj 604 393 envelope;
#X obj 460 323 envelope;
#X obj 456 252 waveshape;
#N canvas 10 86 651 531 keyshift 0;
#X obj 100 63 route abs;
#X obj 100 84 route abs_hat0x abs_hat0y;
#X obj 100 34 inlet;
#X obj 100 121 sel -1 1;
#X obj 185 119 sel -1 1;
#X obj 125 175 bng 15 250 50 0 empty empty empty 17 7 0 10 -262144
-1 -1;
#X obj 155 175 bng 15 250 50 0 empty empty empty 17 7 0 10 -262144
-1 -1;
#X obj 140 190 bng 15 250 50 0 empty empty empty 17 7 0 10 -262144
-1 -1;
#X obj 140 160 bng 15 250 50 0 empty empty empty 17 7 0 10 -262144
-1 -1;
#X obj 104 248 int;
#X obj 174 255 int;
#X obj 144 219 int;
#X obj 136 308 int;
#X obj 299 277 int;
#X obj 299 325 outlet;
#X obj 425 34 inlet;
#X obj 96 275 + -1;
#X obj 166 282 + 1;
#X obj 136 246 + 0;
#X obj 128 335 + -0;
#X connect 0 0 1 0;
#X connect 1 0 3 0;
#X connect 1 1 4 0;
#X connect 2 0 0 0;
#X connect 3 0 5 0;
#X connect 3 1 6 0;
#X connect 4 0 7 0;
#X connect 4 1 8 0;
#X connect 5 0 9 0;
#X connect 6 0 10 0;
#X connect 7 0 12 0;
#X connect 8 0 11 0;
#X connect 9 0 16 0;
#X connect 10 0 17 0;
#X connect 11 0 18 0;
#X connect 12 0 19 0;
#X connect 13 0 10 1;
#X connect 13 0 12 1;
#X connect 13 0 11 1;
#X connect 13 0 9 1;
#X connect 13 0 14 0;
#X connect 15 0 13 0;
#X connect 16 0 13 0;
#X connect 17 0 13 0;
#X connect 18 0 13 0;
#X connect 19 0 13 0;
#X restore 484 52 pd keyshift;
#X floatatom 555 23 5 0 0 0 - - -;
#X msg 648 154 1;
#N canvas 235 323 567 368 delta 0;
#X obj 100 28 inlet~;
#X obj 150 132 dbtorms;
#X obj 117 131 -;
#X obj 97 99 float;
#X obj 151 193 *;
#X obj 180 158 + 1;
#X obj 117 275 outlet;
#X obj 111 250 pack 0 0;
#X obj 112 226 spigot;
#X text -36 134 this is the side;
#X text -47 148 where the derivation;
#X text -5 162 magic happens;
#X text 212 152 envelope and converts it;
#X text 219 163 into a (0-1) signal.;
#X text 208 141 this side takes the attack;
#X obj 44 210 bang;
#X obj 100 58 fiddle~ 1024;
#X obj 257 76 delta;
#X connect 0 0 16 0;
#X connect 1 0 5 0;
#X connect 1 0 4 0;
#X connect 2 0 8 0;
#X connect 3 0 2 1;
#X connect 4 0 7 1;
#X connect 4 0 8 1;
#X connect 5 0 4 1;
#X connect 7 0 6 0;
#X connect 7 0 15 0;
#X connect 8 0 7 0;
#X connect 15 0 3 0;
#X connect 16 0 3 0;
#X restore 448 23 pd delta;
#X obj 579 228 piano;
#N canvas 0 0 638 437 chugselector 0;
#X obj 118 53 inlet;
#X obj 127 146 route abs;
#X obj 137 176 route abs_y;
#X obj 133 227 sel 255 128 0;
#X obj 99 305 outlet;
#X obj 149 305 outlet;
#X msg 105 267 1;
#X msg 139 270 0;
#X msg 175 267 1;
#X connect 0 0 1 0;
#X connect 1 0 2 0;
#X connect 2 0 3 0;
#X connect 3 0 6 0;
#X connect 3 1 7 0;
#X connect 3 2 8 0;
#X connect 6 0 4 0;
#X connect 7 0 5 0;
#X connect 7 0 4 0;
#X connect 8 0 5 0;
#X restore 146 171 pd chugselector;
#X obj 98 270 envelope;
#X obj 17 173 scalecollector;
#X obj 16 200 mtof;
#N canvas 52 299 442 371 guitarheroprep 0;
#X obj 20 27 inlet;
#X obj 16 70 route key rel abs syn;
#X obj 19 103 route btn_0 btn_1 btn_2 btn_3 btn_6 btn_7;
#X msg 129 210 1;
#X msg 139 230 2;
#X msg 149 250 3;
#X msg 159 270 4;
#X msg 169 290 5;
#X msg 179 310 6;
#X obj 191 144 sel 0;
#X obj 173 190 sel 1;
#X obj 179 217 sel 1;
#X obj 191 239 sel 1;
#X obj 200 264 sel 1;
#X obj 207 290 sel 1;
#X obj 66 309 outlet;
#X connect 0 0 1 0;
#X connect 1 0 2 0;
#X connect 2 0 9 0;
#X connect 2 0 12 0;
#X connect 2 1 9 0;
#X connect 2 1 11 0;
#X connect 2 2 9 0;
#X connect 2 2 13 0;
#X connect 2 3 9 0;
#X connect 2 3 14 0;
#X connect 2 4 9 0;
#X connect 2 5 9 0;
#X connect 2 5 10 0;
#X connect 3 0 15 0;
#X connect 4 0 15 0;
#X connect 5 0 15 0;
#X connect 6 0 15 0;
#X connect 7 0 15 0;
#X connect 8 0 15 0;
#X connect 9 0 3 0;
#X connect 10 0 4 0;
#X connect 11 0 5 0;
#X connect 12 0 6 0;
#X connect 13 0 7 0;
#X connect 14 0 8 0;
#X restore 17 57 pd guitarheroprep;
#X obj 50 102 scaleloader;
#N canvas 523 276 442 371 guitarheromono 0;
#X obj 131 12 inlet;
#X obj 16 70 route key rel abs syn;
#X obj 19 103 route btn_0 btn_1 btn_2 btn_3 btn_6 btn_7;
#X obj 78 344 outlet;
#X obj 57 269 bag;
#X msg 23 140 1 \$1;
#X msg 33 160 2 \$1;
#X msg 43 180 3 \$1;
#X msg 56 200 4 \$1;
#X msg 73 220 5 \$1;
#X msg 87 242 6 \$1;
#X obj 290 43 route abs;
#X obj 300 73 route abs_y;
#X obj 296 124 sel 255 128 0;
#X msg 268 164 1;
#X msg 302 167 0;
#X msg 338 164 1;
#X obj 12 309 s \$0-loop;
#X obj 2 204 r \$0-loop;
#X obj 7 228 pipe 1;
#X msg 169 231 flush;
#X obj 123 306 print;
#X msg 8 260 \$1 1;
#X connect 0 0 1 0;
#X connect 0 0 11 0;
#X connect 1 0 2 0;
#X connect 2 0 8 0;
#X connect 2 1 7 0;
#X connect 2 2 9 0;
#X connect 2 3 10 0;
#X connect 2 5 6 0;
#X connect 4 0 17 0;
#X connect 4 0 21 0;
#X connect 5 0 4 0;
#X connect 6 0 4 0;
#X connect 7 0 4 0;
#X connect 8 0 4 0;
#X connect 9 0 4 0;
#X connect 10 0 4 0;
#X connect 11 0 12 0;
#X connect 12 0 13 0;
#X connect 13 0 14 0;
#X connect 13 0 20 0;
#X connect 13 1 15 0;
#X connect 13 2 16 0;
#X connect 13 2 20 0;
#X connect 18 0 19 0;
#X connect 19 0 22 0;
#X connect 20 0 4 0;
#X connect 22 0 4 0;
#X restore 161 76 pd guitarheromono;
#X obj 146 15 guitarhero;
#X obj 644 283 mtof;
#X obj 575 199 + 40;
#X obj 604 274 + 12;
#X obj 518 549 *~ 0.54;
#X obj 594 312 waveshape;
#X obj 97 199 waveshape;
#X obj 24 381 specmash;
#X obj 318 498 specmash;
#X obj 282 248 3tapdelay;
#X obj 590 493;
#X obj 236 379 s-h;
#X floatatom 15 276 5 0 0 0 - - -;
#X obj 261 220 3tapdelay;
#X obj 429 104 notein;
#X obj 351 -2 ctlin;
#X obj 513 453 pack f f f;
#X obj 513 411 notein;
#X obj 533 483 print note;
#X obj 336 40 swap;
#X obj 337 69 pack;
#X obj 338 104 print ctl;
#X obj 287 134 route 91;
#X obj 329 174 / 127;
#X msg 317 278 Gain \$1;
#X obj 336 197 *;
#X connect 1 0 5 0;
#X connect 1 0 20 0;
#X connect 2 0 15 0;
#X connect 2 0 34 0;
#X connect 3 0 13 1;
#X connect 3 0 14 1;
#X connect 4 0 32 0;
#X connect 4 0 36 0;
#X connect 5 0 9 0;
#X connect 5 1 3 0;
#X connect 5 1 10 1;
#X connect 5 1 22 1;
#X connect 6 0 1 0;
#X connect 6 0 7 0;
#X connect 6 0 16 0;
#X connect 7 0 11 0;
#X connect 7 0 30 1;
#X connect 8 0 7 1;
#X connect 9 0 10 0;
#X connect 9 0 30 0;
#X connect 11 0 30 0;
#X connect 12 0 4 0;
#X connect 13 0 32 0;
#X connect 14 0 12 0;
#X connect 15 0 14 0;
#X connect 17 0 16 1;
#X connect 17 0 30 1;
#X connect 18 0 9 0;
#X connect 21 0 22 1;
#X connect 21 1 22 1;
#X connect 22 0 35 0;
#X connect 22 0 39 0;
#X connect 23 0 24 0;
#X connect 24 0 34 0;
#X connect 25 0 23 0;
#X connect 26 0 23 1;
#X connect 26 0 9 1;
#X connect 26 1 23 2;
#X connect 26 1 9 2;
#X connect 28 0 21 0;
#X connect 28 0 25 0;
#X connect 29 0 33 0;
#X connect 30 0 2 0;
#X connect 30 0 31 0;
#X connect 31 0 29 0;
#X connect 32 0 0 1;
#X connect 33 0 13 0;
#X connect 34 0 22 0;
#X connect 35 0 0 0;
#X connect 35 0 0 1;
#X connect 36 0 0 1;
#X connect 37 0 36 0;
#X connect 38 0 0 0;
#X connect 39 0 0 1;
#X connect 39 0 37 0;
#X connect 40 0 34 0;
#X connect 43 0 47 0;
#X connect 43 1 47 1;
#X connect 44 0 46 0;
#X connect 45 0 44 0;
#X connect 45 1 44 1;
#X connect 45 2 44 2;
#X connect 47 0 48 0;
#X connect 47 1 48 1;
#X connect 48 0 49 0;
#X connect 48 0 50 0;
#X connect 50 0 51 0;
#X connect 51 0 53 1;
#X connect 51 0 53 0;
#X connect 52 0 35 1;
#X connect 53 0 52 0;
