#N canvas 0 0 450 300 10;
#X floatatom 102 122 5 0 0 0 - - -;
#X floatatom 102 136 5 0 0 0 - - -;
#X floatatom 102 150 5 0 0 0 - - -;
#X floatatom 102 164 5 0 0 0 - - -;
#X obj 47 180 pack f f f f;
#X obj 47 136 bang;
#X obj 47 205 outlet;
#X connect 0 0 4 0;
#X connect 0 0 5 0;
#X connect 1 0 4 1;
#X connect 1 0 5 0;
#X connect 2 0 4 2;
#X connect 2 0 5 0;
#X connect 3 0 4 3;
#X connect 3 0 5 0;
#X connect 4 0 6 0;
#X connect 5 0 4 0;
#X coords 0 -1 1 1 40 80 1 100 100;
