#N canvas 561 80 443 382 10;
#X obj 219 301 windowsummingfilter;
#X obj 313 157 dac~;
#X obj 54 78 until;
#X msg 54 58 128;
#X obj 24 188 tabwrite filtershape;
#X obj 66 111 countto 128;
#X floatatom 15 99 5 0 0 0 - - -;
#X obj 36 134 pack 0 0;
#X obj 46 165 swap;
#X obj 364 50 openpanel;
#X obj 365 31 bng 15 250 50 0 empty empty empty 0 -6 0 10 -262144 -1
-1;
#X msg 337 77 open \$1;
#X msg 292 82 1;
#X obj 245 184 LFO;
#X msg 19 255 bang;
#X msg 29 279 stop;
#X msg 301 53 0;
#X obj 151 17 noiseshape;
#X obj 20 341 tabwrite~ filtershape;
#X floatatom 137 160 5 0 0 0 - - -;
#X floatatom 8 164 5 0 0 0 - - -;
#X obj 67 284 *~;
#X obj 74 255 expr~ ($v1+1)/2;
#X obj 60 314 *~;
#X obj 274 111 readsf~ 2;
#X obj 389 231 snapshot~;
#X obj 366 186 vsl 15 59 -1 1 0 0 empty empty empty 0 -8 0 10 -262144
-1 -1 0 1;
#X obj 386 207 metro 35;
#X obj 280 185 tgl 15 0 empty empty empty 0 -6 0 10 -262144 -1 -1 0
1;
#X connect 2 0 5 0;
#X connect 3 0 2 0;
#X connect 5 0 7 0;
#X connect 6 0 7 1;
#X connect 7 0 8 0;
#X connect 8 0 4 0;
#X connect 8 1 4 1;
#X connect 9 0 11 0;
#X connect 10 0 9 0;
#X connect 11 0 24 0;
#X connect 12 0 24 0;
#X connect 13 0 22 0;
#X connect 13 0 25 0;
#X connect 14 0 18 0;
#X connect 15 0 18 0;
#X connect 16 0 24 0;
#X connect 19 0 4 1;
#X connect 20 0 4 0;
#X connect 21 0 23 1;
#X connect 21 0 23 0;
#X connect 22 0 21 0;
#X connect 22 0 21 1;
#X connect 23 0 18 0;
#X connect 24 0 0 0;
#X connect 24 0 1 0;
#X connect 24 1 1 1;
#X connect 25 0 26 0;
#X connect 27 0 25 0;
#X connect 28 0 27 0;
