#N canvas 466 253 450 300 10;
#N canvas 771 551 481 342 mastergemwin 0;
#X obj 233 295 gemwin;
#X obj 103 124 tgl 15 0 empty empty empty 0 -6 0 10 -262144 -1 -1 1
1;
#X msg 187 265 create;
#X obj 247 234 bang;
#X msg 276 272 color \$1 \$2 \$3;
#X obj 107 214 bang;
#X floatatom 165 190 5 0 0 0 - - -;
#X floatatom 126 183 5 0 0 0 - - -;
#X obj 142 218 pack f f;
#X msg 200 211 border \$1;
#X obj 205 190 tgl 15 0 empty empty empty 0 -6 0 10 -262144 -1 -1 0
1;
#X obj 260 156 tgl 15 0 empty empty empty 0 -6 0 10 -262144 -1 -1 0
1;
#X msg 247 176 fullscreen \$1;
#X obj 146 285 bng 15 250 50 0 empty empty empty 0 -6 0 10 -262144
-1 -1;
#X msg 167 164 lighting \$1;
#X obj 167 125 tgl 15 0 empty empty empty 0 -6 0 8 -262144 -1 -1 0
1;
#X obj 355 144 loadbang;
#X obj 366 167 t b b;
#X msg 373 220 1;
#X text 102 110 render;
#X text 147 112 light;
#X obj 233 72 inlet;
#X obj 196 323 outlet;
#X msg 134 243 dimen 640 480;
#X obj 292 90 inlet bkgrndclr;
#X connect 0 0 22 0;
#X connect 1 0 0 0;
#X connect 2 0 0 0;
#X connect 4 0 0 0;
#X connect 5 0 8 0;
#X connect 6 0 5 0;
#X connect 6 0 8 1;
#X connect 7 0 8 0;
#X connect 8 0 23 0;
#X connect 9 0 0 0;
#X connect 10 0 9 0;
#X connect 11 0 12 0;
#X connect 12 0 0 0;
#X connect 13 0 0 0;
#X connect 14 0 0 0;
#X connect 15 0 14 0;
#X connect 16 0 17 0;
#X connect 17 0 2 0;
#X connect 17 0 18 0;
#X connect 17 1 23 0;
#X connect 18 0 1 0;
#X connect 21 0 0 0;
#X connect 23 0 0 0;
#X connect 24 0 4 0;
#X coords 0 -1 1 1 85 45 1 100 100;
#X restore 102 102 pd mastergemwin;
#X obj 133 65 inlet;
#X obj 112 171 outlet;
#X floatatom 234 28 5 0 1 0 - - -;
#X floatatom 195 21 5 0 1 0 - - -;
#X obj 207 68 pack f f f;
#X floatatom 254 48 5 0 1 0 - - -;
#X connect 0 0 2 0;
#X connect 1 0 0 0;
#X connect 3 0 5 1;
#X connect 4 0 5 0;
#X connect 5 0 0 1;
#X connect 6 0 5 2;
#X coords 0 -1 1 1 98 49 1 100 100;
