#N canvas 484 220 672 591 10;
#N canvas 0 22 450 300 littleguys 0;
#X obj 174 105 pol2car;
#X msg 210 76 4;
#X obj 203 52 bang;
#X obj 171 21 inlet;
#X obj 239 177 pack;
#X obj 190 230 outlet;
#X obj 175 146 + 16;
#X obj 223 143 + 16;
#X text 283 155 oh yeah \, lest we forget:;
#X text 284 165 coded by;
#X text 299 175 sunji.roaoul@gmail.com;
#X connect 0 0 6 0;
#X connect 0 1 7 0;
#X connect 1 0 0 1;
#X connect 2 0 1 0;
#X connect 3 0 0 0;
#X connect 3 0 2 0;
#X connect 4 0 5 0;
#X connect 6 0 4 0;
#X connect 7 0 4 1;
#X restore 133 33 pd littleguys;
#N canvas 0 22 450 300 littleguys 0;
#X obj 174 105 pol2car;
#X obj 203 52 bang;
#X obj 171 21 inlet;
#X obj 239 177 pack;
#X obj 190 230 outlet;
#X obj 175 146 + 16;
#X obj 223 143 + 16;
#X msg 210 76 8;
#X connect 0 0 5 0;
#X connect 0 1 6 0;
#X connect 1 0 7 0;
#X connect 2 0 0 0;
#X connect 2 0 1 0;
#X connect 3 0 4 0;
#X connect 5 0 3 0;
#X connect 6 0 3 1;
#X connect 7 0 0 1;
#X restore 148 56 pd littleguys;
#N canvas 0 22 450 300 littleguys 0;
#X obj 174 105 pol2car;
#X obj 203 52 bang;
#X obj 171 21 inlet;
#X obj 239 177 pack;
#X obj 190 230 outlet;
#X obj 175 146 + 16;
#X obj 223 143 + 16;
#X msg 210 76 12;
#X connect 0 0 5 0;
#X connect 0 1 6 0;
#X connect 1 0 7 0;
#X connect 2 0 0 0;
#X connect 2 0 1 0;
#X connect 3 0 4 0;
#X connect 5 0 3 0;
#X connect 6 0 3 1;
#X connect 7 0 0 1;
#X restore 166 79 pd littleguys;
#N canvas 0 22 450 300 littleguys 0;
#X obj 174 105 pol2car;
#X obj 203 52 bang;
#X obj 171 21 inlet;
#X obj 239 177 pack;
#X obj 190 230 outlet;
#X obj 175 146 + 16;
#X obj 223 143 + 16;
#X msg 210 76 16;
#X connect 0 0 5 0;
#X connect 0 1 6 0;
#X connect 1 0 7 0;
#X connect 2 0 0 0;
#X connect 2 0 1 0;
#X connect 3 0 4 0;
#X connect 5 0 3 0;
#X connect 6 0 3 1;
#X connect 7 0 0 1;
#X restore 183 106 pd littleguys;
#X obj 229 151 s \$0-fif1;
#X obj 239 175 s \$0-fif2;
#X obj 239 201 s \$0-fif3;
#X obj 249 225 s \$0-fif4;
#X msg 70 74 pos \$1 \$2;
#X msg 89 96 pos \$1 \$2;
#X msg 117 124 pos \$1 \$2;
#X msg 137 152 pos \$1 \$2;
#X floatatom 3 -1 5 0 0 0 - - -;
#X floatatom 3 12 5 0 0 0 - - -;
#X floatatom 3 25 5 0 0 0 - - -;
#X obj -32 88 value \$0-card;
#X obj -42 -42 value \$0-card;
#X obj -43 -99 loadbang;
#X msg -43 -80 1;
#X obj 127 -111 inlet;
#X obj -25 140 % 360;
#X obj -40 173 outlet;
#X obj 0 0 bng 36 250 50 0 empty \$0-button empty 17 7 0 10 -262144
-1 -262144;
#X obj 19 15 cnv 4 4 4 empty \$0-fif1 empty 20 12 0 14 -44926 -44926
0;
#X obj 23 15 cnv 4 4 4 empty \$0-fif2 empty 20 12 0 14 -44926 -44926
0;
#X obj 27 14 cnv 4 4 4 empty \$0-fif3 empty 20 12 0 14 -44926 -44926
0;
#X obj 31 14 cnv 4 4 4 empty \$0-fif4 empty 20 12 0 14 -44926 -44926
0;
#X text 37 9 0|360;
#X text 10 -14 90;
#X text 9 37 270;
#X text -23 13 180;
#X obj 75 -86 route label background;
#X obj 103 -51 * -1;
#X obj 229 8 * 1;
#X obj -42 -60 metro 250;
#X obj 325 -27 s \$0-button;
#X msg 325 -52 color \$1;
#X msg 375 68 color \$1;
#X msg 387 92 color \$1;
#X connect 0 0 8 0;
#X connect 1 0 9 0;
#X connect 2 0 10 0;
#X connect 3 0 11 0;
#X connect 8 0 4 0;
#X connect 9 0 5 0;
#X connect 10 0 6 0;
#X connect 11 0 7 0;
#X connect 12 0 15 0;
#X connect 12 0 20 0;
#X connect 12 0 32 0;
#X connect 13 0 15 0;
#X connect 13 0 20 0;
#X connect 13 0 32 0;
#X connect 14 0 15 0;
#X connect 14 0 20 0;
#X connect 14 0 32 0;
#X connect 16 0 12 0;
#X connect 16 0 13 0;
#X connect 16 0 14 0;
#X connect 17 0 18 0;
#X connect 18 0 34 0;
#X connect 19 0 31 0;
#X connect 20 0 21 0;
#X connect 31 0 37 0;
#X connect 31 1 36 0;
#X connect 31 2 16 0;
#X connect 32 0 33 0;
#X connect 33 0 0 0;
#X connect 33 0 1 0;
#X connect 33 0 2 0;
#X connect 33 0 3 0;
#X connect 34 0 16 0;
#X connect 36 0 35 0;
#X connect 37 0 4 0;
#X connect 37 0 5 0;
#X connect 37 0 6 0;
#X connect 37 0 7 0;
#X connect 38 0 4 0;
#X connect 38 0 5 0;
#X connect 38 0 6 0;
#X connect 38 0 7 0;
#X coords 0 -1 1 1 36 36 2 0 0;
