#N canvas 269 48 597 451 10;
#X obj 14 -20 route key rel abs syn;
#X obj 206 170 tgl 15 0 empty empty empty 17 7 0 10 -262144 -1 -1 0
1;
#N canvas 0 22 458 308 L1 0;
#X obj 65 25 inlet;
#X obj 28 52 sel 1 0;
#X obj 46 115 s \$0-2L1;
#X msg 28 74 color 43;
#X msg 49 94 color 48;
#X connect 0 0 1 0;
#X connect 1 0 3 0;
#X connect 1 1 4 0;
#X connect 3 0 2 0;
#X connect 4 0 2 0;
#X restore 162 167 pd L1;
#N canvas 0 22 458 308 L2 0;
#X obj 65 25 inlet;
#X obj 28 52 sel 1 0;
#X msg 28 74 color 43;
#X msg 49 94 color 48;
#X obj 46 115 s \$0-2L2;
#X connect 0 0 1 0;
#X connect 1 0 2 0;
#X connect 1 1 3 0;
#X connect 2 0 4 0;
#X connect 3 0 4 0;
#X restore 223 167 pd L2;
#N canvas 0 22 458 308 R1 0;
#X obj 65 25 inlet;
#X obj 28 52 sel 1 0;
#X msg 28 74 color 43;
#X msg 49 94 color 48;
#X obj 46 115 s \$0-2R1;
#X connect 0 0 1 0;
#X connect 1 0 2 0;
#X connect 1 1 3 0;
#X connect 2 0 4 0;
#X connect 3 0 4 0;
#X restore 199 188 pd R1;
#N canvas 0 22 462 312 R2 0;
#X obj 65 25 inlet;
#X obj 28 52 sel 1 0;
#X msg 28 74 color 43;
#X msg 49 94 color 48;
#X obj 46 115 s \$0-2R2;
#X connect 0 0 1 0;
#X connect 1 0 2 0;
#X connect 1 1 3 0;
#X connect 2 0 4 0;
#X connect 3 0 4 0;
#X restore 260 186 pd R2;
#X floatatom 79 35 5 0 0 0 - - -;
#X floatatom 129 35 5 0 0 0 - - -;
#N canvas 0 22 466 316 CTLU 0;
#X obj 65 25 inlet;
#X msg 28 74 color 43;
#X msg 49 94 color 48;
#X obj 46 115 s \$0-2CTLU;
#X obj 116 23 inlet;
#X connect 0 0 1 0;
#X connect 1 0 3 0;
#X connect 2 0 3 0;
#X connect 4 0 2 0;
#X restore 172 103 pd CTLU;
#N canvas 0 22 470 320 CTLD 0;
#X obj 65 25 inlet;
#X msg 28 74 color 43;
#X msg 49 94 color 48;
#X obj 116 23 inlet;
#X obj 46 115 s \$0-2CTLD;
#X connect 0 0 1 0;
#X connect 1 0 4 0;
#X connect 2 0 4 0;
#X connect 3 0 2 0;
#X restore 232 103 pd CTLD;
#N canvas 0 22 478 328 CTLU 0;
#X obj 65 25 inlet;
#X msg 28 74 color 43;
#X msg 49 94 color 48;
#X obj 116 23 inlet;
#X obj 46 115 s \$0-2CTLL;
#X connect 0 0 1 0;
#X connect 1 0 4 0;
#X connect 2 0 4 0;
#X connect 3 0 2 0;
#X restore 52 103 pd CTLU;
#N canvas 0 22 478 328 CTLD 0;
#X obj 65 25 inlet;
#X msg 28 74 color 43;
#X msg 49 94 color 48;
#X obj 116 23 inlet;
#X obj 46 115 s \$0-2CTLR;
#X connect 0 0 1 0;
#X connect 1 0 4 0;
#X connect 2 0 4 0;
#X connect 3 0 2 0;
#X restore 112 103 pd CTLD;
#X obj 267 167 s \$0-2Select;
#X obj 304 187 s \$0-2Start;
#N canvas 0 22 462 312 A 0;
#X obj 65 25 inlet;
#X obj 28 52 sel 1 0;
#X msg 28 74 color 43;
#X msg 49 94 color 48;
#X obj 46 115 s \$0-2A;
#X connect 0 0 1 0;
#X connect 1 0 2 0;
#X connect 1 1 3 0;
#X connect 2 0 4 0;
#X connect 3 0 4 0;
#X restore 80 207 pd A;
#N canvas 0 22 466 316 X 0;
#X obj 65 25 inlet;
#X obj 28 52 sel 1 0;
#X msg 28 74 color 43;
#X msg 49 94 color 48;
#X obj 46 115 s \$0-2X;
#X connect 0 0 1 0;
#X connect 1 0 2 0;
#X connect 1 1 3 0;
#X connect 2 0 4 0;
#X connect 3 0 4 0;
#X restore 115 207 pd X;
#N canvas 0 22 470 320 Y 0;
#X obj 65 25 inlet;
#X obj 28 52 sel 1 0;
#X msg 28 74 color 43;
#X msg 49 94 color 48;
#X obj 46 115 s \$0-2Y;
#X connect 0 0 1 0;
#X connect 1 0 2 0;
#X connect 1 1 3 0;
#X connect 2 0 4 0;
#X connect 3 0 4 0;
#X restore 123 184 pd Y;
#N canvas 0 22 466 316 B 0;
#X obj 65 25 inlet;
#X obj 28 52 sel 1 0;
#X msg 28 74 color 43;
#X msg 49 94 color 48;
#X obj 46 115 s \$0-2B;
#X connect 0 0 1 0;
#X connect 1 0 2 0;
#X connect 1 1 3 0;
#X connect 2 0 4 0;
#X connect 3 0 4 0;
#X restore 83 184 pd B;
#X obj 160 213 cnv 12 100 60 empty empty empty 20 12 0 14 -1 -66577
0;
#X obj 162 238 bng 32 250 50 0 \$0-bng \$0-2bng empty 17 7 0 10 -106521
-1 -1;
#X obj 195 227 tgl 8 0 \$0-Select \$0-2Select empty 17 7 0 10 -262144
-1 -1 0 1;
#X obj 162 216 cnv 3 20 3 \$0-L1 \$0-2L1 empty 20 12 0 14 -62784 -262144
0;
#X obj 162 221 cnv 3 20 3 \$0-L2 \$0-2L2 empty 20 12 0 14 -62784 -262144
0;
#X obj 193 216 cnv 3 20 3 \$0-R1 \$0-2R1 empty 20 12 0 14 -62784 -262144
0;
#X obj 193 221 cnv 3 20 3 \$0-R2 \$0-2R2 empty 20 12 0 14 -62784 -262144
0;
#X obj 163 251 cnv 6 11 6 \$0-CTLL \$0-2CTLL empty 20 12 0 14 -62784
-262144 0;
#X obj 181 251 cnv 6 11 6 \$0-CTLR \$0-2CTLR empty 20 12 0 14 -62784
-262144 0;
#X obj 175 239 cnv 6 6 11 \$0-CTLU \$0-2CTLU empty 20 12 0 14 -62784
-262144 0;
#X obj 175 258 cnv 6 6 11 \$0-CTLD \$0-2CTLD empty 20 12 0 14 -62784
-262144 0;
#X obj 205 227 tgl 8 0 \$0-Start \$0-2Start empty 17 7 0 10 -262144
-1 -1 0 1;
#X obj 229 224 cnv 10 10 10 \$0-B \$0-2B empty 20 12 0 14 -62784 -262144
0;
#X obj 238 233 cnv 10 10 10 \$0-A \$0-2A empty 20 12 0 14 -62784 -262144
0;
#X obj 238 216 cnv 10 10 10 \$0-Y \$0-2Y empty 20 12 0 14 -62784 -262144
0;
#X obj 247 224 cnv 10 10 10 \$0-X \$0-2X empty 20 12 0 14 -62784 -262144
0;
#X obj -40 50 outlet;
#X obj 85 8 route abs_hat0x abs_hat0y;
#X obj 71 58 sel -1 0 1;
#X obj 377 66 route abs_y abs_x abs_z abs_rz;
#N canvas 625 490 271 230 ljoystick 0;
#X obj 96 137 pack;
#X obj 83 185 s \$0-LStick;
#X msg 86 166 pos \$1 \$2;
#X obj 107 113 bang;
#X obj 96 42 int;
#X obj 67 8 inlet;
#X obj 126 3 inlet;
#X obj 136 35 int;
#X obj 100 64 / 16;
#X obj 144 66 / 16;
#X obj 79 86 + 200;
#X obj 127 85 + 249;
#X connect 0 0 2 0;
#X connect 2 0 1 0;
#X connect 3 0 0 0;
#X connect 4 0 8 0;
#X connect 5 0 7 0;
#X connect 6 0 4 0;
#X connect 7 0 9 0;
#X connect 8 0 10 0;
#X connect 9 0 11 0;
#X connect 10 0 0 0;
#X connect 11 0 0 1;
#X connect 11 0 3 0;
#X restore 361 101 pd ljoystick;
#X obj 198 246 bng 22 250 50 0 \$0-bng \$0-2bng empty 17 7 0 10 -106521
-1 -1;
#X obj 225 246 bng 22 250 50 0 \$0-bng \$0-2bng empty 17 7 0 10 -106521
-1 -1;
#X obj 208 257 cnv 2 2 2 empty \$0-LStick empty 20 12 0 14 -44926 -262144
0;
#N canvas 625 490 279 238 rjoystick 0;
#X obj 96 137 pack;
#X msg 86 166 pos \$1 \$2;
#X obj 107 113 bang;
#X obj 96 42 int;
#X obj 67 8 inlet;
#X obj 126 3 inlet;
#X obj 136 35 int;
#X obj 100 64 / 16;
#X obj 144 66 / 16;
#X obj 83 185 s \$0-RStick;
#X floatatom 137 139 5 0 0 0 - - -;
#X obj 79 86 + 228;
#X obj 127 85 + 249;
#X connect 0 0 1 0;
#X connect 1 0 9 0;
#X connect 2 0 0 0;
#X connect 3 0 7 0;
#X connect 4 0 3 0;
#X connect 5 0 6 0;
#X connect 6 0 8 0;
#X connect 7 0 11 0;
#X connect 8 0 12 0;
#X connect 11 0 0 0;
#X connect 12 0 0 1;
#X connect 12 0 2 0;
#X connect 12 0 10 0;
#X restore 479 104 pd rjoystick;
#X obj 235 257 cnv 2 2 2 empty \$0-RStick empty 20 12 0 14 -44926 -262144
0;
#X obj 14 127 route btn_0 btn_1 btn_2 btn_3 btn_4 btn_5 btn_5 btn_6
btn_7 btn_8 btn_9 btn_10 btn_11;
#X obj 418 294 s \$0-LStick;
#X msg 421 275 color \$1;
#X msg 411 232 43;
#X msg 439 252 17;
#X obj 400 197 sel 1 0;
#X msg 507 249 color \$1;
#X msg 497 206 43;
#X msg 525 226 17;
#X obj 486 171 sel 1 0;
#X obj 504 268 s \$0-RStick;
#X obj 14 -48 hid;
#X msg 40 -73 open 5;
#X msg 111 -65 1;
#X obj 200 -62 loadbang;
#X obj 200 -38 t b b;
#X obj 177 58 sel -1 0 1;
#X msg 363 -48 print;
#X msg 278 -34 open \$1;
#X floatatom 283 -66 5 0 0 0 - - -;
#X connect 0 0 44 0;
#X connect 0 2 35 0;
#X connect 0 2 37 0;
#X connect 6 0 36 0;
#X connect 7 0 60 0;
#X connect 35 0 6 0;
#X connect 35 1 7 0;
#X connect 36 0 10 0;
#X connect 36 1 10 1;
#X connect 36 1 11 1;
#X connect 36 2 11 0;
#X connect 37 0 38 0;
#X connect 37 1 38 1;
#X connect 37 2 42 0;
#X connect 37 3 42 1;
#X connect 44 0 17 0;
#X connect 44 1 14 0;
#X connect 44 2 15 0;
#X connect 44 3 16 0;
#X connect 44 4 2 0;
#X connect 44 5 4 0;
#X connect 44 6 1 0;
#X connect 44 7 3 0;
#X connect 44 8 5 0;
#X connect 44 9 12 0;
#X connect 44 10 13 0;
#X connect 44 11 49 0;
#X connect 44 12 53 0;
#X connect 46 0 45 0;
#X connect 47 0 46 0;
#X connect 48 0 46 0;
#X connect 49 0 47 0;
#X connect 49 1 48 0;
#X connect 50 0 54 0;
#X connect 51 0 50 0;
#X connect 52 0 50 0;
#X connect 53 0 51 0;
#X connect 53 1 52 0;
#X connect 55 0 0 0;
#X connect 55 0 34 0;
#X connect 56 0 55 0;
#X connect 57 0 55 0;
#X connect 58 0 59 0;
#X connect 59 0 57 0;
#X connect 59 1 56 0;
#X connect 60 0 8 0;
#X connect 60 1 8 1;
#X connect 60 1 9 1;
#X connect 60 2 9 0;
#X connect 61 0 55 0;
#X connect 62 0 55 0;
#X connect 63 0 62 0;
#X coords 0 -1 1 1 100 60 1 160 213;
