#N canvas 2713 218 533 484 10;
#X msg 38 31 dimen 1970 1020;
#X msg 63 19 create;
#X msg 62 47 destroy;
#X obj 66 66 gemwin;
#X obj 37 70 tgl 15 0 empty empty empty 17 7 0 10 -262144 -1 -1 1 1
;
#X obj 180 32 gemhead;
#X obj 205 362 rectangle 0.6182 1;
#X obj 213 98 repeat 15;
#X obj 226 125 rotateXYZ;
#X obj 190 246 translateXYZ;
#X obj 192 55 alpha 1;
#X floatatom 310 99 5 0 0 0 - - -;
#X floatatom 324 8 5 0 0 0 - - -;
#X obj 343 81 line;
#X obj 344 216 line;
#X obj 345 144 random 100;
#X obj 265 221 line;
#X obj 266 149 random 100;
#X obj 248 160 bng 15 250 50 0 empty empty empty 17 7 0 10 -262144
-1 -1;
#X obj 330 160 bng 15 250 50 0 empty empty empty 17 7 0 10 -262144
-1 -1;
#X obj 173 219 line;
#X obj 174 147 random 100;
#X obj 156 158 bng 15 250 50 0 empty empty empty 17 7 0 10 -262144
-1 -1;
#X floatatom 354 257 5 0 0 0 - - -;
#X obj 50 167 random 3;
#X obj 53 197 sel 0 1 2;
#X obj 40 110 tgl 15 0 empty empty empty 17 7 0 10 -262144 -1 -1 1
1;
#X msg 128 81;
#X obj 252 310 pix_texture;
#X obj 246 288 pix_image;
#X obj 109 318 openpanel;
#X obj 82 287 bng 15 250 50 0 empty empty empty 17 7 0 10 -262144 -1
-1;
#X msg 146 316 set open \$1;
#X msg 137 328 open /home/deifius/old.mes/yayo/Pictures/Megajump.gif
;
#X msg 174 200 \$1 900;
#X msg 269 203 \$1 900;
#X msg 348 199 \$1 900;
#X obj 352 169 / 900;
#X msg 344 62 0 \, 360 4e+06;
#X obj 138 177 expr ($f1-50)/900;
#X obj 231 177 expr ($f1-50)/900;
#X obj 61 139 metro 2000;
#X obj 185 67 colorRGB 0.02 0.02 0.02;
#X obj 405 6 tgl 15 0 empty empty empty 17 7 0 10 -262144 -1 -1 1 1
;
#X obj 426 35 metro 400000;
#X obj 129 381 pix_video;
#X msg 111 362 device 0;
#X connect 0 0 3 0;
#X connect 1 0 3 0;
#X connect 2 0 3 0;
#X connect 4 0 3 0;
#X connect 5 0 10 0;
#X connect 7 0 8 0;
#X connect 8 0 9 0;
#X connect 9 0 45 0;
#X connect 10 0 42 0;
#X connect 11 0 8 3;
#X connect 12 0 7 1;
#X connect 13 0 11 0;
#X connect 14 0 9 3;
#X connect 14 0 23 0;
#X connect 15 0 37 0;
#X connect 16 0 9 2;
#X connect 17 0 40 0;
#X connect 18 0 17 0;
#X connect 19 0 15 0;
#X connect 20 0 9 1;
#X connect 21 0 39 0;
#X connect 22 0 21 0;
#X connect 24 0 25 0;
#X connect 25 0 21 0;
#X connect 25 1 17 0;
#X connect 25 2 15 0;
#X connect 26 0 41 0;
#X connect 28 0 6 0;
#X connect 29 0 28 0;
#X connect 30 0 32 0;
#X connect 31 0 30 0;
#X connect 32 0 33 0;
#X connect 33 0 29 0;
#X connect 34 0 20 0;
#X connect 35 0 16 0;
#X connect 36 0 14 0;
#X connect 37 0 36 0;
#X connect 38 0 13 0;
#X connect 39 0 34 0;
#X connect 40 0 35 0;
#X connect 41 0 24 0;
#X connect 42 0 7 0;
#X connect 43 0 44 0;
#X connect 44 0 38 0;
#X connect 45 0 28 0;
#X connect 46 0 45 0;
