#N canvas 4 50 450 300 10;
#X obj -140 25 soundfiler;
#X obj -70 28 table mesaL;
#X obj -69 48 table mesaR;
#X msg -139 5 read -resize circus.lead.wav mesaL mesaR;
#X obj 31 83 tabplay~ mesaL;
#X obj 70 109 tabplay~ mesaR;
#N canvas 6 50 450 300 out 0;
#X obj 159 71 inlet~;
#X obj 203 151 dac~;
#X obj 258 71 inlet~;
#X connect 0 0 1 0;
#X connect 2 0 1 1;
#X restore 153 280 pd out;
#X obj -143 48 print sound;
#X obj 73 37 bng 15 250 50 0 empty empty empty 17 7 0 10 -262144 -1
-1;
#N canvas 945 523 648 451 gubbin 1;
#X obj 364 317 *~;
#X obj 405 319 *~;
#X obj 372 407 outlet~;
#X obj 333 207 inlet~;
#X obj 411 206 inlet~;
#X obj 10 219 switch~;
#X obj -11 193 tgl 15 0 empty empty empty 17 7 0 10 -262144 -1 -1 1
1;
#X msg 7 152 65536 4 1;
#X msg 71 153 set \$1 \$2 \$3;
#N canvas 0 22 454 304 2power 0;
#X obj 219 69 inlet;
#X obj 181 199 outlet;
#X obj 217 101 int;
#X obj 205 137 bang;
#X msg 168 99 2;
#X obj 190 164 pow 2;
#X connect 0 0 2 0;
#X connect 2 0 5 1;
#X connect 2 0 3 0;
#X connect 3 0 4 0;
#X connect 4 0 5 0;
#X connect 5 0 1 0;
#X restore 121 73 pd 2power;
#X obj 129 113 pack 128 1 1;
#N canvas 0 22 454 304 2power 0;
#X obj 219 69 inlet;
#X obj 181 199 outlet;
#X obj 217 101 int;
#X obj 205 137 bang;
#X msg 168 99 2;
#X obj 190 164 pow 2;
#X connect 0 0 2 0;
#X connect 2 0 5 1;
#X connect 2 0 3 0;
#X connect 3 0 4 0;
#X connect 4 0 5 0;
#X connect 5 0 1 0;
#X restore 191 83 pd 2power;
#N canvas 0 22 454 304 2power 0;
#X obj 219 69 inlet;
#X obj 181 199 outlet;
#X obj 217 101 int;
#X obj 205 137 bang;
#X msg 168 99 2;
#X obj 190 164 pow 2;
#X connect 0 0 2 0;
#X connect 2 0 5 1;
#X connect 2 0 3 0;
#X connect 3 0 4 0;
#X connect 4 0 5 0;
#X connect 5 0 1 0;
#X restore 261 93 pd 2power;
#X obj 121 56 r \$0-Window;
#X obj 261 76 r \$0-Upsample;
#X obj 191 60 r \$0-Overlap;
#X obj -34 43 vsl 12 48 4 16 0 0 \$0-Window \$0-2Window Window -2 -5
0 8 -262144 -1 -1 4700 1;
#X obj -16 53 vsl 12 38 0 5 0 0 \$0-Overlap \$0-2Overlap OverLap -2
-6 0 8 -262144 -1 -1 1700 1;
#X obj 2 63 vsl 12 28 0 4 0 0 \$0-Upsample \$0-2Upsample UpSample -2
-6 0 8 -262144 -1 -1 0 1;
#X obj 69 94 bang;
#X obj -59 126 loadbang;
#X msg -28 172 1;
#X obj 348 268 fft~;
#X obj 402 268 fft~;
#X obj 371 363 ifft~;
#X connect 0 0 24 0;
#X connect 1 0 24 1;
#X connect 3 0 22 0;
#X connect 4 0 23 0;
#X connect 6 0 5 0;
#X connect 7 0 8 0;
#X connect 8 0 5 0;
#X connect 8 0 7 0;
#X connect 9 0 10 0;
#X connect 10 0 8 0;
#X connect 11 0 10 1;
#X connect 11 0 19 0;
#X connect 12 0 10 2;
#X connect 12 0 19 0;
#X connect 13 0 9 0;
#X connect 14 0 12 0;
#X connect 15 0 11 0;
#X connect 19 0 10 0;
#X connect 20 0 7 0;
#X connect 20 0 21 0;
#X connect 21 0 6 0;
#X connect 22 0 0 1;
#X connect 22 1 1 1;
#X connect 23 0 0 0;
#X connect 23 1 1 0;
#X connect 24 0 2 0;
#X restore 97 199 pd gubbin;
#X obj 85 157 *~ 0.009;
#X obj 140 158 *~ 0.009;
#X obj 204 54 vsl 15 78 0.0001 0.0093 0 0 empty empty empty 0 -9 0
10 -262144 -1 -1 800 1;
#X obj 184 54 vsl 15 78 0.0001 0.009 0 0 empty empty empty 0 -9 0 10
-262144 -1 -1 0 1;
#X connect 0 0 7 0;
#X connect 3 0 0 0;
#X connect 4 0 10 0;
#X connect 5 0 11 0;
#X connect 8 0 4 0;
#X connect 8 0 5 0;
#X connect 9 0 6 0;
#X connect 10 0 9 0;
#X connect 11 0 9 1;
#X connect 12 0 11 1;
#X connect 13 0 10 1;
