#N canvas 234 25 450 766 10;
#X obj 310 114 gemwin;
#X msg 294 26 dimen 1024 768;
#X msg 251 87 create;
#X obj 361 95 tgl 15 0 empty empty empty 17 7 0 10 -262144 -1 -1 1
1;
#X msg 241 106 destroy;
#X msg 321 47 dimen 400 320;
#X obj 306 322 s scrabble;
#X msg 332 212 2 2 bang;
#X obj 64 194 s flicker;
#X obj 66 140 metro 500;
#X obj 47 145 tgl 15 0 empty empty empty 17 7 0 10 -262144 -1 -1 1
1;
#X floatatom 133 113 5 0 0 0 - - -;
#X msg 175 263 -1 2 text w;
#X msg 196 238 0 2 text o;
#X msg 227 213 1 2 text r;
#X msg 256 187 2 2 text l;
#X msg 276 167 3 2 text d;
#X msg 333 234 1 2 bang;
#X msg 343 254 -1 2 bang;
#X msg 343 274 0 2 bang;
#X msg 357 296 3 2 bang;
#X msg 201 41 lighting \$1;
#X obj 172 44 tgl 15 0 empty empty empty 17 7 0 10 -262144 -1 -1 1
1;
#X obj 156 628 light;
#X obj 205 492 gemhead;
#N canvas 165 217 450 516 freerot 0;
#X obj 123 380 outlet;
#X obj 183 380 outlet;
#X obj 243 380 outlet;
#X text 14 215 ripple filters \, eventually;
#X obj 194 303 snapshot~;
#X obj 124 249 r flicker;
#X obj 279 298 snapshot~;
#X obj 354 300 snapshot~;
#X obj 292 273 osc~ 0.2;
#X obj 223 273 osc~ 0.2;
#X obj 363 273 osc~ 0.3;
#X obj 358 362 + 1;
#X obj 348 324 * 1;
#X obj 273 322 * 1;
#X obj 306 213 noise~;
#X obj 311 235 *~ 0;
#X obj 297 139 vsl 15 60 0 1 0 0 empty empty empty 0 -9 0 10 -262144
-1 -1 0 1;
#X obj 249 218 noise~;
#X obj 254 240 *~ 0;
#X obj 188 327 * 1;
#X connect 4 0 19 0;
#X connect 5 0 4 0;
#X connect 5 0 6 0;
#X connect 5 0 7 0;
#X connect 6 0 13 0;
#X connect 7 0 12 0;
#X connect 8 0 6 0;
#X connect 9 0 4 0;
#X connect 10 0 7 0;
#X connect 11 0 2 0;
#X connect 12 0 11 0;
#X connect 13 0 1 0;
#X connect 14 0 15 0;
#X connect 15 0 6 0;
#X connect 16 0 15 1;
#X connect 16 0 18 1;
#X connect 17 0 18 0;
#X connect 18 0 4 0;
#X connect 19 0 0 0;
#X restore 261 504 pd freerot;
#X obj 181 556 translateXYZ;
#X obj 292 567 pipe 750;
#X obj 302 587 pipe 750;
#X obj 312 607 pipe 750;
#X obj 234 583 gemhead;
#X obj 210 647 translateXYZ;
#X obj 309 717 sphere 0.3 45;
#X obj 79 544 square 5;
#X obj 68 425 gemhead;
#X obj 36 483 pix_texture;
#X obj 44 457 pix_image;
#X obj 13 535 openpanel;
#X obj 2 517 bng 15 250 50 0 empty empty empty 17 7 0 10 -262144 -1
-1;
#X msg 7 571 set open \$1;
#X msg 24 407 open /home/yayo/Desktop/inasrasplat/RustedMetalWork2a.jpg
;
#X obj 43 509 translateXYZ 0 0 -1;
#X obj 240 683 pix_texture;
#X obj 184 663 pix_image;
#X obj 153 741 openpanel;
#X obj 142 723 bng 15 250 50 0 empty empty empty 17 7 0 10 -262144
-1 -1;
#X msg 147 777 set open \$1;
#X msg 236 745 open /home/yayo/Desktop/inasrasplat/MetalPanelB512.jpg
;
#X obj 12 367 letter -1 2;
#X obj 192 368 letter 1 2;
#X obj 267 368 letter 2 2;
#X obj 103 368 letter 0 2;
#X obj 347 368 letter 3 2;
#X obj 144 436 tgl 15 0 empty empty empty 17 7 0 10 -262144 -1 -1 0
1;
#X obj 354 647 alpha 1;
#X connect 1 0 0 0;
#X connect 2 0 0 0;
#X connect 3 0 0 0;
#X connect 4 0 0 0;
#X connect 5 0 0 0;
#X connect 7 0 6 0;
#X connect 9 0 8 0;
#X connect 10 0 9 0;
#X connect 11 0 9 1;
#X connect 12 0 6 0;
#X connect 13 0 6 0;
#X connect 14 0 6 0;
#X connect 15 0 6 0;
#X connect 16 0 6 0;
#X connect 17 0 6 0;
#X connect 18 0 6 0;
#X connect 19 0 6 0;
#X connect 20 0 6 0;
#X connect 21 0 0 0;
#X connect 22 0 21 0;
#X connect 24 0 26 0;
#X connect 25 0 26 1;
#X connect 25 0 27 0;
#X connect 25 1 26 2;
#X connect 25 1 28 0;
#X connect 25 2 26 3;
#X connect 25 2 29 0;
#X connect 26 0 23 0;
#X connect 27 0 31 1;
#X connect 28 0 31 2;
#X connect 29 0 31 3;
#X connect 30 0 31 0;
#X connect 31 0 43 0;
#X connect 34 0 36 0;
#X connect 35 0 41 0;
#X connect 36 0 35 0;
#X connect 37 0 39 0;
#X connect 38 0 37 0;
#X connect 39 0 40 0;
#X connect 40 0 36 0;
#X connect 41 0 33 0;
#X connect 42 0 54 0;
#X connect 43 0 42 0;
#X connect 44 0 46 0;
#X connect 45 0 44 0;
#X connect 46 0 47 0;
#X connect 47 0 43 0;
#X connect 53 0 34 0;
#X connect 54 0 32 0;
