#N canvas 863 22 377 684 10;
#X obj 78 42 bng 15 250 50 0 empty empty empty 0 -6 0 8 -262144 -1
-1;
#X obj 21 13 TuioClient;
#X obj 21 410 osc~ \$1;
#X obj 87 411 osc~ \$1;
#X obj 49 510 dac~;
#N canvas 1277 569 595 383 tuioObject 0;
#X obj 67 25 inlet;
#X obj 67 117 route addObject removeObject updateObject;
#X obj 67 155 unpack \$1 \$2;
#X obj 161 155 unpack \$1 \$2;
#X obj 361 222 * 480;
#X obj 408 222 * 360;
#X obj 408 191 / 6.28;
#X floatatom 307 253 5 0 0 0 - - -;
#X floatatom 361 253 5 0 0 0 - - -;
#X floatatom 408 253 5 0 0 0 - - -;
#X text 357 277 y-axis;
#X text 302 276 x-axis;
#X text 410 277 angle;
#X obj 307 222 * 640;
#X obj 255 157 unpack \$1 \$2 \$3 \$4 \$5;
#X obj 72 186 print addObject;
#X obj 170 187 print removeObject;
#X floatatom 67 215 5 0 0 0 - - -;
#X floatatom 161 216 5 0 0 0 - - -;
#X obj 307 320 outlet;
#X obj 361 320 outlet;
#X obj 408 320 outlet;
#X connect 0 0 1 0;
#X connect 1 0 2 0;
#X connect 1 1 3 0;
#X connect 1 2 14 0;
#X connect 2 0 17 0;
#X connect 2 1 15 0;
#X connect 3 0 18 0;
#X connect 3 1 16 0;
#X connect 4 0 8 0;
#X connect 5 0 9 0;
#X connect 6 0 5 0;
#X connect 7 0 19 0;
#X connect 8 0 20 0;
#X connect 9 0 21 0;
#X connect 13 0 7 0;
#X connect 14 2 13 0;
#X connect 14 3 4 0;
#X connect 14 4 6 0;
#X restore 103 101 pd tuioObject;
#N canvas 1270 66 480 470 tuioCursor 0;
#X obj 57 200 unpack \$1 \$2;
#X obj 151 200 unpack \$1 \$2;
#X obj 348 255 * 480;
#X floatatom 294 286 5 0 0 0 - - -;
#X floatatom 348 286 5 0 0 0 - - -;
#X text 344 310 y-axis;
#X text 289 309 x-axis;
#X obj 294 255 * 640;
#X obj 57 162 route addCursor removeCursor updateCursor;
#X obj 245 202 unpack \$1 \$2 \$3 \$4;
#X obj 67 232 print addCursor;
#X obj 159 234 print removeCursor;
#X obj 57 126 inlet;
#X obj 294 344 outlet;
#X obj 348 344 outlet;
#X floatatom 57 261 5 0 0 0 - - -;
#X floatatom 151 264 5 0 0 0 - - -;
#X floatatom 200 312 5 0 0 0 - - -;
#X floatatom 236 312 5 0 0 0 - - -;
#X obj 235 342 outlet;
#X connect 0 0 15 0;
#X connect 0 1 10 0;
#X connect 1 0 16 0;
#X connect 1 1 11 0;
#X connect 2 0 4 0;
#X connect 3 0 13 0;
#X connect 4 0 14 0;
#X connect 7 0 3 0;
#X connect 8 0 0 0;
#X connect 8 1 1 0;
#X connect 8 2 9 0;
#X connect 9 0 17 0;
#X connect 9 1 18 0;
#X connect 9 2 7 0;
#X connect 9 3 2 0;
#X connect 12 0 8 0;
#X connect 18 0 19 0;
#X restore 21 144 pd tuioCursor;
#X floatatom 58 184 8 0 0 0 - - -;
#X floatatom 125 185 8 0 0 0 - - -;
#X floatatom 21 251 5 0 0 0 - - -;
#X text 56 251 # BLOBS;
#X obj 21 278 > 0;
#X obj 21 308 tgl 15 0 empty empty empty 17 7 0 10 -262144 -1 -1 0
1;
#X obj 125 212 send Y;
#X obj 58 212 send X;
#X obj 21 451 *~;
#X obj 87 452 *~;
#X obj 21 333 send IO;
#X obj 36 430 r IO;
#X obj 102 431 r IO;
#X obj 87 381 receive Y;
#X obj 21 381 receive Y;
#X connect 1 0 5 0;
#X connect 1 0 6 0;
#X connect 1 1 0 0;
#X connect 2 0 15 0;
#X connect 3 0 16 0;
#X connect 6 0 9 0;
#X connect 6 1 7 0;
#X connect 6 2 8 0;
#X connect 7 0 14 0;
#X connect 8 0 13 0;
#X connect 9 0 11 0;
#X connect 11 0 12 0;
#X connect 12 0 17 0;
#X connect 15 0 4 0;
#X connect 16 0 4 1;
#X connect 18 0 15 1;
#X connect 19 0 16 1;
#X connect 20 0 3 0;
#X connect 21 0 2 0;
