#N canvas 592 262 353 336 10;
#X obj 4 10 cnv 10 296 40 empty empty empty 20 12 0 14 -1 -262144 0
;
#X obj 9 13 cnv 10 10 34 \$0-53 \$0-253 empty 20 12 0 14 -262144 -262144
0;
#X obj 21 13 cnv 10 10 34 \$0-55 \$0-255 empty 20 12 0 14 -262144 -262144
0;
#X obj 33 13 cnv 10 10 34 \$0-57 \$0-257 empty 20 12 0 14 -262144 -262144
0;
#X obj 45 13 cnv 10 10 34 \$0-59 \$0-259 empty 20 12 0 14 -262144 -262144
0;
#X obj 57 13 cnv 10 10 34 \$0-60 \$0-260 empty 20 12 0 14 -262144 -262144
0;
#X obj 69 13 cnv 10 10 34 \$0-62 \$0-262 empty 20 12 0 14 -262144 -262144
0;
#X obj 81 13 cnv 10 10 34 \$0-64 \$0-264 empty 20 12 0 14 -262144 -262144
0;
#X obj 93 13 cnv 10 10 34 \$0-65 \$0-265 empty 20 12 0 14 -262144 -262144
0;
#X obj 105 13 cnv 10 10 34 \$0-67 \$0-267 empty 20 12 0 14 -262144
-262144 0;
#X obj 117 13 cnv 10 10 34 \$0-69 \$0-269 empty 20 12 0 14 -262144
-262144 0;
#X obj 129 13 cnv 10 10 34 \$0-71 \$0-271 empty 20 12 0 14 -262144
-262144 0;
#X obj 141 13 cnv 10 10 34 \$0-72 \$0-272 empty 20 12 0 14 -262144
-262144 0;
#X obj 16 11 cnv 7 7 24 \$0-54 \$0-254 empty 20 12 0 14 -1 -262144
0;
#X obj 28 11 cnv 7 7 24 \$0-56 \$0-256 empty 20 12 0 14 -1 -262144
0;
#X obj 40 11 cnv 7 7 24 \$0-58 \$0-258 empty 20 12 0 14 -1 -262144
0;
#X obj 65 11 cnv 7 7 24 \$0-61 \$0-261 empty 20 12 0 14 -1 -262144
0;
#X obj 77 11 cnv 7 7 24 \$0-63 \$0-263 empty 20 12 0 14 -1 -262144
0;
#X obj 101 11 cnv 7 7 24 \$0-66 \$0-266 empty 20 12 0 14 -1 -262144
0;
#X obj 113 11 cnv 7 7 24 \$0-68 \$0-268 empty 20 12 0 14 -1 -262144
0;
#X obj 125 11 cnv 7 7 24 \$0-70 \$0-270 empty 20 12 0 14 -1 -262144
0;
#X obj 153 13 cnv 10 10 34 \$0-74 \$0-274 empty 20 12 0 14 -262144
-262144 0;
#X obj 165 13 cnv 10 10 34 \$0-76 \$0-276 empty 20 12 0 14 -262144
-262144 0;
#X obj 177 13 cnv 10 10 34 \$0-77 \$0-277 empty 20 12 0 14 -262144
-262144 0;
#X obj 148 11 cnv 7 7 24 \$0-73 \$0-273 empty 20 12 0 14 -1 -262144
0;
#X obj 160 11 cnv 7 7 24 \$0-75 \$0-275 empty 20 12 0 14 -1 -262144
0;
#X obj 189 13 cnv 10 10 34 \$0-79 \$0-279 empty 20 12 0 14 -262144
-262144 0;
#X obj 201 13 cnv 10 10 34 \$0-81 \$0-281 empty 20 12 0 14 -262144
-262144 0;
#X obj 213 13 cnv 10 10 34 \$0-83 \$0-283 empty 20 12 0 14 -262144
-262144 0;
#X obj 225 13 cnv 10 10 34 \$0-84 \$0-284 empty 20 12 0 14 -262144
-262144 0;
#X obj 185 11 cnv 7 7 24 \$0-78 \$0-278 empty 20 12 0 14 -1 -262144
0;
#X obj 197 11 cnv 7 7 24 \$0-80 \$0-280 empty 20 12 0 14 -1 -262144
0;
#X obj 209 11 cnv 7 7 24 \$0-82 \$0-282 empty 20 12 0 14 -1 -262144
0;
#X obj 237 13 cnv 10 10 34 \$0-86 \$0-286 empty 20 12 0 14 -262144
-262144 0;
#X obj 249 13 cnv 10 10 34 \$0-88 \$0-288 empty 20 12 0 14 -262144
-262144 0;
#X obj 232 11 cnv 7 7 24 \$0-85 \$0-285 empty 20 12 0 14 -1 -262144
0;
#X obj 244 11 cnv 7 7 24 \$0-87 \$0-287 empty 20 12 0 14 -1 -262144
0;
#X obj 261 13 cnv 10 10 34 \$0-89 \$0-289 empty 20 12 0 14 -262144
-262144 0;
#X obj 273 13 cnv 10 10 34 \$0-91 \$0-291 empty 20 12 0 14 -262144
-262144 0;
#X obj 285 13 cnv 10 10 34 \$0-93 \$0-293 empty 20 12 0 14 -262144
-262144 0;
#X obj 268 11 cnv 7 7 24 \$0-90 \$0-290 empty 20 12 0 14 -1 -262144
0;
#X obj 280 11 cnv 7 7 24 \$0-92 \$0-292 empty 20 12 0 14 -1 -262144
0;
#N canvas 0 22 494 344 pollflush 0;
#X obj 133 200 bag;
#X msg 152 175 flush;
#X obj 205 200 bag;
#X msg 202 175 flush;
#X msg 164 217 \$1 4;
#X msg 163 197 \$1 4;
#X obj 57 35 inlet;
#X obj 158 260 outlet;
#X obj 174 99 int 0;
#X obj 227 102 + 1;
#X obj 205 122 % 2;
#X obj 171 149 sel 0 1;
#X obj 191 51 inlet;
#X obj 191 73 bang;
#X text 34 15 midi pairs;
#X text 197 32 bang to poll;
#X text 251 138 bag with holding function;
#X obj 19 106 unpack;
#X obj 42 135 sel 0;
#X obj 76 156 list;
#X msg 306 62 clear;
#X obj 317 3 inlet;
#X obj 332 30 bang;
#X connect 0 0 4 0;
#X connect 0 0 7 0;
#X connect 1 0 0 0;
#X connect 2 0 5 0;
#X connect 2 0 7 0;
#X connect 3 0 2 0;
#X connect 4 0 2 0;
#X connect 5 0 0 0;
#X connect 6 0 0 0;
#X connect 6 0 2 0;
#X connect 6 0 19 1;
#X connect 6 0 17 0;
#X connect 8 0 9 0;
#X connect 9 0 10 0;
#X connect 10 0 8 1;
#X connect 10 0 11 0;
#X connect 11 0 1 0;
#X connect 11 1 3 0;
#X connect 12 0 13 0;
#X connect 13 0 8 0;
#X connect 17 1 18 0;
#X connect 18 0 19 0;
#X connect 19 0 0 0;
#X connect 19 0 2 0;
#X connect 20 0 2 0;
#X connect 20 0 0 0;
#X connect 21 0 22 0;
#X connect 22 0 20 0;
#X restore 151 130 pd pollflush;
#X obj 215 104 metro 200;
#N canvas 411 205 505 489 53to63 0;
#X obj 97 21 inlet;
#X obj 129 385 outlet;
#N canvas 0 22 208 203 color62 0;
#X obj 61 107 s \$0-262;
#X msg 44 66 color 21;
#X obj 80 17 inlet;
#X obj 89 47 del 200;
#X msg 64 86 color 0;
#X connect 1 0 0 0;
#X connect 2 0 1 0;
#X connect 2 0 3 0;
#X connect 3 0 4 0;
#X connect 4 0 0 0;
#X restore 284 329 pd color62;
#N canvas 0 22 204 199 color53 0;
#X msg 44 66 color 21;
#X msg 64 86 color 0;
#X obj 80 17 inlet;
#X obj 89 47 del 200;
#X obj 61 107 s \$0-253;
#X connect 0 0 4 0;
#X connect 1 0 4 0;
#X connect 2 0 0 0;
#X connect 2 0 3 0;
#X connect 3 0 1 0;
#X restore 144 149 pd color53;
#N canvas 0 22 220 215 color54 0;
#X msg 44 66 color 21;
#X obj 80 17 inlet;
#X obj 89 47 del 200;
#X obj 61 107 s \$0-254;
#X msg 64 86 color -1;
#X connect 0 0 3 0;
#X connect 1 0 0 0;
#X connect 1 0 2 0;
#X connect 2 0 4 0;
#X connect 4 0 3 0;
#X restore 154 169 pd color54;
#N canvas 0 22 208 203 color55 0;
#X msg 44 66 color 21;
#X obj 80 17 inlet;
#X obj 89 47 del 200;
#X obj 61 107 s \$0-255;
#X msg 64 86 color 0;
#X connect 0 0 3 0;
#X connect 1 0 0 0;
#X connect 1 0 2 0;
#X connect 2 0 4 0;
#X connect 4 0 3 0;
#X restore 174 189 pd color55;
#N canvas 0 22 204 199 color56 0;
#X msg 44 66 color 21;
#X obj 80 17 inlet;
#X obj 89 47 del 200;
#X obj 61 107 s \$0-256;
#X msg 64 86 color -1;
#X connect 0 0 3 0;
#X connect 1 0 0 0;
#X connect 1 0 2 0;
#X connect 2 0 4 0;
#X connect 4 0 3 0;
#X restore 184 209 pd color56;
#N canvas 0 22 200 195 color57 0;
#X msg 44 66 color 21;
#X msg 64 86 color 0;
#X obj 80 17 inlet;
#X obj 89 47 del 200;
#X obj 61 107 s \$0-257;
#X connect 0 0 4 0;
#X connect 1 0 4 0;
#X connect 2 0 0 0;
#X connect 2 0 3 0;
#X connect 3 0 1 0;
#X restore 204 229 pd color57;
#N canvas 0 22 204 199 color58 0;
#X msg 44 66 color 21;
#X obj 80 17 inlet;
#X obj 89 47 del 200;
#X obj 61 107 s \$0-258;
#X msg 64 86 color -1;
#X connect 0 0 3 0;
#X connect 1 0 0 0;
#X connect 1 0 2 0;
#X connect 2 0 4 0;
#X connect 4 0 3 0;
#X restore 228 249 pd color58;
#N canvas 0 22 204 199 color59 0;
#X msg 44 66 color 21;
#X obj 80 17 inlet;
#X obj 89 47 del 200;
#X obj 61 107 s \$0-259;
#X msg 64 86 color 0;
#X connect 0 0 3 0;
#X connect 1 0 0 0;
#X connect 1 0 2 0;
#X connect 2 0 4 0;
#X connect 4 0 3 0;
#X restore 234 269 pd color59;
#N canvas 0 22 204 199 color60 0;
#X msg 44 66 color 21;
#X obj 80 17 inlet;
#X obj 89 47 del 200;
#X obj 68 109 s \$0-260;
#X msg 64 86 color 0;
#X connect 0 0 3 0;
#X connect 1 0 0 0;
#X connect 1 0 2 0;
#X connect 2 0 4 0;
#X connect 4 0 3 0;
#X restore 254 289 pd color60;
#N canvas 0 22 204 199 color61 0;
#X msg 44 66 color 21;
#X obj 80 17 inlet;
#X obj 89 47 del 200;
#X obj 61 107 s \$0-261;
#X msg 64 86 color -1;
#X connect 0 0 3 0;
#X connect 1 0 0 0;
#X connect 1 0 2 0;
#X connect 2 0 4 0;
#X connect 4 0 3 0;
#X restore 265 309 pd color61;
#X obj 138 74 sel 53 54 55 56 57 58 59 60 61 62;
#X connect 0 0 12 0;
#X connect 12 0 3 0;
#X connect 12 1 4 0;
#X connect 12 2 5 0;
#X connect 12 3 6 0;
#X connect 12 4 7 0;
#X connect 12 5 8 0;
#X connect 12 6 9 0;
#X connect 12 7 10 0;
#X connect 12 8 11 0;
#X connect 12 9 2 0;
#X restore 25 156 pd 53to63;
#N canvas 507 218 466 316 63to73 0;
#X obj 97 21 inlet;
#X obj 129 385 outlet;
#N canvas 0 22 200 195 color72 0;
#X obj 61 107 s \$0-272;
#X msg 44 66 color 21;
#X msg 64 86 color 0;
#X obj 80 17 inlet;
#X obj 89 47 del 200;
#X connect 1 0 0 0;
#X connect 2 0 0 0;
#X connect 3 0 1 0;
#X connect 3 0 4 0;
#X connect 4 0 2 0;
#X restore 284 329 pd color72;
#N canvas 0 22 204 199 color63 0;
#X msg 44 66 color 21;
#X obj 80 17 inlet;
#X obj 89 47 del 200;
#X obj 61 107 s \$0-263;
#X msg 63 85 color -1;
#X connect 0 0 3 0;
#X connect 1 0 0 0;
#X connect 1 0 2 0;
#X connect 2 0 4 0;
#X connect 4 0 3 0;
#X restore 144 149 pd color63;
#N canvas 0 22 200 195 color64 0;
#X msg 44 66 color 21;
#X msg 64 86 color 0;
#X obj 80 17 inlet;
#X obj 89 47 del 200;
#X obj 61 107 s \$0-264;
#X connect 0 0 4 0;
#X connect 1 0 4 0;
#X connect 2 0 0 0;
#X connect 2 0 3 0;
#X connect 3 0 1 0;
#X restore 154 169 pd color64;
#N canvas 0 22 200 195 color65 0;
#X msg 44 66 color 21;
#X msg 64 86 color 0;
#X obj 80 17 inlet;
#X obj 89 47 del 200;
#X obj 61 107 s \$0-265;
#X connect 0 0 4 0;
#X connect 1 0 4 0;
#X connect 2 0 0 0;
#X connect 2 0 3 0;
#X connect 3 0 1 0;
#X restore 174 189 pd color65;
#N canvas 0 22 204 199 color66 0;
#X msg 44 66 color 21;
#X obj 80 17 inlet;
#X obj 89 47 del 200;
#X obj 61 107 s \$0-266;
#X msg 64 86 color -1;
#X connect 0 0 3 0;
#X connect 1 0 0 0;
#X connect 1 0 2 0;
#X connect 2 0 4 0;
#X connect 4 0 3 0;
#X restore 184 209 pd color66;
#N canvas 0 22 200 195 color67 0;
#X msg 44 66 color 21;
#X msg 64 86 color 0;
#X obj 80 17 inlet;
#X obj 89 47 del 200;
#X obj 61 107 s \$0-267;
#X connect 0 0 4 0;
#X connect 1 0 4 0;
#X connect 2 0 0 0;
#X connect 2 0 3 0;
#X connect 3 0 1 0;
#X restore 204 229 pd color67;
#N canvas 0 22 204 199 color68 0;
#X msg 44 66 color 21;
#X obj 80 17 inlet;
#X obj 89 47 del 200;
#X obj 61 107 s \$0-268;
#X msg 64 86 color -1;
#X connect 0 0 3 0;
#X connect 1 0 0 0;
#X connect 1 0 2 0;
#X connect 2 0 4 0;
#X connect 4 0 3 0;
#X restore 228 249 pd color68;
#N canvas 0 22 200 195 color69 0;
#X msg 44 66 color 21;
#X msg 64 86 color 0;
#X obj 80 17 inlet;
#X obj 89 47 del 200;
#X obj 61 107 s \$0-269;
#X connect 0 0 4 0;
#X connect 1 0 4 0;
#X connect 2 0 0 0;
#X connect 2 0 3 0;
#X connect 3 0 1 0;
#X restore 234 269 pd color69;
#N canvas 0 22 204 199 color70 0;
#X msg 44 66 color 21;
#X obj 80 17 inlet;
#X obj 89 47 del 200;
#X obj 68 109 s \$0-270;
#X msg 64 86 color -1;
#X connect 0 0 3 0;
#X connect 1 0 0 0;
#X connect 1 0 2 0;
#X connect 2 0 4 0;
#X connect 4 0 3 0;
#X restore 254 289 pd color70;
#N canvas 0 22 200 195 color71 0;
#X msg 44 66 color 21;
#X msg 64 86 color 0;
#X obj 80 17 inlet;
#X obj 89 47 del 200;
#X obj 61 107 s \$0-271;
#X connect 0 0 4 0;
#X connect 1 0 4 0;
#X connect 2 0 0 0;
#X connect 2 0 3 0;
#X connect 3 0 1 0;
#X restore 265 309 pd color71;
#X obj 138 74 sel 63 64 65 66 67 68 69 70 71 72;
#X connect 0 0 12 0;
#X connect 12 0 3 0;
#X connect 12 1 4 0;
#X connect 12 2 5 0;
#X connect 12 3 6 0;
#X connect 12 4 7 0;
#X connect 12 5 8 0;
#X connect 12 6 9 0;
#X connect 12 7 10 0;
#X connect 12 8 11 0;
#X connect 12 9 2 0;
#X restore 45 181 pd 63to73;
#N canvas 312 350 478 328 73to83 0;
#X obj 97 21 inlet;
#X obj 129 385 outlet;
#N canvas 0 22 204 199 color82 0;
#X obj 61 107 s \$0-282;
#X msg 44 66 color 21;
#X obj 80 17 inlet;
#X obj 89 47 del 200;
#X msg 64 86 color -1;
#X connect 1 0 0 0;
#X connect 2 0 1 0;
#X connect 2 0 3 0;
#X connect 3 0 4 0;
#X connect 4 0 0 0;
#X restore 284 329 pd color82;
#N canvas 0 22 204 199 color73 0;
#X msg 44 66 color 21;
#X obj 80 17 inlet;
#X obj 89 47 del 200;
#X obj 61 107 s \$0-273;
#X msg 64 86 color -1;
#X connect 0 0 3 0;
#X connect 1 0 0 0;
#X connect 1 0 2 0;
#X connect 2 0 4 0;
#X connect 4 0 3 0;
#X restore 144 149 pd color73;
#N canvas 0 22 200 195 color74 0;
#X msg 44 66 color 21;
#X msg 64 86 color 0;
#X obj 80 17 inlet;
#X obj 89 47 del 200;
#X obj 61 107 s \$0-274;
#X connect 0 0 4 0;
#X connect 1 0 4 0;
#X connect 2 0 0 0;
#X connect 2 0 3 0;
#X connect 3 0 1 0;
#X restore 154 169 pd color74;
#N canvas 0 22 204 199 color75 0;
#X msg 44 66 color 21;
#X obj 80 17 inlet;
#X obj 89 47 del 200;
#X obj 61 107 s \$0-275;
#X msg 64 86 color -1;
#X connect 0 0 3 0;
#X connect 1 0 0 0;
#X connect 1 0 2 0;
#X connect 2 0 4 0;
#X connect 4 0 3 0;
#X restore 174 189 pd color75;
#N canvas 0 22 200 195 color76 0;
#X msg 44 66 color 21;
#X msg 64 86 color 0;
#X obj 80 17 inlet;
#X obj 89 47 del 200;
#X obj 61 107 s \$0-276;
#X connect 0 0 4 0;
#X connect 1 0 4 0;
#X connect 2 0 0 0;
#X connect 2 0 3 0;
#X connect 3 0 1 0;
#X restore 184 209 pd color76;
#N canvas 0 22 200 195 color77 0;
#X msg 44 66 color 21;
#X msg 64 86 color 0;
#X obj 80 17 inlet;
#X obj 89 47 del 200;
#X obj 61 107 s \$0-277;
#X connect 0 0 4 0;
#X connect 1 0 4 0;
#X connect 2 0 0 0;
#X connect 2 0 3 0;
#X connect 3 0 1 0;
#X restore 204 229 pd color77;
#N canvas 0 22 208 203 color78 0;
#X msg 44 66 color 21;
#X obj 80 17 inlet;
#X obj 89 47 del 200;
#X obj 61 107 s \$0-278;
#X msg 64 86 color -1;
#X connect 0 0 3 0;
#X connect 1 0 0 0;
#X connect 1 0 2 0;
#X connect 2 0 4 0;
#X connect 4 0 3 0;
#X restore 228 249 pd color78;
#N canvas 0 22 204 199 color79 0;
#X msg 44 66 color 21;
#X msg 64 86 color 0;
#X obj 80 17 inlet;
#X obj 89 47 del 200;
#X obj 61 107 s \$0-279;
#X connect 0 0 4 0;
#X connect 1 0 4 0;
#X connect 2 0 0 0;
#X connect 2 0 3 0;
#X connect 3 0 1 0;
#X restore 234 269 pd color79;
#N canvas 0 22 204 199 color80 0;
#X msg 44 66 color 21;
#X obj 80 17 inlet;
#X obj 89 47 del 200;
#X obj 68 109 s \$0-280;
#X msg 64 86 color -1;
#X connect 0 0 3 0;
#X connect 1 0 0 0;
#X connect 1 0 2 0;
#X connect 2 0 4 0;
#X connect 4 0 3 0;
#X restore 254 289 pd color80;
#N canvas 0 22 204 199 color81 0;
#X msg 44 66 color 21;
#X msg 64 86 color 0;
#X obj 80 17 inlet;
#X obj 89 47 del 200;
#X obj 61 107 s \$0-281;
#X connect 0 0 4 0;
#X connect 1 0 4 0;
#X connect 2 0 0 0;
#X connect 2 0 3 0;
#X connect 3 0 1 0;
#X restore 265 309 pd color81;
#X obj 138 74 sel 73 74 75 76 77 78 79 80 81 82;
#X connect 0 0 12 0;
#X connect 12 0 3 0;
#X connect 12 1 4 0;
#X connect 12 2 5 0;
#X connect 12 3 6 0;
#X connect 12 4 7 0;
#X connect 12 5 8 0;
#X connect 12 6 9 0;
#X connect 12 7 10 0;
#X connect 12 8 11 0;
#X connect 12 9 2 0;
#X restore 70 208 pd 73to83;
#N canvas 0 22 513 440 83to93 0;
#X obj 97 21 inlet;
#X obj 129 385 outlet;
#N canvas 0 22 204 199 color92 0;
#X obj 61 107 s \$0-292;
#X msg 44 66 color 21;
#X obj 80 17 inlet;
#X obj 89 47 del 200;
#X msg 64 86 color -1;
#X connect 1 0 0 0;
#X connect 2 0 1 0;
#X connect 2 0 3 0;
#X connect 3 0 4 0;
#X connect 4 0 0 0;
#X restore 284 329 pd color92;
#N canvas 0 22 204 199 color83 0;
#X msg 44 66 color 21;
#X obj 80 17 inlet;
#X obj 89 47 del 200;
#X obj 61 107 s \$0-283;
#X msg 67 87 color 0;
#X connect 0 0 3 0;
#X connect 1 0 0 0;
#X connect 1 0 2 0;
#X connect 2 0 4 0;
#X connect 4 0 3 0;
#X restore 144 149 pd color83;
#N canvas 0 22 204 199 color84 0;
#X msg 44 66 color 21;
#X obj 80 17 inlet;
#X obj 89 47 del 200;
#X obj 61 107 s \$0-284;
#X msg 64 86 color 0;
#X connect 0 0 3 0;
#X connect 1 0 0 0;
#X connect 1 0 2 0;
#X connect 2 0 4 0;
#X connect 4 0 3 0;
#X restore 154 169 pd color84;
#N canvas 0 22 204 199 color85 0;
#X msg 44 66 color 21;
#X obj 80 17 inlet;
#X obj 89 47 del 200;
#X obj 61 107 s \$0-285;
#X msg 64 86 color -1;
#X connect 0 0 3 0;
#X connect 1 0 0 0;
#X connect 1 0 2 0;
#X connect 2 0 4 0;
#X connect 4 0 3 0;
#X restore 174 189 pd color85;
#N canvas 0 22 200 195 color86 0;
#X msg 44 66 color 21;
#X msg 64 86 color 0;
#X obj 80 17 inlet;
#X obj 89 47 del 200;
#X obj 61 107 s \$0-286;
#X connect 0 0 4 0;
#X connect 1 0 4 0;
#X connect 2 0 0 0;
#X connect 2 0 3 0;
#X connect 3 0 1 0;
#X restore 184 209 pd color86;
#N canvas 0 22 204 199 color87 0;
#X msg 44 66 color 21;
#X obj 80 17 inlet;
#X obj 89 47 del 200;
#X obj 61 107 s \$0-287;
#X msg 67 86 color -1;
#X connect 0 0 3 0;
#X connect 1 0 0 0;
#X connect 1 0 2 0;
#X connect 2 0 4 0;
#X connect 4 0 3 0;
#X restore 204 229 pd color87;
#N canvas 0 22 200 195 color88 0;
#X msg 44 66 color 21;
#X msg 64 86 color 0;
#X obj 80 17 inlet;
#X obj 89 47 del 200;
#X obj 61 107 s \$0-288;
#X connect 0 0 4 0;
#X connect 1 0 4 0;
#X connect 2 0 0 0;
#X connect 2 0 3 0;
#X connect 3 0 1 0;
#X restore 228 249 pd color88;
#N canvas 0 22 204 199 color89 0;
#X msg 44 66 color 21;
#X msg 64 86 color 0;
#X obj 80 17 inlet;
#X obj 89 47 del 200;
#X obj 61 107 s \$0-289;
#X connect 0 0 4 0;
#X connect 1 0 4 0;
#X connect 2 0 0 0;
#X connect 2 0 3 0;
#X connect 3 0 1 0;
#X restore 234 269 pd color89;
#N canvas 0 22 204 199 color90 0;
#X msg 44 66 color 21;
#X obj 80 17 inlet;
#X obj 89 47 del 200;
#X obj 68 109 s \$0-290;
#X msg 64 86 color -1;
#X connect 0 0 3 0;
#X connect 1 0 0 0;
#X connect 1 0 2 0;
#X connect 2 0 4 0;
#X connect 4 0 3 0;
#X restore 254 289 pd color90;
#N canvas 0 22 200 195 color91 0;
#X msg 44 66 color 21;
#X msg 64 86 color 0;
#X obj 80 17 inlet;
#X obj 89 47 del 200;
#X obj 61 107 s \$0-291;
#X connect 0 0 4 0;
#X connect 1 0 4 0;
#X connect 2 0 0 0;
#X connect 2 0 3 0;
#X connect 3 0 1 0;
#X restore 265 309 pd color91;
#N canvas 0 22 208 203 color93 0;
#X msg 44 66 color 21;
#X obj 80 17 inlet;
#X obj 89 47 del 200;
#X msg 64 86 color 0;
#X obj 61 107 s \$0-293;
#X connect 0 0 4 0;
#X connect 1 0 0 0;
#X connect 1 0 2 0;
#X connect 2 0 3 0;
#X connect 3 0 4 0;
#X restore 294 349 pd color93;
#X obj 138 74 sel 83 84 85 86 87 88 89 90 91 92 93;
#X connect 0 0 13 0;
#X connect 13 0 3 0;
#X connect 13 1 4 0;
#X connect 13 2 5 0;
#X connect 13 3 6 0;
#X connect 13 4 7 0;
#X connect 13 5 8 0;
#X connect 13 6 9 0;
#X connect 13 7 10 0;
#X connect 13 8 11 0;
#X connect 13 9 2 0;
#X connect 13 10 12 0;
#X restore 93 234 pd 83to93;
#X obj 218 61 loadbang;
#X msg 205 84 1;
#X obj 151 105 inlet;
#X obj 298 80 inlet;
#X connect 42 0 44 0;
#X connect 42 0 45 0;
#X connect 42 0 46 0;
#X connect 42 0 47 0;
#X connect 43 0 42 1;
#X connect 48 0 49 0;
#X connect 49 0 43 0;
#X connect 50 0 42 0;
#X connect 51 0 42 2;
#X coords 0 -1 1 1 296 40 1 4 10;
