#N canvas 388 161 771 529 10;
#X obj 214 281 int;
#X obj 266 97 beat;
#X msg 265 59 reset;
#X obj 179 334 scaleloader;
#X msg 86 220 1;
#X msg 129 271 5;
#X msg 150 248 3;
#X msg 180 227 8;
#X msg 190 238 10;
#X msg 214 240 11;
#X msg 241 228 2;
#X msg 250 239 4;
#X obj 245 471 noteout 1;
#X msg 324 283 46 major;
#X obj 228 445 makenote;
#X obj 273 129 * 0.125;
#X obj 383 173 countto 16;
#X msg 339 310 43 minor;
#X msg 353 336 39 major;
#X msg 377 365 43 major;
#X obj 382 204 sel 0;
#X obj 357 225 countto 4;
#X obj 350 252 sel 0 1 2 3;
#X obj 191 57 stripnote;
#X obj 215 26 notein;
#X obj 139 181 sel 49 38 43 45 48 51 49 46 44 42 36;
#X connect 0 0 3 0;
#X connect 1 1 15 0;
#X connect 1 2 16 0;
#X connect 2 0 1 0;
#X connect 3 0 14 0;
#X connect 4 0 0 0;
#X connect 6 0 0 0;
#X connect 7 0 0 0;
#X connect 8 0 0 0;
#X connect 10 0 0 0;
#X connect 11 0 0 0;
#X connect 13 0 3 1;
#X connect 14 0 12 0;
#X connect 14 1 12 1;
#X connect 15 0 14 2;
#X connect 16 0 20 0;
#X connect 17 0 3 1;
#X connect 18 0 3 1;
#X connect 19 0 3 1;
#X connect 20 0 21 0;
#X connect 21 0 22 0;
#X connect 22 0 13 0;
#X connect 22 1 17 0;
#X connect 22 2 18 0;
#X connect 22 3 19 0;
#X connect 23 0 1 0;
#X connect 23 0 25 0;
#X connect 23 1 1 1;
#X connect 23 1 14 1;
#X connect 24 0 23 0;
#X connect 24 1 23 1;
#X connect 25 0 4 0;
#X connect 25 1 5 0;
#X connect 25 2 6 0;
#X connect 25 3 7 0;
#X connect 25 4 8 0;
#X connect 25 5 9 0;
#X connect 25 6 10 0;
#X connect 25 7 11 0;
#X connect 25 8 4 0;
#X connect 25 9 6 0;
#X connect 25 10 9 0;
#X connect 25 11 11 0;
