#N canvas 520 305 955 612 10;
#X obj 124 261 int;
#X obj 266 97 beat;
#X msg 268 68 reset;
#X msg 32 199 1;
#X msg 93 231 5;
#X msg 60 228 3;
#X msg 90 207 8;
#X msg 111 183 10;
#X msg 124 220 11;
#X msg 151 208 2;
#X msg 160 219 4;
#X obj 245 471 noteout 1;
#X obj 228 445 makenote;
#X obj 274 423 * 0.125;
#X obj 191 57 stripnote;
#X obj 215 26 notein;
#X obj 46 141 sel 49 38 43 45 48 51 49 46 44 42 36;
#X obj 537 199 unpack;
#X floatatom 681 79 5 0 0 0 - - -;
#X obj 578 78 netreceive 10666;
#X obj 520 234 chord;
#X floatatom 510 257 5 0 0 0 - - -;
#X obj 435 313 sel 1 3 5 8 10 11 2 4;
#X obj 580 300 unpack f f f f f f;
#X msg 450 368 60;
#X msg 464 389 74;
#X msg 482 414 77;
#X msg 487 367 67;
#X msg 493 391 81;
#X msg 521 417;
#X msg 529 369 72;
#X msg 541 393 89;
#X msg 560 417 79;
#X msg 569 375;
#X msg 597 334 set \$1;
#X msg 621 355 set \$1;
#X msg 631 365 set \$1;
#X msg 641 375 set \$1;
#X msg 651 385 set \$1;
#X obj 701 350 + 12;
#X obj 713 359 + 12;
#X obj 723 369 + 12;
#X msg 707 387 set \$1;
#X msg 717 397 set \$1;
#X msg 727 407 set \$1;
#X obj 415 421 int;
#X obj 442 448 pipe 500;
#X obj 432 499 noteout 3;
#X obj 416 473 makenote 65;
#X obj 587 429 * 4;
#X obj 535 477 + 12;
#X obj 358 430 - 36;
#X obj 578 500 pipe 500;
#X obj 566 559 noteout 3;
#X obj 550 533 makenote 65;
#X obj 669 537 + 12;
#N canvas 4 75 450 300 chordname 0;
#X symbolatom 101 103 12 0 0 0 - - -;
#X obj 84 72 list split 2;
#X obj 120 51 l;
#X obj 79 23 inlet;
#X connect 1 2 0 0;
#X connect 2 0 1 0;
#X connect 3 0 2 0;
#X coords 0 -1 1 1 85 25 2 100 100;
#X restore 571 230 pd chordname;
#X obj 409 167 int;
#X text 409 141 beat bass;
#X connect 0 0 22 0;
#X connect 1 1 13 0;
#X connect 1 1 49 0;
#X connect 1 2 57 0;
#X connect 2 0 1 0;
#X connect 3 0 0 0;
#X connect 4 0 0 0;
#X connect 5 0 0 0;
#X connect 6 0 0 0;
#X connect 7 0 0 0;
#X connect 9 0 0 0;
#X connect 10 0 0 0;
#X connect 12 0 11 0;
#X connect 12 1 11 1;
#X connect 13 0 12 2;
#X connect 14 0 1 0;
#X connect 14 0 16 0;
#X connect 14 1 1 1;
#X connect 14 1 12 1;
#X connect 15 0 14 0;
#X connect 15 1 14 1;
#X connect 16 0 3 0;
#X connect 16 2 5 0;
#X connect 16 3 6 0;
#X connect 16 4 7 0;
#X connect 16 5 8 0;
#X connect 16 6 9 0;
#X connect 16 7 10 0;
#X connect 16 8 4 0;
#X connect 16 9 5 0;
#X connect 16 10 8 0;
#X connect 16 11 10 0;
#X connect 17 0 20 0;
#X connect 17 1 20 1;
#X connect 19 0 17 0;
#X connect 19 1 18 0;
#X connect 20 0 21 0;
#X connect 20 2 56 0;
#X connect 20 4 23 0;
#X connect 21 0 57 1;
#X connect 22 0 24 0;
#X connect 22 1 25 0;
#X connect 22 2 26 0;
#X connect 22 3 27 0;
#X connect 22 4 28 0;
#X connect 22 5 30 0;
#X connect 22 6 31 0;
#X connect 22 7 32 0;
#X connect 23 0 34 0;
#X connect 23 0 39 0;
#X connect 23 1 35 0;
#X connect 23 2 36 0;
#X connect 23 2 40 0;
#X connect 23 3 37 0;
#X connect 23 3 41 0;
#X connect 23 4 38 0;
#X connect 24 0 45 0;
#X connect 25 0 45 0;
#X connect 26 0 45 0;
#X connect 27 0 45 0;
#X connect 28 0 45 0;
#X connect 29 0 45 0;
#X connect 30 0 45 0;
#X connect 31 0 45 0;
#X connect 32 0 45 0;
#X connect 34 0 24 0;
#X connect 35 0 25 0;
#X connect 36 0 26 0;
#X connect 37 0 27 0;
#X connect 38 0 28 0;
#X connect 39 0 42 0;
#X connect 40 0 43 0;
#X connect 41 0 44 0;
#X connect 42 0 30 0;
#X connect 43 0 31 0;
#X connect 44 0 32 0;
#X connect 45 0 46 0;
#X connect 45 0 51 0;
#X connect 46 0 50 0;
#X connect 46 0 52 0;
#X connect 48 0 47 0;
#X connect 48 1 47 1;
#X connect 49 0 46 1;
#X connect 49 0 52 1;
#X connect 50 0 48 0;
#X connect 51 0 12 0;
#X connect 52 0 55 0;
#X connect 54 0 53 0;
#X connect 54 1 53 1;
#X connect 55 0 54 0;
