#N canvas 614 457 1060 525 10;
#X text 293 18 percussion;
#X msg 3 188 info;
#X obj 37 188 print ring;
#N canvas 377 192 450 300 waveshape 0;
#X obj 60 237 outlet;
#X obj 104 101 hsl 78 15 -1 1 0 0 empty empty Sine 4 8 0 10 -262144
-1 -1 6750 1;
#X obj 104 116 hsl 78 15 -1 1 0 0 empty empty Triangle 4 8 0 10 -262144
-1 -1 0 1;
#X obj 104 131 hsl 78 15 -1 1 0 0 empty empty Sawtooth 4 8 0 10 -262144
-1 -1 3850 1;
#X obj 104 146 hsl 78 15 -1 1 0 0 empty empty Square 4 8 0 10 -262144
-1 -1 3850 1;
#X msg 187 131 control Sawtooth \$1;
#X msg 196 149 control Square \$1;
#X msg 198 101 control Sine \$1;
#X msg 206 119 control Triangle \$1;
#X msg 163 37 0;
#X obj 270 44 inlet;
#X connect 1 0 7 0;
#X connect 2 0 8 0;
#X connect 3 0 5 0;
#X connect 4 0 6 0;
#X connect 5 0 0 0;
#X connect 6 0 0 0;
#X connect 7 0 0 0;
#X connect 8 0 0 0;
#X connect 9 0 1 0;
#X connect 9 0 2 0;
#X connect 9 0 3 0;
#X connect 9 0 4 0;
#X connect 10 0 9 0;
#X coords 0 -1 1 1 85 62 2 100 100;
#X restore 19 21 pd waveshape;
#X msg -38 123 control Modulation \$1;
#X floatatom -39 98 5 0 0 0 - - -;
#X obj 322 112 beat;
#N canvas 5 50 531 398 auto.ctl 0;
#X msg 212 313 control Frequency \$1;
#X floatatom 224 237 5 0 1000 0 - - -;
#X msg 245 155 0.5;
#X msg 263 168 1;
#X msg 284 177 2;
#X obj 337 181 sel 0;
#X obj 282 214 *;
#X obj 347 203 expr 60/$f1;
#X msg 267 136 4;
#X msg 277 146 8;
#X obj 347 155 inlet tempo;
#X obj 284 86 inlet rate;
#X obj 217 107 sel 0 1 2 3 4 5 6;
#X obj 161 337 outlet;
#X obj 325 233 bang;
#X obj 227 287 line;
#X msg 308 164 16;
#X msg 250 265 \$1 20;
#X msg 245 198 4;
#X connect 0 0 13 0;
#X connect 1 0 17 0;
#X connect 2 0 6 0;
#X connect 3 0 6 0;
#X connect 4 0 6 0;
#X connect 5 1 7 0;
#X connect 6 0 1 0;
#X connect 7 0 6 1;
#X connect 7 0 14 0;
#X connect 8 0 6 0;
#X connect 9 0 6 0;
#X connect 10 0 5 0;
#X connect 11 0 12 0;
#X connect 12 0 2 0;
#X connect 12 1 18 0;
#X connect 12 2 3 0;
#X connect 12 3 4 0;
#X connect 12 4 8 0;
#X connect 12 5 9 0;
#X connect 12 6 16 0;
#X connect 14 0 6 0;
#X connect 15 0 0 0;
#X connect 16 0 6 0;
#X connect 17 0 15 0;
#X connect 18 0 6 0;
#X restore 280 202 pd auto.ctl;
#X obj 251 138 hradio 15 1 0 7 empty empty empty 0 -8 0 10 -262144
-1 -1 2;
#X floatatom 361 174 5 0 0 0 - - -;
#X obj -11 18 bng 15 250 50 0 empty empty empty 17 7 0 10 -262144 -1
-1;
#X obj 287 60 bonk~;
#X obj 294 90 makenote 76 76;
#X msg 332 68 45;
#X obj 410 197 random 7;
#X obj 478 111 bng 15 250 50 0 empty empty empty 17 7 0 10 -262144
-1 -1;
#X obj 374 47 bonk~;
#X msg 419 55 46;
#X obj 219 15 osc~ 110;
#X obj 301 35 adc~ 1 2;
#X obj 138 373 dac~ 1 2;
#X obj 76 152 plugin~ ringmod_1i1o1l;
#X obj 212 75 fiddle~;
#X obj 235 108 int;
#X obj 231 226 change;
#N canvas 5 50 531 398 auto.ctl 0;
#X msg 212 313 control Frequency \$1;
#X floatatom 224 237 5 0 1000 0 - - -;
#X msg 245 155 0.5;
#X msg 263 168 1;
#X msg 284 177 2;
#X obj 337 181 sel 0;
#X obj 282 214 *;
#X obj 347 203 expr 60/$f1;
#X msg 267 136 4;
#X msg 277 146 8;
#X obj 347 155 inlet tempo;
#X obj 284 86 inlet rate;
#X obj 217 107 sel 0 1 2 3 4 5 6;
#X obj 161 337 outlet;
#X obj 325 233 bang;
#X obj 227 287 line;
#X msg 308 164 16;
#X msg 250 265 \$1 20;
#X msg 245 198 4;
#X connect 0 0 13 0;
#X connect 1 0 17 0;
#X connect 2 0 6 0;
#X connect 3 0 6 0;
#X connect 4 0 6 0;
#X connect 5 1 7 0;
#X connect 6 0 1 0;
#X connect 7 0 6 1;
#X connect 7 0 14 0;
#X connect 8 0 6 0;
#X connect 9 0 6 0;
#X connect 10 0 5 0;
#X connect 11 0 12 0;
#X connect 12 0 2 0;
#X connect 12 1 18 0;
#X connect 12 2 3 0;
#X connect 12 3 4 0;
#X connect 12 4 8 0;
#X connect 12 5 9 0;
#X connect 12 6 16 0;
#X connect 14 0 6 0;
#X connect 15 0 0 0;
#X connect 16 0 6 0;
#X connect 17 0 15 0;
#X connect 18 0 6 0;
#X restore 435 324 pd auto.ctl;
#X obj 406 260 hradio 15 1 0 7 empty empty empty 0 -8 0 10 -262144
-1 -1 2;
#X floatatom 516 296 5 0 0 0 - - -;
#X obj 565 319 random 7;
#X obj 577 265 bng 15 250 50 0 empty empty empty 17 7 0 10 -262144
-1 -1;
#X obj 181 290 plugin~ ringmod_1i1o1l;
#X obj 386 348 change;
#X obj 523 135;
#X connect 1 0 21 0;
#X connect 3 0 21 0;
#X connect 3 0 30 0;
#X connect 4 0 21 0;
#X connect 4 0 30 0;
#X connect 5 0 4 0;
#X connect 6 2 15 0;
#X connect 6 2 29 0;
#X connect 7 0 21 0;
#X connect 8 0 7 0;
#X connect 9 0 7 1;
#X connect 9 0 25 1;
#X connect 10 0 3 0;
#X connect 11 1 13 0;
#X connect 12 0 6 0;
#X connect 12 1 6 1;
#X connect 13 0 12 0;
#X connect 13 0 29 0;
#X connect 14 0 8 0;
#X connect 15 0 14 0;
#X connect 15 0 29 0;
#X connect 16 1 17 0;
#X connect 17 0 12 0;
#X connect 17 0 15 0;
#X connect 19 0 11 0;
#X connect 19 0 21 1;
#X connect 19 1 16 0;
#X connect 19 1 30 1;
#X connect 21 0 2 0;
#X connect 21 1 20 0;
#X connect 22 0 23 0;
#X connect 23 0 24 0;
#X connect 24 0 15 0;
#X connect 25 0 30 0;
#X connect 26 0 25 0;
#X connect 27 0 25 1;
#X connect 28 0 26 0;
#X connect 29 0 28 0;
#X connect 30 1 20 1;
#X connect 31 0 29 0;
