#N canvas 578 362 450 300 10;
#X obj 161 227 dac~;
#X obj 199 63 fiddle~;
#X floatatom 93 208 5 0 0 0 - - -;
#X obj 142 18 adc~;
#X obj 169 125 int;
#X obj 136 97 del 12;
#X obj 158 154 makenote 106 150;
#X obj 234 179 noteout 1;
#X floatatom 105 148 5 0 0 0 - - -;
#X obj 334 181 bendout;
#X obj 337 73 -;
#X floatatom 350 137 5 0 0 0 - - -;
#X obj 185 96 + 12.49;
#X obj 357 117 expr;
#X connect 1 0 10 1;
#X connect 1 0 12 0;
#X connect 1 1 5 0;
#X connect 3 0 1 0;
#X connect 3 1 1 0;
#X connect 4 0 6 0;
#X connect 4 0 8 0;
#X connect 4 0 10 0;
#X connect 5 0 4 0;
#X connect 6 0 7 0;
#X connect 6 1 7 1;
#X connect 10 0 11 0;
#X connect 12 0 4 1;
