#N canvas 174 77 805 611 10;
#X obj 125 436 int;
#X obj 236 221 beat;
#X msg 32 359 1;
#X msg 63 355 5;
#X msg 60 388 3;
#X msg 60 331 8;
#X msg 81 307 10;
#X msg 94 344 11;
#X msg 121 332 2;
#X msg 130 343 4;
#X obj 373 519 makenote;
#X obj 161 181 stripnote;
#X obj 16 265 sel 49 38 43 45 48 51 49 46 44 42 36;
#X obj 620 102 unpack;
#X floatatom 681 79 5 0 0 0 - - -;
#X obj 578 78 netreceive 10666;
#X obj 520 234 chord;
#X floatatom 510 257 5 0 0 0 - - -;
#X obj 435 313 sel 1 3 5 8 10 11 2 4;
#X obj 580 300 unpack f f f f f f;
#X msg 450 368 51;
#X msg 464 389 40;
#X msg 482 414 66;
#X msg 487 367 57;
#X msg 493 391 58;
#X msg 521 417;
#X msg 529 369 63;
#X msg 541 393 78;
#X msg 560 417 69;
#X msg 569 375;
#X msg 597 334 set \$1;
#X msg 621 355 set \$1;
#X msg 631 365 set \$1;
#X msg 641 375 set \$1;
#X msg 651 385 set \$1;
#X obj 701 350 + 12;
#X obj 713 359 + 12;
#X obj 723 369 + 12;
#X msg 707 387 set \$1;
#X msg 717 397 set \$1;
#X msg 727 407 set \$1;
#X obj 415 421 int;
#X obj 442 448 pipe 500;
#X obj 587 429 * 4;
#X obj 472 478 + 12;
#X obj 576 466 pipe 500;
#N canvas 2 75 450 300 chordname 0;
#X symbolatom 101 103 19 0 0 0 - - -;
#X obj 84 72 list split 2;
#X obj 120 51 l;
#X obj 79 23 inlet;
#X connect 1 2 0 0;
#X connect 2 0 1 0;
#X connect 3 0 2 0;
#X coords 0 -1 1 1 119 25 2 100 100;
#X restore 560 235 pd chordname;
#X obj 409 167 int;
#X text 409 141 beat bass;
#X obj 247 461 netsend;
#X msg 213 436 connect localhost 1678;
#X msg 281 397 send \$1;
#X obj 388 185 bng 15 250 50 0 empty empty empty 17 7 0 10 -262144
-1 -1;
#X floatatom 167 92 5 0 0 0 - - -;
#X obj 275 61 sel 44 36 38;
#X obj 342 109 random 8;
#X obj 463 278 - 36;
#X msg 109 191 *;
#X obj 229 112 random 8;
#X obj 721 153 sel 0;
#X obj 572 493 + 0;
#X obj 288 139 random 12;
#X msg 271 203 reset;
#X floatatom 239 344 5 0 0 0 - - -;
#X msg 314 476 45;
#X obj 403 486 * 4;
#X obj 475 93 notein 1;
#N canvas 1 91 1330 827 feedbackk 0;
#X obj 135 446 int;
#X obj 246 231 beat;
#X msg 42 369 1;
#X msg 73 365 5;
#X msg 70 398 3;
#X msg 70 341 8;
#X msg 91 317 10;
#X msg 104 354 11;
#X msg 131 342 2;
#X msg 140 353 4;
#X obj 383 529 makenote;
#X obj 171 191 stripnote;
#X obj 26 275 sel 49 38 43 45 48 51 49 46 44 42 36;
#X floatatom 691 89 5 0 0 0 - - -;
#X obj 530 244 chord;
#X floatatom 520 267 5 0 0 0 - - -;
#X obj 445 323 sel 1 3 5 8 10 11 2 4;
#X obj 590 310 unpack f f f f f f;
#X msg 460 378 51;
#X msg 474 399 40;
#X msg 492 424 66;
#X msg 497 377 57;
#X msg 503 401 58;
#X msg 531 427;
#X msg 539 379 63;
#X msg 551 403 78;
#X msg 570 427 69;
#X msg 579 385;
#X msg 607 344 set \$1;
#X msg 631 365 set \$1;
#X msg 641 375 set \$1;
#X msg 651 385 set \$1;
#X msg 661 395 set \$1;
#X obj 711 360 + 12;
#X obj 723 369 + 12;
#X obj 733 379 + 12;
#X msg 717 397 set \$1;
#X msg 727 407 set \$1;
#X msg 737 417 set \$1;
#X obj 425 431 int;
#X obj 452 458 pipe 500;
#X obj 472 542 makenote 65;
#X obj 597 439 * 4;
#X obj 482 488 + 12;
#X obj 586 476 pipe 500;
#X obj 560 543 makenote 65;
#N canvas 2 75 450 300 chordname 0;
#X symbolatom 101 103 19 0 0 0 - - -;
#X obj 84 72 list split 2;
#X obj 120 51 l;
#X obj 79 23 inlet;
#X connect 1 2 0 0;
#X connect 2 0 1 0;
#X connect 3 0 2 0;
#X coords 0 -1 1 1 119 25 2 100 100;
#X restore 570 245 pd chordname;
#X obj 419 177 int;
#X text 419 151 beat bass;
#X obj 257 471 netsend;
#X msg 223 446 connect localhost 1678;
#X msg 291 407 send \$1;
#X obj 398 195 bng 15 250 50 0 empty empty empty 17 7 0 10 -262144
-1 -1;
#X floatatom 177 102 5 0 0 0 - - -;
#X obj 285 71 sel 44 36 38;
#X obj 352 119 random 8;
#X obj 473 288 - 36;
#X msg 119 201 *;
#X obj 229 136 random 8;
#X obj 731 163 sel 0;
#X obj 582 503 + 0;
#X obj 298 149 random 12;
#X msg 281 213 reset;
#X floatatom 249 354 5 0 0 0 - - -;
#X msg 324 486 45;
#X obj 413 496 * 4;
#X obj 118 22 notein 2;
#X obj 485 103 notein 3;
#X obj 417 567 noteout 4;
#X obj 488 568 noteout 4;
#X obj 576 569 noteout 5;
#X obj 221 14 notein 1;
#X obj 573 69 notein 1;
#X obj 630 112 notein 1;
#X connect 0 0 16 0;
#X connect 1 1 42 0;
#X connect 1 1 63 0;
#X connect 1 1 65 0;
#X connect 1 2 47 0;
#X connect 1 2 58 0;
#X connect 1 2 61 0;
#X connect 1 2 55 0;
#X connect 2 0 0 0;
#X connect 3 0 0 0;
#X connect 4 0 0 0;
#X connect 5 0 0 0;
#X connect 6 0 0 0;
#X connect 8 0 0 0;
#X connect 9 0 0 0;
#X connect 10 0 68 0;
#X connect 10 1 68 1;
#X connect 11 0 1 0;
#X connect 11 0 12 0;
#X connect 11 1 1 1;
#X connect 12 0 2 0;
#X connect 12 2 4 0;
#X connect 12 3 5 0;
#X connect 12 4 6 0;
#X connect 12 5 7 0;
#X connect 12 6 8 0;
#X connect 12 7 9 0;
#X connect 12 8 3 0;
#X connect 12 9 4 0;
#X connect 12 10 7 0;
#X connect 12 11 9 0;
#X connect 14 0 15 0;
#X connect 14 2 46 0;
#X connect 14 4 17 0;
#X connect 15 0 47 1;
#X connect 15 0 56 0;
#X connect 16 0 18 0;
#X connect 16 1 19 0;
#X connect 16 2 20 0;
#X connect 16 3 21 0;
#X connect 16 4 22 0;
#X connect 16 5 24 0;
#X connect 16 6 25 0;
#X connect 16 7 26 0;
#X connect 17 0 28 0;
#X connect 17 0 33 0;
#X connect 17 1 29 0;
#X connect 17 2 30 0;
#X connect 17 2 34 0;
#X connect 17 3 31 0;
#X connect 17 3 35 0;
#X connect 17 4 32 0;
#X connect 18 0 39 0;
#X connect 19 0 39 0;
#X connect 20 0 39 0;
#X connect 21 0 39 0;
#X connect 22 0 39 0;
#X connect 23 0 39 0;
#X connect 24 0 39 0;
#X connect 25 0 39 0;
#X connect 26 0 39 0;
#X connect 28 0 18 0;
#X connect 29 0 19 0;
#X connect 30 0 20 0;
#X connect 31 0 21 0;
#X connect 32 0 22 0;
#X connect 33 0 36 0;
#X connect 34 0 37 0;
#X connect 35 0 38 0;
#X connect 36 0 24 0;
#X connect 37 0 25 0;
#X connect 38 0 26 0;
#X connect 39 0 40 0;
#X connect 39 0 56 0;
#X connect 40 0 43 0;
#X connect 40 0 44 0;
#X connect 41 0 69 0;
#X connect 41 1 69 1;
#X connect 42 0 40 1;
#X connect 42 0 44 1;
#X connect 43 0 41 0;
#X connect 44 0 60 0;
#X connect 45 0 70 0;
#X connect 45 1 70 1;
#X connect 47 0 10 0;
#X connect 50 0 49 0;
#X connect 51 0 49 0;
#X connect 52 0 47 0;
#X connect 54 0 58 0;
#X connect 54 1 61 0;
#X connect 55 0 16 0;
#X connect 56 0 47 1;
#X connect 57 0 1 0;
#X connect 58 0 16 0;
#X connect 59 1 41 1;
#X connect 59 1 45 1;
#X connect 59 1 10 1;
#X connect 60 0 45 0;
#X connect 61 0 16 0;
#X connect 62 0 1 0;
#X connect 64 0 10 0;
#X connect 65 0 10 2;
#X connect 66 0 53 0;
#X connect 66 0 1 0;
#X connect 66 0 11 0;
#X connect 66 1 1 1;
#X connect 66 1 11 1;
#X connect 67 0 14 0;
#X connect 67 0 1 0;
#X connect 67 1 14 1;
#X connect 67 1 1 1;
#X connect 67 1 59 0;
#X connect 73 0 14 0;
#X connect 73 1 14 1;
#X connect 73 1 59 0;
#X restore 840 616 pd feedbackk;
#X obj 214 28 netreceive 555555;
#X obj 630 566 noteout 4;
#X obj 108 12 notein 10;
#X obj 446 526 makenote 65 120;
#X obj 550 533 makenote 65 120;
#X obj 363 398 * 4;
#X obj 406 557 noteout 2;
#X obj 478 558 noteout 3;
#X obj 359 545 bng 15 250 50 0 empty empty empty 17 7 0 10 -262144
-1 -1;
#X obj 475 547 bng 15 250 50 0 empty empty empty 17 7 0 10 -262144
-1 -1;
#X obj 562 563 bng 15 250 50 0 empty empty empty 17 7 0 10 -262144
-1 -1;
#X connect 0 0 18 0;
#X connect 1 1 43 0;
#X connect 1 1 63 0;
#X connect 1 1 65 0;
#X connect 1 1 73 0;
#X connect 1 1 72 2;
#X connect 1 2 47 0;
#X connect 1 2 58 0;
#X connect 1 2 61 0;
#X connect 1 2 55 0;
#X connect 2 0 0 0;
#X connect 3 0 0 0;
#X connect 4 0 0 0;
#X connect 5 0 0 0;
#X connect 6 0 0 0;
#X connect 8 0 0 0;
#X connect 9 0 0 0;
#X connect 10 0 74 0;
#X connect 10 0 76 0;
#X connect 10 1 74 1;
#X connect 11 0 1 0;
#X connect 11 0 12 0;
#X connect 11 1 1 1;
#X connect 12 0 2 0;
#X connect 12 2 4 0;
#X connect 12 3 5 0;
#X connect 12 4 6 0;
#X connect 12 5 7 0;
#X connect 12 6 8 0;
#X connect 12 7 9 0;
#X connect 12 8 3 0;
#X connect 12 9 4 0;
#X connect 12 10 7 0;
#X connect 12 11 9 0;
#X connect 13 0 16 0;
#X connect 13 1 16 1;
#X connect 13 1 59 0;
#X connect 15 0 13 0;
#X connect 15 1 14 0;
#X connect 16 0 17 0;
#X connect 16 2 46 0;
#X connect 16 4 19 0;
#X connect 17 0 47 1;
#X connect 17 0 56 0;
#X connect 18 0 20 0;
#X connect 18 1 21 0;
#X connect 18 2 22 0;
#X connect 18 3 23 0;
#X connect 18 4 24 0;
#X connect 18 5 26 0;
#X connect 18 6 27 0;
#X connect 18 7 28 0;
#X connect 19 0 30 0;
#X connect 19 0 35 0;
#X connect 19 1 31 0;
#X connect 19 2 32 0;
#X connect 19 2 36 0;
#X connect 19 3 33 0;
#X connect 19 3 37 0;
#X connect 19 4 34 0;
#X connect 20 0 41 0;
#X connect 21 0 41 0;
#X connect 22 0 41 0;
#X connect 23 0 41 0;
#X connect 24 0 41 0;
#X connect 25 0 41 0;
#X connect 26 0 41 0;
#X connect 27 0 41 0;
#X connect 28 0 41 0;
#X connect 30 0 20 0;
#X connect 31 0 21 0;
#X connect 32 0 22 0;
#X connect 33 0 23 0;
#X connect 34 0 24 0;
#X connect 35 0 38 0;
#X connect 36 0 39 0;
#X connect 37 0 40 0;
#X connect 38 0 26 0;
#X connect 39 0 27 0;
#X connect 40 0 28 0;
#X connect 41 0 42 0;
#X connect 41 0 56 0;
#X connect 42 0 44 0;
#X connect 42 0 45 0;
#X connect 43 0 42 1;
#X connect 43 0 45 1;
#X connect 44 0 71 0;
#X connect 45 0 60 0;
#X connect 47 0 10 0;
#X connect 50 0 49 0;
#X connect 51 0 49 0;
#X connect 52 0 47 0;
#X connect 54 0 58 0;
#X connect 54 1 61 0;
#X connect 55 0 18 0;
#X connect 56 0 47 1;
#X connect 57 0 1 0;
#X connect 58 0 18 0;
#X connect 59 1 10 1;
#X connect 59 1 71 1;
#X connect 59 1 72 1;
#X connect 60 0 72 0;
#X connect 61 0 18 0;
#X connect 62 0 1 0;
#X connect 64 0 10 0;
#X connect 65 0 10 2;
#X connect 66 0 16 0;
#X connect 66 0 1 0;
#X connect 66 1 16 1;
#X connect 66 1 1 1;
#X connect 66 1 59 0;
#X connect 68 0 54 0;
#X connect 70 0 53 0;
#X connect 70 0 1 0;
#X connect 70 0 11 0;
#X connect 70 1 1 1;
#X connect 70 1 11 1;
#X connect 71 0 75 0;
#X connect 71 0 77 0;
#X connect 71 1 75 1;
#X connect 72 0 69 0;
#X connect 72 0 78 0;
#X connect 72 1 69 1;
#X connect 73 0 71 2;
