#N canvas 220 154 888 411 10;
#X obj 164 140 cnv 15 20 20 empty empty (midi) -9 12 0 8 -257998 -66577
0;
#X floatatom 153 119 3 20 90 0 - #0-2Tonic #0-Tonic;
#N canvas 0 22 458 329 (subpatch) 0;
#X array major 24 float 3;
#A 0 0 2 4 5 7 9 11 12 14 16 17 0 0 0 0 0 0 0 0 0 0 0 0 0;
#X coords 0 16 24 0 20 14 1;
#X restore 197 89 graph;
#N canvas 0 22 462 312 (subpatch) 0;
#X array minor 11 float 1;
#A 0 0 2 3 5 7 8 10 12 14 15 17;
#X coords 0 16 10 0 20 14 1;
#X restore 196 120 graph;
#N canvas 0 22 458 308 (subpatch) 0;
#X array blue 11 float 1;
#A 0 0 2 5 6 7 9 10 12 17 18 19;
#X coords 0 16 10 0 20 14 1;
#X restore 197 149 graph;
#N canvas 0 22 462 312 (subpatch) 0;
#X array whole 11 float 1;
#A 0 0 2 4 6 8 10 12 14 16 18 20;
#X coords 0 16 10 0 20 14 1;
#X restore 196 180 graph;
#N canvas 0 22 462 312 (subpatch) 0;
#X array octaton 11 float 1;
#A 0 0 2 3 5 6 8 9 11 12 14 16;
#X coords 0 16 10 0 20 14 1;
#X restore 196 210 graph;
#X obj 101 101 cnv 15 50 58 empty empty empty 20 12 0 14 -262144 -66577
0;
#X obj 101 100 vradio 12 1 0 5 \$0-ScaleType \$0-2ScaleType empty 0
-8 0 10 -262144 -1 -1 0;
#X text 114 99 major;
#X text 114 111 minor;
#X text 114 123 blue;
#X text 114 135 whole;
#X text 114 146 octaton;
#X obj 491 130 unpack f s;
#X obj 475 205 tabread major;
#X msg 479 176 set \$1;
#X msg 522 70 56 minor;
#X msg 556 94 45 major;
#X obj 361 23 inlet;
#X obj 497 28 inlet;
#X obj 359 80 + -1;
#X text 277 184 common parlance;
#X text 276 193 root of chord= 1;
#X obj 492 264 outlet;
#X obj 496 233 +;
#X obj 558 157 sel major minor blue whole octaton;
#X msg 560 178 0;
#X msg 580 198 1;
#X msg 600 179 2;
#X msg 620 198 3;
#X msg 651 176 4;
#X obj 576 230 s \$0-2ScaleType;
#X obj 367 215 r \$0-ScaleType;
#N canvas 424 211 454 304 tableselector 0;
#X obj 107 25 inlet;
#X obj 73 254 outlet;
#X obj 79 91 sel 0 1 2 3 4;
#X msg 73 137 set major;
#X msg 113 217 set octaton;
#X msg 103 197 set whole;
#X msg 93 177 set blue;
#X msg 83 157 set minor;
#X connect 0 0 2 0;
#X connect 2 0 3 0;
#X connect 2 1 7 0;
#X connect 2 2 6 0;
#X connect 2 3 5 0;
#X connect 2 4 4 0;
#X connect 3 0 1 0;
#X connect 4 0 1 0;
#X connect 5 0 1 0;
#X connect 6 0 1 0;
#X connect 7 0 1 0;
#X restore 367 241 pd tableselector;
#X obj 400 114 s \$0-2Tonic;
#X obj 598 292 r \$0-Tonic;
#X connect 14 0 25 1;
#X connect 14 0 35 0;
#X connect 14 1 16 0;
#X connect 14 1 26 0;
#X connect 15 0 25 0;
#X connect 16 0 15 0;
#X connect 17 0 14 0;
#X connect 18 0 14 0;
#X connect 19 0 21 0;
#X connect 20 0 14 0;
#X connect 21 0 15 0;
#X connect 25 0 24 0;
#X connect 26 0 27 0;
#X connect 26 1 28 0;
#X connect 26 2 29 0;
#X connect 26 3 30 0;
#X connect 26 4 31 0;
#X connect 27 0 32 0;
#X connect 28 0 32 0;
#X connect 29 0 32 0;
#X connect 30 0 32 0;
#X connect 31 0 32 0;
#X connect 33 0 34 0;
#X connect 34 0 15 0;
#X connect 36 0 25 1;
#X coords 0 -1 1 1 85 60 2 100 100;
