#N canvas 10 22 1095 372 10;
#X obj 1012 84 dac~;
#X obj 925 6 vu 15 120 volLeft empty -1 -8 0 8 -66577 -1 1 0;
#X obj 947 5 vu 15 120 volRight empty -1 -8 0 8 -66577 -1 1 0;
#X obj 889 5 vsl 30 120 0.005 0.5 1 0 MainVol empty empty 0 -8 0 8
-262144 -1 -1 3800 1;
#X text 890 -14 main Volume;
#X text 986 5 these don't;
#X text 983 18 read accurately;
#X text 997 32 yet;
#N canvas 0 22 537 749 VolumeCtl 0;
#X obj 231 96 catch~ MainMixR;
#X obj 208 77 catch~ MainMixL;
#X obj 39 270 snapshot~;
#X msg 76 224 1;
#X obj 59 445 s volLeft;
#X obj 129 274 snapshot~;
#X obj 149 448 s volRight;
#X obj 73 199 loadbang;
#X obj 237 151 *~;
#X obj 269 171 *~;
#X obj 277 122 r MainVol;
#X obj 203 260 outlet~;
#X obj 259 260 outlet~;
#N canvas 0 22 566 691 convolver 0;
#X obj 147 200 >;
#X obj 203 215 >;
#X obj 263 231 >;
#X obj 141 314 spigot;
#X obj 230 265 &;
#X obj 195 285 &;
#X floatatom 140 343 11 0 0 0 - - -;
#X obj 154 441 outlet;
#X obj 122 27 inlet;
#X obj 161 162 int;
#X obj 220 178 int;
#X obj 278 194 int;
#X obj 123 75 abs;
#X obj 124 102 rmstodb;
#X obj 123 146 - 115;
#X connect 0 0 5 1;
#X connect 1 0 4 1;
#X connect 2 0 4 0;
#X connect 3 0 6 0;
#X connect 4 0 5 0;
#X connect 5 0 3 1;
#X connect 6 0 7 0;
#X connect 8 0 12 0;
#X connect 9 0 0 1;
#X connect 9 0 10 0;
#X connect 10 0 1 1;
#X connect 10 0 11 0;
#X connect 11 0 2 1;
#X connect 12 0 13 0;
#X connect 13 0 14 0;
#X connect 14 0 0 0;
#X connect 14 0 1 0;
#X connect 14 0 2 0;
#X connect 14 0 3 0;
#X connect 14 0 9 0;
#X restore 157 324 pd convolver;
#X text 181 349 so far still to go;
#X obj 333 205 s~ mainmix;
#X obj 315 170 +~;
#X floatatom 296 442 8 0 0 0 - - -;
#X obj 77 248 metro 100;
#N canvas 0 22 566 691 convolver 0;
#X obj 147 200 >;
#X obj 203 215 >;
#X obj 263 231 >;
#X obj 141 314 spigot;
#X obj 230 265 &;
#X obj 195 285 &;
#X floatatom 140 343 11 0 0 0 - - -;
#X obj 154 441 outlet;
#X obj 122 27 inlet;
#X obj 161 162 int;
#X obj 220 178 int;
#X obj 278 194 int;
#X obj 123 75 abs;
#X obj 124 102 rmstodb;
#X obj 123 146 - 115;
#X connect 0 0 5 1;
#X connect 1 0 4 1;
#X connect 2 0 4 0;
#X connect 3 0 6 0;
#X connect 4 0 5 0;
#X connect 5 0 3 1;
#X connect 6 0 7 0;
#X connect 8 0 12 0;
#X connect 9 0 0 1;
#X connect 9 0 10 0;
#X connect 10 0 1 1;
#X connect 10 0 11 0;
#X connect 11 0 2 1;
#X connect 12 0 13 0;
#X connect 13 0 14 0;
#X connect 14 0 0 0;
#X connect 14 0 1 0;
#X connect 14 0 2 0;
#X connect 14 0 3 0;
#X connect 14 0 9 0;
#X restore 31 324 pd convolver;
#X connect 0 0 9 0;
#X connect 0 0 16 0;
#X connect 1 0 8 0;
#X connect 1 0 16 1;
#X connect 2 0 19 0;
#X connect 3 0 18 0;
#X connect 5 0 13 0;
#X connect 7 0 3 0;
#X connect 8 0 12 0;
#X connect 8 0 5 0;
#X connect 9 0 11 0;
#X connect 9 0 2 0;
#X connect 10 0 9 1;
#X connect 10 0 8 1;
#X connect 13 0 6 0;
#X connect 16 0 15 0;
#X connect 18 0 2 0;
#X connect 18 0 5 0;
#X connect 19 0 4 0;
#X restore 992 55 pd VolumeCtl;
#N canvas 169 142 706 577 SaveAll 0;
#X obj 413 -3 bng 8 250 50 0 empty empty empty 0 -6 0 8 -262144 -1
-1;
#X obj 413 -31 r SaveItAll;
#X msg 158 489 rewind;
#X msg 239 484 bang;
#X msg 311 366 write /Volumes/MEGAMAN/untitled;
#N canvas 771 36 472 512 openall 0;
#X obj 246 453 outlet;
#X obj 206 352 s MasterSaveOne;
#X obj 236 376 s MasterSaveTwo;
#X obj 266 400 s MasterSaveThree;
#X obj 296 422 s MasterSaveFour;
#X obj 148 234 textfile;
#X msg 230 119 rewind;
#X msg 240 144 clear;
#X msg 252 170 read \$1;
#X obj 292 100 openpanel;
#X obj 293 79 bng 15 250 50 0 empty empty empty 0 -6 0 8 -262144 -1
-1;
#X obj 293 46 inlet;
#X obj 157 166 bng 15 250 50 0 empty empty empty 0 -6 0 8 -262144 -1
-1;
#N canvas 0 22 518 368 countto4 0;
#X floatatom 250 207 5 0 0 0 - - -;
#X obj 248 178 int;
#X obj 320 177 + 1;
#X msg 120 108 0;
#X obj 209 132 bng 15 250 50 0 empty empty empty 0 -6 0 8 -262144 -1
-1;
#X obj 238 256 outlet;
#X obj 229 68 inlet;
#X obj 121 53 pipe 15;
#X text 224 51 recieve any input;
#X text 150 276 counts from 0 to (whatever sel has);
#X obj 118 79 sel 3;
#X connect 0 0 5 0;
#X connect 0 0 7 0;
#X connect 1 0 2 0;
#X connect 1 0 0 0;
#X connect 2 0 1 1;
#X connect 3 0 1 1;
#X connect 4 0 1 0;
#X connect 6 0 4 0;
#X connect 7 0 10 0;
#X connect 10 0 3 0;
#X restore 257 241 pd countto4;
#X obj 230 206 bng 15 250 50 0 empty empty empty 0 -6 0 8 -262144 -1
-1;
#X obj 206 280 pack;
#X obj 205 308 route 0 1 2 3;
#X obj 97 333 print;
#X connect 5 0 15 1;
#X connect 5 1 15 1;
#X connect 6 0 5 0;
#X connect 6 0 14 0;
#X connect 8 0 5 0;
#X connect 8 0 12 0;
#X connect 9 0 8 0;
#X connect 10 0 9 0;
#X connect 11 0 10 0;
#X connect 12 0 6 0;
#X connect 13 0 15 0;
#X connect 14 0 5 0;
#X connect 15 0 16 0;
#X connect 15 0 17 0;
#X connect 16 0 1 0;
#X connect 16 1 2 0;
#X connect 16 2 3 0;
#X connect 16 3 4 0;
#X restore 78 330 pd openall;
#X obj 450 128 r OpenWutev;
#X obj 316 488 print save data;
#X text 384 457 this jumble of code at least;
#X text 399 471 can save a MT file;
#N canvas 0 22 466 316 SavePreparer 0;
#X obj 180 86 savepanel;
#X obj 181 66 bng 8 250 50 0 empty empty empty 0 -6 0 8 -262144 -1
-1;
#X msg 234 128 add2 \$1;
#X msg 127 129 set write;
#X obj 145 256 outlet;
#X obj 226 191 bng 15 250 50 0 empty empty empty 17 7 0 10 -262144
-1 -1;
#X obj 181 18 inlet;
#X connect 0 0 2 0;
#X connect 1 0 0 0;
#X connect 1 0 3 0;
#X connect 2 0 4 0;
#X connect 2 0 5 0;
#X connect 3 0 4 0;
#X connect 5 0 4 0;
#X connect 6 0 1 0;
#X restore 340 317 pd SavePreparer;
#N canvas 0 22 345 260 ClearBanger 0;
#X msg 148 80 clear;
#X obj 90 57 loadbang;
#X obj 151 62 del 5;
#X msg 150 43 bang;
#X obj 118 18 inlet;
#X obj 135 147 outlet;
#X connect 0 0 5 0;
#X connect 1 0 0 0;
#X connect 2 0 0 0;
#X connect 3 0 2 0;
#X connect 4 0 3 0;
#X restore 379 406 pd ClearBanger;
#N canvas 0 22 425 462 PanSave 0;
#X msg 103 109;
#X msg 103 159;
#X msg 103 205;
#X msg 32 -7 set;
#X msg 101 46;
#X obj 31 -27 loadbang;
#N canvas 0 22 482 332 panset 0;
#X obj 141 57 r pansetFIRST;
#X obj 111 14 r SaveItAll;
#X msg 111 38 bang;
#X obj 111 78 float;
#X obj 107 201 outlet;
#X msg 228 105 add \$1;
#X msg 70 104 set add pansetFIRST;
#X connect 0 0 3 1;
#X connect 1 0 2 0;
#X connect 2 0 3 0;
#X connect 3 0 6 0;
#X connect 3 0 5 0;
#X connect 5 0 4 0;
#X connect 6 0 4 0;
#X restore 101 17 pd panset;
#N canvas 0 22 478 328 LFOPANFREQ 0;
#X obj 141 57 r LFOPanFreqFIRST;
#X obj 111 14 r SaveItAll;
#X msg 111 38 bang;
#X obj 111 78 float;
#X obj 107 201 outlet;
#X msg 228 105 add \$1;
#X msg 63 128 set add LFOPanFreqFIRST;
#X connect 0 0 3 1;
#X connect 1 0 2 0;
#X connect 2 0 3 0;
#X connect 3 0 6 0;
#X connect 3 0 5 0;
#X connect 5 0 4 0;
#X connect 6 0 4 0;
#X restore 103 76 pd LFOPANFREQ;
#N canvas 0 22 462 312 LFOPanRange 0;
#X obj 141 57 r LFOPanRangeFIRST;
#X obj 111 14 r SaveItAll;
#X msg 111 38 bang;
#X obj 111 78 float;
#X obj 107 201 outlet;
#X msg 258 105 add \$1;
#X msg 70 105 set add LFOPanRangeFIRST;
#X connect 0 0 3 1;
#X connect 1 0 2 0;
#X connect 2 0 3 0;
#X connect 3 0 6 0;
#X connect 3 0 5 0;
#X connect 5 0 4 0;
#X connect 6 0 4 0;
#X restore 103 134 pd LFOPanRange;
#N canvas 0 22 462 312 lfoIOpan 0;
#X obj 141 57 r FIRSTPanLFOIO;
#X obj 111 14 r SaveItAll;
#X msg 111 38 bang;
#X obj 111 78 float;
#X obj 107 201 outlet;
#X msg 228 105 add \$1;
#X msg 70 105 set add FIRSTPanLFOIO;
#X connect 0 0 3 1;
#X connect 1 0 2 0;
#X connect 2 0 3 0;
#X connect 3 0 5 0;
#X connect 3 0 6 0;
#X connect 5 0 4 0;
#X connect 6 0 4 0;
#X restore 103 180 pd lfoIOpan;
#X obj 46 246 outlet;
#X obj 224 -11 inlet;
#X text 149 265 this works great \, now I have;
#X text 132 284 to expand this out;
#X connect 0 0 10 0;
#X connect 1 0 10 0;
#X connect 2 0 10 0;
#X connect 3 0 4 0;
#X connect 3 0 0 0;
#X connect 3 0 1 0;
#X connect 3 0 2 0;
#X connect 4 0 10 0;
#X connect 5 0 3 0;
#X connect 6 0 4 0;
#X connect 7 0 0 0;
#X connect 8 0 1 0;
#X connect 9 0 2 0;
#X connect 11 0 4 0;
#X connect 11 0 0 0;
#X connect 11 0 1 0;
#X connect 11 0 2 0;
#X restore 181 137 pd PanSave;
#X obj 328 444 qlist;
#N canvas 0 22 531 417 openone 0;
#X obj 267 26 inlet;
#X obj 264 78 openpanel;
#X msg 264 51 bang;
#X msg 229 116 read \$1;
#X obj 219 159 textfile;
#X msg 87 127 bang;
#X msg 94 83 rewind;
#X obj 225 343 send;
#X obj 219 222 unpack s f;
#X obj 274 308 pipe 5;
#X text 55 61 bang these to recall;
#X text 110 310 still bugs here;
#N canvas 0 22 454 304 callperl 0;
#X restore 231 281 pd callperl;
#X connect 0 0 2 0;
#X connect 1 0 3 0;
#X connect 2 0 1 0;
#X connect 3 0 4 0;
#X connect 4 0 8 0;
#X connect 5 0 4 0;
#X connect 6 0 4 0;
#X connect 8 1 9 0;
#X connect 9 0 7 0;
#X restore 454 182 pd openone;
#X connect 0 0 10 0;
#X connect 0 0 12 0;
#X connect 1 0 0 0;
#X connect 2 0 13 0;
#X connect 3 0 13 0;
#X connect 4 0 11 0;
#X connect 4 0 13 0;
#X connect 6 0 14 0;
#X connect 10 0 4 0;
#X connect 11 0 13 0;
#X connect 12 0 13 0;
#X connect 13 0 7 0;
#X restore 804 108 pd SaveAll;
#X obj 764 84 bng 40 250 50 0 SaveItAll empty Save_All 0 -6 0 12 -262144
-1 -1;
#X obj 851 83 bng 25 250 50 0 OpenWutev empty Open 0 -6 0 12 -262144
-1 -1;
#X obj 51 223 throw~ MainMixL;
#X obj 178 221 throw~ MainMixR;
#X msg 214 42 \; 2FIRSTFreqLFOPitch \$1;
#X floatatom 491 100 5 0 0 0 - - -;
#X floatatom 528 100 5 0 0 0 - - -;
#X obj 497 17 r faf;
#X obj 497 47 unpack;
#X msg 272 131 color \$1;
#X floatatom 272 109 5 0 0 0 - - -;
#N canvas 387 400 317 319 bounceroom 1;
#X obj 242 208 cnv 15 16 16 faf 2faf empty 20 12 0 14 -44926 -262144
0;
#X obj 90 110 cnv 15 16 16 fif 2fif empty 20 12 0 14 -258699 -262144
0;
#X obj 198 23 cnv 15 16 16 fof 2fof empty 20 12 0 14 -24198 -262144
0;
#X obj 6 211 cnv 15 16 16 fuf 2fuf empty 20 12 0 14 -90133 -262144
0;
#X obj 157 240 cnv 15 16 16 fef 2fef empty 20 12 0 14 -62784 -262144
0;
#X restore 636 146 pd bounceroom;
#X obj 72 262 s 2faf;
#X obj 97 286 s 2fef;
#X obj 150 303 s 2fif;
#X obj 205 274 s 2fof;
#X obj 225 302 s 2fuf;
#N canvas 0 22 458 308 allofem 0;
#X obj 93 141 s 2faf;
#X obj 118 165 s 2fef;
#X obj 171 182 s 2fif;
#X obj 226 153 s 2fof;
#X obj 240 203 s 2fuf;
#X obj 176 102 inlet;
#X obj 53 211 r faf;
#X obj 78 235 r fef;
#X obj 139 221 r fif;
#X obj 149 242 r fof;
#X obj 160 263 r fuf;
#X obj 78 281 outlet;
#X connect 5 0 0 0;
#X connect 5 0 1 0;
#X connect 5 0 2 0;
#X connect 5 0 3 0;
#X connect 5 0 4 0;
#X connect 6 0 11 0;
#X connect 7 0 11 0;
#X connect 8 0 11 0;
#X connect 9 0 11 0;
#X connect 10 0 11 0;
#X restore 30 57 pd allofem;
#X msg 30 37 get_pos;
#X obj 30 0 tgl 15 0 empty empty empty 0 -6 0 8 -262144 -1 -1 1 1;
#X floatatom 406 241 5 0 0 0 - - -;
#X floatatom 447 240 5 0 0 0 - - -;
#X obj 416 187 unpack;
#X obj 416 157 r fef;
#X floatatom 726 243 5 0 0 0 - - -;
#X floatatom 763 243 5 0 0 0 - - -;
#X obj 732 190 unpack;
#X floatatom 570 270 5 0 0 0 - - -;
#X floatatom 607 270 5 0 0 0 - - -;
#X obj 576 217 unpack;
#X obj 576 187 r fif;
#X obj 732 160 r fof;
#X floatatom 911 220 5 0 0 0 - - -;
#X floatatom 948 220 5 0 0 0 - - -;
#X obj 917 197 unpack;
#X obj 917 167 r fuf;
#N canvas 36 22 384 665 PulseToneMod 1;
#N canvas 410 32 788 776 pulsilator 0;
#N canvas 66 22 727 768 OverToneFIRSTpatch 0;
#X obj 284 340 outlet~;
#X obj 361 73 tabread OverToneFIRST;
#X obj 338 118 pack;
#X obj 123 98 inlet;
#X text 105 79 pitch of the fundamental;
#X obj 361 97 / 127;
#N canvas 0 22 482 332 countto7 0;
#X floatatom 250 207 5 0 0 0 - - -;
#X obj 248 178 int;
#X obj 320 177 + 1;
#X msg 120 108 0;
#X obj 209 132 bng 15 250 50 0 empty empty empty 0 -6 0 8 -262144 -1
-1;
#X obj 121 80 sel 7;
#X obj 238 256 outlet;
#X obj 229 68 inlet;
#X obj 121 53 pipe 15;
#X text 224 51 recieve any input;
#X text 150 276 counts from 0 to (whatever sel has);
#X connect 0 0 6 0;
#X connect 0 0 8 0;
#X connect 1 0 2 0;
#X connect 1 0 0 0;
#X connect 2 0 1 1;
#X connect 3 0 1 1;
#X connect 4 0 1 0;
#X connect 5 0 3 0;
#X connect 5 1 4 0;
#X connect 7 0 4 0;
#X connect 8 0 5 0;
#X restore 361 42 pd countto7;
#N canvas 427 22 563 362 WavShape 0;
#X obj 26 74 sel 0 1 2 3 4;
#X obj 267 12 vradio 15 1 0 4 empty empty empty 0 -6 0 8 -262144 -1
-1 0;
#X text 286 12 sin;
#X text 287 27 square;
#X text 286 59 sawtooth;
#X text 286 44 clarinet;
#X obj 27 55 r wavpresetFIRST;
#X obj 352 92 pack 0 0 0 0 0 0 0 0 0 0 0 0;
#X msg 94 176 0 0 0 0 0 0 0 0 0 0 0 0;
#X msg 25 97 60 0 0 0 0 0 0 0 0 0 0 0 0;
#X floatatom 380 47 5 0 0 0 - - -;
#X msg 43 117 50 0 25 0 12.5 0 6.25 0 3.125 0 1.5625 0 0.71825 0 0.390625
;
#X msg 44 275 \; OverToneFIRST sinesum 512 \$1 \$2 \$3 \$4 \$5 \$6
\$7 \$8 \$9 \$10 \$11 \$12 \$13 \$14 \$15 \$16;
#X msg 58 137 50 25 0 12.5 0 6.25 0 3.125 0 1.5625 0 0.7185 0 0.390625
;
#X msg 79 157 64 32 16 8 4 2 1 0.5 0.25 0.125 0.0625 0.03125;
#X connect 0 0 9 0;
#X connect 0 1 11 0;
#X connect 0 2 13 0;
#X connect 0 3 14 0;
#X connect 0 4 8 0;
#X connect 6 0 0 0;
#X connect 7 0 12 0;
#X connect 8 0 12 0;
#X connect 9 0 12 0;
#X connect 11 0 12 0;
#X connect 13 0 12 0;
#X connect 14 0 12 0;
#X restore 551 133 pd WavShape;
#X obj 382 261 noise~;
#X obj 380 286 *~ 0;
#X obj 451 203 r whitenoiseFIRST;
#X obj 437 257 *;
#X obj 362 17 r SetWavShapeFIRST;
#X obj 227 158 sig~;
#X obj 223 188 tabosc4~ OverToneFIRST;
#X obj 455 237 * 2;
#X connect 1 0 5 0;
#X connect 3 0 13 0;
#X connect 5 0 2 1;
#X connect 6 0 1 0;
#X connect 6 0 2 0;
#X connect 8 0 9 0;
#X connect 9 0 0 0;
#X connect 10 0 15 0;
#X connect 11 0 9 1;
#X connect 12 0 6 0;
#X connect 13 0 14 0;
#X connect 14 0 0 0;
#X connect 15 0 11 1;
#X connect 15 0 11 0;
#X restore 66 262 pd OverToneFIRSTpatch;
#X obj 216 164 tgl 15 0 empty empty empty 0 -6 0 8 -262144 -1 -1 79.9101
79.9101;
#N canvas 0 22 211 277 tempo2ms 0;
#X obj 89 29 inlet;
#X text 131 30 BPM;
#X obj 73 196 /;
#X msg 40 159 1;
#X obj 40 132 del 20;
#X obj 89 88 / 60000;
#X obj 73 228 outlet;
#X connect 0 0 5 0;
#X connect 2 0 6 0;
#X connect 3 0 2 0;
#X connect 4 0 3 0;
#X connect 5 0 2 1;
#X connect 5 0 4 0;
#X restore 331 115 pd tempo2ms;
#X text 455 77 BPM;
#X text 58 57 freq \, or 1=on \, 0=off;
#X text 314 69 tempo;
#X obj 198 488 outlet~;
#X obj 190 323 *~;
#N canvas 279 330 768 431 EnvelopeRead 0;
#X floatatom 238 150 5 0 0 0 - - -;
#X floatatom 281 150 5 0 0 0 - - -;
#X floatatom 324 150 5 0 0 0 - - -;
#X floatatom 367 150 5 0 0 0 - - -;
#X msg 18 155 1;
#X msg 60 155 0;
#X obj 170 211 aenv~ 100 200 0.6 500;
#X obj 238 75 vsl 8 64 10 2000 0 1 empty AttackEnvFIRST attack 0 -8
0 8 -262144 -1 -1 4527 1;
#X obj 281 75 vsl 8 64 10 2000 0 1 empty DecayEnvFIRST decay 0 -8 0
8 -262144 -1 -1 100 1;
#X obj 367 75 vsl 8 64 10 2000 0 1 empty ReleaseEnvFIRST release 0
-8 0 8 -262144 -1 -1 3200 1;
#X obj 324 75 vsl 8 64 0 1 0 1 empty SustainEnvFIRST sustain 0 -8 0
8 -262144 -1 -1 2500 1;
#X text 42 206 nonzero -> attack;
#X text 454 171 Ben Saylor <bsaylor@macalester.edu>;
#X text 470 187 http://www.macalester.edu/~bsaylor;
#X obj 18 90 bng 15 250 50 0 empty empty empty 0 -6 0 8 -262144 -1
-1;
#X text 37 87 <- click here;
#X obj 30 120 del 800;
#X text 413 74 aenv~: asymptotic ADSR envelope generator;
#X msg 198 73 lina;
#X msg 198 104 loga;
#X text 104 73 linear attack;
#X text 120 105 log attack;
#X msg 198 133 zero;
#X text 77 219 0 -> release;
#X obj 269 347 outlet~;
#X obj 122 293 tabwrite~ envFIRST;
#X obj 19 43 inlet;
#X obj 74 43 inlet;
#X obj 171 22 r EnvShapeFIRST;
#X floatatom 111 22 5 0 0 0 - - -;
#X connect 0 0 6 1;
#X connect 1 0 6 2;
#X connect 2 0 6 3;
#X connect 3 0 6 4;
#X connect 4 0 6 0;
#X connect 5 0 6 0;
#X connect 6 0 25 0;
#X connect 6 0 24 0;
#X connect 7 0 0 0;
#X connect 8 0 1 0;
#X connect 9 0 3 0;
#X connect 10 0 2 0;
#X connect 14 0 4 0;
#X connect 14 0 16 0;
#X connect 14 0 25 0;
#X connect 16 0 5 0;
#X connect 18 0 6 0;
#X connect 19 0 6 0;
#X connect 22 0 6 0;
#X connect 26 0 14 0;
#X connect 27 0 16 1;
#X connect 28 0 6 0;
#X connect 29 0 16 1;
#X restore 232 217 pd EnvelopeRead;
#X obj 216 192 metro 144;
#N canvas 314 41 516 475 lfo 0;
#X obj 76 238 osc~;
#X obj 278 160 tgl 15 0 empty empty empty 0 -6 0 8 -262144 -1 -1 1
1;
#X floatatom 336 157 5 0 0 0 - - -;
#X floatatom 67 170 5 0 0 0 - - -;
#N canvas 0 22 154 243 tempo2ms 0;
#X obj 70 5 inlet;
#X text 112 6 BPM;
#X obj 54 172 /;
#X msg 21 135 1;
#X obj 21 108 del 20;
#X obj 70 64 / 60000;
#X obj 54 204 outlet;
#X connect 0 0 5 0;
#X connect 2 0 6 0;
#X connect 3 0 2 0;
#X connect 4 0 3 0;
#X connect 5 0 2 1;
#X connect 5 0 4 0;
#X restore 336 131 pd tempo2ms;
#X floatatom 336 110 5 0 0 0 - - -;
#X text 106 170 Fundamental Frequency;
#X msg 206 136 0;
#X msg 242 128 1;
#X text 11 34 freq \, or 1=on \, 0=off;
#X obj 257 202 snapshot~;
#X text 211 4 LFO;
#X text 283 86 determine sample rate;
#X obj 212 76 sel 0 1;
#X obj 251 104 bng 15 250 50 0 empty empty empty 0 -6 0 8 -262144 -1
-1;
#X obj 420 251 line;
#X obj 449 193 float;
#X obj 391 232 float;
#X obj 427 211 bng 15 250 50 0 empty empty empty 0 -6 0 8 -262144 -1
-1;
#X obj 12 245 s~ lfo;
#X obj 137 370 outlet~;
#X obj 284 348 outlet;
#X text 99 426 this patch is messy as hell;
#X text 103 441 someday it will be clean;
#X obj 335 57 * 4000;
#X obj 278 179 metro 5;
#X obj 300 288 r FIRSTRangeLFOPitch;
#X obj 285 309 * 1;
#X obj 29 50 r FIRSTFreqLFOPitch;
#X obj 76 102 *;
#X obj 67 122 *;
#X obj 65 146 * 2;
#X obj 77 213 +;
#X obj 28 201 bng 15 250 50 0 empty empty empty 0 -6 0 8 -262144 -1
-1;
#X obj 205 283 * 0;
#X obj 222 258 r FIRSTLFOPitchFB;
#X floatatom 205 303 5 0 0 0 - - -;
#X floatatom 339 332 5 0 0 0 - - -;
#X connect 0 0 10 0;
#X connect 0 0 20 0;
#X connect 1 0 25 0;
#X connect 2 0 16 1;
#X connect 2 0 25 1;
#X connect 3 0 32 0;
#X connect 4 0 2 0;
#X connect 5 0 4 0;
#X connect 7 0 1 0;
#X connect 8 0 1 0;
#X connect 10 0 17 1;
#X connect 10 0 27 0;
#X connect 10 0 34 0;
#X connect 13 0 7 0;
#X connect 13 1 14 0;
#X connect 13 2 14 0;
#X connect 13 2 24 0;
#X connect 14 0 8 0;
#X connect 16 0 15 1;
#X connect 16 0 18 0;
#X connect 17 0 15 0;
#X connect 18 0 17 0;
#X connect 25 0 10 0;
#X connect 25 0 16 0;
#X connect 26 0 27 1;
#X connect 27 0 21 0;
#X connect 27 0 37 0;
#X connect 28 0 13 0;
#X connect 28 0 29 0;
#X connect 28 0 29 1;
#X connect 29 0 30 0;
#X connect 29 0 30 1;
#X connect 30 0 31 0;
#X connect 31 0 3 0;
#X connect 32 0 0 0;
#X connect 33 0 32 0;
#X connect 34 0 36 0;
#X connect 35 0 34 1;
#X connect 36 0 32 1;
#X connect 36 0 33 0;
#X restore 4 195 pd lfo;
#X obj 66 239 +;
#X obj 89 181 bng 15 250 50 0 empty empty empty 0 -6 0 8 -262144 -1
-1;
#N canvas 0 22 478 328 panpot 0;
#X obj 105 47 inlet~;
#X obj 269 46 inlet;
#X obj 90 168 *~;
#X obj 304 166 *~;
#X obj 280 78 / 127;
#X obj 187 134 - 1;
#X obj 186 157 * -1;
#X obj 133 250 outlet~;
#X obj 276 254 outlet~;
#X obj 182 26 loadbang;
#X msg 182 47 0.5;
#X obj 362 147 s panrecFIRST;
#X msg 358 118 63;
#X connect 0 0 3 0;
#X connect 0 0 2 0;
#X connect 1 0 4 0;
#X connect 2 0 8 0;
#X connect 3 0 7 0;
#X connect 4 0 3 1;
#X connect 4 0 5 0;
#X connect 5 0 6 0;
#X connect 6 0 2 1;
#X connect 9 0 10 0;
#X connect 10 0 2 1;
#X connect 10 0 3 1;
#X connect 12 0 11 0;
#X restore 198 425 pd panpot;
#X obj 256 488 outlet~;
#N canvas 490 140 580 486 LFOPANFIRST 0;
#X obj 63 224 osc~;
#X obj 278 160 tgl 15 0 empty empty empty 0 -6 0 8 -262144 -1 -1 1
1;
#X floatatom 67 170 5 0 0 0 - - -;
#N canvas 0 22 458 308 tempo2ms 0;
#X obj 280 135 inlet;
#X text 322 136 BPM;
#X obj 264 302 /;
#X msg 231 265 1;
#X obj 231 238 del 20;
#X obj 280 194 / 60000;
#X obj 264 334 outlet;
#X connect 0 0 5 0;
#X connect 2 0 6 0;
#X connect 3 0 2 0;
#X connect 4 0 3 0;
#X connect 5 0 2 1;
#X connect 5 0 4 0;
#X restore 336 131 pd tempo2ms;
#X text 106 170 Fundamental Frequency;
#X msg 206 136 0;
#X msg 242 128 1;
#X obj 257 202 snapshot~;
#X text 216 6 LFO;
#X obj 212 76 sel 0 1;
#X obj 251 104 bng 15 250 50 0 empty empty empty 0 -6 0 8 -262144 -1
-1;
#X obj 12 245 s~ lfo;
#X obj 137 370 outlet~;
#X obj 172 313 outlet;
#X text 251 332 this patch is messy as hell;
#X text 255 347 someday it will be clean;
#X obj 278 179 metro 5;
#X obj 285 269 * 1;
#X obj 124 136 *;
#X floatatom 9 206 5 0 0 0 - - -;
#X obj 28 50 r LFOPanFreqFIRST;
#X text 207 30 1=on \, 0=off;
#X text 44 32 freq;
#X obj 193 46 r FIRSTPanLFOIO;
#X obj 316 249 r LFOPanRangeFIRST;
#X connect 0 0 7 0;
#X connect 0 0 12 0;
#X connect 1 0 16 0;
#X connect 2 0 0 0;
#X connect 5 0 1 0;
#X connect 6 0 1 0;
#X connect 7 0 17 0;
#X connect 9 0 5 0;
#X connect 9 1 10 0;
#X connect 9 2 10 0;
#X connect 10 0 6 0;
#X connect 16 0 7 0;
#X connect 17 0 13 0;
#X connect 18 0 2 0;
#X connect 20 0 18 1;
#X connect 20 0 18 0;
#X connect 23 0 9 0;
#X connect 24 0 17 1;
#X restore 246 355 pd LFOPANFIRST;
#X obj 331 408 +;
#X obj 379 362 r pansetFIRST;
#X obj 341 163 +;
#X obj 324 145 bng 15 250 50 0 empty empty empty 0 -6 0 8 -262144 -1
-1;
#X obj 284 406 bng 15 250 50 0 empty empty empty 0 -6 0 8 -262144 -1
-1;
#X obj 48 75 r FreqOscFIRST;
#X obj 185 388 *~ 1;
#X obj 231 334 r VolumeFIRST;
#X obj 141 97 r FIRSTFreqLFOIO;
#N canvas 488 141 584 490 LFO 0;
#X obj 45 370 osc~;
#X obj 279 160 tgl 15 0 empty empty empty 0 -6 0 8 -262144 -1 -1 1
1;
#X floatatom 67 170 5 0 0 0 - - -;
#N canvas 0 22 458 308 tempo2ms 0;
#X obj 280 135 inlet;
#X text 322 136 BPM;
#X obj 264 302 /;
#X msg 231 265 1;
#X obj 231 238 del 20;
#X obj 280 194 / 60000;
#X obj 264 334 outlet;
#X connect 0 0 5 0;
#X connect 2 0 6 0;
#X connect 3 0 2 0;
#X connect 4 0 3 0;
#X connect 5 0 2 1;
#X connect 5 0 4 0;
#X restore 336 131 pd tempo2ms;
#X text 106 170 Fundamental Frequency;
#X obj 286 221 snapshot~;
#X text 216 6 LFO;
#X obj 28 433 outlet~;
#X obj 258 439 outlet;
#X text 321 412 this patch is messy as hell;
#X text 325 427 someday it will be clean;
#X obj 274 370 * 1;
#X obj 53 85 *;
#X obj 59 107 *;
#X obj 61 135 * 2;
#X obj 187 39 r FIRSTTempoLFOIO;
#X obj 395 219 r LFOTempoRangeFIRST;
#X obj 122 251 * 0;
#X obj 99 215 +;
#X obj 150 214 r FIRSTTempoFB;
#X obj 40 189 bng 15 250 50 0 empty empty empty 0 -6 0 8 -262144 -1
-1;
#X text 11 35 freq;
#X obj 29 50 r LFOTempoFreqFIRST;
#X floatatom 12 240 5 0 0 0 - - -;
#X floatatom 88 305 5 0 0 0 - - -;
#X obj 278 179 metro 25;
#X floatatom 162 405 5 0 0 0 - - -;
#X obj 113 275 *;
#X connect 0 0 5 0;
#X connect 0 0 7 0;
#X connect 1 0 25 0;
#X connect 2 0 18 1;
#X connect 2 0 20 0;
#X connect 5 0 11 0;
#X connect 5 0 17 0;
#X connect 11 0 8 0;
#X connect 11 0 26 0;
#X connect 12 0 13 0;
#X connect 12 0 13 1;
#X connect 13 0 14 0;
#X connect 14 0 2 0;
#X connect 15 0 1 0;
#X connect 16 0 11 1;
#X connect 17 0 27 0;
#X connect 18 0 0 0;
#X connect 18 0 23 0;
#X connect 18 0 24 0;
#X connect 19 0 17 1;
#X connect 20 0 18 0;
#X connect 22 0 12 0;
#X connect 22 0 12 1;
#X connect 22 0 27 1;
#X connect 25 0 5 0;
#X connect 27 0 18 0;
#X restore 428 124 pd LFO Tempo;
#X obj 305 86 r TempoOscFIRST;
#X floatatom 347 188 5 0 0 0 - - -;
#X obj 403 181 r LegatoFIRST;
#X obj 43 468 snapshot~;
#X obj 43 453 bng 15 250 50 0 empty empty empty 0 -6 0 8 -262144 -1
-1;
#X obj 43 484 print wha?;
#X connect 0 0 7 0;
#X connect 0 0 29 0;
#X connect 1 0 9 0;
#X connect 2 0 18 1;
#X connect 2 0 19 0;
#X connect 7 0 22 0;
#X connect 8 0 7 1;
#X connect 9 0 8 0;
#X connect 10 1 11 0;
#X connect 11 0 0 0;
#X connect 12 0 11 0;
#X connect 13 0 6 0;
#X connect 13 1 14 0;
#X connect 15 1 16 0;
#X connect 16 0 13 1;
#X connect 17 0 16 1;
#X connect 17 0 20 0;
#X connect 18 0 9 1;
#X connect 18 0 27 0;
#X connect 19 0 18 0;
#X connect 20 0 16 0;
#X connect 21 0 12 0;
#X connect 21 0 11 1;
#X connect 22 0 13 0;
#X connect 23 0 22 1;
#X connect 24 0 1 0;
#X connect 25 1 18 0;
#X connect 26 0 2 0;
#X connect 28 0 8 1;
#X connect 29 0 31 0;
#X connect 30 0 29 0;
#X restore 100 656 pd pulsilator one;
#X obj 119 243 cnv 15 99 76 empty pitchcanvas PITCH 5 4 0 34 -233017
-66577 0;
#X floatatom 122 324 5 0 0 0 - 2FreqOscFIRST FreqOscFIRST;
#X obj 71 150 tgl 40 0 FIRSTFreqLFOIO 2FIRSTFreqLFOIO empty 0 -6 0
8 -262144 -1 -1 79.9101 79.9101;
#X obj 198 273 vsl 35 65 0 2 0 0 FIRSTFreqLFOPitch 2FIRSTFreqLFOPitch
empty 0 -8 0 8 -262144 -1 -1 2880 1;
#X obj 238 272 vsl 35 65 0 127 0 0 FIRSTRangeLFOPitch 2FIRSTRangeLFOPitch
empty 0 -8 0 8 -262144 -1 -1 1663 1;
#X text 198 339 Freq;
#X text 234 340 Range;
#X text 136 254 in frequency;
#X text 152 267 [Hz];
#X obj 48 460 cnv 15 247 55 empty tempocanvas TEMPO 20 12 0 34 -233017
-66577 0;
#X floatatom 94 535 5 0 0 0 - 2TempoOscFIRST TempoOscFIRST;
#X obj 135 519 tgl 30 0 FIRSTTempoLFOIO 2FIRSTTempoLFOIO empty 0 -6
0 8 -262144 -1 -1 1 1;
#X text 139 504 LFO;
#X obj 170 471 vsl 35 75 0 2 0 0 LFOTempoFreqFIRST 2LFOTempoFreqFIRST
empty 0 -8 0 8 -262144 -1 -1 851 1;
#X obj 210 472 vsl 35 75 0 300 0 0 LFOTempoRangeFIRST 2LFOTempoRangeFIRST
empty 0 -8 0 8 -262144 -1 -1 5205 1;
#X text 172 455 Freq;
#X text 210 455 Range;
#X obj 125 356 cnv 15 192 82 fast clov PAN 6 62 0 34 -233017 -66577
0;
#X text 101 482 BPM;
#X obj 202 406 tgl 30 0 FIRSTPanLFOIO 2FIRSTPanLFOIO empty 0 -6 0 8
-262144 -1 -1 1 1;
#X obj 236 360 vsl 35 75 0 2 0 0 LFOPanFreqFIRST 2LFOPanFreqFIRST empty
0 -8 0 8 -262144 -1 -1 7326 1;
#X obj 276 361 vsl 35 75 0 50 0 0 LFOPanRangeFIRST 2LFOPanRangeFIRST
empty 0 -8 0 8 -262144 -1 -1 178 1;
#X text 240 436 Freq;
#X text 276 436 Range;
#X obj 138 358 hsl 90 34 0 127 0 0 pansetFIRST 2pansetFIRST empty -2
-6 0 8 -262144 -1 -1 5501 1;
#X text 205 437 LFO;
#X obj 139 190 cnv 15 172 38 fast quiggutt 66 0 0 0 4 -228856 -262144
0;
#X obj 170 200 cnv 1 148 17 empty quiggot 20 12 0 0 4 -262144 -262144
0;
#N canvas 345 117 726 313 Envelope 0;
#X floatatom 91 148 5 0 0 0 - - AttackEnvFIRST;
#X floatatom 134 148 5 0 0 0 - - DecayEnvFIRST;
#X floatatom 177 148 5 0 0 0 - - SustainEnvFIRST;
#X floatatom 220 148 5 0 0 0 - - ReleaseEnvFIRST;
#X obj 91 73 vsl 8 64 10 2000 0 1 empty 2attackvelFIRST attack 0 -8
0 8 -262144 -1 -1 4527 1;
#X obj 134 73 vsl 8 64 10 2000 0 1 empty empty decay 0 -8 0 8 -262144
-1 -1 100 1;
#X obj 220 73 vsl 8 64 10 2000 0 1 empty empty release 0 -8 0 8 -262144
-1 -1 3200 1;
#X obj 177 73 vsl 8 64 0 1 0 1 empty empty sustain 0 -8 0 8 -262144
-1 -1 2500 1;
#X msg 51 71 lina;
#X msg 51 102 loga;
#X msg 51 131 zero;
#N canvas 0 22 450 300 (subpatch) 0;
#X array envFIRST 88200 float 0;
#X coords 0 1 88199 0 300 140 1;
#X restore 329 34 graph;
#X text -46 73 linear attack;
#X text -30 105 log attack;
#X obj 328 175 hsl 300 15 0 1500 0 0 LegatoFIRST empty empty -2 -6
0 8 -262144 -1 -1 8900 1;
#X text 587 189 Legato;
#X text 328 189 Staccato;
#X obj 22 173 s EnvShapeFIRST;
#X connect 4 0 0 0;
#X connect 5 0 1 0;
#X connect 6 0 3 0;
#X connect 7 0 2 0;
#X connect 8 0 17 0;
#X connect 9 0 17 0;
#X connect 10 0 17 0;
#X restore 170 200 pd Envelope Generator;
#X text 229 213 [click here];
#X obj 60 6 cnv 15 160 125 empty quiggle WaveShape 145 5 0 21 -233017
-66577 0;
#X obj 249 28 vradio 20 1 0 5 wavpresetFIRST 2wavpresetFIRST empty
0 -6 0 8 -262144 -1 -1 0;
#X text 270 31 sin;
#X text 270 51 square;
#X text 269 91 sawtooth;
#X text 270 70 clarinet;
#X obj 217 30 vsl 23 96 0 0.6182 0 0 whitenoiseFIRST 2whitenoiseFIRST
empty 0 -8 0 8 -262144 -1 -1 0 1;
#X text 221 127 white;
#X text 221 135 noise;
#X text 270 110 nothing;
#X obj 108 29 cnv 15 98 98 empty quiggull 34 34 0 0 4 -262144 -262144
0;
#N canvas 0 22 458 308 (subpatch) 0;
#X array OverToneFIRST 515 float 3;
#A 0 -2.97001 0 2.97001 5.92551 8.85219 11.7361 14.564 17.3232 20.002
22.5898 25.0771 27.4557 29.7187 31.8609 33.878 35.7676 37.5284 39.1608
40.6661 42.0471 43.3076 44.4523 45.487 46.418 47.2521 47.9967 48.6593
49.2477 49.7695 50.2323 50.6432 51.0093 51.3368 51.6317 51.8993 52.1443
52.3708 52.5823 52.7814 52.9704 53.151 53.3243 53.4909 53.6513 53.8054
53.9529 54.0936 54.2267 54.3519 54.4686 54.5763 54.6747 54.7636 54.843
54.9131 54.9743 55.027 55.0721 55.1104 55.1428 55.1706 55.1947 55.2163
55.2366 55.2566 55.2772 55.2994 55.3236 55.3506 55.3804 55.4133 55.449
55.4873 55.5277 55.5694 55.6117 55.6536 55.694 55.7319 55.7662 55.7959
55.8198 55.837 55.8468 55.8484 55.8414 55.8254 55.8003 55.766 55.7228
55.6712 55.6115 55.5445 55.4709 55.3917 55.3076 55.2196 55.1285 55.0352
54.9404 54.8446 54.7484 54.6521 54.5559 54.4595 54.363 54.2657 54.1673
54.0668 53.9636 53.8565 53.7446 53.6267 53.5018 53.3687 53.2263 53.0738
52.9103 52.735 52.5475 52.3472 52.1341 51.908 51.6693 51.4181 51.1552
50.8811 50.5965 50.3026 50 49.69 49.3734 49.0513 48.7244 48.3937 48.0598
47.7233 47.3845 47.0436 46.7006 46.3553 46.0074 45.6564 45.3015 44.942
44.5768 44.2051 43.8257 43.4375 43.0396 42.6309 42.2104 41.7774 41.3311
40.8711 40.397 39.9087 39.406 38.8894 38.359 37.8155 37.2595 36.6919
36.1135 35.5252 34.9281 34.3231 33.711 33.0929 32.4694 31.8411 31.2085
30.572 29.9315 29.2872 28.6387 27.9856 27.3273 26.6632 25.9923 25.3139
24.6268 23.9302 23.223 22.5044 21.7735 21.0295 20.272 19.5005 18.7148
17.915 17.1012 16.2739 15.4336 14.5812 13.7176 12.844 11.9614 11.0712
10.1746 9.27291 8.36736 7.45906 6.54903 5.63814 4.72708 3.81637 2.90632
1.99708 1.08862 0.18075 -0.726814 -1.63444 -2.54252 -3.4514 -4.36133
-5.27239 -6.18442 -7.09694 -8.0091 -8.91958 -9.82658 -10.7277 -11.62
-12.4999 -13.3632 -14.2049 -15.0196 -15.8012 -16.5432 -17.2384 -17.8794
-18.4586 -18.9681 -19.4 -19.7466 -20.0004 -20.1543 -20.2018 -20.137
-19.955 -19.6518 -19.2246 -18.6715 -17.9923 -17.188 -16.2609 -15.2148
-14.0551 -12.7883 -11.4226 -9.96705 -8.43227 -6.82973 -5.17184 -3.47176
-1.74323 -0.000377382 1.74248 3.47102 5.17111 6.82902 8.43159 9.96641
11.422 12.7878 14.0546 15.2144 16.2605 17.1876 17.992 18.6713 19.2243
19.6517 19.9549 20.1369 20.2018 20.1544 20.0005 19.7468 19.4002 18.9683
18.4589 17.8797 17.2387 16.5435 15.8016 15.02 14.2053 13.3636 12.5003
11.6204 10.7281 9.82697 8.91997 8.00949 7.09734 6.18482 5.27279 4.36173
3.45179 2.54291 1.63483 0.727206 -0.180357 -1.08822 -1.99669 -2.90592
-3.81597 -4.72669 -5.63775 -6.54864 -7.45867 -8.36697 -9.27252 -10.1742
-11.0708 -11.961 -12.8436 -13.7173 -14.5808 -15.4332 -16.2735 -17.1008
-17.9146 -18.7145 -19.5001 -20.2716 -21.0292 -21.7731 -22.5041 -23.2227
-23.9299 -24.6265 -25.3136 -25.992 -26.6629 -27.327 -27.9853 -28.6384
-29.2869 -29.9313 -30.5717 -31.2083 -31.8408 -32.4691 -33.0926 -33.7108
-34.3228 -34.9278 -35.525 -36.1132 -36.6916 -37.2593 -37.8153 -38.3588
-38.8891 -39.4058 -39.9084 -40.3968 -40.8709 -41.3309 -41.7772 -42.2102
-42.6307 -43.0394 -43.4374 -43.8255 -44.2049 -44.5767 -44.9418 -45.3013
-45.6562 -46.0073 -46.3551 -46.7004 -47.0434 -47.3843 -47.7232 -48.0597
-48.3936 -48.7243 -49.0511 -49.3733 -49.6898 -49.9999 -50.3024 -50.5964
-50.8809 -51.1551 -51.418 -51.6692 -51.9079 -52.134 -52.3471 -52.5474
-52.735 -52.9102 -53.0738 -53.2263 -53.3686 -53.5017 -53.6267 -53.7445
-53.8565 -53.9635 -54.0668 -54.1672 -54.2657 -54.3629 -54.4595 -54.5558
-54.6521 -54.7484 -54.8446 -54.9403 -55.0351 -55.1285 -55.2195 -55.3076
-55.3916 -55.4709 -55.5445 -55.6115 -55.6711 -55.7228 -55.766 -55.8002
-55.8254 -55.8414 -55.8484 -55.8468 -55.837 -55.8198 -55.7959 -55.7663
-55.732 -55.694 -55.6536 -55.6117 -55.5694 -55.5277 -55.4874 -55.449
-55.4133 -55.3804 -55.3506 -55.3237 -55.2994 -55.2772 -55.2566 -55.2366
-55.2163 -55.1947 -55.1706 -55.1429 -55.1104 -55.0721 -55.0271 -54.9743
-54.9131 -54.843 -54.7636 -54.6747 -54.5763 -54.4686 -54.352 -54.2268
-54.0936 -53.953 -53.8055 -53.6514 -53.491 -53.3243 -53.1511 -52.9705
-52.7815 -52.5823 -52.3709 -52.1444 -51.8994 -51.6318 -51.3369 -51.0094
-50.6434 -50.2325 -49.7698 -49.248 -48.6596 -47.997 -47.2524 -46.4183
-45.4874 -44.4528 -43.3081 -42.0476 -40.6667 -39.1614 -37.5292 -35.7684
-33.8788 -31.8618 -29.7197 -27.4567 -25.0781 -22.5909 -20.0031 -17.3244
-14.5652 -11.7374 -8.85345 -5.92678 -2.97129 -0.00128548 2.96873;
#X coords 0 100 514 -100 100 100 1;
#X restore 105 29 graph;
#X obj 50 215 cnv 15 60 187 fast quigge Volume -34 193 0 25 -233017
-66577 0;
#X obj 58 230 vsl 42 160 0.005 0.5 1 0 VolumeFIRST 2VolumeFIRST empty
0 -8 0 8 -262144 -1 -1 12400 1;
#X obj 250 472 vsl 35 75 0 15 0 0 FIRSTTempoFB 2FIRSTTempoFB empty
0 -8 0 8 -262144 -1 -1 0 1;
#X text 247 455 Feedback;
#X obj 278 272 vsl 35 65 0 1 0 0 FIRSTLFOPitchFB 2FIRSTLFOPitchFB empty
0 -8 0 8 -262144 -1 -1 0 1;
#X obj 100 675 outlet~;
#X obj 214 675 outlet~;
#X text 69 189 On/OFF;
#X text 274 340 Feedback;
#X obj 139 149 cnv 15 172 38 fast quiggutt 66 0 0 0 4 -228856 -262144
0;
#X obj 170 159 cnv 1 148 17 empty quiggot 20 12 0 0 4 -262144 -262144
0;
#X text 229 172 [click here];
#N canvas 60 35 1006 708 Overtone 0;
#X obj 336 650 pack 0 0 0 0 0 0 0 0 0 0 0 0;
#N canvas 0 22 498 348 new 0;
#X obj 118 43 inlet;
#X obj 290 44 inlet;
#X obj 207 264 outlet;
#X obj 185 197 sin;
#N canvas 0 22 458 308 countup 0;
#X obj 169 77 inlet;
#X obj 201 128 int;
#X obj 244 129 + 1;
#X obj 232 183 * 1;
#X obj 299 73 inlet;
#X obj 185 99 bng 15 250 50 0 empty empty empty 0 -6 0 8 -262144 -1
-1;
#X obj 221 237 outlet;
#X connect 0 0 5 0;
#X connect 1 0 2 0;
#X connect 1 0 3 0;
#X connect 2 0 1 1;
#X connect 3 0 6 0;
#X connect 4 0 3 1;
#X connect 5 0 1 0;
#X restore 185 178 pd countup;
#X obj 185 158 bng 15 250 50 0 empty empty empty 0 -6 0 8 -262144 -1
-1;
#X floatatom 232 136 5 0 0 0 - - -;
#X obj 155 105 tgl 15 0 empty empty empty 0 -6 0 8 -262144 -1 -1 0
1;
#X obj 155 123 metro 50;
#X obj 272 85 * 0.01;
#X connect 0 0 7 0;
#X connect 1 0 9 0;
#X connect 3 0 2 0;
#X connect 4 0 3 0;
#X connect 5 0 4 0;
#X connect 6 0 4 1;
#X connect 7 0 8 0;
#X connect 8 0 5 0;
#X connect 9 0 6 0;
#X restore 351 204 pd new LFO;
#X obj 351 185 tgl 15 0 empty FIRSTotONE empty 0 -6 0 8 -262144 -1
-1 0 1;
#X floatatom 387 189 5 0 0 0 - - -;
#N canvas 0 22 482 332 new 0;
#X obj 118 43 inlet;
#X obj 290 44 inlet;
#X obj 207 264 outlet;
#X obj 185 197 sin;
#N canvas 0 22 454 304 countup 0;
#X obj 169 77 inlet;
#X obj 201 128 int;
#X obj 244 129 + 1;
#X obj 232 183 * 1;
#X obj 299 73 inlet;
#X obj 185 99 bng 15 250 50 0 empty empty empty 0 -6 0 8 -262144 -1
-1;
#X obj 221 237 outlet;
#X connect 0 0 5 0;
#X connect 1 0 2 0;
#X connect 1 0 3 0;
#X connect 2 0 1 1;
#X connect 3 0 6 0;
#X connect 4 0 3 1;
#X connect 5 0 1 0;
#X restore 185 177 pd countup;
#X obj 185 158 bng 15 250 50 0 empty empty empty 0 -6 0 8 -262144 -1
-1;
#X floatatom 232 136 5 0 0 0 - - -;
#X obj 155 105 tgl 15 0 empty empty empty 0 -6 0 8 -262144 -1 -1 0
1;
#X obj 155 123 metro 50;
#X obj 290 93 * 0.01;
#X connect 0 0 7 0;
#X connect 1 0 9 0;
#X connect 3 0 2 0;
#X connect 4 0 3 0;
#X connect 5 0 4 0;
#X connect 6 0 4 1;
#X connect 7 0 8 0;
#X connect 8 0 5 0;
#X connect 9 0 6 0;
#X restore 396 243 pd new LFO;
#X obj 395 226 tgl 15 0 empty FIRSTotTWO empty 0 -6 0 8 -262144 -1
-1 0 1;
#X floatatom 432 228 5 0 0 0 - - -;
#N canvas 0 22 478 328 new 0;
#X obj 118 43 inlet;
#X obj 290 44 inlet;
#X obj 207 264 outlet;
#X obj 193 214 sin;
#N canvas 0 22 454 304 countup 0;
#X obj 169 77 inlet;
#X obj 201 128 int;
#X obj 244 129 + 1;
#X obj 232 183 * 1;
#X obj 299 73 inlet;
#X obj 185 99 bng 15 250 50 0 empty empty empty 0 -6 0 8 -262144 -1
-1;
#X obj 221 237 outlet;
#X connect 0 0 5 0;
#X connect 1 0 2 0;
#X connect 1 0 3 0;
#X connect 2 0 1 1;
#X connect 3 0 6 0;
#X connect 4 0 3 1;
#X connect 5 0 1 0;
#X restore 185 177 pd countup;
#X obj 185 158 bng 15 250 50 0 empty empty empty 0 -6 0 8 -262144 -1
-1;
#X obj 155 105 tgl 15 0 empty empty empty 0 -6 0 8 -262144 -1 -1 0
1;
#X obj 155 124 metro 50;
#X obj 290 93 * 0.01;
#X connect 0 0 6 0;
#X connect 1 0 8 0;
#X connect 3 0 2 0;
#X connect 4 0 3 0;
#X connect 5 0 4 0;
#X connect 6 0 7 0;
#X connect 7 0 5 0;
#X connect 8 0 4 1;
#X restore 421 284 pd new LFO;
#X obj 420 267 tgl 15 0 empty FIRSTotTHREE empty 0 -6 0 8 -262144 -1
-1 0 1;
#X floatatom 455 269 5 0 0 0 - - -;
#N canvas 0 22 486 336 new 0;
#X obj 118 43 inlet;
#X obj 290 44 inlet;
#X obj 207 264 outlet;
#X obj 185 197 sin;
#N canvas 0 22 454 304 countup 0;
#X obj 169 77 inlet;
#X obj 201 128 int;
#X obj 244 129 + 1;
#X obj 232 183 * 1;
#X obj 299 73 inlet;
#X obj 185 99 bng 15 250 50 0 empty empty empty 0 -6 0 8 -262144 -1
-1;
#X obj 221 237 outlet;
#X connect 0 0 5 0;
#X connect 1 0 2 0;
#X connect 1 0 3 0;
#X connect 2 0 1 1;
#X connect 3 0 6 0;
#X connect 4 0 3 1;
#X connect 5 0 1 0;
#X restore 185 177 pd countup;
#X obj 155 105 tgl 15 0 empty empty empty 0 -6 0 8 -262144 -1 -1 0
1;
#X obj 155 124 metro 50;
#X obj 289 91 * 0.01;
#X connect 0 0 5 0;
#X connect 1 0 7 0;
#X connect 3 0 2 0;
#X connect 4 0 3 0;
#X connect 5 0 6 0;
#X connect 6 0 4 0;
#X connect 7 0 4 1;
#X restore 466 323 pd new LFO;
#X obj 465 306 tgl 15 0 empty FIRSTotFOUR empty 0 -6 0 8 -262144 -1
-1 0 1;
#X floatatom 504 301 5 0 0 0 - - -;
#N canvas 0 22 494 344 new 0;
#X obj 118 43 inlet;
#X obj 290 44 inlet;
#X obj 207 264 outlet;
#X obj 185 197 sin;
#N canvas 0 22 454 304 countup 0;
#X obj 169 77 inlet;
#X obj 201 128 int;
#X obj 244 129 + 1;
#X obj 232 183 * 1;
#X obj 299 73 inlet;
#X obj 185 99 bng 15 250 50 0 empty empty empty 0 -6 0 8 -262144 -1
-1;
#X obj 221 237 outlet;
#X connect 0 0 5 0;
#X connect 1 0 2 0;
#X connect 1 0 3 0;
#X connect 2 0 1 1;
#X connect 3 0 6 0;
#X connect 4 0 3 1;
#X connect 5 0 1 0;
#X restore 185 177 pd countup;
#X obj 155 105 tgl 15 0 empty empty empty 0 -6 0 8 -262144 -1 -1 0
1;
#X obj 156 125 metro 50;
#X obj 290 93 * 0.01;
#X connect 0 0 5 0;
#X connect 1 0 7 0;
#X connect 3 0 2 0;
#X connect 4 0 3 0;
#X connect 5 0 6 0;
#X connect 6 0 4 0;
#X connect 7 0 4 1;
#X restore 503 368 pd new LFO;
#X obj 502 351 tgl 15 0 empty FIRSTotFIVE empty 0 -6 0 8 -262144 -1
-1 0 1;
#X floatatom 539 353 5 0 0 0 - - -;
#N canvas 0 22 482 332 new 0;
#X obj 118 43 inlet;
#X obj 290 44 inlet;
#X obj 207 264 outlet;
#X obj 185 197 sin;
#N canvas 0 22 454 304 countup 0;
#X obj 169 77 inlet;
#X obj 201 128 int;
#X obj 244 129 + 1;
#X obj 232 183 * 1;
#X obj 299 73 inlet;
#X obj 185 99 bng 15 250 50 0 empty empty empty 0 -6 0 8 -262144 -1
-1;
#X obj 221 237 outlet;
#X connect 0 0 5 0;
#X connect 1 0 2 0;
#X connect 1 0 3 0;
#X connect 2 0 1 1;
#X connect 3 0 6 0;
#X connect 4 0 3 1;
#X connect 5 0 1 0;
#X restore 185 177 pd countup;
#X obj 155 105 tgl 15 0 empty empty empty 0 -6 0 8 -262144 -1 -1 0
1;
#X obj 154 126 metro 50;
#X obj 290 93 * 0.01;
#X connect 0 0 5 0;
#X connect 1 0 7 0;
#X connect 3 0 2 0;
#X connect 4 0 3 0;
#X connect 5 0 6 0;
#X connect 6 0 4 0;
#X connect 7 0 4 1;
#X restore 548 407 pd new LFO;
#X obj 547 390 tgl 15 0 empty FIRSTotSIX empty 0 -6 0 8 -262144 -1
-1 0 1;
#X floatatom 584 392 5 0 0 0 - - -;
#N canvas 0 22 470 320 new 0;
#X obj 118 43 inlet;
#X obj 294 48 inlet;
#X obj 207 264 outlet;
#X obj 211 41 inlet;
#X obj 185 197 sin;
#N canvas 0 22 458 308 countup 0;
#X obj 169 77 inlet;
#X obj 201 128 int;
#X obj 244 129 + 1;
#X obj 232 183 * 1;
#X obj 299 73 inlet;
#X obj 185 99 bng 15 250 50 0 empty empty empty 0 -6 0 8 -262144 -1
-1;
#X obj 221 237 outlet;
#X connect 0 0 5 0;
#X connect 1 0 2 0;
#X connect 1 0 3 0;
#X connect 2 0 1 1;
#X connect 3 0 6 0;
#X connect 4 0 3 1;
#X connect 5 0 1 0;
#X restore 185 178 pd countup;
#X obj 155 124 metro 100;
#X obj 155 105 tgl 15 0 empty empty empty 0 -6 0 8 -262144 -1 -1 0
1;
#X obj 290 93 * 0.01;
#X connect 0 0 7 0;
#X connect 1 0 8 0;
#X connect 4 0 2 0;
#X connect 5 0 4 0;
#X connect 6 0 5 0;
#X connect 7 0 6 0;
#X connect 8 0 5 1;
#X restore 631 234 pd new LFO;
#X obj 630 217 tgl 15 0 empty FIRSTotSEVEN empty 0 -6 0 8 -262144 -1
-1 0 1;
#X floatatom 667 219 5 0 0 0 - - -;
#N canvas 0 22 470 320 new 0;
#X obj 118 43 inlet;
#X obj 290 44 inlet;
#X obj 207 264 outlet;
#X obj 211 41 inlet;
#X obj 185 197 sin;
#N canvas 0 22 454 304 countup 0;
#X obj 169 77 inlet;
#X obj 201 128 int;
#X obj 244 129 + 1;
#X obj 232 183 * 1;
#X obj 299 73 inlet;
#X obj 185 99 bng 15 250 50 0 empty empty empty 0 -6 0 8 -262144 -1
-1;
#X obj 221 237 outlet;
#X connect 0 0 5 0;
#X connect 1 0 2 0;
#X connect 1 0 3 0;
#X connect 2 0 1 1;
#X connect 3 0 6 0;
#X connect 4 0 3 1;
#X connect 5 0 1 0;
#X restore 185 177 pd countup;
#X obj 155 124 metro 100;
#X obj 155 105 tgl 15 0 empty empty empty 0 -6 0 8 -262144 -1 -1 0
1;
#X obj 290 93 * 0.01;
#X connect 0 0 7 0;
#X connect 1 0 8 0;
#X connect 4 0 2 0;
#X connect 5 0 4 0;
#X connect 6 0 5 0;
#X connect 7 0 6 0;
#X connect 8 0 5 1;
#X restore 676 273 pd new LFO;
#X obj 675 256 tgl 15 0 empty FIRSTotEIGHT empty 0 -6 0 8 -262144 -1
-1 0 1;
#X floatatom 712 258 5 0 0 0 - - -;
#N canvas 0 22 470 320 new 0;
#X obj 118 43 inlet;
#X obj 290 44 inlet;
#X obj 207 264 outlet;
#X obj 211 41 inlet;
#X obj 185 197 sin;
#N canvas 0 22 454 304 countup 0;
#X obj 169 77 inlet;
#X obj 201 128 int;
#X obj 244 129 + 1;
#X obj 232 183 * 1;
#X obj 299 73 inlet;
#X obj 185 99 bng 15 250 50 0 empty empty empty 0 -6 0 8 -262144 -1
-1;
#X obj 221 237 outlet;
#X connect 0 0 5 0;
#X connect 1 0 2 0;
#X connect 1 0 3 0;
#X connect 2 0 1 1;
#X connect 3 0 6 0;
#X connect 4 0 3 1;
#X connect 5 0 1 0;
#X restore 185 177 pd countup;
#X obj 155 124 metro 100;
#X obj 155 105 tgl 15 0 empty empty empty 0 -6 0 8 -262144 -1 -1 0
1;
#X obj 290 93 * 0.01;
#X connect 0 0 7 0;
#X connect 1 0 8 0;
#X connect 4 0 2 0;
#X connect 5 0 4 0;
#X connect 6 0 5 0;
#X connect 7 0 6 0;
#X connect 8 0 5 1;
#X restore 701 314 pd new LFO;
#X obj 700 297 tgl 15 0 empty FIRSTotNINE empty 0 -6 0 8 -262144 -1
-1 0 1;
#X floatatom 737 299 5 0 0 0 - - -;
#N canvas 0 22 470 320 new 0;
#X obj 118 43 inlet;
#X obj 290 44 inlet;
#X obj 207 264 outlet;
#X obj 211 41 inlet;
#X obj 185 197 sin;
#N canvas 0 22 454 304 countup 0;
#X obj 169 77 inlet;
#X obj 201 128 int;
#X obj 244 129 + 1;
#X obj 232 183 * 1;
#X obj 299 73 inlet;
#X obj 185 99 bng 15 250 50 0 empty empty empty 0 -6 0 8 -262144 -1
-1;
#X obj 221 237 outlet;
#X connect 0 0 5 0;
#X connect 1 0 2 0;
#X connect 1 0 3 0;
#X connect 2 0 1 1;
#X connect 3 0 6 0;
#X connect 4 0 3 1;
#X connect 5 0 1 0;
#X restore 185 177 pd countup;
#X obj 155 124 metro 100;
#X obj 155 105 tgl 15 0 empty empty empty 0 -6 0 8 -262144 -1 -1 0
1;
#X obj 290 93 * 0.01;
#X connect 0 0 7 0;
#X connect 1 0 8 0;
#X connect 4 0 2 0;
#X connect 5 0 4 0;
#X connect 6 0 5 0;
#X connect 7 0 6 0;
#X connect 8 0 5 1;
#X restore 746 353 pd new LFO;
#X obj 745 336 tgl 15 0 empty FIRSTotTEN empty 0 -6 0 8 -262144 -1
-1 0 1;
#X floatatom 782 338 5 0 0 0 - - -;
#N canvas 0 22 478 328 new 0;
#X obj 118 43 inlet;
#X obj 290 44 inlet;
#X obj 207 264 outlet;
#X obj 211 41 inlet;
#X obj 185 197 sin;
#N canvas 0 22 462 312 countup 0;
#X obj 169 77 inlet;
#X obj 201 128 int;
#X obj 244 129 + 1;
#X obj 232 183 * 1;
#X obj 299 73 inlet;
#X obj 221 237 outlet;
#X connect 0 0 1 0;
#X connect 1 0 2 0;
#X connect 1 0 3 0;
#X connect 2 0 1 1;
#X connect 3 0 5 0;
#X connect 4 0 3 1;
#X restore 185 177 pd countup;
#X obj 155 105 tgl 15 0 empty empty empty 0 -6 0 8 -262144 -1 -1 0
1;
#X obj 155 124 metro 25;
#X obj 275 128 * 0.01;
#X connect 0 0 6 0;
#X connect 1 0 8 0;
#X connect 4 0 2 0;
#X connect 5 0 4 0;
#X connect 6 0 7 0;
#X connect 7 0 5 0;
#X connect 8 0 5 1;
#X restore 783 398 pd new LFO;
#X obj 782 381 tgl 15 0 empty FIRSTotELEVEN empty 0 -6 0 8 -262144
-1 -1 0 1;
#X floatatom 819 383 5 0 0 0 - - -;
#N canvas 0 22 486 336 new 0;
#X obj 118 43 inlet;
#X obj 290 44 inlet;
#X obj 207 264 outlet;
#X obj 211 41 inlet;
#X obj 185 197 sin;
#N canvas 0 22 466 316 countup 0;
#X obj 169 77 inlet;
#X obj 201 128 int;
#X obj 244 129 + 1;
#X obj 232 183 * 1;
#X obj 299 73 inlet;
#X obj 221 237 outlet;
#X connect 0 0 1 0;
#X connect 1 0 2 0;
#X connect 1 0 3 0;
#X connect 2 0 1 1;
#X connect 3 0 5 0;
#X connect 4 0 3 1;
#X restore 185 177 pd countup;
#X obj 155 105 tgl 15 0 empty empty empty 0 -6 0 8 -262144 -1 -1 0
1;
#X obj 155 124 metro 25;
#X obj 266 117 * 0.01;
#X connect 0 0 6 0;
#X connect 1 0 8 0;
#X connect 4 0 2 0;
#X connect 5 0 4 0;
#X connect 6 0 7 0;
#X connect 7 0 5 0;
#X connect 8 0 5 1;
#X restore 828 437 pd new LFO;
#X obj 827 420 tgl 15 0 empty FIRSTotTWELVE empty 0 -6 0 8 -262144
-1 -1 0 1;
#X floatatom 864 422 5 0 0 0 - - -;
#X msg 315 685 \; OverToneFIRST sinesum 512 \$1 \$2 \$3 \$4 \$5 \$6
\$7 \$8 \$9 \$10 \$11 \$12;
#X obj 482 407 * 38;
#X obj 538 431 * 34;
#X obj 452 386 * 43;
#X obj 615 274 * 3;
#X obj 683 352 * 2.7;
#X obj 701 380 * 2.5;
#X obj 732 416 * 2.3;
#X obj 762 437 * 2.1;
#X obj 362 295 * 100;
#X obj 401 321 * 70;
#X obj 421 350 * 50;
#X obj 818 460 * 20;
#X obj 316 580 metro 25;
#X obj 287 14 tgl 15 0 empty empty empty 17 7 0 10 -262144 -1 -1 0
1;
#X obj 51 35 cnv 15 266 169 empty empty OvertonePresence -41 0 0 28
-233017 -66577 0;
#X obj 69 52 vsl 15 128 0 100 0 0 empty empty empty 0 -8 0 8 -262144
-1 -1 0 1;
#X obj 89 52 vsl 15 128 0 90 0 0 empty empty empty 0 -8 0 8 -262144
-1 -1 0 1;
#X obj 109 52 vsl 15 128 0 80 0 0 empty empty empty 0 -8 0 8 -262144
-1 -1 0 1;
#X obj 129 52 vsl 15 128 0 70 0 0 empty empty empty 0 -8 0 8 -262144
-1 -1 0 1;
#X obj 149 52 vsl 15 128 0 60 0 0 empty empty empty 0 -8 0 8 -262144
-1 -1 0 1;
#X obj 169 52 vsl 15 128 0 50 0 0 empty empty empty 0 -8 0 8 -262144
-1 -1 0 1;
#X obj 189 52 vsl 15 128 0 45 0 0 empty empty empty 0 -8 0 8 -262144
-1 -1 0 1;
#X obj 209 52 vsl 15 128 0 40 0 0 empty empty empty 0 -8 0 8 -262144
-1 -1 0 1;
#X obj 229 52 vsl 15 128 0 35 0 0 empty empty empty 0 -8 0 8 -262144
-1 -1 0 1;
#X obj 249 52 vsl 15 128 0 30 0 0 empty empty empty 0 -8 0 8 -262144
-1 -1 0 1;
#X obj 269 52 vsl 15 128 0 27.5 0 0 empty empty empty 0 -8 0 8 -262144
-1 -1 0 1;
#X obj 289 52 vsl 15 128 0 25 0 0 empty empty empty 0 -8 0 8 -262144
-1 -1 0 1;
#X obj 51 215 cnv 15 266 169 empty face OvertoneActivity -41 168 0
28 -233017 -66577 0;
#X obj 108 236 vsl 15 128 0.2 10 0 0 empty empty empty 0 -8 0 8 -262144
-1 -1 0 1;
#X obj 128 236 vsl 15 128 0.2 10 0 0 empty empty empty 0 -8 0 8 -262144
-1 -1 0 1;
#X obj 148 236 vsl 15 128 0.2 10 0 0 empty empty empty 0 -8 0 8 -262144
-1 -1 0 1;
#X obj 168 236 vsl 15 128 0.2 10 0 0 empty empty empty 0 -8 0 8 -262144
-1 -1 0 1;
#X obj 68 236 vsl 15 128 0.2 10 0 0 empty empty empty 0 -8 0 8 -262144
-1 -1 0 1;
#X obj 88 236 vsl 15 128 0.2 10 0 0 empty empty empty 0 -8 0 8 -262144
-1 -1 0 1;
#X obj 228 236 vsl 15 128 0.2 10 0 0 empty empty empty 0 -8 0 8 -262144
-1 -1 0 1;
#X obj 248 236 vsl 15 128 0.2 10 0 0 empty empty empty 0 -8 0 8 -262144
-1 -1 0 1;
#X obj 268 236 vsl 15 128 0.2 10 0 0 empty empty empty 0 -8 0 8 -262144
-1 -1 0 1;
#X obj 288 236 vsl 15 128 0.2 10 0 0 empty empty empty 0 -8 0 8 -262144
-1 -1 0 1;
#X obj 188 236 vsl 15 128 0.2 10 0 0 empty empty empty 0 -8 0 8 -262144
-1 -1 0 1;
#X obj 208 236 vsl 15 128 0.2 10 0 0 empty empty empty 0 -8 0 8 -262144
-1 -1 0 1;
#X obj 70 201 tgl 12 0 FIRSTotONE empty 1 0 -6 0 8 -262144 -1 -1 0
1;
#X obj 90 201 tgl 12 0 FIRSTotTWO empty 2 0 -6 0 8 -262144 -1 -1 0
1;
#X obj 110 201 tgl 12 0 FIRSTotTHREE empty 3 0 -6 0 8 -262144 -1 -1
0 1;
#X obj 130 201 tgl 12 0 FIRSTotFOUR empty 4 0 -6 0 8 -262144 -1 -1
0 1;
#X obj 150 201 tgl 12 0 FIRSTotFIVE empty 5 0 -6 0 8 -262144 -1 -1
0 1;
#X obj 170 201 tgl 12 0 FIRSTotSIX empty 6 0 -6 0 8 -262144 -1 -1 0
1;
#X obj 191 201 tgl 12 0 FIRSTotSEVEN empty 7 0 -6 0 8 -262144 -1 -1
0 1;
#X obj 210 201 tgl 12 0 FIRSTotEIGHT empty 8 0 -6 0 8 -262144 -1 -1
0 1;
#X obj 230 201 tgl 12 0 FIRSTotNINE empty 9 0 -6 0 8 -262144 -1 -1
0 1;
#X obj 250 201 tgl 12 0 FIRSTotTEN empty 10 0 -6 0 8 -262144 -1 -1
0 1;
#X obj 270 201 tgl 12 0 FIRSTotELEVEN empty 11 0 -6 0 8 -262144 -1
-1 0 1;
#X obj 290 201 tgl 12 0 FIRSTotTWELVE empty 12 0 -6 0 8 -262144 -1
-1 0 1;
#X connect 0 0 37 0;
#X connect 1 0 46 0;
#X connect 2 0 1 0;
#X connect 3 0 1 1;
#X connect 4 0 47 0;
#X connect 5 0 4 0;
#X connect 6 0 4 1;
#X connect 7 0 48 0;
#X connect 8 0 7 0;
#X connect 9 0 7 1;
#X connect 10 0 40 0;
#X connect 11 0 10 0;
#X connect 12 0 10 1;
#X connect 13 0 38 0;
#X connect 14 0 13 0;
#X connect 15 0 13 1;
#X connect 16 0 39 0;
#X connect 17 0 16 0;
#X connect 18 0 16 1;
#X connect 19 0 41 0;
#X connect 20 0 19 0;
#X connect 21 0 19 2;
#X connect 22 0 42 0;
#X connect 23 0 22 0;
#X connect 24 0 22 2;
#X connect 25 0 43 0;
#X connect 26 0 25 0;
#X connect 27 0 25 2;
#X connect 28 0 44 0;
#X connect 29 0 28 0;
#X connect 30 0 28 2;
#X connect 31 0 45 0;
#X connect 32 0 31 0;
#X connect 33 0 31 2;
#X connect 34 0 49 0;
#X connect 35 0 34 0;
#X connect 36 0 34 2;
#X connect 38 0 0 4;
#X connect 39 0 0 5;
#X connect 40 0 0 3;
#X connect 41 0 0 6;
#X connect 42 0 0 7;
#X connect 43 0 0 8;
#X connect 44 0 0 9;
#X connect 45 0 0 10;
#X connect 46 0 0 0;
#X connect 47 0 0 1;
#X connect 48 0 0 2;
#X connect 49 0 0 11;
#X connect 50 0 0 0;
#X connect 51 0 50 0;
#X connect 53 0 46 1;
#X connect 54 0 47 1;
#X connect 55 0 48 1;
#X connect 56 0 40 1;
#X connect 57 0 38 1;
#X connect 58 0 39 1;
#X connect 59 0 41 1;
#X connect 60 0 42 1;
#X connect 61 0 43 1;
#X connect 62 0 44 1;
#X connect 63 0 45 1;
#X connect 64 0 49 1;
#X connect 66 0 9 0;
#X connect 67 0 12 0;
#X connect 68 0 15 0;
#X connect 69 0 18 0;
#X connect 70 0 3 0;
#X connect 71 0 6 0;
#X connect 72 0 27 0;
#X connect 73 0 30 0;
#X connect 74 0 33 0;
#X connect 75 0 36 0;
#X connect 76 0 21 0;
#X connect 77 0 24 0;
#X restore 170 159 pd Overtone Interplay;
#N canvas 169 142 706 577 SaveAll 0;
#X obj 413 -3 bng 8 250 50 0 empty empty empty 0 -6 0 8 -262144 -1
-1;
#X obj 413 -31 r SaveItAll;
#X msg 158 489 rewind;
#X msg 239 484 bang;
#X msg 311 366 write /Volumes/MEGAMAN/untitled;
#N canvas 771 36 472 512 openall 0;
#X obj 246 453 outlet;
#X obj 206 352 s MasterSaveOne;
#X obj 236 376 s MasterSaveTwo;
#X obj 266 400 s MasterSaveThree;
#X obj 296 422 s MasterSaveFour;
#X obj 148 234 textfile;
#X msg 230 119 rewind;
#X msg 240 144 clear;
#X msg 252 170 read \$1;
#X obj 292 100 openpanel;
#X obj 293 79 bng 15 250 50 0 empty empty empty 0 -6 0 8 -262144 -1
-1;
#X obj 293 46 inlet;
#X obj 157 166 bng 15 250 50 0 empty empty empty 0 -6 0 8 -262144 -1
-1;
#N canvas 0 22 518 368 countto4 0;
#X floatatom 250 207 5 0 0 0 - - -;
#X obj 248 178 int;
#X obj 320 177 + 1;
#X msg 120 108 0;
#X obj 209 132 bng 15 250 50 0 empty empty empty 0 -6 0 8 -262144 -1
-1;
#X obj 238 256 outlet;
#X obj 229 68 inlet;
#X obj 121 53 pipe 15;
#X text 224 51 recieve any input;
#X text 150 276 counts from 0 to (whatever sel has);
#X obj 118 79 sel 3;
#X connect 0 0 5 0;
#X connect 0 0 7 0;
#X connect 1 0 2 0;
#X connect 1 0 0 0;
#X connect 2 0 1 1;
#X connect 3 0 1 1;
#X connect 4 0 1 0;
#X connect 6 0 4 0;
#X connect 7 0 10 0;
#X connect 10 0 3 0;
#X restore 257 241 pd countto4;
#X obj 230 206 bng 15 250 50 0 empty empty empty 0 -6 0 8 -262144 -1
-1;
#X obj 206 280 pack;
#X obj 205 308 route 0 1 2 3;
#X obj 97 333 print;
#X connect 5 0 15 1;
#X connect 5 1 15 1;
#X connect 6 0 5 0;
#X connect 6 0 14 0;
#X connect 8 0 5 0;
#X connect 8 0 12 0;
#X connect 9 0 8 0;
#X connect 10 0 9 0;
#X connect 11 0 10 0;
#X connect 12 0 6 0;
#X connect 13 0 15 0;
#X connect 14 0 5 0;
#X connect 15 0 16 0;
#X connect 15 0 17 0;
#X connect 16 0 1 0;
#X connect 16 1 2 0;
#X connect 16 2 3 0;
#X connect 16 3 4 0;
#X restore 78 330 pd openall;
#X obj 450 128 r OpenWutev;
#X obj 316 488 print save data;
#X text 384 457 this jumble of code at least;
#X text 399 471 can save a MT file;
#N canvas 0 22 466 316 SavePreparer 0;
#X obj 180 86 savepanel;
#X obj 181 66 bng 8 250 50 0 empty empty empty 0 -6 0 8 -262144 -1
-1;
#X msg 234 128 add2 \$1;
#X msg 127 129 set write;
#X obj 145 256 outlet;
#X obj 226 191 bng 15 250 50 0 empty empty empty 17 7 0 10 -262144
-1 -1;
#X obj 181 18 inlet;
#X connect 0 0 2 0;
#X connect 1 0 0 0;
#X connect 1 0 3 0;
#X connect 2 0 4 0;
#X connect 2 0 5 0;
#X connect 3 0 4 0;
#X connect 5 0 4 0;
#X connect 6 0 1 0;
#X restore 340 317 pd SavePreparer;
#N canvas 0 22 345 260 ClearBanger 0;
#X msg 148 80 clear;
#X obj 90 57 loadbang;
#X obj 151 62 del 5;
#X msg 150 43 bang;
#X obj 118 18 inlet;
#X obj 135 147 outlet;
#X connect 0 0 5 0;
#X connect 1 0 0 0;
#X connect 2 0 0 0;
#X connect 3 0 2 0;
#X connect 4 0 3 0;
#X restore 379 406 pd ClearBanger;
#N canvas 0 22 425 462 PanSave 0;
#X msg 103 109;
#X msg 103 159;
#X msg 103 205;
#X msg 32 -7 set;
#X msg 101 46;
#X obj 31 -27 loadbang;
#N canvas 0 22 482 332 panset 0;
#X obj 141 57 r pansetFIRST;
#X obj 111 14 r SaveItAll;
#X msg 111 38 bang;
#X obj 111 78 float;
#X obj 107 201 outlet;
#X msg 228 105 add \$1;
#X msg 70 104 set add pansetFIRST;
#X connect 0 0 3 1;
#X connect 1 0 2 0;
#X connect 2 0 3 0;
#X connect 3 0 6 0;
#X connect 3 0 5 0;
#X connect 5 0 4 0;
#X connect 6 0 4 0;
#X restore 101 17 pd panset;
#N canvas 0 22 478 328 LFOPANFREQ 0;
#X obj 141 57 r LFOPanFreqFIRST;
#X obj 111 14 r SaveItAll;
#X msg 111 38 bang;
#X obj 111 78 float;
#X obj 107 201 outlet;
#X msg 228 105 add \$1;
#X msg 63 128 set add LFOPanFreqFIRST;
#X connect 0 0 3 1;
#X connect 1 0 2 0;
#X connect 2 0 3 0;
#X connect 3 0 6 0;
#X connect 3 0 5 0;
#X connect 5 0 4 0;
#X connect 6 0 4 0;
#X restore 103 76 pd LFOPANFREQ;
#N canvas 0 22 462 312 LFOPanRange 0;
#X obj 141 57 r LFOPanRangeFIRST;
#X obj 111 14 r SaveItAll;
#X msg 111 38 bang;
#X obj 111 78 float;
#X obj 107 201 outlet;
#X msg 258 105 add \$1;
#X msg 70 105 set add LFOPanRangeFIRST;
#X connect 0 0 3 1;
#X connect 1 0 2 0;
#X connect 2 0 3 0;
#X connect 3 0 6 0;
#X connect 3 0 5 0;
#X connect 5 0 4 0;
#X connect 6 0 4 0;
#X restore 103 134 pd LFOPanRange;
#N canvas 0 22 462 312 lfoIOpan 0;
#X obj 141 57 r FIRSTPanLFOIO;
#X obj 111 14 r SaveItAll;
#X msg 111 38 bang;
#X obj 111 78 float;
#X obj 107 201 outlet;
#X msg 228 105 add \$1;
#X msg 70 105 set add FIRSTPanLFOIO;
#X connect 0 0 3 1;
#X connect 1 0 2 0;
#X connect 2 0 3 0;
#X connect 3 0 5 0;
#X connect 3 0 6 0;
#X connect 5 0 4 0;
#X connect 6 0 4 0;
#X restore 103 180 pd lfoIOpan;
#X obj 46 246 outlet;
#X obj 224 -11 inlet;
#X text 149 265 this works great \, now I have;
#X text 132 284 to expand this out;
#X connect 0 0 10 0;
#X connect 1 0 10 0;
#X connect 2 0 10 0;
#X connect 3 0 4 0;
#X connect 3 0 0 0;
#X connect 3 0 1 0;
#X connect 3 0 2 0;
#X connect 4 0 10 0;
#X connect 5 0 3 0;
#X connect 6 0 4 0;
#X connect 7 0 0 0;
#X connect 8 0 1 0;
#X connect 9 0 2 0;
#X connect 11 0 4 0;
#X connect 11 0 0 0;
#X connect 11 0 1 0;
#X connect 11 0 2 0;
#X restore 181 137 pd PanSave;
#X obj 328 444 qlist;
#N canvas 0 22 531 417 openone 0;
#X obj 267 26 inlet;
#X obj 264 78 openpanel;
#X msg 264 51 bang;
#X msg 229 116 read \$1;
#X obj 219 159 textfile;
#X msg 87 127 bang;
#X msg 94 83 rewind;
#X obj 225 343 send;
#X obj 219 222 unpack s f;
#X obj 274 308 pipe 5;
#X text 55 61 bang these to recall;
#X text 110 310 still bugs here;
#N canvas 0 22 454 304 callperl 0;
#X restore 231 281 pd callperl;
#X connect 0 0 2 0;
#X connect 1 0 3 0;
#X connect 2 0 1 0;
#X connect 3 0 4 0;
#X connect 4 0 8 0;
#X connect 5 0 4 0;
#X connect 6 0 4 0;
#X connect 8 1 9 0;
#X connect 9 0 7 0;
#X restore 454 182 pd openone;
#X connect 0 0 10 0;
#X connect 0 0 12 0;
#X connect 1 0 0 0;
#X connect 2 0 13 0;
#X connect 3 0 13 0;
#X connect 4 0 11 0;
#X connect 4 0 13 0;
#X connect 6 0 14 0;
#X connect 10 0 4 0;
#X connect 11 0 13 0;
#X connect 12 0 13 0;
#X connect 13 0 7 0;
#X restore 804 108 pd SaveAll;
#X obj 764 84 bng 40 250 50 0 SaveItAll empty Save_All 0 -6 0 12 -262144
-1 -1;
#X obj 851 83 bng 25 250 50 0 OpenWutev empty Open 0 -6 0 12 -262144
-1 -1;
#X obj 134 575 bng 40 250 50 0 SaveItFIRST empty Save 0 -6 0 12 -262144
-1 -1;
#X obj 221 574 bng 25 250 50 0 OpenFIRST empty Open 0 -6 0 12 -262144
-1 -1;
#N canvas 670 22 641 595 Saveit! 0;
#X obj 413 -3 bng 8 250 50 0 empty empty empty 0 -6 0 8 -262144 -1
-1;
#X msg 158 489 rewind;
#X msg 239 484 bang;
#X msg 311 366 write /dafe folder/multiplied out/allset;
#N canvas 771 36 472 512 openall 0;
#X obj 246 453 outlet;
#X obj 206 352 s MasterSaveOne;
#X obj 236 376 s MasterSaveTwo;
#X obj 266 400 s MasterSaveThree;
#X obj 296 422 s MasterSaveFour;
#X obj 148 234 textfile;
#X msg 230 119 rewind;
#X msg 240 144 clear;
#X msg 252 170 read \$1;
#X obj 292 100 openpanel;
#X obj 293 79 bng 15 250 50 0 empty empty empty 0 -6 0 8 -262144 -1
-1;
#X obj 293 46 inlet;
#X obj 157 166 bng 15 250 50 0 empty empty empty 0 -6 0 8 -262144 -1
-1;
#N canvas 0 22 518 368 countto4 0;
#X floatatom 250 207 5 0 0 0 - - -;
#X obj 248 178 int;
#X obj 320 177 + 1;
#X msg 120 108 0;
#X obj 209 132 bng 15 250 50 0 empty empty empty 0 -6 0 8 -262144 -1
-1;
#X obj 238 256 outlet;
#X obj 229 68 inlet;
#X obj 121 53 pipe 15;
#X text 224 51 recieve any input;
#X text 150 276 counts from 0 to (whatever sel has);
#X obj 118 79 sel 3;
#X connect 0 0 5 0;
#X connect 0 0 7 0;
#X connect 1 0 2 0;
#X connect 1 0 0 0;
#X connect 2 0 1 1;
#X connect 3 0 1 1;
#X connect 4 0 1 0;
#X connect 6 0 4 0;
#X connect 7 0 10 0;
#X connect 10 0 3 0;
#X restore 257 241 pd countto4;
#X obj 230 206 bng 15 250 50 0 empty empty empty 0 -6 0 8 -262144 -1
-1;
#X obj 206 280 pack;
#X obj 205 308 route 0 1 2 3;
#X obj 97 333 print;
#X connect 5 0 15 1;
#X connect 5 1 15 1;
#X connect 6 0 5 0;
#X connect 6 0 14 0;
#X connect 8 0 5 0;
#X connect 8 0 12 0;
#X connect 9 0 8 0;
#X connect 10 0 9 0;
#X connect 11 0 10 0;
#X connect 12 0 6 0;
#X connect 13 0 15 0;
#X connect 14 0 5 0;
#X connect 15 0 16 0;
#X connect 15 0 17 0;
#X connect 16 0 1 0;
#X connect 16 1 2 0;
#X connect 16 2 3 0;
#X connect 16 3 4 0;
#X restore 11 432 pd openall;
#X obj 316 488 print save data;
#N canvas 0 22 466 316 SavePreparer 0;
#X obj 180 86 savepanel;
#X obj 181 66 bng 8 250 50 0 empty empty empty 0 -6 0 8 -262144 -1
-1;
#X msg 234 128 add2 \$1;
#X msg 127 129 set write;
#X obj 145 256 outlet;
#X obj 226 191 bng 15 250 50 0 empty empty empty 17 7 0 10 -262144
-1 -1;
#X obj 181 18 inlet;
#X connect 0 0 2 0;
#X connect 1 0 0 0;
#X connect 1 0 3 0;
#X connect 2 0 4 0;
#X connect 2 0 5 0;
#X connect 3 0 4 0;
#X connect 5 0 4 0;
#X connect 6 0 1 0;
#X restore 340 317 pd SavePreparer;
#N canvas 0 22 345 260 ClearBanger 0;
#X msg 148 80 clear;
#X obj 90 57 loadbang;
#X obj 151 62 del 5;
#X msg 150 43 bang;
#X obj 118 18 inlet;
#X obj 135 147 outlet;
#X connect 0 0 5 0;
#X connect 1 0 0 0;
#X connect 2 0 0 0;
#X connect 3 0 2 0;
#X connect 4 0 3 0;
#X restore 379 406 pd ClearBanger;
#N canvas 0 22 461 498 PanSave 0;
#X msg 103 109;
#X msg 103 159;
#X msg 103 205;
#X msg 32 -7 set;
#X msg 101 46;
#X obj 31 -27 loadbang;
#N canvas 0 22 506 356 panset 0;
#X obj 141 57 r pansetFIRST;
#X msg 111 38 bang;
#X obj 111 78 float;
#X obj 107 201 outlet;
#X msg 228 105 add \$1;
#X obj 111 15 r SaveItFIRST;
#X msg 70 104 set add panset;
#X connect 0 0 2 1;
#X connect 1 0 2 0;
#X connect 2 0 6 0;
#X connect 2 0 4 0;
#X connect 4 0 3 0;
#X connect 5 0 1 0;
#X connect 6 0 3 0;
#X restore 101 17 pd panset;
#N canvas 0 22 494 344 LFOPANFREQ 0;
#X obj 141 57 r LFOPanFreqFIRST;
#X msg 111 38 bang;
#X obj 111 78 float;
#X obj 107 201 outlet;
#X msg 228 105 add \$1;
#X obj 111 14 r SaveItFIRST;
#X msg 63 128 set add LFOPanFreq;
#X connect 0 0 2 1;
#X connect 1 0 2 0;
#X connect 2 0 6 0;
#X connect 2 0 4 0;
#X connect 4 0 3 0;
#X connect 5 0 1 0;
#X connect 6 0 3 0;
#X restore 103 76 pd LFOPANFREQ;
#N canvas 0 22 478 328 LFOPanRange 0;
#X obj 141 57 r LFOPanRangeFIRST;
#X msg 111 38 bang;
#X obj 111 78 float;
#X obj 107 201 outlet;
#X msg 258 105 add \$1;
#X obj 111 14 r SaveItFIRST;
#X msg 70 105 set add LFOPanRange;
#X connect 0 0 2 1;
#X connect 1 0 2 0;
#X connect 2 0 6 0;
#X connect 2 0 4 0;
#X connect 4 0 3 0;
#X connect 5 0 1 0;
#X connect 6 0 3 0;
#X restore 103 134 pd LFOPanRange;
#N canvas 0 22 490 340 lfoIOpan 0;
#X msg 111 38 bang;
#X obj 111 78 float;
#X obj 107 201 outlet;
#X obj 111 14 r SaveItFIRST;
#X obj 141 57 r FIRSTPanLFOIO;
#X msg 226 125 add \$1;
#X floatatom 226 107 5 0 0 0 - - -;
#X msg 69 125 set add PanLFOIO;
#X connect 0 0 1 0;
#X connect 1 0 7 0;
#X connect 1 0 6 0;
#X connect 3 0 0 0;
#X connect 4 0 1 1;
#X connect 5 0 2 0;
#X connect 6 0 5 0;
#X connect 7 0 2 0;
#X restore 103 180 pd lfoIOpan;
#X obj 46 246 outlet;
#X obj 224 -11 inlet;
#X text 149 265 this works great \, now I have;
#X text 132 284 to expand this out;
#X connect 0 0 10 0;
#X connect 1 0 10 0;
#X connect 2 0 10 0;
#X connect 3 0 4 0;
#X connect 3 0 0 0;
#X connect 3 0 1 0;
#X connect 3 0 2 0;
#X connect 4 0 10 0;
#X connect 5 0 3 0;
#X connect 6 0 4 0;
#X connect 7 0 0 0;
#X connect 8 0 1 0;
#X connect 9 0 2 0;
#X connect 11 0 4 0;
#X connect 11 0 0 0;
#X connect 11 0 1 0;
#X connect 11 0 2 0;
#X restore 11 77 pd PanSave;
#X obj 328 444 qlist;
#N canvas 491 146 555 441 openone 0;
#X obj 138 233 textfile;
#X msg 220 118 rewind;
#X msg 230 143 clear;
#X msg 242 169 read \$1;
#X obj 282 99 openpanel;
#X obj 283 78 bng 15 250 50 0 empty empty empty 0 -6 0 8 -262144 -1
-1;
#X obj 283 45 inlet;
#X obj 147 165 bng 15 250 50 0 empty empty empty 0 -6 0 8 -262144 -1
-1;
#X obj 132 51 r OpenFIRST;
#N canvas 597 105 499 334 PanOpen 0;
#X obj 36 -1 inlet;
#X obj 37 36 route panset LFOPANFREQ LFOPanRange LapnLFOIO;
#X obj 348 199 outlet;
#X obj 118 104 s 2LFOPanFreqFIRST;
#X obj 179 126 s 2LFOPanRangeFIRST;
#X obj 207 150 s 2FIRSTPanLFOIO;
#X obj 36 73 s 2pansetFIRST;
#X connect 0 0 1 0;
#X connect 1 0 6 0;
#X connect 1 1 3 0;
#X connect 1 2 4 0;
#X connect 1 3 5 0;
#X connect 1 4 2 0;
#X restore 41 257 pd PanOpen;
#N canvas 611 154 546 496 WaveOpen 0;
#X obj 224 -11 inlet;
#X obj 157 43 route wavpreset Volume FreqLFOIO whitenoise;
#X obj 323 268 outlet;
#X obj 196 75 s 2wavpresetFIRST;
#X obj 283 95 s 2VolumeFIRST;
#X obj 345 126 s 2FIRSTFreqLFOIO;
#X obj 383 154 s 2whitenoiseFIRST;
#X connect 0 0 1 0;
#X connect 1 0 3 0;
#X connect 1 1 4 0;
#X connect 1 2 5 0;
#X connect 1 3 6 0;
#X connect 1 4 2 0;
#X restore 101 284 pd WaveOpen;
#N canvas 616 135 469 506 PITCHOpen 0;
#X obj 46 246 outlet;
#X obj 49 -15 inlet;
#X text 149 265 this works great \, now I have;
#X text 132 284 to expand this out;
#X obj 53 12 route FreqLFOPitch RangeLFOPitch LFOPitchFB FreqOsc;
#X obj 54 60 s 2FIRSTFreqLFOPitch;
#X obj 143 90 s 2FIRSTRangeLFOPitch;
#X obj 217 134 s 2FIRSTLFOPitchFB;
#X obj 292 156 s 2FreqOscFIRST;
#X connect 1 0 4 0;
#X connect 4 0 5 0;
#X connect 4 1 6 0;
#X connect 4 2 7 0;
#X connect 4 3 8 0;
#X connect 4 4 0 0;
#X restore 165 313 pd PITCHOpen;
#N canvas 446 116 461 498 TEMPOOpen 0;
#X obj 379 255 outlet;
#X obj 7 -26 inlet;
#X obj 7 -1 route TempoOsc TempoLFOIO LFOTempoRange LFOTempoFreq TempoFB
;
#X obj 6 30 s 2TempoOscFIRST;
#X obj 90 50 s 2FIRSTTempoLFOIO;
#X obj 173 70 s 2LFOTempoRangeFIRST;
#X obj 257 91 s 2LFOTempoFreqFIRST;
#X obj 340 111 s 2FIRSTTEmpoFB;
#X connect 1 0 2 0;
#X connect 2 0 3 0;
#X connect 2 1 4 0;
#X connect 2 2 5 0;
#X connect 2 3 6 0;
#X connect 2 4 7 0;
#X connect 2 5 0 0;
#X restore 215 343 pd TEMPOOpen;
#X obj 18 397 print couldn't find;
#N canvas 0 22 454 304 counttildone 0;
#X obj 125 37 inlet;
#X obj 285 37 inlet;
#X obj 155 142 metro 50;
#X msg 220 101 0;
#X msg 141 96 1;
#X obj 154 215 outlet;
#X connect 0 0 4 0;
#X connect 1 0 3 0;
#X connect 2 0 5 0;
#X connect 3 0 2 0;
#X connect 4 0 2 0;
#X restore 207 263 pd counttildone;
#X connect 0 0 9 0;
#X connect 0 1 14 1;
#X connect 1 0 0 0;
#X connect 1 0 14 0;
#X connect 3 0 0 0;
#X connect 3 0 7 0;
#X connect 4 0 3 0;
#X connect 5 0 4 0;
#X connect 6 0 5 0;
#X connect 7 0 1 0;
#X connect 9 0 10 0;
#X connect 10 0 11 0;
#X connect 11 0 12 0;
#X connect 12 0 13 0;
#X connect 14 0 0 0;
#X restore 454 182 pd openone;
#X obj 413 -31 r SaveItFIRST;
#N canvas 611 154 453 490 WaveSave 0;
#X msg 103 109;
#X msg 103 159;
#X msg 103 210;
#X msg 32 -7 set;
#X msg 101 46;
#X obj 31 -27 loadbang;
#X obj 46 246 outlet;
#X obj 224 -11 inlet;
#X text 149 265 this works great \, now I have;
#X text 132 284 to expand this out;
#N canvas 0 22 502 352 wavpresetFIRST 0;
#X msg 111 38 bang;
#X obj 111 78 float;
#X obj 107 201 outlet;
#X msg 248 105 add \$1;
#X obj 141 57 r wavpresetFIRST;
#X obj 111 14 r SaveItFIRST;
#X msg 70 104 set add wavpreset;
#X connect 0 0 1 0;
#X connect 1 0 6 0;
#X connect 1 0 3 0;
#X connect 3 0 2 0;
#X connect 4 0 1 1;
#X connect 5 0 0 0;
#X connect 6 0 2 0;
#X restore 101 17 pd wavpresetFIRST;
#N canvas 0 22 506 356 VolumeFIRST 0;
#X msg 111 38 bang;
#X obj 111 78 float;
#X obj 107 201 outlet;
#X msg 228 105 add \$1;
#X obj 111 14 r SaveItFIRST;
#X obj 141 57 r VolumeFIRST;
#X msg 63 128 set add Volume;
#X connect 0 0 1 0;
#X connect 1 0 6 0;
#X connect 1 0 3 0;
#X connect 3 0 2 0;
#X connect 4 0 0 0;
#X connect 5 0 1 1;
#X connect 6 0 2 0;
#X restore 104 76 pd VolumeFIRST;
#N canvas 0 22 482 332 FIRSTFeqLFOIO 0;
#X msg 111 38 bang;
#X obj 111 78 float;
#X obj 107 201 outlet;
#X msg 258 105 add \$1;
#X obj 141 57 r FIRSTFreqLFOIO;
#X obj 111 14 r SaveItFIRST;
#X msg 70 106 set add FreqLFOIO;
#X connect 0 0 1 0;
#X connect 1 0 6 0;
#X connect 1 0 3 0;
#X connect 3 0 2 0;
#X connect 4 0 1 1;
#X connect 5 0 0 0;
#X connect 6 0 2 0;
#X restore 103 134 pd FIRSTFeqLFOIO;
#N canvas 0 22 486 336 whitenoiseFIRST 0;
#X msg 111 38 bang;
#X obj 111 78 float;
#X obj 107 201 outlet;
#X msg 255 132 add \$1;
#X obj 141 57 r whitenoiseFIRST;
#X obj 111 14 r SaveItFIRST;
#X msg 62 124 set add whitenoise;
#X connect 0 0 1 0;
#X connect 1 0 6 0;
#X connect 1 0 3 0;
#X connect 3 0 2 0;
#X connect 4 0 1 1;
#X connect 5 0 0 0;
#X connect 6 0 2 0;
#X restore 103 185 pd whitenoiseFIRST;
#X connect 0 0 6 0;
#X connect 1 0 6 0;
#X connect 2 0 6 0;
#X connect 3 0 4 0;
#X connect 3 0 0 0;
#X connect 3 0 1 0;
#X connect 3 0 2 0;
#X connect 4 0 6 0;
#X connect 5 0 3 0;
#X connect 7 0 4 0;
#X connect 7 0 0 0;
#X connect 7 0 1 0;
#X connect 7 0 2 0;
#X connect 10 0 4 0;
#X connect 11 0 0 0;
#X connect 12 0 1 0;
#X connect 13 0 2 0;
#X restore 70 105 pd WaveSave;
#N canvas 616 135 457 494 PITCHSave 0;
#X msg 103 109;
#X msg 103 159;
#X msg 103 210;
#X msg 32 -7 set;
#X msg 101 46;
#X obj 31 -27 loadbang;
#X obj 46 246 outlet;
#X obj -15 18 inlet;
#X text 149 265 this works great \, now I have;
#X text 132 284 to expand this out;
#N canvas 0 22 498 348 FreqOscFIRST 0;
#X msg 111 38 bang;
#X obj 111 78 float;
#X obj 107 201 outlet;
#X msg 255 132 add \$1;
#X obj 111 14 r SaveItFIRST;
#X obj 141 57 r FreqOscFIRST;
#X msg 62 124 set add FreqOsc;
#X connect 0 0 1 0;
#X connect 1 0 6 0;
#X connect 1 0 3 0;
#X connect 3 0 2 0;
#X connect 4 0 0 0;
#X connect 5 0 1 1;
#X connect 6 0 2 0;
#X restore 103 185 pd FreqOscFIRST;
#N canvas 0 22 510 360 FIRSTRangeLFOPitch 0;
#X msg 111 38 bang;
#X obj 111 78 float;
#X obj 107 201 outlet;
#X msg 228 105 add \$1;
#X obj 111 14 r SaveItFIRST;
#X obj 141 56 r FIRSTRangeLFOPitch;
#X msg 63 128 set add RangeLFOPitch;
#X connect 0 0 1 0;
#X connect 1 0 6 0;
#X connect 1 0 3 0;
#X connect 3 0 2 0;
#X connect 4 0 0 0;
#X connect 5 0 1 1;
#X connect 6 0 2 0;
#X restore 103 76 pd FIRSTRangeLFOPitch;
#N canvas 0 22 498 348 FIRSTLFOPitchFB 0;
#X msg 111 38 bang;
#X obj 111 78 float;
#X obj 107 201 outlet;
#X msg 258 105 add \$1;
#X obj 111 14 r SaveItFIRST;
#X obj 141 57 r FIRSTLFOPitchFB;
#X msg 70 105 set add LFOPitchFB;
#X connect 0 0 1 0;
#X connect 1 0 6 0;
#X connect 1 0 3 0;
#X connect 3 0 2 0;
#X connect 4 0 0 0;
#X connect 5 0 1 1;
#X connect 6 0 2 0;
#X restore 103 134 pd FIRSTLFOPitchFB;
#N canvas 656 351 526 376 FIRSTFreqLFOPitch 0;
#X msg 111 38 bang;
#X obj 111 78 float;
#X obj 107 201 outlet;
#X msg 248 105 add \$1;
#X obj 111 14 r SaveItFIRST;
#X obj 140 57 r FIRSTFreqLFOPitch;
#X msg 31 131 set add FreqLFOPitch;
#X connect 0 0 1 0;
#X connect 1 0 6 0;
#X connect 1 0 3 0;
#X connect 3 0 2 0;
#X connect 4 0 0 0;
#X connect 5 0 1 1;
#X connect 6 0 2 0;
#X restore 102 17 pd FIRSTFreqLFOPitch;
#X connect 0 0 6 0;
#X connect 1 0 6 0;
#X connect 2 0 6 0;
#X connect 3 0 4 0;
#X connect 3 0 0 0;
#X connect 3 0 1 0;
#X connect 3 0 2 0;
#X connect 4 0 6 0;
#X connect 5 0 3 0;
#X connect 7 0 4 0;
#X connect 7 0 0 0;
#X connect 7 0 1 0;
#X connect 7 0 2 0;
#X connect 10 0 2 0;
#X connect 11 0 0 0;
#X connect 12 0 1 0;
#X connect 13 0 4 0;
#X restore 135 133 pd PITCHSave;
#N canvas 446 116 457 494 TEMPOSave 0;
#X msg 103 109;
#X msg 103 209;
#X msg 103 260;
#X msg 32 -7 set;
#X msg 101 46;
#X obj 31 -27 loadbang;
#X obj 46 296 outlet;
#X obj -15 18 inlet;
#X text 149 315 this works great \, now I have;
#X text 132 334 to expand this out;
#N canvas 656 351 546 396 TempoOscFIRST 0;
#X msg 111 38 bang;
#X obj 111 78 float;
#X obj 107 201 outlet;
#X msg 248 105 add \$1;
#X obj 111 14 r SaveItFIRST;
#X obj 140 57 r TempoOscFIRST;
#X msg 31 129 set add TempoOsc;
#X connect 0 0 1 0;
#X connect 1 0 6 0;
#X connect 1 0 3 0;
#X connect 3 0 2 0;
#X connect 4 0 0 0;
#X connect 5 0 1 1;
#X connect 6 0 2 0;
#X restore 102 17 pd TempoOscFIRST;
#N canvas 0 22 522 372 FIRSTTempoLFOIO 0;
#X msg 111 38 bang;
#X obj 111 78 float;
#X obj 107 201 outlet;
#X msg 228 105 add \$1;
#X obj 111 14 r SaveItFIRST;
#X obj 141 56 r FIRSTTempoLFOIO;
#X msg 63 128 set add TempoLFOIO;
#X connect 0 0 1 0;
#X connect 1 0 6 0;
#X connect 1 0 3 0;
#X connect 3 0 2 0;
#X connect 4 0 0 0;
#X connect 5 0 1 1;
#X connect 6 0 2 0;
#X restore 103 76 pd FIRSTTempoLFOIO;
#N canvas 0 22 506 356 LFOTempoFreqFIRST 0;
#X msg 111 38 bang;
#X obj 111 78 float;
#X obj 107 201 outlet;
#X msg 258 105 add \$1;
#X obj 111 14 r SaveItFIRST;
#X obj 141 57 r LFOTempoFreqFIRST;
#X msg 70 105 set add LFOTempoFreq;
#X connect 0 0 1 0;
#X connect 1 0 6 0;
#X connect 1 0 3 0;
#X connect 3 0 2 0;
#X connect 4 0 0 0;
#X connect 5 0 1 1;
#X connect 6 0 2 0;
#X restore 103 184 pd LFOTempoFreqFIRST;
#N canvas 0 22 506 356 FIRSTTEmpoFB 0;
#X msg 111 38 bang;
#X obj 111 78 float;
#X obj 107 201 outlet;
#X msg 255 132 add \$1;
#X obj 111 14 r SaveItFIRST;
#X obj 140 57 r FIRSTTempoFB;
#X msg 62 123 set add TempoFB;
#X connect 0 0 1 0;
#X connect 1 0 6 0;
#X connect 1 0 3 0;
#X connect 3 0 2 0;
#X connect 4 0 0 0;
#X connect 5 0 1 1;
#X connect 6 0 2 0;
#X restore 103 235 pd FIRSTTEmpoFB;
#X msg 143 159;
#N canvas 0 22 522 372 LFOTempoRangeFIRST 0;
#X msg 111 38 bang;
#X obj 111 78 float;
#X obj 107 201 outlet;
#X msg 228 105 add \$1;
#X obj 111 14 r SaveItFIRST;
#X obj 141 56 r LFOTempoRangeFIRST;
#X msg 60 128 set add LFOTempoRange;
#X connect 0 0 1 0;
#X connect 1 0 6 0;
#X connect 1 0 3 0;
#X connect 3 0 2 0;
#X connect 4 0 0 0;
#X connect 5 0 1 1;
#X connect 6 0 2 0;
#X restore 143 125 pd LFOTempoRangeFIRST;
#X connect 0 0 6 0;
#X connect 1 0 6 0;
#X connect 2 0 6 0;
#X connect 3 0 4 0;
#X connect 3 0 0 0;
#X connect 3 0 1 0;
#X connect 3 0 2 0;
#X connect 3 0 14 0;
#X connect 4 0 6 0;
#X connect 5 0 3 0;
#X connect 7 0 4 0;
#X connect 7 0 0 0;
#X connect 7 0 1 0;
#X connect 7 0 2 0;
#X connect 7 0 14 0;
#X connect 10 0 4 0;
#X connect 11 0 0 0;
#X connect 12 0 1 0;
#X connect 13 0 2 0;
#X connect 14 0 6 0;
#X connect 15 0 14 0;
#X restore 185 163 pd TEMPOSave;
#X obj 86 394 print datasaved;
#X obj 450 128 r OpenFIRST;
#X connect 0 0 6 0;
#X connect 0 0 8 0;
#X connect 0 0 12 0;
#X connect 0 0 13 0;
#X connect 0 0 14 0;
#X connect 1 0 9 0;
#X connect 2 0 9 0;
#X connect 3 0 7 0;
#X connect 3 0 9 0;
#X connect 6 0 3 0;
#X connect 7 0 9 0;
#X connect 8 0 9 0;
#X connect 8 0 15 0;
#X connect 9 0 5 0;
#X connect 11 0 0 0;
#X connect 12 0 9 0;
#X connect 12 0 15 0;
#X connect 13 0 9 0;
#X connect 13 0 15 0;
#X connect 14 0 9 0;
#X connect 14 0 15 0;
#X connect 16 0 10 0;
#X restore 174 599 pd Saveit!;
#X connect 0 0 48 0;
#X connect 0 1 49 0;
#X restore 66 196 pd PulseToneMod ONE;
#N canvas 0 22 454 304 s2pitch 0;
#X obj 87 65 inlet;
#X obj 161 239 s 2FreqOscFIRST;
#X obj 67 125 + 30;
#X obj 68 151 * 2;
#X connect 0 0 2 0;
#X connect 2 0 3 0;
#X connect 3 0 1 0;
#X restore 493 182 pd s2pitch;
#N canvas 0 22 277 237 s2tempo 0;
#X obj 66 96 inlet;
#X obj 67 177 s 2TempoOscFIRST;
#X obj 67 125 + -320;
#X obj 67 152 * -0.7;
#X connect 0 0 2 0;
#X connect 2 0 3 0;
#X connect 3 0 1 0;
#X restore 526 155 pd s2tempo;
#X obj 30 18 metro 25;
#N canvas 0 22 462 312 s2pan 0;
#X obj 87 65 inlet;
#X obj 68 151 * 0.5;
#X obj 161 239 s 2pansetFIRST;
#X connect 0 0 1 0;
#X connect 1 0 2 0;
#X restore 363 272 pd s2pan;
#N canvas 0 22 462 312 s2attack 0;
#X obj 87 65 inlet;
#X obj 161 239 s 2attackvelFIRST;
#X obj 67 151 * 6;
#X connect 0 0 2 0;
#X connect 2 0 1 0;
#X restore 443 272 pd s2attack;
#N canvas 0 22 281 241 s2pitchlfo 0;
#X obj 36 26 inlet;
#X obj 37 107 s 2FIRSTFreqLFOPitch;
#X obj 37 82 * 0.01;
#X connect 0 0 2 0;
#X connect 2 0 1 0;
#X restore 536 305 pd s2pitchlfo;
#N canvas 0 22 293 253 s2pitchlfo 0;
#X obj 36 26 inlet;
#X obj 37 109 s 2FIRSTRangeLFOPitch;
#X obj 36 81 * 0.3;
#X connect 0 0 2 0;
#X connect 2 0 1 0;
#X restore 595 284 pd s2pitchlfo;
#N canvas 0 22 297 257 s2panlfo 0;
#X obj 36 26 inlet;
#X obj 37 109 s 2LFOPanFreqFIRST;
#X obj 36 82 * 0.01;
#X connect 0 0 2 0;
#X connect 2 0 1 0;
#X restore 711 295 pd s2panlfo;
#N canvas 0 22 297 257 s2tempolfo 0;
#X obj 36 26 inlet;
#X obj 37 109 s 2LFOTempoFreqFIRST;
#X obj 37 82 * 0.01;
#X connect 0 0 2 0;
#X connect 2 0 1 0;
#X restore 766 264 pd s2tempolfo;
#N canvas 0 22 301 261 s2panlfo 0;
#X obj 36 26 inlet;
#X obj 37 109 s 2LFOPanRangeFIRST;
#X obj 36 82 * 0.2;
#X connect 0 0 2 0;
#X connect 2 0 1 0;
#X restore 899 281 pd s2panlfo;
#N canvas 0 22 305 265 s2tempolfo 0;
#X obj 36 26 inlet;
#X obj 37 109 s 2LFOTempoRangeFIRST;
#X obj 37 82 * 1;
#X connect 0 0 2 0;
#X connect 2 0 1 0;
#X restore 914 260 pd s2tempolfo;
#X connect 8 0 0 0;
#X connect 8 1 0 1;
#X connect 15 0 47 0;
#X connect 16 0 48 0;
#X connect 17 0 18 0;
#X connect 18 0 15 0;
#X connect 18 1 16 0;
#X connect 20 0 19 0;
#X connect 28 0 27 0;
#X connect 29 0 49 0;
#X connect 30 0 50 0;
#X connect 31 0 51 0;
#X connect 32 0 30 0;
#X connect 32 1 31 0;
#X connect 33 0 32 0;
#X connect 34 0 54 0;
#X connect 35 0 55 0;
#X connect 36 0 34 0;
#X connect 36 1 35 0;
#X connect 37 0 52 0;
#X connect 38 0 53 0;
#X connect 39 0 37 0;
#X connect 39 1 38 0;
#X connect 40 0 39 0;
#X connect 41 0 36 0;
#X connect 42 0 56 0;
#X connect 43 0 57 0;
#X connect 44 0 42 0;
#X connect 44 1 43 0;
#X connect 45 0 44 0;
#X connect 46 0 12 0;
#X connect 46 1 13 0;
#X connect 49 0 28 0;
