#N canvas 45 117 677 455 10;
#X obj 311 252 *~ 0.4;
#X obj 180 292 *~ 0.2;
#X obj 124 176 delread~ mat 125;
#X obj 283 151 samphold~;
#X obj 522 109 hsl 128 15 0 44090 0 0 empty empty SampleRate -2 -8
0 10 -262144 -1 -1 1539 1;
#X obj 522 161 hsl 128 15 0 1000 0 0 empty empty Delay -2 -8 0 10 -262144
-1 -1 2278 1;
#X obj 522 200 hsl 128 15 0 44090 0 0 empty empty SampleRate -2 -8
0 10 -262144 -1 -1 1648 1;
#X obj 522 237 hsl 128 15 0 1 0 0 empty empty FeedBack -2 -8 0 10 -262144
-1 -1 8300 0;
#X obj 522 277 hsl 128 15 0 1.5 0 0 empty empty Gain -2 -8 0 10 -262144
-1 -1 11900 1;
#X obj 349 40 inlet;
#X obj 420 40 inlet;
#X obj 478 37 inlet;
#X obj 542 34 inlet;
#X obj 605 31 inlet;
#X obj 313 281 samphold~;
#X obj 73 344 delwrite~ mat 1000;
#X obj 341 124 phasor~ 44090;
#X obj 370 215 phasor~ 44090;
#X text 217 388 process the signal;
#N canvas 0 22 345 520 immediatetempo 0;
#X obj 97 79 bonk~;
#X obj 70 348 realtime;
#X obj 150 348 realtime;
#X obj 81 174 spigot;
#X msg 129 109 0;
#X obj 164 150 del 100;
#X msg 160 171 1;
#X obj 70 234 / 2;
#X obj 65 201 int;
#X obj 106 201 + 1;
#X msg 81 130 bang;
#X obj 93 266 int;
#X obj 58 295 -;
#X obj 56 321 sel 0.5 0;
#X obj 147 320 sel 0 0.5;
#X obj 70 404 expr 60000/$f1;
#X obj 70 426 outlet;
#X obj 98 44 inlet~;
#X connect 0 0 4 0;
#X connect 0 0 10 0;
#X connect 1 0 15 0;
#X connect 2 0 15 0;
#X connect 3 0 8 0;
#X connect 4 0 3 1;
#X connect 4 0 5 0;
#X connect 5 0 6 0;
#X connect 6 0 3 1;
#X connect 7 0 11 0;
#X connect 7 0 12 0;
#X connect 8 0 7 0;
#X connect 8 0 9 0;
#X connect 9 0 8 1;
#X connect 10 0 3 0;
#X connect 11 0 12 1;
#X connect 12 0 13 0;
#X connect 12 0 14 0;
#X connect 13 0 1 0;
#X connect 13 1 1 1;
#X connect 14 0 2 0;
#X connect 14 1 2 1;
#X connect 15 0 16 0;
#X connect 17 0 0 0;
#X restore 54 76 pd immediatetempo;
#X obj 226 371 outlet~;
#X obj 225 49 inlet~;
#X connect 0 0 14 0;
#X connect 1 0 20 0;
#X connect 2 0 0 0;
#X connect 2 0 1 0;
#X connect 3 0 15 0;
#X connect 4 0 16 0;
#X connect 5 0 2 0;
#X connect 6 0 17 0;
#X connect 7 0 0 1;
#X connect 8 0 1 1;
#X connect 9 0 4 0;
#X connect 10 0 5 0;
#X connect 11 0 6 0;
#X connect 12 0 7 0;
#X connect 13 0 8 0;
#X connect 14 0 15 0;
#X connect 14 0 20 0;
#X connect 16 0 3 1;
#X connect 17 0 14 1;
#X connect 21 0 3 0;
