#N canvas 0 26 478 405 10;
#X obj 164 145 *~ 0.4;
#X obj 393 82 vsl 44 56 0 1 0 0 empty empty empty 0 -8 0 8 -262144
-1 -1 5200 1;
#X text 349 65 delay;
#X obj 8 218 delread~ mit 125;
#X obj 124 12 inlet~;
#X text 406 65 FB;
#X obj 346 82 vsl 44 56 0 5000 0 0 empty empty empty 0 -8 0 8 -262144
-1 -1 5000 1;
#X obj 298 82 vsl 44 56 0 1 0 0 empty empty empty 0 -8 0 8 -262144
-1 -1 1000 1;
#X text 308 64 Mix;
#X obj 87 97 delwrite~ mit 5000;
#X obj 81 325 outlet~;
#X obj 287 13 inlet;
#X obj 327 13 inlet;
#X obj 367 13 inlet;
#X obj 81 291 *~ 1;
#X connect 0 0 9 0;
#X connect 1 0 0 1;
#X connect 3 0 14 0;
#X connect 3 0 0 0;
#X connect 4 0 9 0;
#X connect 6 0 3 0;
#X connect 7 0 14 1;
#X connect 11 0 7 0;
#X connect 12 0 6 0;
#X connect 13 0 1 0;
#X connect 14 0 10 0;
