#N canvas 67 33 1155 816 10;
#X obj 96 248 svf~ band;
#N canvas 0 22 458 308 ctl 0;
#X obj 212 148 sig~;
#X obj 257 155 sig~;
#X obj 164 76 mtof;
#X obj 164 148 line~;
#X msg 164 125 \$1 100;
#X obj 131 190 outlet~;
#X obj 191 190 outlet~;
#X obj 263 190 outlet~;
#X obj 162 32 r SVFFreq;
#X obj 236 66 r SVFQ;
#X obj 283 100 r SVFReson;
#X connect 0 0 6 0;
#X connect 1 0 7 0;
#X connect 2 0 4 0;
#X connect 3 0 5 0;
#X connect 4 0 3 0;
#X connect 8 0 2 0;
#X connect 9 0 0 0;
#X connect 10 0 1 0;
#X restore 116 227 pd ctl;
#X obj 799 34 table lightningjar;
#X obj 55 191 adc~ 1;
#X obj 242 621 crazymachine;
#X obj 354 428 hsl 128 15 0 44090 0 0 empty empty SampleRate -2 -8
0 10 -262144 -1 -1 3205 1;
#X obj 354 467 hsl 128 15 1 1000 1 0 empty empty Delay -2 -8 0 10 -262144
-1 -1 2400 1;
#X obj 354 506 hsl 128 15 0 44090 0 0 empty empty SampleRate -2 -8
0 10 -262144 -1 -1 2329 1;
#X obj 354 543 hsl 128 15 0 1 0 0 empty empty FeedBack -2 -8 0 10 -262144
-1 -1 7200 0;
#X obj 354 583 hsl 128 15 0 1.5 0 0 empty empty Gain -2 -8 0 10 -262144
-1 -1 12700 1;
#X obj 83 757 dac~;
#N canvas 0 22 454 304 immeditatetempo 0;
#X obj 97 79 bonk~;
#X obj 70 348 realtime;
#X obj 150 348 realtime;
#X obj 81 174 spigot;
#X msg 129 109 0;
#X obj 164 150 del 100;
#X msg 160 171 1;
#X obj 70 234 / 2;
#X obj 65 201 int;
#X obj 106 201 + 1;
#X msg 81 130 bang;
#X obj 93 266 int;
#X obj 58 295 -;
#X obj 56 321 sel 0.5 0;
#X obj 147 320 sel 0 0.5;
#X obj 70 404 expr 60000/$f1;
#X obj 70 426 outlet;
#X obj 98 44 inlet~;
#X connect 0 0 4 0;
#X connect 0 0 10 0;
#X connect 1 0 15 0;
#X connect 2 0 15 0;
#X connect 3 0 8 0;
#X connect 4 0 3 1;
#X connect 4 0 5 0;
#X connect 5 0 6 0;
#X connect 6 0 3 1;
#X connect 7 0 11 0;
#X connect 7 0 12 0;
#X connect 8 0 7 0;
#X connect 8 0 9 0;
#X connect 9 0 8 1;
#X connect 10 0 3 0;
#X connect 11 0 12 1;
#X connect 12 0 13 0;
#X connect 12 0 14 0;
#X connect 13 0 1 0;
#X connect 13 1 1 1;
#X connect 14 0 2 0;
#X connect 14 1 2 1;
#X connect 15 0 16 0;
#X connect 17 0 0 0;
#X restore 816 84 pd immeditatetempo;
#X obj 125 562 svf~ band;
#N canvas 0 22 458 308 ctl 0;
#X obj 212 148 sig~;
#X obj 257 155 sig~;
#X obj 164 76 mtof;
#X obj 164 148 line~;
#X msg 164 125 \$1 100;
#X obj 131 190 outlet~;
#X obj 191 190 outlet~;
#X obj 263 190 outlet~;
#X obj 162 32 r SVFFreq2;
#X obj 236 66 r SVFQ2;
#X obj 283 100 r SVFReson2;
#X connect 0 0 6 0;
#X connect 1 0 7 0;
#X connect 2 0 4 0;
#X connect 3 0 5 0;
#X connect 4 0 3 0;
#X connect 8 0 2 0;
#X connect 9 0 0 0;
#X connect 10 0 1 0;
#X restore 145 541 pd ctl;
#X obj 195 64 vsl 15 128 16 135 0 0 SVFFreq empty empty 0 -8 0 8 -262144
-1 -1 7994 1;
#X obj 243 64 vsl 15 128 0.01 0.5 0 0 SVFQ empty empty 0 -8 0 8 -262144
-1 -1 400 1;
#X obj 288 63 vsl 15 128 0 1 0 0 SVFReson empty empty 0 -8 0 8 -262144
-1 -1 4000 1;
#X floatatom 288 200 5 0 0 0 - - -;
#X floatatom 243 200 5 0 0 0 - - -;
#X text 244 43 q;
#X text 269 44 resonance;
#X text 165 44 frequency;
#N canvas 0 22 458 308 lfo 0;
#X obj 126 59 inlet;
#X obj 134 246 outlet;
#X obj 133 110 metro 60;
#X obj 206 48 inlet;
#X obj 278 77 inlet;
#X obj 180 155 + 1;
#X obj 155 192 sin;
#X obj 150 156 f;
#X connect 0 0 2 0;
#X connect 2 0 7 0;
#X connect 3 0 2 1;
#X connect 4 0 5 1;
#X connect 5 0 7 1;
#X connect 6 0 1 0;
#X connect 7 0 6 0;
#X connect 7 0 5 0;
#X restore 429 91 pd lfo;
#X obj 429 71 tgl 15 0 empty empty empty 0 -6 0 8 -262144 -1 -1 1 1
;
#X floatatom 448 54 5 0 0 0 - - -;
#X floatatom 466 73 5 0 0 0 - - -;
#X obj 430 113 * 1;
#X obj 430 135 + 1;
#X floatatom 412 180 5 0 0 0 - - -;
#X floatatom 496 93 5 0 0 0 - - -;
#X floatatom 490 129 5 0 0 0 - - -;
#X obj 565 284 vsl 15 128 16 135 0 0 SVFFreq2 empty empty 0 -8 0 8
-262144 -1 -1 10293 1;
#X obj 613 284 vsl 15 128 0.01 0.5 1 0 SVFQ2 empty empty 0 -8 0 8 -262144
-1 -1 500 1;
#X obj 658 283 vsl 15 128 0 1 0 0 SVFReson2 empty empty 0 -8 0 8 -262144
-1 -1 4300 1;
#X floatatom 658 420 5 0 0 0 - - -;
#X floatatom 613 420 5 0 0 0 - - -;
#X text 614 263 q;
#X text 639 264 resonance;
#X text 535 264 frequency;
#N canvas 0 22 454 304 lfo 0;
#X obj 126 59 inlet;
#X obj 134 246 outlet;
#X obj 133 110 metro 60;
#X obj 206 48 inlet;
#X obj 278 77 inlet;
#X obj 180 155 + 1;
#X obj 155 192 sin;
#X obj 150 156 f;
#X connect 0 0 2 0;
#X connect 2 0 7 0;
#X connect 3 0 2 1;
#X connect 4 0 5 1;
#X connect 5 0 7 1;
#X connect 6 0 1 0;
#X connect 7 0 6 0;
#X connect 7 0 5 0;
#X restore 799 311 pd lfo;
#X obj 799 291 tgl 15 0 empty empty empty 0 -6 0 8 -262144 -1 -1 1
1;
#X floatatom 818 274 5 0 0 0 - - -;
#X floatatom 836 293 5 0 0 0 - - -;
#X obj 800 333 * 1;
#X obj 800 355 + 1;
#X floatatom 782 400 5 0 0 0 - - -;
#X floatatom 866 313 5 0 0 0 - - -;
#X floatatom 860 349 5 0 0 0 - - -;
#N canvas 0 22 454 304 lfo 0;
#X obj 126 59 inlet;
#X obj 134 246 outlet;
#X obj 133 110 metro 60;
#X obj 206 48 inlet;
#X obj 278 77 inlet;
#X obj 180 155 + 1;
#X obj 155 192 sin;
#X obj 150 156 f;
#X connect 0 0 2 0;
#X connect 2 0 7 0;
#X connect 3 0 2 1;
#X connect 4 0 5 1;
#X connect 5 0 7 1;
#X connect 6 0 1 0;
#X connect 7 0 6 0;
#X connect 7 0 5 0;
#X restore 779 471 pd lfo;
#X obj 779 451 tgl 15 0 empty empty empty 0 -6 0 8 -262144 -1 -1 0
1;
#X floatatom 816 453 5 0 0 0 - - -;
#X obj 780 493 * 1;
#X obj 780 515 + 1;
#X floatatom 846 473 5 0 0 0 - - -;
#X floatatom 840 509 7 0 0 0 - - -;
#X obj 653 556 pipe 500;
#N canvas 0 22 454 304 lfo 0;
#X obj 126 59 inlet;
#X obj 134 246 outlet;
#X obj 133 110 metro 60;
#X obj 206 48 inlet;
#X obj 278 77 inlet;
#X obj 180 155 + 1;
#X obj 155 192 sin;
#X obj 150 156 f;
#X connect 0 0 2 0;
#X connect 2 0 7 0;
#X connect 3 0 2 1;
#X connect 4 0 5 1;
#X connect 5 0 7 1;
#X connect 6 0 1 0;
#X connect 7 0 6 0;
#X connect 7 0 5 0;
#X restore 985 533 pd lfo;
#X obj 985 513 tgl 15 0 empty empty empty 0 -6 0 8 -262144 -1 -1 0
1;
#X floatatom 1004 496 5 0 0 0 - - -;
#X floatatom 1022 515 5 0 0 0 - - -;
#X obj 986 555 * 1;
#X obj 986 577 + 1;
#X floatatom 1052 535 5 0 0 0 - - -;
#X floatatom 1046 571 5 0 0 0 - - -;
#X obj 607 580 + 500;
#X floatatom 262 472 5 0 0 0 - - -;
#X obj 41 71 r~ HandOffL;
#X obj 75 100 r~ HandOffR;
#X obj 63 134 *~ 0.5;
#X connect 0 0 4 0;
#X connect 0 0 10 1;
#X connect 0 0 10 0;
#X connect 1 0 0 1;
#X connect 1 1 0 2;
#X connect 1 2 0 3;
#X connect 3 0 4 0;
#X connect 3 0 0 0;
#X connect 4 0 10 1;
#X connect 4 0 12 0;
#X connect 4 0 10 0;
#X connect 5 0 4 1;
#X connect 6 0 4 2;
#X connect 6 0 65 0;
#X connect 7 0 4 3;
#X connect 8 0 4 4;
#X connect 9 0 4 5;
#X connect 12 0 10 1;
#X connect 12 0 10 0;
#X connect 13 0 12 1;
#X connect 13 1 12 2;
#X connect 13 2 12 3;
#X connect 15 0 18 0;
#X connect 16 0 17 0;
#X connect 22 0 26 0;
#X connect 23 0 22 0;
#X connect 24 0 22 1;
#X connect 25 0 22 2;
#X connect 26 0 27 0;
#X connect 27 0 14 0;
#X connect 29 0 26 1;
#X connect 30 0 27 1;
#X connect 32 0 35 0;
#X connect 33 0 34 0;
#X connect 39 0 43 0;
#X connect 40 0 39 0;
#X connect 41 0 39 1;
#X connect 42 0 39 2;
#X connect 43 0 44 0;
#X connect 44 0 31 0;
#X connect 44 0 48 1;
#X connect 46 0 43 1;
#X connect 47 0 44 1;
#X connect 48 0 51 0;
#X connect 49 0 48 0;
#X connect 50 0 48 2;
#X connect 51 0 52 0;
#X connect 52 0 55 0;
#X connect 52 0 5 0;
#X connect 53 0 51 1;
#X connect 54 0 52 1;
#X connect 55 0 64 0;
#X connect 56 0 60 0;
#X connect 57 0 56 0;
#X connect 58 0 56 1;
#X connect 59 0 56 2;
#X connect 60 0 61 0;
#X connect 61 0 55 1;
#X connect 62 0 60 1;
#X connect 63 0 61 1;
#X connect 64 0 7 0;
#X connect 66 0 68 0;
#X connect 66 0 10 0;
#X connect 67 0 68 0;
#X connect 67 0 10 1;
#X connect 68 0 0 0;
