#N canvas 424 208 412 317 10;
#N canvas -38 143 928 646 LFO 0;
#X floatatom 39 184 5 0 0 0 - #0-2siner2 -;
#X obj 200 79 sig~;
#X obj 204 45 expr $f1 / 60;
#X floatatom 26 28 5 0 0 0 - #0-2siner1 -;
#X obj 22 80 sig~;
#X obj 26 46 expr $f1 / 60;
#X obj 46 576 sig~;
#X msg 30 551 -1;
#X msg 65 550 1;
#X obj 34 527 sel 0 1;
#X obj 33 506 int 1;
#X obj 78 506 expr ($f1 + 1) % 2;
#X obj 8 383 expr 60000 / $f1;
#X floatatom 11 358 5 0 0 0 - #0-2squarer1 -;
#X obj 62 408 loadbang;
#X msg 63 427 1;
#X obj 0 483 metro 500;
#X obj 196 102 phasor~ 1;
#X obj 19 103 osc~ 1;
#X floatatom 204 187 5 0 0 0 - #0-2sawer2 -;
#X obj 200 239 sig~;
#X obj 204 205 expr $f1 / 60;
#X floatatom 187 21 5 0 0 0 - #0-2sawer1 -;
#X obj 2 260 sig~;
#X obj 6 226 expr $f1 / 60;
#X obj 196 262 phasor~ 1;
#X obj -1 283 osc~ 1;
#X obj 136 429 snapshot~;
#X obj 168 404 metro 50;
#X obj 166 365 loadbang;
#X msg 167 384 1;
#X obj 62 459 +;
#X obj 137 457 bang;
#X obj 298 569 sig~;
#X msg 282 544 -1;
#X msg 317 543 1;
#X obj 286 520 sel 0 1;
#X obj 285 499 int 1;
#X obj 330 499 expr ($f1 + 1) % 2;
#X obj 260 376 expr 60000 / $f1;
#X floatatom 263 351 5 0 0 0 - #0-2squarer2 -;
#X obj 314 401 loadbang;
#X msg 315 420 1;
#X obj 302 475 metro 500;
#X obj 388 422 snapshot~;
#X obj 420 397 metro 50;
#X obj 418 358 loadbang;
#X msg 419 377 1;
#X obj 335 442 +;
#X obj 389 450 bang;
#X obj 580 305 snapshot~;
#X obj 669 305 snapshot~;
#X obj 599 415 snapshot~;
#X obj 717 415 snapshot~;
#X obj 644 515 snapshot~;
#X obj 749 515 snapshot~;
#X obj 757 214 loadbang;
#X msg 752 234 1;
#X obj 645 541 sel -1 1;
#X obj 745 541 sel -1 1;
#X msg 645 568 0;
#X msg 675 568 1;
#X msg 745 568 0;
#X msg 775 568 1;
#X floatatom 158 545 5 0 0 0 - - -;
#X obj 587 78 r synchronize;
#X msg 586 136 1;
#X obj 245 429 del 5;
#X obj 670 330 s \$0-Sin2Vis;
#X obj 580 330 s \$0-Sin1Vis;
#X obj 601 440 s \$0-Saw1Vis;
#X obj 718 440 s \$0-Saw2Vis;
#X obj 645 591 s \$0-Sqr1Vis;
#X obj 751 589 s \$0-Sqr2Vis;
#X obj 46 602 throw~ \$0-square1;
#X obj 298 595 throw~ \$0-square2;
#X obj -1 322 throw~ \$0-sine2;
#X obj 196 301 throw~ \$0-sawtooth2;
#X obj 196 141 throw~ \$0-sawtooth1;
#X obj 19 142 throw~ \$0-sine1;
#X obj 63 69 catch~ \$0-rsine1;
#X obj 240 67 catch~ \$0-rsawtooth1;
#X obj 258 228 catch~ \$0-rsawtooth2;
#X obj 42 249 catch~ \$0-rsine2;
#X obj 144 335 catch~ \$0-rsquare1;
#X obj 396 328 catch~ \$0-rsquare2;
#X obj 751 256 metro 70;
#X connect 0 0 24 0;
#X connect 1 0 17 0;
#X connect 2 0 1 0;
#X connect 3 0 5 0;
#X connect 4 0 18 0;
#X connect 5 0 4 0;
#X connect 6 0 54 0;
#X connect 6 0 74 0;
#X connect 7 0 6 0;
#X connect 8 0 6 0;
#X connect 9 0 7 0;
#X connect 9 1 8 0;
#X connect 10 0 11 0;
#X connect 10 0 9 0;
#X connect 10 0 64 0;
#X connect 11 0 10 1;
#X connect 12 0 31 0;
#X connect 13 0 12 0;
#X connect 14 0 15 0;
#X connect 15 0 16 0;
#X connect 16 0 10 0;
#X connect 17 0 52 0;
#X connect 17 0 78 0;
#X connect 18 0 50 0;
#X connect 18 0 79 0;
#X connect 19 0 21 0;
#X connect 20 0 25 0;
#X connect 21 0 20 0;
#X connect 22 0 2 0;
#X connect 23 0 26 0;
#X connect 24 0 23 0;
#X connect 25 0 53 0;
#X connect 25 0 77 0;
#X connect 26 0 51 0;
#X connect 26 0 76 0;
#X connect 27 0 31 1;
#X connect 27 0 32 0;
#X connect 28 0 27 0;
#X connect 29 0 30 0;
#X connect 30 0 28 0;
#X connect 31 0 16 1;
#X connect 32 0 31 0;
#X connect 33 0 55 0;
#X connect 33 0 75 0;
#X connect 34 0 33 0;
#X connect 35 0 33 0;
#X connect 36 0 34 0;
#X connect 36 1 35 0;
#X connect 37 0 38 0;
#X connect 37 0 36 0;
#X connect 38 0 37 1;
#X connect 39 0 48 0;
#X connect 40 0 39 0;
#X connect 41 0 42 0;
#X connect 42 0 43 0;
#X connect 43 0 37 0;
#X connect 44 0 48 1;
#X connect 44 0 49 0;
#X connect 45 0 44 0;
#X connect 46 0 47 0;
#X connect 47 0 45 0;
#X connect 48 0 43 1;
#X connect 49 0 48 0;
#X connect 50 0 69 0;
#X connect 51 0 68 0;
#X connect 52 0 70 0;
#X connect 53 0 71 0;
#X connect 54 0 58 0;
#X connect 55 0 59 0;
#X connect 56 0 57 0;
#X connect 57 0 86 0;
#X connect 58 0 60 0;
#X connect 58 1 61 0;
#X connect 59 0 62 0;
#X connect 59 1 63 0;
#X connect 60 0 72 0;
#X connect 61 0 72 0;
#X connect 62 0 73 0;
#X connect 63 0 73 0;
#X connect 65 0 66 0;
#X connect 66 0 18 1;
#X connect 66 0 17 1;
#X connect 66 0 26 1;
#X connect 66 0 25 1;
#X connect 66 0 16 0;
#X connect 66 0 43 0;
#X connect 80 0 18 0;
#X connect 81 0 17 0;
#X connect 82 0 25 0;
#X connect 83 0 26 0;
#X connect 84 0 27 0;
#X connect 85 0 44 0;
#X connect 86 0 50 0;
#X connect 86 0 51 0;
#X connect 86 0 52 0;
#X connect 86 0 53 0;
#X connect 86 0 54 0;
#X connect 86 0 55 0;
#X restore 239 272 pd LFO BANK;
#X obj 2 34 cnv 15 50 65 empty empty sines 0 -6 0 14 -1 -66577 0;
#X obj 55 34 cnv 15 50 65 empty empty saws 0 -6 0 14 -1 -66577 0;
#X obj 108 34 cnv 15 50 68 empty empty squares 0 -6 0 14 -1 -66577
0;
#X floatatom 5 39 3 0 0 0 - #0-siner1 #0-2siner1;
#X floatatom 29 40 3 0 0 0 - #0--siner2 #0-2siner2;
#X floatatom 57 39 3 0 0 0 - #0-sawer1 #0-2sawer1;
#X floatatom 82 39 3 0 0 0 - #0-sawer2 #0-2sawer2;
#X floatatom 110 38 3 0 0 0 - #0-squarer1 #0-2squarer1;
#X floatatom 136 38 3 0 0 0 - #0-squarer2 #0-2squarer2;
#X obj 4 57 vsl 22 35 -1 1 0 0 empty \$0-Sin1Vis empty 0 -8 0 8 -262144
-1 -1 1014 1;
#X obj 28 57 vsl 22 35 -1 1 0 0 empty \$0-Sin2Vis empty 0 -8 0 8 -262144
-1 -1 3210 1;
#X obj 56 57 vsl 22 35 0 1 0 0 empty \$0-Saw1Vis empty 0 -8 0 8 -262144
-1 -1 626 1;
#X obj 81 57 vsl 22 35 0 1 0 0 empty \$0-Saw2Vis empty 0 -8 0 8 -262144
-1 -1 2943 1;
#X obj 109 55 vradio 22 1 0 2 empty \$0-Sqr1Vis empty 0 -6 0 8 -262144
-1 -1 1;
#X obj 134 55 vradio 22 1 0 2 empty \$0-Sqr2Vis empty 0 -6 0 8 -262144
-1 -1 0;
#X obj 163 86 bng 12 250 50 0 synchronize empty syncup 0 -6 0 10 -262144
-258113 -1;
#X obj -6 203 outlet;
#X obj 8 227 outlet;
#X obj 8 272 outlet;
#X obj 53 272 outlet;
#X obj 108 272 outlet;
#X obj 153 272 outlet;
#N canvas 83 284 297 187 MATRIX 0;
#X obj 2 24 vradio 22 1 0 7 \$0-MatrixRowONE \$0-2MatrixRowONE empty
0 -6 0 8 -262144 -1 -1 0;
#X text 9 164 1;
#X text 30 163 2;
#X text 60 163 3;
#X text 86 163 4;
#X text 116 163 5;
#X text 140 163 6;
#X obj 2 179 cnv 15 170 20 empty empty LFO_Matrix 20 12 0 14 -1 -262144
0;
#X obj 26 24 vradio 22 1 0 7 \$0-MatrixRowTWO \$0-2MatrixRowTWO empty
0 -6 0 8 -262144 -1 -1 0;
#X obj 54 24 vradio 22 1 0 7 \$0-MatrixRowTHREE \$0-2MatrixRowTHREE
empty 0 -6 0 8 -262144 -1 -1 1;
#X obj 79 24 vradio 22 1 0 7 \$0-MatrixRowFOUR \$0-2MatrixRowFOUR empty
0 -6 0 8 -262144 -1 -1 1;
#X obj 107 24 vradio 22 1 0 7 \$0-MatrixRowFIVE \$0-2MatrixRowFIVE
empty 0 -6 0 8 -262144 -1 -1 0;
#X obj 132 24 vradio 22 1 0 7 \$0-MatrixRowSIX \$0-2MatrixRowSIX empty
0 -6 0 8 -262144 -1 -1 0;
#X text 162 93 SawWav1;
#X text 162 50 SinWav1;
#X obj 158 358 metro 50;
#X obj 158 338 tgl 15 0 empty empty empty 0 -6 0 8 -262144 -1 -1 0
1;
#X obj 161 398 hsl 128 15 -1 1 0 0 empty empty empty -2 -6 0 8 -262144
-1 -1 6350 1;
#X obj 158 378 snapshot~;
#X text 162 72 SinWav2;
#X text 162 115 SawWav2;
#X text 162 137 SqrWav1;
#X text 162 159 SqrWav2;
#X text 162 27 no send;
#N canvas 0 22 474 324 rowOne 0;
#X floatatom 130 45 5 0 0 0 - - -;
#N canvas 0 22 458 308 spigot~ 0;
#X obj 78 61 inlet~;
#X obj 93 205 outlet~;
#X obj 183 67 inlet;
#X obj 122 147 *~;
#X obj 171 93 sel 0 1;
#X msg 162 118 0;
#X msg 176 118 1;
#X connect 0 0 3 0;
#X connect 2 0 4 0;
#X connect 3 0 1 0;
#X connect 4 0 5 0;
#X connect 4 1 6 0;
#X connect 5 0 3 1;
#X connect 6 0 3 1;
#X restore 24 178 pd spigot~;
#X msg 89 154 1;
#X msg 58 154 0;
#N canvas 0 22 458 308 spigot~ 0;
#X obj 78 61 inlet~;
#X obj 93 205 outlet~;
#X obj 183 67 inlet;
#X obj 122 147 *~;
#X obj 171 93 sel 0 1;
#X msg 162 118 0;
#X msg 176 118 1;
#X connect 0 0 3 0;
#X connect 2 0 4 0;
#X connect 3 0 1 0;
#X connect 4 0 5 0;
#X connect 4 1 6 0;
#X connect 5 0 3 1;
#X connect 6 0 3 1;
#X restore 134 178 pd spigot~;
#X msg 199 154 1;
#X msg 168 154 0;
#N canvas 0 22 458 308 spigot~ 0;
#X obj 78 61 inlet~;
#X obj 93 205 outlet~;
#X obj 183 67 inlet;
#X obj 122 147 *~;
#X obj 171 93 sel 0 1;
#X msg 162 118 0;
#X msg 176 118 1;
#X connect 0 0 3 0;
#X connect 2 0 4 0;
#X connect 3 0 1 0;
#X connect 4 0 5 0;
#X connect 4 1 6 0;
#X connect 5 0 3 1;
#X connect 6 0 3 1;
#X restore 244 148 pd spigot~;
#X msg 309 124 1;
#X msg 278 124 0;
#N canvas 0 22 458 308 spigot~ 0;
#X obj 78 61 inlet~;
#X obj 93 205 outlet~;
#X obj 183 67 inlet;
#X obj 122 147 *~;
#X obj 171 93 sel 0 1;
#X msg 162 118 0;
#X msg 176 118 1;
#X connect 0 0 3 0;
#X connect 2 0 4 0;
#X connect 3 0 1 0;
#X connect 4 0 5 0;
#X connect 4 1 6 0;
#X connect 5 0 3 1;
#X connect 6 0 3 1;
#X restore 344 148 pd spigot~;
#X msg 409 124 1;
#X msg 378 124 0;
#X obj 186 34 sel 0 1 2 3 4 5 6;
#N canvas 0 22 458 308 spigot~ 0;
#X obj 78 61 inlet~;
#X obj 93 205 outlet~;
#X obj 183 67 inlet;
#X obj 122 147 *~;
#X obj 171 93 sel 0 1;
#X msg 162 118 0;
#X msg 176 118 1;
#X connect 0 0 3 0;
#X connect 2 0 4 0;
#X connect 3 0 1 0;
#X connect 4 0 5 0;
#X connect 4 1 6 0;
#X connect 5 0 3 1;
#X connect 6 0 3 1;
#X restore 174 298 pd spigot~;
#X msg 239 274 1;
#X msg 208 274 0;
#N canvas 0 22 458 308 spigot~ 0;
#X obj 78 61 inlet~;
#X obj 93 205 outlet~;
#X obj 183 67 inlet;
#X obj 122 147 *~;
#X obj 171 93 sel 0 1;
#X msg 162 118 0;
#X msg 176 118 1;
#X connect 0 0 3 0;
#X connect 2 0 4 0;
#X connect 3 0 1 0;
#X connect 4 0 5 0;
#X connect 4 1 6 0;
#X connect 5 0 3 1;
#X connect 6 0 3 1;
#X restore 274 298 pd spigot~;
#X msg 339 274 1;
#X msg 308 274 0;
#X obj 23 201 throw~ \$0-rsine1;
#X obj 134 207 throw~ \$0-rsine2;
#X obj 242 203 throw~ \$0-rsawtooth1;
#X obj 341 182 throw~ \$0-rsawtooth2;
#X obj 172 352 throw~ \$0-rsquare1;
#X obj 271 332 throw~ \$0-rsquare2;
#X obj 130 17 r \$0-MatrixRowONE;
#X obj 27 73 catch~ \$0-sine1;
#X connect 0 0 13 0;
#X connect 1 0 20 0;
#X connect 2 0 1 1;
#X connect 3 0 1 1;
#X connect 4 0 21 0;
#X connect 5 0 4 1;
#X connect 6 0 4 1;
#X connect 7 0 22 0;
#X connect 8 0 7 1;
#X connect 9 0 7 1;
#X connect 10 0 23 0;
#X connect 11 0 10 1;
#X connect 12 0 10 1;
#X connect 13 0 3 0;
#X connect 13 0 6 0;
#X connect 13 0 9 0;
#X connect 13 0 16 0;
#X connect 13 0 19 0;
#X connect 13 0 12 0;
#X connect 13 1 2 0;
#X connect 13 1 6 0;
#X connect 13 1 9 0;
#X connect 13 1 12 0;
#X connect 13 1 16 0;
#X connect 13 1 19 0;
#X connect 13 2 5 0;
#X connect 13 2 3 0;
#X connect 13 2 9 0;
#X connect 13 2 12 0;
#X connect 13 2 16 0;
#X connect 13 2 19 0;
#X connect 13 3 8 0;
#X connect 13 3 3 0;
#X connect 13 3 6 0;
#X connect 13 3 12 0;
#X connect 13 3 16 0;
#X connect 13 3 19 0;
#X connect 13 4 11 0;
#X connect 13 4 9 0;
#X connect 13 4 6 0;
#X connect 13 4 3 0;
#X connect 13 4 16 0;
#X connect 13 4 19 0;
#X connect 13 5 15 0;
#X connect 13 5 3 0;
#X connect 13 5 6 0;
#X connect 13 5 9 0;
#X connect 13 5 12 0;
#X connect 13 5 19 0;
#X connect 13 6 3 0;
#X connect 13 6 6 0;
#X connect 13 6 9 0;
#X connect 13 6 12 0;
#X connect 13 6 16 0;
#X connect 13 6 18 0;
#X connect 14 0 24 0;
#X connect 15 0 14 1;
#X connect 16 0 14 1;
#X connect 17 0 25 0;
#X connect 18 0 17 1;
#X connect 19 0 17 1;
#X connect 26 0 0 0;
#X connect 27 0 4 0;
#X connect 27 0 1 0;
#X connect 27 0 7 0;
#X connect 27 0 10 0;
#X connect 27 0 14 0;
#X connect 27 0 17 0;
#X restore 311 128 pd rowOne;
#N canvas 0 22 470 320 rowTwo 0;
#X floatatom 130 45 5 0 0 0 - - -;
#N canvas 0 22 458 308 spigot~ 0;
#X obj 78 61 inlet~;
#X obj 93 205 outlet~;
#X obj 183 67 inlet;
#X obj 122 147 *~;
#X obj 171 93 sel 0 1;
#X msg 162 118 0;
#X msg 176 118 1;
#X connect 0 0 3 0;
#X connect 2 0 4 0;
#X connect 3 0 1 0;
#X connect 4 0 5 0;
#X connect 4 1 6 0;
#X connect 5 0 3 1;
#X connect 6 0 3 1;
#X restore 24 178 pd spigot~;
#X msg 89 154 1;
#X msg 58 154 0;
#N canvas 0 22 458 308 spigot~ 0;
#X obj 78 61 inlet~;
#X obj 93 205 outlet~;
#X obj 183 67 inlet;
#X obj 122 147 *~;
#X obj 171 93 sel 0 1;
#X msg 162 118 0;
#X msg 176 118 1;
#X connect 0 0 3 0;
#X connect 2 0 4 0;
#X connect 3 0 1 0;
#X connect 4 0 5 0;
#X connect 4 1 6 0;
#X connect 5 0 3 1;
#X connect 6 0 3 1;
#X restore 134 178 pd spigot~;
#X msg 199 154 1;
#X msg 168 154 0;
#N canvas 0 22 458 308 spigot~ 0;
#X obj 78 61 inlet~;
#X obj 93 205 outlet~;
#X obj 183 67 inlet;
#X obj 122 147 *~;
#X obj 171 93 sel 0 1;
#X msg 162 118 0;
#X msg 176 118 1;
#X connect 0 0 3 0;
#X connect 2 0 4 0;
#X connect 3 0 1 0;
#X connect 4 0 5 0;
#X connect 4 1 6 0;
#X connect 5 0 3 1;
#X connect 6 0 3 1;
#X restore 244 148 pd spigot~;
#X msg 309 124 1;
#X msg 278 124 0;
#N canvas 0 22 458 308 spigot~ 0;
#X obj 78 61 inlet~;
#X obj 93 205 outlet~;
#X obj 183 67 inlet;
#X obj 122 147 *~;
#X obj 171 93 sel 0 1;
#X msg 162 118 0;
#X msg 176 118 1;
#X connect 0 0 3 0;
#X connect 2 0 4 0;
#X connect 3 0 1 0;
#X connect 4 0 5 0;
#X connect 4 1 6 0;
#X connect 5 0 3 1;
#X connect 6 0 3 1;
#X restore 344 148 pd spigot~;
#X msg 409 124 1;
#X msg 378 124 0;
#X obj 186 34 sel 0 1 2 3 4 5 6;
#N canvas 0 22 458 308 spigot~ 0;
#X obj 78 61 inlet~;
#X obj 93 205 outlet~;
#X obj 183 67 inlet;
#X obj 122 147 *~;
#X obj 171 93 sel 0 1;
#X msg 162 118 0;
#X msg 176 118 1;
#X connect 0 0 3 0;
#X connect 2 0 4 0;
#X connect 3 0 1 0;
#X connect 4 0 5 0;
#X connect 4 1 6 0;
#X connect 5 0 3 1;
#X connect 6 0 3 1;
#X restore 174 298 pd spigot~;
#X msg 239 274 1;
#X msg 208 274 0;
#N canvas 0 22 458 308 spigot~ 0;
#X obj 78 61 inlet~;
#X obj 93 205 outlet~;
#X obj 183 67 inlet;
#X obj 122 147 *~;
#X obj 171 93 sel 0 1;
#X msg 162 118 0;
#X msg 176 118 1;
#X connect 0 0 3 0;
#X connect 2 0 4 0;
#X connect 3 0 1 0;
#X connect 4 0 5 0;
#X connect 4 1 6 0;
#X connect 5 0 3 1;
#X connect 6 0 3 1;
#X restore 274 298 pd spigot~;
#X msg 339 274 1;
#X msg 308 274 0;
#X obj 172 352 throw~ \$0-rsquare1;
#X obj 272 332 throw~ \$0-rsquare2;
#X obj 242 203 throw~ \$0-rsawtooth1;
#X obj 341 182 throw~ \$0-rsawtooth2;
#X obj 134 207 throw~ \$0-rsine2;
#X obj 23 201 throw~ \$0-rsine1;
#X obj 130 17 r \$0-MatrixRowTWO;
#X obj 27 73 catch~ \$0-sine2;
#X connect 0 0 13 0;
#X connect 1 0 25 0;
#X connect 2 0 1 1;
#X connect 3 0 1 1;
#X connect 4 0 24 0;
#X connect 5 0 4 1;
#X connect 6 0 4 1;
#X connect 7 0 22 0;
#X connect 8 0 7 1;
#X connect 9 0 7 1;
#X connect 10 0 23 0;
#X connect 11 0 10 1;
#X connect 12 0 10 1;
#X connect 13 0 3 0;
#X connect 13 0 6 0;
#X connect 13 0 9 0;
#X connect 13 0 16 0;
#X connect 13 0 19 0;
#X connect 13 0 12 0;
#X connect 13 1 2 0;
#X connect 13 1 6 0;
#X connect 13 1 9 0;
#X connect 13 1 12 0;
#X connect 13 1 16 0;
#X connect 13 1 19 0;
#X connect 13 2 5 0;
#X connect 13 2 3 0;
#X connect 13 2 9 0;
#X connect 13 2 12 0;
#X connect 13 2 16 0;
#X connect 13 2 19 0;
#X connect 13 3 8 0;
#X connect 13 3 3 0;
#X connect 13 3 6 0;
#X connect 13 3 12 0;
#X connect 13 3 16 0;
#X connect 13 3 19 0;
#X connect 13 4 11 0;
#X connect 13 4 9 0;
#X connect 13 4 6 0;
#X connect 13 4 3 0;
#X connect 13 4 16 0;
#X connect 13 4 19 0;
#X connect 13 5 15 0;
#X connect 13 5 3 0;
#X connect 13 5 6 0;
#X connect 13 5 9 0;
#X connect 13 5 12 0;
#X connect 13 5 19 0;
#X connect 13 6 3 0;
#X connect 13 6 6 0;
#X connect 13 6 9 0;
#X connect 13 6 12 0;
#X connect 13 6 16 0;
#X connect 13 6 18 0;
#X connect 14 0 20 0;
#X connect 15 0 14 1;
#X connect 16 0 14 1;
#X connect 17 0 21 0;
#X connect 18 0 17 1;
#X connect 19 0 17 1;
#X connect 26 0 0 0;
#X connect 27 0 4 0;
#X connect 27 0 1 0;
#X connect 27 0 7 0;
#X connect 27 0 10 0;
#X connect 27 0 14 0;
#X connect 27 0 17 0;
#X restore 391 128 pd rowTwo;
#N canvas 0 22 462 312 rowTri 0;
#X floatatom 130 45 5 0 0 0 - - -;
#N canvas 0 22 458 308 spigot~ 0;
#X obj 78 61 inlet~;
#X obj 93 205 outlet~;
#X obj 183 67 inlet;
#X obj 122 147 *~;
#X obj 171 93 sel 0 1;
#X msg 162 118 0;
#X msg 176 118 1;
#X connect 0 0 3 0;
#X connect 2 0 4 0;
#X connect 3 0 1 0;
#X connect 4 0 5 0;
#X connect 4 1 6 0;
#X connect 5 0 3 1;
#X connect 6 0 3 1;
#X restore 24 178 pd spigot~;
#X msg 89 154 1;
#X msg 58 154 0;
#N canvas 0 22 458 308 spigot~ 0;
#X obj 78 61 inlet~;
#X obj 93 205 outlet~;
#X obj 183 67 inlet;
#X obj 122 147 *~;
#X obj 171 93 sel 0 1;
#X msg 162 118 0;
#X msg 176 118 1;
#X connect 0 0 3 0;
#X connect 2 0 4 0;
#X connect 3 0 1 0;
#X connect 4 0 5 0;
#X connect 4 1 6 0;
#X connect 5 0 3 1;
#X connect 6 0 3 1;
#X restore 134 178 pd spigot~;
#X msg 199 154 1;
#X msg 168 154 0;
#N canvas 0 22 458 308 spigot~ 0;
#X obj 78 61 inlet~;
#X obj 93 205 outlet~;
#X obj 183 67 inlet;
#X obj 122 147 *~;
#X obj 171 93 sel 0 1;
#X msg 162 118 0;
#X msg 176 118 1;
#X connect 0 0 3 0;
#X connect 2 0 4 0;
#X connect 3 0 1 0;
#X connect 4 0 5 0;
#X connect 4 1 6 0;
#X connect 5 0 3 1;
#X connect 6 0 3 1;
#X restore 244 148 pd spigot~;
#X msg 309 124 1;
#X msg 278 124 0;
#N canvas 0 22 458 308 spigot~ 0;
#X obj 78 61 inlet~;
#X obj 93 205 outlet~;
#X obj 183 67 inlet;
#X obj 122 147 *~;
#X obj 171 93 sel 0 1;
#X msg 162 118 0;
#X msg 176 118 1;
#X connect 0 0 3 0;
#X connect 2 0 4 0;
#X connect 3 0 1 0;
#X connect 4 0 5 0;
#X connect 4 1 6 0;
#X connect 5 0 3 1;
#X connect 6 0 3 1;
#X restore 344 148 pd spigot~;
#X msg 409 124 1;
#X msg 378 124 0;
#X obj 186 34 sel 0 1 2 3 4 5 6;
#N canvas 0 22 458 308 spigot~ 0;
#X obj 78 61 inlet~;
#X obj 93 205 outlet~;
#X obj 183 67 inlet;
#X obj 122 147 *~;
#X obj 171 93 sel 0 1;
#X msg 162 118 0;
#X msg 176 118 1;
#X connect 0 0 3 0;
#X connect 2 0 4 0;
#X connect 3 0 1 0;
#X connect 4 0 5 0;
#X connect 4 1 6 0;
#X connect 5 0 3 1;
#X connect 6 0 3 1;
#X restore 174 298 pd spigot~;
#X msg 239 274 1;
#X msg 208 274 0;
#N canvas 0 22 458 308 spigot~ 0;
#X obj 78 61 inlet~;
#X obj 93 205 outlet~;
#X obj 183 67 inlet;
#X obj 122 147 *~;
#X obj 171 93 sel 0 1;
#X msg 162 118 0;
#X msg 176 118 1;
#X connect 0 0 3 0;
#X connect 2 0 4 0;
#X connect 3 0 1 0;
#X connect 4 0 5 0;
#X connect 4 1 6 0;
#X connect 5 0 3 1;
#X connect 6 0 3 1;
#X restore 274 298 pd spigot~;
#X msg 339 274 1;
#X msg 308 274 0;
#X obj 23 200 throw~ \$0-rsine1;
#X obj 134 207 throw~ \$0-rsine2;
#X obj 242 203 throw~ \$0-rsawtooth1;
#X obj 341 182 throw~ \$0-rsawtooth2;
#X obj 271 332 throw~ \$0-rsquare2;
#X obj 172 352 throw~ \$0-rsquare1;
#X obj 130 16 r \$0-MatrixRowTHREE;
#X obj 27 73 catch~ \$0-sawtooth1;
#X connect 0 0 13 0;
#X connect 1 0 20 0;
#X connect 2 0 1 1;
#X connect 3 0 1 1;
#X connect 4 0 21 0;
#X connect 5 0 4 1;
#X connect 6 0 4 1;
#X connect 7 0 22 0;
#X connect 8 0 7 1;
#X connect 9 0 7 1;
#X connect 10 0 23 0;
#X connect 11 0 10 1;
#X connect 12 0 10 1;
#X connect 13 0 3 0;
#X connect 13 0 6 0;
#X connect 13 0 9 0;
#X connect 13 0 16 0;
#X connect 13 0 19 0;
#X connect 13 0 12 0;
#X connect 13 1 2 0;
#X connect 13 1 6 0;
#X connect 13 1 9 0;
#X connect 13 1 12 0;
#X connect 13 1 16 0;
#X connect 13 1 19 0;
#X connect 13 2 5 0;
#X connect 13 2 3 0;
#X connect 13 2 9 0;
#X connect 13 2 12 0;
#X connect 13 2 16 0;
#X connect 13 2 19 0;
#X connect 13 3 8 0;
#X connect 13 3 3 0;
#X connect 13 3 6 0;
#X connect 13 3 12 0;
#X connect 13 3 16 0;
#X connect 13 3 19 0;
#X connect 13 4 11 0;
#X connect 13 4 9 0;
#X connect 13 4 6 0;
#X connect 13 4 3 0;
#X connect 13 4 16 0;
#X connect 13 4 19 0;
#X connect 13 5 15 0;
#X connect 13 5 3 0;
#X connect 13 5 6 0;
#X connect 13 5 9 0;
#X connect 13 5 12 0;
#X connect 13 5 19 0;
#X connect 13 6 3 0;
#X connect 13 6 6 0;
#X connect 13 6 9 0;
#X connect 13 6 12 0;
#X connect 13 6 16 0;
#X connect 13 6 18 0;
#X connect 14 0 25 0;
#X connect 15 0 14 1;
#X connect 16 0 14 1;
#X connect 17 0 24 0;
#X connect 18 0 17 1;
#X connect 19 0 17 1;
#X connect 26 0 0 0;
#X connect 27 0 4 0;
#X connect 27 0 1 0;
#X connect 27 0 7 0;
#X connect 27 0 10 0;
#X connect 27 0 14 0;
#X connect 27 0 17 0;
#X restore 471 128 pd rowTri;
#N canvas 0 22 466 316 rowFor 0;
#X floatatom 130 45 5 0 0 0 - - -;
#N canvas 0 22 458 308 spigot~ 0;
#X obj 78 61 inlet~;
#X obj 93 205 outlet~;
#X obj 183 67 inlet;
#X obj 122 147 *~;
#X obj 171 93 sel 0 1;
#X msg 162 118 0;
#X msg 176 118 1;
#X connect 0 0 3 0;
#X connect 2 0 4 0;
#X connect 3 0 1 0;
#X connect 4 0 5 0;
#X connect 4 1 6 0;
#X connect 5 0 3 1;
#X connect 6 0 3 1;
#X restore 24 178 pd spigot~;
#X msg 89 154 1;
#X msg 58 154 0;
#N canvas 0 22 458 308 spigot~ 0;
#X obj 78 61 inlet~;
#X obj 93 205 outlet~;
#X obj 183 67 inlet;
#X obj 122 147 *~;
#X obj 171 93 sel 0 1;
#X msg 162 118 0;
#X msg 176 118 1;
#X connect 0 0 3 0;
#X connect 2 0 4 0;
#X connect 3 0 1 0;
#X connect 4 0 5 0;
#X connect 4 1 6 0;
#X connect 5 0 3 1;
#X connect 6 0 3 1;
#X restore 134 178 pd spigot~;
#X msg 199 154 1;
#X msg 168 154 0;
#N canvas 0 22 458 308 spigot~ 0;
#X obj 78 61 inlet~;
#X obj 93 205 outlet~;
#X obj 183 67 inlet;
#X obj 122 147 *~;
#X obj 171 93 sel 0 1;
#X msg 162 118 0;
#X msg 176 118 1;
#X connect 0 0 3 0;
#X connect 2 0 4 0;
#X connect 3 0 1 0;
#X connect 4 0 5 0;
#X connect 4 1 6 0;
#X connect 5 0 3 1;
#X connect 6 0 3 1;
#X restore 244 148 pd spigot~;
#X msg 309 124 1;
#X msg 278 124 0;
#N canvas 0 22 458 308 spigot~ 0;
#X obj 78 61 inlet~;
#X obj 93 205 outlet~;
#X obj 183 67 inlet;
#X obj 122 147 *~;
#X obj 171 93 sel 0 1;
#X msg 162 118 0;
#X msg 176 118 1;
#X connect 0 0 3 0;
#X connect 2 0 4 0;
#X connect 3 0 1 0;
#X connect 4 0 5 0;
#X connect 4 1 6 0;
#X connect 5 0 3 1;
#X connect 6 0 3 1;
#X restore 344 148 pd spigot~;
#X msg 409 124 1;
#X msg 378 124 0;
#X obj 186 34 sel 0 1 2 3 4 5 6;
#N canvas 0 22 458 308 spigot~ 0;
#X obj 78 61 inlet~;
#X obj 93 205 outlet~;
#X obj 183 67 inlet;
#X obj 122 147 *~;
#X obj 171 93 sel 0 1;
#X msg 162 118 0;
#X msg 176 118 1;
#X connect 0 0 3 0;
#X connect 2 0 4 0;
#X connect 3 0 1 0;
#X connect 4 0 5 0;
#X connect 4 1 6 0;
#X connect 5 0 3 1;
#X connect 6 0 3 1;
#X restore 174 298 pd spigot~;
#X msg 239 274 1;
#X msg 208 274 0;
#N canvas 0 22 458 308 spigot~ 0;
#X obj 78 61 inlet~;
#X obj 93 205 outlet~;
#X obj 183 67 inlet;
#X obj 122 147 *~;
#X obj 171 93 sel 0 1;
#X msg 162 118 0;
#X msg 176 118 1;
#X connect 0 0 3 0;
#X connect 2 0 4 0;
#X connect 3 0 1 0;
#X connect 4 0 5 0;
#X connect 4 1 6 0;
#X connect 5 0 3 1;
#X connect 6 0 3 1;
#X restore 274 298 pd spigot~;
#X msg 339 274 1;
#X msg 308 274 0;
#X obj 23 201 throw~ \$0-rsine1;
#X obj 134 207 throw~ \$0-rsine2;
#X obj 242 203 throw~ \$0-rsawtooth1;
#X obj 341 182 throw~ \$0-rsawtooth2;
#X obj 271 332 throw~ \$0-rsquare2;
#X obj 172 352 throw~ \$0-rsquare1;
#X obj 27 73 catch~ \$0-sawtooth2;
#X obj 130 15 r \$0-MatrixRowFOUR;
#X connect 0 0 13 0;
#X connect 1 0 20 0;
#X connect 2 0 1 1;
#X connect 3 0 1 1;
#X connect 4 0 21 0;
#X connect 5 0 4 1;
#X connect 6 0 4 1;
#X connect 7 0 22 0;
#X connect 8 0 7 1;
#X connect 9 0 7 1;
#X connect 10 0 23 0;
#X connect 11 0 10 1;
#X connect 12 0 10 1;
#X connect 13 0 3 0;
#X connect 13 0 6 0;
#X connect 13 0 9 0;
#X connect 13 0 16 0;
#X connect 13 0 19 0;
#X connect 13 0 12 0;
#X connect 13 1 2 0;
#X connect 13 1 6 0;
#X connect 13 1 9 0;
#X connect 13 1 12 0;
#X connect 13 1 16 0;
#X connect 13 1 19 0;
#X connect 13 2 5 0;
#X connect 13 2 3 0;
#X connect 13 2 9 0;
#X connect 13 2 12 0;
#X connect 13 2 16 0;
#X connect 13 2 19 0;
#X connect 13 3 8 0;
#X connect 13 3 3 0;
#X connect 13 3 6 0;
#X connect 13 3 12 0;
#X connect 13 3 16 0;
#X connect 13 3 19 0;
#X connect 13 4 11 0;
#X connect 13 4 9 0;
#X connect 13 4 6 0;
#X connect 13 4 3 0;
#X connect 13 4 16 0;
#X connect 13 4 19 0;
#X connect 13 5 15 0;
#X connect 13 5 3 0;
#X connect 13 5 6 0;
#X connect 13 5 9 0;
#X connect 13 5 12 0;
#X connect 13 5 19 0;
#X connect 13 6 3 0;
#X connect 13 6 6 0;
#X connect 13 6 9 0;
#X connect 13 6 12 0;
#X connect 13 6 16 0;
#X connect 13 6 18 0;
#X connect 14 0 25 0;
#X connect 15 0 14 1;
#X connect 16 0 14 1;
#X connect 17 0 24 0;
#X connect 18 0 17 1;
#X connect 19 0 17 1;
#X connect 26 0 4 0;
#X connect 26 0 1 0;
#X connect 26 0 7 0;
#X connect 26 0 10 0;
#X connect 26 0 14 0;
#X connect 26 0 17 0;
#X connect 27 0 0 0;
#X restore 311 158 pd rowFor;
#N canvas 0 22 558 529 rowFiv 0;
#X floatatom 130 45 5 0 0 0 - - -;
#N canvas 0 22 458 308 spigot~ 0;
#X obj 78 61 inlet~;
#X obj 93 205 outlet~;
#X obj 183 67 inlet;
#X obj 122 147 *~;
#X obj 171 93 sel 0 1;
#X msg 162 118 0;
#X msg 176 118 1;
#X connect 0 0 3 0;
#X connect 2 0 4 0;
#X connect 3 0 1 0;
#X connect 4 0 5 0;
#X connect 4 1 6 0;
#X connect 5 0 3 1;
#X connect 6 0 3 1;
#X restore 24 178 pd spigot~;
#X msg 89 154 1;
#X msg 58 154 0;
#N canvas 0 22 458 308 spigot~ 0;
#X obj 78 61 inlet~;
#X obj 93 205 outlet~;
#X obj 183 67 inlet;
#X obj 122 147 *~;
#X obj 171 93 sel 0 1;
#X msg 162 118 0;
#X msg 176 118 1;
#X connect 0 0 3 0;
#X connect 2 0 4 0;
#X connect 3 0 1 0;
#X connect 4 0 5 0;
#X connect 4 1 6 0;
#X connect 5 0 3 1;
#X connect 6 0 3 1;
#X restore 134 178 pd spigot~;
#X msg 199 154 1;
#X msg 168 154 0;
#N canvas 0 22 458 308 spigot~ 0;
#X obj 78 61 inlet~;
#X obj 93 205 outlet~;
#X obj 183 67 inlet;
#X obj 122 147 *~;
#X obj 171 93 sel 0 1;
#X msg 162 118 0;
#X msg 176 118 1;
#X connect 0 0 3 0;
#X connect 2 0 4 0;
#X connect 3 0 1 0;
#X connect 4 0 5 0;
#X connect 4 1 6 0;
#X connect 5 0 3 1;
#X connect 6 0 3 1;
#X restore 244 148 pd spigot~;
#X msg 309 124 1;
#X msg 278 124 0;
#N canvas 0 22 458 308 spigot~ 0;
#X obj 78 61 inlet~;
#X obj 93 205 outlet~;
#X obj 183 67 inlet;
#X obj 122 147 *~;
#X obj 171 93 sel 0 1;
#X msg 162 118 0;
#X msg 176 118 1;
#X connect 0 0 3 0;
#X connect 2 0 4 0;
#X connect 3 0 1 0;
#X connect 4 0 5 0;
#X connect 4 1 6 0;
#X connect 5 0 3 1;
#X connect 6 0 3 1;
#X restore 344 148 pd spigot~;
#X msg 409 124 1;
#X msg 379 124 0;
#X obj 186 34 sel 0 1 2 3 4 5 6;
#N canvas 0 22 458 308 spigot~ 0;
#X obj 78 61 inlet~;
#X obj 93 205 outlet~;
#X obj 183 67 inlet;
#X obj 122 147 *~;
#X obj 171 93 sel 0 1;
#X msg 162 118 0;
#X msg 176 118 1;
#X connect 0 0 3 0;
#X connect 2 0 4 0;
#X connect 3 0 1 0;
#X connect 4 0 5 0;
#X connect 4 1 6 0;
#X connect 5 0 3 1;
#X connect 6 0 3 1;
#X restore 174 298 pd spigot~;
#X msg 239 274 1;
#X msg 208 274 0;
#N canvas 0 22 458 308 spigot~ 0;
#X obj 78 61 inlet~;
#X obj 93 205 outlet~;
#X obj 183 67 inlet;
#X obj 122 147 *~;
#X obj 171 93 sel 0 1;
#X msg 162 118 0;
#X msg 176 118 1;
#X connect 0 0 3 0;
#X connect 2 0 4 0;
#X connect 3 0 1 0;
#X connect 4 0 5 0;
#X connect 4 1 6 0;
#X connect 5 0 3 1;
#X connect 6 0 3 1;
#X restore 274 298 pd spigot~;
#X msg 339 274 1;
#X msg 308 274 0;
#X obj 377 413 metro 50;
#X obj 377 393 tgl 15 0 empty empty empty 0 -6 0 8 -262144 -1 -1 0
1;
#X obj 380 453 hsl 128 15 -1 1 0 0 empty empty empty -2 -6 0 8 -262144
-1 -1 0 1;
#X obj 377 433 snapshot~;
#X obj 130 17 r \$0-MatrixRowFIVE;
#X obj 27 73 catch~ \$0-square1;
#X obj 23 201 throw~ \$0-rsine1;
#X obj 134 207 throw~ \$0-rsine2;
#X obj 242 203 throw~ \$0-rsawtooth1;
#X obj 341 182 throw~ \$0-rsawtooth2;
#X obj 270 332 throw~ \$0-rsquare2;
#X obj 172 352 throw~ \$0-rsquare1;
#X connect 0 0 13 0;
#X connect 1 0 26 0;
#X connect 2 0 1 1;
#X connect 3 0 1 1;
#X connect 4 0 27 0;
#X connect 5 0 4 1;
#X connect 6 0 4 1;
#X connect 7 0 28 0;
#X connect 8 0 7 1;
#X connect 9 0 7 1;
#X connect 10 0 23 0;
#X connect 10 0 29 0;
#X connect 11 0 10 1;
#X connect 12 0 10 1;
#X connect 13 0 3 0;
#X connect 13 0 6 0;
#X connect 13 0 9 0;
#X connect 13 0 16 0;
#X connect 13 0 19 0;
#X connect 13 0 12 0;
#X connect 13 1 2 0;
#X connect 13 1 6 0;
#X connect 13 1 9 0;
#X connect 13 1 12 0;
#X connect 13 1 16 0;
#X connect 13 1 19 0;
#X connect 13 2 5 0;
#X connect 13 2 3 0;
#X connect 13 2 9 0;
#X connect 13 2 12 0;
#X connect 13 2 16 0;
#X connect 13 2 19 0;
#X connect 13 3 8 0;
#X connect 13 3 3 0;
#X connect 13 3 6 0;
#X connect 13 3 12 0;
#X connect 13 3 16 0;
#X connect 13 3 19 0;
#X connect 13 4 11 0;
#X connect 13 4 9 0;
#X connect 13 4 6 0;
#X connect 13 4 3 0;
#X connect 13 4 16 0;
#X connect 13 4 19 0;
#X connect 13 5 15 0;
#X connect 13 5 3 0;
#X connect 13 5 6 0;
#X connect 13 5 9 0;
#X connect 13 5 12 0;
#X connect 13 5 19 0;
#X connect 13 6 3 0;
#X connect 13 6 6 0;
#X connect 13 6 9 0;
#X connect 13 6 12 0;
#X connect 13 6 16 0;
#X connect 13 6 18 0;
#X connect 14 0 31 0;
#X connect 15 0 14 1;
#X connect 16 0 14 1;
#X connect 17 0 30 0;
#X connect 18 0 17 1;
#X connect 19 0 17 1;
#X connect 20 0 23 0;
#X connect 21 0 20 0;
#X connect 23 0 22 0;
#X connect 24 0 0 0;
#X connect 25 0 4 0;
#X connect 25 0 1 0;
#X connect 25 0 7 0;
#X connect 25 0 10 0;
#X connect 25 0 14 0;
#X connect 25 0 17 0;
#X restore 391 158 pd rowFiv;
#N canvas 0 22 474 324 rowSix 0;
#X floatatom 130 45 5 0 0 0 - - -;
#N canvas 0 22 458 308 spigot~ 0;
#X obj 78 61 inlet~;
#X obj 93 205 outlet~;
#X obj 183 67 inlet;
#X obj 122 147 *~;
#X obj 171 93 sel 0 1;
#X msg 162 118 0;
#X msg 176 118 1;
#X connect 0 0 3 0;
#X connect 2 0 4 0;
#X connect 3 0 1 0;
#X connect 4 0 5 0;
#X connect 4 1 6 0;
#X connect 5 0 3 1;
#X connect 6 0 3 1;
#X restore 24 178 pd spigot~;
#X msg 89 154 1;
#X msg 58 154 0;
#N canvas 0 22 458 308 spigot~ 0;
#X obj 78 61 inlet~;
#X obj 93 205 outlet~;
#X obj 183 67 inlet;
#X obj 122 147 *~;
#X obj 171 93 sel 0 1;
#X msg 162 118 0;
#X msg 176 118 1;
#X connect 0 0 3 0;
#X connect 2 0 4 0;
#X connect 3 0 1 0;
#X connect 4 0 5 0;
#X connect 4 1 6 0;
#X connect 5 0 3 1;
#X connect 6 0 3 1;
#X restore 134 178 pd spigot~;
#X msg 199 154 1;
#X msg 168 154 0;
#N canvas 0 22 458 308 spigot~ 0;
#X obj 78 61 inlet~;
#X obj 93 205 outlet~;
#X obj 183 67 inlet;
#X obj 122 147 *~;
#X obj 171 93 sel 0 1;
#X msg 162 118 0;
#X msg 176 118 1;
#X connect 0 0 3 0;
#X connect 2 0 4 0;
#X connect 3 0 1 0;
#X connect 4 0 5 0;
#X connect 4 1 6 0;
#X connect 5 0 3 1;
#X connect 6 0 3 1;
#X restore 244 148 pd spigot~;
#X msg 309 124 1;
#X msg 278 124 0;
#N canvas 0 22 458 308 spigot~ 0;
#X obj 78 61 inlet~;
#X obj 93 205 outlet~;
#X obj 183 67 inlet;
#X obj 122 147 *~;
#X obj 171 93 sel 0 1;
#X msg 162 118 0;
#X msg 176 118 1;
#X connect 0 0 3 0;
#X connect 2 0 4 0;
#X connect 3 0 1 0;
#X connect 4 0 5 0;
#X connect 4 1 6 0;
#X connect 5 0 3 1;
#X connect 6 0 3 1;
#X restore 344 148 pd spigot~;
#X msg 409 124 1;
#X msg 378 124 0;
#X obj 186 34 sel 0 1 2 3 4 5 6;
#N canvas 0 22 458 308 spigot~ 0;
#X obj 78 61 inlet~;
#X obj 93 205 outlet~;
#X obj 183 67 inlet;
#X obj 122 147 *~;
#X obj 171 93 sel 0 1;
#X msg 162 118 0;
#X msg 176 118 1;
#X connect 0 0 3 0;
#X connect 2 0 4 0;
#X connect 3 0 1 0;
#X connect 4 0 5 0;
#X connect 4 1 6 0;
#X connect 5 0 3 1;
#X connect 6 0 3 1;
#X restore 174 298 pd spigot~;
#X msg 239 274 1;
#X msg 208 274 0;
#N canvas 0 22 458 308 spigot~ 0;
#X obj 78 61 inlet~;
#X obj 93 205 outlet~;
#X obj 183 67 inlet;
#X obj 122 147 *~;
#X obj 171 93 sel 0 1;
#X msg 162 118 0;
#X msg 176 118 1;
#X connect 0 0 3 0;
#X connect 2 0 4 0;
#X connect 3 0 1 0;
#X connect 4 0 5 0;
#X connect 4 1 6 0;
#X connect 5 0 3 1;
#X connect 6 0 3 1;
#X restore 274 298 pd spigot~;
#X msg 339 274 1;
#X msg 308 274 0;
#X obj 130 17 r \$0-MatrixRowSIX;
#X obj 27 73 catch~ \$0-square2;
#X obj 23 201 throw~ \$0-rsine1;
#X obj 134 207 throw~ \$0-rsine2;
#X obj 242 203 throw~ \$0-rsawtooth1;
#X obj 341 182 throw~ \$0-rsawtooth2;
#X obj 172 352 throw~ \$0-rsquare1;
#X obj 271 332 throw~ \$0-rsquare2;
#X connect 0 0 13 0;
#X connect 1 0 22 0;
#X connect 2 0 1 1;
#X connect 3 0 1 1;
#X connect 4 0 23 0;
#X connect 5 0 4 1;
#X connect 6 0 4 1;
#X connect 7 0 24 0;
#X connect 8 0 7 1;
#X connect 9 0 7 1;
#X connect 10 0 25 0;
#X connect 11 0 10 1;
#X connect 12 0 10 1;
#X connect 13 0 3 0;
#X connect 13 0 6 0;
#X connect 13 0 9 0;
#X connect 13 0 16 0;
#X connect 13 0 19 0;
#X connect 13 0 12 0;
#X connect 13 1 2 0;
#X connect 13 1 6 0;
#X connect 13 1 9 0;
#X connect 13 1 12 0;
#X connect 13 1 16 0;
#X connect 13 1 19 0;
#X connect 13 2 5 0;
#X connect 13 2 3 0;
#X connect 13 2 9 0;
#X connect 13 2 12 0;
#X connect 13 2 16 0;
#X connect 13 2 19 0;
#X connect 13 3 8 0;
#X connect 13 3 3 0;
#X connect 13 3 6 0;
#X connect 13 3 12 0;
#X connect 13 3 16 0;
#X connect 13 3 19 0;
#X connect 13 4 11 0;
#X connect 13 4 9 0;
#X connect 13 4 6 0;
#X connect 13 4 3 0;
#X connect 13 4 16 0;
#X connect 13 4 19 0;
#X connect 13 5 15 0;
#X connect 13 5 3 0;
#X connect 13 5 6 0;
#X connect 13 5 9 0;
#X connect 13 5 12 0;
#X connect 13 5 19 0;
#X connect 13 6 3 0;
#X connect 13 6 6 0;
#X connect 13 6 9 0;
#X connect 13 6 12 0;
#X connect 13 6 16 0;
#X connect 13 6 18 0;
#X connect 14 0 26 0;
#X connect 15 0 14 1;
#X connect 16 0 14 1;
#X connect 17 0 27 0;
#X connect 18 0 17 1;
#X connect 19 0 17 1;
#X connect 20 0 0 0;
#X connect 21 0 4 0;
#X connect 21 0 1 0;
#X connect 21 0 7 0;
#X connect 21 0 10 0;
#X connect 21 0 14 0;
#X connect 21 0 17 0;
#X restore 471 158 pd rowSix;
#X connect 15 0 18 0;
#X connect 16 0 15 0;
#X connect 18 0 17 0;
#X coords 0 -1 1 1 210 182 2 0 20;
#X restore 3 100 pd MATRIX Feedback;
#X text 177 84 LFOs;
#X obj 2 2 cnv 15 120 19 empty empty reroute_the_LFO_with 0 12 0 9
-1 -262144 0;
#X connect 10 0 17 0;
#X connect 11 0 18 0;
#X connect 12 0 19 0;
#X connect 13 0 20 0;
#X connect 14 0 21 0;
#X connect 15 0 22 0;
#X coords 0 -1 1 1 220 286 1 0 0;
