#N canvas 179 22 418 759 10;
#X obj 22 20 cnv 15 203 82 empty holdit empty 53 101 0 14 -233017 -66577
0;
#X obj 22 21 vsl 20 96 0 44000 0 0 SampHoldFIRST 2SampHoldFIRST SampleHold
0 -8 0 9 -262144 -1 -1 7700 1;
#X obj 45 33 vsl 20 84 0.0001 0.01 1 0 SampHoldGainFIRST 2SampHoldGainFIRST
Gain 0 -8 0 9 -262144 -1 -1 3800 1;
#X obj 163 21 vsl 20 96 0 64 0 0 AuralSkewFIRST 2AuralSkewFIRST SpectralSkew
-10 -8 0 9 -262144 -1 -1 0 1;
#X obj 187 33 vsl 20 84 0 0.01 0 0 AuralSkewGainFIRST 2AuralSkewGainFIRST
Gain 0 -8 0 9 -262144 -1 -1 4600 1;
#X obj 89 42 tgl 45 0 FXToggleFIRST 2FXToggleFIRST FX_I/O 0 -7 0 14
-262144 -1 -1 1 1;
#X obj 69 98 hradio 18 1 0 5 FFTWindowFIRST FFTWindowFIRST Fourier_Window
3 -5 0 9 -262144 -1 -1 0;
#X text 85 15 resample;
#N canvas 709 46 469 550 process 0;
#X obj 101 62 rfft~;
#X obj 48 102 samphold~;
#X obj 115 134 samphold~;
#X obj 18 261 rifft~;
#X obj 93 260 rifft~;
#X obj 174 86 phasor~ 44090;
#X obj 19 226 z~;
#X obj 55 226 z~;
#X floatatom 150 192 5 0 0 0 - - -;
#X obj 93 225 z~;
#X obj 130 231 z~;
#X obj 62 486 outlet~;
#X obj 287 191 switch~ 4096 1 1;
#X obj 40 364 *~;
#X obj 90 364 *~;
#X obj 173 55 r SampHoldFIRST;
#X obj 57 300 r SampHoldGainFIRST;
#X obj 288 19 r FXToggleFIRST;
#X obj 309 58 sel 0 1 2 3 4;
#X obj 308 38 r FFTWindowFIRST;
#X text 281 209 here is the window sizer;
#X obj 52 19 inlet~;
#X obj 142 486 outlet~;
#N canvas 0 22 486 336 panpot 0;
#X obj 105 47 inlet~;
#X obj 269 46 inlet;
#X obj 90 168 *~;
#X obj 304 166 *~;
#X obj 280 78 / 127;
#X obj 187 134 - 1;
#X obj 186 157 * -1;
#X obj 133 250 outlet~;
#X obj 276 254 outlet~;
#X obj 182 26 loadbang;
#X msg 182 47 0.5;
#X obj 362 147 s panrecTHIRD;
#X msg 358 118 63;
#X connect 0 0 3 0;
#X connect 0 0 2 0;
#X connect 1 0 4 0;
#X connect 2 0 8 0;
#X connect 3 0 7 0;
#X connect 4 0 3 1;
#X connect 4 0 5 0;
#X connect 5 0 6 0;
#X connect 6 0 2 1;
#X connect 9 0 10 0;
#X connect 10 0 2 1;
#X connect 10 0 3 1;
#X connect 12 0 11 0;
#X restore 113 452 pd panpot;
#N canvas 490 140 584 490 LFOPANTHIRD 0;
#X obj 63 224 osc~;
#X obj 278 160 tgl 15 0 empty empty empty 0 -6 0 8 -262144 -1 -1 1
1;
#X floatatom 67 170 5 0 0 0 - - -;
#N canvas 0 22 458 308 tempo2ms 0;
#X obj 280 135 inlet;
#X text 322 136 BPM;
#X obj 264 302 /;
#X msg 231 265 1;
#X obj 231 238 del 20;
#X obj 280 194 / 60000;
#X obj 264 334 outlet;
#X connect 0 0 5 0;
#X connect 2 0 6 0;
#X connect 3 0 2 0;
#X connect 4 0 3 0;
#X connect 5 0 2 1;
#X connect 5 0 4 0;
#X restore 336 131 pd tempo2ms;
#X text 106 170 Fundamental Frequency;
#X msg 206 136 0;
#X msg 242 128 1;
#X obj 257 202 snapshot~;
#X text 216 6 LFO;
#X obj 212 76 sel 0 1;
#X obj 251 104 bng 15 250 50 0 empty empty empty 0 -6 0 8 -262144 -1
-1;
#X obj 12 245 s~ lfo;
#X obj 137 370 outlet~;
#X obj 172 313 outlet;
#X text 251 332 this patch is messy as hell;
#X text 255 347 someday it will be clean;
#X obj 278 179 metro 5;
#X obj 285 269 * 1;
#X obj 124 136 *;
#X floatatom 9 206 5 0 0 0 - - -;
#X obj 28 50 r LFOPanFreqTHIRD;
#X text 207 30 1=on \, 0=off;
#X text 44 32 freq;
#X obj 193 46 r THIRDPanLFOIO;
#X obj 316 249 r LFOPanRangeTHIRD;
#X connect 0 0 7 0;
#X connect 0 0 12 0;
#X connect 1 0 16 0;
#X connect 2 0 0 0;
#X connect 5 0 1 0;
#X connect 6 0 1 0;
#X connect 7 0 17 0;
#X connect 9 0 5 0;
#X connect 9 1 10 0;
#X connect 9 2 10 0;
#X connect 10 0 6 0;
#X connect 16 0 7 0;
#X connect 17 0 13 0;
#X connect 18 0 2 0;
#X connect 20 0 18 1;
#X connect 20 0 18 0;
#X connect 23 0 9 0;
#X connect 24 0 17 1;
#X restore 151 352 pd LFOPANTHIRD;
#X obj 226 415 +;
#X obj 290 347 r pansetTHIRD;
#X obj 248 386 t f b;
#X obj 150 170 r AuralSkewFIRST;
#X obj 108 324 r AuralSkewGainFIRST;
#X obj 324 432 * 2;
#X floatatom 324 410 5 0 0 0 - - -;
#X floatatom 324 474 5 0 0 0 - - -;
#X msg 310 82 set 8192 1 1;
#X msg 324 101 set 4096 1 1;
#X msg 342 121 set 2048 1 1;
#X msg 360 140 set 1024 1 1;
#X msg 376 160 set 512 1 1;
#X connect 0 0 9 0;
#X connect 0 1 2 0;
#X connect 0 1 10 0;
#X connect 1 0 6 0;
#X connect 2 0 7 0;
#X connect 3 0 13 0;
#X connect 4 0 14 0;
#X connect 5 0 2 1;
#X connect 5 0 1 1;
#X connect 6 0 3 0;
#X connect 7 0 3 1;
#X connect 8 0 7 1;
#X connect 8 0 6 1;
#X connect 8 0 10 1;
#X connect 8 0 9 1;
#X connect 9 0 4 0;
#X connect 10 0 4 1;
#X connect 13 0 23 0;
#X connect 14 0 23 0;
#X connect 15 0 5 0;
#X connect 16 0 13 1;
#X connect 17 0 12 0;
#X connect 18 0 33 0;
#X connect 18 1 34 0;
#X connect 18 2 35 0;
#X connect 18 3 36 0;
#X connect 18 4 37 0;
#X connect 19 0 18 0;
#X connect 21 0 0 0;
#X connect 21 0 1 0;
#X connect 23 0 11 0;
#X connect 23 1 22 0;
#X connect 24 1 25 0;
#X connect 25 0 23 1;
#X connect 26 0 27 0;
#X connect 27 0 25 1;
#X connect 27 1 25 0;
#X connect 28 0 8 0;
#X connect 29 0 14 1;
#X connect 30 0 32 0;
#X connect 31 0 30 0;
#X connect 33 0 12 0;
#X connect 34 0 12 0;
#X connect 35 0 12 0;
#X connect 36 0 12 0;
#X connect 37 0 12 0;
#X restore 44 596 pd process;
#X obj 44 629 dac~;
#X obj 441 444 tansinlfo goy;
#X text 244 12 lewis ros;
#X text 247 21 718 873 6730;
#X obj 487 122 tansinlfo gre;
#X obj 22 150 vsl 15 128 0.01 0.6 1 0 goy-FreqLFOLFO \$1-2FreqLFOLFO
frequency 0 -8 0 8 -262144 -1 -1 9200 1;
#X obj 44 160 vsl 15 118 0 6.282 0 0 goy-PhaseLFOLFO \$1-2PhaseLFOLFO
phase 0 -8 0 8 -262144 -1 -1 0 1;
#X obj 67 170 vsl 15 108 0.06282 22000 0 0 goy-RangeLFOLFO \$1-2RangeLFOLFO
Range 0 -8 0 8 -262144 -1 -1 0 1;
#X obj 146 150 vsl 15 128 0.01 0.6 1 0 gre-FreqLFOLFO \$1-2FreqLFOLFO
frequency 0 -8 0 8 -262144 -1 -1 7300 1;
#X obj 168 160 vsl 15 118 0 6.282 0 0 gre-PhaseLFOLFO \$1-2PhaseLFOLFO
phase 0 -8 0 8 -262144 -1 -1 0 1;
#X obj 191 170 vsl 15 108 0.06282 64 1 0 gre-RangeLFOLFO \$1-2RangeLFOLFO
Range 0 -8 0 8 -262144 -1 -1 0 1;
#X obj 512 310 spigot 0;
#X obj 451 310 spigot 0;
#X obj 552 350 spigot 0;
#X obj 491 350 spigot 0;
#X obj 592 380 spigot 0;
#X obj 531 380 spigot 0;
#X obj 383 238 route 0 1 2 3 4 5;
#X obj 200 312 vradio 15 1 0 3 LFOSquared empty empty 0 -6 0 8 -262144
-1 -1 0;
#X text 217 325 sin;
#X text 217 341 tan;
#X text 217 310 non;
#X obj 352 36 r LFOSquared;
#X obj 352 56 sel 0 1 2;
#X msg 352 95 0 0;
#X msg 382 95 1 0;
#X msg 412 95 0 1;
#X msg 442 95 1 1;
#X obj 35 302 vradio 15 1 0 3 LFOSquaredSignal empty empty 0 -6 0 8
-262144 -1 -1 0;
#X text 52 331 tan;
#X text 52 300 non;
#X obj 289 330 sel 0 1 2;
#X obj 289 310 r LFOSquaredSignal;
#X obj 335 583 s 2SampHoldFIRST;
#X obj 605 254 s 2AuralSkewFIRST;
#X obj 402 480 spigot 0;
#X obj 341 480 spigot 0;
#X msg 319 369 0;
#X msg 289 369 0;
#X msg 377 369 1;
#X msg 349 369 1;
#X text 52 315 sin;
#X text 23 284 LFO Send;
#X text 199 297 XOVER;
#X obj 135 292 vradio 15 1 0 4 LFOSkewSignal empty empty 0 -6 0 8 -262144
-1 -1 1;
#X text 152 321 tan;
#X text 152 290 non;
#X text 152 305 sin;
#X text 152 335 xover;
#X text 468 195 should I rethink;
#X text 577 204 this?;
#X obj 365 545 + 0;
#X obj 460 523 r PlusFactor;
#X obj 90 222 vsl 15 56 0 44100 0 0 PlusFactor empty MeanValue 0 -8
0 8 -262144 -1 -1 0 1;
#X text 126 602 perhaps make the sin/tan;
#X text 285 627 multiple outlets;
#X text 143 617 decision a function call rather than;
#X obj 37 379 cnv 15 192 82 fast clov PAN 6 62 0 34 -233017 -66577
0;
#X obj 114 429 tgl 30 0 THIRDPanLFOIO 2THIRDPanLFOIO empty 0 -6 0 8
-262144 -1 -1 1 1;
#X obj 148 383 vsl 35 75 0 2 0 0 LFOPanFreqTHIRD 2LFOPanFreqTHIRD empty
0 -8 0 8 -262144 -1 -1 5100 1;
#X obj 188 384 vsl 35 75 0 50 0 0 LFOPanRangeTHIRD 2LFOPanRangeTHIRD
empty 0 -8 0 8 -262144 -1 -1 7400 1;
#X text 152 459 Freq;
#X text 188 459 Range;
#X obj 50 381 hsl 90 34 0 127 0 0 pansetTHIRD 2pansetTHIRD empty -2
-6 0 8 -262144 -1 -1 4000 1;
#X text 117 460 LFO;
#X obj 619 90 sel 0 1 2;
#X obj 672 160 spigot 0;
#X obj 611 160 spigot 0;
#X msg 649 129 0;
#X msg 619 129 0;
#X msg 707 129 1;
#X msg 679 129 1;
#X obj 635 225 + 0;
#X obj 619 70 r LFOSkewSignal;
#X obj 660 193 r PlusFactorSkew;
#X obj 214 222 vsl 15 56 0 64 0 0 PlusFactorSkew empty MeanValue 0
-8 0 8 -262144 -1 -1 0 1;
#X floatatom 566 79 5 0 0 0 - - -;
#X obj 44 564 adc~ 1 4;
#X connect 8 0 9 0;
#X connect 8 1 9 1;
#X connect 10 0 45 0;
#X connect 10 1 44 0;
#X connect 13 0 21 0;
#X connect 13 0 23 0;
#X connect 13 0 25 0;
#X connect 13 0 76 0;
#X connect 13 0 85 0;
#X connect 13 1 20 0;
#X connect 13 1 22 0;
#X connect 13 1 24 0;
#X connect 13 1 75 0;
#X connect 20 0 10 0;
#X connect 21 0 10 0;
#X connect 22 0 10 1;
#X connect 23 0 10 1;
#X connect 24 0 10 2;
#X connect 25 0 10 2;
#X connect 26 0 21 1;
#X connect 26 1 20 1;
#X connect 26 2 23 1;
#X connect 26 3 22 1;
#X connect 26 4 25 1;
#X connect 26 5 24 1;
#X connect 31 0 32 0;
#X connect 32 0 33 0;
#X connect 32 0 34 0;
#X connect 32 1 35 0;
#X connect 32 1 34 0;
#X connect 32 2 36 0;
#X connect 32 2 33 0;
#X connect 33 0 26 0;
#X connect 34 0 26 0;
#X connect 35 0 26 0;
#X connect 36 0 26 0;
#X connect 40 0 47 0;
#X connect 40 0 46 0;
#X connect 40 1 49 0;
#X connect 40 1 46 0;
#X connect 40 2 48 0;
#X connect 40 2 47 0;
#X connect 41 0 40 0;
#X connect 44 0 60 0;
#X connect 45 0 60 0;
#X connect 46 0 44 1;
#X connect 47 0 45 1;
#X connect 48 0 44 1;
#X connect 49 0 45 1;
#X connect 60 0 42 0;
#X connect 61 0 60 1;
#X connect 74 0 78 0;
#X connect 74 0 77 0;
#X connect 74 1 80 0;
#X connect 74 1 77 0;
#X connect 74 2 79 0;
#X connect 74 2 78 0;
#X connect 75 0 81 0;
#X connect 76 0 81 0;
#X connect 77 0 75 1;
#X connect 78 0 76 1;
#X connect 79 0 75 1;
#X connect 80 0 76 1;
#X connect 81 0 43 0;
#X connect 82 0 74 0;
#X connect 83 0 81 1;
#X connect 86 0 8 0;
#X connect 86 1 8 0;
