#N canvas 163 145 1000 694 10;
#N canvas 288 172 459 456 pulser 0;
#N canvas 0 22 523 620 overtonepatch 0;
#X obj 96 454 outlet~;
#N canvas 0 22 478 328 overtone 0;
#X obj 127 121 osc~;
#X obj 146 156 *~ 0;
#X floatatom 182 126 5 0 0 0 - - -;
#X obj 32 31 inlet;
#X obj 147 181 outlet~;
#X obj 182 64 inlet;
#X obj 182 102 route 0;
#X obj 127 92 * 1;
#X text 74 30 represents the overtone;
#X text 223 64 reps the presence;
#X connect 0 0 1 0;
#X connect 1 0 4 0;
#X connect 2 0 1 1;
#X connect 3 0 7 0;
#X connect 5 0 6 0;
#X connect 6 0 2 0;
#X connect 7 0 0 0;
#X restore 221 219 pd overtone;
#N canvas 0 22 470 320 overtone 0;
#X obj 268 256 osc~;
#X obj 287 291 *~ 0;
#X floatatom 323 261 5 0 0 0 - - -;
#X obj 173 166 inlet;
#X obj 288 316 outlet~;
#X obj 323 199 inlet;
#X text 215 165 represents the overtone;
#X text 364 199 reps the presence;
#X obj 268 227 * 2;
#X obj 323 237 route 1;
#X connect 0 0 1 0;
#X connect 1 0 4 0;
#X connect 2 0 1 1;
#X connect 3 0 8 0;
#X connect 5 0 9 0;
#X connect 8 0 0 0;
#X connect 9 0 2 0;
#X restore 232 243 pd overtone;
#N canvas 0 22 474 324 overtone 0;
#X obj 268 256 osc~;
#X obj 287 291 *~ 0;
#X floatatom 323 261 5 0 0 0 - - -;
#X obj 173 166 inlet;
#X obj 288 316 outlet~;
#X obj 323 199 inlet;
#X text 215 165 represents the overtone;
#X text 364 199 reps the presence;
#X obj 268 227 * 3;
#X obj 323 237 route 2;
#X connect 0 0 1 0;
#X connect 1 0 4 0;
#X connect 2 0 1 1;
#X connect 3 0 8 0;
#X connect 5 0 9 0;
#X connect 8 0 0 0;
#X connect 9 0 2 0;
#X restore 244 266 pd overtone;
#N canvas 0 22 474 324 overtone 0;
#X obj 268 256 osc~;
#X obj 287 291 *~ 0;
#X floatatom 323 261 5 0 0 0 - - -;
#X obj 173 166 inlet;
#X obj 288 316 outlet~;
#X obj 323 199 inlet;
#X text 215 165 represents the overtone;
#X text 364 199 reps the presence;
#X obj 268 227 * 4;
#X obj 323 237 route 3;
#X connect 0 0 1 0;
#X connect 1 0 4 0;
#X connect 2 0 1 1;
#X connect 3 0 8 0;
#X connect 5 0 9 0;
#X connect 8 0 0 0;
#X connect 9 0 2 0;
#X restore 254 290 pd overtone;
#N canvas 0 22 470 320 overtone 0;
#X obj 268 256 osc~;
#X obj 287 291 *~ 0;
#X floatatom 323 261 5 0 0 0 - - -;
#X obj 173 166 inlet;
#X obj 288 316 outlet~;
#X obj 323 199 inlet;
#X text 215 165 represents the overtone;
#X text 364 199 reps the presence;
#X obj 268 227 * 5;
#X obj 323 237 route 4;
#X connect 0 0 1 0;
#X connect 1 0 4 0;
#X connect 2 0 1 1;
#X connect 3 0 8 0;
#X connect 5 0 9 0;
#X connect 8 0 0 0;
#X connect 9 0 2 0;
#X restore 263 314 pd overtone;
#N canvas 0 22 478 328 overtone 0;
#X obj 268 256 osc~;
#X obj 287 291 *~ 0;
#X floatatom 323 261 5 0 0 0 - - -;
#X obj 173 166 inlet;
#X obj 288 316 outlet~;
#X obj 323 199 inlet;
#X text 215 165 represents the overtone;
#X text 364 199 reps the presence;
#X obj 268 227 * 6;
#X obj 323 237 route 5;
#X connect 0 0 1 0;
#X connect 1 0 4 0;
#X connect 2 0 1 1;
#X connect 3 0 8 0;
#X connect 5 0 9 0;
#X connect 8 0 0 0;
#X connect 9 0 2 0;
#X restore 273 337 pd overtone;
#N canvas 0 22 474 324 overtone 0;
#X obj 268 256 osc~;
#X obj 287 291 *~ 0;
#X floatatom 323 261 5 0 0 0 - - -;
#X obj 173 166 inlet;
#X obj 288 316 outlet~;
#X obj 323 199 inlet;
#X text 215 165 represents the overtone;
#X text 364 199 reps the presence;
#X obj 268 227 * 7;
#X obj 323 237 route 6;
#X connect 0 0 1 0;
#X connect 1 0 4 0;
#X connect 2 0 1 1;
#X connect 3 0 8 0;
#X connect 5 0 9 0;
#X connect 8 0 0 0;
#X connect 9 0 2 0;
#X restore 287 361 pd overtone;
#N canvas 0 22 478 328 overtone 0;
#X obj 268 256 osc~;
#X obj 287 291 *~ 0;
#X floatatom 323 261 5 0 0 0 - - -;
#X obj 173 166 inlet;
#X obj 288 316 outlet~;
#X obj 323 199 inlet;
#X text 215 165 represents the overtone;
#X text 364 199 reps the presence;
#X obj 268 227 * 8;
#X obj 322 237 route 7;
#X connect 0 0 1 0;
#X connect 1 0 4 0;
#X connect 2 0 1 1;
#X connect 3 0 8 0;
#X connect 5 0 9 0;
#X connect 8 0 0 0;
#X connect 9 0 2 0;
#X restore 296 388 pd overtone;
#X obj 361 73 tabread oscilator1;
#X obj 338 118 pack;
#X obj 36 104 inlet;
#X text 18 85 pitch of the fundamental;
#X obj 361 97 / 127;
#N canvas 0 22 454 304 countto7 0;
#X floatatom 250 207 5 0 0 0 - - -;
#X obj 248 178 int;
#X obj 320 177 + 1;
#X msg 120 108 0;
#X obj 209 132 bng 15 250 50 0 empty empty empty 0 -6 0 8 -262144 -1
-1;
#X obj 121 80 sel 7;
#X obj 238 256 outlet;
#X obj 229 68 inlet;
#X obj 121 53 pipe 15;
#X text 224 51 recieve any input;
#X text 150 276 counts from 0 to (whatever sel has);
#X connect 0 0 6 0;
#X connect 0 0 8 0;
#X connect 1 0 2 0;
#X connect 1 0 0 0;
#X connect 2 0 1 1;
#X connect 3 0 1 1;
#X connect 4 0 1 0;
#X connect 5 0 3 0;
#X connect 5 1 4 0;
#X connect 7 0 4 0;
#X connect 8 0 5 0;
#X restore 361 42 pd countto7;
#X obj 368 170 print;
#X obj 361 17 r SetWavShape;
#X connect 1 0 0 0;
#X connect 2 0 0 0;
#X connect 3 0 0 0;
#X connect 4 0 0 0;
#X connect 5 0 0 0;
#X connect 6 0 0 0;
#X connect 7 0 0 0;
#X connect 8 0 0 0;
#X connect 9 0 13 0;
#X connect 10 0 1 1;
#X connect 10 0 2 1;
#X connect 10 0 3 1;
#X connect 10 0 4 1;
#X connect 10 0 5 1;
#X connect 10 0 6 1;
#X connect 10 0 7 1;
#X connect 10 0 8 1;
#X connect 10 0 15 0;
#X connect 11 0 1 0;
#X connect 11 0 2 0;
#X connect 11 0 3 0;
#X connect 11 0 4 0;
#X connect 11 0 5 0;
#X connect 11 0 6 0;
#X connect 11 0 7 0;
#X connect 11 0 8 0;
#X connect 13 0 10 1;
#X connect 14 0 9 0;
#X connect 14 0 10 0;
#X connect 16 0 14 0;
#X restore 13 245 pd overtonepatch;
#N canvas 0 22 454 304 graph21 0;
#X array oscilator1 100 float 3;
#A 0 50 0 25 0 12.5 0 6.25 0 3.125 0 0 0 0 0 0 0 0 0 0 0 0 0 0 0 0
0 0 0 0 0 0 0 0 0 0 0 0 0 0 0 0 0 0 0 0 0 0 0 0 0 0 0 0 0 0 0 0 0 0
0 0 0 0 0 0 0 0 0 0 0 0 0 0 0 0 0 0 0 0 0 0 0 0 0 0 0 0 0 0 0 0 0 0
0 0 0 0 0 0 0;
#X coords 0 127 8 0 168 100 1;
#X restore 280 343 graph;
#X obj 104 318 *~ 0;
#N canvas 0 22 594 438 EnvelopeGen 0;
#X floatatom 162 252 5 0 0 0 - - -;
#X floatatom 201 178 5 0 0 0 - - -;
#X floatatom 219 282 5 0 0 0 - - -;
#X floatatom 271 254 5 0 0 0 - - -;
#X text 230 105 Attack Time;
#X text 373 123 Decay Value;
#X text 399 164 decay Time;
#X text 150 85 Attack Value;
#X obj 101 140 bng 15 250 50 0 empty empty empty 0 -6 0 8 -262144 -1
-1;
#X floatatom 274 191 5 0 0 0 - - -;
#X text 326 78 Sustain Time;
#X obj 100 114 inlet;
#X obj 163 98 inlet;
#X obj 228 121 inlet;
#X obj 328 94 inlet;
#X obj 274 174 +;
#X obj 401 181 inlet;
#X obj 374 142 inlet;
#X obj 205 268 bng 15 250 50 0 empty empty empty 0 -6 0 8 -262144 -1
-1;
#X obj 145 238 bng 15 250 50 0 empty empty empty 0 -6 0 8 -262144 -1
-1;
#X obj 221 371 outlet;
#X obj 220 350 / 127;
#X obj 102 203 del 50;
#X obj 220 328 line 0 2;
#X connect 0 0 23 0;
#X connect 1 0 19 0;
#X connect 1 0 23 1;
#X connect 2 0 23 0;
#X connect 3 0 18 0;
#X connect 3 0 23 1;
#X connect 8 0 1 0;
#X connect 8 0 22 0;
#X connect 9 0 22 1;
#X connect 11 0 8 0;
#X connect 12 0 0 0;
#X connect 13 0 1 0;
#X connect 13 0 15 1;
#X connect 14 0 15 0;
#X connect 15 0 9 0;
#X connect 16 0 3 0;
#X connect 17 0 2 0;
#X connect 18 0 2 0;
#X connect 19 0 0 0;
#X connect 21 0 20 0;
#X connect 22 0 3 0;
#X connect 23 0 21 0;
#X restore 224 216 pd EnvelopeGen;
#X obj 224 152 bng 15 250 50 0 empty empty empty 0 -6 0 8 -262144 -1
-1;
#X floatatom 242 108 5 0 0 0 - - -;
#X floatatom 261 128 5 0 0 0 - - -;
#X floatatom 279 148 5 0 0 0 - - -;
#X floatatom 317 192 5 0 0 0 - - -;
#X floatatom 298 172 5 0 0 0 - - -;
#X obj 224 69 tgl 15 0 empty empty empty 0 -6 0 8 -262144 -1 -1 0 1
;
#X obj 224 87 metro 600;
#X floatatom 282 66 5 0 0 0 - - -;
#X floatatom 13 68 5 0 0 0 - - -;
#N canvas 173 60 809 606 WavShape 0;
#X obj 300 413 tabwrite oscilator1;
#X obj 241 153 sel 0 1 2 3 4;
#X msg 223 272 50 0 \, 25 1 \, 0 2 \, 12.5 3 \, 0 4 \, 6.25 5 \, 0
6 \, 3.125 7 \, 0 8;
#X msg 283 307 50 0 \, 0 1 \, 25 2 \, 0 3 \, 12.5 4 \, 0 5 \, 6.25
6 \, 0 7 \, 3.125 8;
#X obj 563 129 vradio 15 1 0 4 empty empty empty 0 -6 0 8 -262144 -1
-1 0;
#X floatatom 563 198 5 0 0 0 - - -;
#X text 582 129 sin;
#X text 583 144 square;
#X text 582 176 sawtooth;
#X text 582 161 clarinet;
#X msg 317 343 40 0 \, 20 1 \, 10 2 \, 5 3 \, 2.5 4 \, 1.25 5 \, 0.625
6 \, 0.3125 7 \, 0.15625 8;
#X obj 241 127 inlet;
#X obj 139 380 s SetWavShape;
#X obj 116 261 del 15;
#X msg 159 245 90 0 \, 0 1 \, 0 2 \, 0 3 \, 0 4 \, 0 5 \, 0 6 \, 0
7 \, 0 8;
#X connect 1 0 14 0;
#X connect 1 1 2 0;
#X connect 1 2 3 0;
#X connect 1 3 10 0;
#X connect 2 0 0 0;
#X connect 3 0 0 0;
#X connect 4 0 5 0;
#X connect 10 0 0 0;
#X connect 11 0 1 0;
#X connect 11 0 13 0;
#X connect 13 0 12 0;
#X connect 14 0 0 0;
#X restore 281 314 pd WavShape;
#X obj 281 246 vradio 15 1 0 4 empty empty empty 0 -6 0 8 -262144 -1
-1 2;
#X text 300 246 sin;
#X text 301 261 square;
#X text 300 293 sawtooth;
#X text 300 278 clarinet;
#X text 301 127 Attack Time;
#X text 338 170 Decay Value;
#X text 359 191 decay Time;
#X text 281 105 Attack Value;
#X text 320 147 Sustain Time;
#N canvas 0 22 454 304 tempo2ms 0;
#X obj 280 135 inlet;
#X text 322 136 BPM;
#X obj 264 302 /;
#X msg 231 265 1;
#X obj 231 238 del 20;
#X obj 280 194 / 60000;
#X obj 264 334 outlet;
#X connect 0 0 5 0;
#X connect 2 0 6 0;
#X connect 3 0 2 0;
#X connect 4 0 3 0;
#X connect 5 0 2 1;
#X connect 5 0 4 0;
#X restore 282 40 pd tempo2ms;
#X floatatom 282 19 5 0 0 0 - - -;
#X text 324 19 BPM;
#X text 52 68 Fundamental Frequency;
#X obj 101 413 outlet~;
#X obj 13 48 inlet;
#X connect 0 0 2 0;
#X connect 2 0 29 0;
#X connect 3 0 2 1;
#X connect 4 0 3 0;
#X connect 5 0 3 1;
#X connect 6 0 3 2;
#X connect 7 0 3 3;
#X connect 8 0 3 5;
#X connect 9 0 3 4;
#X connect 10 0 11 0;
#X connect 11 0 4 0;
#X connect 12 0 11 1;
#X connect 13 0 0 0;
#X connect 15 0 14 0;
#X connect 25 0 12 0;
#X connect 26 0 25 0;
#X connect 30 0 13 0;
#X restore 332 236 pd pulser;
#X obj 397 369 dac~;
#N canvas 288 172 488 485 pulser 0;
#N canvas 0 22 523 620 overtonepatch 0;
#X obj 96 454 outlet~;
#N canvas 0 22 478 328 overtone 0;
#X obj 127 121 osc~;
#X obj 146 156 *~ 0;
#X floatatom 182 126 5 0 0 0 - - -;
#X obj 32 31 inlet;
#X obj 147 181 outlet~;
#X obj 182 64 inlet;
#X obj 182 102 route 0;
#X obj 127 92 * 1;
#X text 74 30 represents the overtone;
#X text 223 64 reps the presence;
#X connect 0 0 1 0;
#X connect 1 0 4 0;
#X connect 2 0 1 1;
#X connect 3 0 7 0;
#X connect 5 0 6 0;
#X connect 6 0 2 0;
#X connect 7 0 0 0;
#X restore 221 219 pd overtone;
#N canvas 0 22 470 320 overtone 0;
#X obj 268 256 osc~;
#X obj 287 291 *~ 0;
#X floatatom 323 261 5 0 0 0 - - -;
#X obj 173 166 inlet;
#X obj 288 316 outlet~;
#X obj 323 199 inlet;
#X text 215 165 represents the overtone;
#X text 364 199 reps the presence;
#X obj 268 227 * 2;
#X obj 323 237 route 1;
#X connect 0 0 1 0;
#X connect 1 0 4 0;
#X connect 2 0 1 1;
#X connect 3 0 8 0;
#X connect 5 0 9 0;
#X connect 8 0 0 0;
#X connect 9 0 2 0;
#X restore 232 243 pd overtone;
#N canvas 0 22 474 324 overtone 0;
#X obj 268 256 osc~;
#X obj 287 291 *~ 0;
#X floatatom 323 261 5 0 0 0 - - -;
#X obj 173 166 inlet;
#X obj 288 316 outlet~;
#X obj 323 199 inlet;
#X text 215 165 represents the overtone;
#X text 364 199 reps the presence;
#X obj 268 227 * 3;
#X obj 323 237 route 2;
#X connect 0 0 1 0;
#X connect 1 0 4 0;
#X connect 2 0 1 1;
#X connect 3 0 8 0;
#X connect 5 0 9 0;
#X connect 8 0 0 0;
#X connect 9 0 2 0;
#X restore 244 266 pd overtone;
#N canvas 0 22 474 324 overtone 0;
#X obj 268 256 osc~;
#X obj 287 291 *~ 0;
#X floatatom 323 261 5 0 0 0 - - -;
#X obj 173 166 inlet;
#X obj 288 316 outlet~;
#X obj 323 199 inlet;
#X text 215 165 represents the overtone;
#X text 364 199 reps the presence;
#X obj 268 227 * 4;
#X obj 323 237 route 3;
#X connect 0 0 1 0;
#X connect 1 0 4 0;
#X connect 2 0 1 1;
#X connect 3 0 8 0;
#X connect 5 0 9 0;
#X connect 8 0 0 0;
#X connect 9 0 2 0;
#X restore 254 290 pd overtone;
#N canvas 0 22 470 320 overtone 0;
#X obj 268 256 osc~;
#X obj 287 291 *~ 0;
#X floatatom 323 261 5 0 0 0 - - -;
#X obj 173 166 inlet;
#X obj 288 316 outlet~;
#X obj 323 199 inlet;
#X text 215 165 represents the overtone;
#X text 364 199 reps the presence;
#X obj 268 227 * 5;
#X obj 323 237 route 4;
#X connect 0 0 1 0;
#X connect 1 0 4 0;
#X connect 2 0 1 1;
#X connect 3 0 8 0;
#X connect 5 0 9 0;
#X connect 8 0 0 0;
#X connect 9 0 2 0;
#X restore 263 314 pd overtone;
#N canvas 0 22 478 328 overtone 0;
#X obj 268 256 osc~;
#X obj 287 291 *~ 0;
#X floatatom 323 261 5 0 0 0 - - -;
#X obj 173 166 inlet;
#X obj 288 316 outlet~;
#X obj 323 199 inlet;
#X text 215 165 represents the overtone;
#X text 364 199 reps the presence;
#X obj 268 227 * 6;
#X obj 323 237 route 5;
#X connect 0 0 1 0;
#X connect 1 0 4 0;
#X connect 2 0 1 1;
#X connect 3 0 8 0;
#X connect 5 0 9 0;
#X connect 8 0 0 0;
#X connect 9 0 2 0;
#X restore 273 337 pd overtone;
#N canvas 0 22 474 324 overtone 0;
#X obj 268 256 osc~;
#X obj 287 291 *~ 0;
#X floatatom 323 261 5 0 0 0 - - -;
#X obj 173 166 inlet;
#X obj 288 316 outlet~;
#X obj 323 199 inlet;
#X text 215 165 represents the overtone;
#X text 364 199 reps the presence;
#X obj 268 227 * 7;
#X obj 323 237 route 6;
#X connect 0 0 1 0;
#X connect 1 0 4 0;
#X connect 2 0 1 1;
#X connect 3 0 8 0;
#X connect 5 0 9 0;
#X connect 8 0 0 0;
#X connect 9 0 2 0;
#X restore 287 361 pd overtone;
#N canvas 0 22 478 328 overtone 0;
#X obj 268 256 osc~;
#X obj 287 291 *~ 0;
#X floatatom 323 261 5 0 0 0 - - -;
#X obj 173 166 inlet;
#X obj 288 316 outlet~;
#X obj 323 199 inlet;
#X text 215 165 represents the overtone;
#X text 364 199 reps the presence;
#X obj 268 227 * 8;
#X obj 322 237 route 7;
#X connect 0 0 1 0;
#X connect 1 0 4 0;
#X connect 2 0 1 1;
#X connect 3 0 8 0;
#X connect 5 0 9 0;
#X connect 8 0 0 0;
#X connect 9 0 2 0;
#X restore 296 388 pd overtone;
#X obj 338 118 pack;
#X obj 36 104 inlet;
#X text 18 85 pitch of the fundamental;
#X obj 361 97 / 127;
#N canvas 0 22 454 304 countto7 0;
#X floatatom 250 207 5 0 0 0 - - -;
#X obj 248 178 int;
#X obj 320 177 + 1;
#X msg 120 108 0;
#X obj 209 132 bng 15 250 50 0 empty empty empty 0 -6 0 8 -262144 -1
-1;
#X obj 121 80 sel 7;
#X obj 238 256 outlet;
#X obj 229 68 inlet;
#X obj 121 53 pipe 15;
#X text 224 51 recieve any input;
#X text 150 276 counts from 0 to (whatever sel has);
#X connect 0 0 6 0;
#X connect 0 0 8 0;
#X connect 1 0 2 0;
#X connect 1 0 0 0;
#X connect 2 0 1 1;
#X connect 3 0 1 1;
#X connect 4 0 1 0;
#X connect 5 0 3 0;
#X connect 5 1 4 0;
#X connect 7 0 4 0;
#X connect 8 0 5 0;
#X restore 361 42 pd countto7;
#X obj 368 170 print;
#X obj 361 17 r SetWavShape;
#X obj 361 73 tabread oscilator2;
#X connect 1 0 0 0;
#X connect 2 0 0 0;
#X connect 3 0 0 0;
#X connect 4 0 0 0;
#X connect 5 0 0 0;
#X connect 6 0 0 0;
#X connect 7 0 0 0;
#X connect 8 0 0 0;
#X connect 9 0 1 1;
#X connect 9 0 2 1;
#X connect 9 0 3 1;
#X connect 9 0 4 1;
#X connect 9 0 5 1;
#X connect 9 0 6 1;
#X connect 9 0 7 1;
#X connect 9 0 8 1;
#X connect 9 0 14 0;
#X connect 10 0 1 0;
#X connect 10 0 2 0;
#X connect 10 0 3 0;
#X connect 10 0 4 0;
#X connect 10 0 5 0;
#X connect 10 0 6 0;
#X connect 10 0 7 0;
#X connect 10 0 8 0;
#X connect 12 0 9 1;
#X connect 13 0 9 0;
#X connect 13 0 16 0;
#X connect 15 0 13 0;
#X connect 16 0 12 0;
#X restore 13 245 pd overtonepatch;
#N canvas 0 22 454 304 graph21 0;
#X array oscilator2 100 float 3;
#A 0 90 0 0 0 0 0 0 0 0 0 0 0 0 0 0 0 0 0 0 0 0 0 0 0 0 0 0 0 0 0 0
0 0 0 0 0 0 0 0 0 0 0 0 0 0 0 0 0 0 0 0 0 0 0 0 0 0 0 0 0 0 0 0 0 0
0 0 0 0 0 0 0 0 0 0 0 0 0 0 0 0 0 0 0 0 0 0 0 0 0 0 0 0 0 0 0 0 0 0
0;
#X coords 0 127 8 0 168 100 1;
#X restore 280 343 graph;
#X obj 104 318 *~ 0;
#N canvas 0 22 598 442 EnvelopeGen 0;
#X floatatom 162 252 5 0 0 0 - - -;
#X floatatom 201 178 5 0 0 0 - - -;
#X floatatom 219 282 5 0 0 0 - - -;
#X floatatom 271 254 5 0 0 0 - - -;
#X text 230 105 Attack Time;
#X text 373 123 Decay Value;
#X text 399 164 decay Time;
#X text 150 85 Attack Value;
#X obj 101 140 bng 15 250 50 0 empty empty empty 0 -6 0 8 -262144 -1
-1;
#X floatatom 274 191 5 0 0 0 - - -;
#X text 326 78 Sustain Time;
#X obj 100 114 inlet;
#X obj 163 98 inlet;
#X obj 228 121 inlet;
#X obj 328 94 inlet;
#X obj 274 174 +;
#X obj 401 181 inlet;
#X obj 374 142 inlet;
#X obj 205 268 bng 15 250 50 0 empty empty empty 0 -6 0 8 -262144 -1
-1;
#X obj 145 238 bng 15 250 50 0 empty empty empty 0 -6 0 8 -262144 -1
-1;
#X obj 221 371 outlet;
#X obj 220 350 / 127;
#X obj 102 203 del 50;
#X obj 220 328 line 0 2;
#X connect 0 0 23 0;
#X connect 1 0 19 0;
#X connect 1 0 23 1;
#X connect 2 0 23 0;
#X connect 3 0 18 0;
#X connect 3 0 23 1;
#X connect 8 0 1 0;
#X connect 8 0 22 0;
#X connect 9 0 22 1;
#X connect 11 0 8 0;
#X connect 12 0 0 0;
#X connect 13 0 1 0;
#X connect 13 0 15 1;
#X connect 14 0 15 0;
#X connect 15 0 9 0;
#X connect 16 0 3 0;
#X connect 17 0 2 0;
#X connect 18 0 2 0;
#X connect 19 0 0 0;
#X connect 21 0 20 0;
#X connect 22 0 3 0;
#X connect 23 0 21 0;
#X restore 224 216 pd EnvelopeGen;
#X obj 224 152 bng 15 250 50 0 empty empty empty 0 -6 0 8 -262144 -1
-1;
#X floatatom 242 108 5 0 0 0 - - -;
#X floatatom 261 128 5 0 0 0 - - -;
#X floatatom 279 148 5 0 0 0 - - -;
#X floatatom 317 192 5 0 0 0 - - -;
#X floatatom 298 172 5 0 0 0 - - -;
#X obj 224 69 tgl 15 0 empty empty empty 0 -6 0 8 -262144 -1 -1 0 1
;
#X obj 224 87 metro 600;
#X floatatom 282 66 5 0 0 0 - - -;
#X floatatom 13 68 5 0 0 0 - - -;
#N canvas 173 60 813 610 WavShape 0;
#X obj 241 153 sel 0 1 2 3 4;
#X msg 223 272 50 0 \, 25 1 \, 0 2 \, 12.5 3 \, 0 4 \, 6.25 5 \, 0
6 \, 3.125 7 \, 0 8;
#X msg 283 307 50 0 \, 0 1 \, 25 2 \, 0 3 \, 12.5 4 \, 0 5 \, 6.25
6 \, 0 7 \, 3.125 8;
#X obj 563 129 vradio 15 1 0 4 empty empty empty 0 -6 0 8 -262144 -1
-1 0;
#X floatatom 563 198 5 0 0 0 - - -;
#X text 582 129 sin;
#X text 583 144 square;
#X text 582 176 sawtooth;
#X text 582 161 clarinet;
#X msg 317 343 40 0 \, 20 1 \, 10 2 \, 5 3 \, 2.5 4 \, 1.25 5 \, 0.625
6 \, 0.3125 7 \, 0.15625 8;
#X obj 241 127 inlet;
#X obj 139 380 s SetWavShape;
#X obj 116 261 del 15;
#X msg 159 245 90 0 \, 0 1 \, 0 2 \, 0 3 \, 0 4 \, 0 5 \, 0 6 \, 0
7 \, 0 8;
#X obj 299 413 tabwrite oscilator2;
#X connect 0 0 13 0;
#X connect 0 1 1 0;
#X connect 0 2 2 0;
#X connect 0 3 9 0;
#X connect 1 0 14 0;
#X connect 2 0 14 0;
#X connect 3 0 4 0;
#X connect 9 0 14 0;
#X connect 10 0 0 0;
#X connect 10 0 12 0;
#X connect 12 0 11 0;
#X connect 13 0 14 0;
#X restore 281 314 pd WavShape;
#X obj 281 246 vradio 15 1 0 4 empty empty empty 0 -6 0 8 -262144 -1
-1 0;
#X text 300 246 sin;
#X text 301 261 square;
#X text 300 293 sawtooth;
#X text 300 278 clarinet;
#X text 301 127 Attack Time;
#X text 338 170 Decay Value;
#X text 359 191 decay Time;
#X text 281 105 Attack Value;
#X text 320 147 Sustain Time;
#N canvas 0 22 454 304 tempo2ms 0;
#X obj 280 135 inlet;
#X text 322 136 BPM;
#X obj 264 302 /;
#X msg 231 265 1;
#X obj 231 238 del 20;
#X obj 280 194 / 60000;
#X obj 264 334 outlet;
#X connect 0 0 5 0;
#X connect 2 0 6 0;
#X connect 3 0 2 0;
#X connect 4 0 3 0;
#X connect 5 0 2 1;
#X connect 5 0 4 0;
#X restore 282 40 pd tempo2ms;
#X floatatom 282 19 5 0 0 0 - - -;
#X text 324 19 BPM;
#X text 52 68 Fundamental Frequency;
#X obj 101 413 outlet~;
#X obj 13 48 inlet;
#X connect 0 0 2 0;
#X connect 2 0 29 0;
#X connect 3 0 2 1;
#X connect 4 0 3 0;
#X connect 5 0 3 1;
#X connect 6 0 3 2;
#X connect 7 0 3 3;
#X connect 8 0 3 5;
#X connect 9 0 3 4;
#X connect 10 0 11 0;
#X connect 11 0 4 0;
#X connect 12 0 11 1;
#X connect 13 0 0 0;
#X connect 15 0 14 0;
#X connect 25 0 12 0;
#X connect 26 0 25 0;
#X connect 30 0 13 0;
#X restore 511 209 pd pulser;
#X obj 605 257 vsl 15 128 0 127 0 0 empty empty empty 0 -8 0 8 -262144
-1 -1 5500 1;
#X floatatom 605 412 5 0 0 0 - - -;
#X connect 0 0 1 0;
#X connect 2 0 1 1;
#X connect 3 0 4 0;
