#N canvas 259 110 755 639 10;
#N canvas 314 298 507 478 multiswitch 0;
#X obj 139 244 route 0 1 2 3 4;
#X obj 197 85 bng 15 250 50 0 empty empty empty 0 -6 0 8 -262144 -1
-1;
#X obj 261 99 metro 50;
#X obj 261 55 loadbang;
#X msg 260 77 1;
#X obj 86 45 inlet;
#X obj 142 44 inlet;
#X text 141 29 target;
#X text 81 32 info;
#X obj 122 374 outlet;
#X obj 171 371 outlet;
#X obj 230 369 outlet;
#X obj 279 375 outlet;
#X obj 330 363 outlet;
#X obj 197 106 vradio 15 1 0 5 empty empty empty 0 -6 0 8 -262144 -1
-1 1;
#X obj 95 94 unpack;
#X obj 67 187 pack 0 0 0;
#X obj 151 209 spigot;
#X msg 187 186 1;
#X msg 277 135 0;
#X obj 251 179 pipe 20;
#X obj 61 164 pipe f f f 5;
#X connect 0 0 9 0;
#X connect 0 1 10 0;
#X connect 0 2 11 0;
#X connect 0 3 12 0;
#X connect 0 4 13 0;
#X connect 1 0 14 0;
#X connect 2 0 19 0;
#X connect 3 0 4 0;
#X connect 4 0 2 0;
#X connect 5 0 1 0;
#X connect 5 0 15 0;
#X connect 6 0 14 0;
#X connect 14 0 18 0;
#X connect 14 0 21 0;
#X connect 15 0 21 1;
#X connect 15 1 21 2;
#X connect 16 0 17 0;
#X connect 17 0 0 0;
#X connect 18 0 17 1;
#X connect 19 0 20 0;
#X connect 20 0 17 1;
#X connect 21 0 16 0;
#X connect 21 1 16 1;
#X connect 21 2 16 2;
#X restore 265 210 pd multiswitch;
#X obj 467 135 vradio 15 1 0 5 empty empty empty 0 -6 0 8 -262144 -1
-1 1;
#X text 465 116 now adjusting oscilator;
#X text 486 134 one;
#X text 486 149 two;
#X text 486 165 three;
#X text 486 180 four;
#N canvas 296 107 740 625 pulsilator 0;
#N canvas 108 41 575 637 overtonepatch 0;
#X obj 96 454 outlet~;
#N canvas 566 287 446 360 overtone 0;
#X obj 127 121 osc~;
#X floatatom 182 126 5 0 0 0 - - -;
#X obj 32 31 inlet;
#X obj 147 181 outlet~;
#X obj 182 64 inlet;
#X obj 182 102 route 0;
#X obj 127 92 * 1;
#X text 74 30 represents the overtone;
#X text 223 64 reps the presence;
#X floatatom 66 128 5 0 0 0 - - -;
#X obj 146 156 *~;
#X connect 0 0 10 0;
#X connect 1 0 10 1;
#X connect 2 0 6 0;
#X connect 4 0 5 0;
#X connect 5 0 1 0;
#X connect 6 0 0 0;
#X connect 6 0 9 0;
#X connect 10 0 3 0;
#X restore 221 219 pd overtone;
#N canvas 0 22 490 340 overtone 0;
#X obj 268 256 osc~;
#X floatatom 323 261 5 0 0 0 - - -;
#X obj 173 166 inlet;
#X obj 288 316 outlet~;
#X obj 323 199 inlet;
#X text 215 165 represents the overtone;
#X text 364 199 reps the presence;
#X obj 268 227 * 2;
#X obj 323 237 route 1;
#X obj 287 291 *~;
#X connect 0 0 9 0;
#X connect 1 0 9 1;
#X connect 2 0 7 0;
#X connect 4 0 8 0;
#X connect 7 0 0 0;
#X connect 8 0 1 0;
#X connect 9 0 3 0;
#X restore 232 243 pd overtone;
#N canvas 0 22 482 332 overtone 0;
#X obj 268 256 osc~;
#X floatatom 323 261 5 0 0 0 - - -;
#X obj 173 166 inlet;
#X obj 288 316 outlet~;
#X obj 323 199 inlet;
#X text 215 165 represents the overtone;
#X text 364 199 reps the presence;
#X obj 268 227 * 3;
#X obj 323 237 route 2;
#X obj 287 291 *~;
#X connect 0 0 9 0;
#X connect 1 0 9 1;
#X connect 2 0 7 0;
#X connect 4 0 8 0;
#X connect 7 0 0 0;
#X connect 8 0 1 0;
#X connect 9 0 3 0;
#X restore 244 266 pd overtone;
#N canvas 0 22 490 340 overtone 0;
#X obj 268 256 osc~;
#X floatatom 323 261 5 0 0 0 - - -;
#X obj 173 166 inlet;
#X obj 288 316 outlet~;
#X obj 323 199 inlet;
#X text 215 165 represents the overtone;
#X text 364 199 reps the presence;
#X obj 268 227 * 4;
#X obj 323 237 route 3;
#X obj 287 291 *~;
#X connect 0 0 9 0;
#X connect 1 0 9 1;
#X connect 2 0 7 0;
#X connect 4 0 8 0;
#X connect 7 0 0 0;
#X connect 8 0 1 0;
#X connect 9 0 3 0;
#X restore 254 290 pd overtone;
#N canvas 0 22 474 324 overtone 0;
#X obj 268 256 osc~;
#X floatatom 323 261 5 0 0 0 - - -;
#X obj 173 166 inlet;
#X obj 288 316 outlet~;
#X obj 323 199 inlet;
#X text 215 165 represents the overtone;
#X text 364 199 reps the presence;
#X obj 268 227 * 5;
#X obj 323 237 route 4;
#X obj 287 291 *~;
#X connect 0 0 9 0;
#X connect 1 0 9 1;
#X connect 2 0 7 0;
#X connect 4 0 8 0;
#X connect 7 0 0 0;
#X connect 8 0 1 0;
#X connect 9 0 3 0;
#X restore 263 314 pd overtone;
#N canvas 0 22 482 332 overtone 0;
#X obj 268 256 osc~;
#X floatatom 323 261 5 0 0 0 - - -;
#X obj 173 166 inlet;
#X obj 288 316 outlet~;
#X obj 323 199 inlet;
#X text 215 165 represents the overtone;
#X text 364 199 reps the presence;
#X obj 268 227 * 6;
#X obj 323 237 route 5;
#X obj 287 291 *~;
#X connect 0 0 9 0;
#X connect 1 0 9 1;
#X connect 2 0 7 0;
#X connect 4 0 8 0;
#X connect 7 0 0 0;
#X connect 8 0 1 0;
#X connect 9 0 3 0;
#X restore 273 337 pd overtone;
#N canvas 0 22 478 328 overtone 0;
#X obj 268 256 osc~;
#X floatatom 323 261 5 0 0 0 - - -;
#X obj 173 166 inlet;
#X obj 288 316 outlet~;
#X obj 323 199 inlet;
#X text 215 165 represents the overtone;
#X text 364 199 reps the presence;
#X obj 268 227 * 7;
#X obj 323 237 route 6;
#X obj 287 291 *~;
#X connect 0 0 9 0;
#X connect 1 0 9 1;
#X connect 2 0 7 0;
#X connect 4 0 8 0;
#X connect 7 0 0 0;
#X connect 8 0 1 0;
#X connect 9 0 3 0;
#X restore 287 361 pd overtone;
#N canvas 0 22 482 332 overtone 0;
#X obj 268 256 osc~;
#X floatatom 323 261 5 0 0 0 - - -;
#X obj 173 166 inlet;
#X obj 288 316 outlet~;
#X obj 323 199 inlet;
#X text 215 165 represents the overtone;
#X text 364 199 reps the presence;
#X obj 268 227 * 8;
#X obj 322 237 route 7;
#X obj 287 291 *~;
#X connect 0 0 9 0;
#X connect 1 0 9 1;
#X connect 2 0 7 0;
#X connect 4 0 8 0;
#X connect 7 0 0 0;
#X connect 8 0 1 0;
#X connect 9 0 3 0;
#X restore 296 388 pd overtone;
#X obj 361 73 tabread oscilator1;
#X obj 338 118 pack;
#X obj 36 104 inlet;
#X text 18 85 pitch of the fundamental;
#X obj 361 97 / 127;
#N canvas 0 22 466 316 countto7 0;
#X floatatom 250 207 5 0 0 0 - - -;
#X obj 248 178 int;
#X obj 320 177 + 1;
#X msg 120 108 0;
#X obj 209 132 bng 15 250 50 0 empty empty empty 0 -6 0 8 -262144 -1
-1;
#X obj 121 80 sel 7;
#X obj 238 256 outlet;
#X obj 229 68 inlet;
#X obj 121 53 pipe 15;
#X text 224 51 recieve any input;
#X text 150 276 counts from 0 to (whatever sel has);
#X connect 0 0 6 0;
#X connect 0 0 8 0;
#X connect 1 0 2 0;
#X connect 1 0 0 0;
#X connect 2 0 1 1;
#X connect 3 0 1 1;
#X connect 4 0 1 0;
#X connect 5 0 3 0;
#X connect 5 1 4 0;
#X connect 7 0 4 0;
#X connect 8 0 5 0;
#X restore 361 42 pd countto7;
#X obj 361 17 r SetWavShape1;
#X connect 1 0 0 0;
#X connect 2 0 0 0;
#X connect 3 0 0 0;
#X connect 4 0 0 0;
#X connect 5 0 0 0;
#X connect 6 0 0 0;
#X connect 7 0 0 0;
#X connect 8 0 0 0;
#X connect 9 0 13 0;
#X connect 10 0 1 1;
#X connect 10 0 2 1;
#X connect 10 0 3 1;
#X connect 10 0 4 1;
#X connect 10 0 5 1;
#X connect 10 0 6 1;
#X connect 10 0 7 1;
#X connect 10 0 8 1;
#X connect 11 0 1 0;
#X connect 11 0 2 0;
#X connect 11 0 3 0;
#X connect 11 0 4 0;
#X connect 11 0 5 0;
#X connect 11 0 6 0;
#X connect 11 0 7 0;
#X connect 11 0 8 0;
#X connect 13 0 10 1;
#X connect 14 0 9 0;
#X connect 14 0 10 0;
#X connect 15 0 14 0;
#X restore 15 300 pd overtonepatch;
#N canvas 0 22 454 304 graph21 0;
#X array oscilator1 8 float 3;
#A 0 90 0 0 0 0 0 0 0;
#X coords 0 127 7 0 168 100 1;
#X restore 282 398 graph;
#N canvas 0 22 602 446 EnvelopeGen 0;
#X floatatom 162 252 5 0 0 0 - - -;
#X floatatom 201 178 5 0 0 0 - - -;
#X floatatom 219 282 5 0 0 0 - - -;
#X floatatom 271 254 5 0 0 0 - - -;
#X text 230 105 Attack Time;
#X text 373 123 Decay Value;
#X text 399 164 decay Time;
#X text 150 85 Attack Value;
#X obj 101 140 bng 15 250 50 0 empty empty empty 0 -6 0 8 -262144 -1
-1;
#X floatatom 274 191 5 0 0 0 - - -;
#X text 326 78 Sustain Time;
#X obj 100 114 inlet;
#X obj 163 98 inlet;
#X obj 228 121 inlet;
#X obj 328 94 inlet;
#X obj 274 174 +;
#X obj 401 181 inlet;
#X obj 374 142 inlet;
#X obj 205 268 bng 15 250 50 0 empty empty empty 0 -6 0 8 -262144 -1
-1;
#X obj 145 238 bng 15 250 50 0 empty empty empty 0 -6 0 8 -262144 -1
-1;
#X obj 221 371 outlet;
#X obj 220 350 / 127;
#X obj 102 203 del 50;
#X obj 220 328 line 0 2;
#X connect 0 0 23 0;
#X connect 1 0 19 0;
#X connect 1 0 23 1;
#X connect 2 0 23 0;
#X connect 3 0 18 0;
#X connect 3 0 23 1;
#X connect 8 0 1 0;
#X connect 8 0 22 0;
#X connect 9 0 22 1;
#X connect 11 0 8 0;
#X connect 12 0 0 0;
#X connect 13 0 1 0;
#X connect 13 0 15 1;
#X connect 14 0 15 0;
#X connect 15 0 9 0;
#X connect 16 0 3 0;
#X connect 17 0 2 0;
#X connect 18 0 2 0;
#X connect 19 0 0 0;
#X connect 21 0 20 0;
#X connect 22 0 3 0;
#X connect 23 0 21 0;
#X restore 226 271 pd EnvelopeGen;
#X obj 226 207 bng 15 250 50 0 empty empty empty 0 -6 0 8 -262144 -1
-1;
#X floatatom 244 163 5 0 0 0 - - -;
#X floatatom 263 183 5 0 0 0 - - -;
#X floatatom 281 203 5 0 0 0 - - -;
#X floatatom 319 247 5 0 0 0 - - -;
#X floatatom 300 227 5 0 0 0 - - -;
#X obj 226 124 tgl 15 0 empty empty empty 0 -6 0 8 -262144 -1 -1 1
1;
#X obj 226 142 metro 600;
#X floatatom 284 121 5 0 0 0 - - -;
#X floatatom 15 134 5 0 0 0 - - -;
#N canvas 173 60 845 633 WavShape 0;
#X obj 300 414 tabwrite oscilator1;
#X obj 241 153 sel 0 1 2 3 4;
#X msg 223 272 50 0 \, 25 1 \, 0 2 \, 12.5 3 \, 0 4 \, 6.25 5 \, 0
6 \, 3.125 7 \, 0 8;
#X msg 283 307 50 0 \, 0 1 \, 25 2 \, 0 3 \, 12.5 4 \, 0 5 \, 6.25
6 \, 0 7 \, 3.125 8;
#X obj 563 129 vradio 15 1 0 4 empty empty empty 0 -6 0 8 -262144 -1
-1 0;
#X floatatom 563 198 5 0 0 0 - - -;
#X text 582 129 sin;
#X text 583 144 square;
#X text 582 176 sawtooth;
#X text 582 161 clarinet;
#X msg 317 343 40 0 \, 20 1 \, 10 2 \, 5 3 \, 2.5 4 \, 1.25 5 \, 0.625
6 \, 0.3125 7 \, 0.15625 8;
#X obj 241 127 inlet;
#X obj 116 261 del 15;
#X msg 159 245 90 0 \, 0 1 \, 0 2 \, 0 3 \, 0 4 \, 0 5 \, 0 6 \, 0
7 \, 0 8;
#X obj 139 380 s SetWavShape1;
#X connect 1 0 13 0;
#X connect 1 1 2 0;
#X connect 1 2 3 0;
#X connect 1 3 10 0;
#X connect 2 0 0 0;
#X connect 3 0 0 0;
#X connect 4 0 5 0;
#X connect 10 0 0 0;
#X connect 11 0 1 0;
#X connect 11 0 12 0;
#X connect 12 0 14 0;
#X connect 13 0 0 0;
#X restore 283 369 pd WavShape;
#X obj 283 301 vradio 15 1 0 4 empty empty empty 0 -6 0 8 -262144 -1
-1 0;
#X text 302 301 sin;
#X text 303 316 square;
#X text 302 348 sawtooth;
#X text 302 333 clarinet;
#X text 303 182 Attack Time;
#X text 340 225 Decay Value;
#X text 361 246 decay Time;
#X text 283 161 Attack Value;
#X text 322 202 Sustain Time;
#N canvas 0 22 211 277 tempo2ms 0;
#X obj 89 29 inlet;
#X text 131 30 BPM;
#X obj 73 196 /;
#X msg 40 159 1;
#X obj 40 132 del 20;
#X obj 89 88 / 60000;
#X obj 73 228 outlet;
#X connect 0 0 5 0;
#X connect 2 0 6 0;
#X connect 3 0 2 0;
#X connect 4 0 3 0;
#X connect 5 0 2 1;
#X connect 5 0 4 0;
#X restore 284 95 pd tempo2ms;
#X floatatom 284 74 5 0 0 0 - - -;
#X text 326 74 BPM;
#X text 54 134 Fundamental Frequency;
#X obj 23 75 inlet;
#X obj 95 77 sel 0 1;
#X msg 154 100 0;
#X msg 190 92 1;
#X text 20 57 freq \, or 1=on \, 0=off;
#X text 282 35 tempo;
#X obj 283 50 inlet;
#X text 412 46 envelope/wavshape;
#X obj 415 67 inlet;
#X obj 415 146 route 6 1 2 3 4 5;
#X obj 106 469 outlet~;
#X floatatom 127 429 5 0 0 0 - - -;
#X obj 106 373 *~;
#X connect 0 0 40 0;
#X connect 2 0 39 0;
#X connect 2 0 40 1;
#X connect 3 0 2 0;
#X connect 4 0 2 1;
#X connect 5 0 2 2;
#X connect 6 0 2 3;
#X connect 7 0 2 5;
#X connect 8 0 2 4;
#X connect 9 0 10 0;
#X connect 10 0 3 0;
#X connect 11 0 10 1;
#X connect 12 0 0 0;
#X connect 14 0 13 0;
#X connect 24 0 11 0;
#X connect 25 0 24 0;
#X connect 28 0 29 0;
#X connect 29 0 30 0;
#X connect 29 1 31 0;
#X connect 29 2 12 0;
#X connect 30 0 9 0;
#X connect 31 0 9 0;
#X connect 34 0 25 0;
#X connect 36 0 37 0;
#X connect 37 0 4 0;
#X connect 37 1 5 0;
#X connect 37 2 6 0;
#X connect 37 3 8 0;
#X connect 37 4 7 0;
#X connect 37 5 14 0;
#X connect 40 0 38 0;
#X restore -10 236 pd pulsilator one;
#X floatatom 294 4 5 0 0 0 - - -;
#X floatatom 295 21 5 0 0 0 - - -;
#X floatatom 433 11 5 0 0 0 - - -;
#X floatatom 571 21 5 0 0 0 - - -;
#X obj 295 95 vradio 15 1 0 4 empty empty empty 0 -6 0 8 -262144 -1
-1 0;
#X text 314 96 sin;
#X text 315 111 square;
#X text 314 143 sawtooth;
#X text 314 128 clarinet;
#X text 335 20 Attack Time;
#X text 613 20 decay Time;
#X text 333 2 Attack Value;
#X text 474 10 Sustain Time;
#N canvas 493 254 482 332 d 0;
#X obj 90 5 inlet;
#X obj 141 6 inlet;
#X obj 189 6 inlet;
#X obj 290 7 inlet;
#X floatatom 116 105 5 0 0 0 - - -;
#X obj 66 106 bng 15 250 50 0 empty empty empty 0 -6 0 8 -262144 -1
-1;
#X floatatom 162 147 5 0 0 0 - - -;
#X obj 112 148 bng 15 250 50 0 empty empty empty 0 -6 0 8 -262144 -1
-1;
#X floatatom 222 188 5 0 0 0 - - -;
#X obj 172 189 bng 15 250 50 0 empty empty empty 0 -6 0 8 -262144 -1
-1;
#X obj 218 231 bng 15 250 50 0 empty empty empty 0 -6 0 8 -262144 -1
-1;
#X floatatom 336 264 5 0 0 0 - - -;
#X obj 286 265 bng 15 250 50 0 empty empty empty 0 -6 0 8 -262144 -1
-1;
#X obj 112 163 pack 1 0;
#X obj 172 205 pack 2 0;
#X obj 218 246 pack 3 0;
#X obj 286 280 pack 4 0;
#X obj 240 7 inlet;
#X obj 66 296 outlet;
#X obj 66 121 pack 6 0;
#X msg 268 210 0;
#X connect 0 0 4 0;
#X connect 0 0 5 0;
#X connect 1 0 6 0;
#X connect 1 0 7 0;
#X connect 2 0 8 0;
#X connect 2 0 9 0;
#X connect 3 0 11 0;
#X connect 3 0 12 0;
#X connect 4 0 19 1;
#X connect 5 0 19 0;
#X connect 6 0 13 1;
#X connect 7 0 13 0;
#X connect 8 0 14 1;
#X connect 9 0 14 0;
#X connect 10 0 15 0;
#X connect 11 0 16 1;
#X connect 12 0 16 0;
#X connect 13 0 18 0;
#X connect 14 0 18 0;
#X connect 15 0 18 0;
#X connect 16 0 18 0;
#X connect 17 0 10 0;
#X connect 17 0 20 0;
#X connect 19 0 18 0;
#X connect 20 0 15 1;
#X restore 265 56 pd d a t a p r e p p e r;
#N canvas 0 22 478 328 dataprepper 0;
#X obj 118 27 inlet;
#X floatatom 116 105 5 0 0 0 - - -;
#X obj 66 106 bng 15 250 50 0 empty empty empty 0 -6 0 8 -262144 -1
-1;
#X obj 70 151 outlet;
#X obj 66 121 pack 5 0;
#X obj 59 75 bng 15 250 50 0 empty empty empty 0 -6 0 8 -262144 -1
-1;
#X obj 58 49 bng 15 250 50 0 empty empty empty 0 -6 0 8 -262144 -1
-1;
#X connect 0 0 1 0;
#X connect 0 0 2 0;
#X connect 0 0 5 0;
#X connect 0 0 6 0;
#X connect 1 0 4 1;
#X connect 2 0 4 0;
#X connect 4 0 3 0;
#X connect 5 0 2 0;
#X connect 6 0 5 0;
#X restore 303 175 pd dataprepper;
#N canvas 328 200 716 513 pulsilator 0;
#N canvas 0 22 555 652 overtonepatch 0;
#X obj 96 454 outlet~;
#N canvas 0 22 502 352 overtone 0;
#X obj 127 121 osc~;
#X floatatom 182 126 5 0 0 0 - - -;
#X obj 32 31 inlet;
#X obj 147 181 outlet~;
#X obj 182 64 inlet;
#X obj 182 102 route 0;
#X obj 127 92 * 1;
#X text 74 30 represents the overtone;
#X text 223 64 reps the presence;
#X obj 146 156 *~;
#X connect 0 0 9 0;
#X connect 1 0 9 1;
#X connect 2 0 6 0;
#X connect 4 0 5 0;
#X connect 5 0 1 0;
#X connect 6 0 0 0;
#X connect 9 0 3 0;
#X restore 221 219 pd overtone;
#N canvas 0 22 478 328 overtone 0;
#X obj 268 256 osc~;
#X floatatom 323 261 5 0 0 0 - - -;
#X obj 173 166 inlet;
#X obj 288 316 outlet~;
#X obj 323 199 inlet;
#X text 215 165 represents the overtone;
#X text 364 199 reps the presence;
#X obj 268 227 * 2;
#X obj 323 237 route 1;
#X obj 287 291 *~;
#X connect 0 0 9 0;
#X connect 1 0 9 1;
#X connect 2 0 7 0;
#X connect 4 0 8 0;
#X connect 7 0 0 0;
#X connect 8 0 1 0;
#X connect 9 0 3 0;
#X restore 232 243 pd overtone;
#N canvas 0 22 490 340 overtone 0;
#X obj 268 256 osc~;
#X floatatom 323 261 5 0 0 0 - - -;
#X obj 173 166 inlet;
#X obj 288 316 outlet~;
#X obj 323 199 inlet;
#X text 215 165 represents the overtone;
#X text 364 199 reps the presence;
#X obj 268 227 * 3;
#X obj 323 237 route 2;
#X obj 287 291 *~;
#X connect 0 0 9 0;
#X connect 1 0 9 1;
#X connect 2 0 7 0;
#X connect 4 0 8 0;
#X connect 7 0 0 0;
#X connect 8 0 1 0;
#X connect 9 0 3 0;
#X restore 244 266 pd overtone;
#N canvas 0 22 486 336 overtone 0;
#X obj 268 256 osc~;
#X floatatom 323 261 5 0 0 0 - - -;
#X obj 173 166 inlet;
#X obj 288 316 outlet~;
#X obj 323 199 inlet;
#X text 215 165 represents the overtone;
#X text 364 199 reps the presence;
#X obj 268 227 * 4;
#X obj 323 237 route 3;
#X obj 287 291 *~;
#X connect 0 0 9 0;
#X connect 1 0 9 1;
#X connect 2 0 7 0;
#X connect 4 0 8 0;
#X connect 7 0 0 0;
#X connect 8 0 1 0;
#X connect 9 0 3 0;
#X restore 254 290 pd overtone;
#N canvas 0 22 486 336 overtone 0;
#X obj 268 256 osc~;
#X floatatom 323 261 5 0 0 0 - - -;
#X obj 173 166 inlet;
#X obj 288 316 outlet~;
#X obj 323 199 inlet;
#X text 215 165 represents the overtone;
#X text 364 199 reps the presence;
#X obj 268 227 * 5;
#X obj 323 237 route 4;
#X obj 287 291 *~;
#X connect 0 0 9 0;
#X connect 1 0 9 1;
#X connect 2 0 7 0;
#X connect 4 0 8 0;
#X connect 7 0 0 0;
#X connect 8 0 1 0;
#X connect 9 0 3 0;
#X restore 263 314 pd overtone;
#N canvas 0 22 490 340 overtone 0;
#X obj 268 256 osc~;
#X floatatom 323 261 5 0 0 0 - - -;
#X obj 173 166 inlet;
#X obj 288 316 outlet~;
#X obj 323 199 inlet;
#X text 215 165 represents the overtone;
#X text 364 199 reps the presence;
#X obj 268 227 * 6;
#X obj 323 237 route 5;
#X obj 287 291 *~;
#X connect 0 0 9 0;
#X connect 1 0 9 1;
#X connect 2 0 7 0;
#X connect 4 0 8 0;
#X connect 7 0 0 0;
#X connect 8 0 1 0;
#X connect 9 0 3 0;
#X restore 273 337 pd overtone;
#N canvas 0 22 482 332 overtone 0;
#X obj 268 256 osc~;
#X floatatom 323 261 5 0 0 0 - - -;
#X obj 173 166 inlet;
#X obj 288 316 outlet~;
#X obj 323 199 inlet;
#X text 215 165 represents the overtone;
#X text 364 199 reps the presence;
#X obj 268 227 * 7;
#X obj 323 237 route 6;
#X obj 287 291 *~;
#X connect 0 0 9 0;
#X connect 1 0 9 1;
#X connect 2 0 7 0;
#X connect 4 0 8 0;
#X connect 7 0 0 0;
#X connect 8 0 1 0;
#X connect 9 0 3 0;
#X restore 287 361 pd overtone;
#N canvas 0 22 482 332 overtone 0;
#X obj 268 256 osc~;
#X floatatom 323 261 5 0 0 0 - - -;
#X obj 173 166 inlet;
#X obj 288 316 outlet~;
#X obj 323 199 inlet;
#X text 215 165 represents the overtone;
#X text 364 199 reps the presence;
#X obj 268 227 * 8;
#X obj 322 237 route 7;
#X obj 287 291 *~;
#X connect 0 0 9 0;
#X connect 1 0 9 1;
#X connect 2 0 7 0;
#X connect 4 0 8 0;
#X connect 7 0 0 0;
#X connect 8 0 1 0;
#X connect 9 0 3 0;
#X restore 296 388 pd overtone;
#X obj 338 118 pack;
#X obj 36 104 inlet;
#X text 18 85 pitch of the fundamental;
#X obj 361 97 / 127;
#N canvas 0 22 458 308 countto7 0;
#X floatatom 250 207 5 0 0 0 - - -;
#X obj 248 178 int;
#X obj 320 177 + 1;
#X msg 120 108 0;
#X obj 209 132 bng 15 250 50 0 empty empty empty 0 -6 0 8 -262144 -1
-1;
#X obj 121 80 sel 7;
#X obj 238 256 outlet;
#X obj 229 68 inlet;
#X obj 121 53 pipe 15;
#X text 224 51 recieve any input;
#X text 150 276 counts from 0 to (whatever sel has);
#X connect 0 0 6 0;
#X connect 0 0 8 0;
#X connect 1 0 2 0;
#X connect 1 0 0 0;
#X connect 2 0 1 1;
#X connect 3 0 1 1;
#X connect 4 0 1 0;
#X connect 5 0 3 0;
#X connect 5 1 4 0;
#X connect 7 0 4 0;
#X connect 8 0 5 0;
#X restore 361 42 pd countto7;
#X obj 361 73 tabread oscilator2;
#X obj 361 17 r SetWavShape2;
#X connect 1 0 0 0;
#X connect 2 0 0 0;
#X connect 3 0 0 0;
#X connect 4 0 0 0;
#X connect 5 0 0 0;
#X connect 6 0 0 0;
#X connect 7 0 0 0;
#X connect 8 0 0 0;
#X connect 9 0 1 1;
#X connect 9 0 2 1;
#X connect 9 0 3 1;
#X connect 9 0 4 1;
#X connect 9 0 5 1;
#X connect 9 0 6 1;
#X connect 9 0 7 1;
#X connect 9 0 8 1;
#X connect 10 0 1 0;
#X connect 10 0 2 0;
#X connect 10 0 3 0;
#X connect 10 0 4 0;
#X connect 10 0 5 0;
#X connect 10 0 6 0;
#X connect 10 0 7 0;
#X connect 10 0 8 0;
#X connect 12 0 9 1;
#X connect 13 0 9 0;
#X connect 13 0 14 0;
#X connect 14 0 12 0;
#X connect 15 0 13 0;
#X restore 15 300 pd overtonepatch;
#N canvas 0 22 454 304 graph21 0;
#X array oscilator2 8 float 3;
#A 0 40 20 10 5 2.5 1.25 0.625 0.15625;
#X coords 0 127 7 0 168 100 1;
#X restore 282 398 graph;
#X obj 106 373 *~ 0;
#N canvas 0 22 610 454 EnvelopeGen 0;
#X floatatom 162 252 5 0 0 0 - - -;
#X floatatom 201 178 5 0 0 0 - - -;
#X floatatom 219 282 5 0 0 0 - - -;
#X floatatom 271 254 5 0 0 0 - - -;
#X text 230 105 Attack Time;
#X text 373 123 Decay Value;
#X text 399 164 decay Time;
#X text 150 85 Attack Value;
#X obj 101 140 bng 15 250 50 0 empty empty empty 0 -6 0 8 -262144 -1
-1;
#X floatatom 274 191 5 0 0 0 - - -;
#X text 326 78 Sustain Time;
#X obj 100 114 inlet;
#X obj 163 98 inlet;
#X obj 228 121 inlet;
#X obj 328 94 inlet;
#X obj 274 174 +;
#X obj 401 181 inlet;
#X obj 374 142 inlet;
#X obj 205 268 bng 15 250 50 0 empty empty empty 0 -6 0 8 -262144 -1
-1;
#X obj 145 238 bng 15 250 50 0 empty empty empty 0 -6 0 8 -262144 -1
-1;
#X obj 221 371 outlet;
#X obj 220 350 / 127;
#X obj 102 203 del 50;
#X obj 220 328 line 0 2;
#X connect 0 0 23 0;
#X connect 1 0 19 0;
#X connect 1 0 23 1;
#X connect 2 0 23 0;
#X connect 3 0 18 0;
#X connect 3 0 23 1;
#X connect 8 0 1 0;
#X connect 8 0 22 0;
#X connect 9 0 22 1;
#X connect 11 0 8 0;
#X connect 12 0 0 0;
#X connect 13 0 1 0;
#X connect 13 0 15 1;
#X connect 14 0 15 0;
#X connect 15 0 9 0;
#X connect 16 0 3 0;
#X connect 17 0 2 0;
#X connect 18 0 2 0;
#X connect 19 0 0 0;
#X connect 21 0 20 0;
#X connect 22 0 3 0;
#X connect 23 0 21 0;
#X restore 226 271 pd EnvelopeGen;
#X obj 226 207 bng 15 250 50 0 empty empty empty 0 -6 0 8 -262144 -1
-1;
#X floatatom 244 163 5 0 0 0 - - -;
#X floatatom 263 183 5 0 0 0 - - -;
#X floatatom 281 203 5 0 0 0 - - -;
#X floatatom 319 247 5 0 0 0 - - -;
#X floatatom 300 227 5 0 0 0 - - -;
#X obj 226 124 tgl 15 0 empty empty empty 0 -6 0 8 -262144 -1 -1 1
1;
#X obj 226 142 metro 600;
#X floatatom 284 121 5 0 0 0 - - -;
#X floatatom 15 134 5 0 0 0 - - -;
#N canvas 173 60 833 630 WavShape 0;
#X obj 241 153 sel 0 1 2 3 4;
#X msg 223 272 50 0 \, 25 1 \, 0 2 \, 12.5 3 \, 0 4 \, 6.25 5 \, 0
6 \, 3.125 7 \, 0 8;
#X msg 283 307 50 0 \, 0 1 \, 25 2 \, 0 3 \, 12.5 4 \, 0 5 \, 6.25
6 \, 0 7 \, 3.125 8;
#X obj 563 129 vradio 15 1 0 4 empty empty empty 0 -6 0 8 -262144 -1
-1 0;
#X floatatom 563 198 5 0 0 0 - - -;
#X text 582 129 sin;
#X text 583 144 square;
#X text 582 176 sawtooth;
#X text 582 161 clarinet;
#X msg 317 343 40 0 \, 20 1 \, 10 2 \, 5 3 \, 2.5 4 \, 1.25 5 \, 0.625
6 \, 0.3125 7 \, 0.15625 8;
#X obj 241 127 inlet;
#X obj 116 261 del 15;
#X msg 159 245 90 0 \, 0 1 \, 0 2 \, 0 3 \, 0 4 \, 0 5 \, 0 6 \, 0
7 \, 0 8;
#X obj 300 414 tabwrite oscilator2;
#X obj 116 321 s SetWavShape2;
#X connect 0 0 12 0;
#X connect 0 1 1 0;
#X connect 0 2 2 0;
#X connect 0 3 9 0;
#X connect 1 0 13 0;
#X connect 2 0 13 0;
#X connect 3 0 4 0;
#X connect 9 0 13 0;
#X connect 10 0 0 0;
#X connect 10 0 11 0;
#X connect 11 0 14 0;
#X connect 12 0 13 0;
#X restore 283 369 pd WavShape;
#X obj 283 301 vradio 15 1 0 4 empty empty empty 0 -6 0 8 -262144 -1
-1 3;
#X text 302 301 sin;
#X text 303 316 square;
#X text 302 348 sawtooth;
#X text 302 333 clarinet;
#X text 303 182 Attack Time;
#X text 340 225 Decay Value;
#X text 361 246 decay Time;
#X text 283 161 Attack Value;
#X text 322 202 Sustain Time;
#N canvas 0 22 454 304 tempo2ms 0;
#X obj 280 135 inlet;
#X text 322 136 BPM;
#X obj 264 302 /;
#X msg 231 265 1;
#X obj 231 238 del 20;
#X obj 280 194 / 60000;
#X obj 264 334 outlet;
#X connect 0 0 5 0;
#X connect 2 0 6 0;
#X connect 3 0 2 0;
#X connect 4 0 3 0;
#X connect 5 0 2 1;
#X connect 5 0 4 0;
#X restore 284 95 pd tempo2ms;
#X floatatom 284 74 5 0 0 0 - - -;
#X text 326 74 BPM;
#X text 54 134 Fundamental Frequency;
#X text 59 184 comment;
#X obj 23 75 inlet;
#X obj 95 77 sel 0 1;
#X msg 154 100 0;
#X msg 190 92 1;
#X text 20 57 freq \, or 1=on \, 0=off;
#X text 282 35 tempo;
#X obj 283 50 inlet;
#X text 412 46 envelope/wavshape;
#X obj 415 67 inlet;
#X obj 415 112 route 6 1 2 3 4 5;
#X obj 106 470 outlet~;
#X connect 0 0 2 0;
#X connect 2 0 40 0;
#X connect 3 0 2 1;
#X connect 4 0 3 0;
#X connect 5 0 3 1;
#X connect 6 0 3 2;
#X connect 7 0 3 3;
#X connect 8 0 3 5;
#X connect 9 0 3 4;
#X connect 10 0 11 0;
#X connect 11 0 4 0;
#X connect 12 0 11 1;
#X connect 13 0 0 0;
#X connect 15 0 14 0;
#X connect 25 0 12 0;
#X connect 26 0 25 0;
#X connect 30 0 31 0;
#X connect 31 0 32 0;
#X connect 31 1 33 0;
#X connect 31 2 13 0;
#X connect 32 0 10 0;
#X connect 33 0 10 0;
#X connect 36 0 26 0;
#X connect 38 0 39 0;
#X connect 39 0 5 0;
#X connect 39 1 6 0;
#X connect 39 2 7 0;
#X connect 39 3 9 0;
#X connect 39 4 8 0;
#X connect 39 5 15 0;
#X restore 78 310 pd pulsilator two;
#N canvas 340 200 692 489 pulsilator 0;
#N canvas 0 22 551 648 overtonepatch 0;
#X obj 96 454 outlet~;
#N canvas 0 22 486 336 overtone 0;
#X obj 127 121 osc~;
#X obj 146 156 *~ 0;
#X floatatom 182 126 5 0 0 0 - - -;
#X obj 32 31 inlet;
#X obj 147 181 outlet~;
#X obj 182 64 inlet;
#X obj 182 102 route 0;
#X obj 127 92 * 1;
#X text 74 30 represents the overtone;
#X text 223 64 reps the presence;
#X connect 0 0 1 0;
#X connect 1 0 4 0;
#X connect 2 0 1 1;
#X connect 3 0 7 0;
#X connect 5 0 6 0;
#X connect 6 0 2 0;
#X connect 7 0 0 0;
#X restore 221 219 pd overtone;
#N canvas 0 22 474 324 overtone 0;
#X obj 268 256 osc~;
#X obj 287 291 *~ 0;
#X floatatom 323 261 5 0 0 0 - - -;
#X obj 173 166 inlet;
#X obj 288 316 outlet~;
#X obj 323 199 inlet;
#X text 215 165 represents the overtone;
#X text 364 199 reps the presence;
#X obj 268 227 * 2;
#X obj 323 237 route 1;
#X connect 0 0 1 0;
#X connect 1 0 4 0;
#X connect 2 0 1 1;
#X connect 3 0 8 0;
#X connect 5 0 9 0;
#X connect 8 0 0 0;
#X connect 9 0 2 0;
#X restore 232 243 pd overtone;
#N canvas 0 22 478 328 overtone 0;
#X obj 268 256 osc~;
#X obj 287 291 *~ 0;
#X floatatom 323 261 5 0 0 0 - - -;
#X obj 173 166 inlet;
#X obj 288 316 outlet~;
#X obj 323 199 inlet;
#X text 215 165 represents the overtone;
#X text 364 199 reps the presence;
#X obj 268 227 * 3;
#X obj 323 237 route 2;
#X connect 0 0 1 0;
#X connect 1 0 4 0;
#X connect 2 0 1 1;
#X connect 3 0 8 0;
#X connect 5 0 9 0;
#X connect 8 0 0 0;
#X connect 9 0 2 0;
#X restore 244 266 pd overtone;
#N canvas 0 22 478 328 overtone 0;
#X obj 268 256 osc~;
#X obj 287 291 *~ 0;
#X floatatom 323 261 5 0 0 0 - - -;
#X obj 173 166 inlet;
#X obj 288 316 outlet~;
#X obj 323 199 inlet;
#X text 215 165 represents the overtone;
#X text 364 199 reps the presence;
#X obj 268 227 * 4;
#X obj 323 237 route 3;
#X connect 0 0 1 0;
#X connect 1 0 4 0;
#X connect 2 0 1 1;
#X connect 3 0 8 0;
#X connect 5 0 9 0;
#X connect 8 0 0 0;
#X connect 9 0 2 0;
#X restore 254 290 pd overtone;
#N canvas 0 22 474 324 overtone 0;
#X obj 268 256 osc~;
#X obj 287 291 *~ 0;
#X floatatom 323 261 5 0 0 0 - - -;
#X obj 173 166 inlet;
#X obj 288 316 outlet~;
#X obj 323 199 inlet;
#X text 215 165 represents the overtone;
#X text 364 199 reps the presence;
#X obj 268 227 * 5;
#X obj 323 237 route 4;
#X connect 0 0 1 0;
#X connect 1 0 4 0;
#X connect 2 0 1 1;
#X connect 3 0 8 0;
#X connect 5 0 9 0;
#X connect 8 0 0 0;
#X connect 9 0 2 0;
#X restore 263 314 pd overtone;
#N canvas 0 22 478 328 overtone 0;
#X obj 268 256 osc~;
#X obj 287 291 *~ 0;
#X floatatom 323 261 5 0 0 0 - - -;
#X obj 173 166 inlet;
#X obj 288 316 outlet~;
#X obj 323 199 inlet;
#X text 215 165 represents the overtone;
#X text 364 199 reps the presence;
#X obj 268 227 * 6;
#X obj 323 237 route 5;
#X connect 0 0 1 0;
#X connect 1 0 4 0;
#X connect 2 0 1 1;
#X connect 3 0 8 0;
#X connect 5 0 9 0;
#X connect 8 0 0 0;
#X connect 9 0 2 0;
#X restore 273 337 pd overtone;
#N canvas 0 22 474 324 overtone 0;
#X obj 268 256 osc~;
#X obj 287 291 *~ 0;
#X floatatom 323 261 5 0 0 0 - - -;
#X obj 173 166 inlet;
#X obj 288 316 outlet~;
#X obj 323 199 inlet;
#X text 215 165 represents the overtone;
#X text 364 199 reps the presence;
#X obj 268 227 * 7;
#X obj 323 237 route 6;
#X connect 0 0 1 0;
#X connect 1 0 4 0;
#X connect 2 0 1 1;
#X connect 3 0 8 0;
#X connect 5 0 9 0;
#X connect 8 0 0 0;
#X connect 9 0 2 0;
#X restore 287 361 pd overtone;
#N canvas 0 22 478 328 overtone 0;
#X obj 268 256 osc~;
#X obj 287 291 *~ 0;
#X floatatom 323 261 5 0 0 0 - - -;
#X obj 173 166 inlet;
#X obj 288 316 outlet~;
#X obj 323 199 inlet;
#X text 215 165 represents the overtone;
#X text 364 199 reps the presence;
#X obj 268 227 * 8;
#X obj 322 237 route 7;
#X connect 0 0 1 0;
#X connect 1 0 4 0;
#X connect 2 0 1 1;
#X connect 3 0 8 0;
#X connect 5 0 9 0;
#X connect 8 0 0 0;
#X connect 9 0 2 0;
#X restore 296 388 pd overtone;
#X obj 338 118 pack;
#X obj 36 104 inlet;
#X text 18 85 pitch of the fundamental;
#X obj 361 97 / 127;
#N canvas 0 22 462 312 countto7 0;
#X floatatom 250 207 5 0 0 0 - - -;
#X obj 248 178 int;
#X obj 320 177 + 1;
#X msg 120 108 0;
#X obj 209 132 bng 15 250 50 0 empty empty empty 0 -6 0 8 -262144 -1
-1;
#X obj 121 80 sel 7;
#X obj 238 256 outlet;
#X obj 229 68 inlet;
#X obj 121 53 pipe 15;
#X text 224 51 recieve any input;
#X text 150 276 counts from 0 to (whatever sel has);
#X connect 0 0 6 0;
#X connect 0 0 8 0;
#X connect 1 0 2 0;
#X connect 1 0 0 0;
#X connect 2 0 1 1;
#X connect 3 0 1 1;
#X connect 4 0 1 0;
#X connect 5 0 3 0;
#X connect 5 1 4 0;
#X connect 7 0 4 0;
#X connect 8 0 5 0;
#X restore 361 42 pd countto7;
#X obj 361 73 tabread oscilator4;
#X obj 361 17 r SetWavShape4;
#X connect 1 0 0 0;
#X connect 2 0 0 0;
#X connect 3 0 0 0;
#X connect 4 0 0 0;
#X connect 5 0 0 0;
#X connect 6 0 0 0;
#X connect 7 0 0 0;
#X connect 8 0 0 0;
#X connect 9 0 1 1;
#X connect 9 0 2 1;
#X connect 9 0 3 1;
#X connect 9 0 4 1;
#X connect 9 0 5 1;
#X connect 9 0 6 1;
#X connect 9 0 7 1;
#X connect 9 0 8 1;
#X connect 10 0 1 0;
#X connect 10 0 2 0;
#X connect 10 0 3 0;
#X connect 10 0 4 0;
#X connect 10 0 5 0;
#X connect 10 0 6 0;
#X connect 10 0 7 0;
#X connect 10 0 8 0;
#X connect 12 0 9 1;
#X connect 13 0 9 0;
#X connect 13 0 14 0;
#X connect 14 0 12 0;
#X connect 15 0 13 0;
#X restore 15 300 pd overtonepatch;
#N canvas 0 22 454 304 graph21 0;
#X array oscilator4 8 float 3;
#A 0 50 0 25 0 12.5 0 6.25 3.125;
#X coords 0 127 7 0 168 100 1;
#X restore 282 398 graph;
#X obj 106 373 *~ 0;
#N canvas 0 22 602 446 EnvelopeGen 0;
#X floatatom 162 252 5 0 0 0 - - -;
#X floatatom 201 178 5 0 0 0 - - -;
#X floatatom 219 282 5 0 0 0 - - -;
#X floatatom 271 254 5 0 0 0 - - -;
#X text 230 105 Attack Time;
#X text 373 123 Decay Value;
#X text 399 164 decay Time;
#X text 150 85 Attack Value;
#X obj 101 140 bng 15 250 50 0 empty empty empty 0 -6 0 8 -262144 -1
-1;
#X floatatom 274 191 5 0 0 0 - - -;
#X text 326 78 Sustain Time;
#X obj 100 114 inlet;
#X obj 163 98 inlet;
#X obj 228 121 inlet;
#X obj 328 94 inlet;
#X obj 274 174 +;
#X obj 401 181 inlet;
#X obj 374 142 inlet;
#X obj 205 268 bng 15 250 50 0 empty empty empty 0 -6 0 8 -262144 -1
-1;
#X obj 145 238 bng 15 250 50 0 empty empty empty 0 -6 0 8 -262144 -1
-1;
#X obj 221 371 outlet;
#X obj 220 350 / 127;
#X obj 102 203 del 50;
#X obj 220 328 line 0 2;
#X connect 0 0 23 0;
#X connect 1 0 19 0;
#X connect 1 0 23 1;
#X connect 2 0 23 0;
#X connect 3 0 18 0;
#X connect 3 0 23 1;
#X connect 8 0 1 0;
#X connect 8 0 22 0;
#X connect 9 0 22 1;
#X connect 11 0 8 0;
#X connect 12 0 0 0;
#X connect 13 0 1 0;
#X connect 13 0 15 1;
#X connect 14 0 15 0;
#X connect 15 0 9 0;
#X connect 16 0 3 0;
#X connect 17 0 2 0;
#X connect 18 0 2 0;
#X connect 19 0 0 0;
#X connect 21 0 20 0;
#X connect 22 0 3 0;
#X connect 23 0 21 0;
#X restore 226 271 pd EnvelopeGen;
#X obj 226 207 bng 15 250 50 0 empty empty empty 0 -6 0 8 -262144 -1
-1;
#X floatatom 244 163 5 0 0 0 - - -;
#X floatatom 263 183 5 0 0 0 - - -;
#X floatatom 281 203 5 0 0 0 - - -;
#X floatatom 319 247 5 0 0 0 - - -;
#X floatatom 300 227 5 0 0 0 - - -;
#X obj 226 124 tgl 15 0 empty empty empty 0 -6 0 8 -262144 -1 -1 0
1;
#X obj 226 142 metro 600;
#X floatatom 284 121 5 0 0 0 - - -;
#X floatatom 15 134 5 0 0 0 - - -;
#N canvas 127 220 833 630 WavShape 0;
#X obj 241 153 sel 0 1 2 3 4;
#X msg 223 272 50 0 \, 25 1 \, 0 2 \, 12.5 3 \, 0 4 \, 6.25 5 \, 0
6 \, 3.125 7 \, 0 8;
#X msg 283 307 50 0 \, 0 1 \, 25 2 \, 0 3 \, 12.5 4 \, 0 5 \, 6.25
6 \, 0 7 \, 3.125 8;
#X obj 563 129 vradio 15 1 0 4 empty empty empty 0 -6 0 8 -262144 -1
-1 0;
#X floatatom 563 198 5 0 0 0 - - -;
#X text 582 129 sin;
#X text 583 144 square;
#X text 582 176 sawtooth;
#X text 582 161 clarinet;
#X msg 317 343 40 0 \, 20 1 \, 10 2 \, 5 3 \, 2.5 4 \, 1.25 5 \, 0.625
6 \, 0.3125 7 \, 0.15625 8;
#X obj 241 127 inlet;
#X obj 116 261 del 15;
#X msg 159 245 90 0 \, 0 1 \, 0 2 \, 0 3 \, 0 4 \, 0 5 \, 0 6 \, 0
7 \, 0 8;
#X obj 300 414 tabwrite oscilator4;
#X obj 135 402 s SetWavShape4;
#X connect 0 0 12 0;
#X connect 0 1 1 0;
#X connect 0 2 2 0;
#X connect 0 3 9 0;
#X connect 1 0 13 0;
#X connect 2 0 13 0;
#X connect 3 0 4 0;
#X connect 9 0 13 0;
#X connect 10 0 0 0;
#X connect 10 0 11 0;
#X connect 11 0 14 0;
#X connect 12 0 13 0;
#X restore 283 369 pd WavShape;
#X obj 283 301 vradio 15 1 0 4 empty empty empty 0 -6 0 8 -262144 -1
-1 0;
#X text 302 301 sin;
#X text 303 316 square;
#X text 302 348 sawtooth;
#X text 302 333 clarinet;
#X text 303 182 Attack Time;
#X text 340 225 Decay Value;
#X text 361 246 decay Time;
#X text 283 161 Attack Value;
#X text 322 202 Sustain Time;
#N canvas 0 22 454 304 tempo2ms 0;
#X obj 280 135 inlet;
#X text 322 136 BPM;
#X obj 264 302 /;
#X msg 231 265 1;
#X obj 231 238 del 20;
#X obj 280 194 / 60000;
#X obj 264 334 outlet;
#X connect 0 0 5 0;
#X connect 2 0 6 0;
#X connect 3 0 2 0;
#X connect 4 0 3 0;
#X connect 5 0 2 1;
#X connect 5 0 4 0;
#X restore 284 95 pd tempo2ms;
#X floatatom 284 74 5 0 0 0 - - -;
#X text 326 74 BPM;
#X text 54 134 Fundamental Frequency;
#X text 59 184 comment;
#X obj 23 75 inlet;
#X obj 95 77 sel 0 1;
#X msg 154 100 0;
#X msg 190 92 1;
#X text 20 57 freq \, or 1=on \, 0=off;
#X text 282 35 tempo;
#X obj 283 50 inlet;
#X text 412 46 envelope/wavshape;
#X obj 415 67 inlet;
#X obj 415 112 route 6 1 2 3 4 5;
#X obj 106 469 outlet~;
#X connect 0 0 2 0;
#X connect 2 0 40 0;
#X connect 3 0 2 1;
#X connect 4 0 3 0;
#X connect 5 0 3 1;
#X connect 6 0 3 2;
#X connect 7 0 3 3;
#X connect 8 0 3 5;
#X connect 9 0 3 4;
#X connect 10 0 11 0;
#X connect 11 0 4 0;
#X connect 12 0 11 1;
#X connect 13 0 0 0;
#X connect 15 0 14 0;
#X connect 25 0 12 0;
#X connect 26 0 25 0;
#X connect 30 0 31 0;
#X connect 31 0 32 0;
#X connect 31 1 33 0;
#X connect 31 2 13 0;
#X connect 32 0 10 0;
#X connect 33 0 10 0;
#X connect 36 0 26 0;
#X connect 38 0 39 0;
#X connect 39 0 5 0;
#X connect 39 1 6 0;
#X connect 39 2 7 0;
#X connect 39 3 9 0;
#X connect 39 4 8 0;
#X connect 39 5 15 0;
#X restore 228 452 pd pulsilator four;
#N canvas 231 85 708 505 pulsilator 0;
#N canvas 0 22 543 640 overtonepatch 0;
#X obj 96 454 outlet~;
#N canvas 0 22 494 344 overtone 0;
#X obj 127 121 osc~;
#X floatatom 182 126 5 0 0 0 - - -;
#X obj 32 31 inlet;
#X obj 147 181 outlet~;
#X obj 182 64 inlet;
#X obj 182 102 route 0;
#X obj 127 92 * 1;
#X text 74 30 represents the overtone;
#X text 223 64 reps the presence;
#X obj 146 156 *~;
#X connect 0 0 9 0;
#X connect 1 0 9 1;
#X connect 2 0 6 0;
#X connect 4 0 5 0;
#X connect 5 0 1 0;
#X connect 6 0 0 0;
#X connect 9 0 3 0;
#X restore 221 219 pd overtone;
#N canvas 0 22 478 328 overtone 0;
#X obj 268 256 osc~;
#X floatatom 323 261 5 0 0 0 - - -;
#X obj 173 166 inlet;
#X obj 288 316 outlet~;
#X obj 323 199 inlet;
#X text 215 165 represents the overtone;
#X text 364 199 reps the presence;
#X obj 268 227 * 2;
#X obj 323 237 route 1;
#X obj 287 291 *~;
#X connect 0 0 9 0;
#X connect 1 0 9 1;
#X connect 2 0 7 0;
#X connect 4 0 8 0;
#X connect 7 0 0 0;
#X connect 8 0 1 0;
#X connect 9 0 3 0;
#X restore 232 243 pd overtone;
#N canvas 0 22 482 332 overtone 0;
#X obj 268 256 osc~;
#X floatatom 323 261 5 0 0 0 - - -;
#X obj 173 166 inlet;
#X obj 288 316 outlet~;
#X obj 323 199 inlet;
#X text 215 165 represents the overtone;
#X text 364 199 reps the presence;
#X obj 268 227 * 3;
#X obj 323 237 route 2;
#X obj 287 291 *~;
#X connect 0 0 9 0;
#X connect 1 0 9 1;
#X connect 2 0 7 0;
#X connect 4 0 8 0;
#X connect 7 0 0 0;
#X connect 8 0 1 0;
#X connect 9 0 3 0;
#X restore 244 266 pd overtone;
#N canvas 0 22 482 332 overtone 0;
#X obj 268 256 osc~;
#X floatatom 323 261 5 0 0 0 - - -;
#X obj 173 166 inlet;
#X obj 288 316 outlet~;
#X obj 323 199 inlet;
#X text 215 165 represents the overtone;
#X text 364 199 reps the presence;
#X obj 268 227 * 4;
#X obj 323 237 route 3;
#X obj 287 291 *~;
#X connect 0 0 9 0;
#X connect 1 0 9 1;
#X connect 2 0 7 0;
#X connect 4 0 8 0;
#X connect 7 0 0 0;
#X connect 8 0 1 0;
#X connect 9 0 3 0;
#X restore 254 290 pd overtone;
#N canvas 0 22 478 328 overtone 0;
#X obj 268 256 osc~;
#X floatatom 323 261 5 0 0 0 - - -;
#X obj 173 166 inlet;
#X obj 288 316 outlet~;
#X obj 323 199 inlet;
#X text 215 165 represents the overtone;
#X text 364 199 reps the presence;
#X obj 268 227 * 5;
#X obj 323 237 route 4;
#X obj 287 291 *~;
#X connect 0 0 9 0;
#X connect 1 0 9 1;
#X connect 2 0 7 0;
#X connect 4 0 8 0;
#X connect 7 0 0 0;
#X connect 8 0 1 0;
#X connect 9 0 3 0;
#X restore 263 314 pd overtone;
#N canvas 0 22 486 336 overtone 0;
#X obj 268 256 osc~;
#X floatatom 323 261 5 0 0 0 - - -;
#X obj 173 166 inlet;
#X obj 288 316 outlet~;
#X obj 323 199 inlet;
#X text 215 165 represents the overtone;
#X text 364 199 reps the presence;
#X obj 268 227 * 6;
#X obj 323 237 route 5;
#X obj 287 291 *~;
#X connect 0 0 9 0;
#X connect 1 0 9 1;
#X connect 2 0 7 0;
#X connect 4 0 8 0;
#X connect 7 0 0 0;
#X connect 8 0 1 0;
#X connect 9 0 3 0;
#X restore 273 337 pd overtone;
#N canvas 0 22 482 332 overtone 0;
#X obj 268 256 osc~;
#X floatatom 323 261 5 0 0 0 - - -;
#X obj 173 166 inlet;
#X obj 288 316 outlet~;
#X obj 323 199 inlet;
#X text 215 165 represents the overtone;
#X text 364 199 reps the presence;
#X obj 268 227 * 7;
#X obj 323 237 route 6;
#X obj 287 291 *~;
#X connect 0 0 9 0;
#X connect 1 0 9 1;
#X connect 2 0 7 0;
#X connect 4 0 8 0;
#X connect 7 0 0 0;
#X connect 8 0 1 0;
#X connect 9 0 3 0;
#X restore 287 361 pd overtone;
#N canvas 0 22 482 332 overtone 0;
#X obj 268 256 osc~;
#X floatatom 323 261 5 0 0 0 - - -;
#X obj 173 166 inlet;
#X obj 288 316 outlet~;
#X obj 323 199 inlet;
#X text 215 165 represents the overtone;
#X text 364 199 reps the presence;
#X obj 268 227 * 8;
#X obj 322 237 route 7;
#X obj 287 291 *~;
#X connect 0 0 9 0;
#X connect 1 0 9 1;
#X connect 2 0 7 0;
#X connect 4 0 8 0;
#X connect 7 0 0 0;
#X connect 8 0 1 0;
#X connect 9 0 3 0;
#X restore 296 388 pd overtone;
#X obj 338 118 pack;
#X obj 36 104 inlet;
#X text 18 85 pitch of the fundamental;
#X obj 361 97 / 127;
#N canvas 0 22 458 308 countto7 0;
#X floatatom 250 207 5 0 0 0 - - -;
#X obj 248 178 int;
#X obj 320 177 + 1;
#X msg 120 108 0;
#X obj 209 132 bng 15 250 50 0 empty empty empty 0 -6 0 8 -262144 -1
-1;
#X obj 121 80 sel 7;
#X obj 238 256 outlet;
#X obj 229 68 inlet;
#X obj 121 53 pipe 15;
#X text 224 51 recieve any input;
#X text 150 276 counts from 0 to (whatever sel has);
#X connect 0 0 6 0;
#X connect 0 0 8 0;
#X connect 1 0 2 0;
#X connect 1 0 0 0;
#X connect 2 0 1 1;
#X connect 3 0 1 1;
#X connect 4 0 1 0;
#X connect 5 0 3 0;
#X connect 5 1 4 0;
#X connect 7 0 4 0;
#X connect 8 0 5 0;
#X restore 361 42 pd countto7;
#X obj 360 73 tabread oscilator3;
#X obj 361 17 r SetWavShape3;
#X connect 1 0 0 0;
#X connect 2 0 0 0;
#X connect 3 0 0 0;
#X connect 4 0 0 0;
#X connect 5 0 0 0;
#X connect 6 0 0 0;
#X connect 7 0 0 0;
#X connect 8 0 0 0;
#X connect 9 0 1 1;
#X connect 9 0 2 1;
#X connect 9 0 3 1;
#X connect 9 0 4 1;
#X connect 9 0 5 1;
#X connect 9 0 6 1;
#X connect 9 0 7 1;
#X connect 9 0 8 1;
#X connect 10 0 1 0;
#X connect 10 0 2 0;
#X connect 10 0 3 0;
#X connect 10 0 4 0;
#X connect 10 0 5 0;
#X connect 10 0 6 0;
#X connect 10 0 7 0;
#X connect 10 0 8 0;
#X connect 12 0 9 1;
#X connect 13 0 9 0;
#X connect 13 0 14 0;
#X connect 14 0 12 0;
#X connect 15 0 13 0;
#X restore 15 300 pd overtonepatch;
#N canvas 0 22 454 304 graph21 0;
#X array oscilator3 8 float 3;
#A 0 90 0 0 0 0 0 0 0;
#X coords 0 127 7 0 168 100 1;
#X restore 282 398 graph;
#X obj 106 373 *~ 0;
#N canvas 0 22 602 446 EnvelopeGen 0;
#X floatatom 162 252 5 0 0 0 - - -;
#X floatatom 201 178 5 0 0 0 - - -;
#X floatatom 219 282 5 0 0 0 - - -;
#X floatatom 271 254 5 0 0 0 - - -;
#X text 230 105 Attack Time;
#X text 373 123 Decay Value;
#X text 399 164 decay Time;
#X text 150 85 Attack Value;
#X obj 101 140 bng 15 250 50 0 empty empty empty 0 -6 0 8 -262144 -1
-1;
#X floatatom 274 191 5 0 0 0 - - -;
#X text 326 78 Sustain Time;
#X obj 100 114 inlet;
#X obj 163 98 inlet;
#X obj 228 121 inlet;
#X obj 328 94 inlet;
#X obj 274 174 +;
#X obj 401 181 inlet;
#X obj 374 142 inlet;
#X obj 205 268 bng 15 250 50 0 empty empty empty 0 -6 0 8 -262144 -1
-1;
#X obj 145 238 bng 15 250 50 0 empty empty empty 0 -6 0 8 -262144 -1
-1;
#X obj 221 371 outlet;
#X obj 220 350 / 127;
#X obj 102 203 del 50;
#X obj 220 328 line 0 2;
#X connect 0 0 23 0;
#X connect 1 0 19 0;
#X connect 1 0 23 1;
#X connect 2 0 23 0;
#X connect 3 0 18 0;
#X connect 3 0 23 1;
#X connect 8 0 1 0;
#X connect 8 0 22 0;
#X connect 9 0 22 1;
#X connect 11 0 8 0;
#X connect 12 0 0 0;
#X connect 13 0 1 0;
#X connect 13 0 15 1;
#X connect 14 0 15 0;
#X connect 15 0 9 0;
#X connect 16 0 3 0;
#X connect 17 0 2 0;
#X connect 18 0 2 0;
#X connect 19 0 0 0;
#X connect 21 0 20 0;
#X connect 22 0 3 0;
#X connect 23 0 21 0;
#X restore 226 271 pd EnvelopeGen;
#X obj 226 207 bng 15 250 50 0 empty empty empty 0 -6 0 8 -262144 -1
-1;
#X floatatom 244 163 5 0 0 0 - - -;
#X floatatom 263 183 5 0 0 0 - - -;
#X floatatom 281 203 5 0 0 0 - - -;
#X floatatom 319 247 5 0 0 0 - - -;
#X floatatom 300 227 5 0 0 0 - - -;
#X obj 226 124 tgl 15 0 empty empty empty 0 -6 0 8 -262144 -1 -1 0
1;
#X obj 226 142 metro 600;
#X floatatom 284 121 5 0 0 0 - - -;
#X floatatom 15 134 5 0 0 0 - - -;
#N canvas 173 60 833 630 WavShape 0;
#X obj 241 153 sel 0 1 2 3 4;
#X msg 223 272 50 0 \, 25 1 \, 0 2 \, 12.5 3 \, 0 4 \, 6.25 5 \, 0
6 \, 3.125 7 \, 0 8;
#X msg 283 307 50 0 \, 0 1 \, 25 2 \, 0 3 \, 12.5 4 \, 0 5 \, 6.25
6 \, 0 7 \, 3.125 8;
#X obj 563 129 vradio 15 1 0 4 empty empty empty 0 -6 0 8 -262144 -1
-1 0;
#X floatatom 563 198 5 0 0 0 - - -;
#X text 582 129 sin;
#X text 583 144 square;
#X text 582 176 sawtooth;
#X text 582 161 clarinet;
#X msg 317 343 40 0 \, 20 1 \, 10 2 \, 5 3 \, 2.5 4 \, 1.25 5 \, 0.625
6 \, 0.3125 7 \, 0.15625 8;
#X obj 241 127 inlet;
#X obj 116 261 del 15;
#X msg 159 245 90 0 \, 0 1 \, 0 2 \, 0 3 \, 0 4 \, 0 5 \, 0 6 \, 0
7 \, 0 8;
#X obj 300 413 tabwrite oscilator3;
#X obj 139 380 s SetWavShape3;
#X connect 0 0 12 0;
#X connect 0 1 1 0;
#X connect 0 2 2 0;
#X connect 0 3 9 0;
#X connect 1 0 13 0;
#X connect 2 0 13 0;
#X connect 3 0 4 0;
#X connect 9 0 13 0;
#X connect 10 0 0 0;
#X connect 10 0 11 0;
#X connect 11 0 14 0;
#X connect 12 0 13 0;
#X restore 283 369 pd WavShape;
#X obj 283 301 vradio 15 1 0 4 empty empty empty 0 -6 0 8 -262144 -1
-1 0;
#X text 302 301 sin;
#X text 303 316 square;
#X text 302 348 sawtooth;
#X text 302 333 clarinet;
#X text 303 182 Attack Time;
#X text 340 225 Decay Value;
#X text 361 246 decay Time;
#X text 283 161 Attack Value;
#X text 322 202 Sustain Time;
#N canvas 0 22 458 308 tempo2ms 0;
#X obj 280 135 inlet;
#X text 322 136 BPM;
#X obj 264 302 /;
#X msg 231 265 1;
#X obj 231 238 del 20;
#X obj 280 194 / 60000;
#X obj 264 334 outlet;
#X connect 0 0 5 0;
#X connect 2 0 6 0;
#X connect 3 0 2 0;
#X connect 4 0 3 0;
#X connect 5 0 2 1;
#X connect 5 0 4 0;
#X restore 284 95 pd tempo2ms;
#X floatatom 284 74 5 0 0 0 - - -;
#X text 326 74 BPM;
#X text 54 134 Fundamental Frequency;
#X obj 23 75 inlet;
#X obj 95 77 sel 0 1;
#X msg 154 100 0;
#X msg 190 92 1;
#X text 20 57 freq \, or 1=on \, 0=off;
#X text 282 35 tempo;
#X obj 283 50 inlet;
#X text 412 46 envelope/wavshape;
#X obj 415 67 inlet;
#X obj 414 113 route 6 1 2 3 4 5;
#X obj 106 469 outlet~;
#X connect 0 0 2 0;
#X connect 2 0 39 0;
#X connect 3 0 2 1;
#X connect 4 0 3 0;
#X connect 5 0 3 1;
#X connect 6 0 3 2;
#X connect 7 0 3 3;
#X connect 8 0 3 5;
#X connect 9 0 3 4;
#X connect 10 0 11 0;
#X connect 11 0 4 0;
#X connect 12 0 11 1;
#X connect 13 0 0 0;
#X connect 15 0 14 0;
#X connect 25 0 12 0;
#X connect 26 0 25 0;
#X connect 29 0 30 0;
#X connect 30 0 31 0;
#X connect 30 1 32 0;
#X connect 30 2 13 0;
#X connect 31 0 10 0;
#X connect 32 0 10 0;
#X connect 35 0 26 0;
#X connect 37 0 38 0;
#X connect 38 0 5 0;
#X connect 38 1 6 0;
#X connect 38 2 7 0;
#X connect 38 3 9 0;
#X connect 38 4 8 0;
#X connect 38 5 15 0;
#X restore 158 382 pd pulsilator three;
#N canvas 316 200 712 509 pulsilator 0;
#N canvas 0 22 539 636 overtonepatch 0;
#X obj 96 454 outlet~;
#N canvas 0 22 482 332 overtone 0;
#X obj 127 121 osc~;
#X obj 146 156 *~ 0;
#X floatatom 182 126 5 0 0 0 - - -;
#X obj 32 31 inlet;
#X obj 147 181 outlet~;
#X obj 182 64 inlet;
#X obj 182 102 route 0;
#X obj 127 92 * 1;
#X text 74 30 represents the overtone;
#X text 223 64 reps the presence;
#X connect 0 0 1 0;
#X connect 1 0 4 0;
#X connect 2 0 1 1;
#X connect 3 0 7 0;
#X connect 5 0 6 0;
#X connect 6 0 2 0;
#X connect 7 0 0 0;
#X restore 221 219 pd overtone;
#N canvas 0 22 470 320 overtone 0;
#X obj 268 256 osc~;
#X obj 287 291 *~ 0;
#X floatatom 323 261 5 0 0 0 - - -;
#X obj 173 166 inlet;
#X obj 288 316 outlet~;
#X obj 323 199 inlet;
#X text 215 165 represents the overtone;
#X text 364 199 reps the presence;
#X obj 268 227 * 2;
#X obj 323 237 route 1;
#X connect 0 0 1 0;
#X connect 1 0 4 0;
#X connect 2 0 1 1;
#X connect 3 0 8 0;
#X connect 5 0 9 0;
#X connect 8 0 0 0;
#X connect 9 0 2 0;
#X restore 232 243 pd overtone;
#N canvas 0 22 474 324 overtone 0;
#X obj 268 256 osc~;
#X obj 287 291 *~ 0;
#X floatatom 323 261 5 0 0 0 - - -;
#X obj 173 166 inlet;
#X obj 288 316 outlet~;
#X obj 323 199 inlet;
#X text 215 165 represents the overtone;
#X text 364 199 reps the presence;
#X obj 268 227 * 3;
#X obj 323 237 route 2;
#X connect 0 0 1 0;
#X connect 1 0 4 0;
#X connect 2 0 1 1;
#X connect 3 0 8 0;
#X connect 5 0 9 0;
#X connect 8 0 0 0;
#X connect 9 0 2 0;
#X restore 244 266 pd overtone;
#N canvas 0 22 474 324 overtone 0;
#X obj 268 256 osc~;
#X obj 287 291 *~ 0;
#X floatatom 323 261 5 0 0 0 - - -;
#X obj 173 166 inlet;
#X obj 288 316 outlet~;
#X obj 323 199 inlet;
#X text 215 165 represents the overtone;
#X text 364 199 reps the presence;
#X obj 268 227 * 4;
#X obj 323 237 route 3;
#X connect 0 0 1 0;
#X connect 1 0 4 0;
#X connect 2 0 1 1;
#X connect 3 0 8 0;
#X connect 5 0 9 0;
#X connect 8 0 0 0;
#X connect 9 0 2 0;
#X restore 254 290 pd overtone;
#N canvas 0 22 470 320 overtone 0;
#X obj 268 256 osc~;
#X obj 287 291 *~ 0;
#X floatatom 323 261 5 0 0 0 - - -;
#X obj 173 166 inlet;
#X obj 288 316 outlet~;
#X obj 323 199 inlet;
#X text 215 165 represents the overtone;
#X text 364 199 reps the presence;
#X obj 268 227 * 5;
#X obj 323 237 route 4;
#X connect 0 0 1 0;
#X connect 1 0 4 0;
#X connect 2 0 1 1;
#X connect 3 0 8 0;
#X connect 5 0 9 0;
#X connect 8 0 0 0;
#X connect 9 0 2 0;
#X restore 263 314 pd overtone;
#N canvas 0 22 478 328 overtone 0;
#X obj 268 256 osc~;
#X obj 287 291 *~ 0;
#X floatatom 323 261 5 0 0 0 - - -;
#X obj 173 166 inlet;
#X obj 288 316 outlet~;
#X obj 323 199 inlet;
#X text 215 165 represents the overtone;
#X text 364 199 reps the presence;
#X obj 268 227 * 6;
#X obj 323 237 route 5;
#X connect 0 0 1 0;
#X connect 1 0 4 0;
#X connect 2 0 1 1;
#X connect 3 0 8 0;
#X connect 5 0 9 0;
#X connect 8 0 0 0;
#X connect 9 0 2 0;
#X restore 273 337 pd overtone;
#N canvas 0 22 474 324 overtone 0;
#X obj 268 256 osc~;
#X obj 287 291 *~ 0;
#X floatatom 323 261 5 0 0 0 - - -;
#X obj 173 166 inlet;
#X obj 288 316 outlet~;
#X obj 323 199 inlet;
#X text 215 165 represents the overtone;
#X text 364 199 reps the presence;
#X obj 268 227 * 7;
#X obj 323 237 route 6;
#X connect 0 0 1 0;
#X connect 1 0 4 0;
#X connect 2 0 1 1;
#X connect 3 0 8 0;
#X connect 5 0 9 0;
#X connect 8 0 0 0;
#X connect 9 0 2 0;
#X restore 287 361 pd overtone;
#N canvas 0 22 478 328 overtone 0;
#X obj 268 256 osc~;
#X obj 287 291 *~ 0;
#X floatatom 323 261 5 0 0 0 - - -;
#X obj 173 166 inlet;
#X obj 288 316 outlet~;
#X obj 323 199 inlet;
#X text 215 165 represents the overtone;
#X text 364 199 reps the presence;
#X obj 268 227 * 8;
#X obj 322 237 route 7;
#X connect 0 0 1 0;
#X connect 1 0 4 0;
#X connect 2 0 1 1;
#X connect 3 0 8 0;
#X connect 5 0 9 0;
#X connect 8 0 0 0;
#X connect 9 0 2 0;
#X restore 296 388 pd overtone;
#X obj 338 118 pack;
#X obj 36 104 inlet;
#X text 18 85 pitch of the fundamental;
#X obj 361 97 / 127;
#N canvas 0 22 458 308 countto7 0;
#X floatatom 250 207 5 0 0 0 - - -;
#X obj 248 178 int;
#X obj 320 177 + 1;
#X msg 120 108 0;
#X obj 209 132 bng 15 250 50 0 empty empty empty 0 -6 0 8 -262144 -1
-1;
#X obj 121 80 sel 7;
#X obj 238 256 outlet;
#X obj 229 68 inlet;
#X obj 121 53 pipe 15;
#X text 224 51 recieve any input;
#X text 150 276 counts from 0 to (whatever sel has);
#X connect 0 0 6 0;
#X connect 0 0 8 0;
#X connect 1 0 2 0;
#X connect 1 0 0 0;
#X connect 2 0 1 1;
#X connect 3 0 1 1;
#X connect 4 0 1 0;
#X connect 5 0 3 0;
#X connect 5 1 4 0;
#X connect 7 0 4 0;
#X connect 8 0 5 0;
#X restore 361 42 pd countto7;
#X obj 361 73 tabread oscilator5;
#X obj 361 17 r SetWavShape5;
#X connect 1 0 0 0;
#X connect 2 0 0 0;
#X connect 3 0 0 0;
#X connect 4 0 0 0;
#X connect 5 0 0 0;
#X connect 6 0 0 0;
#X connect 7 0 0 0;
#X connect 8 0 0 0;
#X connect 9 0 1 1;
#X connect 9 0 2 1;
#X connect 9 0 3 1;
#X connect 9 0 4 1;
#X connect 9 0 5 1;
#X connect 9 0 6 1;
#X connect 9 0 7 1;
#X connect 9 0 8 1;
#X connect 10 0 1 0;
#X connect 10 0 2 0;
#X connect 10 0 3 0;
#X connect 10 0 4 0;
#X connect 10 0 5 0;
#X connect 10 0 6 0;
#X connect 10 0 7 0;
#X connect 10 0 8 0;
#X connect 12 0 9 1;
#X connect 13 0 9 0;
#X connect 13 0 14 0;
#X connect 14 0 12 0;
#X connect 15 0 13 0;
#X restore 15 300 pd overtonepatch;
#N canvas 0 22 454 304 graph21 0;
#X array oscilator5 8 float 3;
#A 0 50 25 0 12.5 0 6.25 0 0;
#X coords 0 127 7 0 168 100 1;
#X restore 282 398 graph;
#X obj 106 373 *~ 0;
#N canvas 0 22 598 442 EnvelopeGen 0;
#X floatatom 162 252 5 0 0 0 - - -;
#X floatatom 201 178 5 0 0 0 - - -;
#X floatatom 219 282 5 0 0 0 - - -;
#X floatatom 271 254 5 0 0 0 - - -;
#X text 230 105 Attack Time;
#X text 373 123 Decay Value;
#X text 399 164 decay Time;
#X text 150 85 Attack Value;
#X obj 101 140 bng 15 250 50 0 empty empty empty 0 -6 0 8 -262144 -1
-1;
#X floatatom 274 191 5 0 0 0 - - -;
#X text 326 78 Sustain Time;
#X obj 100 114 inlet;
#X obj 163 98 inlet;
#X obj 228 121 inlet;
#X obj 328 94 inlet;
#X obj 274 174 +;
#X obj 401 181 inlet;
#X obj 374 142 inlet;
#X obj 205 268 bng 15 250 50 0 empty empty empty 0 -6 0 8 -262144 -1
-1;
#X obj 145 238 bng 15 250 50 0 empty empty empty 0 -6 0 8 -262144 -1
-1;
#X obj 221 371 outlet;
#X obj 220 350 / 127;
#X obj 102 203 del 50;
#X obj 220 328 line 0 2;
#X connect 0 0 23 0;
#X connect 1 0 19 0;
#X connect 1 0 23 1;
#X connect 2 0 23 0;
#X connect 3 0 18 0;
#X connect 3 0 23 1;
#X connect 8 0 1 0;
#X connect 8 0 22 0;
#X connect 9 0 22 1;
#X connect 11 0 8 0;
#X connect 12 0 0 0;
#X connect 13 0 1 0;
#X connect 13 0 15 1;
#X connect 14 0 15 0;
#X connect 15 0 9 0;
#X connect 16 0 3 0;
#X connect 17 0 2 0;
#X connect 18 0 2 0;
#X connect 19 0 0 0;
#X connect 21 0 20 0;
#X connect 22 0 3 0;
#X connect 23 0 21 0;
#X restore 226 271 pd EnvelopeGen;
#X obj 226 207 bng 15 250 50 0 empty empty empty 0 -6 0 8 -262144 -1
-1;
#X floatatom 244 163 5 0 0 0 - - -;
#X floatatom 263 183 5 0 0 0 - - -;
#X floatatom 281 203 5 0 0 0 - - -;
#X floatatom 319 247 5 0 0 0 - - -;
#X floatatom 300 227 5 0 0 0 - - -;
#X obj 226 124 tgl 15 0 empty empty empty 0 -6 0 8 -262144 -1 -1 0
1;
#X obj 226 142 metro 600;
#X floatatom 284 121 5 0 0 0 - - -;
#X floatatom 15 134 5 0 0 0 - - -;
#N canvas 173 60 829 626 WavShape 0;
#X obj 241 153 sel 0 1 2 3 4;
#X msg 223 272 50 0 \, 25 1 \, 0 2 \, 12.5 3 \, 0 4 \, 6.25 5 \, 0
6 \, 3.125 7 \, 0 8;
#X msg 283 307 50 0 \, 0 1 \, 25 2 \, 0 3 \, 12.5 4 \, 0 5 \, 6.25
6 \, 0 7 \, 3.125 8;
#X obj 563 129 vradio 15 1 0 4 empty empty empty 0 -6 0 8 -262144 -1
-1 0;
#X floatatom 563 198 5 0 0 0 - - -;
#X text 582 129 sin;
#X text 583 144 square;
#X text 582 176 sawtooth;
#X text 582 161 clarinet;
#X msg 317 343 40 0 \, 20 1 \, 10 2 \, 5 3 \, 2.5 4 \, 1.25 5 \, 0.625
6 \, 0.3125 7 \, 0.15625 8;
#X obj 241 127 inlet;
#X obj 116 261 del 15;
#X msg 159 245 90 0 \, 0 1 \, 0 2 \, 0 3 \, 0 4 \, 0 5 \, 0 6 \, 0
7 \, 0 8;
#X obj 300 414 tabwrite oscilator5;
#X obj 139 380 s SetWavShape5;
#X connect 0 0 12 0;
#X connect 0 1 1 0;
#X connect 0 2 2 0;
#X connect 0 3 9 0;
#X connect 1 0 13 0;
#X connect 2 0 13 0;
#X connect 3 0 4 0;
#X connect 9 0 13 0;
#X connect 10 0 0 0;
#X connect 10 0 11 0;
#X connect 11 0 14 0;
#X connect 12 0 13 0;
#X restore 283 369 pd WavShape;
#X obj 283 301 vradio 15 1 0 4 empty empty empty 0 -6 0 8 -262144 -1
-1 0;
#X text 302 301 sin;
#X text 303 316 square;
#X text 302 348 sawtooth;
#X text 302 333 clarinet;
#X text 303 182 Attack Time;
#X text 340 225 Decay Value;
#X text 361 246 decay Time;
#X text 283 161 Attack Value;
#X text 322 202 Sustain Time;
#N canvas 0 22 454 304 tempo2ms 0;
#X obj 280 135 inlet;
#X text 322 136 BPM;
#X obj 264 302 /;
#X msg 231 265 1;
#X obj 231 238 del 20;
#X obj 280 194 / 60000;
#X obj 264 334 outlet;
#X connect 0 0 5 0;
#X connect 2 0 6 0;
#X connect 3 0 2 0;
#X connect 4 0 3 0;
#X connect 5 0 2 1;
#X connect 5 0 4 0;
#X restore 284 95 pd tempo2ms;
#X floatatom 284 74 5 0 0 0 - - -;
#X text 326 74 BPM;
#X text 54 134 Fundamental Frequency;
#X text 59 184 comment;
#X obj 23 75 inlet;
#X obj 95 77 sel 0 1;
#X msg 154 100 0;
#X msg 190 92 1;
#X text 20 57 freq \, or 1=on \, 0=off;
#X text 282 35 tempo;
#X obj 283 50 inlet;
#X text 412 46 envelope/wavshape;
#X obj 415 67 inlet;
#X obj 415 113 route 6 1 2 3 4 5;
#X obj 106 469 outlet~;
#X connect 0 0 2 0;
#X connect 2 0 40 0;
#X connect 3 0 2 1;
#X connect 4 0 3 0;
#X connect 5 0 3 1;
#X connect 6 0 3 2;
#X connect 7 0 3 3;
#X connect 8 0 3 5;
#X connect 9 0 3 4;
#X connect 10 0 11 0;
#X connect 11 0 4 0;
#X connect 12 0 11 1;
#X connect 13 0 0 0;
#X connect 15 0 14 0;
#X connect 25 0 12 0;
#X connect 26 0 25 0;
#X connect 30 0 31 0;
#X connect 31 0 32 0;
#X connect 31 1 33 0;
#X connect 31 2 13 0;
#X connect 32 0 10 0;
#X connect 33 0 10 0;
#X connect 36 0 26 0;
#X connect 38 0 39 0;
#X connect 39 0 5 0;
#X connect 39 1 6 0;
#X connect 39 2 7 0;
#X connect 39 3 9 0;
#X connect 39 4 8 0;
#X connect 39 5 15 0;
#X restore 286 518 pd pulsilator five;
#X text 486 195 five;
#X floatatom 46 221 5 0 0 0 - - -;
#X floatatom 135 295 5 0 0 0 - - -;
#X floatatom 223 367 5 0 0 0 - - -;
#X floatatom 288 437 5 0 0 0 - - -;
#X floatatom 345 503 5 0 0 0 - - -;
#X floatatom -10 221 5 0 0 0 - - -;
#X floatatom 114 252 5 0 0 0 - - -;
#X floatatom 159 367 5 0 0 0 - - -;
#X floatatom 228 437 5 0 0 0 - - -;
#X floatatom 286 503 5 0 0 0 - - -;
#X obj -28 221 tgl 15 0 empty empty empty 0 -6 0 8 -262144 -1 -1 1
1;
#X obj 61 295 tgl 15 0 empty empty empty 0 -6 0 8 -262144 -1 -1 1 1
;
#X obj 141 367 tgl 15 0 empty empty empty 0 -6 0 8 -262144 -1 -1 0
1;
#X obj 209 437 tgl 15 0 empty empty empty 0 -6 0 8 -262144 -1 -1 0
1;
#X obj 268 503 tgl 15 0 empty empty empty 0 -6 0 8 -262144 -1 -1 0
1;
#X obj 47 557 dac~;
#N canvas 0 22 454 304 panpot 0;
#X obj 105 47 inlet~;
#X obj 269 46 inlet;
#X obj 90 168 *~;
#X obj 304 166 *~;
#X obj 280 78 / 127;
#X obj 187 134 - 1;
#X obj 186 157 * -1;
#X obj 133 250 outlet~;
#X obj 276 254 outlet~;
#X obj 182 26 loadbang;
#X msg 182 47 0.5;
#X connect 0 0 3 0;
#X connect 0 0 2 0;
#X connect 1 0 4 0;
#X connect 2 0 8 0;
#X connect 3 0 7 0;
#X connect 4 0 3 1;
#X connect 4 0 5 0;
#X connect 5 0 6 0;
#X connect 6 0 2 1;
#X connect 9 0 10 0;
#X connect 10 0 2 1;
#X connect 10 0 3 1;
#X restore -9 256 pd panpot;
#N canvas 0 22 454 304 panpot 0;
#X obj 105 47 inlet~;
#X obj 269 46 inlet;
#X obj 90 168 *~;
#X obj 304 166 *~;
#X obj 280 78 / 127;
#X obj 187 134 - 1;
#X obj 186 157 * -1;
#X obj 133 250 outlet~;
#X obj 276 254 outlet~;
#X obj 182 26 loadbang;
#X msg 182 47 0.5;
#X connect 0 0 3 0;
#X connect 0 0 2 0;
#X connect 1 0 4 0;
#X connect 2 0 8 0;
#X connect 3 0 7 0;
#X connect 4 0 3 1;
#X connect 4 0 5 0;
#X connect 5 0 6 0;
#X connect 6 0 2 1;
#X connect 9 0 10 0;
#X connect 10 0 2 1;
#X connect 10 0 3 1;
#X restore 78 332 pd panpot;
#N canvas 0 22 450 300 panpot 0;
#X obj 105 47 inlet~;
#X obj 269 46 inlet;
#X obj 90 168 *~;
#X obj 304 166 *~;
#X obj 280 78 / 127;
#X obj 187 134 - 1;
#X obj 186 157 * -1;
#X obj 133 250 outlet~;
#X obj 276 254 outlet~;
#X obj 182 26 loadbang;
#X msg 182 47 0.5;
#X connect 0 0 3 0;
#X connect 0 0 2 0;
#X connect 1 0 4 0;
#X connect 2 0 8 0;
#X connect 3 0 7 0;
#X connect 4 0 3 1;
#X connect 4 0 5 0;
#X connect 5 0 6 0;
#X connect 6 0 2 1;
#X connect 9 0 10 0;
#X connect 10 0 2 1;
#X connect 10 0 3 1;
#X restore 158 404 pd panpot;
#N canvas 0 22 450 300 panpot 0;
#X obj 105 47 inlet~;
#X obj 269 46 inlet;
#X obj 92 169 *~;
#X obj 304 166 *~;
#X obj 280 78 / 127;
#X obj 187 134 - 1;
#X obj 186 157 * -1;
#X obj 133 250 outlet~;
#X obj 276 254 outlet~;
#X obj 182 26 loadbang;
#X msg 182 47 0.5;
#X connect 0 0 3 0;
#X connect 0 0 2 0;
#X connect 1 0 4 0;
#X connect 2 0 8 0;
#X connect 3 0 7 0;
#X connect 4 0 3 1;
#X connect 4 0 5 0;
#X connect 5 0 6 0;
#X connect 6 0 2 1;
#X connect 9 0 10 0;
#X connect 10 0 2 1;
#X connect 10 0 3 1;
#X restore 228 473 pd panpot;
#N canvas 0 22 450 300 panpot 0;
#X obj 105 47 inlet~;
#X obj 269 46 inlet;
#X obj 90 168 *~;
#X obj 304 166 *~;
#X obj 280 78 / 127;
#X obj 187 134 - 1;
#X obj 186 157 * -1;
#X obj 133 250 outlet~;
#X obj 276 254 outlet~;
#X obj 182 26 loadbang;
#X msg 182 47 0.5;
#X connect 0 0 3 0;
#X connect 0 0 2 0;
#X connect 1 0 4 0;
#X connect 2 0 8 0;
#X connect 3 0 7 0;
#X connect 4 0 3 1;
#X connect 4 0 5 0;
#X connect 5 0 6 0;
#X connect 6 0 2 1;
#X connect 9 0 10 0;
#X connect 10 0 2 1;
#X connect 10 0 3 1;
#X restore 286 539 pd panpot;
#X obj 450 241 hsl 128 15 0 127 0 0 empty empty empty -2 -6 0 8 -262144
-1 -1 0 1;
#X obj 450 317 hsl 128 15 0 127 0 0 empty empty empty -2 -6 0 8 -262144
-1 -1 0 1;
#X obj 450 389 hsl 128 15 0 127 0 0 empty empty empty -2 -6 0 8 -262144
-1 -1 0 1;
#X obj 452 458 hsl 128 15 0 127 0 0 empty empty empty -2 -6 0 8 -262144
-1 -1 0 1;
#X obj 452 524 hsl 128 15 0 127 0 0 empty empty empty -2 -6 0 8 -262144
-1 -1 0 1;
#N canvas 0 22 450 300 MidiFreq 0;
#X obj 105 32 notein;
#X obj 37 87 int;
#X obj 68 87 + 1;
#X msg 101 86 0;
#X obj 36 67 bng 15 250 50 0 empty empty empty 0 -6 0 8 -262144 -1
-1;
#X obj 168 80 mtof;
#X obj 87 137 route 0 1 2 3 4;
#X obj 110 114 pack;
#X obj 67 64 sel 4;
#X obj 15 206 outlet;
#X obj 63 206 outlet;
#X obj 109 206 outlet;
#X obj 157 206 outlet;
#X obj 205 207 outlet;
#X obj 224 168 print midiFreq Error;
#X connect 0 0 4 0;
#X connect 0 0 5 0;
#X connect 1 0 2 0;
#X connect 1 0 8 0;
#X connect 1 0 7 0;
#X connect 2 0 1 1;
#X connect 3 0 1 1;
#X connect 4 0 1 0;
#X connect 5 0 7 1;
#X connect 6 0 9 0;
#X connect 6 1 10 0;
#X connect 6 2 11 0;
#X connect 6 3 12 0;
#X connect 6 4 13 0;
#X connect 6 5 14 0;
#X connect 7 0 6 0;
#X connect 8 0 3 0;
#X restore 128 62 pd MidiFreq;
#X text 474 221 Pan Faders;
#N canvas 298 137 658 557 lfo 0;
#X obj 28 52 inlet;
#X obj 53 194 osc~;
#X obj 278 160 tgl 15 0 empty empty empty 0 -6 0 8 -262144 -1 -1 1
1;
#X floatatom 336 157 5 0 0 0 - - -;
#X floatatom 67 170 5 0 0 0 - - -;
#N canvas 0 22 458 308 tempo2ms 0;
#X obj 280 135 inlet;
#X text 322 136 BPM;
#X obj 264 302 /;
#X msg 231 265 1;
#X obj 231 238 del 20;
#X obj 280 194 / 60000;
#X obj 264 334 outlet;
#X connect 0 0 5 0;
#X connect 2 0 6 0;
#X connect 3 0 2 0;
#X connect 4 0 3 0;
#X connect 5 0 2 1;
#X connect 5 0 4 0;
#X restore 336 131 pd tempo2ms;
#X floatatom 336 110 5 0 0 0 - - -;
#X text 106 170 Fundamental Frequency;
#X msg 206 136 0;
#X msg 242 128 1;
#X text 11 34 freq \, or 1=on \, 0=off;
#X obj 254 238 snapshot~;
#X text 211 4 LFO;
#X text 283 86 determine sample rate;
#X floatatom 216 50 5 0 0 0 - - -;
#X obj 212 76 sel 0 1;
#X obj 251 104 bng 15 250 50 0 empty empty empty 0 -6 0 8 -262144 -1
-1;
#X obj 420 251 line;
#X obj 449 193 float;
#X obj 391 232 float;
#X obj 427 211 bng 15 250 50 0 empty empty empty 0 -6 0 8 -262144 -1
-1;
#X obj 12 245 s~ lfo;
#N canvas 0 22 450 300 graph2 0;
#X array array100 100 float 3;
#A 0 0.302784 0.288828 0.270123 0.256031 0.241882 0.222934 0.20867
0.189579 0.175216 0.156006 0.141559 0.122252 0.107739 0.0932027 0.0737931
0.0592155 0.0397602 0.0251588 0.00568196 -0.00892731 -0.0284027 -0.0430026
-0.0575935 -0.0770282 -0.0915852 -0.110965 -0.125471 -0.144772 -0.159213
-0.17841 -0.192766 -0.207083 -0.226096 -0.240303 -0.259164 -0.273246
-0.291933 -0.305872 -0.324362 -0.338146 -0.351856 -0.370024 -0.383558
-0.401469 -0.414809 -0.432449 -0.445576 -0.462931 -0.475828 -0.488626
-0.505531 -0.518079 -0.534649 -0.546933 -0.563133 -0.575151 -0.590968
-0.602691 -0.61429 -0.629535 -0.64082 -0.655653 -0.666611 -0.681013
-0.691631 0.790398 0.781372 0.77217 0.759641 0.750065 0.737033 0.727082
0.713574 0.70326 0.689291 0.678626 0.66782 0.653208 0.642069 0.627014
0.615573 0.600096 0.588349 0.572486 0.560446 0.548289 0.531896 0.519467
0.502732 0.490045 0.472975 0.460056 0.442668 0.429524 0.41629 0.398494
0.385055 0.367004 0.353375 0.321287;
#X coords 0 1 99 -1 200 140 1;
#X restore 391 352 graph;
#X obj 98 323 tabwrite array100;
#N canvas 0 22 458 308 counter 0;
#X obj 87 68 inlet;
#X obj 220 68 inlet;
#X obj 136 217 outlet;
#X obj 145 132 int;
#X obj 179 133 + 1;
#X obj 150 152 sel 100;
#X msg 116 140 0;
#X text 8 43 bang counts \, number sets;
#X text 220 51 comment;
#X text 217 51 set wrap around;
#X connect 0 0 3 0;
#X connect 1 0 5 1;
#X connect 3 0 4 0;
#X connect 3 0 5 0;
#X connect 4 0 3 1;
#X connect 5 0 6 0;
#X connect 5 1 2 0;
#X connect 6 0 3 1;
#X restore 248 296 pd counter;
#X obj 249 278 bng 15 250 50 0 empty empty empty 0 -6 0 8 -262144 -1
-1;
#X obj 137 370 outlet~;
#X obj 232 373 outlet;
#X text 99 426 this patch is messy as hell;
#X text 103 441 someday it will be clean;
#X obj 335 57 * 4000;
#X obj 278 179 metro 5;
#X connect 0 0 15 0;
#X connect 0 0 4 0;
#X connect 1 0 11 0;
#X connect 1 0 26 0;
#X connect 2 0 31 0;
#X connect 3 0 18 1;
#X connect 3 0 31 1;
#X connect 4 0 1 0;
#X connect 5 0 3 0;
#X connect 6 0 5 0;
#X connect 8 0 2 0;
#X connect 9 0 2 0;
#X connect 9 0 4 0;
#X connect 11 0 19 1;
#X connect 11 0 23 0;
#X connect 11 0 27 0;
#X connect 14 0 15 0;
#X connect 15 0 8 0;
#X connect 15 2 16 0;
#X connect 15 2 30 0;
#X connect 16 0 9 0;
#X connect 18 0 17 1;
#X connect 18 0 20 0;
#X connect 19 0 17 0;
#X connect 20 0 19 0;
#X connect 24 0 23 1;
#X connect 25 0 24 0;
#X connect 31 0 11 0;
#X connect 31 0 18 0;
#X connect 31 0 25 0;
#X restore 45 126 pd lfo;
#X obj 135 567 r~ lfo;
#X obj 48 109 hsl 76 15 0.001 2 0 0 empty empty empty -2 -6 0 8 -262144
-1 -1 2000 1;
#X obj 14 111 tgl 30 0 empty empty empty 0 -6 0 8 -262144 -1 -1 1 1
;
#X floatatom 89 125 5 0 0 0 - - -;
#X floatatom 82 147 5 0 0 0 - - -;
#X obj 98 175 + 0.5;
#X text 18 97 LFO;
#X text 129 125 LFO Freq;
#X obj 97 194 * 63;
#N canvas 298 137 662 561 lfo 0;
#X obj 28 52 inlet;
#X obj 53 194 osc~;
#X obj 278 160 tgl 15 0 empty empty empty 0 -6 0 8 -262144 -1 -1 1
1;
#X floatatom 336 157 5 0 0 0 - - -;
#X floatatom 67 170 5 0 0 0 - - -;
#N canvas 0 22 458 308 tempo2ms 0;
#X obj 280 135 inlet;
#X text 322 136 BPM;
#X obj 264 302 /;
#X msg 231 265 1;
#X obj 231 238 del 20;
#X obj 280 194 / 60000;
#X obj 264 334 outlet;
#X connect 0 0 5 0;
#X connect 2 0 6 0;
#X connect 3 0 2 0;
#X connect 4 0 3 0;
#X connect 5 0 2 1;
#X connect 5 0 4 0;
#X restore 336 131 pd tempo2ms;
#X floatatom 336 110 5 0 0 0 - - -;
#X text 106 170 Fundamental Frequency;
#X msg 206 136 0;
#X msg 242 128 1;
#X text 11 34 freq \, or 1=on \, 0=off;
#X obj 254 238 snapshot~;
#X text 211 4 LFO;
#X text 283 86 determine sample rate;
#X floatatom 216 50 5 0 0 0 - - -;
#X obj 212 76 sel 0 1;
#X obj 251 104 bng 15 250 50 0 empty empty empty 0 -6 0 8 -262144 -1
-1;
#X obj 420 251 line;
#X obj 449 193 float;
#X obj 391 232 float;
#X obj 427 211 bng 15 250 50 0 empty empty empty 0 -6 0 8 -262144 -1
-1;
#X obj 12 245 s~ lfo;
#N canvas 0 22 450 300 graph2 0;
#X array array100 100 float 3;
#A 0 0.776404 0.785528 0.79449 0.806162 0.814719 0.825864 0.834008
0.844609 0.852335 0.862356 0.869668 0.876784 0.885977 0.892665 0.901264
0.907499 0.915509 0.921285 0.928698 0.934007 0.939121 0.945651 0.95029
0.956173 0.960359 0.96559 0.96929 0.973892 0.977102 0.980108 0.983785
0.986297 0.989333 0.991346 0.993719 0.995251 0.996945 0.997983 0.999019
0.999554 0.999881 0.99997 0.999793 0.999233 0.998552 0.997334 0.996157
0.994258 0.9926 0.99072 0.987876 0.985513 0.0659041 0.0804741 0.0998745
0.114399 0.133729 0.148192 0.162623 0.181812 0.196158 0.215219 0.229464
0.248376 0.262501 0.281247 0.295235 0.309161 0.327628 0.341394 0.359643
0.373232 0.391231 0.404638 0.422367 0.435565 0.448673 0.465989 0.478867
0.495876 0.508507 0.52519 0.537561 0.553885 0.565994 0.577971 0.593757
0.605455 0.620832 0.632221 0.64719 0.658256 0.672801 0.683532 0.69412
0.708018 0.718253 0.731675 0.741557 0.763988;
#X coords 0 1 99 -1 200 140 1;
#X restore 391 352 graph;
#N canvas 0 22 458 308 counter 0;
#X obj 87 68 inlet;
#X obj 220 68 inlet;
#X obj 136 217 outlet;
#X obj 145 132 int;
#X obj 179 133 + 1;
#X obj 150 152 sel 100;
#X msg 116 140 0;
#X text 8 43 bang counts \, number sets;
#X text 220 51 comment;
#X text 217 51 set wrap around;
#X connect 0 0 3 0;
#X connect 1 0 5 1;
#X connect 3 0 4 0;
#X connect 3 0 5 0;
#X connect 4 0 3 1;
#X connect 5 0 6 0;
#X connect 5 1 2 0;
#X connect 6 0 3 1;
#X restore 248 296 pd counter;
#X obj 249 278 bng 15 250 50 0 empty empty empty 0 -6 0 8 -262144 -1
-1;
#X obj 137 370 outlet~;
#X obj 232 373 outlet;
#X text 99 426 this patch is messy as hell;
#X text 103 441 someday it will be clean;
#X obj 335 57 * 4000;
#X obj 278 179 metro 5;
#X connect 0 0 15 0;
#X connect 0 0 4 0;
#X connect 1 0 11 0;
#X connect 1 0 25 0;
#X connect 2 0 30 0;
#X connect 3 0 18 1;
#X connect 3 0 30 1;
#X connect 4 0 1 0;
#X connect 5 0 3 0;
#X connect 6 0 5 0;
#X connect 8 0 2 0;
#X connect 9 0 2 0;
#X connect 9 0 4 0;
#X connect 11 0 19 1;
#X connect 11 0 26 0;
#X connect 14 0 15 0;
#X connect 15 0 8 0;
#X connect 15 2 16 0;
#X connect 15 2 29 0;
#X connect 16 0 9 0;
#X connect 18 0 17 1;
#X connect 18 0 20 0;
#X connect 19 0 17 0;
#X connect 20 0 19 0;
#X connect 24 0 23 0;
#X connect 30 0 11 0;
#X connect 30 0 18 0;
#X connect 30 0 24 0;
#X restore 34 36 pd lfo;
#X obj 37 19 hsl 76 15 0.001 2 0 0 empty empty empty -2 -6 0 8 -262144
-1 -1 4000 1;
#X obj 3 21 tgl 30 0 empty empty empty 0 -6 0 8 -262144 -1 -1 1 1;
#X floatatom 78 35 5 0 0 0 - - -;
#X floatatom 71 57 5 0 0 0 - - -;
#X text 7 7 LFO;
#X text 118 35 LFO Freq;
#X obj 93 283 +;
#X obj 82 88 *;
#X obj 122 84 hsl 128 15 0 127 0 0 empty empty empty -2 -6 0 8 -262144
-1 -1 8200 1;
#X connect 0 0 7 2;
#X connect 0 1 23 2;
#X connect 0 2 25 2;
#X connect 0 3 24 2;
#X connect 0 4 26 2;
#X connect 1 0 0 1;
#X connect 7 0 44 0;
#X connect 8 0 21 0;
#X connect 9 0 21 1;
#X connect 10 0 21 2;
#X connect 11 0 21 4;
#X connect 12 0 22 0;
#X connect 21 0 0 0;
#X connect 22 0 0 0;
#X connect 23 0 45 0;
#X connect 24 0 47 0;
#X connect 25 0 46 0;
#X connect 26 0 48 0;
#X connect 28 0 7 1;
#X connect 29 0 23 1;
#X connect 30 0 25 1;
#X connect 31 0 24 1;
#X connect 32 0 26 1;
#X connect 33 0 7 0;
#X connect 34 0 73 1;
#X connect 35 0 25 0;
#X connect 36 0 24 0;
#X connect 37 0 26 0;
#X connect 38 0 7 0;
#X connect 39 0 23 0;
#X connect 40 0 25 0;
#X connect 41 0 24 0;
#X connect 42 0 26 0;
#X connect 44 0 43 0;
#X connect 44 1 43 1;
#X connect 45 0 43 0;
#X connect 45 1 43 1;
#X connect 46 0 43 0;
#X connect 46 1 43 1;
#X connect 47 0 43 0;
#X connect 47 1 43 1;
#X connect 48 0 43 0;
#X connect 48 1 43 1;
#X connect 49 0 44 1;
#X connect 50 0 45 1;
#X connect 51 0 46 1;
#X connect 52 0 47 1;
#X connect 53 0 48 1;
#X connect 56 1 61 0;
#X connect 57 0 43 1;
#X connect 58 0 56 0;
#X connect 58 0 60 0;
#X connect 59 0 56 0;
#X connect 61 0 62 0;
#X connect 62 0 65 0;
#X connect 65 0 49 0;
#X connect 65 0 50 0;
#X connect 66 1 70 0;
#X connect 67 0 66 0;
#X connect 67 0 69 0;
#X connect 68 0 66 0;
#X connect 70 0 74 0;
#X connect 73 0 23 0;
#X connect 74 0 73 0;
#X connect 75 0 74 1;
