#N canvas 319 29 315 671 10;
#N canvas 85 38 556 572 pulsilator 0;
#N canvas 108 41 631 693 overtonepatch 0;
#X obj 96 454 outlet~;
#N canvas 566 287 446 360 overtone 0;
#X obj 127 121 osc~;
#X floatatom 182 126 5 0 0 0 - - -;
#X obj 32 31 inlet;
#X obj 147 181 outlet~;
#X obj 182 64 inlet;
#X obj 182 102 route 0;
#X obj 127 92 * 1;
#X text 74 30 represents the overtone;
#X text 223 64 reps the presence;
#X floatatom 66 128 5 0 0 0 - - -;
#X obj 146 156 *~;
#X connect 0 0 10 0;
#X connect 1 0 10 1;
#X connect 2 0 6 0;
#X connect 4 0 5 0;
#X connect 5 0 1 0;
#X connect 6 0 0 0;
#X connect 6 0 9 0;
#X connect 10 0 3 0;
#X restore 221 219 pd overtone;
#N canvas 0 22 490 340 overtone 0;
#X obj 268 256 osc~;
#X floatatom 323 261 5 0 0 0 - - -;
#X obj 173 166 inlet;
#X obj 288 316 outlet~;
#X obj 323 199 inlet;
#X text 215 165 represents the overtone;
#X text 364 199 reps the presence;
#X obj 268 227 * 2;
#X obj 323 237 route 1;
#X obj 287 291 *~;
#X connect 0 0 9 0;
#X connect 1 0 9 1;
#X connect 2 0 7 0;
#X connect 4 0 8 0;
#X connect 7 0 0 0;
#X connect 8 0 1 0;
#X connect 9 0 3 0;
#X restore 232 243 pd overtone;
#N canvas 0 22 482 332 overtone 0;
#X obj 268 256 osc~;
#X floatatom 323 261 5 0 0 0 - - -;
#X obj 173 166 inlet;
#X obj 288 316 outlet~;
#X obj 323 199 inlet;
#X text 215 165 represents the overtone;
#X text 364 199 reps the presence;
#X obj 268 227 * 3;
#X obj 323 237 route 2;
#X obj 287 291 *~;
#X connect 0 0 9 0;
#X connect 1 0 9 1;
#X connect 2 0 7 0;
#X connect 4 0 8 0;
#X connect 7 0 0 0;
#X connect 8 0 1 0;
#X connect 9 0 3 0;
#X restore 244 266 pd overtone;
#N canvas 0 22 490 340 overtone 0;
#X obj 268 256 osc~;
#X floatatom 323 261 5 0 0 0 - - -;
#X obj 173 166 inlet;
#X obj 288 316 outlet~;
#X obj 323 199 inlet;
#X text 215 165 represents the overtone;
#X text 364 199 reps the presence;
#X obj 268 227 * 4;
#X obj 323 237 route 3;
#X obj 287 291 *~;
#X connect 0 0 9 0;
#X connect 1 0 9 1;
#X connect 2 0 7 0;
#X connect 4 0 8 0;
#X connect 7 0 0 0;
#X connect 8 0 1 0;
#X connect 9 0 3 0;
#X restore 254 290 pd overtone;
#N canvas 0 22 474 324 overtone 0;
#X obj 268 256 osc~;
#X floatatom 323 261 5 0 0 0 - - -;
#X obj 173 166 inlet;
#X obj 288 316 outlet~;
#X obj 323 199 inlet;
#X text 215 165 represents the overtone;
#X text 364 199 reps the presence;
#X obj 268 227 * 5;
#X obj 323 237 route 4;
#X obj 287 291 *~;
#X connect 0 0 9 0;
#X connect 1 0 9 1;
#X connect 2 0 7 0;
#X connect 4 0 8 0;
#X connect 7 0 0 0;
#X connect 8 0 1 0;
#X connect 9 0 3 0;
#X restore 263 314 pd overtone;
#N canvas 0 22 482 332 overtone 0;
#X obj 268 256 osc~;
#X floatatom 323 261 5 0 0 0 - - -;
#X obj 173 166 inlet;
#X obj 288 316 outlet~;
#X obj 323 199 inlet;
#X text 215 165 represents the overtone;
#X text 364 199 reps the presence;
#X obj 268 227 * 6;
#X obj 323 237 route 5;
#X obj 287 291 *~;
#X connect 0 0 9 0;
#X connect 1 0 9 1;
#X connect 2 0 7 0;
#X connect 4 0 8 0;
#X connect 7 0 0 0;
#X connect 8 0 1 0;
#X connect 9 0 3 0;
#X restore 273 337 pd overtone;
#N canvas 0 22 478 328 overtone 0;
#X obj 268 256 osc~;
#X floatatom 323 261 5 0 0 0 - - -;
#X obj 173 166 inlet;
#X obj 288 316 outlet~;
#X obj 323 199 inlet;
#X text 215 165 represents the overtone;
#X text 364 199 reps the presence;
#X obj 268 227 * 7;
#X obj 323 237 route 6;
#X obj 287 291 *~;
#X connect 0 0 9 0;
#X connect 1 0 9 1;
#X connect 2 0 7 0;
#X connect 4 0 8 0;
#X connect 7 0 0 0;
#X connect 8 0 1 0;
#X connect 9 0 3 0;
#X restore 287 361 pd overtone;
#N canvas 0 22 482 332 overtone 0;
#X obj 268 256 osc~;
#X floatatom 323 261 5 0 0 0 - - -;
#X obj 173 166 inlet;
#X obj 288 316 outlet~;
#X obj 323 199 inlet;
#X text 215 165 represents the overtone;
#X text 364 199 reps the presence;
#X obj 268 227 * 8;
#X obj 322 237 route 7;
#X obj 287 291 *~;
#X connect 0 0 9 0;
#X connect 1 0 9 1;
#X connect 2 0 7 0;
#X connect 4 0 8 0;
#X connect 7 0 0 0;
#X connect 8 0 1 0;
#X connect 9 0 3 0;
#X restore 296 388 pd overtone;
#X obj 361 73 tabread OverTone;
#X obj 338 118 pack;
#X obj 36 104 inlet;
#X text 18 85 pitch of the fundamental;
#X obj 361 97 / 127;
#N canvas 0 22 470 320 countto7 0;
#X floatatom 250 207 5 0 0 0 - - -;
#X obj 248 178 int;
#X obj 320 177 + 1;
#X msg 120 108 0;
#X obj 209 132 bng 15 250 50 0 empty empty empty 0 -6 0 8 -262144 -1
-1;
#X obj 121 80 sel 7;
#X obj 238 256 outlet;
#X obj 229 68 inlet;
#X obj 121 53 pipe 15;
#X text 224 51 recieve any input;
#X text 150 276 counts from 0 to (whatever sel has);
#X connect 0 0 6 0;
#X connect 0 0 8 0;
#X connect 1 0 2 0;
#X connect 1 0 0 0;
#X connect 2 0 1 1;
#X connect 3 0 1 1;
#X connect 4 0 1 0;
#X connect 5 0 3 0;
#X connect 5 1 4 0;
#X connect 7 0 4 0;
#X connect 8 0 5 0;
#X restore 361 42 pd countto7;
#X obj 361 17 r SetWavShape1;
#N canvas 173 60 869 657 WavShape 0;
#X obj 300 414 tabwrite OverTone;
#X obj 239 159 sel 0 1 2 3 4;
#X msg 223 272 50 0 \, 25 1 \, 0 2 \, 12.5 3 \, 0 4 \, 6.25 5 \, 0
6 \, 3.125 7 \, 0 8;
#X msg 283 307 50 0 \, 0 1 \, 25 2 \, 0 3 \, 12.5 4 \, 0 5 \, 6.25
6 \, 0 7 \, 3.125 8;
#X msg 317 343 40 0 \, 20 1 \, 10 2 \, 5 3 \, 2.5 4 \, 1.25 5 \, 0.625
6 \, 0.3125 7 \, 0.15625 8;
#X obj 116 261 del 15;
#X obj 139 380 s SetWavShape1;
#X obj 563 129 vradio 15 1 0 4 empty empty empty 0 -6 0 8 -262144 -1
-1 0;
#X floatatom 563 198 5 0 0 0 - - -;
#X text 582 129 sin;
#X text 583 144 square;
#X text 582 176 sawtooth;
#X text 582 161 clarinet;
#X obj 241 127 r wavpreset;
#X msg 159 244 60 0 \, 0 1 \, 0 2 \, 0 3 \, 0 4 \, 0 5 \, 0 6 \, 0
7 \, 0 8;
#X msg 218 203 0 0 \, 0 1 \, 0 2 \, 0 3 \, 0 4 \, 0 5 \, 0 6 \, 0 7
\, 0 8;
#X connect 1 0 14 0;
#X connect 1 1 2 0;
#X connect 1 2 3 0;
#X connect 1 3 4 0;
#X connect 1 4 15 0;
#X connect 2 0 0 0;
#X connect 3 0 0 0;
#X connect 4 0 0 0;
#X connect 5 0 6 0;
#X connect 7 0 8 0;
#X connect 13 0 1 0;
#X connect 13 0 5 0;
#X connect 14 0 0 0;
#X connect 15 0 0 0;
#X restore 37 296 pd WavShape;
#X obj 342 442 noise~;
#X obj 304 505 *~ 0;
#X obj 402 467 r whitenoise;
#X obj 375 503 *;
#X connect 1 0 0 0;
#X connect 2 0 0 0;
#X connect 3 0 0 0;
#X connect 4 0 0 0;
#X connect 5 0 0 0;
#X connect 6 0 0 0;
#X connect 7 0 0 0;
#X connect 8 0 0 0;
#X connect 9 0 13 0;
#X connect 10 0 1 1;
#X connect 10 0 2 1;
#X connect 10 0 3 1;
#X connect 10 0 4 1;
#X connect 10 0 5 1;
#X connect 10 0 6 1;
#X connect 10 0 7 1;
#X connect 10 0 8 1;
#X connect 11 0 1 0;
#X connect 11 0 2 0;
#X connect 11 0 3 0;
#X connect 11 0 4 0;
#X connect 11 0 5 0;
#X connect 11 0 6 0;
#X connect 11 0 7 0;
#X connect 11 0 8 0;
#X connect 13 0 10 1;
#X connect 14 0 9 0;
#X connect 14 0 10 0;
#X connect 15 0 14 0;
#X connect 17 0 18 0;
#X connect 18 0 0 0;
#X connect 19 0 20 1;
#X connect 19 0 20 0;
#X connect 20 0 18 1;
#X restore 46 202 pd overtonepatch;
#X obj 196 104 tgl 15 0 empty empty empty 0 -6 0 8 -262144 -1 -1 0
1;
#N canvas 0 22 211 277 tempo2ms 0;
#X obj 89 29 inlet;
#X text 131 30 BPM;
#X obj 73 196 /;
#X msg 40 159 1;
#X obj 40 132 del 20;
#X obj 89 88 / 60000;
#X obj 73 228 outlet;
#X connect 0 0 5 0;
#X connect 2 0 6 0;
#X connect 3 0 2 0;
#X connect 4 0 3 0;
#X connect 5 0 2 1;
#X connect 5 0 4 0;
#X restore 314 61 pd tempo2ms;
#X text 387 23 BPM;
#X obj 122 59 sel 0 1;
#X msg 181 82 0;
#X msg 217 74 1;
#X text 56 7 freq \, or 1=on \, 0=off;
#X text 312 8 tempo;
#X obj 178 428 outlet~;
#X obj 166 294 *~;
#N canvas 541 226 506 356 EnvelopeRead 0;
#N canvas 0 22 470 320 attackenv 0;
#X obj 108 198 outlet;
#X obj 109 104 tgl 15 0 empty empty empty 0 -6 0 8 -262144 -1 -1 0
1;
#N canvas 0 22 478 328 indexer 0;
#X obj 157 124 int;
#X obj 204 125 + 1;
#X msg 243 181 0;
#X obj 248 94 inlet;
#X obj 158 87 bng 15 250 50 0 empty empty empty 0 -6 0 8 -262144 -1
-1;
#X obj 185 154 sel 63;
#X obj 129 193 outlet;
#X obj 105 64 inlet;
#X text 96 49 bang to count;
#X text 241 76 set index max;
#X obj 217 209 outlet;
#X text 218 226 done!;
#X text 120 208 count;
#X connect 0 0 1 0;
#X connect 0 0 5 0;
#X connect 0 0 6 0;
#X connect 1 0 0 1;
#X connect 2 0 0 1;
#X connect 3 0 5 1;
#X connect 4 0 0 0;
#X connect 5 0 2 0;
#X connect 5 0 10 0;
#X connect 7 0 0 0;
#X restore 109 145 pd indexer;
#X obj 108 124 metro 2;
#X obj 155 103 * 0.015873;
#X obj 154 83 inlet;
#X obj 75 48 inlet;
#X msg 102 74 0;
#X msg 71 74 1;
#X text 139 69 attack time in ms;
#X text 73 34 attack;
#X text 79 214 attack enveloped;
#X obj 231 209 outlet;
#X text 234 225 done!;
#X obj 109 166 tabread drawimpulse;
#X connect 1 0 3 0;
#X connect 2 0 14 0;
#X connect 2 1 7 0;
#X connect 2 1 12 0;
#X connect 3 0 2 0;
#X connect 4 0 3 1;
#X connect 5 0 4 0;
#X connect 6 0 8 0;
#X connect 7 0 1 0;
#X connect 8 0 1 0;
#X connect 14 0 0 0;
#X restore 30 127 pd attackenv;
#X obj 30 109 bng 15 250 50 0 empty empty empty 0 -6 0 8 -262144 -1
-1;
#N canvas 0 22 474 324 sustain 0;
#X obj 72 53 inlet;
#X obj 392 10 inlet;
#X obj 142 252 outlet;
#X obj 302 268 outlet;
#X text 310 280 done!;
#X obj 226 195 line;
#X obj 315 109 bng 15 250 50 0 empty empty empty 0 -6 0 8 -262144 -1
-1;
#X obj 315 125 float;
#X obj 36 161 float;
#X obj 288 78 tabread drawdecay;
#X obj 172 128 tabread drawimpulse;
#X msg 170 105 63;
#X msg 215 157 0;
#X msg 287 57 0;
#X obj 73 85 bng 15 250 50 0 empty empty empty 0 -6 0 8 -262144 -1
-1;
#X obj 340 197 metro;
#X msg 306 175 1;
#X msg 338 164 0;
#X obj 344 219 int;
#X obj 370 220 + 1;
#X obj 380 247 sel 1;
#X obj 368 279 del 5;
#X connect 0 0 14 0;
#X connect 1 0 7 1;
#X connect 1 0 15 1;
#X connect 5 0 2 0;
#X connect 6 0 7 0;
#X connect 6 0 16 0;
#X connect 7 0 5 1;
#X connect 9 0 6 0;
#X connect 9 0 5 0;
#X connect 10 0 12 0;
#X connect 10 0 5 0;
#X connect 11 0 10 0;
#X connect 12 0 5 1;
#X connect 13 0 9 0;
#X connect 14 0 13 0;
#X connect 15 0 18 0;
#X connect 16 0 15 0;
#X connect 17 0 15 0;
#X connect 17 0 18 1;
#X connect 18 0 19 0;
#X connect 18 0 20 0;
#X connect 19 0 18 1;
#X connect 20 0 17 0;
#X connect 20 0 3 0;
#X connect 20 0 21 0;
#X connect 21 0 11 0;
#X restore 143 124 pd sustain;
#X obj 234 113 bng 15 250 50 0 empty empty empty 0 -6 0 8 -262144 -1
-1;
#N canvas 0 22 474 324 releaseenv 0;
#X obj 108 198 outlet;
#X obj 109 104 tgl 15 0 empty empty empty 0 -6 0 8 -262144 -1 -1 0
1;
#N canvas 0 22 470 320 indexer 0;
#X obj 157 124 int;
#X obj 204 125 + 1;
#X msg 243 181 0;
#X obj 248 94 inlet;
#X obj 158 87 bng 15 250 50 0 empty empty empty 0 -6 0 8 -262144 -1
-1;
#X obj 185 154 sel 63;
#X obj 129 193 outlet;
#X obj 105 64 inlet;
#X text 96 49 bang to count;
#X text 241 76 set index max;
#X obj 217 209 outlet;
#X text 218 226 done!;
#X text 120 208 count;
#X connect 0 0 1 0;
#X connect 0 0 5 0;
#X connect 0 0 6 0;
#X connect 1 0 0 1;
#X connect 2 0 0 1;
#X connect 3 0 5 1;
#X connect 4 0 0 0;
#X connect 5 0 2 0;
#X connect 5 0 10 0;
#X connect 7 0 0 0;
#X restore 109 145 pd indexer;
#X obj 109 166 tabread drawdecay;
#X obj 109 124 metro 2;
#X obj 155 103 * 0.015873;
#X obj 154 83 inlet;
#X obj 75 48 inlet;
#X msg 102 74 0;
#X msg 71 74 1;
#X text 139 69 attack time in ms;
#X text 73 34 attack;
#X text 79 214 attack enveloped;
#X obj 231 209 outlet;
#X text 234 225 done!;
#X connect 1 0 4 0;
#X connect 2 0 3 0;
#X connect 2 1 8 0;
#X connect 2 1 13 0;
#X connect 3 0 0 0;
#X connect 4 0 2 0;
#X connect 5 0 4 1;
#X connect 6 0 5 0;
#X connect 7 0 9 0;
#X connect 8 0 1 0;
#X connect 9 0 1 0;
#X restore 234 130 pd releaseenv;
#X obj 30 86 inlet;
#X obj 255 215 outlet;
#X obj 290 109 int;
#X obj 72 107 int;
#X obj 169 104 int;
#X obj 255 193 +;
#X obj 254 171 +;
#X obj 144 105 bng 15 250 50 0 empty empty empty 0 -6 0 8 -262144 -1
-1;
#X text 250 236 time to repeat in ms;
#X obj 108 86 r attacktime1;
#X obj 209 85 r sustaintime1;
#X obj 321 85 r releasetime1;
#X text 68 324 envelope (0-1);
#X obj 93 249 *;
#X obj 91 277 *;
#X obj 104 216 *;
#X obj 88 306 outlet;
#X text 41 335 [with a ^8 curve slapped on it];
#X connect 0 0 20 0;
#X connect 0 0 20 1;
#X connect 0 1 12 0;
#X connect 1 0 0 0;
#X connect 1 0 8 0;
#X connect 2 0 20 0;
#X connect 2 0 20 1;
#X connect 2 1 3 0;
#X connect 3 0 4 0;
#X connect 3 0 7 0;
#X connect 4 0 20 0;
#X connect 4 0 20 1;
#X connect 5 0 1 0;
#X connect 7 0 11 0;
#X connect 8 0 10 1;
#X connect 9 0 11 1;
#X connect 10 0 6 0;
#X connect 11 0 10 0;
#X connect 12 0 2 0;
#X connect 12 0 9 0;
#X connect 14 0 0 1;
#X connect 14 0 8 1;
#X connect 15 0 2 1;
#X connect 15 0 9 1;
#X connect 16 0 4 1;
#X connect 16 0 7 1;
#X connect 18 0 19 1;
#X connect 18 0 19 0;
#X connect 19 0 21 0;
#X connect 20 0 18 1;
#X connect 20 0 18 0;
#X restore 212 157 pd EnvelopeRead;
#X obj 196 132 metro 144;
#N canvas 0 94 702 601 lfo 0;
#X obj 53 194 osc~;
#X obj 278 160 tgl 15 0 empty empty empty 0 -6 0 8 -262144 -1 -1 0
1;
#X floatatom 336 157 5 0 0 0 - - -;
#X floatatom 67 170 5 0 0 0 - - -;
#N canvas 0 22 458 308 tempo2ms 0;
#X obj 280 135 inlet;
#X text 322 136 BPM;
#X obj 264 302 /;
#X msg 231 265 1;
#X obj 231 238 del 20;
#X obj 280 194 / 60000;
#X obj 264 334 outlet;
#X connect 0 0 5 0;
#X connect 2 0 6 0;
#X connect 3 0 2 0;
#X connect 4 0 3 0;
#X connect 5 0 2 1;
#X connect 5 0 4 0;
#X restore 336 131 pd tempo2ms;
#X floatatom 336 110 5 0 0 0 - - -;
#X text 106 170 Fundamental Frequency;
#X msg 206 136 0;
#X msg 242 128 1;
#X text 11 34 freq \, or 1=on \, 0=off;
#X obj 257 202 snapshot~;
#X text 211 4 LFO;
#X text 283 86 determine sample rate;
#X obj 212 76 sel 0 1;
#X obj 251 104 bng 15 250 50 0 empty empty empty 0 -6 0 8 -262144 -1
-1;
#X obj 420 251 line;
#X obj 449 193 float;
#X obj 391 232 float;
#X obj 427 211 bng 15 250 50 0 empty empty empty 0 -6 0 8 -262144 -1
-1;
#X obj 12 245 s~ lfo;
#X obj 137 370 outlet~;
#X obj 284 348 outlet;
#X text 99 426 this patch is messy as hell;
#X text 103 441 someday it will be clean;
#X obj 335 57 * 4000;
#X obj 278 179 metro 5;
#X obj 316 249 r LFOwsley2;
#X obj 285 269 * 1;
#X obj 29 50 r LFOwsley1;
#X obj 76 102 *;
#X obj 67 122 *;
#X obj 65 146 * 2;
#X connect 0 0 10 0;
#X connect 0 0 20 0;
#X connect 1 0 25 0;
#X connect 2 0 16 1;
#X connect 2 0 25 1;
#X connect 3 0 0 0;
#X connect 4 0 2 0;
#X connect 5 0 4 0;
#X connect 7 0 1 0;
#X connect 8 0 1 0;
#X connect 10 0 17 1;
#X connect 10 0 27 0;
#X connect 13 0 7 0;
#X connect 13 1 14 0;
#X connect 13 2 14 0;
#X connect 13 2 24 0;
#X connect 14 0 8 0;
#X connect 16 0 15 1;
#X connect 16 0 18 0;
#X connect 17 0 15 0;
#X connect 18 0 17 0;
#X connect 25 0 10 0;
#X connect 25 0 16 0;
#X connect 26 0 27 1;
#X connect 27 0 21 0;
#X connect 28 0 13 0;
#X connect 28 0 29 0;
#X connect 28 0 29 1;
#X connect 29 0 30 0;
#X connect 29 0 30 1;
#X connect 30 0 31 0;
#X connect 31 0 3 0;
#X restore 10 158 pd lfo;
#X obj 46 179 +;
#X floatatom 312 181 5 0 0 0 - - -;
#X obj 59 139 bng 15 250 50 0 empty empty empty 0 -6 0 8 -262144 -1
-1;
#N canvas 0 22 474 324 panpot 0;
#X obj 105 47 inlet~;
#X obj 269 46 inlet;
#X obj 90 168 *~;
#X obj 304 166 *~;
#X obj 280 78 / 127;
#X obj 187 134 - 1;
#X obj 186 157 * -1;
#X obj 133 250 outlet~;
#X obj 276 254 outlet~;
#X obj 182 26 loadbang;
#X msg 182 47 0.5;
#X obj 362 147 s panrec;
#X msg 358 118 63;
#X connect 0 0 3 0;
#X connect 0 0 2 0;
#X connect 1 0 4 0;
#X connect 2 0 8 0;
#X connect 3 0 7 0;
#X connect 4 0 3 1;
#X connect 4 0 5 0;
#X connect 5 0 6 0;
#X connect 6 0 2 1;
#X connect 9 0 10 0;
#X connect 10 0 2 1;
#X connect 10 0 3 1;
#X connect 12 0 11 0;
#X restore 178 365 pd panpot;
#X obj 236 428 outlet~;
#N canvas 298 137 560 466 lfoPAN 0;
#X obj 53 194 osc~;
#X obj 278 160 tgl 15 0 empty empty empty 0 -6 0 8 -262144 -1 -1 0
1;
#X floatatom 67 170 5 0 0 0 - - -;
#N canvas 0 22 458 308 tempo2ms 0;
#X obj 280 135 inlet;
#X text 322 136 BPM;
#X obj 264 302 /;
#X msg 231 265 1;
#X obj 231 238 del 20;
#X obj 280 194 / 60000;
#X obj 264 334 outlet;
#X connect 0 0 5 0;
#X connect 2 0 6 0;
#X connect 3 0 2 0;
#X connect 4 0 3 0;
#X connect 5 0 2 1;
#X connect 5 0 4 0;
#X restore 336 131 pd tempo2ms;
#X text 106 170 Fundamental Frequency;
#X msg 206 136 0;
#X msg 242 128 1;
#X text 11 34 freq \, or 1=on \, 0=off;
#X obj 257 202 snapshot~;
#X text 216 6 LFO;
#X obj 212 76 sel 0 1;
#X obj 251 104 bng 15 250 50 0 empty empty empty 0 -6 0 8 -262144 -1
-1;
#X obj 12 245 s~ lfo;
#X obj 137 370 outlet~;
#X obj 172 313 outlet;
#X text 251 332 this patch is messy as hell;
#X text 255 347 someday it will be clean;
#X obj 278 179 metro 5;
#X obj 285 269 * 1;
#X obj 316 249 r LFOPAN2;
#X obj 29 50 r LFOPAN1;
#X obj 124 136 *;
#X connect 0 0 8 0;
#X connect 0 0 13 0;
#X connect 1 0 17 0;
#X connect 2 0 0 0;
#X connect 5 0 1 0;
#X connect 6 0 1 0;
#X connect 8 0 18 0;
#X connect 10 0 5 0;
#X connect 10 1 11 0;
#X connect 10 2 11 0;
#X connect 10 2 21 1;
#X connect 10 2 21 0;
#X connect 11 0 6 0;
#X connect 17 0 8 0;
#X connect 18 0 14 0;
#X connect 19 0 18 1;
#X connect 20 0 10 0;
#X connect 21 0 2 0;
#X restore 252 312 pd lfoPAN;
#X obj 311 348 +;
#X obj 329 312 r panset;
#N canvas 298 137 556 462 lfoPAN 0;
#X obj 53 194 osc~;
#X obj 278 160 tgl 15 0 empty empty empty 0 -6 0 8 -262144 -1 -1 0
1;
#X floatatom 67 170 5 0 0 0 - - -;
#N canvas 0 22 458 308 tempo2ms 0;
#X obj 280 135 inlet;
#X text 322 136 BPM;
#X obj 264 302 /;
#X msg 231 265 1;
#X obj 231 238 del 20;
#X obj 280 194 / 60000;
#X obj 264 334 outlet;
#X connect 0 0 5 0;
#X connect 2 0 6 0;
#X connect 3 0 2 0;
#X connect 4 0 3 0;
#X connect 5 0 2 1;
#X connect 5 0 4 0;
#X restore 336 131 pd tempo2ms;
#X text 106 170 Fundamental Frequency;
#X msg 206 136 0;
#X msg 242 128 1;
#X text 11 34 freq \, or 1=on \, 0=off;
#X obj 257 202 snapshot~;
#X text 216 6 LFO;
#X obj 212 76 sel 0 1;
#X obj 251 104 bng 15 250 50 0 empty empty empty 0 -6 0 8 -262144 -1
-1;
#X obj 82 315 outlet~;
#X obj 172 313 outlet;
#X text 251 332 this patch is messy as hell;
#X text 255 347 someday it will be clean;
#X obj 278 179 metro 5;
#X obj 285 269 * 1;
#X obj 316 250 r LFOTEMPO2;
#X obj 29 50 r LFOTEMPO1;
#X obj 53 85 *;
#X obj 59 107 *;
#X obj 61 135 * 2;
#X connect 0 0 8 0;
#X connect 0 0 12 0;
#X connect 1 0 16 0;
#X connect 2 0 0 0;
#X connect 5 0 1 0;
#X connect 6 0 1 0;
#X connect 8 0 17 0;
#X connect 10 0 5 0;
#X connect 10 1 11 0;
#X connect 10 2 11 0;
#X connect 10 2 22 0;
#X connect 11 0 6 0;
#X connect 16 0 8 0;
#X connect 17 0 13 0;
#X connect 18 0 17 1;
#X connect 19 0 20 0;
#X connect 19 0 20 1;
#X connect 20 0 21 0;
#X connect 20 0 21 1;
#X connect 21 0 10 0;
#X connect 22 0 2 0;
#X restore 236 105 pd lfoPAN;
#X obj 318 104 +;
#X obj 304 85 bng 15 250 50 0 empty empty empty 0 -6 0 8 -262144 -1
-1;
#X obj 264 346 bng 15 250 50 0 empty empty empty 0 -6 0 8 -262144 -1
-1;
#X obj 58 25 r FreqOsc;
#X obj 313 22 r TempoOsc;
#X connect 0 0 10 0;
#X connect 1 0 12 0;
#X connect 2 0 23 1;
#X connect 2 0 24 0;
#X connect 4 0 5 0;
#X connect 4 1 6 0;
#X connect 4 2 14 1;
#X connect 5 0 1 0;
#X connect 5 0 10 1;
#X connect 6 0 1 0;
#X connect 10 0 17 0;
#X connect 11 0 10 1;
#X connect 11 1 15 0;
#X connect 12 0 11 0;
#X connect 13 1 14 0;
#X connect 14 0 0 0;
#X connect 16 0 14 0;
#X connect 17 0 9 0;
#X connect 17 1 18 0;
#X connect 19 1 20 0;
#X connect 20 0 17 1;
#X connect 21 0 20 1;
#X connect 21 0 25 0;
#X connect 22 1 23 0;
#X connect 23 0 12 1;
#X connect 24 0 23 0;
#X connect 25 0 20 0;
#X connect 26 0 4 0;
#X connect 26 0 16 0;
#X connect 27 0 2 0;
#X restore 78 567 pd pulsilator one;
#X obj 78 598 s~ Osc1Left;
#X obj 192 596 s~ Osc1Left;
#X obj 61 228 cnv 15 100 60 empty quiggo PITCH 20 12 0 34 -233017 -66577
0;
#X obj 36 620 throw~ throw1Left;
#X obj 163 620 throw~ throw1Left;
#X obj 29 193 tgl 45 0 empty empty empty 0 -6 0 8 -262144 -1 -1 0 1
;
#X floatatom 108 313 5 0 0 0 - - FreqOsc;
#X obj 149 295 tgl 30 0 LFOwsley1 empty empty 0 -6 0 8 -262144 -1 -1
0 1;
#X text 153 281 LFO;
#X obj 184 241 vsl 35 65 0 2 0 0 LFOwsley1 empty empty 0 -8 0 8 -262144
-1 -1 0 1;
#X obj 224 240 vsl 35 65 0 127 0 0 LFOwsley2 empty empty 0 -8 0 8 -262144
-1 -1 0 1;
#X text 188 223 Freq;
#X text 224 224 Range;
#X text 28 178 ON/OFF;
#X obj 107 294 inlet;
#X text 89 250 in frequency;
#X floatatom 184 313 5 0 0 0 - - -;
#X floatatom 225 313 5 0 0 0 - - -;
#X text 104 264 [Hz];
#X obj 58 346 cnv 15 100 45 empty quiggu TEMPO 20 12 0 34 -233017 -66577
0;
#X floatatom 102 421 5 0 0 0 - - TempoOsc;
#X obj 143 405 tgl 30 0 empty empty empty 0 -6 0 8 -262144 -1 -1 0
1;
#X text 147 390 LFO;
#X obj 178 357 vsl 35 75 0 2 0 0 LFOTEMPO1 empty empty 0 -8 0 8 -262144
-1 -1 0 1;
#X obj 218 358 vsl 35 75 0 127 0 0 LFOTEMPO2 empty empty 0 -8 0 8 -262144
-1 -1 0 1;
#X text 180 341 Freq;
#X text 218 341 Range;
#X obj 63 456 cnv 15 192 82 fast quigge PAN -18 66 0 34 -233017 -66577
0;
#X text 109 368 BPM;
#X obj 101 402 inlet;
#X obj 140 506 tgl 30 0 LFOPAN1 empty empty 0 -6 0 8 -262144 -1 -1
0 1;
#X obj 174 460 vsl 35 75 0 2 0 0 LFOPAN1 empty empty 0 -8 0 8 -262144
-1 -1 0 1;
#X obj 214 461 vsl 35 75 0 50 0 0 LFOPAN2 empty empty 0 -8 0 8 -262144
-1 -1 0 1;
#X text 178 536 Freq;
#X text 214 536 Range;
#X obj 76 458 hsl 90 34 0 127 0 0 panset panrec empty -2 -6 0 8 -262144
-1 -1 0 1;
#X text 143 492 LFO;
#X obj 87 166 cnv 15 172 38 fast quiggutt  66 0 0 4 -233017 -262144
0;
#X obj 118 176 cnv 1 148 17 empty quiggot 20 12 0 0 4 -262144 -262144
0;
#N canvas 400 56 663 398 Envelope 0;
#N canvas 0 22 450 300 graph2 0;
#X array drawimpulse 63 float 1;
#A 0 0.0167566 -0.00467208 -0.00467208 0.00247082 0.0167566 0.0203281
0.0238995 0.027471 0.0310424 0.0346139 0.0381853 0.0429473 0.0477092
0.0524711 0.0667569 0.0810427 0.0953285 0.108186 0.121043 0.1339 0.146757
0.159615 0.166758 0.181043 0.195329 0.202472 0.209615 0.216758 0.223901
0.242949 0.254853 0.266758 0.278663 0.290568 0.302473 0.314378 0.326282
0.338187 0.350092 0.367354 0.367354 0.388783 0.410211 0.445926 0.474498
0.488783 0.510212 0.567355 0.588784 0.617356 0.645927 0.667356 0.688785
0.70307 0.714975 0.72688 0.738785 0.760214 0.760214 0.760214 0.760214
0.767357 0.774499;
#X coords 0 1 62 0 200 140 1;
#X restore 57 60 graph;
#N canvas 0 22 450 300 graph5 0;
#X array drawdecay 63 float 1;
#A 0 0.774499 0.774499 0.767357 0.760214 0.760214 0.760214 0.760214
0.738785 0.72688 0.714975 0.70307 0.688785 0.667356 0.645927 0.617356
0.588784 0.567355 0.510212 0.488783 0.474498 0.445926 0.410211 0.388783
0.367354 0.367354 0.350092 0.338187 0.326282 0.314378 0.302473 0.290568
0.278663 0.266758 0.254853 0.242949 0.223901 0.216758 0.209615 0.202472
0.195329 0.181043 0.166758 0.159615 0.146757 0.1339 0.121043 0.108186
0.0953285 0.0810427 0.0667569 0.0524711 0.0477092 0.0429473 0.0381853
0.0346139 0.0310424 0.027471 0.0238995 0.0203281 0.0167566 0.00247082
-0.00467208 -0.00467208;
#X coords 0 1 62 0 200 140 1;
#X restore 343 60 graph;
#N canvas 0 22 458 308 mirror 0;
#X obj 152 138 tabread drawimpulse;
#X obj 152 76 tgl 15 0 empty empty empty 0 -6 0 8 -262144 -1 -1 0 1
;
#N canvas 0 22 474 324 indexer 0;
#X obj 157 124 int;
#X obj 210 121 + 1;
#X msg 243 181 0;
#X obj 248 94 inlet;
#X obj 302 142 bng 15 250 50 0 empty empty empty 0 -6 0 8 -262144 -1
-1;
#X obj 147 215 outlet;
#X obj 105 64 inlet;
#X text 96 49 bang to count;
#X text 241 76 set index max;
#X obj 225 212 outlet;
#X obj 204 153 sel 64;
#X connect 0 0 1 0;
#X connect 0 0 10 0;
#X connect 1 0 0 1;
#X connect 2 0 0 1;
#X connect 3 0 10 1;
#X connect 3 0 4 0;
#X connect 4 0 2 0;
#X connect 6 0 0 0;
#X connect 10 0 9 0;
#X connect 10 0 2 0;
#X connect 10 1 5 0;
#X restore 157 111 pd indexer;
#X obj 152 224 tabwrite drawdecay;
#X msg 152 58 0;
#X obj 272 177 * -1;
#X obj 273 196 + 63;
#X obj 152 200 float;
#X obj 151 186 bng 15 250 50 0 empty empty empty 0 -6 0 8 -262144 -1
-1;
#X obj 152 95 metro 2;
#X obj 120 39 inlet;
#X msg 121 58 1;
#X obj 85 266 outlet;
#X text 71 282 bangs when complete;
#X text 112 22 rewrites decay to mirror image;
#X connect 0 0 7 1;
#X connect 1 0 9 0;
#X connect 2 0 0 0;
#X connect 2 0 5 0;
#X connect 2 1 4 0;
#X connect 2 1 12 0;
#X connect 4 0 1 0;
#X connect 5 0 6 0;
#X connect 6 0 3 1;
#X connect 6 0 8 0;
#X connect 7 0 3 0;
#X connect 8 0 7 0;
#X connect 9 0 2 0;
#X connect 10 0 11 0;
#X connect 11 0 1 0;
#X restore 167 252 pd mirror effect;
#X obj 166 235 bng 15 250 50 0 empty empty empty 0 -6 0 8 -262144 -1
-1;
#X text 41 297 time ms;
#X floatatom 92 294 5 0 0 0 - - attacktime1;
#X text 226 300 time ms;
#X floatatom 276 298 5 0 0 0 - - sustaintime1;
#X text 225 292 sustain;
#X text 47 289 attack;
#X text 427 299 time ms;
#X floatatom 477 297 5 0 0 0 - - releasetime1;
#X text 426 291 release;
#X connect 3 0 2 0;
#X restore 118 176 pd Envelope Generator;
#X text 177 189 [click here];
#X obj 31 12 cnv 15 184 123 empty quiggle WaveShape 110 10 0 21 -233017
-66577 0;
#X obj 207 34 vradio 20 1 0 5 wavpreset empty empty 0 -6 0 8 -262144
-1 -1 0;
#X text 228 37 sin;
#X text 228 57 square;
#X text 227 97 sawtooth;
#X text 228 76 clarinet;
#X obj 181 36 vsl 23 96 0 0.6182 0 0 whitenoise empty empty 0 -8 0
8 -262144 -1 -1 0 1;
#X text 179 133 white;
#X text 179 141 noise;
#X text 228 116 nothing;
#X obj 79 35 cnv 15 98 98 empty quiggull  34 34 0 21 -262144 -262144
0;
#N canvas 0 22 454 304 graph2 0;
#X array OverTone 8 float 3;
#A 0 40 20 10 5 2.5 1.25 0.625 0.15625;
#X coords 0 60 7 0 100 100 1;
#X restore 78 34 graph;
#X connect 0 0 1 0;
#X connect 0 0 4 0;
#X connect 0 1 2 0;
#X connect 0 1 5 0;
#X connect 10 0 17 0;
#X connect 11 0 18 0;
#X connect 15 0 7 0;
#X connect 30 0 21 0;
