#N canvas 151 108 638 503 10;
#X obj 254 156 singleinstance;
#X obj 275 187 +~;
#X obj 486 173 sig~;
#X obj 531 173 sig~;
#X obj 438 171 mtof;
#X obj 438 173 line~;
#X msg 438 170 \$1 100;
#X floatatom 541 175 5 0 0 0 - - -;
#X floatatom 496 175 5 0 0 0 - - -;
#X floatatom 438 175 7 0 0 0 - - -;
#X obj 54 247 delpatch;
#X obj 39 26 cnv 15 169 93 empty colon Delay 21 14 0 23 -260818 -262144
0;
#X obj 155 71 vsl 44 56 0 1 0 0 empty empty empty 0 -8 0 8 -262144
-1 -1 5500 1;
#X text 111 54 delay;
#X text 168 54 FB;
#X obj 108 71 vsl 44 56 0 5000 0 0 empty empty empty 0 -8 0 8 -262144
-1 -1 5500 1;
#X obj 60 71 vsl 44 56 0 1 0 0 empty empty empty 0 -8 0 8 -262144 -1
-1 4300 1;
#X text 70 53 Mix;
#X obj 401 0 cnv 15 181 194 empty porc FilterSweep 20 12 0 22 -62784
-262144 0;
#X obj 438 44 vsl 35 128 16 135 0 0 empty empty empty 0 -8 0 8 -262144
-1 -1 5529 1;
#X obj 486 44 vsl 35 128 0 1 0 0 empty empty empty 0 -8 0 8 -262144
-1 -1 351 1;
#X obj 531 43 vsl 35 128 0 1 0 0 empty empty empty 0 -8 0 8 -262144
-1 -1 12700 1;
#X text 494 24 q;
#X text 529 25 reson;
#X text 439 25 freq;
#N canvas 0 22 454 304 spigot 0;
#X obj 118 105 inlet~;
#X obj 113 209 outlet~;
#X obj 249 96 inlet;
#X obj 144 165 *~;
#X connect 0 0 3 0;
#X connect 2 0 3 1;
#X connect 3 0 1 0;
#X restore 377 206 pd spigot;
#X obj 392 166 tgl 40 0 empty empty empty 0 -6 0 8 -262144 -1 -1 0
1;
#N canvas 0 22 470 320 pan 0;
#X obj 3 2 cnv 15 192 82 fast clov PAN 6 62 0 34 -233017 -66577 0;
#X obj 80 52 tgl 30 0 FIRSTPanLFOIO 2FIRSTPanLFOIO empty 0 -6 0 8 -262144
-1 -1 0 57.0787;
#X obj 114 6 vsl 35 75 0 2 0 0 LFOPanFreqFIRST 2LFOPanFreqFIRST empty
0 -8 0 8 -262144 -1 -1 0 1;
#X obj 154 7 vsl 35 75 0 50 0 0 LFOPanRangeFIRST 2LFOPanRangeFIRST
empty 0 -8 0 8 -262144 -1 -1 0 1;
#X text 118 82 Freq;
#X text 154 82 Range;
#X obj 16 4 hsl 90 34 0 127 0 0 pansetFIRST 2pansetFIRST empty -2 -6
0 8 -262144 -1 -1 0 1;
#X text 83 83 LFO;
#N canvas 0 22 482 332 panpot 0;
#X obj 105 47 inlet~;
#X obj 269 46 inlet;
#X obj 90 168 *~;
#X obj 304 166 *~;
#X obj 280 78 / 127;
#X obj 187 134 - 1;
#X obj 186 157 * -1;
#X obj 133 250 outlet~;
#X obj 276 254 outlet~;
#X obj 182 26 loadbang;
#X msg 182 47 0.5;
#X obj 362 147 s panrecFIRST;
#X msg 358 118 63;
#X connect 0 0 3 0;
#X connect 0 0 2 0;
#X connect 1 0 4 0;
#X connect 2 0 8 0;
#X connect 3 0 7 0;
#X connect 4 0 3 1;
#X connect 4 0 5 0;
#X connect 5 0 6 0;
#X connect 6 0 2 1;
#X connect 9 0 10 0;
#X connect 10 0 2 1;
#X connect 10 0 3 1;
#X connect 12 0 11 0;
#X restore 312 105 pd panpot;
#X obj 304 68 inlet~;
#X obj 296 143 outlet~;
#X obj 366 143 outlet~;
#X obj 379 66 inlet;
#X text 357 32 midi pan \, 63 is center;
#X text 396 47 (0-127);
#X connect 8 0 10 0;
#X connect 8 1 11 0;
#X connect 9 0 8 0;
#X connect 12 0 8 1;
#X restore 368 399 pd pan;
#X floatatom 240 129 5 0 0 0 - - -;
#X obj 89 455 snapshot~;
#X obj 89 440 bng 15 250 50 0 empty empty empty 0 -6 0 8 -262144 -1
-1;
#X obj 89 471 print wha?;
#X obj 425 383 tabsend~ array1;
#X obj 258 473 dac~;
#X floatatom 506 270 5 0 0 0 - - -;
#X obj 402 249 svf~ band;
#X obj 453 423 table array1;
#N canvas 0 22 462 312 new 0;
#X obj 118 43 inlet;
#X obj 290 44 inlet;
#X obj 207 264 outlet;
#X obj 211 41 inlet;
#X obj 185 197 sin;
#X floatatom 184 217 5 0 0 0 - - -;
#N canvas 0 22 454 304 countup 0;
#X obj 169 77 inlet;
#X obj 201 128 int;
#X obj 244 129 + 1;
#X obj 232 183 * 1;
#X obj 299 73 inlet;
#X obj 185 99 bng 15 250 50 0 empty empty empty 0 -6 0 8 -262144 -1
-1;
#X obj 221 237 outlet;
#X connect 0 0 5 0;
#X connect 1 0 2 0;
#X connect 1 0 3 0;
#X connect 2 0 1 1;
#X connect 3 0 6 0;
#X connect 4 0 3 1;
#X connect 5 0 1 0;
#X restore 185 177 pd countup;
#X obj 185 158 bng 15 250 50 0 empty empty empty 0 -6 0 8 -262144 -1
-1;
#X floatatom 232 136 5 0 0 0 - - -;
#X obj 155 124 metro 100;
#X obj 155 105 tgl 15 0 empty empty empty 0 -6 0 8 -262144 -1 -1 1
1;
#X floatatom 212 103 5 0 0 0 - - -;
#X obj 290 93 / 127;
#X connect 0 0 10 0;
#X connect 1 0 12 0;
#X connect 3 0 11 0;
#X connect 4 0 5 0;
#X connect 5 0 2 0;
#X connect 6 0 4 0;
#X connect 7 0 6 0;
#X connect 8 0 6 1;
#X connect 9 0 7 0;
#X connect 10 0 9 0;
#X connect 11 0 9 1;
#X connect 12 0 8 0;
#X restore 428 303 pd new LFO;
#X obj 427 286 tgl 15 0 empty empty empty 0 -6 0 8 -262144 -1 -1 1
1;
#X floatatom 457 288 5 0 0 0 - - -;
#X floatatom 494 288 5 0 0 0 - - -;
#X obj 419 326 * 63;
#X obj 403 351 + 63;
#X floatatom 471 347 5 0 0 0 - - -;
#X obj 134 325 z~;
#X obj 179 326 z~;
#X floatatom 147 282 5 0 0 0 - - -;
#X floatatom 203 288 5 0 0 0 - - -;
#X floatatom 559 245 5 0 0 0 - - -;
#X floatatom 189 241 5 0 0 0 - - -;
#X connect 0 0 1 0;
#X connect 0 0 33 0;
#X connect 0 1 1 1;
#X connect 0 1 33 1;
#X connect 1 0 10 0;
#X connect 2 0 35 2;
#X connect 3 0 35 3;
#X connect 4 0 9 0;
#X connect 5 0 35 1;
#X connect 6 0 5 0;
#X connect 7 0 3 0;
#X connect 8 0 2 0;
#X connect 9 0 6 0;
#X connect 10 0 35 0;
#X connect 10 0 45 0;
#X connect 10 0 44 0;
#X connect 12 0 10 3;
#X connect 15 0 10 2;
#X connect 16 0 10 1;
#X connect 19 0 4 0;
#X connect 19 0 48 0;
#X connect 20 0 8 0;
#X connect 20 0 34 0;
#X connect 21 0 7 0;
#X connect 25 0 35 0;
#X connect 26 0 25 1;
#X connect 27 0 33 0;
#X connect 27 1 33 1;
#X connect 28 0 0 0;
#X connect 29 0 31 0;
#X connect 30 0 29 0;
#X connect 35 0 27 0;
#X connect 37 0 41 0;
#X connect 38 0 37 0;
#X connect 39 0 37 1;
#X connect 40 0 37 2;
#X connect 41 0 42 0;
#X connect 42 0 27 1;
#X connect 42 0 43 0;
#X connect 43 0 19 0;
#X connect 44 0 33 0;
#X connect 45 0 33 1;
#X connect 46 0 44 1;
#X connect 47 0 45 1;
#X connect 49 0 47 0;
#X connect 49 0 46 0;
