#N canvas 99 252 560 217 10;
#X obj 104 116 hsl 123 11 0 127 0 0 \$0-upperbound \$0-2upperbound
empty -2 -8 0 10 -262144 -1 -1 9600 1;
#X obj 104 135 hsl 123 11 0 127 0 0 \$0-lowerbound \$0-2lowerbound
empty -2 -8 0 10 -262144 -1 -1 4800 1;
#X obj 104 127 hsl 123 8 0 127 0 0 \$0-sliderval \$0-2sliderval empty
-2 -8 0 10 -262144 -1 -1 4839 1;
#X obj 101 101 hradio 16 1 0 8 \$0-inputselect \$0-2inputselect empty
0 -8 0 10 -262144 -1 -1 3;
#X obj 124 108 cnv 6 6 6 empty empty empty 20 12 0 14 -258113 -66577
0;
#X obj 140 108 cnv 6 6 6 empty empty empty 20 12 0 14 -260097 -66577
0;
#X obj 156 108 cnv 6 6 6 empty empty empty 20 12 0 14 -257985 -66577
0;
#X obj 172 108 cnv 6 6 6 empty empty empty 20 12 0 14 -4034 -66577
0;
#X obj 188 108 cnv 6 6 6 empty empty empty 20 12 0 14 -4032 -66577
0;
#X obj 204 108 cnv 6 6 6 empty empty empty 20 12 0 14 -4160 -66577
0;
#X obj 220 108 cnv 6 6 6 empty empty empty 20 12 0 14 -159808 -66577
0;
#N canvas 38 87 450 300 rangefinder 0;
#X obj 224 -125 r \$0-upperbound;
#X obj 343 -123 r \$0-lowerbound;
#X obj 67 -124 inlet;
#X obj 116 -30 s \$0-2sliderval;
#X obj 99 -76 expr $f1*(($f2-$f3)*.5)+($f2+$f3)/2;
#X connect 0 0 4 1;
#X connect 1 0 4 2;
#X connect 2 0 4 0;
#X connect 4 0 3 0;
#X restore 34 71 pd rangefinder;
#N canvas 117 108 896 502 colorpicker 0;
#X obj 204 -50 snapshot~;
#X obj 130 -54 metro 70;
#X obj 111 -55 tgl 15 0 empty empty empty 17 7 0 10 -262144 -1 -1 0
1;
#X obj 349 -68 r \$0-inputselect;
#X obj 65 132 r~ red;
#X obj 209 310 snapshot~;
#X obj 85 177 line;
#X msg 85 157 \$1 25;
#X obj 298 263 +~;
#X obj 165 177 line;
#X msg 165 157 \$1 25;
#X obj 235 177 line;
#X msg 235 157 \$1 25;
#X obj 315 177 line;
#X msg 315 157 \$1 25;
#X obj 385 177 line;
#X msg 385 157 \$1 25;
#X obj 465 177 line;
#X msg 465 157 \$1 25;
#X obj 535 177 line;
#X msg 535 157 \$1 25;
#X obj 514 132 r~ violet;
#X obj 445 132 r~ indigo;
#X obj 365 132 r~ blue;
#X obj 295 132 r~ green;
#X obj 215 132 r~ yellow;
#X obj 145 132 r~ orange;
#X obj 204 338 outlet;
#X obj 301 393 outlet~;
#X obj 444 198 *~;
#X obj 514 198 *~;
#X obj 365 199 *~;
#X obj 294 198 *~;
#X obj 214 198 *~;
#X obj 144 199 *~;
#X obj 64 198 *~;
#X floatatom 202 -22 5 0 0 0 - - -;
#X obj 180 253 loadbang;
#X msg 196 279 1;
#X obj 229 285 metro 60;
#X obj 324 -34 sel 0;
#X obj 69 368 sig~;
#X obj 81 337 float;
#X obj 369 -16 sel 0 1 2 3 4 5 6 7;
#X obj 433 102 unpack f f f f f f f f;
#X msg 347 12 0 0 0 0 0 0 0 1;
#X msg 357 32 1 0 0 0 0 0 0 0;
#X msg 367 52 0 1 0 0 0 0 0 0;
#X msg 377 72 0 0 1 0 0 0 0 0;
#X msg 494 72 0 0 0 0 0 0 1 0;
#X msg 484 52 0 0 0 0 1 0 0;
#X msg 474 32 0 0 0 1 0 0 0;
#X msg 464 12 0 0 0 1 0 0 0 0;
#X obj 104 382 line;
#X msg 104 362 \$1 25;
#X obj 83 403 *~;
#X connect 0 0 36 0;
#X connect 1 0 0 0;
#X connect 2 0 1 0;
#X connect 3 0 40 0;
#X connect 3 0 43 0;
#X connect 4 0 35 0;
#X connect 5 0 27 0;
#X connect 5 0 42 1;
#X connect 6 0 35 1;
#X connect 7 0 6 0;
#X connect 8 0 5 0;
#X connect 8 0 28 0;
#X connect 9 0 34 1;
#X connect 10 0 9 0;
#X connect 11 0 33 1;
#X connect 12 0 11 0;
#X connect 13 0 32 1;
#X connect 14 0 13 0;
#X connect 15 0 31 1;
#X connect 16 0 15 0;
#X connect 17 0 29 1;
#X connect 18 0 17 0;
#X connect 19 0 30 1;
#X connect 20 0 19 0;
#X connect 21 0 30 0;
#X connect 22 0 29 0;
#X connect 23 0 31 0;
#X connect 24 0 32 0;
#X connect 25 0 33 0;
#X connect 26 0 34 0;
#X connect 29 0 8 1;
#X connect 30 0 8 1;
#X connect 31 0 8 1;
#X connect 32 0 8 0;
#X connect 33 0 8 0;
#X connect 34 0 8 0;
#X connect 35 0 8 0;
#X connect 37 0 38 0;
#X connect 38 0 39 0;
#X connect 39 0 5 0;
#X connect 40 0 42 0;
#X connect 41 0 55 0;
#X connect 42 0 41 0;
#X connect 43 0 45 0;
#X connect 43 1 46 0;
#X connect 43 2 47 0;
#X connect 43 3 48 0;
#X connect 43 4 52 0;
#X connect 43 5 51 0;
#X connect 43 6 50 0;
#X connect 43 7 49 0;
#X connect 44 0 7 0;
#X connect 44 1 10 0;
#X connect 44 2 12 0;
#X connect 44 3 14 0;
#X connect 44 4 16 0;
#X connect 44 5 18 0;
#X connect 44 6 20 0;
#X connect 44 7 54 0;
#X connect 45 0 44 0;
#X connect 46 0 44 0;
#X connect 47 0 44 0;
#X connect 48 0 44 0;
#X connect 49 0 44 0;
#X connect 50 0 44 0;
#X connect 51 0 44 0;
#X connect 52 0 44 0;
#X connect 53 0 55 1;
#X connect 54 0 53 0;
#X connect 55 0 28 0;
#X connect 55 0 8 0;
#X restore 59 35 pd colorpicker;
#X obj 151 118 cnv 1 48 9 empty \$0-2upper empty 20 12 0 14 -241291
-262144 0;
#X obj 153 136 cnv 1 1 9 empty \$0-2lower empty 20 12 0 14 -241291
-262144 0;
#X obj 235 106 r \$0-sliderval;
#X obj 235 125 outlet;
#X obj -30 110 s \$0-2upperbound;
#X obj -66 133 s \$0-2lowerbound;
#X obj -32 87 metro 100;
#X obj -32 47 loadbang;
#X msg -32 66 1;
#N canvas 0 0 526 551 moversshakers 0;
#X obj 246 278 s \$0-2lower;
#X obj 179 15 r \$0-2sliderval;
#X obj 291 6 r \$0-lowerbound;
#X obj -38 10 r \$0-2sliderval;
#X msg 112 199 color \$1;
#X obj 68 12 r \$0-upperbound;
#X obj 25 264 s \$0-2upper;
#X obj 109 136 r \$0-inputselect;
#X obj 116 169 + 12;
#X obj 129 45 <;
#X obj 262 180 expr $f2-$f1-1;
#X msg 34 164 pos \$1 118;
#X obj -64 158 expr $f1-$f2-1;
#X obj 39 141 + 104;
#X obj 34 112 spigot;
#X obj 329 133 spigot;
#X obj -74 118 spigot;
#X obj 233 148 spigot;
#X obj 145 315 r \$0-2sliderval;
#X obj -64 316 r \$0-2sliderval;
#X obj 179 429 expr $f2-$f1-1;
#X obj 97 425 + 101;
#X obj -45 398 expr $f1-$f2-1;
#X obj 58 381 + 104;
#X obj 53 345 spigot;
#X obj 246 382 spigot;
#X obj -55 358 spigot;
#X obj 150 397 spigot;
#X obj 156 491 s \$0-2upper;
#X obj 9 460 s \$0-2lower;
#X obj 41 314 r \$0-lowerbound;
#X obj 249 310 r \$0-upperbound;
#X obj 117 344 <;
#X msg 97 455 pos \$1 118;
#X text 82 234 color selection;
#X text 280 350 for when lowerbound;
#X text 296 363 is higher;
#X text 309 56 for when lowerbound;
#X text 325 69 is lower;
#X msg -63 181 vis_size \$1 8;
#X msg 185 204 pos \$1 136;
#X obj 180 176 + 102;
#X msg 264 203 vis_size \$1 9;
#X msg 181 452 vis_size \$1 9;
#X msg 53 404 pos \$1 136;
#X msg -44 421 vis_size \$1 9;
#X connect 1 0 17 0;
#X connect 2 0 9 1;
#X connect 2 0 15 0;
#X connect 3 0 16 0;
#X connect 4 0 6 0;
#X connect 4 0 0 0;
#X connect 5 0 9 0;
#X connect 5 0 14 0;
#X connect 7 0 8 0;
#X connect 8 0 4 0;
#X connect 9 0 15 1;
#X connect 9 0 17 1;
#X connect 9 0 14 1;
#X connect 9 0 16 1;
#X connect 10 0 42 0;
#X connect 11 0 6 0;
#X connect 12 0 39 0;
#X connect 13 0 11 0;
#X connect 14 0 13 0;
#X connect 14 0 12 1;
#X connect 15 0 10 1;
#X connect 16 0 12 0;
#X connect 17 0 10 0;
#X connect 17 0 41 0;
#X connect 18 0 27 0;
#X connect 19 0 26 0;
#X connect 20 0 43 0;
#X connect 21 0 33 0;
#X connect 22 0 45 0;
#X connect 23 0 44 0;
#X connect 24 0 23 0;
#X connect 24 0 22 1;
#X connect 25 0 20 1;
#X connect 26 0 22 0;
#X connect 27 0 20 0;
#X connect 27 0 21 0;
#X connect 30 0 24 0;
#X connect 30 0 32 0;
#X connect 31 0 25 0;
#X connect 31 0 32 1;
#X connect 32 0 25 1;
#X connect 32 0 27 1;
#X connect 32 0 24 1;
#X connect 32 0 26 1;
#X connect 33 0 28 0;
#X connect 39 0 6 0;
#X connect 40 0 0 0;
#X connect 41 0 40 0;
#X connect 42 0 0 0;
#X connect 43 0 28 0;
#X connect 44 0 29 0;
#X connect 45 0 29 0;
#X restore 170 59 pd moversshakers;
#X floatatom 295 199 5 0 0 0 - - -;
#X connect 12 0 11 0;
#X connect 15 0 16 0;
#X connect 15 0 23 0;
#X connect 19 0 17 0;
#X connect 19 0 18 0;
#X connect 20 0 21 0;
#X connect 21 0 19 0;
#X coords 0 -1 1 1 130 47 2 100 100;
