#N canvas 500 54 450 300 10;
#X obj 90 -16 s~ red;
#X obj 90 -44 osc~ 1;
#X obj 228 -14 s~ orange;
#X obj 352 -47 noise~;
#X obj 343 -18 s~ violet;
#X obj 140 -16 s~ yellow;
#X obj 98 9 phasor~ 1;
#X obj 81 87 s~ green;
#X obj 166 86 s~ blue;
#X obj 236 86 s~ indigo;
#X obj 168 9 phasor~ 3;
#X obj 238 9 phasor~ 0.1;
#X obj 228 -41 osc~ 2;
#X obj 82 45 +~ -0.5;
#X obj 82 66 *~ 2;
#X obj 165 36 +~ -0.5;
#X obj 165 57 *~ 2;
#X obj 233 40 +~ -0.5;
#X obj 233 61 *~ 2;
#X obj 140 -37 osc~ 0.3;
#X connect 1 0 0 0;
#X connect 3 0 4 0;
#X connect 6 0 13 0;
#X connect 10 0 15 0;
#X connect 11 0 17 0;
#X connect 12 0 2 0;
#X connect 13 0 14 0;
#X connect 14 0 7 0;
#X connect 15 0 16 0;
#X connect 16 0 8 0;
#X connect 17 0 18 0;
#X connect 18 0 9 0;
#X connect 19 0 5 0;
