#N canvas 0 22 454 304 10;
#N canvas 410 32 792 780 pulsilator 0;
#N canvas 66 22 735 776 OverToneFIRSTpatch 0;
#X obj 284 340 outlet~;
#X obj 361 73 tabread OverToneFIRST;
#X obj 338 118 pack;
#X obj 123 98 inlet;
#X text 105 79 pitch of the fundamental;
#X obj 361 97 / 127;
#N canvas 0 22 482 332 countto7 0;
#X floatatom 250 207 5 0 0 0 - - -;
#X obj 248 178 int;
#X obj 320 177 + 1;
#X msg 120 108 0;
#X obj 209 132 bng 15 250 50 0 empty empty empty 0 -6 0 8 -262144 -1
-1;
#X obj 121 80 sel 7;
#X obj 238 256 outlet;
#X obj 229 68 inlet;
#X obj 121 53 pipe 15;
#X text 224 51 recieve any input;
#X text 150 276 counts from 0 to (whatever sel has);
#X connect 0 0 6 0;
#X connect 0 0 8 0;
#X connect 1 0 2 0;
#X connect 1 0 0 0;
#X connect 2 0 1 1;
#X connect 3 0 1 1;
#X connect 4 0 1 0;
#X connect 5 0 3 0;
#X connect 5 1 4 0;
#X connect 7 0 4 0;
#X connect 8 0 5 0;
#X restore 361 42 pd countto7;
#X obj 382 261 noise~;
#X obj 380 286 *~ 0;
#X obj 451 203 r whitenoiseFIRST;
#X obj 442 265 *;
#X obj 362 17 r SetWavShapeFIRST;
#X obj 227 158 sig~;
#X obj 223 188 tabosc4~ OverToneFIRST;
#X obj 455 237 * 2.5;
#X connect 1 0 5 0;
#X connect 3 0 12 0;
#X connect 5 0 2 1;
#X connect 6 0 1 0;
#X connect 6 0 2 0;
#X connect 7 0 8 0;
#X connect 8 0 0 0;
#X connect 9 0 14 0;
#X connect 10 0 8 1;
#X connect 11 0 6 0;
#X connect 12 0 13 0;
#X connect 13 0 0 0;
#X connect 14 0 10 1;
#X connect 14 0 10 0;
#X restore 54 264 pd OverToneFIRSTpatch;
#X obj 216 164 tgl 15 0 empty empty empty 0 -6 0 8 -262144 -1 -1 0
79.9101;
#N canvas 0 22 211 277 tempo2ms 0;
#X obj 89 29 inlet;
#X text 131 30 BPM;
#X obj 73 196 /;
#X msg 40 159 1;
#X obj 40 132 del 20;
#X obj 89 88 / 60000;
#X obj 73 228 outlet;
#X connect 0 0 5 0;
#X connect 2 0 6 0;
#X connect 3 0 2 0;
#X connect 4 0 3 0;
#X connect 5 0 2 1;
#X connect 5 0 4 0;
#X restore 329 107 pd tempo2ms;
#X text 299 113 BPM;
#X text 58 57 freq \, or 1=on \, 0=off;
#X text 314 69 tempo;
#X obj 198 488 outlet~;
#X obj 190 323 *~;
#N canvas 279 330 768 431 EnvelopeRead 0;
#X floatatom 238 150 5 0 0 0 - - -;
#X floatatom 281 150 5 0 0 0 - - -;
#X floatatom 324 150 5 0 0 0 - - -;
#X floatatom 367 150 5 0 0 0 - - -;
#X msg 18 155 1;
#X msg 60 155 0;
#X obj 170 211 aenv~ 100 200 0.6 500;
#X obj 238 75 vsl 8 64 10 2000 0 1 empty AttackEnvFIRST attack 0 -8
0 8 -262144 -1 -1 3900 1;
#X obj 281 75 vsl 8 64 10 2000 0 1 empty DecayEnvFIRST decay 0 -8 0
8 -262144 -1 -1 1900 1;
#X obj 367 75 vsl 8 64 10 2000 0 1 empty ReleaseEnvFIRST release 0
-8 0 8 -262144 -1 -1 2300 1;
#X obj 324 75 vsl 8 64 0 1 0 1 empty SustainEnvFIRST sustain 0 -8 0
8 -262144 -1 -1 3500 1;
#X text 42 206 nonzero -> attack;
#X text 454 171 Ben Saylor <bsaylor@macalester.edu>;
#X text 470 187 http://www.macalester.edu/~bsaylor;
#X obj 18 90 bng 15 250 50 0 empty empty empty 0 -6 0 8 -262144 -1
-1;
#X text 37 87 <- click here;
#X obj 30 120 del 800;
#X text 413 74 aenv~: asymptotic ADSR envelope generator;
#X msg 198 73 lina;
#X msg 198 104 loga;
#X text 104 73 linear attack;
#X text 120 105 log attack;
#X msg 198 133 zero;
#X text 77 219 0 -> release;
#X obj 269 347 outlet~;
#X obj 122 293 tabwrite~ envFIRST;
#X obj 19 43 inlet;
#X obj 74 43 inlet;
#X obj 171 22 r EnvShapeFIRST;
#X floatatom 111 22 5 0 0 0 - - -;
#X connect 0 0 6 1;
#X connect 1 0 6 2;
#X connect 2 0 6 3;
#X connect 3 0 6 4;
#X connect 4 0 6 0;
#X connect 5 0 6 0;
#X connect 6 0 25 0;
#X connect 6 0 24 0;
#X connect 7 0 0 0;
#X connect 8 0 1 0;
#X connect 9 0 3 0;
#X connect 10 0 2 0;
#X connect 14 0 4 0;
#X connect 14 0 16 0;
#X connect 14 0 25 0;
#X connect 16 0 5 0;
#X connect 18 0 6 0;
#X connect 19 0 6 0;
#X connect 22 0 6 0;
#X connect 26 0 14 0;
#X connect 27 0 16 1;
#X connect 28 0 6 0;
#X connect 29 0 16 1;
#X restore 216 249 pd EnvelopeRead;
#X obj 216 192 metro 144;
#N canvas 314 41 516 475 lfo 0;
#X obj 76 238 osc~;
#X obj 278 160 tgl 15 0 empty empty empty 0 -6 0 8 -262144 -1 -1 0
1;
#X floatatom 336 157 5 0 0 0 - - -;
#X floatatom 67 170 5 0 0 0 - - -;
#N canvas 0 22 154 243 tempo2ms 0;
#X obj 70 5 inlet;
#X text 112 6 BPM;
#X obj 54 172 /;
#X msg 21 135 1;
#X obj 21 108 del 20;
#X obj 70 64 / 60000;
#X obj 54 204 outlet;
#X connect 0 0 5 0;
#X connect 2 0 6 0;
#X connect 3 0 2 0;
#X connect 4 0 3 0;
#X connect 5 0 2 1;
#X connect 5 0 4 0;
#X restore 336 131 pd tempo2ms;
#X floatatom 336 110 5 0 0 0 - - -;
#X text 106 170 Fundamental Frequency;
#X msg 206 136 0;
#X msg 242 128 1;
#X text 11 34 freq \, or 1=on \, 0=off;
#X obj 257 202 snapshot~;
#X text 211 4 LFO;
#X text 283 86 determine sample rate;
#X obj 212 76 sel 0 1;
#X obj 251 104 bng 15 250 50 0 empty empty empty 0 -6 0 8 -262144 -1
-1;
#X obj 420 251 line;
#X obj 449 193 float;
#X obj 391 232 float;
#X obj 427 211 bng 15 250 50 0 empty empty empty 0 -6 0 8 -262144 -1
-1;
#X obj 12 245 s~ lfo;
#X obj 137 370 outlet~;
#X obj 284 348 outlet;
#X text 99 426 this patch is messy as hell;
#X text 103 441 someday it will be clean;
#X obj 335 57 * 4000;
#X obj 278 179 metro 5;
#X obj 300 288 r FIRSTRangeLFOPitch;
#X obj 285 309 * 1;
#X obj 29 50 r FIRSTFreqLFOPitch;
#X obj 76 102 *;
#X obj 67 122 *;
#X obj 65 146 * 2;
#X obj 77 213 +;
#X obj 28 201 bng 15 250 50 0 empty empty empty 0 -6 0 8 -262144 -1
-1;
#X obj 205 283 * 0;
#X obj 222 258 r FIRSTLFOPitchFB;
#X floatatom 205 303 5 0 0 0 - - -;
#X floatatom 339 332 5 0 0 0 - - -;
#X connect 0 0 10 0;
#X connect 0 0 20 0;
#X connect 1 0 25 0;
#X connect 2 0 16 1;
#X connect 2 0 25 1;
#X connect 3 0 32 0;
#X connect 4 0 2 0;
#X connect 5 0 4 0;
#X connect 7 0 1 0;
#X connect 8 0 1 0;
#X connect 10 0 17 1;
#X connect 10 0 27 0;
#X connect 10 0 34 0;
#X connect 13 0 7 0;
#X connect 13 1 14 0;
#X connect 13 2 14 0;
#X connect 13 2 24 0;
#X connect 14 0 8 0;
#X connect 16 0 15 1;
#X connect 16 0 18 0;
#X connect 17 0 15 0;
#X connect 18 0 17 0;
#X connect 25 0 10 0;
#X connect 25 0 16 0;
#X connect 26 0 27 1;
#X connect 27 0 21 0;
#X connect 27 0 37 0;
#X connect 28 0 13 0;
#X connect 28 0 29 0;
#X connect 28 0 29 1;
#X connect 29 0 30 0;
#X connect 29 0 30 1;
#X connect 30 0 31 0;
#X connect 31 0 3 0;
#X connect 32 0 0 0;
#X connect 33 0 32 0;
#X connect 34 0 36 0;
#X connect 35 0 34 1;
#X connect 36 0 32 1;
#X connect 36 0 33 0;
#X restore 4 195 pd lfo;
#X obj 66 239 +;
#N canvas 0 22 478 328 panpot 0;
#X obj 105 47 inlet~;
#X obj 269 46 inlet;
#X obj 90 168 *~;
#X obj 304 166 *~;
#X obj 280 78 / 127;
#X obj 187 134 - 1;
#X obj 186 157 * -1;
#X obj 133 250 outlet~;
#X obj 276 254 outlet~;
#X obj 182 26 loadbang;
#X msg 182 47 0.5;
#X obj 362 147 s panrecFIRST;
#X msg 358 118 63;
#X connect 0 0 3 0;
#X connect 0 0 2 0;
#X connect 1 0 4 0;
#X connect 2 0 8 0;
#X connect 3 0 7 0;
#X connect 4 0 3 1;
#X connect 4 0 5 0;
#X connect 5 0 6 0;
#X connect 6 0 2 1;
#X connect 9 0 10 0;
#X connect 10 0 2 1;
#X connect 10 0 3 1;
#X connect 12 0 11 0;
#X restore 198 425 pd panpot;
#X obj 256 488 outlet~;
#N canvas 490 140 580 486 LFOPANFIRST 0;
#X obj 63 224 osc~;
#X obj 278 160 tgl 15 0 empty empty empty 0 -6 0 8 -262144 -1 -1 0
1;
#X floatatom 67 170 5 0 0 0 - - -;
#N canvas 0 22 458 308 tempo2ms 0;
#X obj 280 135 inlet;
#X text 322 136 BPM;
#X obj 264 302 /;
#X msg 231 265 1;
#X obj 231 238 del 20;
#X obj 280 194 / 60000;
#X obj 264 334 outlet;
#X connect 0 0 5 0;
#X connect 2 0 6 0;
#X connect 3 0 2 0;
#X connect 4 0 3 0;
#X connect 5 0 2 1;
#X connect 5 0 4 0;
#X restore 336 131 pd tempo2ms;
#X text 106 170 Fundamental Frequency;
#X msg 206 136 0;
#X msg 242 128 1;
#X obj 257 202 snapshot~;
#X text 216 6 LFO;
#X obj 212 76 sel 0 1;
#X obj 251 104 bng 15 250 50 0 empty empty empty 0 -6 0 8 -262144 -1
-1;
#X obj 12 245 s~ lfo;
#X obj 137 370 outlet~;
#X obj 172 313 outlet;
#X text 251 332 this patch is messy as hell;
#X text 255 347 someday it will be clean;
#X obj 278 179 metro 5;
#X obj 285 269 * 1;
#X obj 124 136 *;
#X floatatom 9 206 5 0 0 0 - - -;
#X obj 28 50 r LFOPanFreqFIRST;
#X text 207 30 1=on \, 0=off;
#X text 44 32 freq;
#X obj 193 46 r FIRSTPanLFOIO;
#X obj 316 249 r LFOPanRangeFIRST;
#X connect 0 0 7 0;
#X connect 0 0 12 0;
#X connect 1 0 16 0;
#X connect 2 0 0 0;
#X connect 5 0 1 0;
#X connect 6 0 1 0;
#X connect 7 0 17 0;
#X connect 9 0 5 0;
#X connect 9 1 10 0;
#X connect 9 2 10 0;
#X connect 10 0 6 0;
#X connect 16 0 7 0;
#X connect 17 0 13 0;
#X connect 18 0 2 0;
#X connect 20 0 18 1;
#X connect 20 0 18 0;
#X connect 23 0 9 0;
#X connect 24 0 17 1;
#X restore 236 325 pd LFOPANFIRST;
#X obj 311 388 +;
#X obj 375 320 r pansetFIRST;
#X obj 314 161 +;
#X obj 48 75 r FreqOscFIRST;
#X obj 185 388 *~ 1;
#X obj 221 304 r VolumeFIRST;
#X obj 128 96 r FIRSTFreqLFOIO;
#N canvas 488 141 584 490 LFO 0;
#X obj 45 370 osc~;
#X obj 279 160 tgl 15 0 empty empty empty 0 -6 0 8 -262144 -1 -1 0
1;
#X floatatom 67 170 5 0 0 0 - - -;
#N canvas 0 22 458 308 tempo2ms 0;
#X obj 280 135 inlet;
#X text 322 136 BPM;
#X obj 264 302 /;
#X msg 231 265 1;
#X obj 231 238 del 20;
#X obj 280 194 / 60000;
#X obj 264 334 outlet;
#X connect 0 0 5 0;
#X connect 2 0 6 0;
#X connect 3 0 2 0;
#X connect 4 0 3 0;
#X connect 5 0 2 1;
#X connect 5 0 4 0;
#X restore 336 131 pd tempo2ms;
#X text 106 170 Fundamental Frequency;
#X obj 286 221 snapshot~;
#X text 216 6 LFO;
#X obj 28 433 outlet~;
#X obj 258 439 outlet;
#X text 321 412 this patch is messy as hell;
#X text 325 427 someday it will be clean;
#X obj 274 370 * 1;
#X obj 53 85 *;
#X obj 59 107 *;
#X obj 61 135 * 2;
#X obj 187 39 r FIRSTTempoLFOIO;
#X obj 395 219 r LFOTempoRangeFIRST;
#X obj 122 251 * 0;
#X obj 99 215 +;
#X obj 150 214 r FIRSTTempoFB;
#X obj 40 189 bng 15 250 50 0 empty empty empty 0 -6 0 8 -262144 -1
-1;
#X text 11 35 freq;
#X obj 29 50 r LFOTempoFreqFIRST;
#X floatatom 12 240 5 0 0 0 - - -;
#X floatatom 88 305 5 0 0 0 - - -;
#X obj 278 179 metro 25;
#X floatatom 162 405 5 0 0 0 - - -;
#X obj 113 275 *;
#X connect 0 0 5 0;
#X connect 0 0 7 0;
#X connect 1 0 25 0;
#X connect 2 0 18 1;
#X connect 2 0 20 0;
#X connect 5 0 11 0;
#X connect 5 0 17 0;
#X connect 11 0 8 0;
#X connect 11 0 26 0;
#X connect 12 0 13 0;
#X connect 12 0 13 1;
#X connect 13 0 14 0;
#X connect 14 0 2 0;
#X connect 15 0 1 0;
#X connect 16 0 11 1;
#X connect 17 0 27 0;
#X connect 18 0 0 0;
#X connect 18 0 23 0;
#X connect 18 0 24 0;
#X connect 19 0 17 1;
#X connect 20 0 18 0;
#X connect 22 0 12 0;
#X connect 22 0 12 1;
#X connect 22 0 27 1;
#X connect 25 0 5 0;
#X connect 27 0 18 0;
#X restore 236 131 pd LFO Tempo;
#X obj 305 86 r TempoOscFIRST;
#X obj 316 223 r LegatoFIRST;
#X obj 53 399 snapshot~;
#X obj 53 384 bng 15 250 50 0 empty empty empty 0 -6 0 8 -262144 -1
-1;
#X obj 53 415 print wha?;
#X obj 329 135 t f b;
#X obj 81 198 t f b;
#X obj 333 359 t f b;
#X connect 0 0 7 0;
#X connect 1 0 9 0;
#X connect 2 0 28 0;
#X connect 7 0 19 0;
#X connect 8 0 7 1;
#X connect 9 0 8 0;
#X connect 10 1 11 0;
#X connect 11 0 0 0;
#X connect 12 0 6 0;
#X connect 12 1 13 0;
#X connect 14 1 15 0;
#X connect 15 0 12 1;
#X connect 16 0 30 0;
#X connect 17 0 9 1;
#X connect 18 0 29 0;
#X connect 19 0 12 0;
#X connect 20 0 19 1;
#X connect 21 0 1 0;
#X connect 22 1 17 0;
#X connect 23 0 2 0;
#X connect 24 0 8 1;
#X connect 25 0 27 0;
#X connect 26 0 25 0;
#X connect 28 0 17 1;
#X connect 28 1 17 0;
#X connect 29 0 11 1;
#X connect 29 1 11 0;
#X connect 30 0 15 1;
#X connect 30 1 15 0;
#X restore 100 656 pd pulsilator one;
#X obj 119 243 cnv 15 99 76 empty pitchcanvas PITCH 5 4 0 34 -233017
-66577 0;
#X floatatom 122 324 5 0 0 0 - - FreqOscFIRST;
#X obj 71 150 tgl 40 0 FIRSTFreqLFOIO 2FIRSTFreqLFOIO empty 0 -6 0
8 -262144 -1 -1 0 79.9101;
#X obj 198 273 vsl 35 65 0 2 0 0 FIRSTFreqLFOPitch 2FIRSTFreqLFOPitch
empty 0 -8 0 8 -262144 -1 -1 0 1;
#X obj 238 272 vsl 35 65 0 127 0 0 FIRSTRangeLFOPitch 2FIRSTRangeLFOPitch
empty 0 -8 0 8 -262144 -1 -1 0 1;
#X text 198 339 Freq;
#X text 234 340 Range;
#X text 136 254 in frequency;
#X text 152 267 [Hz];
#X obj 48 460 cnv 15 247 55 empty tempocanvas TEMPO 20 12 0 34 -233017
-66577 0;
#X floatatom 94 535 5 0 0 0 - 2TempoOscFIRST TempoOscFIRST;
#X obj 135 519 tgl 30 0 FIRSTTempoLFOIO 2FIRSTTempoLFOIO empty 0 -6
0 8 -262144 -1 -1 0 1;
#X text 139 504 LFO;
#X obj 170 471 vsl 35 75 0 2 0 0 LFOTempoFreqFIRST 2LFOTempoFreqFIRST
empty 0 -8 0 8 -262144 -1 -1 0 1;
#X obj 210 472 vsl 35 75 0 300 0 0 LFOTempoRangeFIRST 2LFOTempoRangeFIRST
empty 0 -8 0 8 -262144 -1 -1 0 1;
#X text 172 455 Freq;
#X text 210 455 Range;
#X obj 125 356 cnv 15 192 82 fast clov PAN 6 62 0 34 -233017 -66577
0;
#X text 101 482 BPM;
#X obj 202 406 tgl 30 0 FIRSTPanLFOIO 2FIRSTPanLFOIO empty 0 -6 0 8
-262144 -1 -1 0 1;
#X obj 236 360 vsl 35 75 0 2 0 0 LFOPanFreqFIRST 2LFOPanFreqFIRST empty
0 -8 0 8 -262144 -1 -1 0 1;
#X obj 276 361 vsl 35 75 0 50 0 0 LFOPanRangeFIRST 2LFOPanRangeFIRST
empty 0 -8 0 8 -262144 -1 -1 0 1;
#X text 240 436 Freq;
#X text 276 436 Range;
#X obj 138 358 hsl 90 34 0 127 0 0 pansetFIRST 2pansetFIRST empty -2
-6 0 8 -262144 -1 -1 0 1;
#X text 205 437 LFO;
#X obj 139 190 cnv 15 172 38 fast quiggutt 66 0 0 0 4 -228856 -262144
0;
#X obj 170 200 cnv 1 148 17 empty quiggot 20 12 0 0 4 -262144 -262144
0;
#N canvas 155 142 653 238 Envelope 0;
#X floatatom 51 118 5 0 0 0 - - AttackEnvFIRST;
#X floatatom 94 118 5 0 0 0 - - DecayEnvFIRST;
#X floatatom 137 118 5 0 0 0 - - SustainEnvFIRST;
#X floatatom 180 118 5 0 0 0 - - ReleaseEnvFIRST;
#X obj 51 43 vsl 8 64 10 2000 0 1 empty empty attack 0 -8 0 8 -262144
-1 -1 3900 1;
#X obj 94 43 vsl 8 64 10 2000 0 1 empty empty decay 0 -8 0 8 -262144
-1 -1 1900 1;
#X obj 180 43 vsl 8 64 10 2000 0 1 empty empty release 0 -8 0 8 -262144
-1 -1 2300 1;
#X obj 137 43 vsl 8 64 0 1 0 1 empty empty sustain 0 -8 0 8 -262144
-1 -1 3500 1;
#X msg 11 41 lina;
#X msg 11 72 loga;
#N canvas 0 22 450 300 (subpatch) 0;
#X array envFIRST 88200 float 0;
#X coords 0 1 88199 0 300 140 1;
#X restore 259 14 graph;
#X obj 258 155 hsl 300 15 0 1500 0 0 LegatoFIRST empty empty -2 -6
0 8 -262144 -1 -1 0 1;
#X text 517 169 Legato;
#X text 258 169 Staccato;
#X obj -18 143 s EnvShapeFIRST;
#X text -18 164 this needs saving features;
#X text -1 24 attack;
#X connect 4 0 0 0;
#X connect 5 0 1 0;
#X connect 6 0 3 0;
#X connect 7 0 2 0;
#X connect 8 0 14 0;
#X connect 9 0 14 0;
#X restore 170 200 pd Envelope Generator;
#X text 229 213 [click here];
#X obj 60 6 cnv 15 160 125 empty quiggle WaveShape 145 5 0 21 -233017
-66577 0;
#X obj 249 28 vradio 20 1 0 5 wavpresetFIRST 2wavpresetFIRST empty
0 -6 0 8 -262144 -1 -1 0;
#X text 270 31 sin;
#X text 270 51 square;
#X text 269 91 sawtooth;
#X text 270 70 clarinet;
#X obj 217 30 vsl 23 96 0 0.6182 0 0 whitenoiseFIRST 2whitenoiseFIRST
empty 0 -8 0 8 -262144 -1 -1 0 1;
#X text 221 127 white;
#X text 221 135 noise;
#X text 270 110 nothing;
#X obj 108 29 cnv 15 98 98 empty quiggull 34 34 0 0 4 -262144 -262144
0;
#N canvas 0 22 458 308 (subpatch) 0;
#X array OverToneFIRST 515 float 3;
#A 0 -0.0952608 0 0.0952608 0.193048 0.29583 0.40596 0.525624 0.656783
0.801133 0.960057 1.13459 1.32539 1.53272 1.75642 1.99589 2.25014 2.51774
2.79686 3.08529 3.38049 3.67959 3.97947 4.27678 4.56802 4.84956 5.11773
5.36886 5.59937 5.80579 5.98484 6.13348 6.24895 6.32884 6.37112 6.37415
6.33674 6.25816 6.13814 5.97686 5.77502 5.53372 5.25452 4.93938 4.59064
4.21096 3.80329 3.37081 2.91689 2.44501 1.95873 1.4616 0.957119 0.448669
-0.060528 -0.567473 -1.06943 -1.56398 -2.04904 -2.5229 -2.98424 -3.43217
-3.86618 -4.2862 -4.69256 -5.08597 -5.4675 -5.83855 -6.20081 -6.55623
-6.90695 -7.25526 -7.60354 -7.9542 -8.30963 -8.67215 -9.04393 -9.42695
-9.82295 -10.2334 -10.6594 -11.1016 -11.5606 -12.0361 -12.5277 -13.0346
-13.5552 -14.0879 -14.6304 -15.1802 -15.7343 -16.2895 -16.8423 -17.3889
-17.9255 -18.4481 -18.9525 -19.4349 -19.8911 -20.3175 -20.7103 -21.0661
-21.3819 -21.6548 -21.8826 -22.0631 -22.195 -22.277 -22.3087 -22.2898
-22.2207 -22.1021 -21.9353 -21.7219 -21.4638 -21.1634 -20.8232 -20.446
-20.0349 -19.5929 -19.1232 -18.629 -18.1133 -17.5793 -17.0296 -16.467
-15.8937 -15.3118 -14.7231 -14.1288 -13.5299 -12.9269 -12.3201 -11.7092
-11.0936 -10.4723 -9.84395 -9.20694 -8.55938 -7.89916 -7.22398 -6.53143
-5.81906 -5.08439 -4.32501 -3.53861 -2.72306 -1.87645 -0.997136 -0.083803
0.864506 1.84836 2.86789 3.9228 5.01233 6.13527 7.28993 8.4742 9.68554
10.921 12.1772 13.4506 14.7372 16.0328 17.3332 18.6338 19.9302 21.2178
22.4923 23.7491 24.9843 26.1939 27.3742 28.5219 29.6341 30.7083 31.7423
32.7345 33.6836 34.5888 35.4499 36.2669 37.0403 37.7711 38.4604 39.1099
39.7214 40.2968 40.8384 41.3485 41.8293 42.2831 42.7122 43.1187 43.5045
43.8713 44.2205 44.5532 44.8701 45.1716 45.4578 45.7282 45.982 46.2182
46.435 46.6306 46.8028 46.949 47.0665 47.1522 47.2031 47.2158 47.1872
47.1139 46.9929 46.821 46.5955 46.3137 45.9734 45.5727 45.1099 44.584
43.9942 43.3404 42.6228 41.8422 40.9998 40.0973 39.1368 38.1209 37.0526
35.9352 34.7723 33.5677 32.3254 31.0498 29.745 28.4153 27.065 25.6983
24.319 22.9311 21.538 20.1429 18.7486 17.3578 15.9726 14.5945 13.2249
11.8647 10.5143 9.17378 7.84277 6.52061 5.20635 3.89872 2.59628 1.29738
0.000280411 -1.29682 -2.59571 -3.89816 -5.20578 -6.52004 -7.84219 -9.1732
-10.5137 -11.8641 -13.2243 -14.5939 -15.972 -17.3572 -18.748 -20.1422
-21.5374 -22.9305 -24.3185 -25.6977 -27.0645 -28.4147 -29.7444 -31.0492
-32.3249 -33.5671 -34.7718 -35.9347 -37.0522 -38.1205 -39.1364 -40.0969
-40.9994 -41.8419 -42.6225 -43.3401 -43.9939 -44.5837 -45.1097 -45.5725
-45.9733 -46.3136 -46.5954 -46.8209 -46.9928 -47.1139 -47.1871 -47.2158
-47.2031 -47.1522 -47.0665 -46.9491 -46.8029 -46.6307 -46.4351 -46.2183
-45.9821 -45.7283 -45.4579 -45.1717 -44.8702 -44.5533 -44.2206 -43.8715
-43.5047 -43.1189 -42.7124 -42.2833 -41.8295 -41.3487 -40.8387 -40.2971
-39.7216 -39.1102 -38.4607 -37.7714 -37.0406 -36.2672 -35.4503 -34.5892
-33.684 -32.7349 -31.7428 -30.7088 -29.6346 -28.5224 -27.3747 -26.1944
-24.9848 -23.7497 -22.4928 -21.2184 -19.9308 -18.6344 -17.3338 -16.0334
-14.7377 -13.4511 -12.1778 -10.9215 -9.68606 -8.47472 -7.29044 -6.13576
-5.01281 -3.92326 -2.86833 -1.84879 -0.864924 0.0834005 0.996748 1.87608
2.7227 3.53827 4.32468 5.08407 5.81875 6.53113 7.22368 7.89887 8.5591
9.20667 9.84368 10.472 11.0934 11.709 12.3199 12.9267 13.5296 14.1285
14.7228 15.3116 15.8935 16.4668 17.0294 17.5791 18.1131 18.6288 19.123
19.5927 20.0347 20.4458 20.823 21.1632 21.4637 21.7218 21.9352 22.1021
22.2206 22.2898 22.3087 22.2771 22.195 22.0632 21.8826 21.6549 21.382
21.0662 20.7104 20.3177 19.8913 19.4351 18.9528 18.4483 17.9258 17.3892
16.8425 16.2898 15.7346 15.1804 14.6307 14.0881 13.5555 13.0348 12.528
12.0363 11.5608 11.1018 10.6595 10.2336 9.82312 9.42712 9.04409 8.67231
8.30979 7.95435 7.60369 7.25541 6.90711 6.55639 6.20097 5.8387 5.46766
5.08614 4.69274 4.28638 3.86636 3.43236 2.98444 2.5231 2.04925 1.56419
1.06965 0.567691 0.0607479 -0.448449 -0.956899 -1.46139 -1.95852 -2.44481
-2.91669 -3.37062 -3.8031 -4.21079 -4.59048 -4.93924 -5.25439 -5.53361
-5.77492 -5.97679 -6.13807 -6.25812 -6.33672 -6.37414 -6.37113 -6.32887
-6.24899 -6.13353 -5.98491 -5.80588 -5.59947 -5.36897 -5.11784 -4.84968
-4.56814 -4.27691 -3.9796 -3.67972 -3.38061 -3.08541 -2.79698 -2.51786
-2.25026 -1.996 -1.75652 -1.53282 -1.32548 -1.13467 -0.960129 -0.801198
-0.656842 -0.525678 -0.40601 -0.295876 -0.193091 -0.0953024 -4.10143e-05
0.0952192;
#X coords 0 100 514 -100 100 100 1;
#X restore 105 29 graph;
#X obj 50 215 cnv 15 60 187 fast quigge Volume -34 193 0 25 -233017
-66577 0;
#X obj 58 230 vsl 42 160 0.005 0.5 1 0 VolumeFIRST 2VolumeFIRST empty
0 -8 0 8 -262144 -1 -1 0 1;
#X obj 250 472 vsl 35 75 0 15 0 0 FIRSTTempoFB 2FIRSTTempoFB empty
0 -8 0 8 -262144 -1 -1 0 1;
#X text 247 455 Feedback;
#X obj 278 272 vsl 35 65 0 1 0 0 FIRSTLFOPitchFB 2FIRSTLFOPitchFB empty
0 -8 0 8 -262144 -1 -1 0 1;
#X obj 122 299 inlet;
#X obj 100 675 outlet~;
#X obj 214 675 outlet~;
#X text 69 189 On/OFF;
#X text 274 340 Feedback;
#X obj 139 149 cnv 15 172 38 fast quiggutt 66 0 0 0 4 -228856 -262144
0;
#X obj 170 159 cnv 1 148 17 empty quiggot 20 12 0 0 4 -262144 -262144
0;
#X text 229 172 [click here];
#N canvas 170 48 368 421 Overtone 0;
#X obj 336 540 pack 0 0 0 0 0 0 0 0 0 0 0 0;
#N canvas 0 22 510 360 new 0;
#X obj 118 43 inlet;
#X obj 290 44 inlet;
#X obj 207 264 outlet;
#X obj 185 197 sin;
#N canvas 0 22 462 312 countup 0;
#X obj 169 77 inlet;
#X obj 201 128 int;
#X obj 244 129 + 1;
#X obj 232 183 * 1;
#X obj 299 73 inlet;
#X obj 221 237 outlet;
#X connect 0 0 1 0;
#X connect 1 0 2 0;
#X connect 1 0 3 0;
#X connect 2 0 1 1;
#X connect 3 0 5 0;
#X connect 4 0 3 1;
#X restore 185 178 pd countup;
#X floatatom 232 136 5 0 0 0 - - -;
#X obj 155 105 tgl 15 0 empty empty empty 0 -6 0 8 -262144 -1 -1 0
1;
#X obj 155 123 metro 50;
#X obj 272 85 * 0.01;
#X connect 0 0 6 0;
#X connect 1 0 8 0;
#X connect 3 0 2 0;
#X connect 4 0 3 0;
#X connect 5 0 4 1;
#X connect 6 0 7 0;
#X connect 7 0 4 0;
#X connect 8 0 5 0;
#X restore 351 184 pd new LFO;
#X obj 351 165 tgl 15 0 empty FIRSTotONE empty 0 -6 0 8 -262144 -1
-1 0 1;
#N canvas 0 22 490 340 new 0;
#X obj 118 43 inlet;
#X obj 290 44 inlet;
#X obj 207 264 outlet;
#X obj 185 197 sin;
#N canvas 0 22 458 308 countup 0;
#X obj 169 77 inlet;
#X obj 201 128 int;
#X obj 244 129 + 1;
#X obj 232 183 * 1;
#X obj 299 73 inlet;
#X obj 221 237 outlet;
#X connect 0 0 1 0;
#X connect 1 0 2 0;
#X connect 1 0 3 0;
#X connect 2 0 1 1;
#X connect 3 0 5 0;
#X connect 4 0 3 1;
#X restore 185 177 pd countup;
#X floatatom 232 136 5 0 0 0 - - -;
#X obj 155 105 tgl 15 0 empty empty empty 0 -6 0 8 -262144 -1 -1 0
1;
#X obj 155 123 metro 50;
#X obj 290 93 * 0.01;
#X connect 0 0 6 0;
#X connect 1 0 8 0;
#X connect 3 0 2 0;
#X connect 4 0 3 0;
#X connect 5 0 4 1;
#X connect 6 0 7 0;
#X connect 7 0 4 0;
#X connect 8 0 5 0;
#X restore 396 223 pd new LFO;
#X obj 395 206 tgl 15 0 empty FIRSTotTWO empty 0 -6 0 8 -262144 -1
-1 0 1;
#N canvas 0 22 486 336 new 0;
#X obj 118 43 inlet;
#X obj 290 44 inlet;
#X obj 207 264 outlet;
#X obj 193 214 sin;
#N canvas 0 22 462 312 countup 0;
#X obj 169 77 inlet;
#X obj 201 128 int;
#X obj 244 129 + 1;
#X obj 232 183 * 1;
#X obj 299 73 inlet;
#X obj 221 237 outlet;
#X connect 0 0 1 0;
#X connect 1 0 2 0;
#X connect 1 0 3 0;
#X connect 2 0 1 1;
#X connect 3 0 5 0;
#X connect 4 0 3 1;
#X restore 185 177 pd countup;
#X obj 155 105 tgl 15 0 empty empty empty 0 -6 0 8 -262144 -1 -1 0
1;
#X obj 155 124 metro 50;
#X obj 290 93 * 0.01;
#X connect 0 0 5 0;
#X connect 1 0 7 0;
#X connect 3 0 2 0;
#X connect 4 0 3 0;
#X connect 5 0 6 0;
#X connect 6 0 4 0;
#X connect 7 0 4 1;
#X restore 421 264 pd new LFO;
#X obj 420 247 tgl 15 0 empty FIRSTotTHREE empty 0 -6 0 8 -262144 -1
-1 0 1;
#N canvas 0 22 494 344 new 0;
#X obj 118 43 inlet;
#X obj 290 44 inlet;
#X obj 207 264 outlet;
#X obj 185 197 sin;
#N canvas 0 22 458 308 countup 0;
#X obj 169 77 inlet;
#X obj 201 128 int;
#X obj 244 129 + 1;
#X obj 232 183 * 1;
#X obj 299 73 inlet;
#X obj 221 237 outlet;
#X connect 0 0 1 0;
#X connect 1 0 2 0;
#X connect 1 0 3 0;
#X connect 2 0 1 1;
#X connect 3 0 5 0;
#X connect 4 0 3 1;
#X restore 185 177 pd countup;
#X obj 155 105 tgl 15 0 empty empty empty 0 -6 0 8 -262144 -1 -1 0
1;
#X obj 155 124 metro 50;
#X obj 289 91 * 0.01;
#X connect 0 0 5 0;
#X connect 1 0 7 0;
#X connect 3 0 2 0;
#X connect 4 0 3 0;
#X connect 5 0 6 0;
#X connect 6 0 4 0;
#X connect 7 0 4 1;
#X restore 466 303 pd new LFO;
#X obj 465 286 tgl 15 0 empty FIRSTotFOUR empty 0 -6 0 8 -262144 -1
-1 0 1;
#N canvas 0 22 506 356 new 0;
#X obj 118 43 inlet;
#X obj 290 44 inlet;
#X obj 207 264 outlet;
#X obj 185 197 sin;
#N canvas 0 22 462 312 countup 0;
#X obj 169 77 inlet;
#X obj 201 128 int;
#X obj 244 129 + 1;
#X obj 232 183 * 1;
#X obj 299 73 inlet;
#X obj 221 237 outlet;
#X connect 0 0 1 0;
#X connect 1 0 2 0;
#X connect 1 0 3 0;
#X connect 2 0 1 1;
#X connect 3 0 5 0;
#X connect 4 0 3 1;
#X restore 185 177 pd countup;
#X obj 155 105 tgl 15 0 empty empty empty 0 -6 0 8 -262144 -1 -1 0
1;
#X obj 156 125 metro 50;
#X obj 290 93 * 0.01;
#X connect 0 0 5 0;
#X connect 1 0 7 0;
#X connect 3 0 2 0;
#X connect 4 0 3 0;
#X connect 5 0 6 0;
#X connect 6 0 4 0;
#X connect 7 0 4 1;
#X restore 503 348 pd new LFO;
#X obj 502 331 tgl 15 0 empty FIRSTotFIVE empty 0 -6 0 8 -262144 -1
-1 0 1;
#N canvas 0 22 490 340 new 0;
#X obj 118 43 inlet;
#X obj 290 44 inlet;
#X obj 207 264 outlet;
#X obj 185 197 sin;
#N canvas 0 22 458 308 countup 0;
#X obj 169 77 inlet;
#X obj 201 128 int;
#X obj 244 129 + 1;
#X obj 232 183 * 1;
#X obj 299 73 inlet;
#X obj 221 237 outlet;
#X connect 0 0 1 0;
#X connect 1 0 2 0;
#X connect 1 0 3 0;
#X connect 2 0 1 1;
#X connect 3 0 5 0;
#X connect 4 0 3 1;
#X restore 185 177 pd countup;
#X obj 155 105 tgl 15 0 empty empty empty 0 -6 0 8 -262144 -1 -1 0
1;
#X obj 154 126 metro 50;
#X obj 290 93 * 0.01;
#X connect 0 0 5 0;
#X connect 1 0 7 0;
#X connect 3 0 2 0;
#X connect 4 0 3 0;
#X connect 5 0 6 0;
#X connect 6 0 4 0;
#X connect 7 0 4 1;
#X restore 548 387 pd new LFO;
#X obj 547 370 tgl 15 0 empty FIRSTotSIX empty 0 -6 0 8 -262144 -1
-1 0 1;
#N canvas 0 22 482 332 new 0;
#X obj 118 43 inlet;
#X obj 294 48 inlet;
#X obj 207 264 outlet;
#X obj 211 41 inlet;
#X obj 185 197 sin;
#N canvas 0 22 462 312 countup 0;
#X obj 169 77 inlet;
#X obj 201 128 int;
#X obj 244 129 + 1;
#X obj 232 183 * 1;
#X obj 299 73 inlet;
#X obj 221 237 outlet;
#X connect 0 0 1 0;
#X connect 1 0 2 0;
#X connect 1 0 3 0;
#X connect 2 0 1 1;
#X connect 3 0 5 0;
#X connect 4 0 3 1;
#X restore 185 178 pd countup;
#X obj 155 124 metro 100;
#X obj 155 105 tgl 15 0 empty empty empty 0 -6 0 8 -262144 -1 -1 0
1;
#X obj 290 93 * 0.01;
#X connect 0 0 7 0;
#X connect 1 0 8 0;
#X connect 4 0 2 0;
#X connect 5 0 4 0;
#X connect 6 0 5 0;
#X connect 7 0 6 0;
#X connect 8 0 5 1;
#X restore 631 214 pd new LFO;
#X obj 630 197 tgl 15 0 empty FIRSTotSEVEN empty 0 -6 0 8 -262144 -1
-1 0 1;
#N canvas 0 22 486 336 new 0;
#X obj 118 43 inlet;
#X obj 290 44 inlet;
#X obj 207 264 outlet;
#X obj 211 41 inlet;
#X obj 185 197 sin;
#N canvas 0 22 462 312 countup 0;
#X obj 169 77 inlet;
#X obj 201 128 int;
#X obj 244 129 + 1;
#X obj 232 183 * 1;
#X obj 299 73 inlet;
#X obj 221 237 outlet;
#X connect 0 0 1 0;
#X connect 1 0 2 0;
#X connect 1 0 3 0;
#X connect 2 0 1 1;
#X connect 3 0 5 0;
#X connect 4 0 3 1;
#X restore 185 177 pd countup;
#X obj 155 124 metro 100;
#X obj 155 105 tgl 15 0 empty empty empty 0 -6 0 8 -262144 -1 -1 0
1;
#X obj 290 93 * 0.01;
#X connect 0 0 7 0;
#X connect 1 0 8 0;
#X connect 4 0 2 0;
#X connect 5 0 4 0;
#X connect 6 0 5 0;
#X connect 7 0 6 0;
#X connect 8 0 5 1;
#X restore 676 253 pd new LFO;
#X obj 675 236 tgl 15 0 empty FIRSTotEIGHT empty 0 -6 0 8 -262144 -1
-1 0 1;
#N canvas 0 22 486 336 new 0;
#X obj 118 43 inlet;
#X obj 290 44 inlet;
#X obj 207 264 outlet;
#X obj 211 41 inlet;
#X obj 185 197 sin;
#N canvas 0 22 462 312 countup 0;
#X obj 169 77 inlet;
#X obj 201 128 int;
#X obj 244 129 + 1;
#X obj 232 183 * 1;
#X obj 299 73 inlet;
#X obj 221 237 outlet;
#X connect 0 0 1 0;
#X connect 1 0 2 0;
#X connect 1 0 3 0;
#X connect 2 0 1 1;
#X connect 3 0 5 0;
#X connect 4 0 3 1;
#X restore 185 177 pd countup;
#X obj 155 124 metro 100;
#X obj 155 105 tgl 15 0 empty empty empty 0 -6 0 8 -262144 -1 -1 0
1;
#X obj 290 93 * 0.01;
#X connect 0 0 7 0;
#X connect 1 0 8 0;
#X connect 4 0 2 0;
#X connect 5 0 4 0;
#X connect 6 0 5 0;
#X connect 7 0 6 0;
#X connect 8 0 5 1;
#X restore 701 294 pd new LFO;
#X obj 700 277 tgl 15 0 empty FIRSTotNINE empty 0 -6 0 8 -262144 -1
-1 0 1;
#N canvas 0 22 486 336 new 0;
#X obj 118 43 inlet;
#X obj 290 44 inlet;
#X obj 207 264 outlet;
#X obj 211 41 inlet;
#X obj 185 197 sin;
#N canvas 0 22 466 316 countup 0;
#X obj 169 77 inlet;
#X obj 201 128 int;
#X obj 244 129 + 1;
#X obj 232 183 * 1;
#X obj 299 73 inlet;
#X obj 221 237 outlet;
#X connect 0 0 1 0;
#X connect 1 0 2 0;
#X connect 1 0 3 0;
#X connect 2 0 1 1;
#X connect 3 0 5 0;
#X connect 4 0 3 1;
#X restore 185 177 pd countup;
#X obj 155 124 metro 100;
#X obj 155 105 tgl 15 0 empty empty empty 0 -6 0 8 -262144 -1 -1 0
1;
#X obj 290 93 * 0.01;
#X connect 0 0 7 0;
#X connect 1 0 8 0;
#X connect 4 0 2 0;
#X connect 5 0 4 0;
#X connect 6 0 5 0;
#X connect 7 0 6 0;
#X connect 8 0 5 1;
#X restore 746 333 pd new LFO;
#X obj 745 316 tgl 15 0 empty FIRSTotTEN empty 0 -6 0 8 -262144 -1
-1 0 1;
#N canvas 0 22 486 336 new 0;
#X obj 118 43 inlet;
#X obj 290 44 inlet;
#X obj 207 264 outlet;
#X obj 211 41 inlet;
#X obj 185 197 sin;
#N canvas 0 22 466 316 countup 0;
#X obj 169 77 inlet;
#X obj 201 128 int;
#X obj 244 129 + 1;
#X obj 232 183 * 1;
#X obj 299 73 inlet;
#X obj 221 237 outlet;
#X connect 0 0 1 0;
#X connect 1 0 2 0;
#X connect 1 0 3 0;
#X connect 2 0 1 1;
#X connect 3 0 5 0;
#X connect 4 0 3 1;
#X restore 185 177 pd countup;
#X obj 155 105 tgl 15 0 empty empty empty 0 -6 0 8 -262144 -1 -1 0
1;
#X obj 155 124 metro 25;
#X obj 275 128 * 0.01;
#X connect 0 0 6 0;
#X connect 1 0 8 0;
#X connect 4 0 2 0;
#X connect 5 0 4 0;
#X connect 6 0 7 0;
#X connect 7 0 5 0;
#X connect 8 0 5 1;
#X restore 783 378 pd new LFO;
#X obj 782 361 tgl 15 0 empty FIRSTotELEVEN empty 0 -6 0 8 -262144
-1 -1 0 1;
#N canvas 0 22 494 344 new 0;
#X obj 118 43 inlet;
#X obj 290 44 inlet;
#X obj 207 264 outlet;
#X obj 211 41 inlet;
#X obj 185 197 sin;
#N canvas 0 22 470 320 countup 0;
#X obj 169 77 inlet;
#X obj 201 128 int;
#X obj 244 129 + 1;
#X obj 232 183 * 1;
#X obj 299 73 inlet;
#X obj 221 237 outlet;
#X connect 0 0 1 0;
#X connect 1 0 2 0;
#X connect 1 0 3 0;
#X connect 2 0 1 1;
#X connect 3 0 5 0;
#X connect 4 0 3 1;
#X restore 185 177 pd countup;
#X obj 155 105 tgl 15 0 empty empty empty 0 -6 0 8 -262144 -1 -1 0
1;
#X obj 155 124 metro 25;
#X obj 266 117 * 0.01;
#X connect 0 0 6 0;
#X connect 1 0 8 0;
#X connect 4 0 2 0;
#X connect 5 0 4 0;
#X connect 6 0 7 0;
#X connect 7 0 5 0;
#X connect 8 0 5 1;
#X restore 828 417 pd new LFO;
#X obj 827 400 tgl 15 0 empty FIRSTotTWELVE empty 0 -6 0 8 -262144
-1 -1 0 1;
#X msg 315 565 \; OverToneFIRST sinesum 512 \$1 \$2 \$3 \$4 \$5 \$6
\$7 \$8 \$9 \$10 \$11 \$12;
#X obj 482 387 * 38;
#X obj 538 411 * 34;
#X obj 452 366 * 43;
#X obj 615 254 * 3;
#X obj 683 332 * 2.7;
#X obj 701 360 * 2.5;
#X obj 732 396 * 2.3;
#X obj 762 417 * 2.1;
#X obj 362 275 * 100;
#X obj 401 301 * 70;
#X obj 421 330 * 50;
#X obj 316 510 metro 25;
#X obj 51 15 cnv 15 266 169 empty empty OvertonePresence -41 0 0 28
-233017 -66577 0;
#X obj 69 32 vsl 15 128 0 100 0 0 OverToneFIRST0 2OverToneFIRST0 empty
0 -8 0 8 -262144 -1 -1 0 1;
#X obj 89 32 vsl 15 128 0 90 0 0 OverToneFIRST1 2OverToneFIRST1 empty
0 -8 0 8 -262144 -1 -1 0 1;
#X obj 109 32 vsl 15 128 0 80 0 0 OverToneFIRST2 2OverToneFIRST2 empty
0 -8 0 8 -262144 -1 -1 0 1;
#X obj 129 32 vsl 15 128 0 70 0 0 OverToneFIRST3 2OverToneFIRST3 empty
0 -8 0 8 -262144 -1 -1 0 1;
#X obj 149 32 vsl 15 128 0 60 0 0 OverToneFIRST4 2OverToneFIRST4 empty
0 -8 0 8 -262144 -1 -1 0 1;
#X obj 169 32 vsl 15 128 0 50 0 0 OverToneFIRST5 2OverToneFIRST5 empty
0 -8 0 8 -262144 -1 -1 0 1;
#X obj 189 32 vsl 15 128 0 45 0 0 OverToneFIRST6 2OverToneFIRST6 empty
0 -8 0 8 -262144 -1 -1 0 1;
#X obj 209 32 vsl 15 128 0 40 0 0 OverToneFIRST7 2OverToneFIRST7 empty
0 -8 0 8 -262144 -1 -1 0 1;
#X obj 229 32 vsl 15 128 0 35 0 0 OverToneFIRST8 2OverToneFIRST8 empty
0 -8 0 8 -262144 -1 -1 0 1;
#X obj 249 32 vsl 15 128 0 30 0 0 OverToneFIRST9 2OverToneFIRST9 empty
0 -8 0 8 -262144 -1 -1 0 1;
#X obj 269 32 vsl 15 128 0 27.5 0 0 OverToneFIRST10 OverToneFIRST10
empty 0 -8 0 8 -262144 -1 -1 0 1;
#X obj 289 32 vsl 15 128 0 25 0 0 OverToneFIRST11 2OverToneFIRST11
empty 0 -8 0 8 -262144 -1 -1 0 1;
#X obj 51 195 cnv 15 266 169 empty face OvertoneActivity -41 168 0
28 -233017 -66577 0;
#X obj 68 216 vsl 15 128 0.2 10 0 0 Harmonic0FIRST 2Harmonic0FIRST
empty 0 -8 0 8 -262144 -1 -1 0 1;
#X obj 70 181 tgl 12 0 FIRSTotONE 2FIRSTotONE 1 0 -6 0 8 -262144 -1
-1 0 1;
#X obj 90 181 tgl 12 0 FIRSTotTWO 2FIRSTotTWO 2 0 -6 0 8 -262144 -1
-1 0 1;
#X obj 110 181 tgl 12 0 FIRSTotTHREE 2FIRSTotTHREE 3 0 -6 0 8 -262144
-1 -1 0 1;
#X obj 130 181 tgl 12 0 FIRSTotFOUR 2FIRSTotFOUR 4 0 -6 0 8 -262144
-1 -1 0 1;
#X obj 150 181 tgl 12 0 FIRSTotFIVE 2FIRSTotFIVE 5 0 -6 0 8 -262144
-1 -1 0 1;
#X obj 170 181 tgl 12 0 FIRSTotSIX 2FIRSTotSIX 6 0 -6 0 8 -262144 -1
-1 0 1;
#X obj 191 181 tgl 12 0 FIRSTotSEVEN 2FIRSTotSEVEN 7 0 -6 0 8 -262144
-1 -1 0 1;
#X obj 210 181 tgl 12 0 FIRSTotEIGHT 2FIRSTotEIGHT 8 0 -6 0 8 -262144
-1 -1 0 1;
#X obj 230 181 tgl 12 0 FIRSTotNINE 2FIRSTotNINE 9 0 -6 0 8 -262144
-1 -1 0 1;
#X obj 250 181 tgl 12 0 FIRSTotTEN 2FIRSTotTEN 10 0 -6 0 8 -262144
-1 -1 0 1;
#X obj 270 181 tgl 12 0 FIRSTotELEVEN 2FIRSTotELEVEN 11 0 -6 0 8 -262144
-1 -1 0 1;
#X obj 290 181 tgl 12 0 FIRSTotTWELVE 2FIRSTotTWELVE 12 0 -6 0 8 -262144
-1 -1 0 1;
#X obj 643 -7 r Harmonic0FIRST;
#X obj 653 13 r Harmonic1FIRST;
#X obj 663 33 r Harmonic2FIRST;
#X obj 673 53 r Harmonic3FIRST;
#X obj 683 73 r Harmonic4FIRST;
#X obj 693 93 r Harmonic5FIRST;
#X obj 782 -7 r Harmonic6FIRST;
#X obj 793 13 r Harmonic7FIRST;
#X obj 803 33 r Harmonic8FIRST;
#X obj 813 53 r Harmonic9FIRST;
#X obj 823 73 r Harmonic10FIRST;
#X obj 833 93 r Harmonic11FIRST;
#X obj 818 440 * 1.5;
#X obj 88 216 vsl 15 128 0.2 10 0 0 Harmonic1FIRST 2Harmonic1FIRST
empty 0 -8 0 8 -262144 -1 -1 0 1;
#X obj 108 216 vsl 15 128 0.2 10 0 0 Harmonic2FIRST 2Harmonic2FIRST
empty 0 -8 0 8 -262144 -1 -1 0 1;
#X obj 128 216 vsl 15 128 0.2 10 0 0 Harmonic3FIRST 2Harmonic3FIRST
empty 0 -8 0 8 -262144 -1 -1 0 1;
#X obj 148 216 vsl 15 128 0.2 10 0 0 Harmonic4FIRST 2Harmonic4FIRST
empty 0 -8 0 8 -262144 -1 -1 0 1;
#X obj 168 216 vsl 15 128 0.2 10 0 0 Harmonic5FIRST 2Harmonic5FIRST
empty 0 -8 0 8 -262144 -1 -1 0 1;
#X obj 188 216 vsl 15 128 0.2 10 0 0 Harmonic6FIRST 2Harmonic6FIRST
empty 0 -8 0 8 -262144 -1 -1 0 1;
#X obj 208 216 vsl 15 128 0.2 10 0 0 Harmonic7FIRST 2Harmonic7FIRST
empty 0 -8 0 8 -262144 -1 -1 0 1;
#X obj 228 216 vsl 15 128 0.2 10 0 0 Harmonic8FIRST 2Harmonic8FIRST
empty 0 -8 0 8 -262144 -1 -1 0 1;
#X obj 248 216 vsl 15 128 0.2 10 0 0 Harmonic9FIRST 2Harmonic9FIRST
empty 0 -8 0 8 -262144 -1 -1 0 1;
#X obj 268 216 vsl 15 128 0.2 10 0 0 Harmonic10FIRST 2Harmonic10FIRST
empty 0 -8 0 8 -262144 -1 -1 0 1;
#X obj 288 216 vsl 15 128 0.2 10 0 0 Harmonic11FIRST 2Harmonic11FIRST
empty 0 -8 0 8 -262144 -1 -1 0 1;
#X obj 371 16 r OverToneFIRST0;
#X obj 381 36 r OverToneFIRST1;
#X obj 391 56 r OverToneFIRST2;
#X obj 401 76 r OverToneFIRST3;
#X obj 411 96 r OverToneFIRST4;
#X obj 421 116 r OverToneFIRST5;
#X obj 501 15 r OverToneFIRST6;
#X obj 511 36 r OverToneFIRST7;
#X obj 521 56 r OverToneFIRST8;
#X obj 531 76 r OverToneFIRST9;
#X obj 541 96 r OverToneFIRST10;
#X obj 551 116 r OverToneFIRST11;
#N canvas 427 22 579 378 WavShape 0;
#X obj 26 74 sel 0 1 2 3 4;
#X obj 267 12 vradio 15 1 0 4 empty empty empty 0 -6 0 8 -262144 -1
-1 0;
#X text 286 12 sin;
#X text 287 27 square;
#X text 286 59 sawtooth;
#X text 286 44 clarinet;
#X obj 27 55 r wavpresetFIRST;
#X floatatom 380 47 5 0 0 0 - - -;
#X msg 44 260 \; OverToneFIRST sinesum 512 \$1 \$2 \$3 \$4 \$5 \$6
\$7 \$8 \$9 \$10 \$11 \$12 \$13 \$14 \$15 \$16;
#X msg 43 117 50 0 25 0 12.5 0 6.25 0 3.125 0 1.5625 0 0.71825 0 0.390625
0;
#X msg 58 149 50 25 0 12.5 0 6.25 0 3.125 0 1.5625 0 0.7185 0 0.390625
0 0.09;
#X msg 94 223 0 0 0 0 0 0 0 0 0 0 0 0 0 0 0 0;
#X msg 25 97 60 0 0 0 0 0 0 0 0 0 0 0 0 0 0 0 0;
#X msg 78 184 64 32 16 8 4 2 1 0.5 0.25 0.125 0.0625 0.03125 0.015625
0.0078125 0 0;
#N canvas 0 22 613 502 turnoffthemodulator 0;
#X obj 10 147 s 2FIRSTotONE;
#X msg 10 126 0;
#X obj 129 11 inlet;
#X obj 110 147 s 2FIRSTotONE;
#X msg 110 126 0;
#X obj 210 147 s 2FIRSTotONE;
#X msg 210 126 0;
#X obj 310 147 s 2FIRSTotONE;
#X msg 310 126 0;
#X obj 300 77 s 2FIRSTotONE;
#X msg 300 56 0;
#X obj 400 77 s 2FIRSTotONE;
#X msg 400 56 0;
#X obj 20 257 s 2FIRSTotONE;
#X msg 20 236 0;
#X obj 120 257 s 2FIRSTotONE;
#X msg 120 236 0;
#X obj 220 257 s 2FIRSTotONE;
#X msg 220 236 0;
#X obj 320 257 s 2FIRSTotONE;
#X msg 320 236 0;
#X obj 310 187 s 2FIRSTotONE;
#X msg 310 166 0;
#X obj 410 187 s 2FIRSTotONE;
#X msg 410 166 0;
#X connect 1 0 0 0;
#X connect 2 0 1 0;
#X connect 2 0 4 0;
#X connect 2 0 6 0;
#X connect 2 0 8 0;
#X connect 2 0 10 0;
#X connect 2 0 12 0;
#X connect 2 0 24 0;
#X connect 2 0 22 0;
#X connect 2 0 20 0;
#X connect 2 0 18 0;
#X connect 2 0 16 0;
#X connect 2 0 14 0;
#X connect 4 0 3 0;
#X connect 6 0 5 0;
#X connect 8 0 7 0;
#X connect 10 0 9 0;
#X connect 12 0 11 0;
#X connect 14 0 13 0;
#X connect 16 0 15 0;
#X connect 18 0 17 0;
#X connect 20 0 19 0;
#X connect 22 0 21 0;
#X connect 24 0 23 0;
#X restore 4 334 pd turnoffthemodulator;
#X connect 0 0 12 0;
#X connect 0 1 9 0;
#X connect 0 2 10 0;
#X connect 0 3 13 0;
#X connect 0 4 11 0;
#X connect 6 0 0 0;
#X connect 6 0 14 0;
#X connect 9 0 8 0;
#X connect 10 0 8 0;
#X connect 11 0 8 0;
#X connect 12 0 8 0;
#X connect 13 0 8 0;
#X restore 222 562 pd WavShape;
#X obj 15 181 tgl 15 0 OTONOFFFIRST 2OTONOFFFIRST On/Off 0 -6 0 8 -262144
-1 -1 0 1;
#X obj 316 486 r OTONOFFFIRST;
#X connect 0 0 25 0;
#X connect 1 0 34 0;
#X connect 2 0 1 0;
#X connect 3 0 35 0;
#X connect 4 0 3 0;
#X connect 5 0 36 0;
#X connect 6 0 5 0;
#X connect 7 0 28 0;
#X connect 8 0 7 0;
#X connect 9 0 26 0;
#X connect 10 0 9 0;
#X connect 11 0 27 0;
#X connect 12 0 11 0;
#X connect 13 0 29 0;
#X connect 14 0 13 0;
#X connect 15 0 30 0;
#X connect 16 0 15 0;
#X connect 17 0 31 0;
#X connect 18 0 17 0;
#X connect 19 0 32 0;
#X connect 20 0 19 0;
#X connect 21 0 33 0;
#X connect 22 0 21 0;
#X connect 23 0 77 0;
#X connect 24 0 23 0;
#X connect 26 0 0 4;
#X connect 27 0 0 5;
#X connect 28 0 0 3;
#X connect 29 0 0 6;
#X connect 30 0 0 7;
#X connect 31 0 0 8;
#X connect 32 0 0 9;
#X connect 33 0 0 10;
#X connect 34 0 0 0;
#X connect 35 0 0 1;
#X connect 36 0 0 2;
#X connect 37 0 0 0;
#X connect 65 0 1 1;
#X connect 66 0 3 1;
#X connect 67 0 5 1;
#X connect 68 0 7 1;
#X connect 69 0 9 1;
#X connect 70 0 11 1;
#X connect 71 0 13 2;
#X connect 72 0 15 2;
#X connect 73 0 17 2;
#X connect 74 0 19 2;
#X connect 75 0 21 2;
#X connect 76 0 23 2;
#X connect 77 0 0 11;
#X connect 89 0 34 1;
#X connect 90 0 35 1;
#X connect 91 0 36 1;
#X connect 92 0 28 1;
#X connect 93 0 26 1;
#X connect 94 0 27 1;
#X connect 95 0 29 1;
#X connect 96 0 30 1;
#X connect 97 0 31 1;
#X connect 98 0 32 1;
#X connect 99 0 33 1;
#X connect 100 0 77 1;
#X connect 103 0 37 0;
#X restore 170 159 pd Overtone Interplay;
#N canvas 169 142 706 577 SaveAll 0;
#X obj 413 -3 bng 8 250 50 0 empty empty empty 0 -6 0 8 -262144 -1
-1;
#X obj 413 -31 r SaveItAll;
#X msg 158 489 rewind;
#X msg 239 484 bang;
#X msg 311 366 write /Volumes/MEGAMAN/untitled;
#N canvas 771 36 472 512 openall 0;
#X obj 246 453 outlet;
#X obj 206 352 s MasterSaveOne;
#X obj 236 376 s MasterSaveTwo;
#X obj 266 400 s MasterSaveThree;
#X obj 296 422 s MasterSaveFour;
#X obj 148 234 textfile;
#X msg 230 119 rewind;
#X msg 240 144 clear;
#X msg 252 170 read \$1;
#X obj 292 100 openpanel;
#X obj 293 79 bng 15 250 50 0 empty empty empty 0 -6 0 8 -262144 -1
-1;
#X obj 293 46 inlet;
#X obj 157 166 bng 15 250 50 0 empty empty empty 0 -6 0 8 -262144 -1
-1;
#N canvas 0 22 518 368 countto4 0;
#X floatatom 250 207 5 0 0 0 - - -;
#X obj 248 178 int;
#X obj 320 177 + 1;
#X msg 120 108 0;
#X obj 209 132 bng 15 250 50 0 empty empty empty 0 -6 0 8 -262144 -1
-1;
#X obj 238 256 outlet;
#X obj 229 68 inlet;
#X obj 121 53 pipe 15;
#X text 224 51 recieve any input;
#X text 150 276 counts from 0 to (whatever sel has);
#X obj 118 79 sel 3;
#X connect 0 0 5 0;
#X connect 0 0 7 0;
#X connect 1 0 2 0;
#X connect 1 0 0 0;
#X connect 2 0 1 1;
#X connect 3 0 1 1;
#X connect 4 0 1 0;
#X connect 6 0 4 0;
#X connect 7 0 10 0;
#X connect 10 0 3 0;
#X restore 257 241 pd countto4;
#X obj 230 206 bng 15 250 50 0 empty empty empty 0 -6 0 8 -262144 -1
-1;
#X obj 206 280 pack;
#X obj 205 308 route 0 1 2 3;
#X obj 97 333 print;
#X connect 5 0 15 1;
#X connect 5 1 15 1;
#X connect 6 0 5 0;
#X connect 6 0 14 0;
#X connect 8 0 5 0;
#X connect 8 0 12 0;
#X connect 9 0 8 0;
#X connect 10 0 9 0;
#X connect 11 0 10 0;
#X connect 12 0 6 0;
#X connect 13 0 15 0;
#X connect 14 0 5 0;
#X connect 15 0 16 0;
#X connect 15 0 17 0;
#X connect 16 0 1 0;
#X connect 16 1 2 0;
#X connect 16 2 3 0;
#X connect 16 3 4 0;
#X restore 78 330 pd openall;
#X obj 450 128 r OpenWutev;
#X obj 316 488 print save data;
#X text 384 457 this jumble of code at least;
#X text 399 471 can save a MT file;
#N canvas 0 22 466 316 SavePreparer 0;
#X obj 180 86 savepanel;
#X obj 181 66 bng 8 250 50 0 empty empty empty 0 -6 0 8 -262144 -1
-1;
#X msg 234 128 add2 \$1;
#X msg 127 129 set write;
#X obj 145 256 outlet;
#X obj 226 191 bng 15 250 50 0 empty empty empty 17 7 0 10 -262144
-1 -1;
#X obj 181 18 inlet;
#X connect 0 0 2 0;
#X connect 1 0 0 0;
#X connect 1 0 3 0;
#X connect 2 0 4 0;
#X connect 2 0 5 0;
#X connect 3 0 4 0;
#X connect 5 0 4 0;
#X connect 6 0 1 0;
#X restore 340 317 pd SavePreparer;
#N canvas 0 22 345 260 ClearBanger 0;
#X msg 148 80 clear;
#X obj 90 57 loadbang;
#X obj 151 62 del 5;
#X msg 150 43 bang;
#X obj 118 18 inlet;
#X obj 135 147 outlet;
#X connect 0 0 5 0;
#X connect 1 0 0 0;
#X connect 2 0 0 0;
#X connect 3 0 2 0;
#X connect 4 0 3 0;
#X restore 379 406 pd ClearBanger;
#N canvas 0 22 425 462 PanSave 0;
#X msg 103 109;
#X msg 103 159;
#X msg 103 205;
#X msg 32 -7 set;
#X msg 101 46;
#X obj 31 -27 loadbang;
#N canvas 0 22 482 332 panset 0;
#X obj 141 57 r pansetFIRST;
#X obj 111 14 r SaveItAll;
#X msg 111 38 bang;
#X obj 111 78 float;
#X obj 107 201 outlet;
#X msg 228 105 add \$1;
#X msg 70 104 set add pansetFIRST;
#X connect 0 0 3 1;
#X connect 1 0 2 0;
#X connect 2 0 3 0;
#X connect 3 0 6 0;
#X connect 3 0 5 0;
#X connect 5 0 4 0;
#X connect 6 0 4 0;
#X restore 101 17 pd panset;
#N canvas 0 22 478 328 LFOPANFREQ 0;
#X obj 141 57 r LFOPanFreqFIRST;
#X obj 111 14 r SaveItAll;
#X msg 111 38 bang;
#X obj 111 78 float;
#X obj 107 201 outlet;
#X msg 228 105 add \$1;
#X msg 63 128 set add LFOPanFreqFIRST;
#X connect 0 0 3 1;
#X connect 1 0 2 0;
#X connect 2 0 3 0;
#X connect 3 0 6 0;
#X connect 3 0 5 0;
#X connect 5 0 4 0;
#X connect 6 0 4 0;
#X restore 103 76 pd LFOPANFREQ;
#N canvas 0 22 462 312 LFOPanRange 0;
#X obj 141 57 r LFOPanRangeFIRST;
#X obj 111 14 r SaveItAll;
#X msg 111 38 bang;
#X obj 111 78 float;
#X obj 107 201 outlet;
#X msg 258 105 add \$1;
#X msg 70 105 set add LFOPanRangeFIRST;
#X connect 0 0 3 1;
#X connect 1 0 2 0;
#X connect 2 0 3 0;
#X connect 3 0 6 0;
#X connect 3 0 5 0;
#X connect 5 0 4 0;
#X connect 6 0 4 0;
#X restore 103 134 pd LFOPanRange;
#N canvas 0 22 462 312 lfoIOpan 0;
#X obj 141 57 r FIRSTPanLFOIO;
#X obj 111 14 r SaveItAll;
#X msg 111 38 bang;
#X obj 111 78 float;
#X obj 107 201 outlet;
#X msg 228 105 add \$1;
#X msg 70 105 set add FIRSTPanLFOIO;
#X connect 0 0 3 1;
#X connect 1 0 2 0;
#X connect 2 0 3 0;
#X connect 3 0 5 0;
#X connect 3 0 6 0;
#X connect 5 0 4 0;
#X connect 6 0 4 0;
#X restore 103 180 pd lfoIOpan;
#X obj 46 246 outlet;
#X obj 224 -11 inlet;
#X text 149 265 this works great \, now I have;
#X text 132 284 to expand this out;
#X connect 0 0 10 0;
#X connect 1 0 10 0;
#X connect 2 0 10 0;
#X connect 3 0 4 0;
#X connect 3 0 0 0;
#X connect 3 0 1 0;
#X connect 3 0 2 0;
#X connect 4 0 10 0;
#X connect 5 0 3 0;
#X connect 6 0 4 0;
#X connect 7 0 0 0;
#X connect 8 0 1 0;
#X connect 9 0 2 0;
#X connect 11 0 4 0;
#X connect 11 0 0 0;
#X connect 11 0 1 0;
#X connect 11 0 2 0;
#X restore 181 137 pd PanSave;
#X obj 328 444 qlist;
#N canvas 0 22 531 417 openone 0;
#X obj 267 26 inlet;
#X obj 264 78 openpanel;
#X msg 264 51 bang;
#X msg 229 116 read \$1;
#X obj 219 159 textfile;
#X msg 87 127 bang;
#X msg 94 83 rewind;
#X obj 225 343 send;
#X obj 219 222 unpack s f;
#X obj 274 308 pipe 5;
#X text 55 61 bang these to recall;
#X text 110 310 still bugs here;
#N canvas 0 22 454 304 callperl 0;
#X restore 231 281 pd callperl;
#X connect 0 0 2 0;
#X connect 1 0 3 0;
#X connect 2 0 1 0;
#X connect 3 0 4 0;
#X connect 4 0 8 0;
#X connect 5 0 4 0;
#X connect 6 0 4 0;
#X connect 8 1 9 0;
#X connect 9 0 7 0;
#X restore 454 182 pd openone;
#X connect 0 0 10 0;
#X connect 0 0 12 0;
#X connect 1 0 0 0;
#X connect 2 0 13 0;
#X connect 3 0 13 0;
#X connect 4 0 11 0;
#X connect 4 0 13 0;
#X connect 6 0 14 0;
#X connect 10 0 4 0;
#X connect 11 0 13 0;
#X connect 12 0 13 0;
#X connect 13 0 7 0;
#X restore 804 108 pd SaveAll;
#X obj 764 84 bng 40 250 50 0 SaveItAll empty Save_All 0 -6 0 12 -262144
-1 -1;
#X obj 851 83 bng 25 250 50 0 OpenWutev empty Open 0 -6 0 12 -262144
-1 -1;
#X obj 134 575 bng 40 250 50 0 SaveItFIRST empty Save 0 -6 0 12 -262144
-1 -1;
#X obj 221 574 bng 25 250 50 0 OpenFIRST empty Open 0 -6 0 12 -262144
-1 -1;
#N canvas 263 22 721 675 Saveit! 0;
#X msg 351 337 write /Users/frankhomsher/Desktop/CrazyMchn./CM Saves/because
;
#N canvas 771 36 472 512 openall 0;
#X obj 246 453 outlet;
#X obj 206 352 s MasterSaveOne;
#X obj 236 376 s MasterSaveTwo;
#X obj 266 400 s MasterSaveThree;
#X obj 296 422 s MasterSaveFour;
#X obj 148 234 textfile;
#X msg 230 119 rewind;
#X msg 240 144 clear;
#X msg 252 170 read \$1;
#X obj 292 100 openpanel;
#X obj 293 79 bng 15 250 50 0 empty empty empty 0 -6 0 8 -262144 -1
-1;
#X obj 293 46 inlet;
#X obj 157 166 bng 15 250 50 0 empty empty empty 0 -6 0 8 -262144 -1
-1;
#N canvas 0 22 518 368 countto4 0;
#X floatatom 250 207 5 0 0 0 - - -;
#X obj 248 178 int;
#X obj 320 177 + 1;
#X msg 120 108 0;
#X obj 209 132 bng 15 250 50 0 empty empty empty 0 -6 0 8 -262144 -1
-1;
#X obj 238 256 outlet;
#X obj 229 68 inlet;
#X obj 121 53 pipe 15;
#X text 224 51 recieve any input;
#X text 150 276 counts from 0 to (whatever sel has);
#X obj 118 79 sel 3;
#X connect 0 0 5 0;
#X connect 0 0 7 0;
#X connect 1 0 2 0;
#X connect 1 0 0 0;
#X connect 2 0 1 1;
#X connect 3 0 1 1;
#X connect 4 0 1 0;
#X connect 6 0 4 0;
#X connect 7 0 10 0;
#X connect 10 0 3 0;
#X restore 257 241 pd countto4;
#X obj 230 206 bng 15 250 50 0 empty empty empty 0 -6 0 8 -262144 -1
-1;
#X obj 206 280 pack;
#X obj 205 308 route 0 1 2 3;
#X obj 97 333 print;
#X connect 5 0 15 1;
#X connect 5 1 15 1;
#X connect 6 0 5 0;
#X connect 6 0 14 0;
#X connect 8 0 5 0;
#X connect 8 0 12 0;
#X connect 9 0 8 0;
#X connect 10 0 9 0;
#X connect 11 0 10 0;
#X connect 12 0 6 0;
#X connect 13 0 15 0;
#X connect 14 0 5 0;
#X connect 15 0 16 0;
#X connect 15 0 17 0;
#X connect 16 0 1 0;
#X connect 16 1 2 0;
#X connect 16 2 3 0;
#X connect 16 3 4 0;
#X restore 11 432 pd openall;
#X obj 316 488 print save data;
#N canvas 0 22 466 316 SavePreparer 0;
#X obj 180 86 savepanel;
#X obj 181 66 bng 8 250 50 0 empty empty empty 0 -6 0 8 -262144 -1
-1;
#X msg 234 128 add2 \$1;
#X msg 127 129 set write;
#X obj 145 256 outlet;
#X obj 226 191 bng 15 250 50 0 empty empty empty 17 7 0 10 -262144
-1 -1;
#X obj 181 18 inlet;
#X connect 0 0 2 0;
#X connect 1 0 0 0;
#X connect 1 0 3 0;
#X connect 2 0 4 0;
#X connect 2 0 5 0;
#X connect 3 0 4 0;
#X connect 5 0 4 0;
#X connect 6 0 1 0;
#X restore 351 317 pd SavePreparer;
#N canvas 0 22 349 264 ClearBanger 0;
#X msg 148 80 clear;
#X obj 90 57 loadbang;
#X obj 151 62 del 5;
#X msg 150 43 bang;
#X obj 118 18 inlet;
#X obj 135 147 outlet;
#X connect 0 0 5 0;
#X connect 1 0 0 0;
#X connect 2 0 0 0;
#X connect 3 0 2 0;
#X connect 4 0 3 0;
#X restore 359 357 pd ClearBanger;
#N canvas 0 22 461 498 PanSave 0;
#X msg 103 109;
#X msg 103 159;
#X msg 103 205;
#X msg 32 -7 set;
#X msg 101 46;
#X obj 31 -27 loadbang;
#N canvas 0 22 506 356 panset 0;
#X obj 141 57 r pansetFIRST;
#X msg 111 38 bang;
#X obj 111 78 float;
#X obj 107 201 outlet;
#X msg 228 105 add \$1;
#X obj 111 15 r SaveItFIRST;
#X msg 70 104 set add panset;
#X connect 0 0 2 1;
#X connect 1 0 2 0;
#X connect 2 0 6 0;
#X connect 2 0 4 0;
#X connect 4 0 3 0;
#X connect 5 0 1 0;
#X connect 6 0 3 0;
#X restore 101 17 pd panset;
#N canvas 0 22 494 344 LFOPANFREQ 0;
#X obj 141 57 r LFOPanFreqFIRST;
#X msg 111 38 bang;
#X obj 111 78 float;
#X obj 107 201 outlet;
#X msg 228 105 add \$1;
#X obj 111 14 r SaveItFIRST;
#X msg 63 128 set add LFOPanFreq;
#X connect 0 0 2 1;
#X connect 1 0 2 0;
#X connect 2 0 6 0;
#X connect 2 0 4 0;
#X connect 4 0 3 0;
#X connect 5 0 1 0;
#X connect 6 0 3 0;
#X restore 103 76 pd LFOPANFREQ;
#N canvas 0 22 478 328 LFOPanRange 0;
#X obj 141 57 r LFOPanRangeFIRST;
#X msg 111 38 bang;
#X obj 111 78 float;
#X obj 107 201 outlet;
#X msg 258 105 add \$1;
#X obj 111 14 r SaveItFIRST;
#X msg 70 105 set add LFOPanRange;
#X connect 0 0 2 1;
#X connect 1 0 2 0;
#X connect 2 0 6 0;
#X connect 2 0 4 0;
#X connect 4 0 3 0;
#X connect 5 0 1 0;
#X connect 6 0 3 0;
#X restore 103 134 pd LFOPanRange;
#N canvas 0 22 490 340 lfoIOpan 0;
#X msg 111 38 bang;
#X obj 111 78 float;
#X obj 107 201 outlet;
#X obj 111 14 r SaveItFIRST;
#X obj 141 57 r FIRSTPanLFOIO;
#X msg 226 125 add \$1;
#X floatatom 226 107 5 0 0 0 - - -;
#X msg 69 125 set add PanLFOIO;
#X connect 0 0 1 0;
#X connect 1 0 7 0;
#X connect 1 0 6 0;
#X connect 3 0 0 0;
#X connect 4 0 1 1;
#X connect 5 0 2 0;
#X connect 6 0 5 0;
#X connect 7 0 2 0;
#X restore 103 180 pd lfoIOpan;
#X obj 46 246 outlet;
#X obj 224 -11 inlet;
#X text 149 265 this works great \, now I have;
#X text 132 284 to expand this out;
#X connect 0 0 10 0;
#X connect 1 0 10 0;
#X connect 2 0 10 0;
#X connect 3 0 4 0;
#X connect 3 0 0 0;
#X connect 3 0 1 0;
#X connect 3 0 2 0;
#X connect 4 0 10 0;
#X connect 5 0 3 0;
#X connect 6 0 4 0;
#X connect 7 0 0 0;
#X connect 8 0 1 0;
#X connect 9 0 2 0;
#X connect 11 0 4 0;
#X connect 11 0 0 0;
#X connect 11 0 1 0;
#X connect 11 0 2 0;
#X restore 11 77 pd PanSave;
#X obj 328 444 qlist;
#N canvas 198 167 591 477 openone 0;
#X obj 138 233 textfile;
#X msg 220 118 rewind;
#X msg 230 143 clear;
#X msg 242 169 read \$1;
#X obj 282 99 openpanel;
#X obj 283 45 inlet;
#X obj 132 51 r OpenFIRST;
#N canvas 597 105 507 342 PanOpen 0;
#X obj 36 -1 inlet;
#X obj 348 199 outlet;
#X obj 118 104 s 2LFOPanFreqFIRST;
#X obj 179 126 s 2LFOPanRangeFIRST;
#X obj 207 150 s 2FIRSTPanLFOIO;
#X obj 36 73 s 2pansetFIRST;
#X obj 37 36 route panset LFOPanFreq LFOPanRange PanLFOIO;
#X connect 0 0 6 0;
#X connect 6 0 5 0;
#X connect 6 1 2 0;
#X connect 6 2 3 0;
#X connect 6 3 4 0;
#X connect 6 4 1 0;
#X restore 103 267 pd PanOpen;
#N canvas 611 154 546 496 WaveOpen 0;
#X obj 224 -11 inlet;
#X obj 157 43 route wavpreset Volume FreqLFOIO whitenoise;
#X obj 323 268 outlet;
#X obj 196 75 s 2wavpresetFIRST;
#X obj 283 95 s 2VolumeFIRST;
#X obj 345 126 s 2FIRSTFreqLFOIO;
#X obj 383 154 s 2whitenoiseFIRST;
#X connect 0 0 1 0;
#X connect 1 0 3 0;
#X connect 1 1 4 0;
#X connect 1 2 5 0;
#X connect 1 3 6 0;
#X connect 1 4 2 0;
#X restore 103 291 pd WaveOpen;
#N canvas 616 135 469 506 PITCHOpen 0;
#X obj 46 246 outlet;
#X obj 49 -15 inlet;
#X text 149 265 this works great \, now I have;
#X text 132 284 to expand this out;
#X obj 53 12 route FreqLFOPitch RangeLFOPitch LFOPitchFB FreqOsc;
#X obj 54 60 s 2FIRSTFreqLFOPitch;
#X obj 143 90 s 2FIRSTRangeLFOPitch;
#X obj 217 134 s 2FIRSTLFOPitchFB;
#X obj 292 156 s 2FreqOscFIRST;
#X connect 1 0 4 0;
#X connect 4 0 5 0;
#X connect 4 1 6 0;
#X connect 4 2 7 0;
#X connect 4 3 8 0;
#X connect 4 4 0 0;
#X restore 103 316 pd PITCHOpen;
#N canvas 446 116 465 502 TEMPOOpen 0;
#X obj 379 255 outlet;
#X obj 7 -26 inlet;
#X obj 7 -1 route TempoOsc TempoLFOIO LFOTempoRange LFOTempoFreq TempoFB
;
#X obj 6 30 s 2TempoOscFIRST;
#X obj 90 50 s 2FIRSTTempoLFOIO;
#X obj 173 70 s 2LFOTempoRangeFIRST;
#X obj 257 91 s 2LFOTempoFreqFIRST;
#X obj 340 111 s 2FIRSTTEmpoFB;
#X connect 1 0 2 0;
#X connect 2 0 3 0;
#X connect 2 1 4 0;
#X connect 2 2 5 0;
#X connect 2 3 6 0;
#X connect 2 4 7 0;
#X connect 2 5 0 0;
#X restore 104 340 pd TEMPOOpen;
#N canvas 0 22 454 304 counttildone 0;
#X obj 125 37 inlet;
#X obj 285 37 inlet;
#X obj 155 142 metro 50;
#X msg 220 101 0;
#X msg 141 96 1;
#X obj 154 215 outlet;
#X connect 0 0 4 0;
#X connect 1 0 3 0;
#X connect 2 0 5 0;
#X connect 3 0 2 0;
#X connect 4 0 2 0;
#X restore 207 263 pd counttildone;
#N canvas 0 22 860 563 OVertoneOPEN 0;
#X obj 61 11 inlet;
#X obj 772 345 outlet;
#X obj 109 427 s 2OverToneFIRST0;
#X obj 119 447 s 2OverToneFIRST1;
#X obj 129 467 s 2OverToneFIRST2;
#X obj 139 487 s 2OverToneFIRST3;
#X obj 149 507 s 2OverToneFIRST4;
#X obj 159 527 s 2OverToneFIRST5;
#X obj 239 426 s 2OverToneFIRST6;
#X obj 249 447 s 2OverToneFIRST7;
#X obj 259 467 s 2OverToneFIRST8;
#X obj 269 487 s 2OverToneFIRST9;
#X obj 279 507 s 2OverToneFIRST10;
#X obj 289 527 s 2OverToneFIRST11;
#X obj 381 424 s 2Harmonic0FIRST;
#X obj 390 444 s 2Harmonic1FIRST;
#X obj 401 464 s 2Harmonic2FIRST;
#X obj 411 484 s 2Harmonic3FIRST;
#X obj 421 504 s 2Harmonic4FIRST;
#X obj 431 524 s 2Harmonic5FIRST;
#X obj 520 424 s 2Harmonic6FIRST;
#X obj 531 444 s 2Harmonic7FIRST;
#X obj 541 464 s 2Harmonic8FIRST;
#X obj 551 484 s 2Harmonic9FIRST;
#X obj 562 504 s 2Harmonic10FIRST;
#X obj 571 524 s 2Harmonic11FIRST;
#X obj 414 217 route Harmonic9 Harmonic10 Harmonic11;
#X obj 69 196 route Harmonic6 Harmonic7 Harmonic8;
#X obj 414 167 route Harmonic3 Harmonic4 Harmonic5;
#X obj 70 148 route Harmonic0 Harmonic1 Harmonic2;
#X obj 414 112 route OverTone9 OverTone10 OverTone11;
#X obj 70 89 route OverTone6 OverTone7 OverTone8;
#X obj 415 61 route OverTone3 OverTone4 OverTone5;
#X obj 71 38 route OverTone0 OverTone1 OverTone2;
#X connect 0 0 33 0;
#X connect 26 0 23 0;
#X connect 26 1 24 0;
#X connect 26 2 25 0;
#X connect 26 3 1 0;
#X connect 27 0 20 0;
#X connect 27 1 21 0;
#X connect 27 2 22 0;
#X connect 27 3 26 0;
#X connect 28 0 17 0;
#X connect 28 1 18 0;
#X connect 28 2 19 0;
#X connect 28 3 27 0;
#X connect 29 0 14 0;
#X connect 29 1 15 0;
#X connect 29 2 16 0;
#X connect 29 3 28 0;
#X connect 30 0 11 0;
#X connect 30 1 12 0;
#X connect 30 2 13 0;
#X connect 30 3 29 0;
#X connect 31 0 8 0;
#X connect 31 1 9 0;
#X connect 31 2 10 0;
#X connect 31 3 30 0;
#X connect 32 0 5 0;
#X connect 32 1 6 0;
#X connect 32 2 7 0;
#X connect 32 3 31 0;
#X connect 33 0 2 0;
#X connect 33 1 3 0;
#X connect 33 2 4 0;
#X connect 33 3 32 0;
#X restore 105 363 pd OVertoneOPEN;
#N canvas 0 22 573 515 OTSwitchOPEN 0;
#X obj 101 345 s 2FIRSTotONE;
#X obj 111 365 s 2FIRSTotTWO;
#X obj 121 385 s 2FIRSTotTHREE;
#X obj 131 405 s 2FIRSTotFOUR;
#X obj 141 425 s 2FIRSTotFIVE;
#X obj 151 445 s 2FIRSTotSIX;
#X obj 221 345 s 2FIRSTotSEVEN;
#X obj 231 365 s 2FIRSTotEIGHT;
#X obj 241 385 s 2FIRSTotNINE;
#X obj 251 405 s 2FIRSTotTEN;
#X obj 261 425 s 2FIRSTotELEVEN;
#X obj 272 445 s 2FIRSTotTWELVE;
#X obj 52 45 inlet;
#X obj 419 286 outlet;
#X obj 143 194 route otTEN otELEVEN otTWELVE;
#X obj 117 166 route otSEVEN otEIGHT otNINE;
#X obj 107 136 route otFOUR otFIVE otSIX;
#X obj 97 106 route otONE otTWO otTHREE;
#X floatatom 77 295 5 0 0 0 - - -;
#X connect 12 0 17 0;
#X connect 14 0 9 0;
#X connect 14 1 10 0;
#X connect 14 2 11 0;
#X connect 14 3 13 0;
#X connect 15 0 6 0;
#X connect 15 1 7 0;
#X connect 15 2 8 0;
#X connect 15 3 14 0;
#X connect 16 0 3 0;
#X connect 16 1 4 0;
#X connect 16 2 5 0;
#X connect 16 3 15 0;
#X connect 17 0 0 0;
#X connect 17 1 1 0;
#X connect 17 2 2 0;
#X connect 17 3 16 0;
#X connect 18 0 0 0;
#X restore 104 387 pd OTSwitchOPEN;
#X obj 107 168 bang;
#X obj 282 73 bang;
#X obj 103 409 print couldn't_find;
#X connect 0 0 7 0;
#X connect 0 1 11 1;
#X connect 1 0 0 0;
#X connect 1 0 11 0;
#X connect 3 0 0 0;
#X connect 3 0 14 0;
#X connect 4 0 3 0;
#X connect 5 0 15 0;
#X connect 7 0 8 0;
#X connect 8 0 9 0;
#X connect 9 0 10 0;
#X connect 10 0 12 0;
#X connect 11 0 0 0;
#X connect 12 0 13 0;
#X connect 13 0 16 0;
#X connect 14 0 1 0;
#X connect 15 0 4 0;
#X restore 451 182 pd openone;
#X obj 403 -31 r SaveItFIRST;
#N canvas 611 154 453 490 WaveSave 0;
#X msg 103 109;
#X msg 103 159;
#X msg 103 210;
#X msg 32 -7 set;
#X msg 101 46;
#X obj 31 -27 loadbang;
#X obj 46 246 outlet;
#X obj 224 -11 inlet;
#X text 149 265 this works great \, now I have;
#X text 132 284 to expand this out;
#N canvas 0 22 502 352 wavpresetFIRST 0;
#X msg 111 38 bang;
#X obj 111 78 float;
#X obj 107 201 outlet;
#X msg 248 105 add \$1;
#X obj 141 57 r wavpresetFIRST;
#X obj 111 14 r SaveItFIRST;
#X msg 70 104 set add wavpreset;
#X connect 0 0 1 0;
#X connect 1 0 6 0;
#X connect 1 0 3 0;
#X connect 3 0 2 0;
#X connect 4 0 1 1;
#X connect 5 0 0 0;
#X connect 6 0 2 0;
#X restore 101 17 pd wavpresetFIRST;
#N canvas 0 22 506 356 VolumeFIRST 0;
#X msg 111 38 bang;
#X obj 111 78 float;
#X obj 107 201 outlet;
#X msg 228 105 add \$1;
#X obj 111 14 r SaveItFIRST;
#X obj 141 57 r VolumeFIRST;
#X msg 63 128 set add Volume;
#X connect 0 0 1 0;
#X connect 1 0 6 0;
#X connect 1 0 3 0;
#X connect 3 0 2 0;
#X connect 4 0 0 0;
#X connect 5 0 1 1;
#X connect 6 0 2 0;
#X restore 104 76 pd VolumeFIRST;
#N canvas 0 22 482 332 FIRSTFeqLFOIO 0;
#X msg 111 38 bang;
#X obj 111 78 float;
#X obj 107 201 outlet;
#X msg 258 105 add \$1;
#X obj 141 57 r FIRSTFreqLFOIO;
#X obj 111 14 r SaveItFIRST;
#X msg 70 106 set add FreqLFOIO;
#X connect 0 0 1 0;
#X connect 1 0 6 0;
#X connect 1 0 3 0;
#X connect 3 0 2 0;
#X connect 4 0 1 1;
#X connect 5 0 0 0;
#X connect 6 0 2 0;
#X restore 103 134 pd FIRSTFeqLFOIO;
#N canvas 0 22 486 336 whitenoiseFIRST 0;
#X msg 111 38 bang;
#X obj 111 78 float;
#X obj 107 201 outlet;
#X msg 255 132 add \$1;
#X obj 141 57 r whitenoiseFIRST;
#X obj 111 14 r SaveItFIRST;
#X msg 62 124 set add whitenoise;
#X connect 0 0 1 0;
#X connect 1 0 6 0;
#X connect 1 0 3 0;
#X connect 3 0 2 0;
#X connect 4 0 1 1;
#X connect 5 0 0 0;
#X connect 6 0 2 0;
#X restore 103 185 pd whitenoiseFIRST;
#X connect 0 0 6 0;
#X connect 1 0 6 0;
#X connect 2 0 6 0;
#X connect 3 0 4 0;
#X connect 3 0 0 0;
#X connect 3 0 1 0;
#X connect 3 0 2 0;
#X connect 4 0 6 0;
#X connect 5 0 3 0;
#X connect 7 0 4 0;
#X connect 7 0 0 0;
#X connect 7 0 1 0;
#X connect 7 0 2 0;
#X connect 10 0 4 0;
#X connect 11 0 0 0;
#X connect 12 0 1 0;
#X connect 13 0 2 0;
#X restore 70 105 pd WaveSave;
#N canvas 616 135 465 502 PITCHSave 0;
#X msg 103 109;
#X msg 103 159;
#X msg 103 210;
#X msg 32 -7 set;
#X msg 101 46;
#X obj 31 -27 loadbang;
#X obj 46 246 outlet;
#X obj -15 18 inlet;
#X text 149 265 this works great \, now I have;
#X text 132 284 to expand this out;
#N canvas 0 22 498 348 FreqOscFIRST 0;
#X msg 111 38 bang;
#X obj 111 78 float;
#X obj 107 201 outlet;
#X msg 255 132 add \$1;
#X obj 111 14 r SaveItFIRST;
#X obj 141 57 r FreqOscFIRST;
#X msg 62 124 set add FreqOsc;
#X connect 0 0 1 0;
#X connect 1 0 6 0;
#X connect 1 0 3 0;
#X connect 3 0 2 0;
#X connect 4 0 0 0;
#X connect 5 0 1 1;
#X connect 6 0 2 0;
#X restore 103 185 pd FreqOscFIRST;
#N canvas 0 22 510 360 FIRSTRangeLFOPitch 0;
#X msg 111 38 bang;
#X obj 111 78 float;
#X obj 107 201 outlet;
#X msg 228 105 add \$1;
#X obj 111 14 r SaveItFIRST;
#X obj 141 56 r FIRSTRangeLFOPitch;
#X msg 63 128 set add RangeLFOPitch;
#X connect 0 0 1 0;
#X connect 1 0 6 0;
#X connect 1 0 3 0;
#X connect 3 0 2 0;
#X connect 4 0 0 0;
#X connect 5 0 1 1;
#X connect 6 0 2 0;
#X restore 103 76 pd FIRSTRangeLFOPitch;
#N canvas 0 22 498 348 FIRSTLFOPitchFB 0;
#X msg 111 38 bang;
#X obj 111 78 float;
#X obj 107 201 outlet;
#X msg 258 105 add \$1;
#X obj 111 14 r SaveItFIRST;
#X obj 141 57 r FIRSTLFOPitchFB;
#X msg 70 105 set add LFOPitchFB;
#X connect 0 0 1 0;
#X connect 1 0 6 0;
#X connect 1 0 3 0;
#X connect 3 0 2 0;
#X connect 4 0 0 0;
#X connect 5 0 1 1;
#X connect 6 0 2 0;
#X restore 103 134 pd FIRSTLFOPitchFB;
#N canvas 656 351 534 384 FIRSTFreqLFOPitch 0;
#X msg 111 38 bang;
#X obj 111 78 float;
#X obj 107 201 outlet;
#X msg 248 105 add \$1;
#X obj 111 14 r SaveItFIRST;
#X obj 140 57 r FIRSTFreqLFOPitch;
#X msg 31 131 set add FreqLFOPitch;
#X connect 0 0 1 0;
#X connect 1 0 6 0;
#X connect 1 0 3 0;
#X connect 3 0 2 0;
#X connect 4 0 0 0;
#X connect 5 0 1 1;
#X connect 6 0 2 0;
#X restore 102 17 pd FIRSTFreqLFOPitch;
#X connect 0 0 6 0;
#X connect 1 0 6 0;
#X connect 2 0 6 0;
#X connect 3 0 4 0;
#X connect 3 0 0 0;
#X connect 3 0 1 0;
#X connect 3 0 2 0;
#X connect 4 0 6 0;
#X connect 5 0 3 0;
#X connect 7 0 4 0;
#X connect 7 0 0 0;
#X connect 7 0 1 0;
#X connect 7 0 2 0;
#X connect 10 0 2 0;
#X connect 11 0 0 0;
#X connect 12 0 1 0;
#X connect 13 0 4 0;
#X restore 135 133 pd PITCHSave;
#N canvas 446 116 473 510 TEMPOSave 0;
#X msg 103 109;
#X msg 103 209;
#X msg 103 260;
#X msg 32 -7 set;
#X msg 101 46;
#X obj 31 -27 loadbang;
#X obj 46 296 outlet;
#X obj -15 18 inlet;
#X text 149 315 this works great \, now I have;
#X text 132 334 to expand this out;
#N canvas 656 351 566 416 TempoOscFIRST 0;
#X msg 111 38 bang;
#X obj 111 78 float;
#X obj 107 201 outlet;
#X msg 248 105 add \$1;
#X obj 111 14 r SaveItFIRST;
#X obj 140 57 r TempoOscFIRST;
#X msg 31 129 set add TempoOsc;
#X connect 0 0 1 0;
#X connect 1 0 6 0;
#X connect 1 0 3 0;
#X connect 3 0 2 0;
#X connect 4 0 0 0;
#X connect 5 0 1 1;
#X connect 6 0 2 0;
#X restore 102 17 pd TempoOscFIRST;
#N canvas 0 22 522 372 FIRSTTempoLFOIO 0;
#X msg 111 38 bang;
#X obj 111 78 float;
#X obj 107 201 outlet;
#X msg 228 105 add \$1;
#X obj 111 14 r SaveItFIRST;
#X obj 141 56 r FIRSTTempoLFOIO;
#X msg 63 128 set add TempoLFOIO;
#X connect 0 0 1 0;
#X connect 1 0 6 0;
#X connect 1 0 3 0;
#X connect 3 0 2 0;
#X connect 4 0 0 0;
#X connect 5 0 1 1;
#X connect 6 0 2 0;
#X restore 103 76 pd FIRSTTempoLFOIO;
#N canvas 0 22 506 356 LFOTempoFreqFIRST 0;
#X msg 111 38 bang;
#X obj 111 78 float;
#X obj 107 201 outlet;
#X msg 258 105 add \$1;
#X obj 111 14 r SaveItFIRST;
#X obj 141 57 r LFOTempoFreqFIRST;
#X msg 70 105 set add LFOTempoFreq;
#X connect 0 0 1 0;
#X connect 1 0 6 0;
#X connect 1 0 3 0;
#X connect 3 0 2 0;
#X connect 4 0 0 0;
#X connect 5 0 1 1;
#X connect 6 0 2 0;
#X restore 103 184 pd LFOTempoFreqFIRST;
#N canvas 0 22 506 356 FIRSTTEmpoFB 0;
#X msg 111 38 bang;
#X obj 111 78 float;
#X obj 107 201 outlet;
#X msg 255 132 add \$1;
#X obj 111 14 r SaveItFIRST;
#X obj 140 57 r FIRSTTempoFB;
#X msg 62 123 set add TempoFB;
#X connect 0 0 1 0;
#X connect 1 0 6 0;
#X connect 1 0 3 0;
#X connect 3 0 2 0;
#X connect 4 0 0 0;
#X connect 5 0 1 1;
#X connect 6 0 2 0;
#X restore 103 235 pd FIRSTTEmpoFB;
#X msg 143 159;
#N canvas 0 22 522 372 LFOTempoRangeFIRST 0;
#X msg 111 38 bang;
#X obj 111 78 float;
#X obj 107 201 outlet;
#X msg 228 105 add \$1;
#X obj 111 14 r SaveItFIRST;
#X obj 141 56 r LFOTempoRangeFIRST;
#X msg 60 128 set add LFOTempoRange;
#X connect 0 0 1 0;
#X connect 1 0 6 0;
#X connect 1 0 3 0;
#X connect 3 0 2 0;
#X connect 4 0 0 0;
#X connect 5 0 1 1;
#X connect 6 0 2 0;
#X restore 143 125 pd LFOTempoRangeFIRST;
#X connect 0 0 6 0;
#X connect 1 0 6 0;
#X connect 2 0 6 0;
#X connect 3 0 4 0;
#X connect 3 0 0 0;
#X connect 3 0 1 0;
#X connect 3 0 2 0;
#X connect 3 0 14 0;
#X connect 4 0 6 0;
#X connect 5 0 3 0;
#X connect 7 0 4 0;
#X connect 7 0 0 0;
#X connect 7 0 1 0;
#X connect 7 0 2 0;
#X connect 7 0 14 0;
#X connect 10 0 4 0;
#X connect 11 0 0 0;
#X connect 12 0 1 0;
#X connect 13 0 2 0;
#X connect 14 0 6 0;
#X connect 15 0 14 0;
#X restore 185 163 pd TEMPOSave;
#X obj 86 394 print datasaved;
#X obj 450 128 r OpenFIRST;
#N canvas 68 22 989 606 overtoneSAVE 0;
#N canvas 0 22 470 320 overtonesave 0;
#X obj 72 45 r OverToneFIRST0;
#X msg 43 23 bang;
#X obj 43 147 float;
#X obj 99 278 outlet;
#X msg 124 179 add \$1;
#X obj 43 -1 r SaveItFIRST;
#X msg 23 208 set add OverTone0;
#X connect 0 0 2 1;
#X connect 1 0 2 0;
#X connect 2 0 6 0;
#X connect 2 0 4 0;
#X connect 4 0 3 0;
#X connect 5 0 1 0;
#X connect 6 0 3 0;
#X restore 104 33 pd overtonesave;
#N canvas 0 22 466 316 overtonesave 0;
#X msg 43 23 bang;
#X obj 43 147 float;
#X obj 99 278 outlet;
#X msg 124 179 add \$1;
#X obj 43 -1 r SaveItFIRST;
#X obj 72 45 r OverToneFIRST1;
#X msg 23 208 set add OverTone1;
#X connect 0 0 1 0;
#X connect 1 0 6 0;
#X connect 1 0 3 0;
#X connect 3 0 2 0;
#X connect 4 0 0 0;
#X connect 5 0 1 1;
#X connect 6 0 2 0;
#X restore 113 51 pd overtonesave;
#N canvas 0 22 466 316 overtonesave 0;
#X msg 43 23 bang;
#X obj 43 147 float;
#X obj 99 278 outlet;
#X msg 124 179 add \$1;
#X obj 43 -1 r SaveItFIRST;
#X obj 72 45 r OverToneFIRST2;
#X msg 23 208 set add OverTone2;
#X connect 0 0 1 0;
#X connect 1 0 6 0;
#X connect 1 0 3 0;
#X connect 3 0 2 0;
#X connect 4 0 0 0;
#X connect 5 0 1 1;
#X connect 6 0 2 0;
#X restore 123 71 pd overtonesave;
#N canvas 0 22 470 320 overtonesave 0;
#X msg 43 23 bang;
#X obj 43 147 float;
#X obj 99 278 outlet;
#X msg 124 179 add \$1;
#X obj 43 -1 r SaveItFIRST;
#X obj 72 45 r OverToneFIRST3;
#X msg 23 208 set add OverTone3;
#X connect 0 0 1 0;
#X connect 1 0 6 0;
#X connect 1 0 3 0;
#X connect 3 0 2 0;
#X connect 4 0 0 0;
#X connect 5 0 1 1;
#X connect 6 0 2 0;
#X restore 133 91 pd overtonesave;
#N canvas 0 22 486 336 overtonesave 0;
#X msg 43 23 bang;
#X obj 43 147 float;
#X obj 99 278 outlet;
#X msg 124 179 add \$1;
#X obj 43 -1 r SaveItFIRST;
#X obj 72 45 r OverToneFIRST4;
#X msg 23 208 set add OverTone4;
#X connect 0 0 1 0;
#X connect 1 0 6 0;
#X connect 1 0 3 0;
#X connect 3 0 2 0;
#X connect 4 0 0 0;
#X connect 5 0 1 1;
#X connect 6 0 2 0;
#X restore 143 111 pd overtonesave;
#N canvas 0 22 470 320 overtonesave 0;
#X msg 43 23 bang;
#X obj 43 147 float;
#X obj 99 278 outlet;
#X msg 124 179 add \$1;
#X obj 43 -1 r SaveItFIRST;
#X obj 72 45 r OverToneFIRST5;
#X msg 22 208 set add OverTone5;
#X connect 0 0 1 0;
#X connect 1 0 6 0;
#X connect 1 0 3 0;
#X connect 3 0 2 0;
#X connect 4 0 0 0;
#X connect 5 0 1 1;
#X connect 6 0 2 0;
#X restore 153 131 pd overtonesave;
#N canvas 0 22 470 320 overtonesave 0;
#X msg 43 23 bang;
#X obj 43 147 float;
#X obj 99 278 outlet;
#X msg 124 179 add \$1;
#X obj 43 -1 r SaveItFIRST;
#X obj 72 45 r OverToneFIRST6;
#X msg 23 208 set add OverTone6;
#X connect 0 0 1 0;
#X connect 1 0 6 0;
#X connect 1 0 3 0;
#X connect 3 0 2 0;
#X connect 4 0 0 0;
#X connect 5 0 1 1;
#X connect 6 0 2 0;
#X restore 163 151 pd overtonesave;
#N canvas 0 22 470 320 overtonesave 0;
#X msg 43 23 bang;
#X obj 43 147 float;
#X obj 99 278 outlet;
#X msg 124 179 add \$1;
#X obj 43 -1 r SaveItFIRST;
#X obj 72 45 r OverToneFIRST7;
#X msg 23 208 set add OverTone7;
#X connect 0 0 1 0;
#X connect 1 0 6 0;
#X connect 1 0 3 0;
#X connect 3 0 2 0;
#X connect 4 0 0 0;
#X connect 5 0 1 1;
#X connect 6 0 2 0;
#X restore 173 171 pd overtonesave;
#N canvas 0 22 466 316 overtonesave 0;
#X msg 43 23 bang;
#X obj 43 147 float;
#X obj 99 278 outlet;
#X msg 124 179 add \$1;
#X obj 43 -1 r SaveItFIRST;
#X obj 72 45 r OverToneFIRST8;
#X msg 23 208 set add OverTone8;
#X connect 0 0 1 0;
#X connect 1 0 6 0;
#X connect 1 0 3 0;
#X connect 3 0 2 0;
#X connect 4 0 0 0;
#X connect 5 0 1 1;
#X connect 6 0 2 0;
#X restore 183 191 pd overtonesave;
#N canvas 0 22 470 320 overtonesave 0;
#X msg 43 23 bang;
#X obj 43 147 float;
#X obj 99 278 outlet;
#X msg 124 179 add \$1;
#X obj 43 -1 r SaveItFIRST;
#X obj 72 45 r OverToneFIRST9;
#X msg 23 208 set add OverTone9;
#X connect 0 0 1 0;
#X connect 1 0 6 0;
#X connect 1 0 3 0;
#X connect 3 0 2 0;
#X connect 4 0 0 0;
#X connect 5 0 1 1;
#X connect 6 0 2 0;
#X restore 193 211 pd overtonesave;
#N canvas 0 22 466 316 overtonesave 0;
#X msg 43 23 bang;
#X obj 43 147 float;
#X obj 99 278 outlet;
#X msg 124 179 add \$1;
#X obj 43 -1 r SaveItFIRST;
#X obj 73 45 r OverToneFIRST10;
#X msg 23 208 set add OverTone10;
#X connect 0 0 1 0;
#X connect 1 0 6 0;
#X connect 1 0 3 0;
#X connect 3 0 2 0;
#X connect 4 0 0 0;
#X connect 5 0 1 1;
#X connect 6 0 2 0;
#X restore 203 231 pd overtonesave;
#N canvas 0 22 466 316 overtonesave 0;
#X msg 43 23 bang;
#X obj 43 147 float;
#X obj 99 278 outlet;
#X msg 124 179 add \$1;
#X obj 43 -1 r SaveItFIRST;
#X obj 72 45 r OverToneFIRST11;
#X msg 23 208 set add OverTone11;
#X connect 0 0 1 0;
#X connect 1 0 6 0;
#X connect 1 0 3 0;
#X connect 3 0 2 0;
#X connect 4 0 0 0;
#X connect 5 0 1 1;
#X connect 6 0 2 0;
#X restore 213 251 pd overtonesave;
#X msg 103 271 add OverTone0 10.2362 \;;
#X msg 112 292 add OverTone1 33.3071 \;;
#X msg 122 312 add OverTone2 45.3543 \;;
#X msg 132 332 add OverTone3 0 \;;
#X msg 142 352 add OverTone4 0 \;;
#X msg 152 372 add OverTone5 0 \;;
#X msg 162 392 add OverTone6 0 \;;
#X msg 172 412 add OverTone7 0 \;;
#X msg 182 432 add OverTone8 0 \;;
#X msg 192 452 add OverTone9 0 \;;
#X msg 202 472 add OverTone10 0 \;;
#X msg 212 492 add OverTone11 0 \;;
#X obj 136 534 outlet;
#N canvas 0 22 939 598 HarmonicSave 0;
#X obj 65 60 r Harmonic0FIRST;
#X msg 35 37 bang;
#X obj 35 161 float;
#X obj 91 292 outlet;
#X msg 116 193 add \$1;
#X obj 35 13 r SaveItFIRST;
#X msg 15 222 set add Harmonic0;
#X connect 0 0 2 1;
#X connect 1 0 2 0;
#X connect 2 0 6 0;
#X connect 2 0 4 0;
#X connect 4 0 3 0;
#X connect 5 0 1 0;
#X connect 6 0 3 0;
#X restore 442 18 pd HarmonicSave;
#X msg 443 257 add Harmonic0 4.44409 \;;
#N canvas 0 22 212 339 HarmonicSave 0;
#X msg 35 37 bang;
#X obj 35 161 float;
#X obj 91 292 outlet;
#X msg 116 193 add \$1;
#X obj 35 13 r SaveItFIRST;
#X obj 65 60 r Harmonic1FIRST;
#X msg 16 223 set add Harmonic1;
#X connect 0 0 1 0;
#X connect 1 0 6 0;
#X connect 1 0 3 0;
#X connect 3 0 2 0;
#X connect 4 0 0 0;
#X connect 5 0 1 1;
#X connect 6 0 2 0;
#X restore 452 38 pd HarmonicSave;
#X msg 453 277 add Harmonic1 1.43465 \;;
#N canvas 0 22 951 610 HarmonicSave 0;
#X msg 35 37 bang;
#X obj 35 161 float;
#X obj 91 292 outlet;
#X msg 116 193 add \$1;
#X obj 35 13 r SaveItFIRST;
#X obj 65 62 r Harmonic2FIRST;
#X msg 15 223 set add Harmonic2;
#X connect 0 0 1 0;
#X connect 1 0 6 0;
#X connect 1 0 3 0;
#X connect 3 0 2 0;
#X connect 4 0 0 0;
#X connect 5 0 1 1;
#X connect 6 0 2 0;
#X restore 462 58 pd HarmonicSave;
#X msg 463 297 add Harmonic2 2.05197 \;;
#N canvas 0 22 943 602 HarmonicSave 0;
#X msg 35 37 bang;
#X obj 35 161 float;
#X obj 91 292 outlet;
#X msg 116 193 add \$1;
#X obj 35 13 r SaveItFIRST;
#X obj 65 60 r Harmonic3FIRST;
#X msg 15 222 set add Harmonic3;
#X connect 0 0 1 0;
#X connect 1 0 6 0;
#X connect 1 0 3 0;
#X connect 3 0 2 0;
#X connect 4 0 0 0;
#X connect 5 0 1 1;
#X connect 6 0 2 0;
#X restore 472 78 pd HarmonicSave;
#X msg 473 317 add Harmonic3 0.2 \;;
#N canvas 0 22 959 618 HarmonicSave 0;
#X msg 35 37 bang;
#X obj 35 161 float;
#X obj 91 292 outlet;
#X msg 116 193 add \$1;
#X obj 35 13 r SaveItFIRST;
#X obj 65 60 r Harmonic4FIRST;
#X msg 15 222 set add Harmonic4;
#X connect 0 0 1 0;
#X connect 1 0 6 0;
#X connect 1 0 3 0;
#X connect 3 0 2 0;
#X connect 4 0 0 0;
#X connect 5 0 1 1;
#X connect 6 0 2 0;
#X restore 482 98 pd HarmonicSave;
#N canvas 0 22 959 618 HarmonicSave 0;
#X msg 35 37 bang;
#X obj 35 161 float;
#X obj 91 292 outlet;
#X msg 116 193 add \$1;
#X obj 35 13 r SaveItFIRST;
#X obj 64 59 r Harmonic5FIRST;
#X msg 14 222 set add Harmonic5;
#X connect 0 0 1 0;
#X connect 1 0 6 0;
#X connect 1 0 3 0;
#X connect 3 0 2 0;
#X connect 4 0 0 0;
#X connect 5 0 1 1;
#X connect 6 0 2 0;
#X restore 492 118 pd HarmonicSave;
#X msg 493 357 add Harmonic5 0.2 \;;
#N canvas 0 22 951 610 HarmonicSave 0;
#X msg 35 37 bang;
#X obj 35 161 float;
#X obj 91 292 outlet;
#X msg 116 193 add \$1;
#X obj 35 13 r SaveItFIRST;
#X obj 65 61 r Harmonic6FIRST;
#X msg 15 221 set add Harmonic6;
#X connect 0 0 1 0;
#X connect 1 0 6 0;
#X connect 1 0 3 0;
#X connect 3 0 2 0;
#X connect 4 0 0 0;
#X connect 5 0 1 1;
#X connect 6 0 2 0;
#X restore 502 138 pd HarmonicSave;
#X msg 503 377 add Harmonic6 0.2 \;;
#N canvas 0 22 959 618 HarmonicSave 0;
#X msg 35 37 bang;
#X obj 35 161 float;
#X obj 91 292 outlet;
#X msg 116 193 add \$1;
#X obj 35 13 r SaveItFIRST;
#X obj 64 60 r Harmonic7FIRST;
#X msg 12 223 set add Harmonic7;
#X connect 0 0 1 0;
#X connect 1 0 6 0;
#X connect 1 0 3 0;
#X connect 3 0 2 0;
#X connect 4 0 0 0;
#X connect 5 0 1 1;
#X connect 6 0 2 0;
#X restore 512 158 pd HarmonicSave;
#X msg 513 397 add Harmonic7 0.2 \;;
#N canvas 0 22 955 614 HarmonicSave 0;
#X msg 35 37 bang;
#X obj 35 161 float;
#X obj 91 292 outlet;
#X msg 116 193 add \$1;
#X obj 35 13 r SaveItFIRST;
#X obj 65 60 r Harmonic8FIRST;
#X msg 16 221 set add Harmonic8;
#X connect 0 0 1 0;
#X connect 1 0 6 0;
#X connect 1 0 3 0;
#X connect 3 0 2 0;
#X connect 4 0 0 0;
#X connect 5 0 1 1;
#X connect 6 0 2 0;
#X restore 522 178 pd HarmonicSave;
#X msg 523 417 add Harmonic8 0.2 \;;
#N canvas 0 22 947 606 HarmonicSave 0;
#X msg 35 37 bang;
#X obj 35 161 float;
#X obj 91 292 outlet;
#X msg 116 193 add \$1;
#X obj 35 13 r SaveItFIRST;
#X obj 65 60 r Harmonic9FIRST;
#X msg 15 222 set add Harmonic9;
#X connect 0 0 1 0;
#X connect 1 0 6 0;
#X connect 1 0 3 0;
#X connect 3 0 2 0;
#X connect 4 0 0 0;
#X connect 5 0 1 1;
#X connect 6 0 2 0;
#X restore 532 198 pd HarmonicSave;
#X msg 533 437 add Harmonic9 0.2 \;;
#N canvas 0 22 943 602 HarmonicSave 0;
#X msg 35 37 bang;
#X obj 35 161 float;
#X obj 91 292 outlet;
#X msg 116 193 add \$1;
#X obj 35 13 r SaveItFIRST;
#X obj 65 61 r Harmonic10FIRST;
#X msg 15 222 set add Harmonic10;
#X connect 0 0 1 0;
#X connect 1 0 6 0;
#X connect 1 0 3 0;
#X connect 3 0 2 0;
#X connect 4 0 0 0;
#X connect 5 0 1 1;
#X connect 6 0 2 0;
#X restore 542 218 pd HarmonicSave;
#X msg 543 457 add Harmonic10 0.2 \;;
#N canvas 0 22 943 602 HarmonicSave 0;
#X msg 35 37 bang;
#X obj 35 161 float;
#X obj 91 292 outlet;
#X msg 116 193 add \$1;
#X obj 35 13 r SaveItFIRST;
#X obj 65 60 r Harmonic11FIRST;
#X msg 15 222 set add Harmonic11;
#X connect 0 0 1 0;
#X connect 1 0 6 0;
#X connect 1 0 3 0;
#X connect 3 0 2 0;
#X connect 4 0 0 0;
#X connect 5 0 1 1;
#X connect 6 0 2 0;
#X restore 552 238 pd HarmonicSave;
#X msg 553 477 add Harmonic11 0.2 \;;
#X obj 422 543 outlet;
#X obj 351 168 inlet;
#X obj 352 188 bang;
#X msg 483 337 add Harmonic4 0.2 \;;
#X connect 0 0 12 0;
#X connect 1 0 13 0;
#X connect 2 0 14 0;
#X connect 3 0 15 0;
#X connect 4 0 16 0;
#X connect 5 0 17 0;
#X connect 6 0 18 0;
#X connect 7 0 19 0;
#X connect 8 0 20 0;
#X connect 9 0 21 0;
#X connect 10 0 22 0;
#X connect 11 0 23 0;
#X connect 12 0 24 0;
#X connect 13 0 24 0;
#X connect 14 0 24 0;
#X connect 15 0 24 0;
#X connect 16 0 24 0;
#X connect 17 0 24 0;
#X connect 18 0 24 0;
#X connect 19 0 24 0;
#X connect 20 0 24 0;
#X connect 21 0 24 0;
#X connect 22 0 24 0;
#X connect 23 0 24 0;
#X connect 25 0 26 0;
#X connect 26 0 48 0;
#X connect 27 0 28 0;
#X connect 28 0 48 0;
#X connect 29 0 30 0;
#X connect 30 0 48 0;
#X connect 31 0 32 0;
#X connect 32 0 48 0;
#X connect 33 0 51 0;
#X connect 34 0 35 0;
#X connect 35 0 48 0;
#X connect 36 0 37 0;
#X connect 37 0 48 0;
#X connect 38 0 39 0;
#X connect 39 0 48 0;
#X connect 40 0 41 0;
#X connect 41 0 48 0;
#X connect 42 0 43 0;
#X connect 43 0 48 0;
#X connect 44 0 45 0;
#X connect 45 0 48 0;
#X connect 46 0 47 0;
#X connect 47 0 48 0;
#X connect 49 0 50 0;
#X connect 50 0 12 0;
#X connect 50 0 13 0;
#X connect 50 0 14 0;
#X connect 50 0 15 0;
#X connect 50 0 16 0;
#X connect 50 0 17 0;
#X connect 50 0 18 0;
#X connect 50 0 19 0;
#X connect 50 0 20 0;
#X connect 50 0 21 0;
#X connect 50 0 22 0;
#X connect 50 0 23 0;
#X connect 50 0 26 0;
#X connect 50 0 28 0;
#X connect 50 0 30 0;
#X connect 50 0 32 0;
#X connect 50 0 51 0;
#X connect 50 0 35 0;
#X connect 50 0 37 0;
#X connect 50 0 39 0;
#X connect 50 0 41 0;
#X connect 50 0 43 0;
#X connect 50 0 45 0;
#X connect 50 0 47 0;
#X connect 51 0 48 0;
#X restore 245 200 pd overtoneSAVE;
#X obj 402 13 bang;
#X obj 403 -8 pipe 30;
#N canvas 0 22 542 550 OTonoffSAVE 0;
#X obj 198 505 outlet;
#X msg 211 241 add otONE 1 \;;
#N canvas 0 22 486 336 OTsave 0;
#X msg 43 23 bang;
#X obj 43 147 float;
#X obj 99 278 outlet;
#X msg 124 179 add \$1;
#X obj 43 -1 r SaveItFIRST;
#X obj 72 45 r FIRSTotONE;
#X msg 23 208 set add otONE;
#X connect 0 0 1 0;
#X connect 1 0 6 0;
#X connect 1 0 3 0;
#X connect 3 0 2 0;
#X connect 4 0 0 0;
#X connect 5 0 1 1;
#X connect 6 0 2 0;
#X restore 212 8 pd OTsave;
#X msg 221 261 add otTWO 1 \;;
#N canvas 0 22 482 332 OTsave 0;
#X msg 43 23 bang;
#X obj 43 147 float;
#X obj 99 278 outlet;
#X msg 124 179 add \$1;
#X obj 43 -1 r SaveItFIRST;
#X obj 72 45 r FIRSTotTWO;
#X msg 23 208 set add otTWO;
#X connect 0 0 1 0;
#X connect 1 0 6 0;
#X connect 1 0 3 0;
#X connect 3 0 2 0;
#X connect 4 0 0 0;
#X connect 5 0 1 1;
#X connect 6 0 2 0;
#X restore 222 28 pd OTsave;
#X msg 231 281 add otTHREE 1 \;;
#N canvas 0 22 486 336 OTsave 0;
#X msg 43 23 bang;
#X obj 43 147 float;
#X obj 99 278 outlet;
#X msg 124 179 add \$1;
#X obj 43 -1 r SaveItFIRST;
#X obj 72 44 r FIRSTotTHREE;
#X msg 23 208 set add otTHREE;
#X connect 0 0 1 0;
#X connect 1 0 6 0;
#X connect 1 0 3 0;
#X connect 3 0 2 0;
#X connect 4 0 0 0;
#X connect 5 0 1 1;
#X connect 6 0 2 0;
#X restore 232 48 pd OTsave;
#X msg 241 301 add otFOUR 0 \;;
#N canvas 0 22 482 332 OTsave 0;
#X msg 43 23 bang;
#X obj 43 147 float;
#X obj 99 278 outlet;
#X msg 124 179 add \$1;
#X obj 43 -1 r SaveItFIRST;
#X obj 72 44 r FIRSTotFOUR;
#X msg 23 208 set add otFOUR;
#X connect 0 0 1 0;
#X connect 1 0 6 0;
#X connect 1 0 3 0;
#X connect 3 0 2 0;
#X connect 4 0 0 0;
#X connect 5 0 1 1;
#X connect 6 0 2 0;
#X restore 242 68 pd OTsave;
#X msg 251 321 add otFIVE 1 \;;
#N canvas 0 22 482 332 OTsave 0;
#X msg 43 23 bang;
#X obj 43 147 float;
#X obj 99 278 outlet;
#X msg 124 179 add \$1;
#X obj 43 -1 r SaveItFIRST;
#X obj 72 45 r FIRSTotFIVE;
#X msg 22 208 set add otFIVE;
#X connect 0 0 1 0;
#X connect 1 0 6 0;
#X connect 1 0 3 0;
#X connect 3 0 2 0;
#X connect 4 0 0 0;
#X connect 5 0 1 1;
#X connect 6 0 2 0;
#X restore 252 88 pd OTsave;
#X msg 261 341 add otSIX 0 \;;
#N canvas 0 22 486 336 OTsave 0;
#X msg 43 23 bang;
#X obj 43 147 float;
#X obj 99 278 outlet;
#X msg 124 179 add \$1;
#X obj 43 -1 r SaveItFIRST;
#X obj 72 45 r FIRSTotSIX;
#X msg 23 208 set add otSIX;
#X connect 0 0 1 0;
#X connect 1 0 6 0;
#X connect 1 0 3 0;
#X connect 3 0 2 0;
#X connect 4 0 0 0;
#X connect 5 0 1 1;
#X connect 6 0 2 0;
#X restore 262 108 pd OTsave;
#X msg 271 361 add otSEVEN 1 \;;
#N canvas 0 22 482 332 OTsave 0;
#X msg 43 23 bang;
#X obj 43 147 float;
#X obj 99 278 outlet;
#X msg 124 179 add \$1;
#X obj 43 -1 r SaveItFIRST;
#X obj 71 43 r FIRSTotSEVEN;
#X msg 23 208 set add otSEVEN;
#X connect 0 0 1 0;
#X connect 1 0 6 0;
#X connect 1 0 3 0;
#X connect 3 0 2 0;
#X connect 4 0 0 0;
#X connect 5 0 1 1;
#X connect 6 0 2 0;
#X restore 272 128 pd OTsave;
#X msg 281 381 add otEIGHT 0 \;;
#N canvas 0 22 486 336 OTsave 0;
#X msg 43 23 bang;
#X obj 43 147 float;
#X obj 99 278 outlet;
#X msg 124 179 add \$1;
#X obj 43 -1 r SaveItFIRST;
#X obj 72 45 r FIRSTotEIGHT;
#X msg 24 208 set add otEIGHT;
#X connect 0 0 1 0;
#X connect 1 0 6 0;
#X connect 1 0 3 0;
#X connect 3 0 2 0;
#X connect 4 0 0 0;
#X connect 5 0 1 1;
#X connect 6 0 2 0;
#X restore 282 148 pd OTsave;
#X msg 291 401 add otNINE 1 \;;
#N canvas 0 22 486 336 OTsave 0;
#X msg 43 23 bang;
#X obj 43 147 float;
#X obj 99 278 outlet;
#X msg 124 179 add \$1;
#X obj 43 -1 r SaveItFIRST;
#X obj 70 44 r FIRSTotNINE;
#X msg 23 208 set add otNINE;
#X connect 0 0 1 0;
#X connect 1 0 6 0;
#X connect 1 0 3 0;
#X connect 3 0 2 0;
#X connect 4 0 0 0;
#X connect 5 0 1 1;
#X connect 6 0 2 0;
#X restore 292 168 pd OTsave;
#X msg 301 421 add otTEN 0 \;;
#N canvas 0 22 482 332 OTsave 0;
#X msg 43 23 bang;
#X obj 43 147 float;
#X obj 99 278 outlet;
#X msg 124 179 add \$1;
#X obj 43 -1 r SaveItFIRST;
#X obj 72 45 r FIRSTotTEN;
#X msg 23 208 set add otTEN;
#X connect 0 0 1 0;
#X connect 1 0 6 0;
#X connect 1 0 3 0;
#X connect 3 0 2 0;
#X connect 4 0 0 0;
#X connect 5 0 1 1;
#X connect 6 0 2 0;
#X restore 302 188 pd OTsave;
#X msg 311 441 add otELEVEN 1 \;;
#N canvas 0 22 486 336 OTsave 0;
#X msg 43 23 bang;
#X obj 43 147 float;
#X obj 99 278 outlet;
#X msg 124 179 add \$1;
#X obj 43 -1 r SaveItFIRST;
#X obj 72 45 r FIRSTotELEVEN;
#X msg 23 208 set add otELEVEN;
#X connect 0 0 1 0;
#X connect 1 0 6 0;
#X connect 1 0 3 0;
#X connect 3 0 2 0;
#X connect 4 0 0 0;
#X connect 5 0 1 1;
#X connect 6 0 2 0;
#X restore 312 208 pd OTsave;
#X msg 321 461 add otTWELVE 0 \;;
#N canvas 0 22 486 336 OTsave 0;
#X msg 43 23 bang;
#X obj 43 147 float;
#X obj 99 278 outlet;
#X msg 124 179 add \$1;
#X obj 43 -1 r SaveItFIRST;
#X obj 73 44 r FIRSTotTWELVE;
#X msg 23 208 set add otTWELVE;
#X connect 0 0 1 0;
#X connect 1 0 6 0;
#X connect 1 0 3 0;
#X connect 3 0 2 0;
#X connect 4 0 0 0;
#X connect 5 0 1 1;
#X connect 6 0 2 0;
#X restore 322 228 pd OTsave;
#X msg 331 481 add OTONOFF 0 \;;
#N canvas 0 22 482 332 ONOFFsave 0;
#X msg 43 23 bang;
#X obj 43 147 float;
#X obj 99 278 outlet;
#X msg 124 179 add \$1;
#X obj 43 -1 r SaveItFIRST;
#X obj 72 45 r OTONOFFFIRST;
#X msg 22 209 set add OTONOFF;
#X connect 0 0 1 0;
#X connect 1 0 6 0;
#X connect 1 0 3 0;
#X connect 3 0 2 0;
#X connect 4 0 0 0;
#X connect 5 0 1 1;
#X connect 6 0 2 0;
#X restore 332 248 pd ONOFFsave;
#X obj 5 213 bang;
#X obj 55 177 inlet;
#X connect 1 0 0 0;
#X connect 2 0 1 0;
#X connect 3 0 0 0;
#X connect 4 0 3 0;
#X connect 5 0 0 0;
#X connect 6 0 5 0;
#X connect 7 0 0 0;
#X connect 8 0 7 0;
#X connect 9 0 0 0;
#X connect 10 0 9 0;
#X connect 11 0 0 0;
#X connect 12 0 11 0;
#X connect 13 0 0 0;
#X connect 14 0 13 0;
#X connect 15 0 0 0;
#X connect 16 0 15 0;
#X connect 17 0 0 0;
#X connect 18 0 17 0;
#X connect 19 0 0 0;
#X connect 20 0 19 0;
#X connect 21 0 0 0;
#X connect 22 0 21 0;
#X connect 23 0 0 0;
#X connect 24 0 23 0;
#X connect 25 0 0 0;
#X connect 26 0 25 0;
#X connect 27 0 1 0;
#X connect 27 0 3 0;
#X connect 27 0 5 0;
#X connect 27 0 7 0;
#X connect 27 0 9 0;
#X connect 27 0 11 0;
#X connect 27 0 13 0;
#X connect 27 0 15 0;
#X connect 27 0 17 0;
#X connect 27 0 19 0;
#X connect 27 0 21 0;
#X connect 27 0 23 0;
#X connect 27 0 25 0;
#X connect 28 0 27 0;
#X restore 303 278 pd OTonoffSAVE;
#X connect 0 0 4 0;
#X connect 0 0 6 0;
#X connect 3 0 0 0;
#X connect 4 0 6 0;
#X connect 5 0 6 0;
#X connect 6 0 2 0;
#X connect 8 0 16 0;
#X connect 9 0 6 0;
#X connect 10 0 6 0;
#X connect 11 0 6 0;
#X connect 13 0 7 0;
#X connect 14 0 6 0;
#X connect 14 0 12 0;
#X connect 14 1 6 0;
#X connect 14 1 12 0;
#X connect 15 0 5 0;
#X connect 15 0 9 0;
#X connect 15 0 10 0;
#X connect 15 0 11 0;
#X connect 15 0 14 0;
#X connect 15 0 17 0;
#X connect 15 0 3 0;
#X connect 16 0 15 0;
#X connect 17 0 12 0;
#X connect 17 0 6 0;
#X restore 174 599 pd Saveit!;
#X connect 0 0 49 0;
#X connect 0 1 50 0;
#X connect 48 0 2 0;
